<?xml version="1.0" encoding="UTF-8"?>
<svg id="Layer_1" data-name="Layer 1" xmlns="http://www.w3.org/2000/svg" viewBox="0 0 1000 1000">
  <defs>
    <style>
      .cls-1 {
        fill: #b8e04a;
      }

      .cls-2 {
        fill: #1e3d34;
      }

      .cls-3 {
        fill: #fffaf3;
      }

      .cls-4 {
        fill: #a89fd8;
      }
    </style>
  </defs>
  <path class="cls-2" d="M778.85,507c152.03,28.72,268.35,211.44,182.91,354.72-36.11,60.58-95.07,80.82-163.03,71.55l-5.72,28.09-200.65-23.48c-6.12-15.4,1.55-35.28-3.02-50.2-3.15-10.25-16.9-12.74-23.25-20.28-55.05-65.51-44.98-168.35-19.39-244.25-123.86,1.51-251.32-57.12-327.31-155.12-28.93,2.62-191.52,51.57-204.91,41.81-7.63-5.55-6.21-22.72,0-29.69l147.64-142.52C157.95,177.14,297.07,34.49,448.97,5.38c267.47-51.26,541.45,275.27,329.84,501.58l.04.04ZM48.59,482.81l175.9-42.83c62.29,82.91,181.53,155.52,286.01,163.73,67.65,5.33,52.75-16.87,94.18-50.78,23.16-18.91,57.98-35.86,86.95-43.63,47.56-12.74,53.1,3.15,89.21-41.36,145.69-179.53-45.34-424.13-242-444.02-155.32-15.71-320.39,105.9-348.69,259.51-3.99,21.7.31,46.69-8.83,68.57L48.59,482.81ZM735.47,932.42l35.49,4.57c11.49-4.13,2.97-22.68,18.77-29.87,9.05-4.13,41.12,7.19,58.56,5.81,103.81-8.26,137.04-141.67,106.96-226.85-86.82-245.71-437.06-192.05-408.05,79.18,5.28,49.13,27.55,88.06,71.2,111.71-11.76,11.32-9.45,25.92-8.74,41.1,53.19,18.37,59.98-41.59,57.72-81.93-68.54,9.36-84.64-116.24-15.39-83.71,26.93,12.65,21.03,66.4,54.3,59.25-17.66-42.83-18.28-157.78,50.62-145.05,37.71,6.97,39.13,83.71,18.1,109.81-1.33,9.59-31.72,32.13-29.94,37.64,3.64,11.54,9.32,4.08,14.46.09,20.67-16.2,50.35-47.14,77.59-19.53,36.47,36.97-45.6,75.05-77.28,55.92l-24.31,81.89-.04-.04ZM725.66,792.44c38.11-3.91,55.05-100.22,21.03-106.03-26.04-4.44-38.46,87.79-21.03,106.03ZM662.75,811.79l-26.57-43.41c-22.4,12.38,16.5,52.95,26.57,43.41ZM778.81,831.09c10.07,4.57,43.03-7.68,43.43-16.87.75-17.84-43.12,3.37-43.43,16.87ZM672.43,927.85l41.21-4.7,24.8-80.02-13.04-14.69-33.09,8.08-19.92,91.3.04.04Z"/>
  <path class="cls-2" d="M727.73,970.76c16.34,1.57,61.35,6.4,55.34,29.24-51.5-3.94-99.37-10.88-151.58-9.72-16.96.4-32.02,14.24-45.71-7.34,3.05-2.28,10.47-12.18,11.92-12.18,40.9,0,90.45-3.76,129.98,0h.04Z"/>
  <path class="cls-1" d="M47.91,482.49l132.74-130.97c9.18-21.91,4.84-46.89,8.83-68.66C217.83,129.05,382.92,7.28,538.2,23.01c196.67,19.91,387.71,264.87,242.01,444.59-36.11,44.57-41.66,28.67-89.22,41.42-28.97,7.78-63.8,24.75-86.96,43.69-41.44,33.91-26.57,56.13-94.19,50.84-104.53-8.22-223.74-80.88-286.02-163.95l-175.91,42.89ZM336.51,266.19c-67.04,1.11-64.82,109.42,2.93,94.35,51.91-11.55,42.9-95.11-2.93-94.35ZM472.36,279.97c-58.16,7.64-54.79,101.24-1.29,101.11,66.5-.18,55.64-108.26,1.29-101.11ZM655.72,379.3c11.18-12.22,16.68-45.24,6.74-59.37-29.19-24.53-82.25-14.71-82.74,29.33-.49,41.86,52.35,55.95,76,30.04Z"/>
  <path class="cls-4" d="M735.62,932.11l24.31-81.83c31.68,19.11,113.75-18.94,77.28-55.88-27.24-27.59-56.92,3.37-77.59,19.51-5.1,3.99-10.78,11.44-14.46-.09-1.73-5.5,28.66-28.03,29.95-37.61,21.03-26.08,19.61-102.76-18.1-109.72-68.85-12.73-68.23,102.14-50.62,144.94-33.23,7.14-27.37-46.61-54.3-59.21-69.25-32.51-53.1,92.96,15.39,83.64,2.26,40.32-4.53,100.23-57.72,81.87-.71-15.12-3.02-29.72,8.74-41.07-43.66-23.64-65.97-62.49-71.2-111.63-29.01-271.03,321.19-324.65,408.06-79.12,30.12,85.11-3.15,218.43-106.96,226.68-17.44,1.38-49.51-9.93-58.56-5.81-15.79,7.19-7.32,25.72-18.77,29.85l-35.49-4.57.04.04Z"/>
  <path class="cls-4" d="M672.33,927.36l20.09-90.88,33.25-8.04,13.12,14.58-25,79.66-41.47,4.68Z"/>
  <path class="cls-4" d="M725.34,791.34c-17.59-18.01-5.1-109.34,21.22-104.95,34.34,5.76,17.23,101.04-21.22,104.95Z"/>
  <path class="cls-4" d="M663.06,811.54c-10.25,9.54-49.83-31.01-27.04-43.38l27.04,43.38Z"/>
  <path class="cls-4" d="M778.98,830.53c.31-13.51,44.02-34.75,43.27-16.89-.4,9.2-33.23,21.51-43.27,16.89Z"/>
  <path class="cls-2" d="M472.6,280.09c54.86-7.19,65.84,101.53-1.3,101.67-54.01.13-57.42-93.98,1.3-101.67ZM459.84,356.33c36.9,9.34,44.74-31.51,20.42-52.24-32.16-1.97-36.1,29.54-20.42,52.24Z"/>
  <path class="cls-2" d="M337.01,265.85c46.19-.76,55.32,82.77,2.95,94.38-68.34,15.11-70.58-93.27-2.95-94.38ZM327.43,289.23c-25.11,6.94-26.4,52.63,8.41,47.83,28.69-3.96,20.23-55.7-8.41-47.83Z"/>
  <path class="cls-2" d="M655.75,379.65c-23.69,25.71-76.63,11.71-76.14-29.86.49-43.78,53.65-53.54,82.9-29.15,9.96,14.05,4.45,46.87-6.76,59.01ZM617.12,329.08c-20.31,6.05-16.67,41.57,3.73,42.27,29.69,1.06,33.6-53.4-3.73-42.27Z"/>
  <path class="cls-3" d="M460.21,355.69c-15.67-22.22-11.69-53.05,20.42-51.13,24.32,20.34,16.48,60.27-20.42,51.13Z"/>
  <path class="cls-3" d="M327.6,289.85c28.85-7.94,37.33,44.24,8.48,48.28-35.08,4.85-33.77-41.28-8.48-48.28Z"/>
  <path class="cls-3" d="M617.74,329.15c37.02-11,33.14,42.83,3.7,41.78-20.23-.7-23.84-35.8-3.7-41.78Z"/>
</svg>