<?xml version="1.0" encoding="UTF-8"?>
<svg id="Layer_1" data-name="Layer 1" xmlns="http://www.w3.org/2000/svg" viewBox="0 0 1000 1000">
  <defs>
    <style>
      .cls-1 {
        fill: #1e3d34;
      }
    </style>
  </defs>
  <path class="cls-1" d="M856.18,41.28c-1.83-15-8.61-27.78-20.08-37.57-20.48-17.48-176.59,31.83-214.54,43.83-44.21,13.96-286.4,104.49-298.27,128.23l-9.13,459.94c-100.94,80.22-239.84,208.06-164.98,347.37,167.85,76.44,289-122.23,267.49-274.72-4.69-33.26-25.17-50.61-29.86-83.74-9.65-69.4,7.17-161.49,2.22-233.89l396.47-157.71-16.95,260.1c-83.21,90.01-176.59,182.75-168.89,316.07,2.87,51.14,9.39,72.66,64.69,78.53,126.77,13.57,208.28-152.62,207.75-263.89-.26-56.87-24.39-81.01-30.13-127.44-17.61-145.84,18.91-308.37,14.22-454.99v-.13ZM783.41,173.81l-395.82,158.49c0-37.7-33.91-89.09-.52-121.31,15.78-15.26,397.38-164.62,412.64-148.71l-16.3,111.53Z"/>
</svg>