<?xml version="1.0" encoding="UTF-8"?>
<svg id="Layer_1" data-name="Layer 1" xmlns="http://www.w3.org/2000/svg" viewBox="0 0 1500 1500">
  <defs>
    <style>
      .cls-1 {
        fill: #263c34;
      }

      .cls-2 {
        fill: #a59ed3;
      }

      .cls-3 {
        fill: #fdf9f3;
      }

      .cls-4 {
        fill: #bfde63;
      }
    </style>
  </defs>
  <path class="cls-1" d="M900.08,519.06c9.21,11.9,13.38,28.64,22.01,40.52,29.61,40.78,106.85,20.14,145.34,67.01,27.85,33.91,8.09,82.76,32.41,104.33,23.56,20.89,123.72,36.11,130.51,49.88,1.87,3.75,2.6,8.13.09,11.83-6.02,8.88-157.02,20.54-179.07,26.04l23.14,45.19c22.72,1.17,37.24,6.13,52.4,23.22,8.15,9.15,6.7,19.54,21.44,18.66,5.02-.29,33.71-6.81,36.16-9.21,8.18-7.98,7.01-47.55,20.14-51.3h7.58c10.31,3.06,28.56,47.7,36.05,52.13,11.63,6.88,68.86-.37,61.47,29.62-4.34,17.65-39.91,33.6-42.57,42.04-5.27,16.92,20.23,67.27-15.18,57.73-19.55-5.27-41.6-39.48-57.73-16.95-1.34,5.53,9.25,23.67,10.58,32.08,4.61,29.44-7.1,50.2-25.23,71.61,65.47,67.76,40.06,157.48-64.21,121.14,9.21,64.58-34.51,98.23-96.01,84.33-2.36,7.63,4.47,45.21-1.9,46.67-42.53-.48-85.14.11-127.71,0-130.25-.42-261.7,3.04-392.7,5.64-34.88,15.8-64.21,18.04-100.24,4.38-29.44-11.19-67.12-38.47-72.84-71.24-105.96,23.97-163.67-112.68-63.97-167.18-63.28-50.64-29-120.37,34.82-148.34-29.72-54.84,13.93-100.78,65.69-114.78-3.53-52.31,34.72-101.78,85.71-110.68-18.03-41.27-6.04-131.43,33.45-157.04,16.22-10.53,23.53-1.98,34.51-3.72,4.17-.68,11.35-8.75,18.55-10.2,7.18-1.45,19.9,1.65,21.29.86,1.65-.97,5.51-8.66,8.51-11.77,16.11-16.79,35.08-26.46,43.69-49.38-19.22-13.92-35.34-32.57-52.42-49.34-18.71-18.33-37.85-29.83-54.18-46.16-87.03-86.99-47.95-221.95,48.68-282.33,167.35-104.6,593.36,8.64,524.18,256.46-22.28,79.83-96.27,106.62-172.4,108.36l-.05-.05ZM591.66,501.57c-.59-11.39-31.22-44.11-7.18-46.54,14.5-1.46,47.88,16.94,64.3,17.3,8.59.18,22.28-8.81,31.8-11.32,24.74-6.52,47.04-6.99,71.77.64,7.93,2.45,22.63,13.35,26.9,13.53,4.89.22,11.64-4.65,17.78-5.4,17.91-2.12,41.4,3.95,57.58,11.75,13.7,6.59,28.32,24.46,41,25.96,13.93,1.65,50.68-6.46,65.6-10.31,122.71-31.58,132.93-169.09,58.08-255.89-65.18-75.56-236.36-120.06-333.18-115.11-128.42,6.54-263.97,108.89-209.3,250.25,18.95,48.96,38.12,48.76,71.06,77.3,13.95,12.12,25.4,37.77,43.81,47.79l-.04.04ZM635.33,481.25l-43.61-11.66,20.38,43.61,23.22-31.99.02.04ZM796.22,593.82c-6.24-7.47-.64-12.71-1.67-17.69-.31-1.61-12.36-18.36-15.16-25.16-5.84-14.08-7.89-28.97-11.68-43.54-12.23,12.01-24.19,24.32-36.34,36.4-3.37,3.33-9.8,5.62-11.99,8.53-6.41,8.51,5.47,11.43-17.39,26.07-22.87,14.67-51.5,16.44-75.36,30.83-.7,5.04,6.61,2.76,10.11,2.87,26.84.88,64.05-1.36,64.08,34.93,33.76-17.91,19.02-33.2,10.16-61.08,8.92-8.04,20.1,16.39,21.88,23.16,10.44,39.48-36.77,52.68-59.69,74.26,8.29,8.9,55.29-1.78,52.33,11.59-1.92,1.63-3.81,5.07-5.88,5.95-2.05.88-39.49-1.15-44.78-1.79-46.51-5.68-.26-33.95,15.75-46.27-19.74,9.17-54.97-5.07-70.89.35-8.13,2.75-8.39,38.6-7.32,47.29,3.72,30.16,45.65,57.35,65.15,80.27,15.09,17.71,12.83,32.66,41.4,37.13,45.28,7.07,78.95-29.92,105.41-61.92,18.57-22.41,36.33-53.1,35.03-82.81-18.47-5.55-80.47,4.41-86.71-16.63-9.17-31.02,45.32-31.75,64.1-29.17,11.48,1.57,20.56,7.56,30.45,10.31,17.78,4.96-6.66-16.2-10.91-18.2-6.37-3-15.18-2.42-23.09-6.01-7.29-3.31-33.19-15.2-36.99-19.7h.04ZM521.83,728.43l-8.84-1.28c-6.61-27.72-.48-66.24,13.22-91.84,5.84-10.91,13.51-16.41,18.97-24.64,6.17-9.3-6.65-7.56-13.33-4.6-21.66,9.61-34.28,56.21-38.25,78.09-1.08,5.91-.46,30.5-3.77,32.63-21.4,13.81-5.57-53.5-3.63-60.37,4.54-15.82,13.18-28.89,18.2-44.33-22.36-1.48-36.22,24.64-42.97,42.81-13.07,35.21-15.65,88,6.81,119.85,8.22,11.7,32.15,26.33,33.49,39.37-6.35,59.18-11.04,119.07-29.35,175.99,54.71,25.56,113.3,42.72,171.65,58.26,10.62-61.79,51.41-151.9,43.34-213.49-8.59-65.62-88.51-83.45-89.55-145.45-.15-7.82,14.92-87.72-13.53-60.04-14.68,14.28-17.78,60.02-18.2,80.12-.16,7.18,6.88,23.66-.57,29.11-9.12,6.66-11.44-18.13-11.77-23.2-1.19-19.94,3.09-58.81,10.31-77.16,4.38-11.1,11.79-18.6,15.97-29.11-32.06-2.78-52,45.04-54.97,71.55-1.78,15.87,2.36,32.32-3.26,47.66l.04.05ZM629.2,640.87l3.2-17.12-14.57,4.3-2.54,3.28-.31,9.85,14.23-.31ZM684.78,641.18c-.59-11.1-13.93-15.53-23.23-14.54v14.57l23.23-.04ZM815.71,638.31c-11.79-.18-24.26,3.86-31.95,13.04-.05,6.35,23.86,4.23,29.02,4.36l2.93-17.39ZM865.17,649.97l-23.25-8.75-.04,17.45c8.55-.46,23.45,3.74,23.27-8.7h.02ZM1007.69,658.63c-14.1-10.53-11.22,49.84-11.65,53.76-1.41,12.78-14.87,75.82-23.05,81.66-5.02,3.59-11.79.46-11.85-5.84,0-2.58,13.79-35.65,16.06-45.21,4.38-18.55,15.53-95.23-9.34-101.47-28.53-7.16-9.14,55.39-9.96,70.49-.77,13.73-6.44,33.8-11.22,46.98-2.38,6.55-15.54,37.72-21.75,36.25l-6.57-7.18c20.47-38.01,35.98-84.21,18.03-126.54-4.08-9.59-11.06-25.34-20.12-11.44-8.42,13,.44,51.85-1.65,71.08-2.73,25.23-21.51,46.03-39.29,62.47l-5.97-5.75c4.67-15.36,20.84-23.45,27.48-39.6,11.41-27.61,8.17-69.08-12.8-91.27-7.82,0-13.15,48.98-16.19,59.38-18.79,63.88-106.87,113.13-113.02,157.5-7.58,54.71,38.25,130.02,55.17,181.39l182.89-85.91-34.71-105.92-15.91,8.72-4.39-7.23c25.93-31.29,62.64-57.13,73.62-97.99,8.35-31.03,6.7-68.35-3.86-98.34l.05.02ZM460.73,984.4c15.51-55.29,22.8-112.44,28.73-169.55l-38.71-41.91c-52.62,12.69-82.03,59.63-78.53,112.71-33.58,5.44-76.63,32.5-74.5,70.99.68,11.97,15.38,34.46,10.44,42.33-1.14,1.81-29.97,14.12-37.86,20.36-26.95,21.35-41.8,56.25-20.25,87.01,5.09,7.27,27.54,24.28,27.56,30.71,0,4.72-33.49,28.43-40.78,37.88-30.27,39.26-11.74,94.13,31.91,113.35,23.91,10.55,40.01,6.55,63.97-.2,8.79,6.54,4.38,16.94,8.09,27.02,13.4,36.31,86.15,62.78,122.31,54.07,28.47-6.85,63.37-45.57,61.39-75.23-.27-3.92-11.64-16.39-1.02-18.64,2.71-.59,32.08,12.43,41.29,13.66,93.53,12.73,123.35-77.32,134.23-151.44-64.12-40.32-130.14-81.48-197.47-116.91-14.74-7.76-77.74-41.64-89.15-42.09-25.6-1.04-32.74,60.26-29.51,79.26,2.97,17.43,19.19,31.25,19.66,48.69-14.94,2.47-12.63-15.34-24.26-14.45-15.84,1.23-24.55,11.83-34.33,21.29-7.74,7.51-15.67,5.71-12.93-4.12,3.72-13.24,32.15-27.5,45.37-28.91-13.37-32.76-9.91-73.95,13.02-101.84,24.21-29.44,42.66-.38,71.32,5.86l.02.09ZM1100.83,1273.8c2.05-11.59,0-33.41,0-46.54,0-14.63,35.12.26,42.48,1.15,31.29,3.63,62.05-4.89,59.3-41.8-2.14-28.93-25.19-53.06-40.83-75.66,0-7.09,24.22-22.48,27.83-36.27,4.36-16.72,2.6-41.69-9.15-55.22-64.12,22.56-29.92-28.29-24.86-62.11-1.98-8.42-25.94-19.1-30.08-28.29-5.07-11.22,6.65-17.32-8.88-34.66-13.7-15.29-33.6-18.44-53.28-18-4.49-17.06-11.44-37.35-23.64-50.52-6.28-6.77-31.07-25.65-39.37-19.21-2.73,2.11-30.1,34.42-30.49,36.8-1.3,7.93,30.54,105.41,35.21,108.74,3.11,2.25,10.44-5.51,18.77-.07,19.74,12.93,40.15,50.96,42.19,74.3,1.26,14.41-5.02,47.07-3.13,54.76.44,1.7,10.02,6.81,13.29,10.69,12.87,15.25,15.51,39.22,11.65,58.35h-8.92c-3.04-17.65-2.34-37.83-14.74-52.18-4.1-4.74-13.2-7.29-15.18-14.01-3.04-10.36,5.69-32.11,5.49-45.94-.35-28.12-15.23-59.27-39.44-74.19-58.61,27.79-119.14,51.8-176.12,82.91-16.99,9.25-44.33,23.18-59.14,33.95-19.08,13.84-17.74,58.65-.4,75.14,12.8,12.14,25.54,9.63,40.79,14.52,3.99,3.84,2.89,32,5.02,41.47,8.66,38.83,45.63,62.53,84.83,57.2,15-2.05,33.98-18.93,45.52-16.08,6.39,1.57,20.51,29.72,32.02,37.96,29.4,21.09,105.22,27.98,113.26-17.27v.05ZM742.81,853.78l-43.43-23.51c3.72,20.95-.26,42.57-2.71,63.68,14.89,7.6,30.34,8.29,46.36,3.17-5.13-14.76-2.91-28.49-.2-43.34h-.02ZM1257.91,1013.49l-5.22-47.39,43.05-44.18c-2.07-8.84-49.45-10-58.37-11.52-5.53-17.67-14.92-34.26-27.46-48.12-4.78-.11-8.5,30.08-10.95,35.56-9.34,20.67-41.42,16.94-60.31,22.59-4.39,4.82,21.57,18.88,24.66,23.31,14.76,21.18-9.04,47.31-7.21,69.74,18.36-2.09,35.98-27.56,53.81-26.42,9.98.6,44.4,30.47,47.99,26.42h.02ZM745.66,911.89c-18.84,3.94-34.64,2.4-52.09-6.01l-49.38,181.85c12.08,8.81,67.54,34,68.94,46.84.64,5.91-14.34,64.74-17.5,74.43-24.74,75.75-80.67,109.69-159.16,86.6-.88,24.28-14.63,45.52-29.13,63.97l497.69-7.05c4.03-2.8,4.14-32.61,1.39-36.67-2.03-2.97-10.25-3.61-14.17-6.19-18.79-12.29-29.92-23.33-41.51-42.92-67.38,43.1-147.37-3.97-141.18-84.17-49.55-3.55-67.91-56.56-49.25-97.99,7.29-16.2,37.57-24.35,37.44-34.15l-52.05-138.53-.02-.02Z"/>
  <path class="cls-1" d="M274.6,705.18c19.48-7.87,28.34-35.08,52.37-31.97,11.21,10.97-38.18,38.25-43.56,45.08,0,5.69,54.27,16.02,63.11,21.18,4.91,2.89,7.76,4.06,6.61,10.77-2.93,4.21-4.58,4.27-9.34,3.86-12.14-1.06-59.05-22.04-66.26-16.86l20.25,53.54-7.12,4.6-21.59-42.39c-1.57-3.08,1.52-5.47-6.06-4.14-1.81,1.92-10.49,42.86-15.05,50.41-3.55,5.88-13.59,7.03-14.1,3.3l8.73-42.06c-15.56,1.06-26.29,40.9-40.01,21.84l42.94-50.92c-11.11.29-22.41-.48-33.56-.15-6.28.15-26.35,7.76-21.68-7.1,2.22-7.1,49.49-7.74,58.15-7.34-1.19-7.47-38.96-48.79-21.77-52.31,8.68-1.79,24.32,36.44,33.41,40.7v-59.62c0-10.44,14.54-7.98,14.54-2.91v62.53l-.02-.04Z"/>
  <path class="cls-1" d="M1266.64,478.28c6.9-13.07-9.04-27.52-19.37-34.4-41.82-27.83-91.57-5.68-105.72,40.19,30.5-7.58,73.79-2.45,88.89,28.97,25.71,53.39-57.53,72.58-91.33,24.39-2.4-3.44-9.7-26.4-15-21.33-8.62,20.91-7.63,39.9,2.36,60.13,4.03,8.17,29.28,32.76,7.73,30.14-12.27-1.5-29.28-44.8-30.27-57.22-2.45-30.34,13.42-35.26,22.26-55.68,3.44-7.98,3.55-17.5,7.93-26.97,21.37-46.25,80.91-62.33,122.31-31.88,11.21,8.26,36.2,34.73,17.54,45.79l-7.38-2.18.04.05ZM1216.33,544.36c20.65-25.71-22.98-52.18-47-51.6-53.57,1.26-17.03,52.11,12.18,57.57,9.52,1.79,28.18,2.31,34.82-5.97Z"/>
  <path class="cls-1" d="M329.49,385.56l.37,11.26c-73.66-15.95-89.08,103.41-17.47,113.43-8.09-23.55,11.32-60.77,34.26-69.01,23.77-8.55,54.75,8.66,53.13,35.48-1.37,23.07-24.1,41.75-44.29,49-7.09,2.55-19.19-1.24-16.92,7.78,21.75,9.76,49.07,19.43,71.28,5.91l4.1,14.26c-28.58,10.77-58.15,6.24-82.59-11.48-5.79-4.19-10.45-12.49-16.28-15.69-9.72-5.35-21.09-5.71-32.77-13.77-55.7-38.49-25.27-147.37,47.17-127.18h.02ZM327.22,515.89c16.33-.84,34.17-4.03,46.38-15.67,32.65-31.07-6.72-65.07-35.14-38.07-12.94,12.3-18.49,37.5-11.24,53.74Z"/>
  <path class="cls-4" d="M460.73,984.4c-28.65-6.24-47.09-35.34-71.3-5.88-22.91,27.89-26.4,69.1-13.04,101.84-13.2,1.43-41.65,15.67-45.35,28.91-2.76,9.85,5.16,11.63,12.91,4.14,9.8-9.48,18.49-20.07,34.35-21.29,11.63-.9,9.32,16.92,24.26,14.43-.46-17.39-16.72-31.25-19.66-48.68-3.24-18.99,3.92-80.27,29.51-79.26,11.39.46,74.41,34.33,89.13,42.09,67.34,35.45,133.37,76.59,197.47,116.92-10.86,74.12-40.7,164.14-134.21,151.42-9.21-1.25-38.6-14.24-41.29-13.66-10.62,2.27.75,14.72,1.01,18.66,1.98,29.64-32.88,68.37-61.37,75.23-36.16,8.7-108.92-17.78-122.33-54.07-3.7-10.09.68-20.51-8.07-27.04-23.97,6.76-40.1,10.73-63.97.22-43.69-19.24-62.18-74.12-31.91-113.37,7.29-9.45,40.79-33.14,40.78-37.86-.04-6.46-22.47-23.47-27.57-30.72-21.53-30.78-6.7-65.66,20.25-87.01,7.91-6.24,36.77-18.55,37.88-20.36,4.91-7.87-9.8-30.34-10.44-42.33-2.14-38.5,40.94-65.57,74.48-70.99-3.5-53.08,25.91-100.06,78.55-112.69l38.69,41.89c-5.91,57.11-13.2,114.23-28.71,169.55l-.04-.07Z"/>
  <path class="cls-4" d="M1100.83,1273.8c-8.04,45.24-83.88,38.36-113.26,17.27-11.52-8.24-25.63-36.38-32.02-37.96-11.54-2.86-30.52,14.03-45.52,16.08-39.2,5.33-76.13-18.36-84.83-57.2-2.14-9.5-1.02-37.63-5.02-41.47-15.27-4.89-28.03-2.38-40.79-14.52-17.32-16.5-18.68-61.3.4-75.14,14.81-10.77,42.15-24.7,59.14-33.96,56.98-31.09,117.51-55.09,176.12-82.89,24.21,14.9,39.09,46.07,39.44,74.19.16,13.82-8.53,35.61-5.49,45.94,1.98,6.72,11.08,9.26,15.18,14.01,12.4,14.34,11.66,34.51,14.74,52.18h8.92c3.86-19.17,1.24-43.1-11.65-58.37-3.28-3.9-12.85-8.99-13.27-10.71-1.9-7.67,4.38-40.34,3.11-54.76-2.05-23.34-22.47-61.37-42.19-74.3-8.33-5.44-15.65,2.31-18.77.09-4.67-3.33-36.51-100.83-35.21-108.76.4-2.38,27.76-34.7,30.49-36.8,8.29-6.43,33.08,12.41,39.37,19.22,12.19,13.18,19.15,33.43,23.64,50.52,19.7-.46,39.59,2.69,53.28,17.98,15.53,17.32,3.81,23.44,8.88,34.68,4.14,9.15,28.11,19.83,30.08,28.29-5.05,33.8-39.26,84.64,24.86,62.11,11.76,13.53,13.51,38.5,9.15,55.2-3.61,13.82-27.83,29.2-27.83,36.27,15.62,22.63,38.67,46.73,40.83,75.65,2.73,36.95-28.01,45.46-59.3,41.8-7.36-.86-42.48-15.76-42.48-1.15,0,13.15,2.05,34.93,0,46.54v-.02Z"/>
  <path class="cls-2" d="M591.68,501.57c-18.42-10.03-29.88-35.67-43.83-47.77-32.94-28.54-52.09-28.34-71.04-77.3-54.69-141.37,80.89-243.7,209.3-250.25,96.82-4.94,267.96,39.55,333.16,115.09,74.89,86.79,64.65,224.31-58.06,255.91-14.92,3.84-51.67,11.96-65.6,10.31-12.69-1.5-27.3-19.41-41-25.96-16.22-7.8-39.71-13.92-57.6-11.75-6.1.75-12.89,5.6-17.76,5.4-4.28-.18-18.99-11.08-26.91-13.53-24.7-7.64-47.02-7.16-71.76-.64-9.54,2.51-23.2,11.5-31.82,11.32-16.41-.38-49.82-18.77-64.28-17.3-24.04,2.44,6.59,35.15,7.18,46.54l.04-.05ZM658.64,266c-15.89.73-32.13-1.06-47.99,0-16.02,1.1-32.43,16.42-30.32-9.81,2.34-29.62,26.26-50.26,56.32-45.26,11.15,1.83,18.2,19.94,23.47,11.48,9.43-15.14-24.21-26.18-34.93-26.18-27.21,0-54.14,27.43-56.7,53.78-.92,9.23,3.04,24.41,2.22,28.76-.82,4.36-16.26,15.27-20.25,23.03-23.29,45.04,34.09,98.23,77.54,101.03l107.72-5.84c10.56,2.03,19.19,23.25,29.22,31.84,15.86,13.59,34.46,17.27,54.97,14.35,12.4-1.76,41.14-14.65,52.69-14.08,3.94.18,20.98,11.32,30.32,13.04,60.29,11.11,119.89-45.37,89.81-104.31-3.08-5.99-12.23-14.45-13.4-18.6-1.7-5.99.29-12.94-1.3-19.06-9.87-38.08-48.85-69.01-88.07-71.92-9.8-.73-26.29,3.81-31.33,2.47-2.25-.6-19.99-15.51-27.68-19.1-20.58-9.61-45.79-12.69-68.28-8.9-9.39,1.57-24.75,12.76-29.77,12.76-3.85,0-12.1-5.95-18.18-6.96-33.32-5.51-63.06,23.69-55.99,57.51l-.07-.04Z"/>
  <path class="cls-4" d="M745.66,911.87l52.04,138.55c.15,9.81-30.16,17.92-37.44,34.13-18.66,41.45-.29,94.46,49.27,97.99-6.19,80.2,73.79,127.29,141.18,84.19,11.57,19.59,22.7,30.65,41.49,42.9,3.95,2.56,12.18,3.24,14.17,6.21,2.75,4.05,2.65,33.85-1.39,36.66l-497.67,7.05c14.5-18.44,28.23-39.68,29.11-63.97,78.49,23.07,134.43-10.88,159.16-86.6,3.19-9.69,18.13-68.5,17.52-74.43-1.39-12.83-56.83-37.99-68.94-46.84l49.36-181.85c17.49,8.4,33.29,9.96,52.09,6.01l.04.02Z"/>
  <path class="cls-3" d="M521.83,728.43c5.6-15.34,1.5-31.79,3.26-47.66,2.97-26.51,22.89-74.34,54.95-71.55-4.16,10.49-11.59,18.02-15.97,29.11-7.23,18.33-11.5,57.22-10.29,77.16.29,5.07,2.62,29.86,11.77,23.2,7.43-5.46.38-21.93.55-29.13.42-20.09,3.53-65.82,18.2-80.1,28.43-27.68,13.4,52.22,13.53,60.04,1.04,62,80.98,79.83,89.57,145.45,8.06,61.59-32.7,151.69-43.34,213.49-58.35-15.54-116.94-32.7-171.67-58.26,18.29-56.92,22.98-116.81,29.37-175.99-1.34-13.05-25.29-27.7-33.49-39.37-22.45-31.86-19.88-84.68-6.81-119.85,6.76-18.16,20.6-44.29,42.97-42.81-5.02,15.43-13.64,28.51-18.22,44.33-1.96,6.87-17.8,74.17,3.64,60.37,3.3-2.12,2.65-26.71,3.75-32.63,3.97-21.92,16.61-68.51,38.25-78.09,6.7-2.97,19.52-4.72,13.35,4.6-5.47,8.24-13.13,13.73-18.99,24.64-13.68,25.6-19.83,64.1-13.2,91.84l8.83,1.28-.02-.05Z"/>
  <path class="cls-3" d="M1007.69,658.63c10.56,30.03,12.21,67.34,3.86,98.36-11.02,40.89-47.71,66.72-73.62,97.99l4.39,7.23,15.91-8.73,34.71,105.94-182.89,85.91c-16.92-51.38-62.75-126.7-55.17-181.41,6.15-44.35,94.28-93.62,113.02-157.48,3.08-10.4,8.35-59.41,16.19-59.38,20.96,22.17,24.17,63.64,12.8,91.27-6.65,16.11-22.81,24.22-27.48,39.6l5.97,5.73c17.82-16.44,36.56-37.22,39.29-62.47,2.09-19.21-6.81-58.08,1.65-71.06,9.05-13.92,16.04,1.83,20.12,11.44,17.94,42.33,2.42,88.49-18.03,126.52l6.57,7.18c6.21,1.48,19.37-29.66,21.75-36.23,4.76-13.18,10.45-33.25,11.22-47,.82-15.11-18.57-77.63,9.96-70.47,24.86,6.24,13.7,82.91,9.34,101.45-2.23,9.56-16.06,42.62-16.06,45.22.04,6.3,6.79,9.41,11.85,5.84,8.18-5.84,21.64-68.88,23.05-81.66.42-3.95-2.45-64.3,11.65-53.76l-.05-.04Z"/>
  <path class="cls-3" d="M796.22,593.82c3.79,4.5,29.7,16.39,36.99,19.68,7.89,3.61,16.73,3.02,23.09,6.01,4.23,2.01,28.65,23.14,10.91,18.22-9.87-2.76-18.95-8.73-30.45-10.31-18.79-2.6-73.29-1.85-64.1,29.17,6.21,21,68.24,11.08,86.7,16.63,1.32,29.7-16.46,60.4-35.01,82.81-26.48,32-60.11,68.99-105.43,61.92-28.54-4.47-26.27-19.43-41.38-37.13-19.54-22.92-61.45-50.11-65.15-80.27-1.08-8.7-.81-44.53,7.31-47.29,15.93-5.42,51.16,8.81,70.91-.35-16.02,12.32-62.29,40.56-15.75,46.27,5.25.64,42.72,2.67,44.78,1.79,2.05-.88,3.94-4.32,5.86-5.95,2.97-13.37-44.05-2.69-52.33-11.59,22.92-21.59,70.14-34.82,59.71-74.26-1.79-6.77-12.94-31.2-21.9-23.16,8.86,27.89,23.6,43.17-10.16,61.08,0-36.29-37.21-34.06-64.08-34.93-3.5-.11-10.82,2.16-10.11-2.87,23.86-14.41,52.31-16.09,75.36-30.83,23.07-14.72,11.02-17.56,17.41-26.07,2.18-2.91,8.61-5.2,11.97-8.53,12.18-12.1,24.1-24.37,36.34-36.4,3.79,14.56,5.86,29.46,11.7,43.54,2.82,6.81,14.83,23.55,15.16,25.14,1.01,5-4.61,10.23,1.65,17.71h-.02ZM742.18,705.85c-27.7,4.98-53.04,52.69-26.2,59.96,13.7,3.72,19.37-16.46,29.04-19.35,8.18-2.42,18.79.75,27.89-1.23,29.5-6.37,9.45-46.62-30.72-39.42v.04Z"/>
  <path class="cls-2" d="M1257.91,1013.49c-3.61,4.05-37.99-25.82-47.99-26.42-17.82-1.14-35.43,24.33-53.79,26.42-1.85-22.43,21.97-48.56,7.2-69.74-3.09-4.45-29.06-18.53-24.64-23.31,18.9-5.66,50.97-1.89,60.31-22.59,2.45-5.44,6.17-35.63,10.93-35.56,12.56,13.86,21.95,30.45,27.46,48.12,8.92,1.52,56.32,2.67,58.37,11.52l-43.05,44.18,5.24,47.39h-.04Z"/>
  <path class="cls-3" d="M742.81,853.78c-2.73,14.85-4.91,28.58.18,43.34-16,5.16-31.46,4.47-46.36-3.17,2.45-21.13,6.44-42.75,2.73-63.68l43.43,23.51h.02Z"/>
  <path class="cls-3" d="M815.71,638.31l-2.93,17.39c-5.16-.13-29.08,2-29.02-4.36,7.69-9.17,20.16-13.26,31.95-13.04Z"/>
  <path class="cls-3" d="M865.17,649.97c.18,12.43-14.7,8.24-23.27,8.7l.05-17.45,23.25,8.75h-.04Z"/>
  <path class="cls-3" d="M684.78,641.18h-23.27l.04-14.54c9.3-.99,22.65,3.44,23.23,14.54Z"/>
  <path class="cls-3" d="M629.2,640.87l-14.23.31.31-9.87,2.54-3.28,14.57-4.3-3.2,17.14Z"/>
  <path class="cls-1" d="M658.64,266c-7.09-33.82,22.65-63.04,55.99-57.51,6.08,1.01,14.32,6.96,18.16,6.96,5.02,0,20.38-11.17,29.79-12.74,22.47-3.79,47.71-.73,68.28,8.88,7.67,3.61,25.43,18.49,27.67,19.12,5.05,1.35,21.53-3.2,31.33-2.49,39.24,2.91,78.24,33.84,88.07,71.92,1.57,6.12-.38,13.09,1.32,19.06,1.17,4.17,10.34,12.6,13.4,18.6,30.1,58.96-29.5,115.42-89.81,104.33-9.37-1.74-26.4-12.87-30.32-13.05-11.55-.53-40.3,12.32-52.71,14.1-20.49,2.93-39.09-.75-54.95-14.37-10.03-8.59-18.66-29.81-29.22-31.82l-107.72,5.84c-43.45-2.78-100.79-55.99-77.56-101.05,4.01-7.76,19.41-18.46,20.25-23.03.86-4.56-3.11-19.54-2.22-28.76,2.56-26.35,29.53-53.78,56.72-53.78,10.73,0,44.35,11.06,34.93,26.18-5.25,8.46-12.32-9.61-23.49-11.48-30.05-4.98-53.96,15.64-56.3,45.26-2.09,26.24,14.3,10.91,30.32,9.83,15.87-1.1,32.1.71,47.97,0l.09.02ZM844.77,234.03c-28.78-15.87-63.72-30.83-95.21-12.36-8.68,5.09,1.83,8.64,5.6,16.09,3.46,6.87,15.86,33.52,16.39,39.09.9,9.36-9.8,19.46-8.22,29.83,37.96-7.93,92.92,23.16,98.72,62.73,2.25,15.49-5.88,31.9,10.38,41.86,9.81-6.81,15.49-21.64,13.18-33.34-2.03-10.18-22.28-6.41-17.76-25.74,9.26-11.08,19.81,8.35,26.4-.33,8.99-11.85,4.65-29.06-4.38-39.27-14.63,15.89-36.8,8.83-49.49-5.88l-6.13,8.51c-21.4-2.44-50.06-17.72-43.41-43.47,8.17-31.79,46.89-8.04,53.92-37.72ZM716.31,248.04l6.32-21.24c-20.12-17.34-58.85,10.02-52.13,34.48,2.56,9.37,17.72-4.89,23.89-7.49,6.99-3,14.7-3.66,21.92-5.75ZM740.02,236.91c-7.12-1.17-9.12,6.79-11.57,11.59l17.43,2.93-5.86-14.52ZM964.08,306.69c-3.97-42.66-53.19-68.28-93.09-63.96l34.95,72.67c7.32.7,9.78-7.64,16.63-10.97,14.79-7.18,27.34-3.22,41.51,2.25ZM859.29,248.55l-11.52,7.25,20.29,13.09-8.77-20.34ZM716.62,263.24l-28.93,10.03c14.24,6.04,23.29,8.75,19.99,27.24-17.12,10.11-25.71-6.63-40.23-8.22-15.65,28.4-8.29,54.87,15.86,75.45,17.98-15.16,4.16-41.09,24.61-56.8,16.11-12.41,23.8-3.83,40.81-1.37l1.78-11.74c-19.19-4.3-31.62-14.17-33.85-34.61h-.04ZM731.36,263.09c-4.67,9.26,20.65,29.02,23.27,15.93,1.87-9.41-14.92-17.32-23.27-15.93ZM833.15,300.86c-1.3-7.38-5.02-13.33-6.94-20.95-1.92-7.64,5.04-18.02-7.74-15.67-30.45,5.6-7.76,38.08,14.68,36.58v.04ZM876.06,306.05c12.38-12.69-25.93-33.65-37.04-37.15-7.03,15.64,25.27,49.2,37.04,37.15ZM658.6,280.56l-23.27-2.91c19.08,29.13-13.79,38.08-37.79,29.06-3.06,23.73,7.38,42.92,24.66,58.22,11.5,10.2,38.36,27.7,50.92,13.04-20.89-19.22-30.32-43.5-25.43-72.01,1.76-10.33,8.57-16.09,10.95-25.4h-.04ZM626.58,295.04c-.81-14.04-18.31-9.91-23.25-1.41,7.34,3.41,15.71,4.08,23.25,1.41ZM629.51,388.11c-22.34-17.27-44.8-38.3-46.34-68.79-.35-6.96,3.81-13.53,2.31-19.22-3.81-14.57-16.48-3.84-21.26,3.83-22.43,35.98,28.87,86.02,65.33,84.19h-.04ZM931.25,316.08c-28.29,6.44-7.76,51.93,21.17,29.83,24.5-18.73,2.98-35.36-21.17-29.83ZM731.33,318.37c-37.28-4.43-10.33,37.74,1.46,52.27,9.45-9.63,11.48-21.83,10.18-34.84-5.95,1.57-9.56,3.22-13.22-2.97l1.57-14.46ZM850.59,382.31c-4.98-45.39-53.43-72.8-95.85-60.95,3.74,19.92,4.63,38.65-8.84,55.11,19.26,1.79,1.87,14.24,27.3,11.32,12.71-1.46,24.43-7.07,33.84-15.58,6.44-5.82,19.28-30.96,26.86-18.18,5.26,8.86,7.53,22.21,16.7,28.29ZM978.6,338.71l-21.75,20.36c-15.64,10.11-33.69,7.14-46.58-5.8-16.06,13.79-9.01,19.57-10.82,35.5-1.17,10.25-6.52,22.56-13.82,29.92,52.8,34.93,126.26-19.61,92.99-79.98h-.02ZM710.97,382.31c3.31-3.35-12.76-20.49-14.52-10.11-1.01,5.95,12.83,11.85,14.52,10.11ZM766.26,399.79c10.25,13.57,61.54,28.51,72.62,18.77,18.95-16.66-9.15-29.11-11.55-47.88-17.74,16.9-34.2,32.54-61.06,29.11Z"/>
  <path class="cls-1" d="M742.18,705.85c40.17-7.23,60.22,33.03,30.72,39.42-9.1,1.98-19.7-1.21-27.89,1.23-9.67,2.86-15.34,23.05-29.04,19.35-26.84-7.29-1.5-54.98,26.2-59.98v-.02ZM772.05,725.59c-15.98-10.23-30.69-11.97-44.77,3.15-7.43,7.96-13.4,29.88-3.15,20.12,17.12-16.3,17.17-21.09,46.49-17.47l1.43-5.77v-.04Z"/>
  <path class="cls-2" d="M844.77,234.03c-7.01,29.68-45.74,5.95-53.92,37.72-6.63,25.74,22.01,41.03,43.41,43.47l6.13-8.51c12.69,14.68,34.86,21.77,49.49,5.88,9.01,10.22,13.37,27.43,4.38,39.27-6.59,8.68-17.14-10.75-26.4.33-4.54,19.37,15.73,15.56,17.76,25.74,2.31,11.7-3.37,26.51-13.18,33.34-16.26-9.96-8.13-26.4-10.38-41.86-5.8-39.55-60.77-70.66-98.72-62.73-1.57-10.36,9.12-20.47,8.22-29.83-.53-5.57-12.93-32.22-16.39-39.09-3.77-7.45-14.28-10.99-5.6-16.09,31.49-18.47,66.39-3.55,95.21,12.36Z"/>
  <path class="cls-2" d="M978.6,338.71c33.25,60.37-40.19,114.91-93.01,79.98,7.32-7.36,12.69-19.66,13.82-29.92,1.81-15.93-5.22-21.72,10.84-35.48,12.91,12.93,30.92,15.89,46.58,5.79l21.75-20.36h.02Z"/>
  <path class="cls-2" d="M850.59,382.31c-9.17-6.1-11.43-19.43-16.7-28.29-7.58-12.78-20.41,12.4-26.86,18.18-9.41,8.51-21.15,14.12-33.84,15.58-25.45,2.93-8.04-9.56-27.3-11.32,13.51-16.5,12.58-35.19,8.84-55.11,42.42-11.83,90.89,15.58,95.85,60.95Z"/>
  <path class="cls-2" d="M964.08,306.69c-14.17-5.46-26.75-9.43-41.51-2.25-6.85,3.33-9.3,11.66-16.63,10.97l-34.95-72.67c39.86-4.32,89.11,21.29,93.09,63.96Z"/>
  <path class="cls-2" d="M658.6,280.56c-2.34,9.3-9.15,15.07-10.93,25.4-4.89,28.51,4.52,52.79,25.43,72.01-12.58,14.68-39.42-2.84-50.92-13.02-17.28-15.33-27.74-34.5-24.66-58.24,24.02,9.03,56.89.07,37.79-29.06l23.27,2.91h.02Z"/>
  <path class="cls-2" d="M716.62,263.24c2.23,20.43,14.68,30.3,33.87,34.61l-1.79,11.74c-16.99-2.47-24.66-11.04-40.81,1.37-20.43,15.71-6.61,41.64-24.61,56.8-24.15-20.58-31.51-47.06-15.84-75.45,14.48,1.59,23.11,18.33,40.21,8.22,3.31-18.49-5.71-21.18-19.98-27.24l28.93-10.03h.02Z"/>
  <path class="cls-2" d="M629.51,388.11c-36.45,1.81-87.72-48.23-65.33-84.19,4.78-7.67,17.45-18.4,21.28-3.84,1.48,5.71-2.67,12.29-2.33,19.24,1.56,30.49,24.04,51.52,46.36,68.79h.02Z"/>
  <path class="cls-2" d="M766.26,399.79c26.84,3.44,43.32-12.21,61.06-29.11,2.4,18.77,30.5,31.22,11.55,47.88-11.08,9.74-62.36-5.2-72.62-18.77Z"/>
  <path class="cls-2" d="M716.31,248.04c-7.21,2.09-14.92,2.75-21.92,5.75-6.19,2.64-21.33,16.88-23.89,7.49-6.72-24.5,32.02-51.82,52.13-34.48l-6.32,21.24Z"/>
  <path class="cls-2" d="M931.25,316.08c24.15-5.53,45.66,11.1,21.17,29.83-28.93,22.1-49.45-23.38-21.17-29.83Z"/>
  <path class="cls-2" d="M731.33,318.37l-1.57,14.46c3.66,6.19,7.27,4.54,13.22,2.97,1.3,13.02-.73,25.21-10.18,34.84-11.79-14.5-38.74-56.7-1.46-52.27Z"/>
  <path class="cls-2" d="M876.06,306.05c-11.81,12.05-44.07-21.51-37.04-37.15,11.11,3.46,49.42,24.46,37.04,37.15Z"/>
  <path class="cls-2" d="M833.15,300.86c-22.45,1.48-45.13-30.98-14.68-36.6,12.76-2.34,5.84,8.26,7.74,15.67,1.89,7.42,5.64,13.57,6.94,20.95v-.02Z"/>
  <path class="cls-2" d="M731.36,263.09c8.35-1.41,25.14,6.52,23.27,15.95-2.6,13.09-27.94-6.68-23.27-15.95Z"/>
  <path class="cls-2" d="M626.58,295.04c-7.54,2.64-15.91,2-23.25-1.41,4.93-8.5,22.43-12.63,23.25,1.41Z"/>
  <path class="cls-2" d="M859.29,248.55l8.77,20.34-20.29-13.07,11.52-7.27Z"/>
  <path class="cls-2" d="M740.02,236.91l5.86,14.52-17.43-2.93c2.45-4.8,4.45-12.78,11.57-11.59Z"/>
  <path class="cls-2" d="M710.97,382.31c-1.68,1.72-15.53-4.19-14.52-10.11,1.76-10.38,17.83,6.76,14.52,10.11Z"/>
  <path class="cls-3" d="M772.05,725.59l-1.43,5.77c-29.31-3.59-29.37,1.21-46.49,17.49-10.25,9.74-4.28-12.18,3.15-20.12,14.08-15.12,28.78-13.4,44.77-3.15v.02Z"/>
</svg>