<?xml version="1.0" encoding="UTF-8"?>
<svg id="Layer_1" data-name="Layer 1" xmlns="http://www.w3.org/2000/svg" viewBox="0 0 1500 1500">
  <defs>
    <style>
      .cls-1 {
        fill: #98bdb0;
      }

      .cls-2 {
        fill: #263c34;
      }

      .cls-3 {
        fill: #a59ed3;
      }

      .cls-4 {
        fill: #395e53;
      }

      .cls-5 {
        fill: #fdf9f3;
      }

      .cls-6 {
        fill: #bfde63;
      }
    </style>
  </defs>
  <path class="cls-2" d="M564.15,447.08c47.48-37.11,112.87-33.04,152.82,12.53,13.27-43.39,71.15-65.79,110.15-41.17,16.65,10.51,14.47,8.13,32.69,14.92,22.15,8.23,43.39,34.77,42.67,58.85,37.13-17.77,48.7,36.37,44.89,63.69-.7,4.88-7.57,22.84-10.51,25.84-4.8,4.89-18.47,5.17-19.18,5.88-.85.88-2.62,17.97-4.77,24.06-10.33,29.27-35.39,54.94-65.02,64.02l-5.56,32.01c51.85-32.16,110.33-53.32,170.21-65.32,3.04-20.83,13.38-42.55,21.57-62.4,14.8-35.86,31.46-71.02,45.72-107.13,2.86-7.86,11.44-6.45,18.24-4.54l252.89,85.41c7.2,4.48,26.06,33.99,24.78,41.84l-146.31,375.13-13.77,4.14-247.34-86.21c-7.5.09-6.97-15.41-12-13.03-2.2,1.03-20.24,29.49-25.07,35.08-31.4,36.39-73.55,55.1-121.57,40.07,3.88,45.26-25.1,108.5-69.64,124.58-6.09,2.21-21.41,2.26-22.95,7.24,26.5,85.36-61.53,157.67-143.07,135.05-16.22-4.51-29.37-15.85-45.04-21.36-21.84,76.37-132.14,52.91-178,11.3-32.04-29.07-38.69-67.02-56.9-103.36-1.48-2.98-5.39-3.11-5.74-4.89-1.5-7.47,3.29-18.33,7.47-24.59-26.95-19.42-48.22-1.7-68.93,16.24-14.36,12.45-42.77,51.35-58.14,54.73-21.36,4.67-15.41-19.59-11.86-31.99,10.07-35.12,37.72-97.36,54.11-131.3,17.22-35.66,19.74-40.08,58.61-26.74,9.01,3.09,65.96,30.13,68.76,27.59l2.42-8.95c2.55-2.06,5.17-.5,7.79-.02,19.57,3.61,57.66,19.68,78.21,27.18,34.92,12.73,69.52,27.28,103.85,41.58,6.33.62,34.18-44.02,38.4-52.2-42.4,11.15-80.12-15.16-92.77-55.16-28.56,25.36-65.28,32.66-100.79,16.85-39.39-17.51-48.66-57.43-42.05-97.01-78.74,22.89-93.3-47.37-70.38-107.48-32.18-23.92-106.68,31.57-132.64,18.57-13.41-6.71-1.91-25.68,4.01-33.63,15.19-20.44,96.82-85.18,120.57-99.97,8.1-5.06,11.16-8.97,22.04-8.13,24.83,1.86,49.75,50.58,65.37,67.78,2.59.59,15.65-12.66,25.63-6.92,2.05,1.2,23.15,32.34,28.16,38.21,22.34,26.15,47.6,49.75,67.64,77.9l125.34-17.63c24.63-62.79,62.61-120.05,123.92-151.73l11.36-44.99-23.84-6.88c-56.81,63.4-156.49,45.05-173.88-42.28-1.29-6.42,2.21-14.18-4-18.47-74.05,30.83-145.07-72.53-77.65-125.3,45.7-35.77,114.37-4.53,118.99,52.55l.06-.02ZM752.09,559.85c0,15.03-13.45,17.56-17.98,30.87-6.51,19.18-7.03,43.64-13.86,63.2.97,6.42,23.42,7.2,29.31,8.65-1.56-9.63-13.41-11.71-10.04-23.72.06-2.24,4.64-1.71,6.39-1.48,1.65.24,16.97,17.12,23.9,21.25,70.4,41.89,154.87-30.19,135.1-106.28-17.48,13.88-66.65,17.97-43.61-14.83l26.07-13.94-16.74-16c-5.09-.76-12.71,14.66-19.63,7.24-5.82-8.98,6.44-13.42,6-18.42l-19.75-34.25-32.52,43.84,14.8,12.88c-4.83,18.03-19-1.2-26.1-.74-2.11.15-15.07,9.76-20,11.71-10.32,4.14-21.24,5.7-32.16,7.07-6.56-1.51-10.27-25.28-19.24-31.02l-5.85-.88c-23.31,12.41-24.37,76.4,9.47,69.84,11.68-2.24,11.88-19.19,26.4-15.01,0-5.76-5.23-8.73-.21-16.44,10.88-16.63,57.57-3.91,70.43,8.2,3.7,23.87-21.12,22.48-38.27,20.13-13.01-1.79-21.6-8.89-31.98-11.89l.08.03ZM1031.54,637.52c19.1-2.24,41.86,1.62,61.4,0,5.59-51.14,37.04-89.56,91.97-65.64,5.23,2.27,17.18,11.77,19.57,12,12.35,1.2,29.78-21.59,35.07-21.63,17.27-.12,2.97,33.22,3.76,41.39.48,5.03,10.76,11.92,13.33,21.78,9.91,37.87-18.71,47.52-24.74,77.06-6.03,29.56,1.59,60.66-17.33,85.39-28.87,37.72-86.11,32.55-114.09-3.82-7.03-9.13-20.04-36.78-20.04-47.61v-41.34l-32.59,10.04c-1.47,7.53,5.59,4,10.16,8.57,12.24,12.24-.15,30.68.92,40.28,1.24,11.06,11.24,8.68,2.64,31.25-12.04,31.62-49.7,46.51-81.46,46.34l-2.44,8.79,221.48,77.55,141.91-355.59-249.52-84.47-65.03,152.06-1.21,10.01c2.8.95,5.17-2.36,6.24-2.5l-.02.08ZM924.3,502.97c-9.33-7.73-24.57.76-26.31,10.97-.56,3.24,29.84,47.08,22.04,60.94,4.04.33,5.76.62,8.74-2.51,10.85-11.44,8.32-58.79-4.47-69.4ZM884.93,539.81c-6.24-6.38-33.52,19.12-.3,9.7l.3-9.7ZM784.66,547.34c-7.38.76-16.98-2.91-22.51,3.76l19.98,8.77,2.53-12.53ZM1225.73,953.22c43.19-120.34,88.85-239.82,136.79-358.32l-12.71-25.01-138.67,352.65c-1.38,7.91,8.01,25.25,14.59,30.69v-.02ZM1188.18,584.94c-20.86-8.74-51.72-16.01-65.14,7.44l65.14-7.44ZM1118.01,667.61c11.51,16.42,41.36,10.74,57.63,3.73,34.89-15,56.16-54.9,60.13-91.45-26.53,24.34-59.79,16.57-91.18,20.31-25.4,3.04-46.05,19.88-39.08,47.32l31.34-25.04c19.15,9.32-16.91,25.04-21.34,35.04,32.28-1.03,58.57-16.28,82.59-36.55l7.6,5.26c-22.56,24.07-53.98,41.84-87.67,41.37l-.02.02ZM1108.02,677.6c-1.91,11.71-13.65,5.59-15.24,18.65-6.48,53.61,23.24,125.1,87.85,102.86,49.76-17.13,28.6-78.05,45.43-114.93,9.82-21.5,37.31-42.23,12.26-66.72-15.36,50.05-82.23,95.36-130.3,60.13v.02ZM285.93,640.04c-15.63-7.57-27.71,5.2-39.87,13.98-25.19,18.16-60.19,46.4-82.94,67.41-3.11,2.85-27.4,26.51-25.04,28.83l140.13-99.16,7.73-11.03v-.03ZM814.39,729.91c2.59-9.23-7.23-11.06-12.21-15.94-7.62-7.39-37.36-40.14-43.87-41.34-18.75-3.47-51.61,4.91-50.07-25.07-59.07,35.93-96.77,99.24-112.92,165.49l89.08,44.95-32.12-104.66c-1.86-8.13,8.13-12.04,11.51-3.74l31.93,103.44,108.86-67.78-1.21-7.33-63.5-86.86-2.85-13.42c5.17-.92,6.62.58,10.04,3.73,8.48,7.74,42.54,62.96,46.42,63.93l20.86-15.36.05-.02ZM1042.79,647.56c-84.76,17.56-181.92,43.8-240.46,111.21,1.73,10.62,32.51,4.82,40.58,3.39,36.9-6.41,45.89-25.93,74.65-35.61,16.12-5.42,18.09-.95,31.18-1.2,25.01-.45,40.39-43.51,60.87-47.26,20.77-3.79,15.57,12.71,19.94,14.6,5.77,2.48,14.88,2.06,20.78-.05-7.33-14.53-8.59-28.95-7.54-45.07v-.02ZM1092.94,647.53h-37.58c-5.51,8.04-.55,40.81,8.71,41.8l38.93-14.26-10.03-27.54h-.03ZM163.13,750.26c24.65-4.54,51.34-19.68,76.7-19.75,12.79-.02,22.56,7,34.28,9.41,11.6-13.69,44.23-24.6,54.4-36.02,2.24-2.53,3.3-3.17,2.24-7.01-.68-2.5-28.8-40.39-30.87-42.01-2.32-1.79-4.07-3.17-7.2-2.06l-129.55,97.42v.03ZM987.7,755.27c-5.09-5.06,14.63-25.3,18.09-30.74,6.03-9.57,17.85-26.81,8.23-36.83-18.83,8.82-31.45,38.74-49.58,45.58-11.68,4.39-25.22.5-37.55,2.54-19.97,3.35-87.59,61.63-96.48,79.03-1.03,2.05-.52,5.62-.61,8.09-12.94,3.82-20.22-26.1-28.34-24.77l-74.18,48.95c13.91,37.36,59.2,91.35,101.27,96.09,61.79,6.95,96.86-38.4,124.49-86.03,5.07-8.74,17.86-40.42,23.19-44.45,3.04-2.3,5.15-2.83,8.95-2.35v10.04c31.09-.62,63.16-19.83,70.21-51.35-5.2-5.27-5.09,2.36-7.5,4.92-11.23,11.82-25.09,27.56-42.67,26.34-3.3-12.66,12.76-13.91,22.33-21.5,9.38-7.42,36.61-49.13,21.47-56.14-4.85-2.23-13.88,26.84-17.65,29.89-3.71,3.86-28.12,33.27-31.16,18.92,15.91-19.8,36.15-39.21,37.57-66.35-15.1-1.7-13.74,12.83-20.48,23.33-3.41,5.33-22.87,33.48-29.62,26.74l.03.03ZM343.58,846.76c1.95,6.24,0,35.6,0,45.1,0,1.94,4.92,18.39,6.23,21.33,13.98,31.84,60.88,42.05,91.47,31.22,12.54-4.42,30.57-26.04,38.51-23.5,2.39.77,14.94,28.1,20.41,34.86,27.83,34.25,64.11,31.09,98.82,8.53,9.2-5.97,14.92-13.56,24.15-18.65l73.79,12.63-1.14,7.57-5.09,2.48c-14.66,0-58.07-13.86-68.9-8.8-3.14,1.45-6.42,7.27-10.29,9.77-6.76,4.39-20.54,10.6-24.92,15.18-13.82,14.54-26.46,47.04-41.49,63.73-2.85,3.17-4.97,7.42-9.94,7.86-45.86-17.3-91.29-36.9-137.66-52.79-10.56-3.61-34.1-13.01-43.28-14.53-2.89-.48-5.57-1.32-8.27.64l-44.51,104.72c23.84,50.48,34.62,99.98,89.68,126.01,33.31,15.76,98.27,24.77,121.51-11.44,5.42-8.44,5.2-26.77,15.29-27.57,11.8,2.97,20.56,12.76,31.98,18.12,68.08,31.89,155.84-15.89,149.67-94.51-1.01-12.97-8.13-22.42-6.53-33.92,11.38-3.51,21.45-2.45,33.25-6.86,40.57-15.25,71.5-78.74,60.29-120.13-17.68-9.82-32.69-23.28-49.7-34.24-30.87-19.86-66.11-39.04-98.35-57.02-11.06-6.18-59.34-27.96-64.4-33.4-1.38-1.47-2.74-2.58-2.42-4.85l4.97-18.94-125.17,18.88-102.13-116.34c-6.48-1.65-8.88,5.44-13.42,8.35-15.6,10.04-66.44,38.63-72.67,52.63-16.53,37.08-12.56,95.85,41.31,88.88,5.77-.73,26.07-10.48,29.01-1.03l-.05.03ZM854.86,770.35l-37.6,5.01c5.64,12.38-6.53,15.44,2.56,27.53,3.91,2.73,31.01-27.43,35.04-32.54ZM1202.61,933.82c-43.02-16.97-87.51-30.01-131.01-45.69-25.75-9.29-69.91-32.37-93.92-36.65-19.03-3.38-11.44,20.53-3.26,28.59l235.12,80.64c3.42.79,4.71-.18,3.68-3.67-1.95-6.47-8.47-16.01-10.6-23.22h-.02ZM737.04,888.07l-21.36-32.55-18.74,10.06,28.42,17.92,11.68,4.59v-.02ZM248.34,960.75c-13.35-2.86-16.97,6.47-22.24,16.59-16.42,31.51-48.45,106.44-58.08,139.9-1.56,5.47-3.24,10.57-2.36,16.39,2.41,2.86,14.88-10.56,16.09-12.69,9.97-17.82,18.86-51.61,27.84-72.4,12.68-29.36,26.59-58.22,38.77-87.76l-.02-.03ZM331.06,993.34l-70.17-26.53-55.13,126.72c29.77-23.92,54.1-52.26,95.18-30.07l30.12-70.15v.03Z"/>
  <path class="cls-2" d="M1022.12,951.33c126.64-21.27,147.1,155.79,80.76,236.11-90.79,110-278.88,32.8-234.23-86.32,18.56-49.51,72.65-54.54,102.51-92.95,14.29-18.38,24.78-52.41,50.96-56.81v-.03ZM1039.81,961.45c-43.7,3.11-42.87,35.93-67.11,63.25-26.92,30.3-75.06,37.57-92.21,78.17-22.33,52.81,19.33,104.68,68.26,121.04,94.56,31.65,182.5-53.49,181.98-146.7-.27-50.05-31.6-119.98-90.89-115.75h-.03Z"/>
  <path class="cls-2" d="M967.63,331.83c5.68-3.01,48.01-46.67,47.72-23.8l-37.68,35.04c1.26,5.11,45.89,13.32,54.41,18.3,4.23,2.48,6.7,3.5,5.71,9.27-2.53,3.64-3.95,3.68-8.06,3.33-9.73-.85-51.9-19.1-57.08-14.56,2.48,17.59,16.24,31.93,15.01,50.08-9.65,10.1-22.69-33.66-24.47-36.89-1.58-2.82.2-4.24-5.56-3.21-1.83,8.89-10.7,48.39-18.85,50.1-14.72-5.67.09-28.68,1.26-40.07-5.42,2.8-35.4,39.67-35.15,18.77.11-8.82,32.31-34.52,37.68-43.8-7.47-1.91-48.07,3-50.11-.05-4.48-6.64,9.39-12.5,13.77-12.5h38.84c-1.83-12.1-27.98-33.69-21.33-45.13,1.98-3.53,6.21-1.02,8.09.8,7.62,7.24,12.56,26.13,23.27,31.81v-51.35c0-9,12.53-6.88,12.53-2.51v56.38l-.02-.03Z"/>
  <path class="cls-2" d="M410.56,309.85c41.55-8.62,70.12,26.37,49.39,64.43-23.01,42.25-85.94,20.18-80.7-27.93,1.73-15.88,15.47-33.18,31.31-36.46v-.03Z"/>
  <path class="cls-2" d="M191.34,564.25c-7.68-7.8,5.73-35.18,2.79-46.28-3.32-8.48-39.87-17.22-36.11-34.45,2.01-13.12,39.72-11.74,47.76-20.12,12.54-13,3.73-98.85,47.51-2.42,9.54,6.41,58.54-14.07,60.4,7.56,1,11.82-29.22,27.1-34.86,38.01-3.17,11.69,17.38,35.98,7.32,49.7-17.35,8.35-36.9-16.07-51.42-14.01-8.85,1.27-31.75,33.8-43.36,22.01h-.03ZM248.59,476.97c-1.73-1.24-13.68-32.3-18.21-38.25-2.15-2.83-2.62-5.15-7.1-4.17-.68,9.79-2.76,32.24-10.09,38.77-7.24,6.41-30.15,8.62-40.02,11.35-5.51,6.12,28.48,19.8,30.9,25.63,5.38,12.86-1.14,29.12-3.33,42.01,13.65-4.8,18.66-21.63,33.83-22.69,15.18-1.06,26.8,12.26,41.3,15.18-.98-19.06-18.35-32.77-3.82-50.17,2.74-3.29,29.98-21.81,26.37-24.97l-49.87,7.32h.05Z"/>
  <path class="cls-2" d="M405.36,262.56c17,15.75,23.89,55.23-11.5,30.28-32.89-23.18-14.8-54.67,11.5-30.28Z"/>
  <path class="cls-2" d="M423.8,301.76c-4.27-15.13,28.25-59.11,42.86-41.52,11.04,13.32-28.13,45.07-42.86,41.52Z"/>
  <path class="cls-6" d="M343.58,846.76c-2.94-9.45-23.24.29-29.01,1.03-53.87,6.94-57.84-51.79-41.31-88.88,6.23-14,57.05-42.55,72.67-52.63,4.54-2.92,6.94-10,13.42-8.35l102.13,116.33,125.17-18.88-4.97,18.95c-.32,2.3,1.05,3.38,2.42,4.85,5.06,5.41,53.34,27.22,64.4,33.4,32.24,17.98,67.47,37.16,98.35,57.02,17.01,10.94,32.02,24.42,49.7,34.24,11.21,41.36-19.72,104.86-60.29,120.11-11.8,4.44-21.84,3.36-33.25,6.88-1.61,11.5,5.51,20.95,6.53,33.92,6.17,78.62-81.59,126.4-149.67,94.51-11.42-5.36-20.21-15.16-31.98-18.12-10.09.77-9.86,19.12-15.29,27.56-23.24,36.22-88.2,27.22-121.51,11.45-55.04-26.03-65.84-75.55-89.68-126.01l44.51-104.72c2.7-1.92,5.38-1.12,8.27-.64,9.18,1.51,32.72,10.92,43.28,14.53,46.37,15.88,91.8,35.52,137.66,52.78,5-.44,7.09-4.68,9.94-7.86,15.03-16.69,27.71-49.2,41.49-63.73,4.38-4.59,18.16-10.77,24.92-15.16,3.86-2.51,7.15-8.33,10.29-9.77,10.83-5.04,54.25,8.8,68.9,8.8l5.09-2.48,1.14-7.59-73.79-12.62c-9.23,5.07-14.95,12.66-24.15,18.65-34.74,22.56-71.02,25.71-98.82-8.53-5.48-6.76-18.01-34.1-20.41-34.86-7.94-2.55-25.97,19.06-38.51,23.5-30.59,10.83-77.49.62-91.47-31.22-1.29-2.94-6.23-19.41-6.23-21.33,0-9.5,1.95-38.86,0-45.11l.05-.02Z"/>
  <path class="cls-5" d="M1031.54,637.52c-1.09.11-3.45,3.44-6.26,2.5l1.21-10.03,65.05-152.05,249.52,84.45-141.93,355.6-221.46-77.55,2.44-8.79c31.75.17,69.43-14.71,81.46-46.36,8.59-22.57-1.41-20.21-2.65-31.24-1.08-9.63,11.32-28.07-.91-40.28-4.57-4.57-11.63-1.06-10.16-8.57l32.57-10.04v41.33c0,10.82,13.01,38.49,20.06,47.61,27.98,36.36,85.23,41.55,114.07,3.82,18.95-24.74,11.62-57.34,17.35-85.38,6.04-29.54,34.65-39.21,24.74-77.06-2.58-9.86-12.86-16.77-13.35-21.8-.77-8.18,13.5-41.52-3.74-41.39-5.29.05-22.77,22.83-35.08,21.63-2.39-.23-14.35-9.73-19.56-12-54.93-23.94-86.38,14.48-91.97,65.64-19.54,1.64-42.31-2.23-61.41,0l.03-.06Z"/>
  <path class="cls-5" d="M987.7,755.27c6.73,6.71,26.18-21.44,29.6-26.74,6.74-10.51,5.39-25.04,20.5-23.34-1.42,27.16-21.66,46.54-37.57,66.35,3.03,14.38,27.46-15.06,31.15-18.92,3.8-3.03,12.82-32.12,17.66-29.89,15.15,7-12.12,48.7-21.48,56.14-9.56,7.59-25.63,8.86-22.31,21.5,17.59,1.2,31.45-14.53,42.66-26.34,2.42-2.54,2.29-10.18,7.5-4.92-7.06,31.52-39.14,50.72-70.21,51.37v-10.04c-3.82-.48-5.91.05-8.94,2.33-5.33,4.03-18.15,35.71-23.19,44.45-27.66,47.64-62.7,93-124.51,86.03-42.07-4.74-87.36-58.75-101.27-96.07l74.2-48.95c8.09-1.33,15.41,28.57,28.34,24.75.09-2.45-.44-6.04.59-8.09,8.92-17.42,76.55-75.68,96.5-79.02,12.32-2.05,25.89,1.83,37.54-2.55,18.15-6.86,30.77-36.77,49.6-45.6,9.63,10.04-2.18,27.27-8.23,36.83-3.45,5.45-23.18,25.68-18.1,30.74l-.02-.02Z"/>
  <path class="cls-3" d="M814.39,729.91l-20.86,15.36c-3.88-.97-37.93-56.17-46.42-63.94-3.42-3.12-4.88-4.62-10.04-3.73l2.85,13.44,63.5,86.85,1.21,7.33-108.86,67.78-31.93-103.42c-3.38-8.29-13.36-4.38-11.51,3.74l32.12,104.65-89.08-44.95c16.15-66.23,53.82-129.52,112.92-165.49-1.58,29.98,31.31,21.63,50.07,25.09,6.51,1.2,36.25,33.93,43.87,41.34,5.01,4.85,14.8,6.68,12.21,15.92l-.05.03Z"/>
  <path class="cls-5" d="M752.09,559.85c-14.53-4.18-14.71,12.74-26.39,15.01-33.84,6.56-32.8-57.43-9.48-69.85l5.85.88c8.97,5.76,12.69,29.53,19.24,31.04,10.94-1.36,21.86-2.94,32.16-7.07,4.92-1.98,17.91-11.57,20.01-11.71,7.07-.45,21.24,18.75,26.09.74l-14.8-12.88,32.52-43.84,19.75,34.25c.44,4.98-11.8,9.42-6,18.42,6.89,7.42,14.53-8.01,19.63-7.26l16.74,16.01-26.07,13.92c-23.04,32.81,26.13,28.72,43.61,14.83,19.77,76.08-64.7,148.17-135.1,106.28-6.92-4.11-22.25-21.01-23.9-21.24-1.77-.26-6.33-.79-6.39,1.47-3.36,12.03,8.45,14.09,10.04,23.72-5.89-1.44-28.34-2.2-29.31-8.63,6.83-19.54,7.33-44.01,13.86-63.2,4.53-13.32,17.98-15.86,17.98-30.87,10.36,2.98,18.97,10.09,31.98,11.88,17.15,2.36,41.96,3.77,38.25-20.13-12.85-12.1-59.53-24.83-70.41-8.2-5.04,7.71.18,10.7.2,16.45l-.06-.03ZM847.31,514.77c-7.09-6.61-16.28,9.47-17.36,16.42-3.77,24.04,7.23,30.02,22.37,44.96l-21.39,8.7,1.27,6.41c5.7,3.73,41.58-5.42,42.16-12.56.85-10.53-37.86-16.48-34.51-42.42.62-4.85,10.29-18.88,7.45-21.51ZM716.31,555.54c1.62,1.58,1.06,6.54,3.04,8.18h7.77c6.11-14.71,3.12-37.25-13.53-43.75l-6.57,6.04,7.24,7.86-7.2,16.97c1.24,3.95,7.45,2.85,9.27,4.67l-.03.03ZM842.3,604.97c-18.66,4-26.51,10.01-43.48-2.91-5.65-4.32-7.68-16.09-16.66-5.83,2.68,11.07,15.54,21.84,26.48,23.59,10.95,1.74,37.93,1.56,33.66-14.85Z"/>
  <path class="cls-6" d="M1108.02,677.6c48.07,35.22,114.93-10.06,130.3-60.11,25.07,24.48-2.44,45.19-12.26,66.72-16.86,36.87,4.33,97.8-45.43,114.93-64.61,22.22-94.33-49.25-87.85-102.86,1.59-13.06,13.32-6.95,15.24-18.65v-.03Z"/>
  <path class="cls-1" d="M1042.79,647.56c-1.05,16.12.21,30.52,7.54,45.05-5.91,2.12-15.01,2.53-20.78.05-4.36-1.88.83-18.39-19.94-14.59-20.45,3.74-35.86,46.81-60.87,47.26-13.09.26-15.04-4.23-31.18,1.2-28.74,9.68-37.75,29.19-74.65,35.61-8.07,1.39-38.86,7.2-40.58-3.41,58.54-67.38,155.67-93.63,240.46-111.21v.03Z"/>
  <path class="cls-5" d="M1225.73,953.22c-6.57-5.45-15.97-22.78-14.59-30.69l138.67-352.65,12.71,25.01c-47.95,118.49-93.6,238-136.79,358.3v.03Z"/>
  <path class="cls-4" d="M331.06,993.34l-30.12,70.14c-41.08-22.21-65.41,6.17-95.18,30.07l55.13-126.72,70.17,26.54v-.03Z"/>
  <path class="cls-4" d="M163.13,750.26l129.55-97.44c3.14-1.09,4.85.29,7.2,2.08,2.08,1.59,30.19,39.48,30.87,42.01,1.06,3.83,0,4.45-2.24,7.01-10.15,11.39-42.8,22.31-54.4,36.02-11.76-2.39-21.5-9.44-34.28-9.41-25.36.08-52.05,15.19-76.7,19.75v-.03Z"/>
  <path class="cls-5" d="M1202.61,933.82c2.15,7.21,8.67,16.75,10.59,23.22,1.06,3.48-.24,4.45-3.68,3.67l-235.12-80.64c-8.15-8.06-15.77-31.96,3.27-28.59,24,4.27,68.14,27.34,93.92,36.65,43.49,15.71,87.98,28.72,130.99,45.69h.03Z"/>
  <path class="cls-1" d="M1118.01,667.61c33.71.48,65.12-17.32,87.65-41.36l-7.6-5.27c-24.03,20.28-50.29,35.52-82.58,36.57,4.45-10.01,40.48-25.74,21.33-35.04l-31.33,25.03c-6.97-27.46,13.69-44.3,39.08-47.31,31.36-3.74,64.64,4.03,91.18-20.33-3.98,36.57-25.25,76.47-60.13,91.47-16.3,6.98-46.11,12.68-57.64-3.73l.03-.03Z"/>
  <path class="cls-5" d="M248.34,960.77c-12.19,29.54-26.07,58.41-38.77,87.74-8.97,20.78-17.89,54.58-27.84,72.4-1.2,2.17-13.68,15.59-16.09,12.69-.88-5.82.8-10.92,2.36-16.39,9.63-33.45,41.66-108.36,58.07-139.9,5.27-10.12,8.91-19.45,22.24-16.57l.03.03Z"/>
  <path class="cls-5" d="M285.93,640.05l-7.73,11.03-140.13,99.16c-2.36-2.33,21.94-25.97,25.04-28.84,22.75-21.01,57.75-49.23,82.94-67.4,12.19-8.79,24.24-21.57,39.87-13.98v.03Z"/>
  <path class="cls-5" d="M924.3,502.97c12.79,10.6,15.32,57.96,4.47,69.4-2.98,3.15-4.7,2.85-8.74,2.53,7.8-13.88-22.6-57.72-22.04-60.96,1.77-10.21,17.01-18.69,26.31-10.97Z"/>
  <path class="cls-4" d="M1092.94,647.53l10.03,27.54-38.92,14.26c-9.27-.98-14.24-33.75-8.71-41.8h37.6Z"/>
  <path class="cls-3" d="M854.86,770.36c-4.03,5.09-31.13,35.27-35.04,32.52-9.09-12.09,3.08-15.15-2.56-27.53l37.6-5Z"/>
  <path class="cls-6" d="M1188.18,584.94l-65.14,7.45c13.42-23.48,44.28-16.21,65.14-7.45Z"/>
  <path class="cls-3" d="M737.04,888.07l-11.65-4.61-28.42-17.91,18.74-10.07,21.33,32.59Z"/>
  <path class="cls-5" d="M884.93,539.81l-.3,9.7c-33.19,9.42-5.94-16.07.3-9.7Z"/>
  <path class="cls-3" d="M1039.81,961.45c59.29-4.23,90.65,65.72,90.91,115.75.5,93.23-87.44,178.36-182,146.72-48.92-16.38-90.57-68.25-68.26-121.05,17.15-40.63,65.32-47.89,92.23-78.17,24.25-27.28,23.41-60.11,67.11-63.25h.02ZM1059.76,996.37c-41.42,5.98-39.77,72.11,9.1,66.96,46.36-4.88,35.39-73.37-9.1-66.96ZM1054.78,1081.5c-43.92,6-39.22,73.18,6.6,71.94,55.2-1.5,36.21-77.77-6.6-71.94ZM921.83,1109.16c-32.55,6.65-27.75,56.6,9.44,56.58,45.04,0,33.83-65.41-9.44-56.58ZM999.62,1151.7c-34.74,4.94-37.63,53.22.47,60.99,48.61,9.94,51.17-68.35-.47-60.99Z"/>
  <path class="cls-3" d="M248.59,476.97l49.87-7.32c3.59,3.15-23.63,21.69-26.37,24.98-14.53,17.42,2.83,31.12,3.82,50.16-14.5-2.92-25.9-16.25-41.28-15.18-15.39,1.09-20.19,17.89-33.84,22.69,2.18-12.89,8.68-29.13,3.33-41.99-2.44-5.82-36.42-19.53-30.9-25.65,9.88-2.73,32.78-4.94,40.02-11.35,7.36-6.53,9.42-28.96,10.09-38.77,4.48-.98,4.95,1.33,7.1,4.17,4.53,5.95,16.48,36.99,18.21,38.25h-.05Z"/>
  <path class="cls-2" d="M847.31,514.77c2.83,2.65-6.83,16.66-7.45,21.51-3.35,25.93,35.36,31.89,34.51,42.43-.58,7.12-36.46,16.27-42.16,12.54l-1.27-6.41,21.39-8.7c-15.15-14.94-26.15-20.92-22.37-44.96,1.08-6.97,10.27-23.04,17.36-16.42Z"/>
  <path class="cls-2" d="M842.3,604.97c4.27,16.41-22.57,16.62-33.66,14.85-11.07-1.77-23.77-12.51-26.48-23.59,8.98-10.26,11.01,1.51,16.66,5.83,16.97,12.92,24.81,6.88,43.48,2.91Z"/>
  <path class="cls-2" d="M716.31,555.54c-1.82-1.82-8.01-.71-9.26-4.67l7.2-16.97-7.24-7.86,6.57-6.06c16.63,6.51,19.63,29.04,13.51,43.73h-7.77c-1.97-1.61-1.44-6.57-3.03-8.18h.02Z"/>
  <path class="cls-2" d="M1054.78,1081.5c42.81-5.83,61.81,70.47,6.6,71.94-45.83,1.24-50.54-65.94-6.6-71.94ZM1052.11,1094.08c-32.12,7.36-15.06,61.91,21.45,43.99,25.1-12.33,3.01-49.6-21.45-43.99Z"/>
  <path class="cls-2" d="M1059.76,996.37c44.49-6.44,55.46,62.08,9.1,66.96-48.87,5.15-50.51-60.97-9.1-66.96ZM1064.55,1006.49c-25.31.76-34.15,39.71-5.29,44.31,40.86,6.53,31.22-45.1,5.29-44.31Z"/>
  <path class="cls-2" d="M999.62,1151.7c51.64-7.36,49.1,70.93.47,60.99-38.1-7.77-35.21-56.05-.47-60.99ZM1004.36,1161.93c-11.65.62-21.24,10.76-21.28,22.51,8.09,23.77,47.9,23.72,42.2-6.86-1.45-7.71-13.22-16.04-20.91-15.63l-.02-.02Z"/>
  <path class="cls-2" d="M921.83,1109.16c43.26-8.83,54.51,56.55,9.44,56.58-37.19,0-42.02-49.95-9.44-56.58ZM915.71,1147.98c14.69,14.72,45.84-1.33,27.9-21.66-17.92-20.33-42.87,6.65-27.9,21.66Z"/>
  <path class="cls-5" d="M784.66,547.34l-2.53,12.53-19.97-8.77c5.51-6.67,15.12-3,22.5-3.76Z"/>
  <path class="cls-6" d="M1052.11,1094.08c24.48-5.6,46.55,31.66,21.45,43.98-36.51,17.94-53.57-36.61-21.45-43.98Z"/>
  <path class="cls-6" d="M1064.55,1006.49c25.93-.77,35.54,50.85-5.29,44.31-28.83-4.62-20.03-43.57,5.29-44.31Z"/>
  <path class="cls-6" d="M1004.36,1161.93c7.68-.39,19.47,7.91,20.89,15.63,5.71,30.6-34.12,30.65-42.2,6.85.08-11.76,9.65-21.89,21.28-22.51l.03.03Z"/>
  <path class="cls-6" d="M915.71,1147.98c-14.97-15.04,10.44-41.46,27.9-21.66,17.48,19.8-13.21,36.42-27.9,21.66Z"/>
</svg>