<?xml version="1.0" encoding="UTF-8"?>
<svg id="Layer_1" data-name="Layer 1" xmlns="http://www.w3.org/2000/svg" viewBox="0 0 1500 1500">
  <defs>
    <style>
      .cls-1 {
        fill: #263c34;
      }

      .cls-2 {
        fill: #a59ed3;
      }

      .cls-3 {
        fill: #fdf9f3;
      }

      .cls-4 {
        fill: #bfde63;
      }
    </style>
  </defs>
  <path class="cls-1" d="M510.47,387.22c2.71,1.68,8.26.98,12.81,3.46,11.32,6.16,28.86,31.34,31.05,44.16,6.14,36.06-19.3,48.73,2.69,90.06,18.17,34.16,33.49,44.44,27.35,89.17-2.64,19.24-21.39,39.22-5.43,56.74,9.18-1.84,15-6.28,24.24-1.66,7.38,3.69,8.03,10.44,12.07,13.09,3.33,2.16,7.93,1.33,12.6,4.94,22.86,17.79-20.42,52.46-30.29,67.89,36.29,7.34,52.51,70.06,19.94,90.13-2.78,1.72-26.06,14.15-27.9,14.72-24.36,7.64-38.25-4.02-55.66-18.22-6.56,6.36-39.4,36.44-38.8,43.2,4.23,16.88,27.76,52.69,27.32,68.24-.64,23.29-43.75,25.39-61.48,26.33-144.02,7.66-318.93-69.13-344.21-225.07-14.31-88.23,17.2-221.74,122.22-233.77l-79.14-69.98c-14.58-17.32,25.94-13.14,37.54-15.45,34.73-6.95,33.92-28.81,56.6-46.2,34.36-26.33,57.34,2.08,85.49-4.78,13.46-3.27,28.75-23.13,41.63-31.07,41.77-25.73,79.76-11.39,114.81,17.18,4.67,3.81,13.29,16.04,14.54,16.79v.08ZM378.64,421.25c-26.08-23.11-65.59,34.66-51.31,65.06,6.69,14.22,16.77,13.16,28.13,17,22.77,7.66-9.87,9.32-10.9,10.17-.71.6-3.11,11.97-6.72,17.1-6.95,9.89-33.16,27-33.42,41.46-.34,18.45,35.47,58.67,49.86,70.28,12.86,10.36,23.6,18.66,27.19-4.44-6.95-19.62-23.18-42.4-29.16-61.45-2.83-9.03-1.47-19.01,8.23-10.52,10.26,8.96,17.89,31.05,33.88,43.84,25.18,20.17,30.96,6.6,47.31-15.5-12.83-17.06-30.68-42-18.38-63.45,10.97-3.25,24.63,35.62,43.01,37.28,7.84-1.32,6.33-12.31,10.76-18.56,9.36-13.14,26.54-.54,40.16-3.72l-21.51-32.42c3.84-24.56,14.95-45.35,3.93-70.33l-22.52,10.05c-3.86,4.21,12.95,10.17,14.65,16.67,5.91,22.56-36.36-8.13-39.08-8.69-5.54-1.16-29.33,2.85-39.63,2.11-7.96-.57-15.94-2.78-23.87-3.71-5.06-3.4,1.82-27.16-10.65-38.22h.02ZM301.68,550.84c-24.15,4.85-34.29-8.65-51.33-21.75-19.23,4.91-31.58,4.59-49.68,14.7-96.71,54.05-91.31,232.29-26.77,311.51,75.28,92.39,225,128.42,338.41,104.04l-75.25-182.96-52.49,28.97c-7.64,1.97-14.97.54-22.84,2.23-34.09,7.24-60.44,61.26-79,63.97-18.56,2.72-16.95-4.8-25.07-14.75-6.16-7.58-13.96-15.27-20.01-22.54-15.66-18.87-25.23-20.23-17.34-47.76,5.27-18.4,19.55-34.4,31.05-49.3-13.94-16.71-25.94-32.6-18.72-56.17,11.09-36.18,42.76,20.17,54.23,26.27,10.81,5.73,34.75,4.99,48.55,9.11,30.24,8.96,56.99,37.67,59.09,70.06,21.27-5.5,47.03-40.88,56.37-5.03l53.29-71.7c-3.91-42.6-22.31-77.49-55.77-103.68-1.82,0-18.33,20.53-24.45,23.13-7.59,3.2-17.8.33-21.44,2.41-3.91,2.24-17.41,33.13-29.76,34.08-30.7-7.71-84.36-70.15-78.5-100.93,1.27-6.6,7.91-7.35,7.48-13.84l-.05-.07ZM489.75,631.03l26.31,65.11,31.3-31.28-57.61-33.83ZM602.56,795.2c2.37,11.16-1.73,29.26,0,41.35,33.16-2.07,21.55-65.01-4.37-69.8-5.59-1.04-11.91,3.22-18.03-.57-8.07-11.65,45.52-51.6,42.27-68.45-5.38-17.26-38,24.28-42.39,29.82-6.42,8.1-9.68,18.19-17.57,25.08-2.3,3.11-7.11-.75-7.57-2.6-1.29-5.12,20.45-34.17,25.16-39.98,4.37-5.37,32.59-26.85,18.38-31.18-19.46-5.89-53.7,57.52-62.28,57.52l-6.23-3.84c1.82-13.13,37.95-44.18,39.7-50.57,2.41-8.88-6.92-9.21-12.88-7.89-9.77,2.16-36.66,34.13-44.37,43.46-20.1,24.43-36.91,51.81-55.18,77.56l31.32,74.04c9.8-.18,33.97-49.87,54.88-37.33,4.74,2.85,5.84,8,9.27,10.77,11.41,9.14,23.92,12.07,37.44,5.19l-.07-18.77c-27.16,10.02-51.27-19.19-27.69-41.48,12.88-12.17,36.73-8.88,40.23,7.63l-.02.05ZM306.69,791.45c4.26,4.1-20.33,27.65-23.64,32.74-5.17,7.92-14.05,24.01-11.09,33.28,1.63,3.97,3.84,4.94,7.98,3.81,5.73-1.56,37.58-41.05,48.48-49.35,17.71-13.48,32.98-17.49,54.92-20.33,2.69-24.35-19.46-50.18-40.64-60-21.02-9.76-47.47-5.38-64.45-15.78-12.72-7.79-20.19-24.2-30.5-34.61-16.35,15.96,4.9,52.46,26.31,42.57,2.64,11.92-7.52,12.61-13.85,19.99-15.11,17.66-32.18,41.06-31.26,65.23,7.24,1.4,4-2.1,5.66-5.5,4.83-10.04,9.54-20.17,15.87-29.34,3.45-4.99,25.48-33.54,31.1-27.78.62,12.85-13.5,21.75-21.07,32.79-8.53,12.44-21.97,32.6-16.49,47.4,8.53-8.21,11.91-19.94,19-29.85,3.77-5.27,28.11-35.95,33.6-30.29.07,2.73.41,5.58-.48,8.25-1.68,4.93-24.24,27.49-29.99,37.7-4.55,8.07-15.48,26.58-4.62,31.73,4.28-13.94,12.58-28.29,22.54-38.91,6.21-6.64,12.58-15.6,22.61-13.71v-.03ZM592.16,816.15c4.67-28.68-23.16-34.08-27.37-6,1.63,10.7,19.57,10.46,27.37,6Z"/>
  <path class="cls-1" d="M823.61,720.85c2.28,1.42,8.1-.44,13.55,2.73,23.09,13.44-5.96,57.82-3.93,60.35,13.45-8.96,31.88-7.89,32.73,11.32.39,8.64-19.25,77.08-23.94,86.47-3.91,7.78-11.41,13.99-16.31,21.31l18.93,6.12c3.82,14.12-1.13,30.19-7.57,42.84-4.26,8.34-22.7,27-21.14,33.21l6.03,6.75,12.95-12.07c5.24-6.49,22.24-9.27,26.08-14.02,3.57-4.44,5.08-19.19,10.23-27.38,12.38-19.6,36.94-29.93,59.78-29.23l.21-19.83,14.81-.26c-5.82-8.8-16.65-13-12.14-25.9,1.66-4.72,10.76-5.07,9.59-10.33-16.79-14.92-25.8-35.3,4.53-38.39,12.49-1.25,27.21,6.99,36.75-3.2,17.37-18.53-6.69-23.28-11.75-35.61-10.1-24.59,15.25-35.12,35.72-34.48-13.57-66.58,80.15-41.19,95.59-.33,4.14,2.39,9.31-3.77,13.59-4.57,33.99-6.49,50.51,47.32,49.15,73.46,32.29,18.22,47.78,56.82,33.44,91.87-4.97,12.17-14.42,19.62-18.79,30.06,35,11.68,49.15,42.97,52.99,77.39,73.34,1.63,126.32,82.89,94.94,150.69,119,37.4,30.84,247.62-78.55,190.08-10.72-5.63-21.78-16.14-30.51-24.58-55.29,62.44-140.25,19.05-183.54-34.61l-176.34-16.72c-6.76-4.49-5.47-46.26-7.45-56.49-42.25,32.04-122.15,17.34-145.38-31.51-19.8,4.21-32.22,6.49-50.53-4.46-31.3-18.71-37.72-57.32-14.72-85.61-53.54-34.24-27.05-90.37,9.68-125.69-18.03-31.95-12.44-66.1,14.14-91.17,3.43-3.25,9.52-3.53,11.34-6.83,11.22-20.61,16.58-74.66,23.78-100.95,3.45-12.59,11.06-44.34,21.48-51.2,10.42-6.85,16.19,0,23.11-1.74,6.92-1.76,10.79-15.68,25.94-17.1,10.42-.96,13.55,4.44,19.85,4.83,5.38.34,8.56-3.29,16.19-1.38,13.29,3.33,13.55,14.87,15.46,16.05l.02.08ZM735.47,791.45c3.77-2.51,11.38-1.79,13.82-4.94,2.87-3.72,11.94-40.37,16.97-50.7,3.31-6.78,9.87-12.26,12.28-17.86,4.72-10.87-10.28-4.7-15.64-.55-16.72,12.98-26.7,53.3-27.41,74.09l-.02-.03ZM782.99,791.38c2.67-11.66,7.13-25.99,12.17-36.73,5.04-10.74,26.61-33.34,11.18-37.96-19.09-5.73-34.43,33.57-38.98,47.79-2.6,8.1-3.43,16.66-6.88,24.45l22.49,2.46h.02ZM737.94,728.81c-3.38-.05-6.92-.65-10.05,1.19-12.49,7.37-28.43,127.26-40.09,146.65l125.48,23.75c6.81-8.36,16.05-17.08,20.45-27,4.21-9.47,18.35-60.9,19.41-70.95.62-5.9.8-15.79-7.43-12.33-14.07,7.21-18.35,45.93-26.33,56.39-3.52,4.64-8.53,1.32-9.87-2.31-2-5.5,6.97-44.76,9.39-53.29,2.57-9.14,25.53-57.78,8.1-59.11-11.68-.91-29.58,50.62-33.63,60.98,5.22,5.5,14.51,3.09,12.24,13.71-17.57.31-33.67-8.17-51.4-7.68-10.3.28-35.63,10.57-37.54,10.21-12.9-2.54,5.27-15.48,5.75-16.77,1.29-3.43.41-9.06,1.59-13.45,4.46-16.75,9.45-33.28,13.89-50h.05ZM982.4,826.53h-41.38c-1.77,12.92,25.21,24.58,15.29,36.61-3.27,3.94-12.33,1.84-10.26,7.22,2.32,7.95,41.24,22.66,28.61,31.62-11.36,5.45-21.87-1.51-33.65-.28-2.58,25.05,2.53,39.17,29.12,42.34,34.48,4.12,69.87-8.46,103.77-12.23l-1.63,10.23-61.04,32.4c-1.08,6.42.64,3.87,3.5,5.2,17.75,8.21,34.11,4.88,51.61-1.51,6.46-2.37,44.18-22.58,46.39-26.3,2.39-4.07,1.33-10.3,1.15-14.92-19.78.72-30.24-13.81-27.44-32.71l9.87.16c3.7,41.1,41.35,9.91,48.35-13.37,6.03-20.02.05-46.8-24.89-32.37-11.73,6.78-8.46,12.57-26.84,10.3-24.96-3.11-37.42-26.71-29.07-49.89h-15.04c-1.06.81,14.26,17.39,5.17,23.99-9.84,7.12-51.38-25.05-47.79-39.04-10.6,1.42-12.56,20.15-23.8,22.58v-.05ZM835.64,916.87c-53.84-10.98-108.26-25.11-162.86-29.05-13.27,16.46-23.87,34.11-18.35,56.05,1.89,7.51,14.14,24.68,13.11,28.81-24.2,21.1-47.72,48.05-42.23,83.04,3.2,20.33,30.45,30.86,31.46,36.39-1.84,9.79-11.06,17.58-14.21,28.81-5.84,20.77,2.55,38.58,20.31,50.15,17.99,11.74,32.8,5.07,50.97-1.01,7.73,10.72,6.03,18.9,16.56,28.73,28.34,26.45,99.31,36.86,122.84-.11,1.24-33.83-6.32-71.78-2.55-105.34.48-4.36.57-8.64,6.35-8.65,4.51,3.63,5.7,8.23,6.35,13.73,5.01,43.27-1.27,97.43,2.48,142.9.57,7.06,2.9,14.35,3.59,21.49l159.36,14.85c-8.92-10.88-11.66-21.73-.28-31.73l-.85-5.9c-32.2-27-93.79-21.65-115.83-59.74-16.37-28.3,6.21-34.08,6.23-39.18,0-1.22-7.93-8.1-7.24-19.99,2.05-34.74,45.26-57.37,75.3-41.45,6.12-12.39-2.55-58,7.52-63.92,9.98-5.89,18.47,2.8,24.29,3.3,3.89.34,7.93-6.72,19.09-4.07,10.72,2.52,8.86,3.45,22.52,5.07,24.52,2.91,35.37,39.61,34.45,60.77-.69,15.92-9.45,28.76-12.24,43.61l20.75,10.57c6.6-7.63,15.98-30.92,25.39-32.78,23.09-4.51,44.94,26.89,46.32,47.64,15.98-6.07,29.09-6.86,45.65-1.82,7.95,2.42,54.83,26.17,44.57,36.89-12.48-.21-19.8-11.84-30.9-17.94-13.13-7.19-27.72-11.79-42.92-9.45-6.69,1.04-11.77,7.17-19.76,4.55-6-1.98-18.4-56-41.84-48.72l-94.85,143.61c-3.13,11.39,26.75,42.76,35.9,50.88,32.61,28.89,78.89,48.73,120.86,27.96,12.4-6.13,21.7-24.43,25.09-25.28,7.11-1.77,30.55,23.28,40.84,28.64,97.38,50.54,173.78-145.16,63.29-168.4l-3.92-3.99c6.91-26.9,14.9-44.18,8.08-73.02-6.9-29.21-41.28-66.61-71.78-71.1-8.91-1.32-23.05,3.07-27.16-.34-5.97-4.98-2.57-14.4-3.85-21.31-4.2-22.35-9.39-37.69-28.54-51.68-24.56-17.91-35.77-4.07-62.4-5.17-11.71,25.88-70.77,54.39-97.98,52.93-20.22-1.09-49.49-15.5-41.45-40.26-28.08.23-56.44-5.22-62.58-36.57-23.07.55-43.68,11.13-52.23,33.34-2.46,6.36-2.99,19.71-6.74,23.34-3.08,2.99-19,6.1-26.2,11.42-21.11,15.55-11.45,20.45-10.12,39.84,1.33,19.39-5.38,55.5-30.15,56.48.76-10.85,10.51-16.62,14.51-26.81,5.66-14.4,5.18-30.06.64-44.73-3.96-12.82-14.24-20.28-17.39-31.88,14.33-20.61,34.52-36.89,34.71-64.4ZM1023.73,1112.27c-17.32,1.68-5.7-18.33-5.01-28.87,1.17-18.3,4.19-52.16-17.48-58.85-3.93,11.99.67,23-.07,36.32-.37,6.31-4.07,28.35-7.36,32.69-6.49,8.54-9.54-1.61-15.85-4.39-28.54-12.56-59.57,12.51-54.44,43.15,14.86-1.01,20.01-19.89,35.01-23.88,44.41-11.78,78.68,44.68,36.96,69.54-16.26,9.68-29.76,9.58-45.24-.94-7.5-5.09-35.05-45.17-31.76-11.09,3.59,37.05,96.04,39.95,116.7,66.58l3.61.08,54.88-86.14-27.07-23.24c13.32-16.61,17.27-36.22,14.88-57.32-1.31-11.42-9.5-30.27-21.37-33.78-7.98-2.36.62,17.6,1.03,21.54,2.19,20.85-4.92,43.28-10.1,63.31l-9.66.34c4.05-30.35,20.52-70.17-8.79-92.68-11.25,8.95-.9,26.94-1.08,41.35-.07,5.69-5.68,44.93-7.73,46.36l-.07-.05ZM960.46,1120.44c-9.73,2.5-16.22,17.24-24.33,23.18,13.57,15.6,24.86,36.96,49.43,26.94,31.92-13.06,13.02-59.96-25.07-50.11h-.02Z"/>
  <path class="cls-1" d="M948.56,402.91c78.82,14.88,139.13,109.57,94.83,183.8-18.72,31.39-49.29,41.88-84.52,37.09l-2.97,14.56-104.03-12.17c-3.18-7.99.81-18.28-1.56-26.03-1.63-5.3-8.76-6.59-12.05-10.51-28.54-33.95-23.32-87.23-10.05-126.56-64.21.78-130.29-29.6-169.69-80.39-15,1.37-99.29,26.72-106.24,21.67-3.96-2.86-3.22-11.78,0-15.39l76.54-73.85c-2.16-83.17,69.97-157.08,148.72-172.17,138.66-26.56,280.71,142.65,171,259.91l.02.03ZM569.97,390.36l91.19-22.19c32.29,42.96,94.11,80.58,148.28,84.84,35.07,2.77,27.35-8.73,48.83-26.32,12.01-9.79,30.06-18.58,45.08-22.61,24.66-6.59,27.53,1.64,46.25-21.42,75.53-93.04-23.51-219.78-125.46-230.1-80.52-8.13-166.1,54.88-180.78,134.49-2.07,11.24.16,24.19-4.58,35.52l-68.81,67.78ZM926.07,623.36l18.4,2.36c5.96-2.13,1.54-11.74,9.73-15.47,4.69-2.15,21.32,3.72,30.36,3.01,53.82-4.28,71.05-73.41,55.45-117.55-45.01-127.31-226.59-99.51-211.55,41.04,2.74,25.46,14.28,45.63,36.92,57.89-6.09,5.86-4.9,13.42-4.53,21.29,27.58,9.52,31.1-21.55,29.92-42.45-35.53,4.85-43.88-60.23-7.98-43.38,13.96,6.56,10.9,34.4,28.15,30.71-9.15-22.2-9.48-81.77,26.24-75.16,19.55,3.61,20.29,43.38,9.38,56.9-.69,4.96-16.44,16.66-15.52,19.5,1.89,5.99,4.83,2.11,7.5.05,10.72-8.39,26.11-24.43,40.23-10.12,18.91,19.16-23.64,38.89-40.07,28.97l-12.6,42.44-.02-.02ZM920.99,550.81c19.76-2.02,28.54-51.94,10.9-54.95-13.5-2.29-19.94,45.5-10.9,54.95ZM888.37,560.85l-13.78-22.5c-11.62,6.41,8.56,27.44,13.78,22.5ZM948.54,570.85c5.22,2.36,22.31-3.99,22.52-8.75.39-9.24-22.36,1.76-22.52,8.75ZM893.39,620.98l21.37-2.44,12.86-41.46-6.76-7.61-17.16,4.18-10.33,47.32.02.02Z"/>
  <path class="cls-1" d="M202.67,267.57l-3.75-6.23c2.16-10.49,44.55-4.68,55.13-8.83l-26.47-12.35c-5.86-24.11,39.86,6.88,41.49,4.85.67-6.28-24.75-46.52-11.27-47.56,8.58-.65,16.86,33.46,22.56,40.01,8.86-12.9,6.58-32.17,11.22-46.39,1.1-3.35-1.98-3.84,3.84-3.79,4.81.05,8.53.65,8.62,6.07.21,15.08-9.87,37.88-9.87,54.15,1.93,2.13,35.63-26.37,40.89-28.2,3.01-1.06,7.82-1.02,9.36,2.21,2.42,12.85-29.76,28.5-38.55,36.48-2.44,2.23-5.36,2.28-4.21,7.06,11.11,3.5,37.24,9.11,45.93,14.85,2.07,1.38,4.14,5.48,3.08,7.76-5.13,10.98-39.9-4.88-48.97-7.58l9.98,60.15c-3.38.07-6.92.65-10.05-1.2-4.07-2.39-15.41-45.64-17.52-53.91-4.21-.94-5.06,1.38-7.45,3.82-8.74,8.9-21.99,36.66-28.73,41.46-3.75,2.7-7.06,2.73-11.43,2.33-6.49-6.51,41.08-61.84,35.07-67.63-4.74-2.26-11.5,2.47-13.78,2.47h-55.15Z"/>
  <path class="cls-1" d="M1125.32,631.03c-3.84.07-13.16,7.35-15.09-5.01,3.91-8.98,44.04-7.45,53.93-7.55-3.18-7.11-30.48-39.66-25.07-45.07,18.28-2.44,19.34,24.09,32.54,32.56l2.92-53.5c1.42-4,4.44-4.98,8.35-4.18,6.44,1.28,4.05,51.86,1.31,60.15,4.33,1.14,5.01-1.76,7.52-3.72,5.68-4.39,38.59-39.56,40.27-20.02.99,11.56-30.61,25.73-37.74,35.05,0,5.12,50.69,14.69,58.38,19.28,9.35,5.58,3.79,12.85-6.75,11.96-10.1-.85-50.11-19.78-56.69-14.93,1.24,7.84,21.39,46.26,17.52,50.1-1.38,1.38-8.62-.15-11.29-2.46-3.73-3.27-14.81-40.7-18.74-37.61-5.2,9.17-10.17,54.12-23.78,50.11-9.57-2.83,3.82-33.34,6.19-40.06-6.62-6.36-30.13,41.87-37.37,19.06l39.88-44.16c-12.07.16-24.24-.23-36.36,0h.07Z"/>
  <path class="cls-1" d="M456.54,1080.34c87.05-12.78,125.3,93.22,49.08,141.82-91.68,58.48-183.83-69.16-79.33-129.44,8.92-5.16,19.96-10.85,30.24-12.38ZM461.62,1090.23c-11.73.93-32.77,13.16-42.14,20.77-75.09,61.13,18.54,156.35,88.96,93.95,52.99-46.96,19.09-119.9-46.83-114.72Z"/>
  <path class="cls-1" d="M922.23,643.57c8.51.8,31.95,3.29,28.82,15.01-26.82-2.02-51.75-5.6-78.93-4.99-8.83.21-16.68,7.32-23.8-3.77,1.59-1.17,5.45-6.25,6.21-6.25,21.3,0,47.1-1.94,67.69,0h.02Z"/>
  <path class="cls-1" d="M602.26,1081.94c-1.2,2.11-39.26,24.28-41.61,24.89-7.89,2-11.87-5.97-4.16-11.78,3.15-2.39,36.11-21.21,38.46-21.81,6.85-1.69,9.84,4.28,7.34,8.67l-.02.03Z"/>
  <path class="cls-1" d="M677.77,603.46c3.4,3.51-15.98,42.65-19.83,45.97-2.53,2.18-9.34,2.49-10.23,1.63-2.85-2.75,17.64-41.58,21.34-45.04,3.15-2.94,4.42-3.09,8.72-2.55Z"/>
  <path class="cls-1" d="M429.6,1064.66l-7.54-47.61c5.8-.85,8.28.46,10.63,5.66,2.53,5.66,8.83,37.75,4.51,40.81l-7.59,1.14Z"/>
  <path class="cls-1" d="M707.85,643.57c6.74,6.51-25.39,24.24-30.08,26.33-6.97,3.11-10.58-4.03-3.43-11,3.68-3.59,29.83-18.9,33.51-15.34Z"/>
  <path class="cls-1" d="M359.36,1267.68c-.69-4.65.05-7.4,2.37-11.39,2.12-3.63,27.92-26.45,30.2-14.88-2.46,6.59-26.47,32.37-32.57,26.27Z"/>
  <path class="cls-1" d="M626.41,603.46c8.26-1.77,14.93,38.5,7.45,40.08-10.4,2.18-13.8-38.71-7.45-40.08Z"/>
  <path class="cls-1" d="M534.87,1084.69c-4.44-4.46,15.5-36.29,21.25-35.07,12.3,2.65-14.81,41.56-21.25,35.07Z"/>
  <path class="cls-1" d="M467.16,1265.19l7.66,1.11c3.86,2.81,6.56,50.88-7.66,35.23v-36.34Z"/>
  <path class="cls-1" d="M356.83,1187.46c-47.17,12.33-44.04-16.93-1.1-7.61l1.1,7.61Z"/>
  <path class="cls-1" d="M574.41,1233.13c11.89,21.6-29.97-.24-27-11.78,2.42-9.35,26.22,10.38,27,11.78Z"/>
  <path class="cls-1" d="M399.45,1079.68c-5.57,5.77-26.22-21.47-22.54-25.05,10.6-5.51,27.09,20.33,22.54,25.05Z"/>
  <path class="cls-1" d="M665.26,691.15l4.07-9.79c25.78,2.72,19.11,21.58-4.07,9.79Z"/>
  <path class="cls-1" d="M567.51,1195.07l14.95,6.21-10.03,5.29-6.42-4,1.49-7.5Z"/>
  <path class="cls-2" d="M301.68,550.83c.44,6.49-6.21,7.25-7.48,13.86-5.86,30.78,47.79,93.2,78.5,100.91,12.37-.91,25.88-31.83,29.76-34.06,3.63-2.07,13.85.81,21.44-2.41,6.14-2.6,22.63-23.15,24.45-23.15,33.49,26.22,51.86,61.09,55.77,103.68l-53.29,71.72c-9.34-35.83-35.1-.49-56.37,5.01-2.09-32.39-28.82-61.06-59.08-70.06-13.8-4.08-37.77-3.37-48.55-9.11-11.48-6.08-43.15-62.43-54.23-26.25-7.22,23.57,4.78,39.46,18.72,56.17-11.5,14.87-25.78,30.91-31.05,49.3-7.87,27.51,1.68,28.89,17.34,47.76,6.05,7.25,13.82,14.96,20.01,22.53,8.1,9.95,6.14,17.53,25.07,14.77,18.93-2.77,44.92-56.74,79-63.99,7.87-1.68,15.23-.24,22.84-2.23l52.48-28.95,75.25,182.96c-113.41,24.38-263.16-11.66-338.41-104.05-64.54-79.2-69.94-257.47,26.77-311.49,18.1-10.13,30.45-9.81,49.68-14.7,17.07,13.09,27.19,26.56,51.34,21.73l.05.06Z"/>
  <path class="cls-3" d="M378.64,421.25c12.49,11.06,5.59,34.83,10.65,38.22,7.93.93,15.91,3.16,23.87,3.71,10.3.73,34.09-3.27,39.63-2.11,2.71.57,44.99,31.25,39.08,8.69-1.7-6.51-18.51-12.46-14.65-16.67l22.52-10.05c11.04,24.98-.07,45.77-3.93,70.33l21.51,32.4c-13.64,3.22-30.82-9.39-40.16,3.72-4.46,6.26-2.92,17.26-10.76,18.56-18.38-1.64-32.04-40.52-43.01-37.28-12.31,21.49,5.54,46.42,18.38,63.47-16.35,22.09-22.13,35.69-47.31,15.5-15.98-12.82-23.6-34.87-33.88-43.84-9.71-8.49-11.06,1.48-8.23,10.52,5.98,19.05,22.24,41.84,29.16,61.45-3.59,23.1-14.33,14.82-27.19,4.44-14.4-11.61-50.21-51.84-49.86-70.28.28-14.46,26.47-31.56,33.42-41.46,3.61-5.14,6-16.51,6.72-17.1,1.03-.85,33.67-2.51,10.9-10.17-11.36-3.82-21.46-2.75-28.13-17-14.28-30.42,25.23-88.19,51.31-65.06h-.02ZM361.87,455.59c-2.67,8.38-10.14,15.29-13.02,23.37-1.36,3.82-2.9,3.03,1.77,6.69,12.53,2.67,24.52-30.45,23.32-40.68-2.3-19.44-25.21-18.56-12.08-1.95-10.26.6-13.73,8.34-17.18,16.77l9.64,5.79,7.54-9.99ZM431.42,465.98c-40.5,7.03,32.01,71.7,50.76,53.43,20.75-20.22-30.54-56.93-50.76-53.43Z"/>
  <path class="cls-3" d="M602.56,795.2c-3.52-16.51-27.37-19.8-40.23-7.64-23.6,22.3.51,51.5,27.69,41.49l.07,18.77c-13.52,6.85-26.01,3.95-37.44-5.19-3.43-2.77-4.53-7.92-9.27-10.77-20.88-12.51-45.08,37.17-54.88,37.33l-31.32-74.04c18.26-25.78,35.07-53.16,55.18-77.56,7.68-9.34,34.57-41.3,44.37-43.46,5.96-1.32,15.29-.99,12.88,7.89-1.75,6.39-37.86,37.41-39.7,50.57l6.23,3.84c8.58,0,42.85-63.4,62.28-57.52,14.24,4.29-14.01,25.78-18.38,31.18-4.69,5.82-26.45,34.84-25.16,39.98.48,1.89,5.27,5.73,7.57,2.6,7.89-6.91,11.16-16.98,17.57-25.08,4.39-5.53,37.01-47.07,42.39-29.83,3.24,16.87-50.37,56.82-42.27,68.45,6.12,3.81,12.46-.46,18.03.59,25.92,4.78,37.54,67.73,4.37,69.8-1.73-12.1,2.37-30.19,0-41.35l.02-.05Z"/>
  <path class="cls-3" d="M306.69,791.45c-10.03-1.89-16.42,7.09-22.61,13.71-9.96,10.61-18.24,24.98-22.54,38.91-10.86-5.14.07-23.65,4.62-31.73,5.77-10.18,28.31-32.74,29.99-37.69.9-2.67.55-5.53.48-8.26-5.52-5.66-29.85,25.02-33.6,30.29-7.08,9.92-10.47,21.62-19,29.86-5.48-14.82,7.96-34.94,16.49-47.41,7.57-11.03,21.69-19.93,21.07-32.79-5.61-5.74-27.65,22.82-31.1,27.78-6.35,9.17-11.04,19.32-15.87,29.34-1.66,3.42,1.59,6.91-5.66,5.5-.9-24.17,16.15-47.56,31.26-65.23,6.32-7.38,16.49-8.07,13.85-19.97-21.41,9.89-42.66-26.61-26.31-42.58,10.33,10.43,17.78,26.84,30.5,34.61,16.97,10.39,43.44,6.03,64.44,15.78,21.16,9.82,43.33,35.65,40.64,60-21.96,2.86-37.21,6.83-54.92,20.33-10.9,8.28-42.76,47.81-48.48,49.37-4.16,1.12-6.35.18-7.98-3.82-2.97-9.24,5.91-25.34,11.09-33.28,3.31-5.09,27.9-28.63,23.64-32.73v.02Z"/>
  <path class="cls-3" d="M489.75,631.03l57.61,33.83-31.3,31.28-26.31-65.11Z"/>
  <path class="cls-3" d="M592.16,816.15c-7.8,4.46-25.71,4.68-27.37-6,4.21-28.07,32.04-22.67,27.37,6Z"/>
  <path class="cls-4" d="M835.64,916.87c-.18,27.51-20.38,43.79-34.71,64.4,3.13,11.58,13.43,19.05,17.39,31.88,4.53,14.67,4.99,30.34-.64,44.73-4,10.18-13.78,15.96-14.51,26.81,24.77-.96,31.56-36.18,30.15-56.48-1.4-20.32-10.99-24.28,10.12-39.84,7.2-5.32,23.11-8.43,26.2-11.42,3.77-3.63,4.3-16.97,6.74-23.34,8.56-22.22,29.16-32.79,52.23-33.34,6.14,31.38,34.5,36.79,62.58,36.57-8.07,24.76,21.23,39.15,41.45,40.26,27.23,1.46,86.27-27.05,97.98-52.93,26.63,1.11,37.83-12.74,62.4,5.17,19.16,13.96,24.35,29.33,28.54,51.68,1.28,6.88-2.11,16.31,3.85,21.31,4.12,3.42,18.25-.98,27.16.34,30.5,4.49,64.88,41.88,71.78,71.08,6.82,28.86-1.14,46.11-8.08,73.03l3.92,3.97c110.49,23.26,34.09,218.94-63.29,168.4-10.3-5.35-33.74-30.4-40.84-28.63-3.43.85-12.72,19.14-25.09,25.28-41.97,20.77-88.23.94-120.86-27.96-9.15-8.12-39.05-39.49-35.9-50.88l94.85-143.61c23.41-7.29,35.83,46.73,41.84,48.72,7.98,2.62,13.06-3.51,19.76-4.55,15.2-2.33,29.79,2.26,42.92,9.45,11.11,6.1,18.43,17.73,30.9,17.94,10.28-10.69-36.58-34.48-44.57-36.89-16.56-5.04-29.67-4.26-45.65,1.82-1.38-20.72-23.25-52.15-46.32-47.64-9.41,1.85-18.79,25.16-25.39,32.78l-20.75-10.57c2.78-14.87,11.55-27.7,12.24-43.61.92-21.16-9.96-57.87-34.45-60.77-13.68-1.61-11.82-2.55-22.52-5.07-11.16-2.65-15.2,4.41-19.09,4.07-5.82-.5-14.31-9.19-24.29-3.3-10.07,5.92-1.38,51.53-7.52,63.92-30.02-15.96-73.25,6.67-75.3,41.45-.71,11.92,7.24,18.77,7.24,19.99-.02,5.11-22.61,10.88-6.23,39.18,22.01,38.08,83.63,32.73,115.83,59.73l.85,5.92c-11.38,10-8.65,20.85.28,31.73l-159.36-14.85c-.67-7.14-2.99-14.43-3.59-21.49-3.75-45.46,2.53-99.63-2.48-142.9-.64-5.5-1.84-10.1-6.35-13.73-5.77,0-5.86,4.29-6.35,8.65-3.77,33.56,3.79,71.5,2.55,105.34-23.51,36.97-94.5,26.53-122.84.11-10.53-9.82-8.83-18.01-16.56-28.73-18.17,6.08-32.98,12.74-50.97,1.01-17.73-11.56-26.13-29.39-20.31-50.15,3.15-11.19,12.37-19,14.21-28.81-1.01-5.53-28.27-16.04-31.46-36.39-5.5-34.99,18.03-61.94,42.23-83.04,1.06-4.13-11.2-21.29-13.11-28.81-5.52-21.94,5.08-39.59,18.35-56.05,54.6,3.9,109.02,18.07,162.86,29.05Z"/>
  <path class="cls-3" d="M982.4,826.53c11.25-2.39,13.2-21.16,23.8-22.56-3.59,13.97,37.97,46.15,47.79,39.02,9.11-6.6-6.23-23.18-5.17-23.96h15.04c-8.37,23.18,4.12,46.78,29.07,49.89,18.38,2.28,15.11-3.53,26.84-10.31,24.93-14.41,30.91,12.35,24.89,32.39-6.99,23.28-44.64,54.49-48.35,13.37l-9.87-.16c-2.81,18.9,7.66,33.41,27.44,32.69.18,4.64,1.24,10.87-1.15,14.93-2.21,3.74-39.93,23.94-46.39,26.29-17.5,6.39-33.85,9.73-51.61,1.51-2.88-1.33-4.58,1.22-3.5-5.19l61.04-32.4,1.63-10.25c-33.9,3.77-69.27,16.36-103.77,12.25-26.59-3.19-31.69-17.31-29.12-42.34,11.77-1.27,22.29,5.69,33.65.26,12.63-8.95-26.29-23.65-28.61-31.62-2.07-5.38,6.99-3.29,10.26-7.22,9.94-12.02-17.07-23.68-15.29-36.61h41.38v.03ZM995.3,824.66c-35.56,3.64,25.07,63.92,43.68,50.9,14.63-10.23-25.99-52.72-43.68-50.9ZM1134.08,896.75c-4.76-7.43,9.64-30.89,1.22-32.61-9.64-1.98-33.65,34.08-28.77,45.12l8.6.13,7.7-17.68,2.85,5.01h8.42l-.02.03Z"/>
  <path class="cls-3" d="M1023.73,1112.27c2.07-1.43,7.66-40.66,7.73-46.34.19-14.43-10.16-32.42,1.08-41.36,29.32,22.53,12.83,62.33,8.79,92.7l9.66-.36c5.17-20.02,12.31-42.45,10.1-63.31-.41-3.94-8.99-23.89-1.03-21.54,11.87,3.53,20.06,22.37,21.37,33.78,2.39,21.08-1.54,40.71-14.88,57.32l27.07,23.26-54.88,86.13-3.61-.06c-20.65-26.64-113.11-29.54-116.7-66.59-3.29-34.08,24.27,6,31.76,11.09,15.48,10.51,28.96,10.61,45.24.94,41.74-24.82,7.45-81.28-36.96-69.54-15,3.99-20.15,22.87-35.01,23.88-5.13-30.63,25.9-55.68,54.44-43.15,6.32,2.8,9.36,12.93,15.85,4.39,3.31-4.34,7.02-26.37,7.36-32.69.76-13.32-3.84-24.32.07-36.32,21.67,6.7,18.65,40.55,17.48,58.87-.67,10.52-12.28,30.53,5.01,28.86l.07.05Z"/>
  <path class="cls-3" d="M737.94,728.81c-4.44,16.72-9.43,33.23-13.89,50-1.17,4.39-.3,10.02-1.59,13.45-.48,1.29-18.65,14.22-5.75,16.77,1.91.36,27.23-9.92,37.54-10.21,17.73-.49,33.83,7.99,51.4,7.68,2.25-10.62-7.02-8.21-12.24-13.71,4.05-10.36,21.94-61.86,33.62-60.98,17.43,1.33-5.52,49.97-8.1,59.11-2.42,8.52-11.38,47.79-9.38,53.29,1.31,3.64,6.32,6.95,9.87,2.31,8-10.46,12.26-49.19,26.33-56.39,8.21-3.45,8.05,6.43,7.43,12.33-1.06,10.04-15.2,61.45-19.41,70.95-4.39,9.92-13.64,18.64-20.45,27l-125.49-23.75c11.64-19.39,27.6-139.28,40.09-146.65,3.13-1.84,6.67-1.24,10.05-1.19h-.05Z"/>
  <path class="cls-4" d="M960.46,1120.44c38.11-9.86,57.02,37.05,25.07,50.11-24.54,10.05-35.86-11.34-49.43-26.94,8.14-5.94,14.61-20.67,24.33-23.18h.02Z"/>
  <path class="cls-3" d="M782.99,791.38l-22.49-2.46c3.45-7.81,4.28-16.36,6.88-24.45,4.55-14.22,19.89-53.5,38.98-47.79,15.41,4.62-6.16,27.25-11.18,37.96-5.01,10.72-9.52,25.05-12.17,36.73h-.02Z"/>
  <path class="cls-3" d="M735.47,791.45c.74-20.76,10.72-61.11,27.42-74.07,5.36-4.16,20.36-10.33,15.64.55-2.42,5.56-8.99,11.06-12.28,17.84-5.04,10.33-14.07,46.99-16.97,50.72-2.44,3.16-10.05,2.44-13.82,4.94l.02.02Z"/>
  <path class="cls-4" d="M569.97,390.36l68.81-67.78c4.76-11.34,2.51-24.25,4.58-35.52,14.7-79.61,100.28-142.62,180.78-134.49,101.96,10.31,200.99,137.09,125.46,230.1-18.72,23.07-21.6,14.83-46.25,21.42-15.02,4.03-33.07,12.82-45.08,22.61-21.48,17.55-13.78,29.05-48.83,26.32-54.19-4.26-115.99-41.85-148.28-84.84l-91.19,22.19ZM719.58,278.44c-34.75.57-33.6,56.62,1.52,48.81,26.91-5.97,22.24-49.2-1.52-48.81ZM790.01,285.56c-30.15,3.95-28.4,52.39-.67,52.33,34.48-.1,28.84-56.04.67-52.33ZM885.06,336.96c5.8-6.33,8.65-23.41,3.5-30.73-15.13-12.69-42.64-7.61-42.89,15.18-.25,21.67,27.14,28.95,39.4,15.55Z"/>
  <path class="cls-2" d="M926.07,623.36l12.6-42.44c16.42,9.91,58.97-9.82,40.07-28.99-14.12-14.3-29.51,1.76-40.23,10.13-2.64,2.07-5.59,5.92-7.5-.05-.9-2.86,14.86-14.54,15.52-19.5,10.9-13.53,10.17-53.29-9.38-56.9-35.7-6.6-35.37,52.96-26.24,75.15-17.23,3.71-14.19-24.17-28.15-30.69-35.9-16.87-27.53,48.2,7.98,43.38,1.17,20.9-2.35,51.97-29.92,42.45-.37-7.84-1.56-15.42,4.53-21.31-22.63-12.25-34.2-32.4-36.92-57.89-15.04-140.54,166.52-168.35,211.55-41.02,15.62,44.13-1.63,113.28-55.45,117.55-9.04.72-25.67-5.16-30.36-3.03-8.19,3.74-3.79,13.35-9.73,15.49l-18.4-2.37.02.03Z"/>
  <path class="cls-2" d="M893.39,620.98l10.35-47.3,17.13-4.2,6.76,7.6-12.88,41.46-21.37,2.44Z"/>
  <path class="cls-2" d="M920.99,550.81c-9.04-9.43-2.62-57.24,10.9-54.95,17.64,3.01,8.86,52.9-10.9,54.95Z"/>
  <path class="cls-2" d="M888.38,560.85c-5.22,4.94-25.39-16.09-13.78-22.5l13.78,22.5Z"/>
  <path class="cls-2" d="M948.54,570.85c.16-6.99,22.91-17.99,22.52-8.75-.21,4.77-17.3,11.14-22.52,8.75Z"/>
  <path class="cls-4" d="M461.62,1090.23c65.92-5.17,99.82,67.76,46.83,114.72-70.4,62.4-164.03-32.82-88.96-93.95,9.34-7.61,30.38-19.84,42.14-20.77Z"/>
  <path class="cls-1" d="M431.42,465.98c20.22-3.5,71.5,33.21,50.76,53.43-18.74,18.27-91.26-46.41-50.76-53.43ZM452.03,498.13l4.03-12.54c-7.94-6-16.49-8.69-26.5-7.43.07,6,18.88,22.54,22.47,19.97Z"/>
  <path class="cls-1" d="M361.87,455.59l-7.54,9.99-9.64-5.79c3.47-8.43,6.95-16.17,17.18-16.77-13.11-16.62,9.78-17.5,12.08,1.95,1.22,10.23-10.79,43.35-23.32,40.68-4.67-3.64-3.13-2.85-1.77-6.69,2.88-8.07,10.35-15,13.02-23.37Z"/>
  <path class="cls-1" d="M995.3,824.66c17.69-1.79,58.3,40.66,43.68,50.9-18.61,13.03-79.23-47.28-43.68-50.9ZM1026.26,864.12c2.69-3.24-8.32-15.4-11.25-17.5l-2.55,7.53,13.82,9.97h-.02Z"/>
  <path class="cls-1" d="M1134.08,896.74h-8.42l-2.85-5.01-7.71,17.7-8.6-.15c-4.87-11.04,19.14-47.11,28.77-45.12,8.42,1.72-5.96,25.18-1.22,32.61l.02-.03Z"/>
  <path class="cls-1" d="M790.01,285.56c28.17-3.71,33.81,52.25-.67,52.33-27.74.06-29.49-48.37.67-52.33ZM783.45,324.8c18.95,4.81,22.98-16.22,10.49-26.89-16.51-1.01-18.54,15.21-10.49,26.89Z"/>
  <path class="cls-1" d="M719.58,278.44c23.74-.39,28.43,42.81,1.52,48.81-35.12,7.82-36.27-48.24-1.52-48.81ZM714.66,290.52c-12.9,3.59-13.57,27.23,4.32,24.76,14.74-2.05,10.4-28.82-4.32-24.76Z"/>
  <path class="cls-1" d="M885.06,336.96c-12.26,13.39-39.65,6.1-39.4-15.55.25-22.79,27.76-27.86,42.89-15.18,5.15,7.32,2.3,24.4-3.5,30.73ZM865.08,310.63c-10.51,3.16-8.62,21.65,1.93,22.01,15.36.55,17.39-27.8-1.93-22.01Z"/>
  <path class="cls-3" d="M452.03,498.13c-3.59,2.57-22.38-13.97-22.47-19.97,10-1.25,18.56,1.43,26.5,7.43l-4.03,12.54Z"/>
  <path class="cls-3" d="M1026.26,864.12l-13.82-9.97,2.55-7.53c2.92,2.1,13.96,14.26,11.25,17.5h.02Z"/>
  <path class="cls-3" d="M783.45,324.8c-8.05-11.68-6-27.9,10.49-26.89,12.49,10.7,8.46,31.7-10.49,26.89Z"/>
  <path class="cls-3" d="M714.66,290.52c14.72-4.07,19.04,22.67,4.32,24.76-17.89,2.47-17.23-21.16-4.32-24.76Z"/>
  <path class="cls-3" d="M865.08,310.63c19.32-5.79,17.3,22.56,1.93,22.01-10.56-.36-12.44-18.85-1.93-22.01Z"/>
</svg>