<?xml version="1.0" encoding="UTF-8"?>
<svg id="Layer_1" data-name="Layer 1" xmlns="http://www.w3.org/2000/svg" viewBox="0 0 1500 1500">
  <defs>
    <style>
      .cls-1 {
        fill: #98bdb0;
      }

      .cls-2 {
        fill: #263c34;
      }

      .cls-3 {
        fill: #a59ed3;
      }

      .cls-4 {
        fill: #395e53;
      }

      .cls-5 {
        fill: #fdf9f3;
      }

      .cls-6 {
        fill: #bfde63;
      }
    </style>
  </defs>
  <path class="cls-2" d="M899.15,263.64c3.62.69,3.33.5,5.44-1.68,9.54-10,15.67-23.28,28.45-33.57,60.89-49.08,133.9,8.78,125.26,79.56,49.24-26.72,89.58,18.5,80.82,67.82,20.43-2.8,86.22,9.67,92.84,31.17,8.16,26.58-42.93,19.75-57.57,20.99-93.34,7.97-186.61,14.74-280.43,15.63,11.31,12.58,26.72,21.2,39.17,32.55,77.82,70.95,117.21,174.58,150.86,271.77l-9.5,9.78c11.94,27.81,7.87,54.23-2.66,81.45-2.27,5.87-9.78,13.57-10.29,18.11-.5,4.54,11.01,33.36,12.08,44.29,1.92,19.17.7,37.76-6.24,55.7-4.45,11.55-12.87,20-16.91,31.3,34.98,13.11,62.42,41.84,76.1,76.49,6.11,15.49,10.61,23.22-.46,38.26,19.19,5.58,38.23,12.45,56.53,20.43,9.09,3.98,47.93,21.44,51.65,26.59,10.67,14.66.62,39.91-4.51,55.33-8.4,25.22-30.28,85.21-50.2,101.05-16.45,13.09-71.96,20.13-93.8,20.96-91.31,3.57,4.59-52.66,9.02-77.14.75-4.19-4.14-37.4-5.82-39.7-1.47-2.03-16.13-6.69-18.99-10.99l-14.64,30.93c-5.7,3.63-28.44-8.98-33.7-13.92-5.26-4.96-12.27-20.72-13.55-21.67-2.32-1.66-29.49-6.35-39.36-11.47-7.95-4.11-13.38-13.19-22.61-12.56,8.99,19.11,7.17,39.35-17.09,41.81-4.74.48-9.7-1.94-12.99-1.52-4.29.53-11.55,8.51-20.72,8.8-6.61.21-26.75-1.44-33.76-2.4-18.66-2.58-30.53-19.15-38.6-34.52-1.42-2.75-1.66-8.75-2.32-9.31-4.27-3.73-23.04,8.46-27.8-20.45-3.31-20.03,8.13-50.39,8.8-72.84.91-29.56-2.02-78.78-4.24-109.12-.29-3.87,2.03-7.54-3.87-6.45l-58.6,48.18c35.84,54.82,25.68,118.17-10.24,170.15-1.1,7.73,8.13,10.61,9.7,18.26,5.26,26.03-19.79,13.03-23.07,16.32l5.36,92.71c-1.94,24.91-16.19,25.51-37.97,27.2-44.02,3.47-96.46,6.35-140.72,7.97-20.58.77-74.84,6.74-49.72-26.23,14.5-19.01,60.52-44.36,80.82-62.61,11.41-10.26,20.39-16.63,17.06-33.83-4.98-.32-11.11,1.39-15.67-1.3-6.77-4-31.78-49.53-34.69-59.17-11.62-38.28,3.31-82.5,42.52-96.01-12.79-19.86-27.44-40.23-30.61-64.52-5.89-45.08,32.23-102.47,75.1-117.1,1.5-8.66-2.83-16.83-2.56-25.27.4-13.3,9.09-26.32,10.37-39.38,2.05-20.55-2.69-66.81-5.66-88.49-.67-4.83-2.61-9.52-2.42-14.51l-24.82-2.59c-7.2-10.29,9.3-98.7,14.1-115.98-10.16-8.29-21.01-14.61-29.62-24.98-8.13-9.81-15.71-31.48-20.88-36.48-3.57-3.44-10.43-3.97-15.63-7.84-26.37-19.68-33.83-58.58-24.77-88.68-26.34,6.29-126.24,13.68-138.91-13.67-15.17-32.76,26.39-64.65,51.11-78.07,26.69-14.5,55.37-21.51,85.23-25.65-30.23-86.22,81.88-138.41,146.03-91.24,31.3-137.58,223.86-94.65,234.79,31.3v.03ZM842.36,422.09c9.62,9.76,47.25,11.52,60.79,11.12,95.4-2.72,191.57-10.31,286.85-18.32,5.31-.46,30,2.08,29.91-3.95-11.49-13.52-33.92-19.23-51.08-21.89-11.33-1.74-29.73,2.75-38.98-5.34-7.33-6.4-.85-15.76-.96-24.9-.38-27.09-18.18-47.38-45.94-45.78-11.59.67-26.51,11.73-34.07,5.58-7.15-19.89-.66-36.07-10.24-57.57-19.07-42.8-68.15-50.13-103.02-19.62-14.4,12.61-19.97,33.83-37.44,40.07-8.06-1.52-18.13-47.83-24.11-59.32-46.21-88.65-189.81-86.01-201.88,24.53-.58,5.36,4.11,24.53-3.9,24.67-8.02.14-4.88-21.83-8.95-27.52-3.39-4.75-22.4-13.95-28.72-15.6-31.38-8.18-76.5,5.63-95.18,32.9-16.18,23.65-7.74,47.22-4.06,72.87-31.92,2.22-64.94,9.92-93.05,25.62-15.06,8.4-60.04,41.99-45.4,61.93,16.87,22.95,116.76,13.09,143.68,3.68-10.26-19.43,12.47-26.47,16.93-33.88,4.45-7.42.66-29.03,13.2-46.76,43.83-62.02,162.32-36.82,205.93,15.46,3.65,4.38,13.04,21.6,14.16,22.27,2.96,1.78,20.05-6.58,36.76,7.66,11.84,10.1,14.13,27.39,18.79,32.08ZM625.26,495.72c-.51,2.43-12.95,13.91-16.47,16.15-10.94,6.99-25.55,10.69-38.34,12.56,20.67,79.03,108.67,97.74,166.98,43.03,17.79-16.71,35.57-55.45,37.92-79.4.4-4.18-10.43-14.98-6.64-18.42,6.8-6.18,12.05,5.98,14.27,7.78,4.11,3.3,14.59,11.7,18.95,12.63,38.21,8.1,40.44-86.49,3.38-97.55-15.49-4.62-29.75,14.82-31.43,28.8-.69,5.74,2.66,26.03-3.87,27.43-5.74.72-5.9-7.23-9.09-9.09-5.76-3.41-17.28-.18-26-7.9-5.41-4.75-4.51-10.05-9.49-14.16l-29.68,7.76c2.38,5.23,13.52,4.16,17.65,8.43,3.26,3.38.37,8.55,1.68,12.42,4.58,5.39,23.28-.46,21.11,13.31-3.86,24.19-77.78,44-68.06,12.63,3.86-12.39,20-14.9,27.62-23.35-8.48.54-39.72-9.23-41.25-17.35l3.87-8.88,24.34.1-10.48-15.6c-4.06-2.82-17.47,14.88-22.51,17.86-11.6,6.78-35.17,10.69-40.2-4.64l-3.71-.14c-9.46,12.67-21.3,24.47-37.88,26.07,6.42,7.17-5.68,40.85-2.56,44.29,8.4-1.01,14.71-7.25,22.9-9.68,13.47-4.03,41.54-6.72,37.09,14.9.02-.14,2.19.1,2.58-1.79,4.64-22.82,4.91-33.68-16.95-45.12-.64,11.51-32.66,37.91-37.44,18.99-2.29-9.06,23.62-34.5,31.88-31.86,3.81,1.22,4.43,7.49,6.77,8.9,1.63.98,6.56-1.3,10.48-.18,25.3,7.25,20,42.5,13.12,61.48,2.1,2.13,28.66-13.27,31.27-3.89,2.91,10.66-32.37,17.87-37.73,17.04-10.67-1.68-5.84-15.28-3.97-23.59l-.1.05ZM609.61,706.94h83.45c-4.46-14.75-8.87-29.86-14.37-44.29-1.2-3.12-23.89-40.45-7.81-36.53,25.83,39.67,37.67,86.57,44.21,133.13l77.1,5.06v-43.03c0-.54,3.9-2.94,2.61-3.87-5.02-.13-27.39,1.41-28.8-4.38,5.52-63.96,18.95-132.43,50.92-188.66,3.66-6.45,23.71-42.39,32.64-33.84,1.46,5.39-1.82,7.1-3.81,10.53-7.52,12.99-18.5,26.21-25.35,39.86-24.32,48.49-36.47,109.64-41.27,163.46l184.84,2.22c8.45-40.68.19-82.65-4.88-123.37l9.12-1.55c2.43.38,8.74,43.16,9.14,48.41,1.25,16.24,2.74,64.02.05,78.2-1.7,8.94-17.75,12.71-26.08,11.75l2.59,33.91,114.78-10.47c-31.86-98.84-76.18-203.19-157.87-271.12-11.49-9.55-48.98-34.82-62.65-36.52-5.25-.64-3.34.08-3.82,3.81-3.47,27.35-.1,37.97-22.16,58.74-2.5,2.34-7.47,2.48-10.34,5.31-6.66,6.54-19.65,37.46-29,49.24-26.55,33.38-87.72,60.92-130.17,57.54-10.07-.82-20.48-6.59-30.15-4.03-8.08,5.52-14.26,86.39-12.95,100.59l.03-.08ZM557.42,521.8c-2.82-14.13-3.44-28.74-2.67-43.12.77-14.39,13.68-39.65-13.76-37.16-24.64,2.24-9.04,76.25,16.42,80.28h.02ZM721.79,459.22l-18.26,1.28,9.11,6.62,9.15-7.9ZM588.76,495.67l11.7,7.34c25.35-13.62,1.78-21.31-11.7-7.34ZM575.71,500.95c-6.58-.67-8.82,4.14-7.81,10.39h7.82v-10.39h-.02ZM695.67,717.36c-20.45,6.5-41.41-2.9-62.57.02l7.84,91.26c19.92-15.36,36.71-33.67,61.43-41.6l-6.7-49.67ZM940.88,719.96l-135.66-2.61c1.7,11.11-2.5,21.6-2.7,32.47-1.78,85.95,3.1,175.38,7.92,260.92,2.58,45.92,1.55,164.16,43.49,191.2,27.76,17.91,11.59-2.51,7.39-12.58-10.45-25.07-17.17-53.75-19.54-80.84,5.7-.59,6.96-.59,9.92,4.38,4.74,8,8.19,38.24,12.21,50.39,4.37,13.31,18.07,49.8,36.15,43.99,10.32-3.33-3.62-19.7-6.58-26.61-4.34-10.18-27.68-72.86-23.01-77.38l10.11.3c4.67,19.25,22.03,86.89,39.46,94.81,8.8,4.02,21.55,1.3,20.87-10.15-.37-5.7-21.09-36.47-25.51-47.78-2.13-5.46-13.79-42.84-12.42-45.01,2.51-4.02,7.39-3.68,10.45.05,8.99,11.01,10.47,64.58,31.3,64.77,21.92.21,1.54-26.63-1.34-34.74-19.54-55.4-3.62-119.47-2.43-177.28l-.1-228.3.02-.02ZM1063.15,756.82l-109.39,11.71c2.22,86.27-2.06,171.79-5.1,257.85-.96,27.35-6.24,52.04.8,80.07,3.87,15.49,19.01,32.85,17.49,47.51-.46,4.37-5.41,9.23-4.1,12,6.42,13.38,39.6,12.98,49.43,18.48,9.01,5.02,17.38,31.27,34.24,33.3l74.04-131.31c-7.71-32.47-27.19-59.51-54.77-78.06-6.03-4.06-30.87-14.43-31.25-16.13-1.58-7.36,14.43-23.57,18.93-33.16,17.36-37.14,9.01-68.94-5.94-104.91,22.82-27.68,29.94-63.86,15.57-97.35l.05-.02ZM792.23,774.72c-30.58-1.65-58.97-6.88-88.65,3.95-23.71,8.67-60.92,40.37-67.98,65.03-5.65,19.78-.05,32.02,1.6,51-15.27,7.14-23.75,4.99-38,16.91-25.7,21.46-43.24,61.97-37.92,95.35,3.97,25.04,22.35,39.03,30.2,61.06-7.74,14.07-22.32,11.75-33.52,26.63-28.07,37.35-9.25,84.57,20.47,114.2,13.68,5.74,43.62-1.06,58.52-1.36,23.79-.48,53.19,2.7,75.88.24,21.17-2.3-7.09-13.11-1.36-24.74,30.26-46.95,45.52-91.98,23.87-146.66-4.69-11.83-15.33-21.63-13.43-34.64,3.39-.14,6.96,0,10.13-1.54,10.19-4.99,59.69-43.83,62.28-52.53l-2.06-172.91h-.02ZM1060.86,1314.54h40.44c2.08,0,19.09-3.04,22.23-3.86,7.74-2.03,20.03-7.86,24.63-14.5,18.47-48.79,46.23-94.44,61.13-144.24-1.81-6.32-51.27-25.51-60.93-27.88l-66.57,69.19c18.91,4.77,27.27,43.41,24.59,58.98-1.97,11.46-50.47,57.81-45.54,62.26l.03.03ZM815.67,1163.26l-10.39-36.48c.43,11.65-1.76,23.71,2.35,34.96l8.03,1.5v.02ZM1160.01,1304.11c1.84,2.27,19.78-15.35,22-18.43,10.55-14.69,45.53-99.71,45.91-116.03.13-4.75.37-8.53-4.06-11.57l-63.85,146v.03ZM494.85,1332.77c8.16,6.62,89.23-4.19,105.66-5.17,31.64-1.89,63.7.34,95.31-3.81,1.7-.77,3.87-1.36,5.15-2.67,5.95-6.03,1.15-46.09,2.19-57.09l-102.76-40.34c-5.41.93-3.3,15.14-4.98,20.58-5.81,18.98-77.88,61.7-95.11,79.62-1.36,1.41-6.22,8.24-5.46,8.85v.03Z"/>
  <path class="cls-2" d="M395.73,1324.94l57.38-2.58c.18,4.03,1.04,6.29-2.66,9.04-7.31,5.47-66.86,5.26-81.75,6.91-24.32,2.67-48.12,9.78-71.98,14.26-9.38,1.74-11.99-7.58-1.63-12.19,9.07-4.05,65.74-9.31,66.89-14.53-.18-30.47,7.73-60.58,10.29-90.87,3.55-42.15,12.51-119.16-34.71-139.98-22.77-10.02-34.02,1.22-48.71,17.47l31.99,7.06c27.25,10.79,52.6,43.09,42.85,73-6.78,20.88-16.88,16.13-33.09,24.19,14.5,22.08-11.95,32.61-32.04,29.38-17.3-2.8-30.58-20.58-37.72-22.5-4.83-1.28-13.63,2.46-20.26,2.5-13.41.02-25.89-5.12-33.99-15.84-11.84-15.7-2.13-21.41-5.09-28.66-2.96-7.25-17.3-11.62-19.47-24.98-7.2-44.1,40.36-56.21,75.11-48.49,18.32-48.71,60.97-68.5,108.14-40.87,77.62,45.46,36.66,185.36,30.48,257.68h-.05ZM372.28,1327.55c5.68.59,6.96.62,9.92-4.38,4-6.77,6.51-32.1,7.95-41.6,9.28-61.73,32.34-197.3-54.28-213.57-34.2-6.43-62.07,15.36-67.62,48.01l7.47,2.96c28.8-72.84,104.59-32.52,109.68,32.5,4.56,58.12-6.54,118.6-13.11,176.1h-.02ZM312.25,1202.42c68.74,9.9,42.8-62.21-3.06-73.85-15.07-3.82-20.1-3.78-28.15,10.03l-3.97,1.22c-13.83-28.95-79.99-29.28-84.35,4.61-3.04,23.65,26.28,27.43,28.1,33.52l-9.41,15.25c4.19,21.22,22.79,20.87,40.85,19.62l2.46-9.07,10.55,1.25-28.71-16.87c-30.24-31.51,1.71-45.59,34.07-36.66,42.28,11.65,65.75,57.93,2.48,53.57-6.91,21.36,33.43,38.15,46.93,27.33,9.14-7.33-12.16-19.65-7.81-29.94v-.02ZM299.21,1191.95c3.38-20.72-57.83-42.72-62.44-27.09-6.11,20.63,48.55,32.31,62.44,27.09Z"/>
  <path class="cls-2" d="M1182.16,639.14c-2,.05-7.17,5.38-11.71,1.36-5.62-3.54-4.74-6.05-2.32-11.54l54.44-2.9-27.49-12.9-1.3-3.97,4.19-6.46,37.64,12.9-15.62-44.28,10,.42c5.23,11.01,9.71,22.43,14.74,33.52,1.06,2.35.77,7.23,3.97,3.86,7.14-8.27,5.79-48.85,14.35-50.87,7.06.13,6.53,7.09,6.72,11.73.37,8.88-10.1,48.12-8.03,50.87,16.56-8.54,29.86-28.68,49.53-28.68,10.85,10.75-39.88,37.04-44.31,44.29,8.27,2.7,54.02,15.65,52.13,24.77-2.56,12.42-48.47-9.86-52.13-6.46.38,9.12,15.28,56.63,10.39,59.96-3.09,2.11-7.86-.77-10.15-4.16-3.87-5.7-14.1-53.33-19.81-53.14-8.67,7.49-30.28,52.36-41.68,49.48-3.52-.88-3.86-4.45-2.86-7.98,4.08-14.63,32.87-42.28,38.04-59.81-19.52.29-39.14-.38-58.69,0h-.02Z"/>
  <path class="cls-2" d="M411.37,785.16c-2.75-22.67,4.64-48.17,26.92-57.85,55.3-24.08,87.05,49.78,33.09,74.82l-39.09,7.78c17.31,20.88,48.42,35.76,75.08,39.92,4.86.77,12.35-1.76,13.63-.96,8,5.07,2.29,14.88-8.9,14.32-21.12-1.09-67.62-22.1-82.55-37.52-6.59-6.85-10.48-18.69-15.67-23.44-5.55-5.1-20.13-9.63-28.36-15.99-20.05-15.54-37.04-47.19-36.96-72.79,0-9.27,11.67-53.13,22.34-50.85,10.67,2.29-7.22,28.45-8.46,35.83-6.18,36.53,13.73,75.16,48.93,86.71v.02ZM425.03,792.36c1.86,1.9,5.95,2.59,8.66,2.98,64.26,9.23,71.67-68.7,15.65-59.56-19.67,3.2-36.72,44.15-24.31,56.58Z"/>
  <path class="cls-2" d="M348.47,1301.18c-6.96,10.75-113.45,8.93-130.22,4.34-23.91-6.56-51.93-31.88-28.66-54.97,32.85-32.61,104.92.46,137.1,22.18,10.15,6.86,26.03,14.43,21.78,28.45ZM312.24,1275.46c-30.72-12.71-59.46-31.33-94.57-25.51-15.43,2.56-31.44,13.01-20.19,29.38,17.73,25.81,91.88,19.43,120,15.65-25.65-10.87-55.91-12.95-83.4-17.04l-.05-10.34c23.65-1.66,46.72,6.58,69.83,9.71,2.83.38,9.01,2.88,8.4-1.89l-.02.03Z"/>
  <path class="cls-2" d="M502.23,1192.59c35.38-1.84,49.49,21.25,25.23,48.93-17.11,19.54-74.5,47.83-99.8,51.54-6.42.94-19.62.96-18.5-8.03.34-2.61,3.74-5.65,4.18-8.98,5.62-42.42,44.02-81.11,88.86-83.46h.03ZM427.03,1280.6c25.99-9.86,55.97-18.16,78.04-35.38,40.93-32,17.92-50.71-25.06-35.49-15.52,5.5-35.03,22.69-45.11,35.75-1.9,2.5-7.68,8.69-3.97,11.68,7.1-7.76,15.36-14.35,23.97-20.37,8.35-5.84,40.95-28.71,48.77-26.35l4.24,6.29c-26.55,20.91-63.45,33.76-80.86,63.88h-.03Z"/>
  <path class="cls-2" d="M1167.82,791.7c1.41-8.1,9.44-19.35,12.34-4.58,3.04,15.6-1.84,29.72-1.89,44.96,2.11,2.51,27.23-21.97,31.99-24.08,3.38-1.47,5.79-3.7,8.43.61,7.84,12.72-29.96,24.48-30,36.48,1.46,2.02,39.92,8.9,47.73,13.57,4.29,2.56,5.17,3.23,4.43,8.61-.91,6.62-51.83-11.65-57.38-11.71-2.69,3.39,12.08,30.63,13.73,37.16,1.01,3.9,2.83,3.54-2.06,7.15-13.75,3.15-15.57-29.96-19.57-33.88-4.37-4.29-4.37,1.33-5.42,3.65-5.07,11.25-6.13,42.02-20.63,36.76l5.18-32.58-28.64,23.44c-9.54-12.18,36.88-41.84,31.28-46.9-13.67.56-32.18,7.71-44.26-1.31.14-8.59,39.14-7.57,46.89-9.17-3.84-6.27-22.32-29.36-20.87-35.12,4.51-17.92,23.03,25.51,28.69,24.72,1.39-11.57-1.9-26.85,0-37.81l.03.03Z"/>
  <path class="cls-1" d="M842.36,422.09c-4.62-4.69-6.94-21.99-18.79-32.08-16.71-14.24-33.8-5.89-36.76-7.66-1.12-.67-10.53-17.89-14.16-22.27-43.62-52.28-162.11-77.48-205.93-15.46-12.55,17.73-8.94,39.7-13.2,46.76-4.48,7.41-27.19,14.45-16.93,33.88-26.92,9.41-126.81,19.27-143.68-3.68-14.64-19.94,30.34-53.53,45.4-61.93,28.12-15.7,61.13-23.39,93.05-25.62-3.68-25.63-12.11-49.22,4.06-72.87,18.66-27.27,63.8-41.08,95.18-32.9,6.32,1.65,25.33,10.85,28.72,15.6,4.06,5.7.59,27.68,8.95,27.52,8.35-.18,3.3-19.31,3.9-24.67,12.03-110.54,155.66-113.18,201.88-24.53,5.98,11.49,16.05,57.8,24.11,59.32,17.47-6.24,23.04-27.46,37.44-40.07,34.87-30.52,83.94-23.19,103.02,19.62,9.59,21.54,3.09,37.68,10.24,57.57,7.54,6.14,22.47-4.93,34.07-5.58,27.76-1.6,45.59,18.69,45.94,45.78.11,9.14-6.37,18.5.96,24.9,9.25,8.11,27.65,3.6,38.98,5.34,17.15,2.66,39.59,8.37,51.08,21.89.1,6.03-24.59,3.49-29.91,3.95-95.27,8.03-191.44,15.62-286.85,18.32-13.54.38-51.17-1.39-60.79-11.12Z"/>
  <path class="cls-6" d="M792.23,774.72l2.05,172.9c-2.58,8.74-52.09,47.57-62.28,52.55-3.15,1.55-6.72,1.39-10.11,1.54-1.92,12.99,8.72,22.82,13.41,34.64,21.67,54.69,6.4,99.71-23.87,146.66-5.7,11.62,22.55,22.43,1.36,24.74-22.71,2.46-52.09-.72-75.86-.24-14.91.3-44.84,7.1-58.53,1.36-29.71-29.65-48.52-76.87-20.45-114.2,11.2-14.88,25.75-12.56,33.52-26.63-7.86-22.03-26.23-36.02-30.2-61.06-5.31-33.38,12.23-73.9,37.92-95.35,14.27-11.92,22.75-9.79,37.99-16.91-1.63-18.98-7.25-31.24-1.6-51,7.06-24.66,44.26-56.37,67.98-65.03,29.72-10.83,58.07-5.62,88.65-3.95h.03Z"/>
  <path class="cls-3" d="M609.61,706.94c-1.34-14.16,4.85-95.03,12.95-100.59,9.67-2.53,20.07,3.25,30.15,4.05,42.44,3.38,103.63-24.16,130.16-57.54,9.36-11.78,22.32-42.69,29-49.25,2.88-2.82,7.86-2.96,10.34-5.31,22.1-20.74,18.72-31.4,22.16-58.74.48-3.7-1.41-4.45,3.82-3.79,13.67,1.66,51.16,26.96,62.65,36.5,81.69,67.94,126.03,172.29,157.87,271.13l-114.78,10.45-2.58-33.91c8.32.96,24.4-2.8,26.08-11.75,2.67-14.16,1.18-61.94-.05-78.2-.42-5.22-6.74-48.02-9.15-48.41l-9.1,1.57c5.07,40.72,13.33,82.68,4.88,123.36l-184.85-2.22c4.82-53.83,16.95-114.97,41.28-163.44,6.83-13.63,17.84-26.87,25.33-39.86,1.97-3.41,5.25-5.15,3.81-10.53-8.93-8.54-28.98,27.39-32.63,33.83-32,56.23-45.4,124.72-50.93,188.68,1.39,5.76,23.79,4.26,28.82,4.37,1.3.94-2.61,3.33-2.61,3.89v43.01l-77.1-5.04c-6.56-46.6-18.4-93.47-44.21-133.13-16.07-3.92,6.59,33.4,7.79,36.53,5.52,14.43,9.9,29.52,14.39,44.29h-83.47l-.02.06Z"/>
  <path class="cls-5" d="M940.88,719.96l.1,228.28c-1.17,57.81-17.11,121.92,2.45,177.28,2.86,8.11,23.25,34.96,1.33,34.74-21.91-.21-22.29-53.78-31.28-64.76-3.07-3.74-7.95-4.1-10.47-.05-1.36,2.19,10.29,39.54,12.42,45,4.43,11.33,25.15,42.08,25.51,47.78.7,11.44-12.05,14.18-20.87,10.15-17.41-7.92-34.79-75.56-39.44-94.79l-10.13-.3c-4.67,4.5,18.69,67.21,23.03,77.37,2.93,6.91,16.88,23.28,6.58,26.61-18.1,5.81-31.78-30.68-36.16-43.97-3.98-12.16-7.46-42.4-12.19-50.39-2.98-5.01-4.24-4.98-9.94-4.38,2.37,27.09,9.09,55.75,19.55,80.82,4.21,10.1,20.39,30.48-7.39,12.59-41.96-27.04-40.95-145.3-43.51-191.2-4.8-85.55-9.67-174.98-7.92-260.94.22-10.85,4.4-21.36,2.7-32.47l135.68,2.61-.03.03Z"/>
  <path class="cls-6" d="M1063.15,756.8c14.35,33.51,7.25,69.7-15.57,97.37,14.98,35.96,23.33,67.77,5.94,104.89-4.5,9.6-20.51,25.79-18.93,33.17.35,1.71,25.22,12.08,31.25,16.13,27.59,18.56,47.06,45.57,54.77,78.04l-74.04,131.31c-16.9-2.03-25.25-28.28-34.24-33.3-9.86-5.5-43.01-5.12-49.43-18.47-1.34-2.78,3.63-7.62,4.1-12.02,1.52-14.67-13.6-32.04-17.49-47.49-7.04-28.05-1.78-52.74-.8-80.09,3.04-86.04,7.33-171.55,5.1-257.84l109.39-11.73-.05.02Z"/>
  <path class="cls-5" d="M625.26,495.72c4.45-21.63-23.6-18.93-37.09-14.91-8.19,2.45-14.5,8.69-22.9,9.7-3.12-3.46,8.98-37.14,2.56-44.29,16.61-1.6,28.42-13.39,37.88-26.08l3.71.14c5.02,15.35,28.61,11.44,40.2,4.64,5.04-2.96,18.42-20.67,22.51-17.84l10.48,15.6-24.34-.1-3.87,8.87c1.54,8.11,32.76,17.91,41.25,17.35-7.62,8.45-23.76,10.95-27.62,23.36-9.73,31.36,64.2,11.55,68.06-12.64,2.19-13.75-16.51-7.89-21.11-13.3-1.31-3.87,1.58-9.04-1.68-12.42-4.13-4.29-15.27-3.2-17.65-8.45l29.68-7.74c4.98,4.11,4.08,9.43,9.49,14.16,8.75,7.7,20.24,4.5,26,7.89,3.2,1.89,3.34,9.81,9.09,9.09,6.53-1.41,3.22-21.67,3.87-27.41,1.68-14,15.94-33.43,31.43-28.82,37.09,11.06,34.85,105.63-3.38,97.56-4.35-.91-14.82-9.33-18.95-12.64-2.22-1.79-7.47-13.94-14.27-7.78-3.79,3.46,7.04,14.24,6.64,18.43-2.35,23.95-20.13,62.68-37.92,79.38-58.31,54.69-146.3,35.99-166.98-43.01,12.79-1.87,27.4-5.58,38.34-12.56,3.52-2.26,15.95-13.71,16.47-16.16-1.87,8.29-6.69,21.92,3.97,23.6,5.36.83,40.64-6.4,37.73-17.04-2.61-9.38-29.17,5.98-31.27,3.87,6.88-18.98,12.15-54.21-13.12-61.46-3.95-1.14-8.85,1.15-10.48.16-2.34-1.41-2.96-7.68-6.77-8.9-8.26-2.66-34.16,22.8-31.88,31.88,4.78,18.87,36.84-7.49,37.44-19.01,21.86,11.44,21.62,22.34,16.95,45.14-.38,1.89-2.56,1.62-2.58,1.79l.1-.05ZM800.05,443.55c5.79,3.66,9.9,9.12,15.6,1.26l-12.79-15.95c-.67-4.14,10.77-10.56,1.04-16.58-15.97,5.5-15.6,23.97-14.27,37.78.77,7.92,3.76,22.48,12.8,12.77l-2.38-19.28ZM733.5,474.9c-8.46,11.94-19.44,13.25-31.67,17.83-3.22,1.2-9.89,1.36-8.74,6.86,2.48,11.89,42.77-3.38,45.86-16.77l-5.46-7.9v-.02ZM608.37,520.07c-2.11-.26-23.41,5.12-22.21,10.79,1.97,9.34,28.77,1.15,28.63-5.17,0-.53-4.77-5.42-6.45-5.62h.03ZM671.52,522.39c-13.75,2.53-42.08,30-26.64,33.28,4.83,1.02,16.77-19.14,27.22-22.26,9.25-2.75,32.71,3.55,34.04-2.53,2.56-11.92-28.21-9.67-34.61-8.5Z"/>
  <path class="cls-4" d="M1060.86,1314.54c-4.93-4.46,43.57-50.82,45.52-62.26,2.66-15.59-5.66-54.23-24.59-58.98l66.57-69.21c9.66,2.37,59.13,21.57,60.95,27.88-14.91,49.8-42.66,95.45-61.14,144.24-4.61,6.66-16.9,12.47-24.63,14.5-3.12.82-20.15,3.86-22.23,3.86h-40.44l-.02-.02Z"/>
  <path class="cls-4" d="M494.85,1332.77c-.77-.62,4.1-7.44,5.46-8.85,17.23-17.92,89.29-60.66,95.11-79.64,1.68-5.46-.43-19.63,4.98-20.58l102.76,40.34c-1.06,11.01,3.76,51.06-2.19,57.09-1.3,1.3-3.47,1.92-5.15,2.69-31.6,4.13-63.69,1.9-95.31,3.79-16.43.99-97.5,11.81-105.66,5.17v-.02Z"/>
  <path class="cls-5" d="M695.67,717.36l6.7,49.67c-24.72,7.92-41.49,26.24-61.43,41.6l-7.84-91.26c21.12-2.91,42.12,6.5,62.57-.02Z"/>
  <path class="cls-5" d="M1160.01,1304.11l63.85-146.02c4.4,3.02,4.16,6.82,4.06,11.59-.38,16.32-35.36,101.34-45.91,116.03-2.21,3.09-20.13,20.67-22,18.42v-.02Z"/>
  <path class="cls-5" d="M557.42,521.8c-25.48-4.03-41.06-78.04-16.4-80.28,27.44-2.5,14.51,22.95,13.75,37.16-.75,14.21-.14,29,2.69,43.12h-.03Z"/>
  <path class="cls-5" d="M815.67,1163.26l-8.03-1.5c-4.11-11.25-1.94-23.3-2.35-34.96l10.39,36.5v-.03Z"/>
  <path class="cls-5" d="M588.76,495.67c13.47-13.99,37.04-6.27,11.7,7.34l-11.7-7.34Z"/>
  <path class="cls-5" d="M721.79,459.22l-9.15,7.9-9.11-6.62,18.26-1.28Z"/>
  <path class="cls-5" d="M575.71,500.95v10.39h-7.81c-1.01-6.24,1.25-11.07,7.81-10.39Z"/>
  <path class="cls-6" d="M312.25,1202.42c-4.35,10.29,16.95,22.61,7.81,29.92-13.51,10.82-53.85-5.95-46.93-27.31,63.27,4.35,39.8-41.96-2.48-53.57-32.32-8.91-64.3,5.14-34.07,36.64l28.71,16.88-10.55-1.25-2.46,9.06c-18.07,1.25-36.66,1.62-40.85-19.62l9.41-15.23c-1.82-6.1-31.14-9.86-28.1-33.52,4.35-33.91,70.52-33.57,84.35-4.62l3.97-1.22c8.05-13.81,13.07-13.86,28.15-10.02,45.86,11.62,71.8,83.77,3.06,73.83v.03Z"/>
  <path class="cls-1" d="M372.28,1327.55c6.54-57.49,17.68-117.98,13.11-176.11-5.1-65.03-80.9-105.32-109.69-32.48l-7.46-2.98c5.57-32.66,33.43-54.42,67.62-47.99,86.62,16.29,63.57,151.84,54.26,213.57-1.44,9.51-3.95,34.84-7.94,41.6-2.98,5.01-4.24,4.98-9.94,4.38h.03Z"/>
  <path class="cls-5" d="M299.21,1191.95c-13.89,5.22-68.57-6.46-62.44-27.09,4.64-15.65,65.82,6.4,62.44,27.09Z"/>
  <path class="cls-1" d="M312.24,1275.46c.59,4.75-5.58,2.27-8.4,1.89-23.12-3.14-46.18-11.39-69.85-9.71l.05,10.34c27.49,4.08,57.77,6.18,83.42,17.03-28.12,3.79-102.27,10.18-120-15.65-11.25-16.35,4.75-26.82,20.19-29.38,35.12-5.84,63.86,12.8,94.55,25.51l.03-.02Z"/>
  <path class="cls-1" d="M427.03,1280.6c17.44-30.12,54.33-42.96,80.86-63.88l-4.24-6.3c-7.79-2.34-40.39,20.53-48.76,26.37-8.59,6.02-16.85,12.61-23.97,20.37-3.71-2.99,2.05-9.18,3.97-11.68,10.1-13.06,29.57-30.24,45.09-35.75,42.98-15.22,66.01,3.49,25.06,35.49-22.07,17.22-52.04,25.55-78.02,35.38h.02Z"/>
  <path class="cls-2" d="M671.52,522.39c6.4-1.17,37.14-3.42,34.61,8.5-1.33,6.1-24.79-.22-34.04,2.53-10.45,3.14-22.39,23.28-27.22,22.26-15.44-3.28,12.9-30.74,26.64-33.28Z"/>
  <path class="cls-2" d="M800.05,443.55l2.38,19.28c-9.06,9.71-12.03-4.85-12.8-12.77-1.33-13.81-1.7-32.28,14.27-37.78,9.76,6.02-1.68,12.43-1.04,16.58l12.79,15.95c-5.73,7.86-9.84,2.4-15.6-1.26Z"/>
  <path class="cls-2" d="M733.5,474.9l5.46,7.89c-3.1,13.41-43.38,28.68-45.86,16.79-1.15-5.5,5.52-5.68,8.74-6.88,12.24-4.56,23.2-5.87,31.67-17.83v.03Z"/>
  <path class="cls-2" d="M608.37,520.07c1.65.19,6.42,5.09,6.43,5.62.14,6.32-26.67,14.51-28.61,5.17-1.2-5.66,20.1-11.04,22.19-10.79h-.02Z"/>
</svg>