<?xml version="1.0" encoding="UTF-8"?>
<svg id="Layer_1" data-name="Layer 1" xmlns="http://www.w3.org/2000/svg" viewBox="0 0 1500 1500">
  <defs>
    <style>
      .cls-1 {
        fill: #98bdb0;
      }

      .cls-2 {
        fill: #263c34;
      }

      .cls-3 {
        fill: #a59ed3;
      }

      .cls-4 {
        fill: #395e53;
      }

      .cls-5 {
        fill: #fdf9f3;
      }

      .cls-6 {
        fill: #bfde63;
      }
    </style>
  </defs>
  <path class="cls-2" d="M733.74,530c-3.39-.96-4.39-6.59-3.71-9.87,12.39-4.69,23.85-6,37.16-5,1.61-5.8-1.52-4.18-3.16-5.66-5.71-5.07-25.74-15.58-20.4-24.08,5.84-9.3,18.56,11.14,26.04,9.92l-4.84-15.85c12.67-13.4,13.1,11.37,22.17,15.85l11.21-29.72c14.89,2.39-1.71,25.88,1.23,29.72,4.44-2.36,28.72-26.38,32.2-13.58,2.57,9.46-22.24,23.7-28.15,28.81-2.27,1.98-6.28,3.09-1.64,5.87,1.5.91,31.66,10.73,33.41,10.8,5.16.18,20.08-4.71,22.42-9.6,6.57-13.78-1.41-72.07-5-89.19l-24.77-42.16c-1.25-.59-5.84,26.15-17.42,14.94l3.78-27.34c-.93-1.23-19.56,20.47-26.15,7.44-4.5-8.87,24.9-21.19,28.61-28.49l-37.14-22.33c1.96-16.19,28.52,5.03,29.72,3.75l-14.74-30.72,6.1-4.05c7.89.02,20.88,24.92,25.45,31.54,1.5,2.18-.41,4.57,5.5,3.23l11.14-39.68,11.17-2.43-9.89,42.12c1.8,1.82,27.25-12.73,29.86-3.37,2.96,10.57-12.37,12.1-19.31,17.53-2,1.57-4.55-.05-3.12,5.64l32.32,14.01-.09,8.32-14.87,1.23c8.76,15.33,21.83,25.47,26.52,42.89,3.48,12.92,5.12,34.97,5.8,48.73,1.09,22.08-1.48,44.44.41,66.52,21.65,25.47,53.53,39.73,78.8,61.22l-11.46-133.49c-4.46-21.2-32.77-32.22-35.41-53.87-2.5-20.38,10.44-42.64,12.17-62.95-7.14,2.62-9.32,19.99-18.53,17.33-12.51-3.59,12.42-28.75,8.64-32.18l-28.13,4.73-4.07-9.64,32.2-9.98-18.67-9.8,1.25-6.34,27.34,3.78c2.87-3.07-15.1-34.68-3.66-37.16,7.91-1.73,13.05,26.61,13.62,32.2,5.64,1.02,3.93-.32,5.5-3.16,3.12-5.66,9.76-35.59,19.44-22.9,5.25,6.89-8.98,26.58-7.62,35.98l30.59-5.12c10.69,14.51-16.58,17.05-25.63,21.24,3.73,5.37,46.98,20.04,35.7,28.61-7.66,5.82-22.6-7.44-30.72-10.01,2.96,16.12-5.07,35-1.93,50.26,1.27,6.12,19.81,37.8,25.42,36.48,8.44-19.94,51.21-84.76,48.39-102.68-.57-3.68-4.75-6.48-4.52-9.66.48-6.78,13.53-18.65,9.44-28.93-9.69,5.48-24.4,18.9-34.68,8.64,5.59-14.87,22.95-17.22,32.22-28.45l-34.75-6.16-2.43-11.19,42.14,2.43c-5.23-7.85-34.5-23.95-32.22-33.38,1.09-4.55,5.73-3.55,9.26-1.86,7.78,3.71,17.33,15.9,25.42,20.42.91-5.73-13.85-38.18,1.09-32.04,8.35,3.43,6.66,29.68,16.26,34.52-.27-7.57,22.85-51.74,32.25-42.12,5.05,9.85-22.7,48.46-19.79,52.03,7.14-3.64,38.8-16.94,43.51-10.07l1.2,8.44-44.73,17.72c5.41,6.69,35.68,32.38,34.43,39.32l-7.3,5.57-23.45-23.79c-8.14-.39-1.21,5.05-1.21,6.19v54.53c0,22.56-36.25,78.89-46.8,101.93-19.35,42.19-20.58,84.03-15.15,129.83,16.26-19.22,33.98-38.89,48.05-59.74,4.32-6.39,14.67-19.65,15.92-26.38,2.36-12.53-8.05-35.73-3.93-55.81,2.84-13.96,20.04-32.09,24.2-45.21,2.59-8.16-12.3,1.48-14.83-1.2-4.64-13.35,18.53-16.69,22.29-26.04,2.3-5.73-16.76-5.66-19.26-9.23l-.39-11.64,22.15,2.3-4.94-19.78c10.35-1.93,11.14,8.21,17.31,12.37-.98-9.8,1.34-28.45,12.53-18.17l-.09,28.08c42.23-14.94,57.03,5.82,7.44,14.92,4.02,8.53,32.81,12.73,29.72,23.49-3.5,12.12-29.93-11.05-32.2-8.64l4.75,28.13-3.93,3.75c-2.87.82-6.6-2.93-9.46.16-4.73,5.07-16.15,34.27-16.15,41.05v47.1l5.94,3.53,48.6-30.79-27.36-5,.09-8.62,32.25-.05-14.51-23.95,6.16-8.1,17.06,17.17,1.22-14.87,9.62.32,4,19.51c7.32-6.73,14.33-13.78,21.47-20.67,2.59-2.5,3.02-5.34,8.28-4.07,15.83,4.23-22.36,31.57-23.51,37.14,8.27,1.11,49.25-9.94,44.41,5.98-2.75,9.05-26.86,6.03-34.5,6.46,6.24,12.71,25.67,16.74,24.78,32.18-10.87,6.09-32.97-26.02-37.15-22.29l-3.67,39.73c-11.48,7.03-11.05-10.42-12.46-17.42l-161.09,173.52,1.2,200.69c22.88-7.76,42.69-26.79,66.88-33.5,89.16-24.72,145.08,59.36,195.76,116.69,5.73,6.48,20.96,10.94,5.79,20.42-87.8-3.68-175.4-8.37-263.52-6.94l1.05,91.99-180.36,7.55c-6.57,2.25-9.3,26.22-18.42,34.34-8.05,7.19-61.02,30.36-55.24,2.55l-33.04.18c-8.39,16.92-29.63,21.95-46.17,29.47,2.32,17.31,14.53,15.46,28.63,14.92,15.28-.59,62.47-9.23,73.07,1.07,10.6,10.3-13.28,22.06-20.72,26.52-25.2,15.12-52.69,27.65-78.5,41.73-.73,3.21,2.57,2.96,4.94,3.66,9.07,2.73,45.05,5.55,32.43,22.51-4.59,6.16-23.63,9.35-31.5,10.62-116.96,19.01-306.35,9.94-426.04-2.16-15.58-1.57-96.01-11.17-101.74-22.26-8.78-17.03,29.29-20.56,40.07-22.01,22.42-3.07,45.39-2.52,67.86-5.3-5.66-8.35-24.65-16.17-29.91-23.33-14.17-19.31,37.96-61.97,34.95-76.66-.34-1.66-4.34-1.23-4.93-3.34-11.14-39.82,11.28-82.23,39.21-109.09l-2.11-25.47-221.68,7.48-1.55-8.39c45.35-26.97,69.61-78.5,124.42-91.67,54.81-13.17,87.42,7.12,133.49,30.61.23-9.28-.66-18.58.66-27.86,1.46-10.39,8.28-19.58,9.39-27.79,1.8-13.37-1.21-30.72-.21-44.82,4.09-58.76,13.12-118.71,42.73-170.42,17.26-30.13,44.85-51.74,56.56-84.73-10.3-1.68-20.72,3.5-30.93,3.82-38.41,1.18-62.27-27.31-38.5-62.04-55.74-16.53-25.63-88.12,24.77-74.41-3.59-48.76,33.02-88.44,82.85-81.55,22.67,3.14,37.41,24.74,31.2,46.87,24.45-2.59,44.07,1.82,39.5,30.84-1.61,10.19-10.92,16.24-12.21,26.15,7.35,1.41,31.86,4.05,34.38,11.58,5.3,15.9-19.35,20.54-19.47,29.27,12.87,29.65,20.97,70.98-22.1,75.91,2.8,15.6-3.82,36.59-2.91,50.53.73,11.23,14.94,43.59,18.78,58.26,14.28,54.51,21.74,113.32,16.35,169.4,18.24,12.55,28.81,31.75,32,53.67,26.02-7.14,46.44-25.9,75.39-22.08,23.54,3.12,37.25,26.29,56.88,36.77,41.03-35.57,69.68-83.35,131.38-56.47l61.08,39.28,1.2-210.61c-47.33-45.19-84.21-114.41-153.62-126.46l6.05,18.35c-14.12,13.83-20.44-23.67-32.11-28.25v35.93c0,4.66-12.39,4.66-12.39,0v-35.93c-8.64,6.69-14.49,22.58-27.22,21.22-16.1-8.07,18.72-29.95,22.26-38.55h-35.95l-.14-.11ZM606.05,463.1l-33.32-9.87-3.87,4.87c22.45,1.23,19.31,19.92,2.5,28.54-15.69,8.05-53.26,17.33-49.6-11.19l-12.28,3.91,7.3,25.83-9.57-.32c-14.17-44.07-46.26-11.12-27.31,21.08,7,11.92,15.81,5.91,26.97,6.5,2.87,14.42-22.4,47.35-19.49,57.72,3.32,11.87,62.9,28.34,76.52,24.08-.61-7.03,1.66-15.74-1.3-22.26-4.09-9.01-44.21-35.07-43.21-40.66.43-2.39,5.05-6.03,8.07-6,9.94.14,27.75,10.1,42.5,9.51,19.38-.75,33.82-11.58,27.49-32.43l-26.99-.27-3-1.93-1.09-7.57,26.22-4.87c2.87-4.09-7.71-15.33-5.43-25.04,1.61-6.91,22.85-14.24,18.85-19.67l.02.05ZM551.52,470.51c-1.61-1.21-12.58,4.84-14.92,6.23-3.14,1.89-6.28-.5-4.89,6.14l19.92-1.14c3.78-1.48.34-10.92-.11-11.23ZM598.61,842.26c1.87-48.51-1.61-95.85-11.6-143.27-2.82-13.42-12.94-58.08-19.53-67.22-5.91-8.19-13.05-3.89-21.54-5.73-10.76-2.34-22.54-5.5-32.88-9.26-13.58-4.93-23.88-11.87-36.8-17.24-43.34,47.6-66.4,108.39-73.43,172.15-3.14,28.45-1.09,57.13-5,85.46l44.62-4.96c-7.26-24.67-22.26-46.28-24.77-73.14-4.16-44.91,18.17-98.88,41.59-136.79,1.89-3.07,3.82-5.96,6.75-8.14l5.8,5.73c-14.19,37.54-40.27,71.11-43.94,112.27-4.3,48.44,28.43,96.58,50.58,137.29l2.36,2.21c11.71-5.8,54.26-34.16,55.33-45.98-16.67-31.09-29.9-62.31-26.72-98.7.98-11.32,17.67-66.49,26.38-70.29,2.91-1.27,9.96-1.93,8.32,3.32-6.78,16.96-17.22,35.32-21.22,53.17-9.12,40.66,5.89,75.93,26.13,110.46l49.6-1.3-.05-.05ZM504.42,948.85c-5,43.32,26.15,64.72,59.11,83.44,1.91,23.63-5.1,47.39,12.69,66.63,7.64,8.28,18.76,10.55,25.63,19.15,1.43,13.46-2.52,24.99.36,39.14,1.91,9.37,12.53,29.77,23.74,26.13l120.21-63.43c4.46-22.04-5.8-54.08-22.33-69.41-7.85-7.28-36.77-18.69-38.12-24.04-1.48-5.84,13.01-26.4,14.35-36.91,3.55-27.88-17.49-49.62-43.73-54.97-7.28-1.48-18.63,1.73-23.22-4.05-3.75-26.95-1.84-63.29-31.04-77.62l-35.16,2.32c-18.56,33.68-44,69.29-81.03,83.76l-3.8-6.19,3.96-8.85-36.16-60.61c-4.18-2.57-51.76,4.69-55.81,8.66-11.76,11.6-1.68,40.91-3.93,47.94-1.39,4.32-27.52,20.06-32.52,37.07-5,17.01,1.91,40.27-3.57,53.26-1.59,3.75-6.03,3.98-8.21,6.73-20.42,25.63-37.98,55.44-27.31,89.26,13.99,6.57,72.91,54.12,82.85,53.35,24.79-1.93,17.97-46.21,23.99-55.58,3.66-5.69,25.97-15.74,34.45-27.52,15.58-21.63,5.39-45.85,8.57-50.83,1.23-1.91,15.55-8.85,19.9-12.44,26.7-22.06.39-34.97,6.28-64.38h9.89l-.05-.04ZM1300.21,973.61c-42.33-43.23-89.65-119.19-157.42-119.16-33.45,0-71.07,25.31-97.52,43.82l5.14,67.32,4.14,1.98,245.66,6.05ZM494.71,918.92c8.44,6.16,51.71-43.25,53.28-51.74.64-3.46-4.37-6.21-3.93-10.05l-55.94,44.6,6.6,17.19ZM968.03,961.24c1.98-1.98-1.8-45.5-4.84-50.96-6.19-11.07-57.92-43.05-71.34-47.64-59.29-20.31-97.4,55.24-141.18,83.35l-4.5.36-3.75-6.16c3.09-6.69,23.74-15.83,19.47-23.26-25.61-16.53-35.07-38.66-69.59-29.34-7.85,2.11-43.78,16.87-47.64,21.74-1.5,1.91-3.91,8.5-3.93,10.96,31.45,4.41,56.63,15.1,70.52,45.07,60.54-2.68,120.64-3.71,181.23-4.05,11.8-.07,22.65-.16,34.5,0,13.67.18,27.38-.36,41.03-.09l.05.02ZM368.06,921.63c-15.1-4.75-27.47-15.3-42.18-21.06-78.14-30.45-130.29,15.53-178.45,70.57,64.86,1.25,129.24-7.78,194.21-4.82,6.14-17.35,14.58-30.7,26.42-44.69ZM968,1035.58v-60.72c-2.18-3.55-4.93-3.41-8.55-3.84-38.3-4.5-80.76,2.05-119.03,2.71-42.62.73-85.39-2.16-127.76,2.39.57,17.37-6.78,32.41-14.9,47.03,18.38,5.55,26.11,18.62,47.1,12.42-11.01-13.39-1.84-24.35,13.62-24.42,12.92-.05,26.52,21.19,39.89,26.7,6.87,2.82,13.19,2.23,19.81,5.03,7.35.52,1.5-2.64-.61-4.39-8.53-7.03-16.15-10.26-6.6-22.81,22.4-3.8,40.66,14.1,61.77,17.24,8.89,1.32,24.86,2.3,34.41,2.8,20.15,1.05,40.68-.98,60.83-.09l.02-.02ZM511.81,1005.86h-4.87c.39,11.46-23.67,20.76-26.11,24.72-2.82,4.57-.5,27.9-5.73,41.37-10.35,26.63-30.68,25.88-39.89,39.59-3.59,5.34-1.75,22.83-3.73,30.79-3.89,15.58-23.9,35.38-41.05,27.06-13.65,29.72,20.72,42.75,43.34,49.6l219.39-2.5-14.8-26.18c-16.26,7.51-20.85,9.17-33.88-4.41-15.12-15.74-17.85-41.3-13.51-61.9-34.11-17.83-44.66-48.66-38.02-85.94-13.83-8.69-34.41-16.42-41.14-32.18v-.02ZM757.28,1062.87h-9.92l2.5,7.41,7.41-7.41ZM821.75,1072.79l-22.4-1.48-32.11,18.76c16.94-2.25,47.53.82,54.54-17.31l-.02.02ZM397.83,1216.49c-3.64-5.78-10.62-7.8-14.89-13.58-17.08-22.92-33.02-46.98-53.24-68.22-2.87-3-6.71-9.21-11.26-6.28-1.64,1.07-19.56,27.9-22.35,32.29-1.36,2.16-3.73,3.34-1.32,6.28,22.38,9.23,51.26,39.91,71.52,47.6,10.17,3.87,21.1,1.25,31.54,1.91ZM806.86,1166.98l-17.22,1.34-114.12,61.83c1.91,1.57,3.68,5,6.09,5.32,5.98.8,94.08-48.39,107.09-55.72,5.87-3.32,14.17-7.44,18.17-12.8l-.02.02ZM762.24,1169.44h-43.39c-1.34,0-11.83,5.34-16.1,6.21-17.4,3.59-34.66,7.82-52.08,11.14l18.85,32,92.72-49.37v.02ZM411.45,1228.91c-13.17.46-26.49,0-39.66,0-12.17,0-74.09-53.46-84.23-52.05-6.8.96-.77,6.73,1.16,8.71,7.89,8.05,52.03,39.91,61.97,44.62,23.06,10.96,47.32.93,71.93,3.66-.68-12.1-7.85-5.05-11.14-4.94h-.02Z"/>
  <path class="cls-2" d="M1250.13,654.64c27.42-2.09,60.71,17.6,71.14,43.91,31.11,78.57-85.31,146.91-138.59,81.55-44.07-54.08,7.3-120.89,67.45-125.46ZM1240.06,666.92c-13.14,2-36.36,16.76-45.28,26.61-57.83,63.97,40.55,145.39,102.99,73.23,41.91-48.44.42-108.7-57.71-99.83Z"/>
  <path class="cls-2" d="M722.58,710.93v49.58c12.67-8.5,22.45-27.04,39.66-24.77,5.12,11.35-35.39,30.59-32.2,34.66,7.55,3.82,53.96,12.01,52.03,21.06-.87,4.09-7.05,3.75-10.51,3.27-6.91-.93-40.14-15.65-44-11.89l12.37,38.3c-13.35,12.21-15.87-25.38-24.74-30.86-3.66,7.03-8.87,44.23-18.58,42.09-8.55-1.87,1.41-27.13,3.68-32.18-4.03-3.37-18.22,16.35-22.31,18.56-3.64,1.96-8.26,3.3-7.48-2.48,1.75-12.78,25.81-26.74,32.27-38.39-8.64.11-17.35-.27-25.99,0-6.14.18-14.49,6.71-16.12-3.71,11.53-9.94,28.25-5.21,42.12-6.25,2.75-2.41-22.81-31.45-17.33-37.16,7.21-7.5,20.65,26.86,27.27,27.24v-43.37c0-2.62,7.03-4.73,9.92-3.71h-.05Z"/>
  <path class="cls-2" d="M1379.54,648.96c1.16,6.28-1.37,7.39-5.11,10.98-4.28,4.09-38.62,24.7-41.96,21.22-.39-.41-.43-7.62.51-9.39.97-1.77,31.09-18.56,35.24-20.51,4.13-1.96,6.74-3.12,11.32-2.3Z"/>
  <path class="cls-2" d="M1209.75,594.45c7.93-1.7,13.41,33.23,13.46,38.77.06,11.94-8.44,10.42-11.63-1-1.51-5.43-8.2-36.39-1.83-37.77Z"/>
  <path class="cls-2" d="M1176.25,807.58c4.68,4.5-25.18,34.38-29.72,29.72-4.16-9.83,23.95-35.25,29.72-29.72Z"/>
  <path class="cls-2" d="M1330.23,626.95l5.89-.27,3.46,5.82-20.78,28.81-5.18-7.53,16.61-26.83Z"/>
  <path class="cls-2" d="M1258.08,834.85v37.18l-7.58-1.09c-3.46-2.52-7.19-42.03,7.58-36.07v-.02Z"/>
  <path class="cls-2" d="M1144.02,750.59l-1.09,7.57c-2.73,3.73-30.72,4.43-33.59-1.41-1.32-4.89,5.89-5.5,8.87-5.91,8.41-1.14,17.33.25,25.79-.23l.02-.02Z"/>
  <path class="cls-2" d="M1331.19,787.82l22.37,17.24c8.86,17.51-38.5-5.73-22.37-17.24Z"/>
  <path class="cls-2" d="M1173.24,632.18c1.11.61,15.62,19.15,12.92,21.74-16.28,5.64-32.07-32.25-12.92-21.74Z"/>
  <path class="cls-2" d="M1344.83,775.33c-1-12.99,7.91-11.12,14.85-3.66-1.38,9.42-8.73,5.23-14.85,3.66Z"/>
  <path class="cls-3" d="M504.42,948.85h-9.89c-5.89,29.4,20.42,42.32-6.28,64.38-4.34,3.59-18.67,10.51-19.9,12.44-3.16,4.98,7.03,29.18-8.57,50.83-8.48,11.78-30.79,21.81-34.45,27.52-6.03,9.35.8,53.65-23.99,55.58-9.92.77-68.84-46.78-82.85-53.35-10.64-33.82,6.91-63.61,27.31-89.26,2.18-2.73,6.62-2.98,8.21-6.73,5.48-12.96-1.3-36.73,3.57-53.26,4.87-16.53,31.13-32.72,32.52-37.07,2.25-7.03-7.82-36.32,3.93-47.94,4.03-3.98,51.62-11.23,55.81-8.67l36.16,60.61-3.96,8.85,3.8,6.19c37.02-14.46,62.45-50.05,81.03-83.76l35.16-2.32c29.2,14.33,27.29,50.67,31.04,77.62,4.57,5.8,15.94,2.57,23.22,4.05,26.24,5.37,47.28,27.08,43.73,54.96-1.34,10.51-15.83,31.06-14.35,36.91,1.34,5.34,30.27,16.78,38.11,24.04,16.53,15.35,26.79,47.37,22.33,69.41l-120.21,63.42c-11.21,3.64-21.83-16.76-23.74-26.13-2.89-14.15,1.07-25.68-.36-39.14-6.87-8.6-17.97-10.87-25.63-19.15-17.76-19.24-10.78-43-12.69-66.63-32.97-18.72-64.11-40.12-59.1-83.44l.05.05Z"/>
  <path class="cls-6" d="M598.61,842.26l-49.6,1.3c-20.24-34.52-35.23-69.77-26.13-110.45,4-17.85,14.44-36.21,21.22-53.17,1.64-5.28-5.41-4.59-8.32-3.32-8.71,3.82-25.38,58.99-26.38,70.29-3.16,36.39,10.05,67.61,26.72,98.7-1.07,11.82-43.62,40.18-55.33,45.98l-2.36-2.21c-22.17-40.71-54.9-88.85-50.58-137.29,3.66-41.16,29.77-74.75,43.94-112.27l-5.8-5.73c-2.93,2.18-4.84,5.09-6.75,8.14-23.4,37.91-45.76,91.87-41.59,136.79,2.5,26.86,17.49,48.46,24.77,73.14l-44.62,4.96c3.91-28.34,1.86-57.01,5-85.46,7.05-63.77,30.09-124.55,73.43-172.15,12.92,5.37,23.22,12.33,36.8,17.24,10.35,3.75,22.13,6.91,32.88,9.26,8.48,1.84,15.62-2.46,21.54,5.73,6.59,9.14,16.71,53.81,19.53,67.22,9.96,47.42,13.46,94.76,11.6,143.27l.05.05Z"/>
  <path class="cls-1" d="M968.03,961.24c-13.65-.27-27.36.27-41.03.09-11.85-.16-22.7-.07-34.5,0-60.58.32-120.69,1.36-181.23,4.05-13.89-29.97-39.07-40.66-70.52-45.07,0-2.43,2.41-9.05,3.93-10.96,3.87-4.89,39.82-19.62,47.64-21.74,34.52-9.32,44,12.8,69.59,29.34,4.27,7.44-16.37,16.58-19.47,23.26l3.75,6.16,4.5-.36c43.78-28.11,81.89-103.66,141.18-83.35,13.42,4.59,65.16,36.57,71.34,47.64,3.05,5.44,6.82,48.99,4.84,50.96l-.04-.02Z"/>
  <path class="cls-1" d="M1300.21,973.61l-245.66-6.05-4.14-1.98-5.14-67.31c26.45-18.51,64.06-43.8,97.52-43.82,67.74,0,115.09,75.93,157.42,119.16Z"/>
  <path class="cls-1" d="M368.06,921.63c-11.83,13.98-20.26,27.33-26.42,44.69-64.95-2.96-129.35,6.07-194.21,4.82,48.17-55.03,100.31-101.02,178.45-70.57,14.71,5.73,27.08,16.31,42.18,21.06Z"/>
  <path class="cls-5" d="M606.05,463.1c3.98,5.41-17.24,12.73-18.85,19.67-2.27,9.71,8.3,20.94,5.43,25.04l-26.22,4.87,1.09,7.57,3,1.93,26.99.27c6.32,20.83-8.12,31.66-27.49,32.43-14.76.57-32.54-9.37-42.5-9.51-3.03-.05-7.64,3.59-8.07,6-1,5.57,39.12,31.66,43.21,40.66,2.96,6.53.68,15.26,1.3,22.26-13.65,4.27-73.23-12.19-76.53-24.08-2.89-10.37,22.38-43.3,19.49-57.72-11.16-.61-19.97,5.41-26.97-6.5-18.97-32.2,13.14-65.15,27.31-21.08l9.57.32-7.3-25.83,12.28-3.91c-3.66,28.52,33.91,19.24,49.6,11.19,16.81-8.62,19.97-27.31-2.5-28.54l3.87-4.87,33.32,9.87-.02-.05ZM488.34,490.34c-4,.84-2.91,5.32-3.05,7.96-.52,11.21,1.57,21.17,12.9,26.72,10.51-6.03-1.48-36.45-9.85-34.68Z"/>
  <path class="cls-4" d="M397.83,1216.49c-10.44-.66-21.38,1.96-31.54-1.91-20.26-7.69-49.14-38.37-71.52-47.6-2.43-2.93-.07-4.12,1.32-6.28,2.8-4.39,20.69-31.22,22.35-32.29,4.53-2.93,8.39,3.25,11.26,6.28,20.22,21.22,36.16,45.28,53.24,68.22,4.3,5.78,11.26,7.8,14.89,13.58Z"/>
  <path class="cls-4" d="M762.24,1169.44l-92.72,49.37-18.85-32c17.42-3.32,34.7-7.55,52.08-11.14,4.27-.89,14.76-6.21,16.1-6.21h43.39v-.02Z"/>
  <path class="cls-5" d="M806.86,1166.98c-3.98,5.34-12.28,9.48-18.17,12.8-12.98,7.32-101.09,56.49-107.09,55.72-2.41-.32-4.18-3.75-6.09-5.32l114.12-61.83,17.22-1.34.02-.02Z"/>
  <path class="cls-5" d="M411.45,1228.91c3.3-.11,10.46-7.16,11.14,4.93-24.61-2.73-48.85,7.3-71.93-3.66-9.92-4.73-54.08-36.57-61.97-44.62-1.93-1.98-7.96-7.76-1.16-8.71,10.14-1.41,72.07,52.06,84.23,52.06,13.19,0,26.49.46,39.66,0h.02Z"/>
  <path class="cls-5" d="M494.71,918.92l-6.6-17.19,55.94-44.6c-.43,3.84,4.57,6.59,3.93,10.05-1.57,8.46-44.82,57.9-53.28,51.74Z"/>
  <path class="cls-5" d="M551.52,470.51c.45.34,3.89,9.78.11,11.23l-19.92,1.14c-1.39-6.64,1.75-4.25,4.89-6.14,2.32-1.41,13.3-7.46,14.92-6.23Z"/>
  <path class="cls-2" d="M1314.77,1152.41c3.07,28.43,1.93,56.76,2.7,85.28.27,9.85,8.09,40.14-1.61,45.26-10.71,5.66-38.17,2.07-51.56,2.98-105.34,7.14-209.2,5.19-314.97,9.78-11.89.52-28.38,5.09-39.68,5.19-18.26.11-1.39-17.1,3.91-23.61,34.09-41.87,89.69-94.97,147.39-93.01,44.64,1.52,88.81,37.91,130.58,13.99,15.69-8.98,26.9-25.18,42-34.84,22.32-14.3,56.29-20.06,81.29-11.05l-.05.05ZM1305.17,1159.5c-16.65-.14-32.89-1.05-48.88,4.46-33.13,11.39-48.85,51.1-89,54.81-30.84,2.84-65.13-19.19-96.42-22.04-66.34-5.98-111.34,45.71-149.93,91.65l385.28-14.58-1.03-114.3h-.02Z"/>
  <path class="cls-2" d="M1176.27,1080.2c3.57.73,2.59-2.8,3.23-5.34,3.18-12.82,6.3-60.54,28.32-49.85,10,4.84,14.84,30.95,15.62,41.5,2.17,29.65-7.09,66.09-18.08,93.65-6.18,15.53-5.6,23.67-25.67,23.9-30.52.34-81.37-35.68-96.24-61.86-19.81-34.84,16.87-38.34,42.46-22.61,6.82,4.21,10.35,11.73,18.1,12.85-1.89-14.58-20.69-83.89-.75-88.9,16.24-4.07,31.45,44.16,33.02,56.67v-.02ZM1089.47,1102.54c-7.32,7.48,31.97,44.07,38.87,49.12,11.55,8.5,47.19,26.95,60.33,19.03,7.26-4.37,20.63-59.01,22-69.7,1.99-15.65,2.77-47.89-4.94-61.4-6.3-11.05-10.08,12.26-10.92,15.81-6.57,28.18-2.41,52.87-6.32,77.93-1.39,8.91-7.5,17.19-12.23,5.1-6.85-17.56-7.41-48.71-14.19-70.09-3.16-9.96-7.89-21.92-14.35-30.27-10.12,16.72,17.83,96.49,12.48,104.16-6.89,9.87-18.92-13.78-23.58-18.72-12.78-13.55-27.58-24.13-47.16-20.99l.02.02Z"/>
  <path class="cls-6" d="M1305.17,1159.5l1.03,114.3-385.29,14.58c38.59-45.94,83.6-97.63,149.94-91.65,31.29,2.82,65.61,24.88,96.42,22.04,40.18-3.71,55.88-43.41,89.01-54.81,15.99-5.5,32.23-4.6,48.88-4.46h.02Z"/>
  <path class="cls-4" d="M1089.46,1102.53c19.58-3.12,34.39,7.44,47.17,20.99,4.66,4.94,16.69,28.61,23.58,18.72,5.34-7.66-22.61-87.44-12.48-104.15,6.46,8.35,11.19,20.28,14.35,30.27,6.78,21.38,7.35,52.53,14.19,70.09,4.71,12.1,10.83,3.82,12.23-5.09,3.91-25.06-.25-49.78,6.32-77.94.84-3.57,4.61-26.86,10.91-15.81,7.7,13.49,6.93,45.73,4.94,61.4-1.37,10.71-14.74,65.34-21.99,69.7-13.17,7.91-48.78-10.53-60.33-19.03-6.89-5.07-46.19-41.66-38.87-49.12l-.02-.02Z"/>
  <path class="cls-2" d="M292.81,650.55c-5.12,5.96-27.02,17.76-28.38,24.77.59,10.69,19.01,39.52,6.96,46.78-16.08,7.37-34-15.76-48.23-13.74-7.91,1.11-22.92,24.17-35.34,24.36l-5.89-3c-7.87-10.82,4.03-31.84,2.37-44.41-79.75-49.26-6.96-35.98,10.16-52.51,5.8-5.57,6.57-30.5,11.71-40.27,1.46-2.77.23-3,4.41-3.32,16.47-1.18,21.92,30.56,30.97,41.16,6.96,4.25,80.39-13.74,51.21,20.17l.05.02ZM283.78,639.07l-45.46,7.19-22.67-41.89c-5.87,2.5-4.53,29.74-12.28,37.3-8.28,8.05-30.59,8.12-41,13.51,9.51,11.85,27.11,14.03,33.7,28.47l-3.96,34.75c8.82-4.96,21.63-21.35,31.2-22.31,13.1-1.3,27.06,15.03,40.66,14.85-2.09-14.33-13.85-27.84-9.37-42.84,2.11-7.12,34.07-24.7,29.2-29l-.02-.02Z"/>
  <path class="cls-6" d="M283.78,639.07c4.87,4.3-27.08,21.88-29.2,29-4.46,15.01,7.28,28.52,9.37,42.84-13.6.18-27.56-16.15-40.66-14.85-9.57.96-22.38,17.35-31.2,22.31l3.96-34.75c-6.6-14.44-24.2-16.62-33.7-28.47,10.42-5.37,32.72-5.43,41-13.51,7.76-7.55,6.41-34.77,12.28-37.3l22.67,41.89,45.46-7.19.02.02Z"/>
  <path class="cls-6" d="M1240.06,666.93c58.13-8.89,99.62,51.39,57.71,99.83-62.44,72.16-160.82-9.25-102.99-73.23,8.88-9.85,32.14-24.58,45.28-26.61Z"/>
  <path class="cls-2" d="M488.34,490.34c8.37-1.77,20.35,28.65,9.85,34.68-11.33-5.55-13.39-15.49-12.89-26.72.11-2.62-.96-7.1,3.05-7.96Z"/>
</svg>