<?xml version="1.0" encoding="utf-8"?>
<!-- Generator: Adobe Illustrator 19.2.1, SVG Export Plug-In . SVG Version: 6.00 Build 0)  -->
<svg version="1.1" id="layer" xmlns="http://www.w3.org/2000/svg" xmlns:xlink="http://www.w3.org/1999/xlink" x="0px" y="0px"
	 viewBox="0 0 652 652" style="enable-background:new 0 0 652 652;" xml:space="preserve">
<style type="text/css">
	.st0{fill:#3B76B8;}
</style>
<g>
	<path class="st0" d="M80.5,265l40.3,29.3l0.4-3l0.8-2.7l-0.4-0.2c-0.8-0.4-2.2-1.2-4.2-2.4c-1.7-1-3-1.8-4-2.5l-6.9-4.6l3.2-15.1
		l8.3-1.6c1-0.2,2.6-0.4,4.6-0.7c1.6-0.2,3.2-0.4,4.9-0.6l0.4,0l0.5-3.6l1.1-4L81,262.9L80.5,265z M105.8,264.4l-2.6,12.2l-12.9-9.1
		L105.8,264.4z"/>
	<path class="st0" d="M127.8,221.5c-2.3-1-4.6-1.2-6.6-0.6c-1.6,0.4-3.3,1.4-5,3c-2.1,2.1-4.2,4.2-6.3,6.2c-1.6,1.3-3,2.2-4.4,2.5
		c-1.3,0.3-2.8,0.2-4.4-0.5c-1.8-0.7-3-2-3.7-3.8c-0.7-1.8-0.6-3.7,0.2-5.8c0.7-1.7,1.8-3,3.3-3.8c1.2-0.7,2.6-1,4.4-1h0l0.3,0
		l0.5-1.3l-0.3-0.2c-0.4-0.3-1.1-0.9-2.2-1.8c-0.8-0.6-1.4-1.2-1.9-1.7l-0.3-0.3l-0.3,0.2c-1.3,0.6-2.5,1.6-3.7,2.9
		c-1.2,1.3-2.2,2.9-2.9,4.7c-1.5,3.6-1.9,7.1-1,10.3c1,3.7,3.4,6.4,7.2,7.9c2.7,1.1,5.2,1.3,7.6,0.5c1.5-0.5,3.2-1.5,4.9-3
		c0.9-0.8,1.9-1.8,3.2-3.1c1.3-1.3,2.2-2.2,2.9-2.8c1.4-1.3,2.9-2.1,4.2-2.4c1.3-0.3,2.8-0.2,4.4,0.5c2.2,0.9,3.8,2.4,4.7,4.5
		c1,2.1,1,4.3,0,6.6c-0.8,2-2,3.5-3.6,4.6c-1.6,1.1-3.6,1.8-6.1,2.1l-0.3,0l-0.5,1.2l0.4,0.2c0.7,0.4,1.5,0.9,2.4,1.5
		c0.9,0.6,1.7,1.1,2.3,1.6l0.2,0.2l0.3-0.1c1.6-0.6,3.1-1.8,4.5-3.5c1.4-1.6,2.4-3.4,3.2-5.1c1.7-4.1,1.9-8.1,0.7-11.9
		C134.8,226.1,132,223.2,127.8,221.5"/>
	<path class="st0" d="M132.5,202.2c1.3-2.1,2.3-4.6,3-7.5c0.7-2.9,0.8-5.4,0.3-7.6c-0.3-1.4-1-2.7-1.8-3.9c-0.9-1.2-2.2-2.3-3.9-3.4
		c-3.6-2.2-6.9-2.5-9.8-1c-2.5,1.4-5.3,4.5-8.4,9.6l-6.2,10.1l37.9,23.4l1.5-2.8l2-2.8l-17-10.5L132.5,202.2z M112,194.7l2.1-3.4
		c1.4-2.3,2.7-4,3.6-5c0.9-0.9,2-1.5,3.3-1.9c1.8-0.4,3.8,0,5.9,1.3c1.2,0.8,2.2,1.7,2.9,2.6c0.7,1,1.2,2.1,1.5,3.3
		c0.4,1.5,0.3,3-0.1,4.6c-0.5,1.6-1.3,3.4-2.4,5.3l-1.6,2.4L112,194.7z"/>
	<polygon class="st0" points="129.7,163.4 127.5,165.9 162.3,193.7 164.1,191 166.4,188.6 131.6,160.7 	"/>
	<path class="st0" d="M185.8,157l-17.5-2.5c1.6-2.4,2.8-4.8,3.3-7.1c1-4.1,0-7.8-2.8-10.8c-2.4-2.6-5.3-3.5-8.4-2.8
		c-2.7,0.6-5.6,2.5-8.8,5.5l-10.3,9.9l30.8,32.2l2.2-2.5l2.5-2.1l-14.7-15.4l1.2-1.2c2.4,0.2,4.7,0.5,6.8,0.7
		c1.3,0.1,3.5,0.5,6.7,0.9c3.2,0.5,5.4,0.8,6.6,1c1.8,0.3,4,0.7,6.4,1.2l0.3,0l2.6-2.8l3.6-3.1l-4.5-0.6
		C188.4,157.4,186.4,157.1,185.8,157 M159.7,138.9l0.2,0.5c1.6,0,3.2,0.9,4.8,2.6c1.6,1.7,2.4,3.6,2.3,5.9c0,1.7-0.5,3.2-1.2,4.5
		c-0.8,1.3-2.1,2.9-3.9,4.6l-2.2,2l-11.4-11.9l3.6-3.7c1.6-1.5,3-2.6,4.2-3.2c1.1-0.6,2.4-0.9,3.6-0.9L159.7,138.9L159.7,138.9z"/>
	<path class="st0" d="M216.2,139.1l-0.5,0.5c-2.3,2.2-6.8,5.6-13.4,10.1l-9.9-14.5l7.7-5.2c0.3-0.2,1-0.6,2.2-1.3
		c1.2-0.7,2.1-1.2,2.8-1.6l0.5-0.3l-1.4-1.7l-1-2l-0.5,0.3c-0.2,0.1-0.8,0.6-1.9,1.4c-1,0.8-1.9,1.4-2.5,1.8l-8,5.4l-8.4-12.4
		l3.1-2.1c2.8-1.9,4.9-3.3,6.5-4.2c1.6-0.9,3.1-1.7,4.4-2.3l0.6-0.3l-1.6-1.9l-1.1-2.1l-19.6,13.3l24.9,36.7l19.9-13.5l-1.6-1.9
		L216.2,139.1z"/>
	<path class="st0" d="M250.9,125.2c-0.8,0.5-1.3,0.9-1.5,1c-0.2,0.1-0.5,0.3-0.8,0.4c-1.4,0.6-2.6,0.5-3.6-0.2c-1-0.8-2.1-2.4-3-4.7
		l-6.9-16.8l6.3-2.6l-0.8-1.5l-0.5-1.7l-6.3,2.6l-3.2-7.9l-4.7,4.5l2.3,5.7l-3.7,1.5l0.8,1.4l0.5,1.7l3.7-1.5l7.2,17.8
		c1.2,2.8,2.6,4.8,4.2,5.8c0.8,0.5,1.7,0.7,2.8,0.7c1.1,0,2.4-0.3,3.7-0.8c0.8-0.3,1.6-0.8,2.5-1.5c0.9-0.7,1.6-1.2,2.1-1.7l0.2-0.2
		l-0.9-2.3L250.9,125.2z"/>
	<path class="st0" d="M272,94.1c-3.4-2.2-7.4-2.7-12-1.5c-3.1,0.8-5.8,2.4-8,4.5c-2.2,2.2-3.6,4.7-4.2,7.5c-0.3,1.5-0.4,2.9-0.3,4
		c0.1,1.2,0.4,2.8,1,5c1.1,4.1,3.5,7.2,7,9.1c2.2,1.2,4.7,1.9,7.2,1.9c1.5,0,3.1-0.2,4.7-0.6c4.6-1.2,8-3.7,10.1-7.4
		c2.2-3.7,2.6-8,1.4-12.6C277.6,99.6,275.3,96.3,272,94.1 M272.6,114.8c-0.9,3.5-2.7,5.5-5.6,6.3c-0.9,0.2-1.7,0.4-2.5,0.4
		c-1.9,0-3.7-0.7-5.3-2c-2.1-1.8-3.6-4.5-4.6-8c-1.1-4-1.2-7.4-0.2-10.1c1-3,3-4.9,6.3-5.7c0.7-0.2,1.5-0.3,2.2-0.3
		c2,0,3.8,0.8,5.5,2.5c1.9,1.9,3.3,4.5,4.1,7.8C273.3,108.7,273.3,111.8,272.6,114.8"/>
	<path class="st0" d="M330,111.4l-0.6,0.1c-3.1,0.6-8.8,1-16.8,1.1L312.3,95l9.3-0.2c0.4,0,1.2,0,2.5,0.1c1.3,0.1,2.4,0.1,3.2,0.1
		l0.5,0l-0.3-2.2l0.2-2.2l-0.6,0c-0.2,0-1,0.1-2.3,0.2c-1.3,0.1-2.3,0.2-3.1,0.2l-9.6,0.2l-0.2-15l3.7-0.1c3.3,0,5.9,0,7.7,0.1
		c1.8,0.1,3.5,0.3,5,0.5l0.6,0.1l-0.3-2.5L329,72l-23.6,0.4l0.7,44.3l24-0.4l-0.3-2.4L330,111.4z"/>
	<path class="st0" d="M358.7,96.2c2-1.7,4.3-3.7,6.9-5.8l1-0.8l-3.4-0.2l-2.4-0.6l-0.2,0.2c-1.3,1.4-2.7,2.8-4,4.1
		c-2.4,2.5-4.4,4.5-5.9,5.9c-1.1-1.9-2.1-3.7-2.9-5.3c-1.2-2.2-2.3-4.6-3.2-7l-0.1-0.3l-3.5-0.3l-4.2-0.9l9.6,17.5l-13.2,12.7
		l-0.2,1.2l2.4,0.1l2.2,0.5l0.2-0.2c2.4-2.8,4.5-5.1,6.1-6.8c0.8-0.9,2.3-2.4,4.3-4.4c1.4,2.5,2.5,4.7,3.5,6.7
		c0.9,1.9,2,4.2,3.2,6.9l0.1,0.3l3.2,0.2l3.5,0.7l0.1-1.5l-9.3-17.3C354.4,100,356.5,98.1,358.7,96.2"/>
	<path class="st0" d="M396.1,100.5c-1.4-1.5-2.8-2.7-4.2-3.5c-1.4-0.8-3-1.4-4.9-2c-4.6-1.4-8.8-1.2-12.5,0.5
		c-4,1.8-6.8,5.2-8.2,10.1c-1.3,4.6-1,8.8,1,12.5c2,3.7,5.6,6.4,10.6,7.8c1.6,0.5,3.1,0.7,4.6,0.7c0.3,0,0.5,0,0.8,0
		c1.8-0.1,3.5-0.4,5-1l1.5-3.3l-0.8-0.7l-0.3,0.1c-1.9,0.9-3.3,1.4-4.2,1.6c-1.7,0.4-3.3,0.3-4.9-0.1c-3.3-1-5.6-2.9-6.8-5.9
		c-1.2-3-1.3-6.4-0.2-10.1c1.1-3.6,2.9-6.3,5.3-8c2.5-1.7,5.2-2.1,8.3-1.2c1.2,0.4,2.5,1.1,3.6,2.1c0.5,0.5,0.9,1.1,1.3,1.8
		c0.4,0.8,0.7,1.6,1.1,2.4l0.1,0.2l1.1,0.3l3-4.2L396.1,100.5z"/>
	<path class="st0" d="M410.9,134.3c-1.5,0-3-0.3-4.3-0.9c-3.1-1.4-5-3.5-5.8-6.2c-0.8-2.7-0.5-5.6,0.9-8.7l0.4-0.7l8.4,3.9l5.1,2.5
		c1.8,0.9,3.7,1.8,5.8,2.8l0.4,0.2l1-2c1.7-3.6,2.1-7.2,1.1-10.5c-1-3.6-3.5-6.4-7.3-8.2c-4.3-2-8.4-2.1-12.2-0.4
		c-3.5,1.6-6.2,4.5-8.1,8.6c-2.1,4.6-2.5,9-1,12.9c1.4,3.7,4.2,6.5,8.3,8.4c1.7,0.8,3.6,1.3,5.7,1.5c0.7,0.1,1.4,0.1,2.1,0.1
		c1.3,0,2.6-0.1,3.9-0.4l0.2,0l2.1-4.3l-1.1,0.4C414.6,133.9,412.9,134.3,410.9,134.3 M403.5,114.8c1.1-2.1,2.6-3.8,4.5-5
		c2.4-1.6,4.9-1.7,7.5-0.5c2.4,1.1,3.6,2.7,3.9,5c0.3,2-0.2,4.4-1.5,7.2L403.5,114.8z"/>
	<polygon class="st0" points="448,104.3 445.5,102.5 420,144.2 422.7,145.5 425.2,147.4 450.6,105.7 	"/>
	<polygon class="st0" points="463.4,114.6 461,112.6 432.5,152.2 435.1,153.8 437.4,155.8 465.9,116.1 	"/>
	<path class="st0" d="M466,170.9c-1.7,0-3.3-0.2-4.7-0.6c-1.6-0.5-3-1.2-4.2-2.3c-2.5-2.3-3.7-4.8-3.7-7.6c0-2.8,1.2-5.5,3.5-8
		l0.6-0.6l6.9,6.2l4.1,3.9c1.4,1.4,3,2.8,4.7,4.4l0.4,0.3l1.6-1.6c2.7-3,4.1-6.2,4.2-9.7c0.1-3.8-1.4-7.1-4.6-10
		c-3.5-3.2-7.4-4.6-11.5-4.1c-3.8,0.5-7.3,2.4-10.4,5.8c-3.4,3.8-5.1,7.8-4.8,12c0.2,3.9,2,7.5,5.4,10.5c1.4,1.3,3.1,2.3,5,3.1
		c1.9,0.8,3.8,1.3,5.8,1.6l0.2,0l3.3-3.4L466,170.9z M459.7,149.3c1.7-1.7,3.6-2.9,5.8-3.4c2.8-0.8,5.2-0.2,7.3,1.7
		c1.9,1.7,2.7,3.7,2.3,6c-0.3,2-1.5,4.1-3.6,6.5L459.7,149.3z"/>
	<path class="st0" d="M503.4,182.6c0.7-2.8-0.1-5.7-2.5-8.7c-1.6-2-3.5-3.4-5.7-4c-1.4-0.4-2.9-0.6-4.4-0.6l3.6-2.9l-2-2.2l-1.7-2.6
		l-24.6,19.6l2,2.2l1.8,2.6l11.9-9.4c3.5-2.8,6.4-4.3,8.6-4.5c2.2-0.2,4.1,0.8,5.9,3c1.5,1.8,1.9,3.6,1.3,5.3
		c-0.6,1.8-2.2,3.7-4.7,5.8l-14,11.2l2,2.2l1.8,2.6l15-12C500.9,187.5,502.8,185,503.4,182.6"/>
	<path class="st0" d="M504.2,225.2l-0.3-0.1c-1.9-0.7-3.3-1.2-4.1-1.7c-1.5-0.9-2.6-2.1-3.5-3.5c-1.7-3-1.9-6-0.7-9
		c1.2-3,3.5-5.5,6.8-7.4c3.3-1.9,6.4-2.5,9.4-2c3,0.5,5.2,2.1,6.7,4.9c0.6,1.1,1,2.5,1.1,4.1c0,0.7-0.1,1.4-0.3,2.2
		c-0.2,0.8-0.6,1.7-1,2.5l-0.1,0.2l0.6,1l5.1-0.9l0-0.4c0.1-2.1-0.1-3.9-0.6-5.4c-0.5-1.5-1.2-3.1-2.1-4.9c-2.4-4.2-5.5-7-9.3-8.4
		c-4.2-1.5-8.5-1-13,1.5c-4.2,2.4-6.9,5.6-8,9.7c-1.2,4.1-0.4,8.4,2.1,13c0.9,1.7,2.1,3.1,3.4,4.3c1.3,1.2,2.8,2.1,4.3,2.8l0.2,0.1
		l3.2-1.4L504.2,225.2z"/>
	<path class="st0" d="M515.7,252.8c-1.7-0.8-3.2-1.8-4.4-2.9c-1.2-1.1-2.1-2.4-2.7-3.9c-1.2-3.2-1.2-6,0.1-8.5
		c1.3-2.5,3.6-4.4,6.7-5.6l0.8-0.3l3.3,8.7l1.9,5.4c0.6,1.9,1.4,3.9,2.2,6l0.2,0.4l2.2-0.7c3.7-1.4,6.5-3.7,8.2-6.8
		c1.8-3.3,1.9-7,0.4-11c-1.7-4.4-4.5-7.4-8.5-8.8c-3.6-1.3-7.6-1.1-11.9,0.5c-4.8,1.8-8.1,4.7-9.7,8.5c-1.6,3.6-1.5,7.6,0.1,11.8
		c0.7,1.8,1.7,3.5,3,5c1.3,1.5,2.8,2.9,4.5,4l0.2,0.1l4.4-1.6L515.7,252.8z M519.4,230.5c2.2-0.8,4.5-0.9,6.7-0.5
		c2.9,0.6,4.7,2.2,5.8,4.8c0.9,2.4,0.7,4.5-0.7,6.3c-1.2,1.6-3.2,3-6.1,4.2L519.4,230.5z"/>
	<path class="st0" d="M539.2,267.2l-19,3.5l0.5,1.6l0.1,1.8l8.8-1.6l0.1,0.4c-1.5,2-2.7,3.5-3.5,4.5c-1.2,1.5-2.4,2.9-3.7,4.2
		l-0.2,0.2l0.5,1.7l0.3,2.8l7.8-9.6c0.6,1.4,1.4,2.5,2.4,3.3c1.2,0.9,2.5,1.3,3.9,1c1.5-0.3,2.5-1,3.1-2.3c0.6-1.2,0.6-2.9,0.2-5.1
		L539.2,267.2z M537.4,271l0.6,3.3c0.2,1,0.1,1.8-0.2,2.3c-0.3,0.5-0.9,0.9-1.7,1c-0.9,0.2-1.7,0-2.3-0.6c-0.7-0.6-1.1-1.4-1.3-2.4
		l-0.5-2.6L537.4,271z"/>
	<path class="st0" d="M548.1,272.5c-0.9-4.7-3.3-8.5-7.2-11.3c-3.9-2.8-8.3-3.7-13-2.9c-4.7,0.9-8.5,3.3-11.3,7.3
		c-2.7,4-3.7,8.4-2.8,13.2c0.9,4.6,3.2,8.3,7,11c3,2.1,6.3,3.2,9.8,3.2c1.1,0,2.3-0.1,3.5-0.3c4.8-0.9,8.5-3.3,11.2-7.3
		C548,281.5,549,277.2,548.1,272.5 M542.4,283.4c-2.2,3.1-5.3,5.1-9,5.8c-0.9,0.2-1.8,0.3-2.7,0.3c-2.7,0-5.3-0.8-7.7-2.4
		c-3.2-2.1-5.2-5.1-5.9-8.8c-0.7-3.7,0.1-7.3,2.4-10.4c2.3-3.2,5.3-5.1,9-5.8c0.9-0.2,1.8-0.2,2.6-0.2c2.7,0,5.3,0.8,7.8,2.5
		c3.2,2.1,5.2,5.1,5.9,8.9C545.5,276.8,544.7,280.3,542.4,283.4"/>
	<path class="st0" d="M235.2,336.6c-2.9,4.5-7,8.2-12.4,11.2c-5.4,2.9-11.4,4.4-17.9,4.4c-6-0.1-11.8-1.7-17.1-4.7
		c-5.1-3-9.1-7.1-12-12c-2.9-5-4.3-10.6-4.3-16.6c0.1-5.5,1.5-10.8,4.1-15.7c2.6-4.9,6.3-8.9,11.2-11.9c4.8-3.1,10.4-4.9,16.8-5.3
		c7.2,0,13.3,1.4,18.7,4.2c5.3,2.8,9.5,6.8,12.6,12l0.3,0.5h15.5l-0.5-1.4c-3.9-9.7-10.2-17.1-18.6-22c-8.4-4.8-17.8-7.2-28-7.2
		c-5.6,0.2-11.2,1.4-16.5,3.6c-5.4,2.1-10.3,5.2-14.8,9.2c-4.4,4-7.9,8.9-10.6,14.7c-2.7,5.8-4.1,12.5-4.1,19.4l0,2.2l0.1-0.1
		c0.3,6.2,1.6,11.8,3.9,16.6c2.7,5.7,6.3,10.7,11,14.8c4.6,4.1,9.7,7.4,15.4,9.7c5.6,2.2,11.5,3.3,17.6,3.3
		c19.9,0,34.9-9.4,44.6-28.1l0.8-1.4h-15.3L235.2,336.6z"/>
	<path class="st0" d="M339.7,289c-7.2-10.8-18.4-16.5-33.4-16.9c-5.9,0-11.6,1.1-17.4,3.3c-5.8,2.2-10.8,5.3-15.4,9.5
		c-4.5,4.1-8.2,9.2-10.9,15.1c-2.7,5.9-4.1,12.5-4.2,19.6c0,6.7,1.3,13,3.8,18.7c2.5,5.6,6,10.5,10.5,14.5c4.4,4.1,9.5,7.2,15.1,9.4
		c5.5,2.2,11.4,3.3,17.6,3.4h0c8.1,0,15.4-1.7,21.6-5.1c5.3-2.7,9.6-6.5,12.8-11.1v14.4h13.6v-89.4h-13.6V289z M335.2,335.2
		c-3,5.1-7.1,9.2-12.3,12.2c-5.2,3.1-11.1,4.7-17.6,4.7c-5.6-0.1-10.9-1.6-16-4.5c-5.1-2.9-9-6.9-12.2-12.3
		c-3.1-5.3-4.6-11.5-4.6-18.5c0-4.3,1.5-9,4.4-13.9c2.9-4.8,7-8.9,12.3-12.1c5.2-3.2,11.2-4.9,17.7-4.9c6,0.3,11.6,2,16.5,5
		c5.1,3.1,9.1,7.2,11.9,12.1c2.9,5.1,4.3,10.5,4.3,16.5C339.7,325.1,338.2,330.3,335.2,335.2"/>
	<path class="st0" d="M377.4,285.4V275h-13.1v89.8H378v-54.9c0-3.1,0.7-6.1,2.2-8.9c1.4-2.8,3.3-5.1,5.7-7.2
		c2.5-2.1,5.1-3.7,7.9-4.8c2.9-1.2,5.6-1.7,8.2-1.7h1V273h-1C390.8,273,382.6,277.2,377.4,285.4"/>
	<path class="st0" d="M318.8,133.8c-101.7,0-184.4,82.7-184.4,184.4c0,101.7,82.7,184.4,184.4,184.4c101.7,0,184.4-82.7,184.4-184.4
		C503.1,216.5,420.4,133.8,318.8,133.8 M318.8,494.6c-97.3,0-176.4-79.1-176.4-176.4c0-97.3,79.2-176.4,176.4-176.4
		c81.9,0,151,56.1,170.7,131.9h-45.2c0.4-6,2.5-10.7,5.7-12.8c3.9-2.6,9.1-3.9,15.4-3.9h1v-13.2h-1c-22.3,0-33.9,10.1-34.7,29.9
		h-20.3v13.8h0.6h19.7v76.4h13.9v-76.4h44.9h3c1.8,10,2.7,20.2,2.7,30.7C495.2,415.4,416,494.6,318.8,494.6"/>
	<polygon class="st0" points="500.3,467.3 497.1,446 476.2,440.8 495.4,431.1 493.9,409.6 509.1,424.9 529,416.9 519.1,436 
		533,452.5 511.7,449 	"/>
	<polygon class="st0" points="420.6,533.1 427.4,512.7 411.1,498.6 432.7,498.7 441.1,478.9 447.6,499.4 469.1,501.2 451.5,513.8 
		456.4,534.8 439.1,522 	"/>
	<polygon class="st0" points="322.4,572 315,551.8 293.4,550.9 310.3,537.6 304.5,516.8 322.4,528.8 340.4,516.8 334.5,537.6 
		351.4,550.9 329.9,551.8 	"/>
	<polygon class="st0" points="222.4,533 203.9,522 186.6,534.8 191.4,513.8 173.8,501.4 195.3,499.4 201.7,478.8 210.2,498.6 
		231.7,498.4 215.5,512.6 	"/>
	<polygon class="st0" points="137.5,467.1 127,448.3 105.6,450.8 120.2,435 111.2,415.4 130.8,424.4 146.6,409.8 144.1,431.2 
		162.9,441.8 141.7,446 	"/>
	<polygon class="st0" points="547.6,371.7 535.4,354 514.3,358.5 527.3,341.4 516.5,322.8 536.8,329.9 551.2,313.8 550.7,335.4 
		570.5,344 549.8,350.3 	"/>
	<polygon class="st0" points="94.7,370.3 90.8,349.2 69.8,344.6 88.7,334.4 86.5,312.9 102.1,327.8 121.8,319.1 112.5,338.5 
		126.9,354.6 105.5,351.7 	"/>
	<path class="st0" d="M204.1,395.5c2.1,5.8,5.4,13.7,6.4,16.2c1,2.2,1.4,2.3,3.2,2.9c0.9,0.4,1.2,0.9,1.2,1.4c0,0.4-0.6,0.6-1.3,0.6
		c-1.5,0-4.1-0.2-6-0.2c-1.8,0-2.5,0.2-3.9,0.2c-1,0-1.4-0.4-1.4-0.7c0-0.4,0.4-1,1.2-1.2c1.5-0.6,1.6-1.2,1.3-2.2
		c-0.3-1-0.7-2-1.2-3.2c0-0.2-0.4-0.6-1-0.6c-0.7-0.1-5.6-0.1-6.6,0c-0.2,0-0.6,0.4-0.6,0.6c-0.4,1.1-1,3.1-1,3.7
		c0,0.6,0.4,1.2,1.9,1.7c0.5,0.2,1,0.4,1,0.9c0,0.2-0.5,0.9-1.5,0.9c-0.4,0-1.6-0.1-2.8-0.1c-1.4,0-2.8,0.2-4.4,0.2
		c-0.8,0-1.4-0.3-1.4-0.8c0-0.4,0.3-0.8,1.2-1.1c1.6-0.6,2.4-0.9,3.4-3c1.1-2.3,4.3-10.5,6.6-16.4c0.1-0.2,0.2-0.5,0.2-0.9
		c0-0.1,0.2-0.4,0.4-0.5c0.5-0.3,2-1.4,2.5-1.7c0.2-0.2,0.8-0.4,1-0.4C202.9,391.6,203.1,392.8,204.1,395.5 M202.5,405.7
		c-0.6-1.9-2.4-6.6-2.7-7.2c-0.2-0.2-0.4-0.2-0.5,0c-0.7,1.6-2.2,5.9-2.6,7.2c0,0.2,0.1,0.5,0.4,0.5c0.6,0,4.5,0,5.2,0
		C202.3,406.1,202.5,405.8,202.5,405.7"/>
	<path class="st0" d="M235.4,392.3c1,0.3,2.3,0.7,2.7,0.7c0.2,0,0.7,0.5,0.7,0.7c0,1.2,0.3,3.3,0.3,4.3c0,1.1-0.6,1.7-1.2,1.7
		c-0.4,0-0.6-0.4-0.8-1.2c-0.5-1.6-0.9-2.7-2.4-3.7c-1.2-0.8-2.7-1.4-4.4-1.4c-1.8,0-4.1,1-5.4,2.5c-1.9,2-2.8,5.2-2.8,7.7
		c0,2.9,1,5.8,2.2,7.4c1.6,2.2,4.5,3.7,6.9,3.7c1,0,2.9-0.6,3.8-1.1c0.4-0.2,1.2-1.1,2.1-2.5c0.7-1.2,1.1-1.7,1.5-1.7
		c0.7,0,0.8,0.7,0.8,1.5c0,0.4-0.8,3-0.8,3.7c0,0.2-0.4,0.7-0.6,0.8c-1.4,0.6-4.9,1.5-7.5,1.5c-4.4,0-8.9-1.3-11.6-4.3
		c-1.8-1.9-3.1-4.7-3.1-8.2c0-4.3,1.9-7.9,5.4-10.4c1.8-1.2,5.2-2.5,9.5-2.5C232.5,391.6,234.3,392,235.4,392.3"/>
	<path class="st0" d="M263.2,392.3c1,0.3,2.3,0.7,2.7,0.7c0.2,0,0.7,0.5,0.7,0.7c0,1.2,0.3,3.3,0.3,4.3c0,1.1-0.6,1.7-1.1,1.7
		c-0.4,0-0.6-0.4-0.8-1.2c-0.5-1.6-0.9-2.7-2.4-3.7c-1.2-0.8-2.7-1.4-4.4-1.4c-1.8,0-4.1,1-5.4,2.5c-1.9,2-2.8,5.2-2.8,7.7
		c0,2.9,1,5.8,2.2,7.4c1.6,2.2,4.5,3.7,6.9,3.7c1,0,2.9-0.6,3.8-1.1c0.4-0.2,1.2-1.1,2.1-2.5c0.7-1.2,1.1-1.7,1.5-1.7
		c0.7,0,0.8,0.7,0.8,1.5c0,0.4-0.8,3-0.8,3.7c0,0.2-0.4,0.7-0.6,0.8c-1.4,0.6-4.9,1.5-7.5,1.5c-4.4,0-8.9-1.3-11.6-4.3
		c-1.8-1.9-3.1-4.7-3.1-8.2c0-4.3,1.9-7.9,5.4-10.4c1.8-1.2,5.2-2.5,9.5-2.5C260.3,391.6,262.1,392,263.2,392.3"/>
	<path class="st0" d="M289.4,402.7c-0.5,0.4-1.5,0.9-2.1,1.3c-0.2,0.1,0,0.7,0,1c0.8,1.5,2.9,5,4.6,7c1.5,1.9,2.7,2.5,4.1,3
		c0.4,0.1,0.8,0.5,0.8,0.8c0,0.9-1.4,1.2-2.3,1.2c-2.7,0-5.6-0.3-8.4-4c-1.4-1.9-2.9-4.3-3.9-5.8c-0.7-1.1-1.4-1.3-2.3-1.3
		c-0.3,0-0.4,0.4-0.4,0.6c0,3.2,0,4.5,0.2,5.9c0.1,1.4,0.6,1.6,2.2,2.3c0.7,0.3,1.1,0.7,1.1,1c0,0.5-0.8,0.9-1.5,0.9
		c-1,0-3.7-0.2-5.1-0.2c-1.2,0-2.7,0.2-4.2,0.2c-1,0-1.5-0.4-1.5-0.8c0-0.5,0.5-0.8,1.3-1.1c1.6-0.5,2-0.8,2.1-2.7
		c0-1.4,0-2.3,0-9.5c0-4.9-0.1-5.6-0.2-6.4c-0.1-0.8-0.5-1.5-2-1.7c-0.7-0.2-1.2-0.7-1.2-1c0-0.6,0.8-0.9,1.7-0.9c2,0,2.8,0,3.3,0
		c2.3,0,4.3-0.2,6.7-0.2c3.5,0,5.2,0.8,6.2,1.5c1.8,1.4,2.5,3,2.5,5C291.2,400.1,290.5,401.8,289.4,402.7 M280.9,394.1
		c-0.2,0-1,0.2-1.2,0.3c-0.2,0.1-0.3,0.4-0.3,0.7c0,1.5,0.1,5.4,0.1,7.8c0,0.2,0.2,0.5,0.3,0.6c0.7,0.2,1.3,0.4,2,0.4
		c0.8,0,2.5-0.8,2.9-1.2c0.4-0.3,1.2-1.7,1.2-3.5C285.9,396.6,284.2,394.1,280.9,394.1"/>
	<path class="st0" d="M311.6,392.4c3.6,0,4.4,0,5.3-0.2c0.4,0,0.7,0.1,0.9,0.4c0.2,0.4,0.6,3.3,0.6,4.2c0,0.8-0.4,1.2-0.7,1.2
		c-0.6,0-1-0.5-1.6-1.8c-0.7-1.5-1.3-1.7-1.5-1.7c-2.3,0-4.8,0.1-5.3,0.1c-0.2,0-0.5,0.4-0.5,0.6c-0.1,0.9-0.2,4-0.2,6.7
		c0,0.5,0.2,1,0.4,1.1c0.4,0.1,1.9,0.1,2.5,0c2.1-0.1,2.6-0.7,3.1-1.7c0.2-0.7,0.6-1.1,1-1.1c0.6,0,0.9,0.6,0.8,1.7
		c0,0.5-0.1,1.4-0.1,2.2c0,0.9,0,1.9,0.1,2.5c0.1,1.1-0.5,1.5-0.8,1.5c-0.3,0-0.8-0.4-1.1-1.2c-0.4-1-0.6-1.3-1.4-1.4
		c-1.6-0.1-2.1-0.2-3.9-0.2c-0.2,0-0.5,0.6-0.5,1.4c0,1.9,0.1,3.9,0.2,4.8c0.1,1.1,0.3,1.7,0.4,1.8c0.4,0.5,2,1,4.3,1
		c1,0,1.9-0.1,2.8-0.6c0.8-0.4,1.3-0.9,2.2-2.1c0.7-1,1-1.8,1.6-1.8c0.7,0,0.9,1.1,0.7,1.9c-0.2,1.1-1.2,3.6-1.4,3.9
		c-0.1,0.4-1,0.8-1.2,0.8c-0.9,0-2.3-0.2-9.6-0.2c-2.5,0-6.7,0.2-8.4,0.2c-0.9,0-1.4-0.3-1.4-0.5c0-0.5,0.4-1,1.2-1.2
		c2.7-0.7,2.9-1.4,3-2.4c0.1-1.6,0.2-2.5,0.2-7.3c0-6.1-0.1-8.3-0.2-9.1c-0.2-1.2-0.8-1.6-2.4-2c-0.9-0.2-1.1-0.7-1.1-1
		c0-0.5,0.7-0.8,1.2-0.8c0.7,0,4.3,0.2,6.9,0.2H311.6z"/>
	<path class="st0" d="M346.5,395.4c3.3,2.8,4,6.4,4,8.8c0,6.1-4,9.3-6.1,10.5c-2.8,1.5-5.9,1.9-8.9,1.9c-1.6,0-5.7-0.3-7-0.3
		c-1.3,0-3.3,0-4.8,0.2c-0.3,0-0.6-0.2-0.6-0.5c0-0.4,0.5-1.2,1.5-1.5c1.2-0.3,2.1-0.4,2.4-2.1c0.2-1.6,0.3-3.7,0.3-8.9
		c0-5.4,0-6.6-0.2-7.7c-0.1-0.4-0.2-1.1-2.2-1.4c-1-0.2-1.5-0.6-1.5-1.1c0-0.6,0.6-0.8,1.8-0.8l2.9,0c1.4,0,5-0.3,7.7-0.3
		C339.7,392.1,343.6,392.9,346.5,395.4 M333.6,394.5c-0.2,0-0.6,0.7-0.6,0.9c-0.1,1.2-0.2,3.4-0.2,6.4v2.8c0,5.1,0.1,5.8,0.3,7
		c0.1,1.1,0.7,1.9,1.1,2.3c0.5,0.3,2.1,1,2.8,1c0.6,0,3.2-0.7,5-2.4c1.8-1.7,2.7-4.9,2.7-7.8s-0.8-5.8-2.8-7.8
		c-1.8-1.8-4.2-2.6-6-2.6C335.5,394.1,333.9,394.3,333.6,394.5"/>
	<path class="st0" d="M357,398.3c0-3.4-0.2-3.8-2.4-4.3c-0.7-0.2-1-0.6-1-1c0-0.5,0.8-0.8,1.3-0.8c0.7,0,2.9,0.2,4.6,0.2
		c2.4,0,4-0.1,5.2-0.1c0.6,0,1.1,0.3,1.1,0.8c0,0.4-0.6,0.8-1,0.8c-2.1,0.5-2.2,1-2.3,3c-0.1,1.7-0.2,5.4-0.2,8.2
		c0,4.3,0.1,6.1,0.1,6.6c0.1,1.9,0.4,2.5,2.5,3.1c0.8,0.2,1.2,0.6,1.2,1c0,0.5-0.9,0.7-1.4,0.7c-0.4,0-3.9-0.1-5.3-0.1
		c-1.4,0-4.1,0.2-4.8,0.2c-0.5,0-1.3-0.2-1.3-0.7c0-0.4,0.6-0.9,1.1-1c1.7-0.6,2-1,2.1-2.1c0.1-0.8,0.2-3.2,0.2-6.5V398.3z"/>
	<path class="st0" d="M389.1,392.4c2.2,0,3.1-0.2,3.3-0.5c0.5-0.5,0.8-0.8,1.1-0.8c0.2,0,1.1,0.6,1.1,1.1c0,0.3-0.5,2.7-0.5,5.4
		c0,0.7-0.5,1.5-1.2,1.5c-0.5,0-0.8-0.8-0.9-1.2c-0.6-2.6-1.3-2.8-2.6-2.9c-0.6-0.1-1.3-0.2-4.6-0.2c-0.2,0-0.4,0.3-0.4,0.7
		c-0.1,0.7-0.3,5.9-0.3,8.4c0,2.4,0,5.4,0.1,7.1c0.2,2.9,0.9,3,2.6,3.6c0.7,0.3,1.4,0.6,1.4,1c0,0.7-0.8,1-1.6,1
		c-0.4,0-4.3-0.2-6.7-0.2c-1.5,0-3.3,0.1-4.4,0.1c-0.8,0-1.5-0.4-1.5-1c0-0.3,0.4-0.8,1.3-1c2.5-0.7,3.2-1.1,3.2-3.4
		c0-0.8,0.1-5.8,0.1-9.5v-6c0-0.4-0.3-0.8-0.4-0.8c-1,0-3.4,0-4.2,0c-1,0-2,0.2-3.1,3c-0.2,0.7-0.7,1.2-1.1,1.2c-0.6,0-1-0.7-1-1.6
		c0-1.2,0.4-3,0.4-5.1c0-0.6,0.6-1.1,1-1.1c0.1,0,0.5,0.2,0.8,0.4c0.7,0.5,1.2,0.8,2.4,0.8c1.6,0.1,1.8,0.1,3,0.1H389.1z"/>
	<path class="st0" d="M410.2,392.4c3.6,0,4.4,0,5.3-0.2c0.4,0,0.7,0.1,0.9,0.4c0.2,0.4,0.6,3.3,0.6,4.2c0,0.8-0.4,1.2-0.7,1.2
		c-0.6,0-1-0.5-1.6-1.8c-0.7-1.5-1.3-1.7-1.5-1.7c-2.3,0-4.8,0.1-5.3,0.1c-0.2,0-0.5,0.4-0.5,0.6c-0.1,0.9-0.2,4-0.2,6.7
		c0,0.5,0.2,1,0.4,1.1c0.4,0.1,1.9,0.1,2.5,0c2.1-0.1,2.6-0.7,3.1-1.7c0.2-0.7,0.6-1.1,1-1.1c0.6,0,0.9,0.6,0.8,1.7
		c0,0.5-0.1,1.4-0.1,2.2c0,0.9,0,1.9,0.1,2.5c0.1,1.1-0.5,1.5-0.8,1.5c-0.3,0-0.8-0.4-1.1-1.2c-0.4-1-0.6-1.3-1.4-1.4
		c-1.6-0.1-2.1-0.2-3.9-0.2c-0.2,0-0.5,0.6-0.5,1.4c0,1.9,0.1,3.9,0.2,4.8c0.1,1.1,0.3,1.7,0.4,1.8c0.4,0.5,2,1,4.3,1
		c1,0,1.9-0.1,2.8-0.6c0.8-0.4,1.4-0.9,2.2-2.1c0.7-1,1-1.8,1.6-1.8c0.7,0,0.9,1.1,0.7,1.9c-0.2,1.1-1.2,3.6-1.4,3.9
		c-0.1,0.4-1,0.8-1.2,0.8c-0.9,0-2.3-0.2-9.6-0.2c-2.5,0-6.7,0.2-8.4,0.2c-0.9,0-1.4-0.3-1.4-0.5c0-0.5,0.4-1,1.2-1.2
		c2.7-0.7,2.9-1.4,3-2.4c0.1-1.6,0.2-2.5,0.2-7.3c0-6.1-0.1-8.3-0.2-9.1c-0.2-1.2-0.8-1.6-2.4-2c-0.9-0.2-1.2-0.7-1.2-1
		c0-0.5,0.7-0.8,1.2-0.8c0.7,0,4.3,0.2,6.9,0.2H410.2z"/>
	<path class="st0" d="M445.1,395.4c3.3,2.8,4.1,6.4,4.1,8.8c0,6.1-4,9.3-6.1,10.5c-2.8,1.5-5.9,1.9-8.9,1.9c-1.6,0-5.7-0.3-7-0.3
		c-1.3,0-3.3,0-4.8,0.2c-0.3,0-0.6-0.2-0.6-0.5c0-0.4,0.6-1.2,1.6-1.5c1.2-0.3,2.1-0.4,2.4-2.1c0.2-1.6,0.3-3.7,0.3-8.9
		c0-5.4,0-6.6-0.2-7.7c-0.1-0.4-0.2-1.1-2.2-1.4c-1-0.2-1.5-0.6-1.5-1.1c0-0.6,0.6-0.8,1.7-0.8l2.9,0c1.4,0,5-0.3,7.7-0.3
		C438.3,392.1,442.1,392.9,445.1,395.4 M432.1,394.5c-0.2,0-0.6,0.7-0.6,0.9c-0.1,1.2-0.2,3.4-0.2,6.4v2.8c0,5.1,0.1,5.8,0.3,7
		c0.1,1.1,0.7,1.9,1.1,2.3c0.5,0.3,2.1,1,2.8,1c0.6,0,3.2-0.7,5-2.4c1.8-1.7,2.7-4.9,2.7-7.8s-0.8-5.8-2.8-7.8
		c-1.8-1.8-4.2-2.6-6-2.6C434,394.1,432.5,394.3,432.1,394.5"/>
</g>
</svg>
