<svg width="753" height="449" viewBox="0 0 753 449" fill="none" xmlns="http://www.w3.org/2000/svg">
<path d="M130.217 21.1511C136.056 21.1511 140.789 16.4163 140.789 10.5755C140.789 4.73483 136.056 0 130.217 0C124.378 0 119.645 4.73483 119.645 10.5755C119.645 16.4163 124.378 21.1511 130.217 21.1511Z" fill="#1E3C33"/>
<path d="M334.416 21.1511C340.255 21.1511 344.988 16.4163 344.988 10.5755C344.988 4.73483 340.255 0 334.416 0C328.577 0 323.844 4.73483 323.844 10.5755C323.844 16.4163 328.577 21.1511 334.416 21.1511Z" fill="#1E3C33"/>
<path d="M538.424 21.1511C544.263 21.1511 548.996 16.4163 548.996 10.5755C548.996 4.73483 544.263 0 538.424 0C532.585 0 527.852 4.73483 527.852 10.5755C527.852 16.4163 532.585 21.1511 538.424 21.1511Z" fill="#1E3C33"/>
<path d="M742.428 21.1511C748.267 21.1511 753 16.4163 753 10.5755C753 4.73483 748.267 0 742.428 0C736.589 0 731.855 4.73483 731.855 10.5755C731.855 16.4163 736.589 21.1511 742.428 21.1511Z" fill="#1E3C33"/>
<path d="M130.217 228.941C136.056 228.941 140.789 224.206 140.789 218.366C140.789 212.525 136.056 207.79 130.217 207.79C124.378 207.79 119.645 212.525 119.645 218.366C119.645 224.206 124.378 228.941 130.217 228.941Z" fill="#1E3C33"/>
<path d="M334.416 228.941C340.255 228.941 344.988 224.206 344.988 218.366C344.988 212.525 340.255 207.79 334.416 207.79C328.577 207.79 323.844 212.525 323.844 218.366C323.844 224.206 328.577 228.941 334.416 228.941Z" fill="#1E3C33"/>
<path d="M538.424 228.941C544.263 228.941 548.996 224.206 548.996 218.366C548.996 212.525 544.263 207.79 538.424 207.79C532.585 207.79 527.852 212.525 527.852 218.366C527.852 224.206 532.585 228.941 538.424 228.941Z" fill="#1E3C33"/>
<path d="M742.428 228.941C748.267 228.941 753 224.206 753 218.366C753 212.525 748.267 207.79 742.428 207.79C736.589 207.79 731.855 212.525 731.855 218.366C731.855 224.206 736.589 228.941 742.428 228.941Z" fill="#1E3C33"/>
<path d="M130.217 436.926C136.056 436.926 140.789 432.192 140.789 426.351C140.789 420.51 136.056 415.775 130.217 415.775C124.378 415.775 119.645 420.51 119.645 426.351C119.645 432.192 124.378 436.926 130.217 436.926Z" fill="#1E3C33"/>
<path d="M334.416 436.926C340.255 436.926 344.988 432.192 344.988 426.351C344.988 420.51 340.255 415.775 334.416 415.775C328.577 415.775 323.844 420.51 323.844 426.351C323.844 432.192 328.577 436.926 334.416 436.926Z" fill="#1E3C33"/>
<path d="M538.424 436.926C544.263 436.926 548.996 432.192 548.996 426.351C548.996 420.51 544.263 415.775 538.424 415.775C532.585 415.775 527.852 420.51 527.852 426.351C527.852 432.192 532.585 436.926 538.424 436.926Z" fill="#1E3C33"/>
<path d="M742.428 436.926C748.267 436.926 753 432.192 753 426.351C753 420.51 748.267 415.775 742.428 415.775C736.589 415.775 731.855 420.51 731.855 426.351C731.855 432.192 736.589 436.926 742.428 436.926Z" fill="#1E3C33"/>
</svg>
