<svg width="255" height="251" viewBox="0 0 255 251" fill="none" xmlns="http://www.w3.org/2000/svg">
<path d="M198.881 72.8483C196.639 82.5366 178.998 108.635 181.58 117.294C188.518 128.938 226.112 150.474 216.848 165.689C203.136 183.394 169.454 167.967 154.671 178.595C146.447 184.492 143.145 219.173 129.322 226.667L120.952 226.757C105.769 219.232 106.777 188.675 97.5317 175.541C-20.8605 167.101 68.6041 139.265 78.1097 110.664C81.3448 101.009 67.5801 72.5927 67.6054 58.6048C67.6095 54.6378 66.0981 55.1037 70.6057 52.29C88.383 41.2975 113.144 73.7095 129.519 80.2851C139.823 80.9707 211.645 17.6808 198.817 72.8495L198.881 72.8483ZM182.011 65.2644L135.228 100.014L85.1999 66.33C80.086 72.5809 97.5854 102.358 93.3178 115.381C88.757 129.272 63.7685 142.445 55.2475 154.607C72.8676 162.318 93.8964 154.434 109.773 166.763L125.733 208.07C132.722 197.328 137.46 171.417 147.64 164.725C161.575 155.581 186.826 165.702 201.976 157.514C191.218 142.669 170.097 134.417 166.312 114.948C164.506 105.721 190.033 67.2415 182.05 65.2765L182.011 65.2644Z" fill="#1E3D34"/>
<path d="M182.011 65.2684C189.994 67.2333 164.468 105.713 166.273 114.94C170.084 134.395 191.179 142.661 201.937 157.506C186.787 165.694 161.536 155.573 147.602 164.717C137.421 171.409 132.683 197.32 125.694 208.062L109.734 166.755C93.8577 154.426 72.8289 162.31 55.2088 154.598C63.7431 142.463 88.7317 129.289 93.2791 115.372C97.5467 102.35 80.0607 72.5983 85.1612 66.3219L135.19 100.006L181.972 65.2562L182.011 65.2684Z" fill="#B8E04A"/>
</svg>
