<svg width="2674" height="2516" viewBox="0 0 2674 2516" fill="none" xmlns="http://www.w3.org/2000/svg">
<path d="M10.5723 21.1511C16.4112 21.1511 21.1445 16.4163 21.1445 10.5755C21.1445 4.73483 16.4112 0 10.5723 0C4.73336 0 0 4.73483 0 10.5755C0 16.4163 4.73336 21.1511 10.5723 21.1511Z" fill="#1E3C33"/>
<path d="M214.576 21.1511C220.415 21.1511 225.148 16.4163 225.148 10.5755C225.148 4.73483 220.415 0 214.576 0C208.737 0 204.004 4.73483 204.004 10.5755C204.004 16.4163 208.737 21.1511 214.576 21.1511Z" fill="#1E3C33"/>
<path d="M418.584 21.1511C424.423 21.1511 429.156 16.4163 429.156 10.5755C429.156 4.73483 424.423 0 418.584 0C412.745 0 408.012 4.73483 408.012 10.5755C408.012 16.4163 412.745 21.1511 418.584 21.1511Z" fill="#1E3C33"/>
<path d="M622.783 21.1511C628.622 21.1511 633.355 16.4163 633.355 10.5755C633.355 4.73483 628.622 0 622.783 0C616.944 0 612.211 4.73483 612.211 10.5755C612.211 16.4163 616.944 21.1511 622.783 21.1511Z" fill="#1E3C33"/>
<path d="M826.791 21.1511C832.63 21.1511 837.363 16.4163 837.363 10.5755C837.363 4.73483 832.63 0 826.791 0C820.952 0 816.219 4.73483 816.219 10.5755C816.219 16.4163 820.952 21.1511 826.791 21.1511Z" fill="#1E3C33"/>
<path d="M1030.79 21.1511C1036.63 21.1511 1041.37 16.4163 1041.37 10.5755C1041.37 4.73483 1036.63 0 1030.79 0C1024.96 0 1020.22 4.73483 1020.22 10.5755C1020.22 16.4163 1024.96 21.1511 1030.79 21.1511Z" fill="#1E3C33"/>
<path d="M1235 21.1511C1240.84 21.1511 1245.57 16.4163 1245.57 10.5755C1245.57 4.73483 1240.84 0 1235 0C1229.16 0 1224.43 4.73483 1224.43 10.5755C1224.43 16.4163 1229.16 21.1511 1235 21.1511Z" fill="#1E3C33"/>
<path d="M1439 21.1511C1444.84 21.1511 1449.57 16.4163 1449.57 10.5755C1449.57 4.73483 1444.84 0 1439 0C1433.16 0 1428.43 4.73483 1428.43 10.5755C1428.43 16.4163 1433.16 21.1511 1439 21.1511Z" fill="#1E3C33"/>
<path d="M1643.01 21.1511C1648.85 21.1511 1653.58 16.4163 1653.58 10.5755C1653.58 4.73483 1648.85 0 1643.01 0C1637.17 0 1632.44 4.73483 1632.44 10.5755C1632.44 16.4163 1637.17 21.1511 1643.01 21.1511Z" fill="#1E3C33"/>
<path d="M1847.21 21.1511C1853.05 21.1511 1857.78 16.4163 1857.78 10.5755C1857.78 4.73483 1853.05 0 1847.21 0C1841.37 0 1836.64 4.73483 1836.64 10.5755C1836.64 16.4163 1841.37 21.1511 1847.21 21.1511Z" fill="#1E3C33"/>
<path d="M2051.22 21.1511C2057.06 21.1511 2061.79 16.4163 2061.79 10.5755C2061.79 4.73483 2057.06 0 2051.22 0C2045.38 0 2040.64 4.73483 2040.64 10.5755C2040.64 16.4163 2045.38 21.1511 2051.22 21.1511Z" fill="#1E3C33"/>
<path d="M2255.42 21.1511C2261.25 21.1511 2265.99 16.4163 2265.99 10.5755C2265.99 4.73483 2261.25 0 2255.42 0C2249.58 0 2244.84 4.73483 2244.84 10.5755C2244.84 16.4163 2249.58 21.1511 2255.42 21.1511Z" fill="#1E3C33"/>
<path d="M2459.42 21.1511C2465.26 21.1511 2470 16.4163 2470 10.5755C2470 4.73483 2465.26 0 2459.42 0C2453.58 0 2448.85 4.73483 2448.85 10.5755C2448.85 16.4163 2453.58 21.1511 2459.42 21.1511Z" fill="#1E3C33"/>
<path d="M2663.43 21.1511C2669.27 21.1511 2674 16.4163 2674 10.5755C2674 4.73483 2669.27 0 2663.43 0C2657.59 0 2652.86 4.73483 2652.86 10.5755C2652.86 16.4163 2657.59 21.1511 2663.43 21.1511Z" fill="#1E3C33"/>
<path d="M10.5723 228.941C16.4112 228.941 21.1445 224.206 21.1445 218.366C21.1445 212.525 16.4112 207.79 10.5723 207.79C4.73336 207.79 0 212.525 0 218.366C0 224.206 4.73336 228.941 10.5723 228.941Z" fill="#1E3C33"/>
<path d="M214.576 228.941C220.415 228.941 225.148 224.206 225.148 218.366C225.148 212.525 220.415 207.79 214.576 207.79C208.737 207.79 204.004 212.525 204.004 218.366C204.004 224.206 208.737 228.941 214.576 228.941Z" fill="#1E3C33"/>
<path d="M418.584 228.941C424.423 228.941 429.156 224.206 429.156 218.366C429.156 212.525 424.423 207.79 418.584 207.79C412.745 207.79 408.012 212.525 408.012 218.366C408.012 224.206 412.745 228.941 418.584 228.941Z" fill="#1E3C33"/>
<path d="M622.783 228.941C628.622 228.941 633.355 224.206 633.355 218.366C633.355 212.525 628.622 207.79 622.783 207.79C616.944 207.79 612.211 212.525 612.211 218.366C612.211 224.206 616.944 228.941 622.783 228.941Z" fill="#1E3C33"/>
<path d="M826.791 228.941C832.63 228.941 837.363 224.206 837.363 218.366C837.363 212.525 832.63 207.79 826.791 207.79C820.952 207.79 816.219 212.525 816.219 218.366C816.219 224.206 820.952 228.941 826.791 228.941Z" fill="#1E3C33"/>
<path d="M1030.79 228.941C1036.63 228.941 1041.37 224.206 1041.37 218.366C1041.37 212.525 1036.63 207.79 1030.79 207.79C1024.96 207.79 1020.22 212.525 1020.22 218.366C1020.22 224.206 1024.96 228.941 1030.79 228.941Z" fill="#1E3C33"/>
<path d="M1235 228.941C1240.84 228.941 1245.57 224.206 1245.57 218.366C1245.57 212.525 1240.84 207.79 1235 207.79C1229.16 207.79 1224.43 212.525 1224.43 218.366C1224.43 224.206 1229.16 228.941 1235 228.941Z" fill="#1E3C33"/>
<path d="M1439 228.941C1444.84 228.941 1449.57 224.206 1449.57 218.366C1449.57 212.525 1444.84 207.79 1439 207.79C1433.16 207.79 1428.43 212.525 1428.43 218.366C1428.43 224.206 1433.16 228.941 1439 228.941Z" fill="#1E3C33"/>
<path d="M1643.01 228.941C1648.85 228.941 1653.58 224.206 1653.58 218.366C1653.58 212.525 1648.85 207.79 1643.01 207.79C1637.17 207.79 1632.44 212.525 1632.44 218.366C1632.44 224.206 1637.17 228.941 1643.01 228.941Z" fill="#1E3C33"/>
<path d="M1847.21 228.941C1853.05 228.941 1857.78 224.206 1857.78 218.366C1857.78 212.525 1853.05 207.79 1847.21 207.79C1841.37 207.79 1836.64 212.525 1836.64 218.366C1836.64 224.206 1841.37 228.941 1847.21 228.941Z" fill="#1E3C33"/>
<path d="M2051.22 228.941C2057.06 228.941 2061.79 224.206 2061.79 218.366C2061.79 212.525 2057.06 207.79 2051.22 207.79C2045.38 207.79 2040.64 212.525 2040.64 218.366C2040.64 224.206 2045.38 228.941 2051.22 228.941Z" fill="#1E3C33"/>
<path d="M2255.42 228.941C2261.25 228.941 2265.99 224.206 2265.99 218.366C2265.99 212.525 2261.25 207.79 2255.42 207.79C2249.58 207.79 2244.84 212.525 2244.84 218.366C2244.84 224.206 2249.58 228.941 2255.42 228.941Z" fill="#1E3C33"/>
<path d="M2459.42 228.941C2465.26 228.941 2470 224.206 2470 218.366C2470 212.525 2465.26 207.79 2459.42 207.79C2453.58 207.79 2448.85 212.525 2448.85 218.366C2448.85 224.206 2453.58 228.941 2459.42 228.941Z" fill="#1E3C33"/>
<path d="M2663.43 228.941C2669.27 228.941 2674 224.206 2674 218.366C2674 212.525 2669.27 207.79 2663.43 207.79C2657.59 207.79 2652.86 212.525 2652.86 218.366C2652.86 224.206 2657.59 228.941 2663.43 228.941Z" fill="#1E3C33"/>
<path d="M10.5723 436.926C16.4112 436.926 21.1445 432.192 21.1445 426.351C21.1445 420.51 16.4112 415.775 10.5723 415.775C4.73336 415.775 0 420.51 0 426.351C0 432.192 4.73336 436.926 10.5723 436.926Z" fill="#1E3C33"/>
<path d="M214.576 436.926C220.415 436.926 225.148 432.192 225.148 426.351C225.148 420.51 220.415 415.775 214.576 415.775C208.737 415.775 204.004 420.51 204.004 426.351C204.004 432.192 208.737 436.926 214.576 436.926Z" fill="#1E3C33"/>
<path d="M418.584 436.926C424.423 436.926 429.156 432.192 429.156 426.351C429.156 420.51 424.423 415.775 418.584 415.775C412.745 415.775 408.012 420.51 408.012 426.351C408.012 432.192 412.745 436.926 418.584 436.926Z" fill="#1E3C33"/>
<path d="M622.783 436.926C628.622 436.926 633.355 432.192 633.355 426.351C633.355 420.51 628.622 415.775 622.783 415.775C616.944 415.775 612.211 420.51 612.211 426.351C612.211 432.192 616.944 436.926 622.783 436.926Z" fill="#1E3C33"/>
<path d="M826.791 436.926C832.63 436.926 837.363 432.192 837.363 426.351C837.363 420.51 832.63 415.775 826.791 415.775C820.952 415.775 816.219 420.51 816.219 426.351C816.219 432.192 820.952 436.926 826.791 436.926Z" fill="#1E3C33"/>
<path d="M1030.79 436.926C1036.63 436.926 1041.37 432.192 1041.37 426.351C1041.37 420.51 1036.63 415.775 1030.79 415.775C1024.96 415.775 1020.22 420.51 1020.22 426.351C1020.22 432.192 1024.96 436.926 1030.79 436.926Z" fill="#1E3C33"/>
<path d="M1235 436.926C1240.84 436.926 1245.57 432.192 1245.57 426.351C1245.57 420.51 1240.84 415.775 1235 415.775C1229.16 415.775 1224.43 420.51 1224.43 426.351C1224.43 432.192 1229.16 436.926 1235 436.926Z" fill="#1E3C33"/>
<path d="M1439 436.926C1444.84 436.926 1449.57 432.192 1449.57 426.351C1449.57 420.51 1444.84 415.775 1439 415.775C1433.16 415.775 1428.43 420.51 1428.43 426.351C1428.43 432.192 1433.16 436.926 1439 436.926Z" fill="#1E3C33"/>
<path d="M1643.01 436.926C1648.85 436.926 1653.58 432.192 1653.58 426.351C1653.58 420.51 1648.85 415.775 1643.01 415.775C1637.17 415.775 1632.44 420.51 1632.44 426.351C1632.44 432.192 1637.17 436.926 1643.01 436.926Z" fill="#1E3C33"/>
<path d="M1847.21 436.926C1853.05 436.926 1857.78 432.192 1857.78 426.351C1857.78 420.51 1853.05 415.775 1847.21 415.775C1841.37 415.775 1836.64 420.51 1836.64 426.351C1836.64 432.192 1841.37 436.926 1847.21 436.926Z" fill="#1E3C33"/>
<path d="M2051.22 436.926C2057.06 436.926 2061.79 432.192 2061.79 426.351C2061.79 420.51 2057.06 415.775 2051.22 415.775C2045.38 415.775 2040.64 420.51 2040.64 426.351C2040.64 432.192 2045.38 436.926 2051.22 436.926Z" fill="#1E3C33"/>
<path d="M2255.42 436.926C2261.25 436.926 2265.99 432.192 2265.99 426.351C2265.99 420.51 2261.25 415.775 2255.42 415.775C2249.58 415.775 2244.84 420.51 2244.84 426.351C2244.84 432.192 2249.58 436.926 2255.42 436.926Z" fill="#1E3C33"/>
<path d="M2459.42 436.926C2465.26 436.926 2470 432.192 2470 426.351C2470 420.51 2465.26 415.775 2459.42 415.775C2453.58 415.775 2448.85 420.51 2448.85 426.351C2448.85 432.192 2453.58 436.926 2459.42 436.926Z" fill="#1E3C33"/>
<path d="M2663.43 436.926C2669.27 436.926 2674 432.192 2674 426.351C2674 420.51 2669.27 415.775 2663.43 415.775C2657.59 415.775 2652.86 420.51 2652.86 426.351C2652.86 432.192 2657.59 436.926 2663.43 436.926Z" fill="#1E3C33"/>
<path d="M10.5723 644.912C16.4112 644.912 21.1445 640.177 21.1445 634.337C21.1445 628.496 16.4112 623.761 10.5723 623.761C4.73336 623.761 0 628.496 0 634.337C0 640.177 4.73336 644.912 10.5723 644.912Z" fill="#1E3C33"/>
<path d="M214.576 644.912C220.415 644.912 225.148 640.177 225.148 634.337C225.148 628.496 220.415 623.761 214.576 623.761C208.737 623.761 204.004 628.496 204.004 634.337C204.004 640.177 208.737 644.912 214.576 644.912Z" fill="#1E3C33"/>
<path d="M418.584 644.912C424.423 644.912 429.156 640.177 429.156 634.337C429.156 628.496 424.423 623.761 418.584 623.761C412.745 623.761 408.012 628.496 408.012 634.337C408.012 640.177 412.745 644.912 418.584 644.912Z" fill="#1E3C33"/>
<path d="M622.783 644.912C628.622 644.912 633.355 640.177 633.355 634.337C633.355 628.496 628.622 623.761 622.783 623.761C616.944 623.761 612.211 628.496 612.211 634.337C612.211 640.177 616.944 644.912 622.783 644.912Z" fill="#1E3C33"/>
<path d="M826.791 644.912C832.63 644.912 837.363 640.177 837.363 634.337C837.363 628.496 832.63 623.761 826.791 623.761C820.952 623.761 816.219 628.496 816.219 634.337C816.219 640.177 820.952 644.912 826.791 644.912Z" fill="#1E3C33"/>
<path d="M1030.79 644.912C1036.63 644.912 1041.37 640.177 1041.37 634.337C1041.37 628.496 1036.63 623.761 1030.79 623.761C1024.96 623.761 1020.22 628.496 1020.22 634.337C1020.22 640.177 1024.96 644.912 1030.79 644.912Z" fill="#1E3C33"/>
<path d="M1235 644.912C1240.84 644.912 1245.57 640.177 1245.57 634.337C1245.57 628.496 1240.84 623.761 1235 623.761C1229.16 623.761 1224.43 628.496 1224.43 634.337C1224.43 640.177 1229.16 644.912 1235 644.912Z" fill="#1E3C33"/>
<path d="M1439 644.912C1444.84 644.912 1449.57 640.177 1449.57 634.337C1449.57 628.496 1444.84 623.761 1439 623.761C1433.16 623.761 1428.43 628.496 1428.43 634.337C1428.43 640.177 1433.16 644.912 1439 644.912Z" fill="#1E3C33"/>
<path d="M1643.01 644.912C1648.85 644.912 1653.58 640.177 1653.58 634.337C1653.58 628.496 1648.85 623.761 1643.01 623.761C1637.17 623.761 1632.44 628.496 1632.44 634.337C1632.44 640.177 1637.17 644.912 1643.01 644.912Z" fill="#1E3C33"/>
<path d="M1847.21 644.912C1853.05 644.912 1857.78 640.177 1857.78 634.337C1857.78 628.496 1853.05 623.761 1847.21 623.761C1841.37 623.761 1836.64 628.496 1836.64 634.337C1836.64 640.177 1841.37 644.912 1847.21 644.912Z" fill="#1E3C33"/>
<path d="M2051.22 644.912C2057.06 644.912 2061.79 640.177 2061.79 634.337C2061.79 628.496 2057.06 623.761 2051.22 623.761C2045.38 623.761 2040.64 628.496 2040.64 634.337C2040.64 640.177 2045.38 644.912 2051.22 644.912Z" fill="#1E3C33"/>
<path d="M2255.42 644.912C2261.25 644.912 2265.99 640.177 2265.99 634.337C2265.99 628.496 2261.25 623.761 2255.42 623.761C2249.58 623.761 2244.84 628.496 2244.84 634.337C2244.84 640.177 2249.58 644.912 2255.42 644.912Z" fill="#1E3C33"/>
<path d="M2459.42 644.912C2465.26 644.912 2470 640.177 2470 634.337C2470 628.496 2465.26 623.761 2459.42 623.761C2453.58 623.761 2448.85 628.496 2448.85 634.337C2448.85 640.177 2453.58 644.912 2459.42 644.912Z" fill="#1E3C33"/>
<path d="M2663.43 644.912C2669.27 644.912 2674 640.177 2674 634.337C2674 628.496 2669.27 623.761 2663.43 623.761C2657.59 623.761 2652.86 628.496 2652.86 634.337C2652.86 640.177 2657.59 644.912 2663.43 644.912Z" fill="#1E3C33"/>
<path d="M10.5723 852.702C16.4112 852.702 21.1445 847.967 21.1445 842.126C21.1445 836.286 16.4112 831.551 10.5723 831.551C4.73336 831.551 0 836.286 0 842.126C0 847.967 4.73336 852.702 10.5723 852.702Z" fill="#1E3C33"/>
<path d="M214.576 852.702C220.415 852.702 225.148 847.967 225.148 842.126C225.148 836.286 220.415 831.551 214.576 831.551C208.737 831.551 204.004 836.286 204.004 842.126C204.004 847.967 208.737 852.702 214.576 852.702Z" fill="#1E3C33"/>
<path d="M418.584 852.702C424.423 852.702 429.156 847.967 429.156 842.126C429.156 836.286 424.423 831.551 418.584 831.551C412.745 831.551 408.012 836.286 408.012 842.126C408.012 847.967 412.745 852.702 418.584 852.702Z" fill="#1E3C33"/>
<path d="M622.783 852.702C628.622 852.702 633.355 847.967 633.355 842.126C633.355 836.286 628.622 831.551 622.783 831.551C616.944 831.551 612.211 836.286 612.211 842.126C612.211 847.967 616.944 852.702 622.783 852.702Z" fill="#1E3C33"/>
<path d="M826.791 852.702C832.63 852.702 837.363 847.967 837.363 842.126C837.363 836.286 832.63 831.551 826.791 831.551C820.952 831.551 816.219 836.286 816.219 842.126C816.219 847.967 820.952 852.702 826.791 852.702Z" fill="#1E3C33"/>
<path d="M1030.79 852.702C1036.63 852.702 1041.37 847.967 1041.37 842.126C1041.37 836.286 1036.63 831.551 1030.79 831.551C1024.96 831.551 1020.22 836.286 1020.22 842.126C1020.22 847.967 1024.96 852.702 1030.79 852.702Z" fill="#1E3C33"/>
<path d="M1235 852.702C1240.84 852.702 1245.57 847.967 1245.57 842.126C1245.57 836.286 1240.84 831.551 1235 831.551C1229.16 831.551 1224.43 836.286 1224.43 842.126C1224.43 847.967 1229.16 852.702 1235 852.702Z" fill="#1E3C33"/>
<path d="M1439 852.702C1444.84 852.702 1449.57 847.967 1449.57 842.126C1449.57 836.286 1444.84 831.551 1439 831.551C1433.16 831.551 1428.43 836.286 1428.43 842.126C1428.43 847.967 1433.16 852.702 1439 852.702Z" fill="#1E3C33"/>
<path d="M1643.01 852.702C1648.85 852.702 1653.58 847.967 1653.58 842.126C1653.58 836.286 1648.85 831.551 1643.01 831.551C1637.17 831.551 1632.44 836.286 1632.44 842.126C1632.44 847.967 1637.17 852.702 1643.01 852.702Z" fill="#1E3C33"/>
<path d="M1847.21 852.702C1853.05 852.702 1857.78 847.967 1857.78 842.126C1857.78 836.286 1853.05 831.551 1847.21 831.551C1841.37 831.551 1836.64 836.286 1836.64 842.126C1836.64 847.967 1841.37 852.702 1847.21 852.702Z" fill="#1E3C33"/>
<path d="M2051.22 852.702C2057.06 852.702 2061.79 847.967 2061.79 842.126C2061.79 836.286 2057.06 831.551 2051.22 831.551C2045.38 831.551 2040.64 836.286 2040.64 842.126C2040.64 847.967 2045.38 852.702 2051.22 852.702Z" fill="#1E3C33"/>
<path d="M2255.42 852.702C2261.25 852.702 2265.99 847.967 2265.99 842.126C2265.99 836.286 2261.25 831.551 2255.42 831.551C2249.58 831.551 2244.84 836.286 2244.84 842.126C2244.84 847.967 2249.58 852.702 2255.42 852.702Z" fill="#1E3C33"/>
<path d="M2459.42 852.702C2465.26 852.702 2470 847.967 2470 842.126C2470 836.286 2465.26 831.551 2459.42 831.551C2453.58 831.551 2448.85 836.286 2448.85 842.126C2448.85 847.967 2453.58 852.702 2459.42 852.702Z" fill="#1E3C33"/>
<path d="M2663.43 852.702C2669.27 852.702 2674 847.967 2674 842.126C2674 836.286 2669.27 831.551 2663.43 831.551C2657.59 831.551 2652.86 836.286 2652.86 842.126C2652.86 847.967 2657.59 852.702 2663.43 852.702Z" fill="#1E3C33"/>
<path d="M10.5723 1060.69C16.4112 1060.69 21.1445 1055.95 21.1445 1050.11C21.1445 1044.27 16.4112 1039.54 10.5723 1039.54C4.73336 1039.54 0 1044.27 0 1050.11C0 1055.95 4.73336 1060.69 10.5723 1060.69Z" fill="#1E3C33"/>
<path d="M214.576 1060.69C220.415 1060.69 225.148 1055.95 225.148 1050.11C225.148 1044.27 220.415 1039.54 214.576 1039.54C208.737 1039.54 204.004 1044.27 204.004 1050.11C204.004 1055.95 208.737 1060.69 214.576 1060.69Z" fill="#1E3C33"/>
<path d="M418.584 1060.69C424.423 1060.69 429.156 1055.95 429.156 1050.11C429.156 1044.27 424.423 1039.54 418.584 1039.54C412.745 1039.54 408.012 1044.27 408.012 1050.11C408.012 1055.95 412.745 1060.69 418.584 1060.69Z" fill="#1E3C33"/>
<path d="M622.783 1060.69C628.622 1060.69 633.355 1055.95 633.355 1050.11C633.355 1044.27 628.622 1039.54 622.783 1039.54C616.944 1039.54 612.211 1044.27 612.211 1050.11C612.211 1055.95 616.944 1060.69 622.783 1060.69Z" fill="#1E3C33"/>
<path d="M826.791 1060.69C832.63 1060.69 837.363 1055.95 837.363 1050.11C837.363 1044.27 832.63 1039.54 826.791 1039.54C820.952 1039.54 816.219 1044.27 816.219 1050.11C816.219 1055.95 820.952 1060.69 826.791 1060.69Z" fill="#1E3C33"/>
<path d="M1030.79 1060.69C1036.63 1060.69 1041.37 1055.95 1041.37 1050.11C1041.37 1044.27 1036.63 1039.54 1030.79 1039.54C1024.96 1039.54 1020.22 1044.27 1020.22 1050.11C1020.22 1055.95 1024.96 1060.69 1030.79 1060.69Z" fill="#1E3C33"/>
<path d="M1235 1060.69C1240.84 1060.69 1245.57 1055.95 1245.57 1050.11C1245.57 1044.27 1240.84 1039.54 1235 1039.54C1229.16 1039.54 1224.43 1044.27 1224.43 1050.11C1224.43 1055.95 1229.16 1060.69 1235 1060.69Z" fill="#1E3C33"/>
<path d="M1439 1060.69C1444.84 1060.69 1449.57 1055.95 1449.57 1050.11C1449.57 1044.27 1444.84 1039.54 1439 1039.54C1433.16 1039.54 1428.43 1044.27 1428.43 1050.11C1428.43 1055.95 1433.16 1060.69 1439 1060.69Z" fill="#1E3C33"/>
<path d="M1643.01 1060.69C1648.85 1060.69 1653.58 1055.95 1653.58 1050.11C1653.58 1044.27 1648.85 1039.54 1643.01 1039.54C1637.17 1039.54 1632.44 1044.27 1632.44 1050.11C1632.44 1055.95 1637.17 1060.69 1643.01 1060.69Z" fill="#1E3C33"/>
<path d="M1847.21 1060.69C1853.05 1060.69 1857.78 1055.95 1857.78 1050.11C1857.78 1044.27 1853.05 1039.54 1847.21 1039.54C1841.37 1039.54 1836.64 1044.27 1836.64 1050.11C1836.64 1055.95 1841.37 1060.69 1847.21 1060.69Z" fill="#1E3C33"/>
<path d="M2051.22 1060.69C2057.06 1060.69 2061.79 1055.95 2061.79 1050.11C2061.79 1044.27 2057.06 1039.54 2051.22 1039.54C2045.38 1039.54 2040.64 1044.27 2040.64 1050.11C2040.64 1055.95 2045.38 1060.69 2051.22 1060.69Z" fill="#1E3C33"/>
<path d="M2255.42 1060.69C2261.25 1060.69 2265.99 1055.95 2265.99 1050.11C2265.99 1044.27 2261.25 1039.54 2255.42 1039.54C2249.58 1039.54 2244.84 1044.27 2244.84 1050.11C2244.84 1055.95 2249.58 1060.69 2255.42 1060.69Z" fill="#1E3C33"/>
<path d="M2459.42 1060.69C2465.26 1060.69 2470 1055.95 2470 1050.11C2470 1044.27 2465.26 1039.54 2459.42 1039.54C2453.58 1039.54 2448.85 1044.27 2448.85 1050.11C2448.85 1055.95 2453.58 1060.69 2459.42 1060.69Z" fill="#1E3C33"/>
<path d="M2663.43 1060.69C2669.27 1060.69 2674 1055.95 2674 1050.11C2674 1044.27 2669.27 1039.54 2663.43 1039.54C2657.59 1039.54 2652.86 1044.27 2652.86 1050.11C2652.86 1055.95 2657.59 1060.69 2663.43 1060.69Z" fill="#1E3C33"/>
<path d="M10.5723 1268.48C16.4112 1268.48 21.1445 1263.74 21.1445 1257.9C21.1445 1252.06 16.4112 1247.33 10.5723 1247.33C4.73336 1247.33 0 1252.06 0 1257.9C0 1263.74 4.73336 1268.48 10.5723 1268.48Z" fill="#1E3C33"/>
<path d="M214.576 1268.48C220.415 1268.48 225.148 1263.74 225.148 1257.9C225.148 1252.06 220.415 1247.33 214.576 1247.33C208.737 1247.33 204.004 1252.06 204.004 1257.9C204.004 1263.74 208.737 1268.48 214.576 1268.48Z" fill="#1E3C33"/>
<path d="M418.584 1268.48C424.423 1268.48 429.156 1263.74 429.156 1257.9C429.156 1252.06 424.423 1247.33 418.584 1247.33C412.745 1247.33 408.012 1252.06 408.012 1257.9C408.012 1263.74 412.745 1268.48 418.584 1268.48Z" fill="#1E3C33"/>
<path d="M622.783 1268.48C628.622 1268.48 633.355 1263.74 633.355 1257.9C633.355 1252.06 628.622 1247.33 622.783 1247.33C616.944 1247.33 612.211 1252.06 612.211 1257.9C612.211 1263.74 616.944 1268.48 622.783 1268.48Z" fill="#1E3C33"/>
<path d="M826.791 1268.48C832.63 1268.48 837.363 1263.74 837.363 1257.9C837.363 1252.06 832.63 1247.33 826.791 1247.33C820.952 1247.33 816.219 1252.06 816.219 1257.9C816.219 1263.74 820.952 1268.48 826.791 1268.48Z" fill="#1E3C33"/>
<path d="M1030.79 1268.48C1036.63 1268.48 1041.37 1263.74 1041.37 1257.9C1041.37 1252.06 1036.63 1247.33 1030.79 1247.33C1024.96 1247.33 1020.22 1252.06 1020.22 1257.9C1020.22 1263.74 1024.96 1268.48 1030.79 1268.48Z" fill="#1E3C33"/>
<path d="M1235 1268.48C1240.84 1268.48 1245.57 1263.74 1245.57 1257.9C1245.57 1252.06 1240.84 1247.33 1235 1247.33C1229.16 1247.33 1224.43 1252.06 1224.43 1257.9C1224.43 1263.74 1229.16 1268.48 1235 1268.48Z" fill="#1E3C33"/>
<path d="M1439 1268.48C1444.84 1268.48 1449.57 1263.74 1449.57 1257.9C1449.57 1252.06 1444.84 1247.33 1439 1247.33C1433.16 1247.33 1428.43 1252.06 1428.43 1257.9C1428.43 1263.74 1433.16 1268.48 1439 1268.48Z" fill="#1E3C33"/>
<path d="M1643.01 1268.48C1648.85 1268.48 1653.58 1263.74 1653.58 1257.9C1653.58 1252.06 1648.85 1247.33 1643.01 1247.33C1637.17 1247.33 1632.44 1252.06 1632.44 1257.9C1632.44 1263.74 1637.17 1268.48 1643.01 1268.48Z" fill="#1E3C33"/>
<path d="M1847.21 1268.48C1853.05 1268.48 1857.78 1263.74 1857.78 1257.9C1857.78 1252.06 1853.05 1247.33 1847.21 1247.33C1841.37 1247.33 1836.64 1252.06 1836.64 1257.9C1836.64 1263.74 1841.37 1268.48 1847.21 1268.48Z" fill="#1E3C33"/>
<path d="M2051.22 1268.48C2057.06 1268.48 2061.79 1263.74 2061.79 1257.9C2061.79 1252.06 2057.06 1247.33 2051.22 1247.33C2045.38 1247.33 2040.64 1252.06 2040.64 1257.9C2040.64 1263.74 2045.38 1268.48 2051.22 1268.48Z" fill="#1E3C33"/>
<path d="M2255.42 1268.48C2261.25 1268.48 2265.99 1263.74 2265.99 1257.9C2265.99 1252.06 2261.25 1247.33 2255.42 1247.33C2249.58 1247.33 2244.84 1252.06 2244.84 1257.9C2244.84 1263.74 2249.58 1268.48 2255.42 1268.48Z" fill="#1E3C33"/>
<path d="M2459.42 1268.48C2465.26 1268.48 2470 1263.74 2470 1257.9C2470 1252.06 2465.26 1247.33 2459.42 1247.33C2453.58 1247.33 2448.85 1252.06 2448.85 1257.9C2448.85 1263.74 2453.58 1268.48 2459.42 1268.48Z" fill="#1E3C33"/>
<path d="M2663.43 1268.48C2669.27 1268.48 2674 1263.74 2674 1257.9C2674 1252.06 2669.27 1247.33 2663.43 1247.33C2657.59 1247.33 2652.86 1252.06 2652.86 1257.9C2652.86 1263.74 2657.59 1268.48 2663.43 1268.48Z" fill="#1E3C33"/>
<path d="M10.5723 1476.46C16.4112 1476.46 21.1445 1471.73 21.1445 1465.89C21.1445 1460.05 16.4112 1455.31 10.5723 1455.31C4.73336 1455.31 0 1460.05 0 1465.89C0 1471.73 4.73336 1476.46 10.5723 1476.46Z" fill="#1E3C33"/>
<path d="M214.576 1476.46C220.415 1476.46 225.148 1471.73 225.148 1465.89C225.148 1460.05 220.415 1455.31 214.576 1455.31C208.737 1455.31 204.004 1460.05 204.004 1465.89C204.004 1471.73 208.737 1476.46 214.576 1476.46Z" fill="#1E3C33"/>
<path d="M418.584 1476.46C424.423 1476.46 429.156 1471.73 429.156 1465.89C429.156 1460.05 424.423 1455.31 418.584 1455.31C412.745 1455.31 408.012 1460.05 408.012 1465.89C408.012 1471.73 412.745 1476.46 418.584 1476.46Z" fill="#1E3C33"/>
<path d="M622.783 1476.46C628.622 1476.46 633.355 1471.73 633.355 1465.89C633.355 1460.05 628.622 1455.31 622.783 1455.31C616.944 1455.31 612.211 1460.05 612.211 1465.89C612.211 1471.73 616.944 1476.46 622.783 1476.46Z" fill="#1E3C33"/>
<path d="M826.791 1476.46C832.63 1476.46 837.363 1471.73 837.363 1465.89C837.363 1460.05 832.63 1455.31 826.791 1455.31C820.952 1455.31 816.219 1460.05 816.219 1465.89C816.219 1471.73 820.952 1476.46 826.791 1476.46Z" fill="#1E3C33"/>
<path d="M1030.79 1476.46C1036.63 1476.46 1041.37 1471.73 1041.37 1465.89C1041.37 1460.05 1036.63 1455.31 1030.79 1455.31C1024.96 1455.31 1020.22 1460.05 1020.22 1465.89C1020.22 1471.73 1024.96 1476.46 1030.79 1476.46Z" fill="#1E3C33"/>
<path d="M1235 1476.46C1240.84 1476.46 1245.57 1471.73 1245.57 1465.89C1245.57 1460.05 1240.84 1455.31 1235 1455.31C1229.16 1455.31 1224.43 1460.05 1224.43 1465.89C1224.43 1471.73 1229.16 1476.46 1235 1476.46Z" fill="#1E3C33"/>
<path d="M1439 1476.46C1444.84 1476.46 1449.57 1471.73 1449.57 1465.89C1449.57 1460.05 1444.84 1455.31 1439 1455.31C1433.16 1455.31 1428.43 1460.05 1428.43 1465.89C1428.43 1471.73 1433.16 1476.46 1439 1476.46Z" fill="#1E3C33"/>
<path d="M1643.01 1476.46C1648.85 1476.46 1653.58 1471.73 1653.58 1465.89C1653.58 1460.05 1648.85 1455.31 1643.01 1455.31C1637.17 1455.31 1632.44 1460.05 1632.44 1465.89C1632.44 1471.73 1637.17 1476.46 1643.01 1476.46Z" fill="#1E3C33"/>
<path d="M1847.21 1476.46C1853.05 1476.46 1857.78 1471.73 1857.78 1465.89C1857.78 1460.05 1853.05 1455.31 1847.21 1455.31C1841.37 1455.31 1836.64 1460.05 1836.64 1465.89C1836.64 1471.73 1841.37 1476.46 1847.21 1476.46Z" fill="#1E3C33"/>
<path d="M2051.22 1476.46C2057.06 1476.46 2061.79 1471.73 2061.79 1465.89C2061.79 1460.05 2057.06 1455.31 2051.22 1455.31C2045.38 1455.31 2040.64 1460.05 2040.64 1465.89C2040.64 1471.73 2045.38 1476.46 2051.22 1476.46Z" fill="#1E3C33"/>
<path d="M2255.42 1476.46C2261.25 1476.46 2265.99 1471.73 2265.99 1465.89C2265.99 1460.05 2261.25 1455.31 2255.42 1455.31C2249.58 1455.31 2244.84 1460.05 2244.84 1465.89C2244.84 1471.73 2249.58 1476.46 2255.42 1476.46Z" fill="#1E3C33"/>
<path d="M2459.42 1476.46C2465.26 1476.46 2470 1471.73 2470 1465.89C2470 1460.05 2465.26 1455.31 2459.42 1455.31C2453.58 1455.31 2448.85 1460.05 2448.85 1465.89C2448.85 1471.73 2453.58 1476.46 2459.42 1476.46Z" fill="#1E3C33"/>
<path d="M2663.43 1476.46C2669.27 1476.46 2674 1471.73 2674 1465.89C2674 1460.05 2669.27 1455.31 2663.43 1455.31C2657.59 1455.31 2652.86 1460.05 2652.86 1465.89C2652.86 1471.73 2657.59 1476.46 2663.43 1476.46Z" fill="#1E3C33"/>
<path d="M10.5723 1684.45C16.4112 1684.45 21.1445 1679.71 21.1445 1673.87C21.1445 1668.03 16.4112 1663.3 10.5723 1663.3C4.73336 1663.3 0 1668.03 0 1673.87C0 1679.71 4.73336 1684.45 10.5723 1684.45Z" fill="#1E3C33"/>
<path d="M214.576 1684.45C220.415 1684.45 225.148 1679.71 225.148 1673.87C225.148 1668.03 220.415 1663.3 214.576 1663.3C208.737 1663.3 204.004 1668.03 204.004 1673.87C204.004 1679.71 208.737 1684.45 214.576 1684.45Z" fill="#1E3C33"/>
<path d="M418.584 1684.45C424.423 1684.45 429.156 1679.71 429.156 1673.87C429.156 1668.03 424.423 1663.3 418.584 1663.3C412.745 1663.3 408.012 1668.03 408.012 1673.87C408.012 1679.71 412.745 1684.45 418.584 1684.45Z" fill="#1E3C33"/>
<path d="M622.783 1684.45C628.622 1684.45 633.355 1679.71 633.355 1673.87C633.355 1668.03 628.622 1663.3 622.783 1663.3C616.944 1663.3 612.211 1668.03 612.211 1673.87C612.211 1679.71 616.944 1684.45 622.783 1684.45Z" fill="#1E3C33"/>
<path d="M826.791 1684.45C832.63 1684.45 837.363 1679.71 837.363 1673.87C837.363 1668.03 832.63 1663.3 826.791 1663.3C820.952 1663.3 816.219 1668.03 816.219 1673.87C816.219 1679.71 820.952 1684.45 826.791 1684.45Z" fill="#1E3C33"/>
<path d="M1030.79 1684.45C1036.63 1684.45 1041.37 1679.71 1041.37 1673.87C1041.37 1668.03 1036.63 1663.3 1030.79 1663.3C1024.96 1663.3 1020.22 1668.03 1020.22 1673.87C1020.22 1679.71 1024.96 1684.45 1030.79 1684.45Z" fill="#1E3C33"/>
<path d="M1235 1684.45C1240.84 1684.45 1245.57 1679.71 1245.57 1673.87C1245.57 1668.03 1240.84 1663.3 1235 1663.3C1229.16 1663.3 1224.43 1668.03 1224.43 1673.87C1224.43 1679.71 1229.16 1684.45 1235 1684.45Z" fill="#1E3C33"/>
<path d="M1439 1684.45C1444.84 1684.45 1449.57 1679.71 1449.57 1673.87C1449.57 1668.03 1444.84 1663.3 1439 1663.3C1433.16 1663.3 1428.43 1668.03 1428.43 1673.87C1428.43 1679.71 1433.16 1684.45 1439 1684.45Z" fill="#1E3C33"/>
<path d="M1643.01 1684.45C1648.85 1684.45 1653.58 1679.71 1653.58 1673.87C1653.58 1668.03 1648.85 1663.3 1643.01 1663.3C1637.17 1663.3 1632.44 1668.03 1632.44 1673.87C1632.44 1679.71 1637.17 1684.45 1643.01 1684.45Z" fill="#1E3C33"/>
<path d="M1847.21 1684.45C1853.05 1684.45 1857.78 1679.71 1857.78 1673.87C1857.78 1668.03 1853.05 1663.3 1847.21 1663.3C1841.37 1663.3 1836.64 1668.03 1836.64 1673.87C1836.64 1679.71 1841.37 1684.45 1847.21 1684.45Z" fill="#1E3C33"/>
<path d="M2051.22 1684.45C2057.06 1684.45 2061.79 1679.71 2061.79 1673.87C2061.79 1668.03 2057.06 1663.3 2051.22 1663.3C2045.38 1663.3 2040.64 1668.03 2040.64 1673.87C2040.64 1679.71 2045.38 1684.45 2051.22 1684.45Z" fill="#1E3C33"/>
<path d="M2255.42 1684.45C2261.25 1684.45 2265.99 1679.71 2265.99 1673.87C2265.99 1668.03 2261.25 1663.3 2255.42 1663.3C2249.58 1663.3 2244.84 1668.03 2244.84 1673.87C2244.84 1679.71 2249.58 1684.45 2255.42 1684.45Z" fill="#1E3C33"/>
<path d="M2459.42 1684.45C2465.26 1684.45 2470 1679.71 2470 1673.87C2470 1668.03 2465.26 1663.3 2459.42 1663.3C2453.58 1663.3 2448.85 1668.03 2448.85 1673.87C2448.85 1679.71 2453.58 1684.45 2459.42 1684.45Z" fill="#1E3C33"/>
<path d="M2663.43 1684.45C2669.27 1684.45 2674 1679.71 2674 1673.87C2674 1668.03 2669.27 1663.3 2663.43 1663.3C2657.59 1663.3 2652.86 1668.03 2652.86 1673.87C2652.86 1679.71 2657.59 1684.45 2663.43 1684.45Z" fill="#1E3C33"/>
<path d="M10.5723 1892.24C16.4112 1892.24 21.1445 1887.5 21.1445 1881.66C21.1445 1875.82 16.4112 1871.09 10.5723 1871.09C4.73336 1871.09 0 1875.82 0 1881.66C0 1887.5 4.73336 1892.24 10.5723 1892.24Z" fill="#1E3C33"/>
<path d="M214.576 1892.24C220.415 1892.24 225.148 1887.5 225.148 1881.66C225.148 1875.82 220.415 1871.09 214.576 1871.09C208.737 1871.09 204.004 1875.82 204.004 1881.66C204.004 1887.5 208.737 1892.24 214.576 1892.24Z" fill="#1E3C33"/>
<path d="M418.584 1892.24C424.423 1892.24 429.156 1887.5 429.156 1881.66C429.156 1875.82 424.423 1871.09 418.584 1871.09C412.745 1871.09 408.012 1875.82 408.012 1881.66C408.012 1887.5 412.745 1892.24 418.584 1892.24Z" fill="#1E3C33"/>
<path d="M622.783 1892.24C628.622 1892.24 633.355 1887.5 633.355 1881.66C633.355 1875.82 628.622 1871.09 622.783 1871.09C616.944 1871.09 612.211 1875.82 612.211 1881.66C612.211 1887.5 616.944 1892.24 622.783 1892.24Z" fill="#1E3C33"/>
<path d="M826.791 1892.24C832.63 1892.24 837.363 1887.5 837.363 1881.66C837.363 1875.82 832.63 1871.09 826.791 1871.09C820.952 1871.09 816.219 1875.82 816.219 1881.66C816.219 1887.5 820.952 1892.24 826.791 1892.24Z" fill="#1E3C33"/>
<path d="M1030.79 1892.24C1036.63 1892.24 1041.37 1887.5 1041.37 1881.66C1041.37 1875.82 1036.63 1871.09 1030.79 1871.09C1024.96 1871.09 1020.22 1875.82 1020.22 1881.66C1020.22 1887.5 1024.96 1892.24 1030.79 1892.24Z" fill="#1E3C33"/>
<path d="M1235 1892.24C1240.84 1892.24 1245.57 1887.5 1245.57 1881.66C1245.57 1875.82 1240.84 1871.09 1235 1871.09C1229.16 1871.09 1224.43 1875.82 1224.43 1881.66C1224.43 1887.5 1229.16 1892.24 1235 1892.24Z" fill="#1E3C33"/>
<path d="M1439 1892.24C1444.84 1892.24 1449.57 1887.5 1449.57 1881.66C1449.57 1875.82 1444.84 1871.09 1439 1871.09C1433.16 1871.09 1428.43 1875.82 1428.43 1881.66C1428.43 1887.5 1433.16 1892.24 1439 1892.24Z" fill="#1E3C33"/>
<path d="M1643.01 1892.24C1648.85 1892.24 1653.58 1887.5 1653.58 1881.66C1653.58 1875.82 1648.85 1871.09 1643.01 1871.09C1637.17 1871.09 1632.44 1875.82 1632.44 1881.66C1632.44 1887.5 1637.17 1892.24 1643.01 1892.24Z" fill="#1E3C33"/>
<path d="M1847.21 1892.24C1853.05 1892.24 1857.78 1887.5 1857.78 1881.66C1857.78 1875.82 1853.05 1871.09 1847.21 1871.09C1841.37 1871.09 1836.64 1875.82 1836.64 1881.66C1836.64 1887.5 1841.37 1892.24 1847.21 1892.24Z" fill="#1E3C33"/>
<path d="M2051.22 1892.24C2057.06 1892.24 2061.79 1887.5 2061.79 1881.66C2061.79 1875.82 2057.06 1871.09 2051.22 1871.09C2045.38 1871.09 2040.64 1875.82 2040.64 1881.66C2040.64 1887.5 2045.38 1892.24 2051.22 1892.24Z" fill="#1E3C33"/>
<path d="M2255.42 1892.24C2261.25 1892.24 2265.99 1887.5 2265.99 1881.66C2265.99 1875.82 2261.25 1871.09 2255.42 1871.09C2249.58 1871.09 2244.84 1875.82 2244.84 1881.66C2244.84 1887.5 2249.58 1892.24 2255.42 1892.24Z" fill="#1E3C33"/>
<path d="M2459.42 1892.24C2465.26 1892.24 2470 1887.5 2470 1881.66C2470 1875.82 2465.26 1871.09 2459.42 1871.09C2453.58 1871.09 2448.85 1875.82 2448.85 1881.66C2448.85 1887.5 2453.58 1892.24 2459.42 1892.24Z" fill="#1E3C33"/>
<path d="M2663.43 1892.24C2669.27 1892.24 2674 1887.5 2674 1881.66C2674 1875.82 2669.27 1871.09 2663.43 1871.09C2657.59 1871.09 2652.86 1875.82 2652.86 1881.66C2652.86 1887.5 2657.59 1892.24 2663.43 1892.24Z" fill="#1E3C33"/>
<path d="M10.5723 2100.22C16.4112 2100.22 21.1445 2095.49 21.1445 2089.65C21.1445 2083.81 16.4112 2079.07 10.5723 2079.07C4.73336 2079.07 0 2083.81 0 2089.65C0 2095.49 4.73336 2100.22 10.5723 2100.22Z" fill="#1E3C33"/>
<path d="M214.576 2100.22C220.415 2100.22 225.148 2095.49 225.148 2089.65C225.148 2083.81 220.415 2079.07 214.576 2079.07C208.737 2079.07 204.004 2083.81 204.004 2089.65C204.004 2095.49 208.737 2100.22 214.576 2100.22Z" fill="#1E3C33"/>
<path d="M418.584 2100.22C424.423 2100.22 429.156 2095.49 429.156 2089.65C429.156 2083.81 424.423 2079.07 418.584 2079.07C412.745 2079.07 408.012 2083.81 408.012 2089.65C408.012 2095.49 412.745 2100.22 418.584 2100.22Z" fill="#1E3C33"/>
<path d="M622.783 2100.22C628.622 2100.22 633.355 2095.49 633.355 2089.65C633.355 2083.81 628.622 2079.07 622.783 2079.07C616.944 2079.07 612.211 2083.81 612.211 2089.65C612.211 2095.49 616.944 2100.22 622.783 2100.22Z" fill="#1E3C33"/>
<path d="M826.791 2100.22C832.63 2100.22 837.363 2095.49 837.363 2089.65C837.363 2083.81 832.63 2079.07 826.791 2079.07C820.952 2079.07 816.219 2083.81 816.219 2089.65C816.219 2095.49 820.952 2100.22 826.791 2100.22Z" fill="#1E3C33"/>
<path d="M1030.79 2100.22C1036.63 2100.22 1041.37 2095.49 1041.37 2089.65C1041.37 2083.81 1036.63 2079.07 1030.79 2079.07C1024.96 2079.07 1020.22 2083.81 1020.22 2089.65C1020.22 2095.49 1024.96 2100.22 1030.79 2100.22Z" fill="#1E3C33"/>
<path d="M1235 2100.22C1240.84 2100.22 1245.57 2095.49 1245.57 2089.65C1245.57 2083.81 1240.84 2079.07 1235 2079.07C1229.16 2079.07 1224.43 2083.81 1224.43 2089.65C1224.43 2095.49 1229.16 2100.22 1235 2100.22Z" fill="#1E3C33"/>
<path d="M1439 2100.22C1444.84 2100.22 1449.57 2095.49 1449.57 2089.65C1449.57 2083.81 1444.84 2079.07 1439 2079.07C1433.16 2079.07 1428.43 2083.81 1428.43 2089.65C1428.43 2095.49 1433.16 2100.22 1439 2100.22Z" fill="#1E3C33"/>
<path d="M1643.01 2100.22C1648.85 2100.22 1653.58 2095.49 1653.58 2089.65C1653.58 2083.81 1648.85 2079.07 1643.01 2079.07C1637.17 2079.07 1632.44 2083.81 1632.44 2089.65C1632.44 2095.49 1637.17 2100.22 1643.01 2100.22Z" fill="#1E3C33"/>
<path d="M1847.21 2100.22C1853.05 2100.22 1857.78 2095.49 1857.78 2089.65C1857.78 2083.81 1853.05 2079.07 1847.21 2079.07C1841.37 2079.07 1836.64 2083.81 1836.64 2089.65C1836.64 2095.49 1841.37 2100.22 1847.21 2100.22Z" fill="#1E3C33"/>
<path d="M2051.22 2100.22C2057.06 2100.22 2061.79 2095.49 2061.79 2089.65C2061.79 2083.81 2057.06 2079.07 2051.22 2079.07C2045.38 2079.07 2040.64 2083.81 2040.64 2089.65C2040.64 2095.49 2045.38 2100.22 2051.22 2100.22Z" fill="#1E3C33"/>
<path d="M2255.42 2100.22C2261.25 2100.22 2265.99 2095.49 2265.99 2089.65C2265.99 2083.81 2261.25 2079.07 2255.42 2079.07C2249.58 2079.07 2244.84 2083.81 2244.84 2089.65C2244.84 2095.49 2249.58 2100.22 2255.42 2100.22Z" fill="#1E3C33"/>
<path d="M2459.42 2100.22C2465.26 2100.22 2470 2095.49 2470 2089.65C2470 2083.81 2465.26 2079.07 2459.42 2079.07C2453.58 2079.07 2448.85 2083.81 2448.85 2089.65C2448.85 2095.49 2453.58 2100.22 2459.42 2100.22Z" fill="#1E3C33"/>
<path d="M2663.43 2100.22C2669.27 2100.22 2674 2095.49 2674 2089.65C2674 2083.81 2669.27 2079.07 2663.43 2079.07C2657.59 2079.07 2652.86 2083.81 2652.86 2089.65C2652.86 2095.49 2657.59 2100.22 2663.43 2100.22Z" fill="#1E3C33"/>
<path d="M10.5723 2308.21C16.4112 2308.21 21.1445 2303.47 21.1445 2297.63C21.1445 2291.79 16.4112 2287.06 10.5723 2287.06C4.73336 2287.06 0 2291.79 0 2297.63C0 2303.47 4.73336 2308.21 10.5723 2308.21Z" fill="#1E3C33"/>
<path d="M214.576 2308.21C220.415 2308.21 225.148 2303.47 225.148 2297.63C225.148 2291.79 220.415 2287.06 214.576 2287.06C208.737 2287.06 204.004 2291.79 204.004 2297.63C204.004 2303.47 208.737 2308.21 214.576 2308.21Z" fill="#1E3C33"/>
<path d="M418.584 2308.21C424.423 2308.21 429.156 2303.47 429.156 2297.63C429.156 2291.79 424.423 2287.06 418.584 2287.06C412.745 2287.06 408.012 2291.79 408.012 2297.63C408.012 2303.47 412.745 2308.21 418.584 2308.21Z" fill="#1E3C33"/>
<path d="M622.783 2308.21C628.622 2308.21 633.355 2303.47 633.355 2297.63C633.355 2291.79 628.622 2287.06 622.783 2287.06C616.944 2287.06 612.211 2291.79 612.211 2297.63C612.211 2303.47 616.944 2308.21 622.783 2308.21Z" fill="#1E3C33"/>
<path d="M826.791 2308.21C832.63 2308.21 837.363 2303.47 837.363 2297.63C837.363 2291.79 832.63 2287.06 826.791 2287.06C820.952 2287.06 816.219 2291.79 816.219 2297.63C816.219 2303.47 820.952 2308.21 826.791 2308.21Z" fill="#1E3C33"/>
<path d="M1030.79 2308.21C1036.63 2308.21 1041.37 2303.47 1041.37 2297.63C1041.37 2291.79 1036.63 2287.06 1030.79 2287.06C1024.96 2287.06 1020.22 2291.79 1020.22 2297.63C1020.22 2303.47 1024.96 2308.21 1030.79 2308.21Z" fill="#1E3C33"/>
<path d="M1235 2308.21C1240.84 2308.21 1245.57 2303.47 1245.57 2297.63C1245.57 2291.79 1240.84 2287.06 1235 2287.06C1229.16 2287.06 1224.43 2291.79 1224.43 2297.63C1224.43 2303.47 1229.16 2308.21 1235 2308.21Z" fill="#1E3C33"/>
<path d="M1439 2308.21C1444.84 2308.21 1449.57 2303.47 1449.57 2297.63C1449.57 2291.79 1444.84 2287.06 1439 2287.06C1433.16 2287.06 1428.43 2291.79 1428.43 2297.63C1428.43 2303.47 1433.16 2308.21 1439 2308.21Z" fill="#1E3C33"/>
<path d="M1643.01 2308.21C1648.85 2308.21 1653.58 2303.47 1653.58 2297.63C1653.58 2291.79 1648.85 2287.06 1643.01 2287.06C1637.17 2287.06 1632.44 2291.79 1632.44 2297.63C1632.44 2303.47 1637.17 2308.21 1643.01 2308.21Z" fill="#1E3C33"/>
<path d="M1847.21 2308.21C1853.05 2308.21 1857.78 2303.47 1857.78 2297.63C1857.78 2291.79 1853.05 2287.06 1847.21 2287.06C1841.37 2287.06 1836.64 2291.79 1836.64 2297.63C1836.64 2303.47 1841.37 2308.21 1847.21 2308.21Z" fill="#1E3C33"/>
<path d="M2051.22 2308.21C2057.06 2308.21 2061.79 2303.47 2061.79 2297.63C2061.79 2291.79 2057.06 2287.06 2051.22 2287.06C2045.38 2287.06 2040.64 2291.79 2040.64 2297.63C2040.64 2303.47 2045.38 2308.21 2051.22 2308.21Z" fill="#1E3C33"/>
<path d="M2255.42 2308.21C2261.25 2308.21 2265.99 2303.47 2265.99 2297.63C2265.99 2291.79 2261.25 2287.06 2255.42 2287.06C2249.58 2287.06 2244.84 2291.79 2244.84 2297.63C2244.84 2303.47 2249.58 2308.21 2255.42 2308.21Z" fill="#1E3C33"/>
<path d="M2459.42 2308.21C2465.26 2308.21 2470 2303.47 2470 2297.63C2470 2291.79 2465.26 2287.06 2459.42 2287.06C2453.58 2287.06 2448.85 2291.79 2448.85 2297.63C2448.85 2303.47 2453.58 2308.21 2459.42 2308.21Z" fill="#1E3C33"/>
<path d="M2663.43 2308.21C2669.27 2308.21 2674 2303.47 2674 2297.63C2674 2291.79 2669.27 2287.06 2663.43 2287.06C2657.59 2287.06 2652.86 2291.79 2652.86 2297.63C2652.86 2303.47 2657.59 2308.21 2663.43 2308.21Z" fill="#1E3C33"/>
<path d="M10.5723 2516C16.4112 2516 21.1445 2511.26 21.1445 2505.42C21.1445 2499.58 16.4112 2494.85 10.5723 2494.85C4.73336 2494.85 0 2499.58 0 2505.42C0 2511.26 4.73336 2516 10.5723 2516Z" fill="#1E3C33"/>
<path d="M214.576 2516C220.415 2516 225.148 2511.26 225.148 2505.42C225.148 2499.58 220.415 2494.85 214.576 2494.85C208.737 2494.85 204.004 2499.58 204.004 2505.42C204.004 2511.26 208.737 2516 214.576 2516Z" fill="#1E3C33"/>
<path d="M418.584 2516C424.423 2516 429.156 2511.26 429.156 2505.42C429.156 2499.58 424.423 2494.85 418.584 2494.85C412.745 2494.85 408.012 2499.58 408.012 2505.42C408.012 2511.26 412.745 2516 418.584 2516Z" fill="#1E3C33"/>
<path d="M622.783 2516C628.622 2516 633.355 2511.26 633.355 2505.42C633.355 2499.58 628.622 2494.85 622.783 2494.85C616.944 2494.85 612.211 2499.58 612.211 2505.42C612.211 2511.26 616.944 2516 622.783 2516Z" fill="#1E3C33"/>
<path d="M826.791 2516C832.63 2516 837.363 2511.26 837.363 2505.42C837.363 2499.58 832.63 2494.85 826.791 2494.85C820.952 2494.85 816.219 2499.58 816.219 2505.42C816.219 2511.26 820.952 2516 826.791 2516Z" fill="#1E3C33"/>
<path d="M1030.79 2516C1036.63 2516 1041.37 2511.26 1041.37 2505.42C1041.37 2499.58 1036.63 2494.85 1030.79 2494.85C1024.96 2494.85 1020.22 2499.58 1020.22 2505.42C1020.22 2511.26 1024.96 2516 1030.79 2516Z" fill="#1E3C33"/>
<path d="M1235 2516C1240.84 2516 1245.57 2511.26 1245.57 2505.42C1245.57 2499.58 1240.84 2494.85 1235 2494.85C1229.16 2494.85 1224.43 2499.58 1224.43 2505.42C1224.43 2511.26 1229.16 2516 1235 2516Z" fill="#1E3C33"/>
<path d="M1439 2516C1444.84 2516 1449.57 2511.26 1449.57 2505.42C1449.57 2499.58 1444.84 2494.85 1439 2494.85C1433.16 2494.85 1428.43 2499.58 1428.43 2505.42C1428.43 2511.26 1433.16 2516 1439 2516Z" fill="#1E3C33"/>
<path d="M1643.01 2516C1648.85 2516 1653.58 2511.26 1653.58 2505.42C1653.58 2499.58 1648.85 2494.85 1643.01 2494.85C1637.17 2494.85 1632.44 2499.58 1632.44 2505.42C1632.44 2511.26 1637.17 2516 1643.01 2516Z" fill="#1E3C33"/>
<path d="M1847.21 2516C1853.05 2516 1857.78 2511.26 1857.78 2505.42C1857.78 2499.58 1853.05 2494.85 1847.21 2494.85C1841.37 2494.85 1836.64 2499.58 1836.64 2505.42C1836.64 2511.26 1841.37 2516 1847.21 2516Z" fill="#1E3C33"/>
<path d="M2051.22 2516C2057.06 2516 2061.79 2511.26 2061.79 2505.42C2061.79 2499.58 2057.06 2494.85 2051.22 2494.85C2045.38 2494.85 2040.64 2499.58 2040.64 2505.42C2040.64 2511.26 2045.38 2516 2051.22 2516Z" fill="#1E3C33"/>
<path d="M2255.42 2516C2261.25 2516 2265.99 2511.26 2265.99 2505.42C2265.99 2499.58 2261.25 2494.85 2255.42 2494.85C2249.58 2494.85 2244.84 2499.58 2244.84 2505.42C2244.84 2511.26 2249.58 2516 2255.42 2516Z" fill="#1E3C33"/>
<path d="M2459.42 2516C2465.26 2516 2470 2511.26 2470 2505.42C2470 2499.58 2465.26 2494.85 2459.42 2494.85C2453.58 2494.85 2448.85 2499.58 2448.85 2505.42C2448.85 2511.26 2453.58 2516 2459.42 2516Z" fill="#1E3C33"/>
<path d="M2663.43 2516C2669.27 2516 2674 2511.26 2674 2505.42C2674 2499.58 2669.27 2494.85 2663.43 2494.85C2657.59 2494.85 2652.86 2499.58 2652.86 2505.42C2652.86 2511.26 2657.59 2516 2663.43 2516Z" fill="#1E3C33"/>
</svg>
