<svg width="304" height="288" viewBox="0 0 304 288" fill="none" xmlns="http://www.w3.org/2000/svg">
<path d="M290.228 122.745C279.997 134.658 236.209 158.258 233.48 172.263C234.663 193.634 271.494 251.291 247.394 265.796C215.246 280.529 179.415 234.285 150.95 238.332C135.126 240.56 105.115 286.667 80.2873 287.031L68.5104 281.029C52.7773 259.385 76.559 217.37 73.2396 192.224C-86.2282 93.7344 59.3252 120.289 93.5651 87.232C105.16 76.0916 106.706 26.2556 116.983 6.7031C119.893 1.15566 117.437 0.700917 125.804 0.0643246C158.725 -2.30016 169.638 61.1772 187.736 82.3667C201.65 90.8697 348.477 54.9022 290.137 122.699L290.228 122.745ZM272.176 99.782L181.279 114.151L135.944 30.3934C124.213 35.3952 126.896 89.8694 111.39 104.966C94.8385 121.062 50.231 121.199 29.4052 131.975C48.4122 155.666 83.6067 160.031 96.7934 188.905L88.8814 258.384C106.524 248.472 132.124 215.687 151.268 213.778C177.459 211.186 205.379 243.834 232.571 243.47C228.387 214.823 204.879 187.814 213.836 157.803C218.065 143.57 281.953 108.421 272.222 99.8275L272.176 99.782Z" fill="#1E3D34"/>
<path d="M272.173 99.7876C281.904 108.382 218.016 143.531 213.788 157.763C204.875 187.774 228.338 214.783 232.522 243.43C205.33 243.794 177.411 211.146 151.219 213.738C132.076 215.647 106.476 248.432 88.8327 258.345L96.7446 188.865C83.558 159.991 48.3634 155.626 29.3564 131.935C50.1823 121.204 94.7897 121.068 111.341 104.926C126.847 89.8295 124.164 35.4008 135.895 30.3535L181.231 114.111L272.128 99.7421L272.173 99.7876Z" fill="#B8E04A"/>
</svg>
