<svg width="251" height="259" viewBox="0 0 251 259" fill="none" xmlns="http://www.w3.org/2000/svg">
<path d="M36.2162 133.458C34.3762 133.534 29.1627 137.477 23.7194 137.898C5.47251 139.275 -9.70757 131.582 7.61927 117.46L92.605 112.599C87.1617 100.696 53.313 98.9739 48.4829 92.0465C22.9143 55.2662 114.34 98.5529 117.675 95.9121C112.654 83.8561 80.7983 29.0492 92.6434 20.897C95.9401 18.6389 103.645 21.165 107.287 24.9922C119.554 37.9668 121.892 74.7854 138.529 87.5686C145.276 73.6372 149.339 2.87047 161.606 0C174.409 0.76546 172.186 14.5437 172.301 23.002C172.646 49.2956 158.424 77.4262 159.497 104.294C172.608 98.5912 229.15 47.1906 238.81 54.2328C238.12 58.2132 242.222 62.538 242.145 65.4468C241.685 81.4832 182.038 117.383 167.816 127.181L250.77 159.062L251 174.831C245.173 185.088 180.351 160.402 167.816 158.527C163.752 162.431 186.714 233.924 187.979 245.062C189.666 259.759 177.054 264.122 168.238 251.874C155.242 233.81 155.012 186.313 136.42 166.908C126.377 166.87 91.3784 234.192 82.0633 241.847C75.7382 247.052 70.9466 246.708 63.3182 246.057C51.818 234.652 121.7 153.896 121.815 133.458C93.3717 134.338 64.6215 132.271 36.1396 133.458H36.2162Z" fill="#1E3D34"/>
</svg>
