<svg width="2862" height="1558" viewBox="0 0 2862 1558" fill="none" xmlns="http://www.w3.org/2000/svg">
<g clip-path="url(#clip0_171_4594)">
<path d="M1031.52 1531.85C1033.04 1532.15 1035.14 1532.08 1037.47 1531.89C1039.77 1531.67 1042.31 1531.36 1044.73 1531.24C1049.58 1530.99 1053.97 1531.53 1055.18 1535.21C1057.2 1541.3 1051.19 1543.69 1043.76 1544.84C1036.34 1545.98 1027.42 1545.73 1023.73 1546.85C1023.62 1548.71 1024.78 1548.49 1025.91 1549.11C1028.83 1550.75 1040.04 1555.5 1041.18 1557.51C1042.95 1560.64 1040.9 1564.58 1037.24 1565.36C1033.94 1566.05 1028.26 1563.54 1022.76 1560.39C1017.22 1557.2 1011.86 1553.37 1009.14 1551.53C1009.82 1555.27 1013.8 1563.02 1017.39 1570.57C1020.98 1578.13 1024.18 1585.47 1023.18 1588.4C1021.78 1592.53 1017.05 1594.04 1013.48 1591.32C1009.58 1588.34 1006.68 1576.35 1004.15 1571.43C1003.69 1570.53 1003.4 1568.67 1001.98 1569.14C1001.5 1574.56 1003.68 1591.93 1000.4 1595.68C996.672 1599.93 990.35 1597.79 989.435 1592.8L989.535 1557.96C988.855 1557.52 983.438 1562.18 977.56 1567.05C971.704 1571.95 965.483 1577.2 963.447 1578.02C958.925 1579.86 954.463 1577.69 954.639 1573.12C954.74 1570.47 957.738 1567.89 960.977 1565.35C964.216 1562.8 967.645 1560.24 968.684 1557.72C967.263 1558.64 964.926 1559.42 962.326 1559.92C959.715 1560.41 956.84 1560.59 954.366 1560.34C949.418 1559.83 946.083 1557.54 949.611 1552.28C951.101 1550.02 957.252 1547.23 963.698 1544.75C970.153 1542.28 977.028 1540.22 980.111 1539.54C974.821 1533.85 951.861 1534.37 949.411 1527.74C948.953 1519.31 954.6 1519.1 961.43 1520.97C968.271 1522.84 976.47 1526.88 980.988 1526.96L965.782 1497.46C965.31 1494.31 966.822 1491.87 969.028 1490.83C971.233 1489.78 974.09 1490.09 976.39 1492.49C983.248 1499.66 989.465 1514.86 994.73 1523.57C997.339 1523.48 996.219 1523.07 996.557 1521.9C998.194 1516 998.402 1493.18 1009.11 1494.93C1019.37 1496.52 1012.25 1514.44 1012.61 1521.19C1013.8 1522.04 1025.46 1506.46 1027.89 1505.37C1032.57 1503.27 1036.63 1509.11 1033.88 1513.22C1028.08 1520.42 1022.22 1527.66 1016.25 1534.87L1031.49 1531.86L1031.52 1531.85Z" fill="#1E3D34"/>
<path d="M1134.63 1453.09C1136.74 1451.24 1139.36 1446.69 1142.19 1442.95C1143.59 1441.07 1145.1 1439.42 1146.59 1438.36C1148.06 1437.3 1149.58 1436.87 1151.14 1437.5C1155.97 1439.47 1154.88 1443.82 1152.11 1448.27C1151.41 1449.38 1150.62 1450.51 1149.78 1451.57C1148.93 1452.64 1148.04 1453.67 1147.21 1454.63C1145.51 1456.56 1143.97 1458.22 1143.16 1459.33C1143.67 1461.81 1143.61 1460.77 1145 1460.69C1150.77 1460.43 1162.76 1454.67 1165.72 1461.46C1167.62 1465.83 1164.01 1468.23 1159.3 1469.71C1156.97 1470.46 1154.31 1470.92 1151.93 1471.27C1149.55 1471.63 1147.46 1471.88 1146.2 1472.18C1145.85 1472.83 1150.92 1477.44 1155.32 1482.66C1159.71 1487.89 1163.39 1493.73 1159.88 1497C1155.86 1500.73 1151.41 1497.59 1147.52 1493.63C1143.63 1489.69 1140.21 1484.9 1138.11 1485.46C1137.19 1491.59 1141.28 1503.88 1133.35 1506.54C1130.24 1507.6 1128.16 1506.9 1126.78 1505.16C1125.4 1503.44 1124.74 1500.7 1124.41 1497.64C1123.77 1491.53 1124.41 1484.09 1123.6 1480.89C1122.82 1480.47 1117.51 1484.68 1111.44 1488.29C1105.4 1491.93 1098.38 1494.68 1094.66 1491.49C1089.17 1486.76 1094.12 1481.35 1101.06 1476.75C1107.91 1472.05 1116.76 1468.12 1119.49 1466.38C1111.55 1461.42 1103.65 1456.35 1095.91 1451.3C1093.47 1449.13 1092.69 1444.8 1095.14 1442.53C1097.94 1439.96 1103.95 1442.53 1109.5 1445.44C1115.04 1448.36 1119.99 1451.5 1120.59 1450.37C1118.53 1446.05 1109.3 1433.55 1113.57 1429.36C1122.12 1420.91 1130.81 1448.01 1134.63 1453.1L1134.63 1453.09Z" fill="#B8E04A"/>
<path d="M1450.6 1287.02C1452.89 1285.51 1455.18 1281.43 1457.87 1278.18C1460.49 1274.85 1463.46 1272.28 1467.04 1273.73C1470.02 1274.93 1471.09 1276.9 1470.99 1279.3C1470.87 1281.68 1469.61 1284.52 1467.8 1287.3C1464.28 1292.95 1458.79 1298.46 1457.42 1301.51C1458.76 1302.78 1459.31 1301.92 1460.45 1301.6C1463.4 1300.79 1473.82 1296.58 1476 1297.01C1479.44 1297.79 1481.32 1301.72 1479.64 1304.63C1478.14 1307.25 1472.82 1309.45 1467.03 1310.88C1464.15 1311.61 1461.19 1312.21 1458.58 1312.65C1455.94 1313.08 1453.65 1313.39 1452.14 1313.6C1455.33 1315.65 1463.54 1318.33 1471.42 1321.01C1479.26 1323.68 1486.76 1326.37 1488.33 1328.98C1490.58 1332.68 1488.6 1336.79 1484.33 1337.33C1479.64 1337.9 1468.99 1331.68 1463.79 1329.93C1462.83 1329.61 1461.28 1328.54 1460.75 1329.73C1464.43 1333.67 1478.5 1344.07 1479.1 1348.78C1479.78 1354.12 1474 1356.62 1469.87 1353.71C1461.62 1345.58 1453.28 1337.57 1444.88 1329.67C1444.51 1329.71 1444.31 1331.31 1444.2 1333.77C1444.08 1336.22 1444.06 1339.54 1443.92 1342.92C1443.8 1346.31 1443.7 1349.88 1443.46 1352.75C1443.22 1355.63 1442.92 1357.89 1442.55 1358.77C1440.93 1362.72 1436.47 1363.58 1433.47 1360.17C1430.06 1356.26 1434 1346.09 1431.74 1341.42C1431.52 1342.87 1430.55 1344.67 1429.25 1346.45C1427.93 1348.21 1426.32 1349.97 1424.54 1351.08C1421.01 1353.35 1417.38 1353.4 1416 1347.77C1415.69 1346.56 1416.03 1344.67 1416.71 1342.44C1417.36 1340.17 1418.36 1337.56 1419.51 1335C1420.66 1332.43 1421.82 1329.79 1422.95 1327.6C1424.09 1325.41 1425.07 1323.55 1425.76 1322.45C1422.15 1322.03 1416.92 1324.9 1411.94 1327.47C1406.83 1329.91 1402.02 1332.08 1398.97 1330.27C1392.9 1324.52 1395.92 1321.6 1401.36 1319.53C1404.02 1318.44 1407.28 1317.52 1410.24 1316.58C1413.21 1315.65 1415.77 1314.58 1417.17 1313.4C1407.01 1309.51 1396.99 1305.48 1387 1301.17C1384.45 1299.24 1383.56 1296.89 1384.01 1295.11C1384.45 1293.32 1386.28 1292.13 1389.32 1292.6C1391.6 1292.94 1394.24 1293.64 1397.07 1294.51C1399.87 1295.38 1402.87 1296.43 1405.87 1297.53C1411.88 1299.73 1417.98 1302.12 1422.75 1303.54C1424.21 1302.03 1423.26 1302.39 1422.58 1301.43C1420.86 1299.02 1415.77 1294.01 1412.02 1289.09C1410.13 1286.62 1408.58 1284.18 1407.97 1282.06C1407.35 1279.95 1407.6 1278.09 1409.44 1276.88C1412.95 1274.53 1417.14 1277.13 1421.08 1280.9C1425.03 1284.66 1428.71 1289.63 1431.39 1291.69C1432.01 1291.61 1431.15 1287.35 1430.1 1282.86C1429.02 1278.33 1427.82 1273.65 1428.09 1272.58C1429.05 1268.42 1435.98 1269.53 1437.56 1273.8C1438.74 1277.87 1439.8 1281.89 1440.87 1285.99C1441.39 1288.03 1441.93 1290.12 1442.43 1292.17L1443.87 1298.35C1445 1296.47 1446.18 1294.64 1447.27 1292.72L1450.58 1287L1450.6 1287.02Z" fill="#A89FD8"/>
<path d="M1581.99 1312C1579.19 1316.42 1573.38 1319.03 1570.24 1314.64C1567.74 1311.14 1570.72 1304.07 1574.66 1296.86C1576.59 1293.23 1578.85 1289.61 1580.68 1286.36C1582.54 1283.12 1584.13 1280.31 1584.87 1278.42C1583.06 1278.64 1580.2 1279.93 1576.85 1281.69C1575.18 1282.56 1573.39 1283.55 1571.56 1284.58C1569.7 1285.59 1567.78 1286.64 1565.89 1287.66C1558.33 1291.78 1550.95 1295.21 1548.36 1293.95C1544.07 1291.87 1545.29 1287.07 1547.99 1283.66C1549.27 1282.06 1555.98 1278.14 1562.17 1274.2C1568.43 1270.31 1574.19 1266.44 1573.87 1265.74C1569.82 1265.2 1564.24 1265.89 1558.78 1266.42C1553.29 1266.94 1547.89 1267.28 1544.21 1266.26C1541.75 1265.58 1540.2 1263.85 1539.74 1261.85C1539.3 1259.85 1539.94 1257.55 1541.89 1255.66C1543.66 1253.95 1550.92 1253.5 1558.49 1253.36C1566.04 1253.22 1573.91 1253.43 1576.87 1253.39C1578.06 1252.61 1573.74 1249.15 1569.41 1244.91C1565.06 1240.65 1560.72 1235.64 1562.01 1231.61C1564.62 1223.15 1570.44 1225.93 1576.01 1230.79C1578.79 1233.22 1581.5 1236.18 1583.69 1238.47C1585.88 1240.74 1587.56 1242.35 1588.35 1242.06C1588.55 1238.53 1587.8 1232.51 1587.83 1226.87C1587.77 1221.2 1588.5 1215.9 1591.57 1213.58C1597.3 1209.26 1599.62 1214.11 1600.81 1220.79C1601.39 1224.12 1601.71 1227.91 1602.09 1231.22C1602.45 1234.51 1602.84 1237.31 1603.65 1238.67C1604.62 1237.29 1605.61 1235.08 1606.63 1232.56C1607.65 1230.04 1608.72 1227.23 1609.96 1224.69C1612.43 1219.59 1615.4 1215.49 1619.74 1216.87C1624.64 1218.42 1624.06 1223.28 1622.04 1228.61C1620.02 1233.93 1616.63 1239.7 1616.05 1243.22C1619.38 1242.27 1625.12 1238.76 1630.61 1236.27C1636.12 1233.8 1641.45 1232.37 1643.96 1235.86C1647.24 1240.47 1642.6 1245.35 1636.36 1249.41C1633.24 1251.44 1629.78 1253.29 1626.77 1254.85C1623.73 1256.41 1621.14 1257.69 1619.82 1258.65C1618.76 1259.42 1617.62 1259.3 1617.34 1261.22C1620.39 1262.69 1627.11 1263.94 1633.39 1265.58C1639.67 1267.23 1645.52 1269.3 1646.81 1272.56C1647.92 1275.29 1645.89 1279.81 1643.76 1281.65C1639.89 1285 1616.8 1277.11 1611.24 1276.55C1614.35 1282.03 1617.46 1287.57 1620.51 1293.18C1621.38 1296.99 1625.07 1304.57 1624.02 1308.49C1622.54 1313.66 1618.08 1315.62 1614.38 1313.14C1611.33 1311.09 1608.45 1304.47 1605.41 1297.67C1602.35 1290.85 1599.27 1283.9 1596.15 1280.89C1591.13 1290.2 1587.71 1303.4 1582.03 1312L1581.99 1312Z" fill="#1E3D34"/>
<path d="M1354.41 1484.96C1357.25 1485.53 1359.38 1491.05 1361.24 1493.17C1365.95 1498.54 1371.55 1503.15 1375.42 1509.21C1377.82 1508.03 1376.64 1508.13 1376.48 1506.89C1375.86 1502.09 1369.46 1486.42 1372.12 1483.18C1374.96 1479.76 1377.38 1479.32 1379.46 1480.62C1381.56 1481.93 1383.37 1485.09 1384.87 1488.86C1387.92 1496.43 1389.49 1506.4 1390.51 1509.17C1393.95 1505.02 1397.17 1500.64 1400.38 1496.35L1405.18 1489.91L1406.36 1488.31L1407.51 1486.66L1409.79 1483.35L1414.92 1480.33C1418.65 1480.71 1421.33 1484.6 1419.99 1488.27C1414.12 1497.98 1407.65 1507.32 1401.04 1516.82C1401.49 1518.23 1402.29 1517.85 1403.27 1518.15C1405.62 1518.84 1410.02 1519.26 1414.64 1519.53C1419.25 1519.8 1424.04 1519.91 1426.99 1520.02C1429.88 1520.16 1433.6 1519.27 1436.75 1519.33C1439.91 1519.39 1442.52 1520.38 1443.02 1524.23C1443.37 1526.86 1441.57 1528.7 1438.61 1530.02C1435.61 1531.24 1431.41 1531.89 1427.04 1532.24C1422.66 1532.58 1418.1 1532.64 1414.28 1532.68C1410.39 1532.64 1407.24 1532.63 1405.72 1533.01C1406.87 1536.05 1414.07 1541.9 1418.67 1547.49C1423.27 1553.08 1425.13 1558.52 1415.43 1560.86C1408.85 1562.43 1398.82 1546.55 1393.92 1543.25C1393.01 1543.26 1392.32 1549.72 1390.3 1556.07C1389.3 1559.23 1387.97 1562.38 1386.18 1564.63C1384.38 1566.86 1382.07 1568.11 1379.23 1567.66C1375.13 1567 1375.12 1561.88 1375.86 1556.27C1376.64 1550.71 1378.02 1544.42 1377.26 1541.58C1373.52 1542.77 1367.17 1548.63 1361.2 1552.81C1355.27 1557.06 1349.58 1559.15 1347.62 1553.08C1346.58 1549.91 1349.58 1548.58 1349.76 1545.95C1344.35 1549.35 1336.71 1545.62 1339.54 1539.69C1340.17 1538.37 1341.75 1537.01 1343.87 1535.67C1345.96 1534.27 1348.55 1532.84 1351.27 1531.5C1356.69 1528.8 1362.61 1526.39 1365.42 1524.55C1364.95 1522.91 1363.78 1523.35 1362.61 1522.98C1360.19 1522.24 1355.14 1521.76 1350.6 1520.81C1346.07 1519.87 1342.04 1518.46 1341.39 1515.88C1341.61 1509.29 1344.64 1508.11 1348.67 1508.49C1350.69 1508.7 1352.9 1509.23 1355.11 1509.69C1357.31 1510.15 1359.51 1510.52 1361.43 1510.36C1359.99 1507.75 1356.11 1503.96 1352.91 1500.02C1349.72 1496.08 1347.18 1492.02 1348.26 1488.95C1349.04 1486.77 1352.11 1484.52 1354.42 1484.98L1354.41 1484.96Z" fill="#8FBFB0"/>
<path d="M1714.47 1446.57C1717.19 1449.31 1717.1 1454.16 1715.06 1457.9C1713.06 1461.65 1709.29 1464.25 1704.95 1462.5C1698.94 1460.1 1692.66 1456.14 1686.99 1453.02C1683.29 1462.34 1684.66 1472.55 1680.69 1482.59C1678.87 1487.4 1675.46 1492.48 1672.17 1495.07C1668.88 1497.66 1665.7 1497.73 1664.02 1492.63C1663.44 1490.88 1664.65 1486.85 1665.88 1482.72C1667.15 1478.6 1668.27 1474.35 1667.87 1472.2C1666.58 1473.97 1665.18 1475.99 1663.7 1477.92C1662.17 1479.85 1660.57 1481.71 1658.95 1483.17C1655.7 1486.11 1652.35 1487.5 1649.33 1484.87C1647.57 1483.34 1647.84 1480.53 1649.18 1477.13C1650.51 1473.74 1652.93 1469.78 1655.34 1465.89C1657.76 1462 1660.37 1458.26 1662.06 1455.32C1663.76 1452.4 1664.68 1450.33 1663.92 1449.88C1662.03 1450.43 1659.4 1451.75 1656.47 1453.24C1653.53 1454.73 1650.24 1456.35 1647.13 1457.59C1640.9 1460.06 1635.36 1460.9 1633.98 1455.84C1631.89 1448.27 1642.71 1443.39 1647.74 1441.1C1643.33 1439.48 1631.65 1440.91 1633.91 1432.17C1634.74 1428.96 1636.56 1427.02 1638.97 1425.83C1641.36 1424.64 1644.29 1424.22 1647.39 1424.12C1653.57 1423.92 1660.3 1425.01 1663.92 1423.88C1662.68 1418.07 1661.34 1412.3 1659.99 1406.61C1658.65 1400.91 1657.12 1395.25 1655.63 1389.66C1655.3 1385.86 1657.06 1382.53 1659.39 1380.77C1661.74 1379.02 1664.68 1378.86 1666.59 1381.51C1668.89 1387.75 1671.15 1394.08 1673.24 1400.46C1675.35 1406.84 1677.46 1413.31 1679.35 1419.83C1680.21 1418.89 1681.19 1417.56 1682.26 1415.95C1683.3 1414.33 1684.43 1412.44 1685.61 1410.36C1686.8 1408.3 1688.05 1406.05 1689.33 1403.74C1690.58 1401.43 1691.85 1399.05 1693.12 1396.7C1694.4 1394.36 1695.67 1392.07 1696.93 1389.91C1698.14 1387.75 1699.35 1385.74 1700.52 1383.98C1702.85 1380.46 1705.06 1377.96 1706.93 1377.33C1714.17 1374.83 1714.94 1380.05 1713.11 1386.98C1712.22 1390.44 1710.77 1394.31 1709.21 1397.8C1707.65 1401.3 1706.07 1404.42 1705.07 1406.41C1707.61 1405.29 1711.28 1401.98 1714.88 1399.37C1718.42 1396.77 1721.9 1394.87 1724.15 1396.7C1726.24 1398.41 1726.4 1400.67 1725.46 1403.13C1724.52 1405.6 1722.41 1408.26 1720.08 1410.77C1715.45 1415.79 1709.68 1420.16 1709.78 1421.38C1712.22 1422.12 1717.32 1420.63 1721.54 1420.33C1725.7 1420.01 1729.07 1420.89 1727.86 1426.55C1726.36 1433.49 1721.72 1435.42 1716.55 1436.19C1711.33 1436.98 1705.61 1436.64 1701.85 1439.19C1705.28 1442.13 1711.38 1443.46 1714.45 1446.55L1714.47 1446.57Z" fill="#B8E04A"/>
<path d="M1517.91 1434.32C1518.38 1431.35 1517.58 1423.64 1517.93 1417.24C1518.14 1414.05 1518.69 1411.21 1520.01 1409.44C1521.28 1407.65 1523.31 1406.92 1526.51 1408C1529.93 1409.15 1530.93 1413.86 1531.07 1419.1C1531.17 1424.31 1530.47 1430.07 1530.88 1433.27C1533.2 1430.82 1535.97 1425.26 1538.84 1420.26C1541.7 1415.24 1544.86 1410.89 1548.28 1410.84C1555.62 1410.74 1554.61 1418.19 1550.72 1426.34C1548.86 1430.45 1546.18 1434.65 1543.72 1438.21C1541.28 1441.78 1538.89 1444.61 1537.55 1445.99C1540.42 1447.28 1548.62 1449.27 1555.09 1452.22C1561.53 1455.17 1566.34 1459.3 1561.98 1465.16C1559.65 1468.31 1555.89 1468.85 1552.16 1468.34C1548.4 1467.81 1544.65 1466.24 1542.33 1465.3C1540.05 1467.38 1541.29 1466.85 1541.71 1468.05C1543.01 1471.76 1548 1476.01 1543.32 1481.33C1535.84 1489.5 1529.98 1476.62 1527.16 1472.59C1526.04 1472.74 1524.8 1479.21 1522.3 1485.09C1521.67 1486.56 1520.98 1488 1520.18 1489.27C1519.38 1490.54 1518.44 1491.61 1517.44 1492.45C1515.42 1494.11 1513.02 1494.72 1510.16 1493.38C1507.48 1492.12 1507.39 1489.33 1508 1486.28C1508.59 1483.21 1509.91 1479.92 1509.93 1477.45C1508.98 1479.06 1507.8 1480.46 1506.59 1481.7C1505.37 1482.95 1504.09 1484.03 1502.82 1484.93C1500.28 1486.71 1497.76 1487.75 1495.82 1487.84C1491.96 1488.05 1490.43 1484.54 1495.35 1476.17L1494.35 1475.21C1490.44 1475.7 1486.66 1476.03 1486.1 1471.62C1485.61 1467.85 1488.78 1465.29 1492.73 1463.21C1496.57 1461.03 1501.23 1459.34 1503.78 1457.68C1498.5 1454.7 1489.65 1455.15 1488.81 1447.44C1490.6 1442.43 1493.58 1441.4 1498.19 1441.57C1500.56 1441.66 1502.94 1443.27 1504.96 1442.31C1503.07 1438.16 1492.3 1430.83 1494.86 1425.45C1496.38 1422.31 1498.2 1421.03 1500.24 1420.97C1502.28 1420.91 1504.53 1422.07 1506.73 1423.74C1511.16 1427.08 1515.44 1432.51 1517.89 1434.32L1517.91 1434.32Z" fill="#1E3D34"/>
<path d="M1446.83 1168.33C1446.35 1162.84 1438.16 1149.55 1443.9 1145.96C1448.37 1143.18 1451.22 1146.65 1453.15 1151.54C1455.09 1156.44 1456.05 1162.65 1456.88 1165.22C1459.18 1166.27 1458.31 1165.71 1459.06 1164.55C1459.81 1163.38 1460.56 1161.67 1461.35 1159.82C1462.12 1157.93 1462.95 1155.88 1463.92 1154.03C1465.86 1150.36 1468.27 1147.37 1471.89 1148.18C1481.22 1150.3 1471.08 1165.73 1469.07 1170.32C1469.4 1170.99 1476.08 1169.64 1482.88 1169.17C1489.66 1168.72 1496.55 1169.18 1497.15 1173.92C1497.83 1179.31 1492.71 1181.05 1487.19 1181.8C1481.68 1182.57 1475.85 1182.46 1475.11 1184.44C1479.58 1188.72 1491.89 1192.68 1489.42 1200.38C1487.47 1206.42 1482.36 1205.09 1477.03 1202.05C1471.7 1198.98 1466.07 1194.2 1463.01 1192.96C1462.6 1193.13 1462.5 1194.82 1462.44 1197.31C1462.37 1199.77 1462.38 1203.09 1462.05 1206.34C1461.74 1209.61 1461.22 1212.98 1460.11 1215.54C1459.02 1218.11 1457.42 1219.98 1455.06 1220.38C1448.13 1221.53 1446.6 1214.84 1446.78 1207.24C1446.82 1203.36 1447.37 1199.31 1447.83 1195.73C1448.3 1192.15 1448.81 1189.2 1448.89 1187.66C1444.6 1189.2 1440.32 1190.68 1436.06 1192.13C1431.8 1193.57 1427.5 1194.89 1423.26 1196.21C1420.14 1196.71 1416.17 1194.76 1415.73 1191.71C1415.48 1189.98 1416.73 1188.42 1418.73 1187C1420.72 1185.55 1423.44 1184.22 1426.19 1183.03C1431.69 1180.68 1437.13 1178.65 1436.55 1177.58C1431.85 1176.65 1416.42 1176.38 1415.48 1170.76C1414.99 1167.92 1416.32 1166.41 1418.65 1165.65C1420.99 1164.88 1424.37 1164.93 1428.01 1165.34C1435.29 1166.14 1443.64 1168.36 1446.83 1168.36L1446.83 1168.33Z" fill="#1E3D34"/>
<path d="M1725.51 1144.4C1724.29 1140.83 1721 1136.77 1717.74 1132.88C1714.45 1128.99 1711.2 1125.25 1710.09 1122.26C1707.91 1116.32 1712.03 1110.56 1717.48 1114.2C1718.68 1115.01 1722.9 1120.74 1726.89 1126.23C1730.89 1131.71 1734.72 1136.9 1735.29 1136.4C1735.28 1132.04 1733.99 1123.89 1733.07 1116.01C1732.19 1108.11 1731.66 1100.5 1733.5 1096.94C1735.94 1092.17 1741.73 1091.45 1744.33 1096.14C1746.82 1100.6 1747.58 1108.58 1747.7 1116.85C1747.82 1125.12 1747.25 1133.73 1747.19 1139.34C1749.16 1140.39 1748.71 1139.43 1749.58 1138.45C1754.73 1132.66 1763.93 1107.33 1772.17 1117.34C1774.19 1119.77 1771.56 1125.04 1768.21 1130.31C1764.85 1135.61 1760.69 1140.96 1759.7 1143.6L1775.3 1135.41L1790.85 1127.15C1798.58 1126.17 1800.68 1134.2 1793.99 1140.26C1784.86 1148.53 1768.82 1150.96 1759.42 1160.09C1768.02 1164.65 1779.06 1164.93 1787.52 1168.87C1790.79 1170.39 1794.38 1173.57 1792.37 1178.65C1788.18 1189.14 1768.92 1178.86 1761.97 1179.97C1766.58 1185.23 1771.15 1190.53 1775.67 1195.9C1774.27 1206.97 1769.96 1206.32 1765.89 1203.01C1761.8 1199.7 1757.82 1193.85 1757.03 1194.41C1756.66 1200.42 1760.26 1208.3 1758.98 1214.35C1757.86 1219.35 1753.75 1221.5 1750.28 1219.57C1748.4 1218.53 1746.36 1211.08 1744.28 1203.31C1742.26 1195.5 1740.2 1187.35 1738.79 1184.5C1737.14 1184.85 1733.83 1193.08 1730.24 1201.87C1726.66 1210.66 1722.82 1220.01 1720.61 1222.54C1715.78 1228.07 1709.88 1221.23 1712.49 1212.46C1715.85 1201.1 1724.56 1188.14 1728.67 1176.92C1728.45 1176.19 1722.6 1178.02 1716.38 1179.93C1710.16 1181.85 1703.57 1183.83 1701.81 1183.63C1700.38 1183.47 1699.01 1183.13 1697.96 1181.99C1694.91 1174.28 1700.4 1170.68 1707.62 1168.53C1714.85 1166.38 1723.89 1165.69 1727.97 1164.03C1729.11 1163.57 1729.56 1164.5 1729.78 1161.87L1698.25 1147.52C1694.43 1145.87 1694.22 1139.34 1697.06 1136.03C1701.23 1131.16 1720.26 1143.1 1725.53 1144.39L1725.51 1144.4Z" fill="#1E3D34"/>
<path d="M1608.06 733.419C1610.23 730.539 1612.21 724.474 1614.7 719.277C1617.2 714.08 1620.11 709.805 1623.91 710.576C1630.22 711.844 1628.89 719.271 1625.83 727.467C1624.33 731.558 1622.33 735.872 1620.65 739.691C1618.98 743.51 1617.56 746.847 1617.08 749.02C1618.66 750.061 1619.05 748.752 1620.19 747.91C1621.66 746.803 1624.87 744.007 1628 741.474C1631.14 738.941 1634.23 736.69 1635.39 736.638C1639.02 736.475 1641.39 740.523 1640.18 744.542C1639.12 748.173 1634.02 752.585 1628.5 756.617C1622.99 760.637 1616.96 764.291 1614.02 766.205C1617.66 767.253 1626.46 766.858 1634.9 766.84C1643.33 766.823 1651.36 767.183 1653.49 769.53C1656.47 772.84 1655.58 778.085 1651.51 780.31C1647.03 782.743 1634.96 780.151 1629.37 780.431C1628.35 780.477 1626.55 779.937 1626.32 781.569C1630.95 784.505 1647.54 790.148 1649.45 794.987C1651.61 800.465 1646.92 805.651 1642 804.41C1631.51 799.354 1621.03 794.249 1610.6 789.101C1609.88 789.603 1611.61 797.173 1613.5 805.157C1615.44 813.128 1617.54 821.503 1617.49 823.847C1617.32 829.09 1613.51 832.634 1609.38 830.627C1604.6 828.309 1604.86 814.413 1601.2 810.153C1602.02 817.483 1594.97 838.641 1588.19 827.293C1586.77 824.844 1586.68 817.481 1587.24 809.788C1587.51 805.942 1587.92 802.04 1588.38 798.636C1588.85 795.231 1589.34 792.366 1589.73 790.617C1585.97 792.097 1581.63 798.888 1577.44 805.252C1573.21 811.638 1569.16 817.576 1565.62 817.494C1557.74 814.494 1559.85 808.523 1564.61 802.084C1569.3 795.667 1576.63 788.842 1578.79 784.131C1567.61 785.112 1556.43 786.164 1545.22 787.288C1539.08 785.551 1539.2 776.366 1545.65 773.534C1555.38 769.254 1571.9 769.605 1582.18 768.103C1583.36 765.307 1582.47 766.288 1581.57 765.387C1577.13 760.932 1556.96 749.774 1564.05 738.765C1567.43 733.519 1572.15 735.119 1576.71 738.398C1581.29 741.666 1585.84 746.547 1588.92 747.981C1589.56 747.581 1587.96 742.348 1586.35 736.724C1584.72 731.112 1582.98 725.154 1583.19 723.533C1583.92 717.324 1591.25 716.024 1593.23 721.19C1594.77 726.197 1596.3 731.183 1597.93 736.125C1599.54 741.068 1601.12 745.992 1602.8 750.862C1604.48 745.061 1606.3 739.233 1608.07 733.419L1608.06 733.419Z" fill="#1E3D34"/>
<path d="M1743.73 731.06C1741.39 735.59 1736.1 738.92 1732.38 734.972C1730.89 733.388 1730.7 730.743 1731.31 727.533C1731.91 724.323 1733.24 720.539 1734.96 716.749C1738.28 709.142 1742.84 701.48 1744.17 697.627C1740.6 698.187 1732.9 703.257 1725.56 708.141C1721.89 710.578 1718.24 712.934 1715.22 714.581C1712.2 716.227 1709.75 717.138 1708.39 716.659C1703.93 715.067 1704.69 709.657 1707.33 705.725C1708.56 703.858 1715.08 698.901 1721.31 694.387C1727.47 689.837 1733.38 685.748 1733.04 685.023C1728.97 684.565 1723.33 685.468 1717.77 686.328C1712.23 687.187 1706.78 688.012 1703.03 687.199C1698.05 686.141 1696.64 680.078 1700.81 675.607C1702.69 673.58 1710.08 672.649 1717.74 672.295C1725.45 671.949 1733.39 672.174 1736.37 672.161C1737.61 671.365 1733.38 667.73 1729.27 663.17C1727.22 660.889 1725.19 658.367 1723.88 655.864C1723.22 654.612 1722.75 653.372 1722.54 652.16C1722.36 650.957 1722.44 649.802 1722.87 648.712C1726.48 639.611 1732.03 642.996 1737.12 648.433C1742.21 653.881 1746.87 661.289 1748.5 660.776C1748.96 657.172 1748.79 650.983 1749.36 645.111C1749.62 642.167 1750.17 639.36 1751.04 637.018C1751.92 634.677 1753.12 632.801 1754.83 631.793C1761.2 628.034 1762.73 633.331 1763.07 640.183C1763.33 647.008 1762.67 655.526 1764.09 658.375C1768.24 653.154 1774.18 634.779 1782.34 638.718C1786.97 640.953 1785.81 645.54 1783.25 650.419C1781.99 652.868 1780.31 655.346 1778.98 657.708C1777.62 660.061 1776.48 662.214 1776.08 663.904C1779.46 663.282 1785.28 660.428 1790.98 658.801C1796.66 657.155 1801.99 656.616 1804.15 660.203C1805.58 662.561 1805.05 664.677 1803.37 666.584C1801.71 668.5 1798.94 670.236 1795.78 671.799C1789.5 674.914 1781.67 677.347 1779.04 679.006C1777.97 679.675 1776.85 679.485 1776.53 681.311C1779.53 682.888 1786.15 684.483 1792.32 686.479C1798.48 688.475 1804.22 690.861 1805.5 693.886C1806.58 696.41 1804.71 700.278 1802.64 701.782C1798.95 704.48 1775.89 696.305 1770.38 695.691C1773.62 701.001 1776.88 706.251 1780.16 711.429C1781.26 714.983 1785.49 721.901 1784.76 725.417C1783.85 730.122 1779.71 732.05 1775.79 729.923C1772.61 728.194 1768.99 722.16 1765.54 715.818C1762.07 709.477 1758.6 702.736 1755.48 699.843C1750.78 709.092 1748.22 722.13 1743.73 731.08L1743.73 731.06Z" fill="#1E3D34"/>
<path d="M1613.2 1003.38C1615.62 1001.6 1621.01 1004.12 1623.83 1004.28C1630.95 1004.69 1638.21 1003.96 1645.22 1005.57C1646.17 1002.97 1645.37 1003.9 1644.39 1003.11C1640.63 1000.08 1625.21 993.051 1624.97 988.507C1623.93 969.404 1650.93 992.168 1656.18 994.765L1653.56 961.81L1655.64 955.981C1658.79 953.808 1663.3 955.177 1664.6 958.922L1669.05 993.107C1670.34 993.83 1670.67 993.015 1671.57 992.564C1675.95 990.415 1685.92 982.051 1690.43 978.505C1694.81 975.035 1699.55 966.755 1705.3 971.772C1713.14 978.608 1686.94 996.49 1683.59 1001.64C1689.47 1004.41 1720.43 999.202 1709.94 1014.66C1706.37 1019.92 1688.04 1015.7 1682.31 1016.75C1681.06 1017.98 1698.85 1036.66 1689.83 1043.39C1683.35 1048.2 1674.69 1030 1669.49 1027.16C1665.8 1034.02 1669.68 1061.57 1657.84 1056.44C1654.79 1055.12 1655.76 1052 1653.91 1050.09C1652.91 1056.38 1645.04 1059.7 1642.48 1053.6C1640.19 1048.14 1647.51 1030.51 1649.01 1023.86C1647.51 1023.04 1647.01 1024.22 1645.91 1024.82C1641.32 1027.34 1630.8 1038.51 1626.13 1035.88C1616.81 1026.34 1631.13 1022.94 1636.09 1016.72C1630.33 1015.1 1614.36 1017.41 1611.59 1011.14C1610.61 1008.91 1611.22 1004.82 1613.19 1003.36L1613.2 1003.38Z" fill="#B8E04A"/>
<path d="M1901.1 829.46C1904.49 831.15 1905.94 834.379 1905.38 836.956C1904.85 839.573 1902.34 841.577 1897.74 840.772C1891.43 839.664 1884.31 837.561 1878.04 835.96C1877.98 839.366 1879.2 842.795 1880.48 846.271C1881.77 849.746 1883.1 853.22 1883.33 856.884C1883.74 863.822 1879.8 872.518 1872.56 866.206C1870.05 863.996 1870.18 854.46 1867.74 851.597C1866.81 854.441 1865.8 858.01 1864.12 860.588C1862.43 863.176 1860.03 864.735 1856.24 863.474C1851.82 862 1852.54 855.361 1853.98 849.1C1855.4 842.79 1857.58 836.907 1855.85 836.434C1852.8 837.742 1848.08 841.647 1843.38 844.491C1838.68 847.324 1833.93 848.998 1830.77 845.536C1828.39 842.93 1829.2 840.201 1831.1 837.854C1833 835.516 1835.99 833.531 1837.93 832.323C1833.32 831.728 1823.03 834.802 1822.1 827.787C1820.77 817.426 1841.18 819.914 1847.14 817.495C1844.2 813.333 1841.26 809.14 1838.34 804.917C1835.45 800.722 1832.56 796.487 1829.68 792.222C1827.06 786.313 1833.25 781.211 1838.11 785.147C1845.38 794.591 1852.8 803.918 1860.29 813.102C1862.36 810.106 1864.41 802.467 1866.87 795.479C1868.08 791.952 1869.43 788.628 1870.85 786.042C1872.26 783.446 1873.78 781.616 1875.43 781.191C1888.22 777.846 1882.22 796.313 1880.59 802.142C1882.69 801.297 1885.25 798.839 1887.98 797.015C1890.71 795.182 1893.53 793.894 1896.08 795.201C1900.84 797.64 1898.81 801.385 1895.8 804.933C1892.76 808.433 1888.63 811.631 1889.1 812.501C1894.04 813.27 1906.36 807.943 1907.35 815.556C1908.68 824.946 1892.44 821.17 1887.11 825.213C1891.2 827.011 1897.25 827.551 1901.06 829.462L1901.1 829.46Z" fill="#8FBFB0"/>
<path d="M1717.34 861.722C1716.45 858.97 1712.33 852.568 1710.08 846.683C1707.85 840.807 1707.57 835.504 1714.29 835.143C1721.51 834.779 1725.03 850.637 1728.51 855.766C1730.64 849.885 1729.04 832.549 1735.45 830.34C1742.25 828.013 1743.9 834.806 1743.65 842.965C1743.38 851.135 1741.22 860.752 1740.06 864.017C1746.35 863.995 1772.57 858.976 1770.31 870.989C1769.12 877.469 1758.09 877.733 1753.14 877.956C1752.15 880.462 1752.97 879.575 1753.91 880.373C1756.84 882.835 1763.17 884.313 1761.79 890.16C1759.63 899.306 1748.04 891.748 1743.61 889.654C1741.82 890.835 1752.58 912.155 1740.17 913.212C1734.34 913.713 1733.79 904.759 1731.37 900.853C1731.32 914.399 1719.35 924.766 1718.47 906.607L1717.11 906.308C1714.12 908.584 1711.11 910.751 1708.26 907.465C1703.38 901.818 1713.33 892.643 1716.05 887.586C1710.03 887.456 1702.57 892.095 1698 885.953C1697.07 880.79 1699.16 878.443 1703.24 876.479C1705.33 875.474 1708.21 875.795 1709.54 874.074C1705.93 871.333 1692.97 869.832 1692.81 863.823C1692.46 849.695 1711.38 860.618 1717.35 861.732L1717.34 861.722Z" fill="#1E3D34"/>
<path d="M1806.2 1013.31L1792.64 1001.4C1791.98 979.409 1810.14 998.635 1816.69 1004.61C1817.18 1002.93 1817.46 999.858 1817.77 996.24C1818.08 992.633 1818.4 988.474 1818.97 984.595C1820.11 976.876 1822.24 970.244 1827.14 971.326C1831.76 972.31 1832.02 978.404 1831.19 985.118C1830.35 991.862 1828.42 999.246 1828.63 1002.79C1829.52 1004.38 1854.87 990.913 1860.88 993.406C1862.56 994.092 1863.76 996.381 1863.83 998.34C1864.1 1006.43 1848.51 1007.1 1844.12 1011.49C1851.26 1013.83 1860.1 1011.27 1866.13 1016.66L1864.92 1024.66C1861.82 1028.38 1837.4 1023.7 1832.02 1023.18C1838.33 1031 1844.63 1038.83 1850.91 1046.75C1847.22 1070.28 1826.87 1034.68 1825.44 1036.12C1824.67 1039.06 1825.05 1045.42 1824.58 1051.03C1824.08 1056.67 1822.74 1061.55 1818.54 1061.47C1809.77 1061.31 1813.43 1047.01 1813.02 1040.16L1803.91 1054.66C1793.64 1056.32 1794.73 1049.68 1798.23 1042.47C1801.73 1035.27 1807.66 1027.5 1807.2 1026.74C1802.06 1025.86 1788.57 1031.77 1787.21 1023.59C1785.4 1012.62 1800.21 1014.9 1806.19 1013.32L1806.2 1013.31Z" fill="#A89FD8"/>
<path d="M1616.18 570.331C1616.76 566.532 1616 559.979 1616.04 553.721C1616.1 547.492 1617.06 541.633 1620.74 539.256C1626.47 535.595 1628.14 540.586 1628.42 547.28C1628.57 550.627 1628.35 554.41 1628.13 557.794C1627.95 561.205 1627.74 564.207 1627.78 565.968C1629.87 567.405 1629.12 566.648 1630.27 565.075C1631.44 563.491 1632.7 561.172 1634.17 558.704C1635.63 556.236 1637.19 553.554 1638.83 551.148C1642.11 546.336 1645.65 542.664 1649.09 544.021C1653.54 545.773 1651.86 551.434 1648.64 557.424C1647.05 560.429 1645.02 563.493 1643.23 566.236C1641.47 568.998 1639.88 571.381 1639.02 572.931C1639.17 573.825 1646.57 572.122 1653.72 571.831C1660.91 571.549 1667.86 572.649 1667.17 578.576C1666.47 585.394 1660.72 587.283 1654.79 588.18C1648.86 589.076 1642.73 588.951 1641.46 591.561C1645.09 597.124 1657.04 602.103 1652.88 611.959C1649.61 619.713 1644.52 618.39 1639.52 614.72C1634.51 611.061 1629.63 604.994 1626.68 603.495C1626.2 603.766 1625.68 606.082 1625.07 609.472C1624.5 612.881 1623.82 617.356 1622.9 621.902C1621.99 626.448 1620.73 631.048 1619.23 634.779C1617.7 638.501 1615.74 641.342 1613.17 642.318C1605.58 645.241 1604.85 636.245 1606.38 625.305C1608.08 614.409 1611.87 601.556 1612.93 597.294C1610.45 598.576 1607.93 599.85 1605.47 601.172L1598.09 605.176C1593.17 607.87 1588.23 610.614 1583.28 613.398C1579.75 614.748 1575.85 612.64 1576.15 608.042C1576.48 602.802 1583.21 597.415 1589.73 593.079C1596.37 588.797 1602.78 585.537 1602.47 583.989C1597.75 582.94 1581.07 584.328 1581.8 575.967C1582.58 567.454 1589.45 565.984 1597.04 566.775C1604.61 567.537 1612.79 570.403 1616.19 570.311L1616.18 570.331Z" fill="#A89FD8"/>
<path d="M1897.72 600.843C1897.47 597.461 1895.38 592.879 1893.42 588.443C1891.45 584.007 1889.5 579.649 1889.34 576.694C1889.01 570.812 1894.56 567.43 1898.46 572.611C1899.33 573.753 1901.51 580.212 1903.7 586.25C1905.88 592.298 1908.07 597.926 1908.72 597.727C1909.86 594.172 1910.79 587.003 1912.21 580.123C1913.71 573.309 1915.65 566.755 1918.38 564.551C1922.15 561.599 1927.61 563.476 1928.43 568.364C1929.22 573.024 1927.61 579.853 1925.33 586.552C1924.15 589.888 1923.01 593.302 1921.85 596.377C1920.72 599.461 1919.66 602.261 1918.93 604.496C1920.49 606.058 1920.32 605.134 1921.36 604.667C1924.45 603.318 1929.7 598.448 1934.84 595.404C1940.06 592.388 1945.04 591.173 1947.41 596.783C1948.58 599.513 1944.74 602.478 1940.42 605.344C1936.07 608.182 1930.97 610.823 1929.4 612.525C1934.84 612.341 1940.25 612.189 1945.63 612.088C1951.02 611.986 1956.31 611.899 1961.72 611.927C1965.33 613.137 1967.1 615.47 1967.04 617.715C1966.98 619.959 1965.19 622.162 1961.48 623.109C1956.42 624.417 1950.08 624.011 1943.67 623.767C1937.33 623.551 1930.89 623.49 1925.58 625.41C1932.6 631.992 1942.73 636.142 1949.77 642.153C1952.52 644.492 1955.18 648.096 1952.54 651.168C1947.1 657.488 1930.87 643.28 1924.25 641.805C1927.64 647.409 1931.01 652.924 1934.52 658.422C1931.82 666.321 1927.91 664.504 1924.5 660.753C1921.09 657.002 1918.2 651.226 1917.37 651.413C1916.16 656.002 1918.54 663.103 1916.66 667.351C1915.15 670.852 1911.08 671.375 1907.99 668.941C1907.16 668.288 1906.43 666.378 1905.79 663.784C1905.47 662.487 1905.16 661.02 1904.88 659.451C1904.61 657.891 1904.4 656.239 1904.17 654.558C1903.3 647.84 1902.66 640.681 1901.79 637.937C1900.2 637.718 1895.77 643.343 1891.1 649.408C1886.54 655.518 1881.89 662.113 1879.5 663.611C1874.4 666.953 1869.3 659.985 1872.9 653.367C1875.22 649.099 1878.8 644.804 1882.77 640.732C1884.73 638.682 1886.71 636.651 1888.55 634.637C1889.48 633.634 1890.37 632.623 1891.21 631.625C1892.06 630.626 1892.89 629.658 1893.64 628.673C1893.58 628.025 1887.7 627.648 1881.52 627.405C1875.33 627.151 1868.71 626.978 1867.08 626.31C1865.75 625.769 1864.5 625.095 1863.71 623.819C1863 620.077 1864.11 617.795 1866.31 616.515C1868.54 615.244 1871.87 614.975 1875.5 615.182C1882.78 615.586 1891.39 617.913 1895.52 617.878C1896.67 617.867 1896.9 618.787 1897.65 616.682C1888.85 609.238 1880.14 601.751 1871.48 594.211C1868.28 591.542 1869.82 585.777 1873.36 583.876C1875.96 582.489 1880.88 586.032 1885.74 590.258C1890.61 594.485 1895.42 599.384 1897.72 600.833L1897.72 600.843Z" fill="#1E3D34"/>
<path d="M1996.13 194.097C1997.82 193.541 1999.9 192.296 2002.2 190.862C2004.5 189.447 2007 187.814 2009.45 186.423C2014.36 183.64 2019.09 181.826 2021.78 184.619C2026.23 189.254 2021.09 194.55 2014 199.432C2010.44 201.854 2006.45 204.265 2002.92 206.425C1999.39 208.575 1996.33 210.484 1994.71 211.988C1995.41 213.739 1996.47 212.9 1997.88 212.867C2001.55 212.743 2014.72 211.111 2016.66 212.356C2019.73 214.29 2019.41 218.969 2016.16 221.567C2013.22 223.921 2006.57 224.61 1999.73 224.717C1992.93 224.881 1985.93 224.444 1982.39 224.333C1984.77 227.279 1992.24 231.989 1999.16 236.784C2006.08 241.579 2012.45 246.469 2012.85 249.614C2013.42 254.043 2009.71 257.853 2005.06 257.33C1999.98 256.757 1991.54 247.717 1986.81 244.775C1985.95 244.234 1984.78 242.754 1983.66 243.985C1985.78 249.056 1996.15 263.165 1994.96 268.244C1993.6 274.001 1986.71 275.581 1983.37 271.757C1977.67 261.632 1972.01 251.465 1966.38 241.257C1965.52 241.275 1962.48 248.479 1959.46 256.252C1956.4 263.997 1953.26 272.145 1951.86 274.11C1948.68 278.437 1943.45 279.282 1941.19 275.289C1938.57 270.672 1946.88 259.038 1946.35 253.466C1944.55 256.74 1939.1 261.879 1934.22 264.53C1929.34 267.172 1924.99 267.337 1925.53 260.626C1925.77 257.772 1930.03 251.435 1934.99 245.287C1939.97 239.167 1945.58 233.13 1948.26 230.638C1944.3 229.754 1936.79 233.004 1929.55 235.971C1925.91 237.435 1922.38 238.905 1919.4 239.73C1916.4 240.555 1913.95 240.735 1912.51 239.718C1910.1 236.242 1910.24 233.533 1911.94 231.325C1913.64 229.117 1916.89 227.429 1920.77 226.084C1928.51 223.365 1938.45 221.698 1943.04 219.05C1933.22 213.484 1923.38 208.089 1913.46 202.708C1909.4 197.795 1914.88 190.072 1921.91 191.429C1932.41 193.4 1945.84 203.088 1955.15 207.676C1957.72 206.019 1956.42 206.328 1956.2 205.076C1955.11 198.879 1945.05 178.209 1957.08 173.205C1962.86 170.864 1965.77 174.887 1967.66 180.158C1969.55 185.429 1970.49 192.043 1972.21 194.989C1972.58 195.013 1973.19 193.714 1973.93 191.729C1974.68 189.753 1975.58 187.091 1976.49 184.337C1978.32 178.839 1980.27 172.996 1981.32 171.778C1985.33 167.114 1992.1 170.343 1990.82 175.626C1987.76 185.543 1984.8 195.416 1981.95 205.283C1986.65 201.509 1991.41 197.822 1996.14 194.086L1996.13 194.097Z" fill="#8FBFB0"/>
<path d="M2108.84 269.394C2104.36 271.877 2098.1 271.607 2097.26 266.259C2096.61 262.004 2102.57 257.002 2109.63 252.642C2113.14 250.442 2116.89 248.352 2120.16 246.514C2123.45 244.705 2126.29 243.136 2127.91 241.912C2124.6 240.379 2115.41 240.32 2106.64 240.263C2097.86 240.166 2089.39 239.905 2087.71 237.598C2084.9 233.75 2088.57 229.812 2092.9 228.036C2094.95 227.213 2103.04 226.761 2110.67 226.499C2118.3 226.227 2125.39 226.009 2125.51 225.243C2119.24 219.978 2104.78 215.892 2099.44 210.396C2095.89 206.721 2098.03 201.039 2103.83 199.648C2106.45 199.03 2113.06 202.328 2119.63 206.277C2126.21 210.216 2132.71 214.74 2135.23 216.359C2136.68 216.364 2135.09 211.03 2134.07 204.989C2133.04 198.959 2132.58 192.183 2136.28 189.485C2144.01 183.823 2146.93 189.618 2148.38 196.92C2149.83 204.213 2149.84 212.981 2151.47 213.408C2153.76 210.613 2156.88 205.298 2160.43 200.664C2163.99 196.06 2168.04 192.275 2171.98 192.349C2179.33 192.529 2177.92 197.798 2174.63 203.771C2172.99 206.768 2170.85 209.907 2169.13 212.767C2167.41 215.627 2166.06 218.12 2165.9 219.699C2167.49 219.176 2169.59 217.981 2171.92 216.595C2174.25 215.22 2176.87 213.731 2179.41 212.496C2184.5 210.055 2189.4 208.815 2191.88 212.618C2194.68 216.936 2191.24 220.234 2186.46 223.051C2184.07 224.469 2181.32 225.744 2178.9 227.013C2176.48 228.293 2174.35 229.52 2173.11 230.746C2176.32 232.004 2182.8 232.664 2188.58 234.257C2194.33 235.811 2199.23 238.124 2199.14 242.332C2199.09 245.107 2197.48 246.651 2194.99 247.413C2192.49 248.166 2189.18 248.214 2185.62 247.884C2178.53 247.23 2170.59 245.194 2167.43 245.155C2166.16 245.142 2165.31 244.379 2164.03 245.758C2167.41 251.643 2182.88 265.404 2181.64 271.986C2181.14 274.721 2177.35 277.043 2174.74 277.23C2170.06 277.57 2155.21 258.166 2150.91 254.625C2150.68 260.862 2150.48 267.086 2150.31 273.28C2149.23 276.882 2148.77 284.951 2146.19 287.579C2142.74 291.037 2138.16 290.342 2136.11 286.389C2134.44 283.151 2134.9 276.143 2135.57 268.866C2136.25 261.628 2137.16 254.15 2136.13 249.972C2127.04 255.054 2117.67 264.583 2108.85 269.403L2108.84 269.394Z" fill="#1E3D34"/>
<path d="M1848.59 430.032C1851.65 429.484 1855.2 434.28 1857.64 435.712C1863.8 439.34 1870.61 442.027 1876.04 446.738C1878.13 444.843 1876.98 445.305 1876.5 444.136C1874.63 439.675 1864.42 426.059 1866.51 421.791C1870.96 412.892 1876.19 416.842 1880.74 423.605C1885.29 430.368 1889.24 439.841 1890.92 442.228L1897.92 427.059C1900.26 421.979 1902.76 417.002 1905.2 411.948L1909.99 407.889C1913.83 407.597 1916.99 411.069 1916.19 414.999L1909.45 430.966C1907.25 436.29 1905.16 441.67 1903.03 446.99C1903.82 448.246 1904.5 447.685 1905.5 447.74C1907.94 447.861 1912.34 447.334 1916.81 446.682C1919.04 446.342 1921.3 445.991 1923.35 445.679C1925.42 445.376 1927.27 445.112 1928.69 444.909C1934.2 444.161 1942.29 439.544 1944.78 446.74C1946.51 451.648 1939.55 454.422 1931.54 456.533C1923.57 458.652 1914.37 460.005 1911.68 461.417C1913.61 464.024 1921.96 467.953 1927.77 472.267C1933.58 476.602 1936.84 481.19 1928.89 485.22C1923.47 487.956 1909.2 475.713 1903.66 473.919C1902.83 474.176 1904.18 480.382 1904.59 486.78C1904.95 493.16 1904.23 499.609 1898.79 500.484C1894.89 501.129 1892.88 496.554 1891.5 491.171C1890.11 485.798 1889.32 479.597 1887.65 477.159C1884.49 479.383 1880.67 486.962 1876.87 492.928C1873.02 498.857 1868.88 503.016 1864.58 498.254C1862.36 495.781 1864.56 493.37 1863.69 490.866C1860.1 496.102 1851.57 495.964 1851.79 489.278C1851.91 486.299 1855.58 481.53 1859.74 476.839C1860.78 475.672 1861.84 474.502 1862.89 473.364C1863.98 472.255 1865.03 471.167 1866.02 470.151C1868.01 468.11 1869.75 466.31 1870.85 464.98C1869.88 463.571 1868.89 464.407 1867.63 464.463C1865 464.581 1860.03 466.025 1855.33 466.927C1850.67 467.856 1846.27 468.234 1844.74 466.03C1843.7 462.813 1843.85 460.564 1844.75 458.962C1845.68 457.379 1847.36 456.443 1849.39 455.801C1853.46 454.518 1858.92 454.433 1862.6 452.707C1858.23 448.608 1842.77 443.696 1843.32 436.594C1843.42 435.328 1844.1 433.796 1845.08 432.531C1846.07 431.276 1847.35 430.287 1848.6 430.061L1848.59 430.032Z" fill="#1E3D34"/>
<path d="M2181.84 440.286C2183.64 443.618 2182.94 447.113 2180.98 448.953C2179.01 450.783 2175.83 451.026 2172.52 447.741C2167.97 443.22 2163.34 437.422 2159.1 432.526C2155.12 438.12 2155.24 446.453 2151.61 452.622C2149.86 455.574 2146.98 458.185 2144.23 458.919C2141.48 459.653 2138.9 458.548 2137.66 453.908C2136.82 450.733 2142.23 443.103 2141.83 439.387C2137.16 442.91 2130.62 448.688 2125.86 442.345C2120.23 434.87 2142.9 422.842 2140.65 420.22C2137.4 419.515 2131.29 420.019 2125.89 419.641C2120.47 419.243 2115.65 417.878 2115.01 413.262C2114.04 406.288 2123.73 406.294 2128.31 406.6C2124.87 403.481 2114.67 400.074 2117.92 393.832C2122.76 384.606 2138.04 398.255 2144.37 399.683L2144.43 384.275L2144.51 376.524L2144.68 368.798C2145.99 362.403 2154.1 361.579 2155.82 367.628C2156.33 379.697 2156.9 391.584 2157.75 403.538C2159.48 402.88 2161.85 401.202 2164.63 399.196C2167.4 397.18 2170.5 394.768 2173.6 392.487C2176.68 390.197 2179.81 388.104 2182.57 386.709C2185.32 385.305 2187.7 384.597 2189.35 385.124C2195.76 387.189 2194.87 391.413 2191.79 395.565C2190.25 397.646 2188.15 399.703 2186.15 401.494C2184.17 403.305 2182.27 404.841 2181.05 405.807C2183.31 406.266 2186.9 405.645 2190.28 405.583C2193.68 405.541 2196.83 406.01 2198.18 408.542C2200.68 413.255 2196.66 415.377 2192.05 416.685C2187.41 417.974 2182.07 418.353 2181.94 419.32C2185.58 422.811 2199.05 425.15 2195.29 432.185C2193 436.482 2189.08 435.547 2184.89 433.613C2180.69 431.669 2176.19 428.677 2172.82 428.818C2175.15 432.638 2179.82 436.532 2181.85 440.285L2181.84 440.286Z" fill="#1E3D34"/>
<path d="M2012.88 361.795C2013.7 359.055 2013.85 351.441 2015.31 345.319C2016.75 339.189 2019.58 334.707 2025.3 338.225C2028.38 340.119 2028.38 344.833 2027.63 349.822C2026.85 354.782 2025.43 360.141 2025.39 363.216C2030.38 359.569 2038.91 344.532 2045.38 346.314C2052.25 348.268 2049.8 354.814 2045.01 361.345C2040.16 367.829 2033.1 374.502 2030.32 376.508C2032.91 378.294 2040.32 381.836 2045.98 386.047C2051.64 390.247 2055.58 395.086 2051.39 399.318C2049.13 401.591 2045.69 401.215 2042.29 399.946C2038.91 398.696 2035.55 396.545 2033.46 395.247C2031.29 396.735 2032.44 396.483 2032.79 397.659C2033.88 401.314 2038.3 406.081 2034.02 410.027C2027.32 416.203 2021.78 403.608 2019.25 399.417C2018.18 399.375 2017.01 405.244 2014.81 410.327C2012.61 415.421 2009.31 419.693 2003.87 416.723C1998.72 413.911 2003.01 406.311 2003.11 401.773C2001.28 404.547 1998.94 406.715 1996.61 408.21C1994.31 409.725 1991.99 410.539 1990.16 410.522C1986.51 410.495 1984.81 407.137 1989.26 399.361L1988.28 398.363C1984.58 398.609 1980.92 398.793 1980.29 394.487C1979.73 390.788 1982.83 388.428 1986.65 386.644C1990.48 384.861 1995.03 383.676 1997.53 382.333C1992.61 378.88 1983.87 378.621 1983.43 370.983C1985.46 366.147 1988.55 365.398 1993.03 366.048C1995.32 366.386 1997.54 368.258 1999.58 367.576C1998.11 363.298 1988.21 354.823 1991.43 349.724C1993.3 346.716 1995.35 345.724 1997.39 345.983C1999.44 346.231 2001.48 347.711 2003.41 349.697C2007.27 353.668 2010.73 359.639 2012.89 361.784L2012.88 361.795Z" fill="#B8E04A"/>
<path d="M2012.63 531.796C2010.38 526.412 2008.11 520.978 2005.98 515.568C2014.87 497.992 2021.94 522.58 2025.09 530.507C2026.19 529.477 2027.7 527.277 2029.48 524.655C2031.24 522.023 2033.26 518.97 2035.45 516.319C2039.81 510.978 2044.49 506.984 2048.1 510.466C2054.92 517.027 2038.38 529.691 2035.95 535.355C2035.99 536.204 2042.77 537.372 2049.96 539.031C2057.13 540.662 2064.88 542.907 2066.87 545.431C2067.98 546.842 2068.06 549.181 2067.31 550.656C2064.35 556.805 2051.03 549.034 2045.54 550.021C2050.66 555.497 2059.11 558.271 2062.12 565.404C2060.74 567.117 2059.44 568.867 2058.13 570.618C2054.17 571.716 2035.16 555.681 2030.79 552.544C2031.98 557.095 2033.21 561.625 2034.45 566.123C2035.73 570.641 2037.06 575.146 2038.39 579.621C2032.81 587.278 2028.62 582.141 2025.7 575.034C2022.77 567.938 2021.16 558.791 2020.31 558.96C2018.58 560.809 2016.63 565.781 2014.22 569.733C2011.86 573.713 2009.1 576.74 2005.46 574.66C2001.67 572.508 2001.79 569.159 2003.12 565.656C2003.45 564.781 2003.85 563.892 2004.3 563.021C2004.76 562.149 2005.26 561.296 2005.74 560.454C2006.7 558.779 2007.63 557.196 2008.17 555.84C2003.8 558.008 1999.38 560.188 1995.09 562.473C1990.34 560.654 1988.77 558.612 1989.09 556.505C1989.42 554.408 1991.64 552.247 1994.52 550.346C2000.27 546.505 2008.24 543.445 2008.18 542.646C2006.14 541.006 2001.65 539.646 1997.93 537.841C1994.2 536.036 1991.21 533.758 1992.23 530.198C1995.14 520.719 2006.92 529.96 2012.64 531.806L2012.63 531.796Z" fill="#1E3D34"/>
<path d="M2086.2 67.2448C2090.62 61.7614 2095.78 44.3926 2103.99 44.4249C2110.33 44.4611 2109.5 49.4332 2106.76 55.102C2104 60.7712 2099.3 67.1381 2097.74 70.0205C2098.81 72.3252 2098.54 71.2961 2100.22 70.6505C2106.97 68.0251 2120.81 57.4551 2125.31 63.3292C2131.12 70.8968 2109.54 78.5808 2103.8 81.7613C2103.5 82.5653 2110.41 85.1987 2116.49 88.8102C2122.57 92.4111 2127.84 96.9895 2124.5 101.544C2116.91 111.924 2101.69 95.4094 2097.06 98.2195C2097.39 104.721 2104.87 115.297 2096.62 121.092C2090.14 125.657 2086.6 121.772 2084.28 116.02C2081.95 110.278 2080.87 102.659 2079.16 99.8227C2078.63 99.7765 2077.11 101.386 2074.96 103.785C2072.83 106.203 2070.1 109.438 2067.12 112.575C2064.14 115.722 2060.9 118.76 2057.78 120.881C2054.68 123.023 2051.66 124.199 2049.07 123.544C2041.44 121.624 2045.35 113.961 2052 106.085C2058.67 98.2689 2068.01 90.1527 2070.88 87.2411L2062.94 86.2357L2054.99 85.3211L2039 83.575C2035.5 82.6711 2033.36 78.7929 2035.79 75.3007C2038.55 71.3329 2046.56 70.8039 2053.95 71.0133C2061.35 71.2517 2068.13 72.149 2068.6 70.7366C2065.22 67.3044 2050.99 59.1836 2055.46 52.887C2060.03 46.476 2066.34 49.1263 2072.17 53.93C2078 58.6937 2083.39 65.479 2086.22 67.2539L2086.2 67.2448Z" fill="#1E3D34"/>
<path d="M2313.38 235.238C2316.32 228.779 2315.26 215.063 2317.9 209.58C2320.5 204.127 2327.24 203.585 2328.27 209.995C2328.49 211.407 2327.29 218.217 2326.26 224.67C2325.22 231.133 2324.33 237.239 2325.03 237.358C2330.73 231.897 2343.23 212.948 2350.45 211.243C2355.36 210.162 2359.54 214.189 2357.92 219.056C2354.87 228.352 2338.31 241.227 2330.93 248.094C2331.56 250.218 2331.89 249.293 2333.09 249.329C2340.19 249.551 2362.75 240.942 2361.41 253.395C2360.81 259.417 2341.14 258.327 2336.42 260.101C2346.7 264.555 2356.9 269.052 2367.01 273.594C2372.53 278.902 2368.83 285.324 2360.79 283.893C2355.29 282.918 2349.55 279.792 2343.69 276.752C2337.89 273.758 2331.95 270.851 2326.06 270.265C2329.01 279.482 2336.13 287.822 2339.37 296.515C2340.63 299.882 2341.16 304.493 2336.92 306.135C2328.2 309.508 2321.2 289.061 2315.89 284.685C2315.91 291.351 2315.92 297.977 2316.02 304.639C2309.04 310.678 2306.5 307.208 2305.5 302.178C2304.5 297.137 2305.09 290.515 2304.24 290.302C2300.57 293.93 2298.79 301.598 2294.63 304.587C2291.21 307.042 2287.2 305.561 2285.81 301.879C2285.06 299.891 2287.59 293.581 2290.52 287.023C2293.45 280.466 2296.77 273.65 2297.48 270.766C2294.84 268.872 2269.14 282.907 2263.21 283.283C2256.75 283.733 2256.18 275.05 2263.04 270.908C2267.46 268.217 2273.11 266.232 2278.82 264.365C2281.67 263.426 2284.54 262.527 2287.29 261.572C2288.67 261.1 2290.01 260.61 2291.31 260.101C2292.63 259.621 2293.9 259.114 2295.1 258.57C2295.39 257.946 2290.27 254.892 2284.82 251.733C2279.4 248.593 2273.57 245.291 2272.47 243.909C2271.57 242.788 2270.81 241.6 2270.78 240.081C2272.1 236.387 2274.27 234.879 2276.91 234.781C2279.58 234.711 2282.7 236.033 2285.86 237.923C2292.21 241.712 2298.78 247.814 2302.58 249.716C2303.63 250.239 2303.35 251.173 2305.16 249.63L2293.04 217.281C2291.51 213.395 2295.73 208.901 2299.87 208.806C2305.9 208.676 2310.68 230.534 2313.4 235.227L2313.38 235.238Z" fill="#A89FD8"/>
<path d="M2641.89 -4.30551C2636.91 -3.01085 2630.91 -4.85417 2631.47 -10.2446C2632.34 -18.8924 2659.63 -23.1689 2667.09 -26.4363C2661.36 -30.9543 2631.5 -34.9908 2629.36 -40.3502C2627.61 -44.7563 2632.02 -47.6471 2636.56 -48.2909C2640.86 -48.9044 2667.95 -41.7504 2668.53 -43.1976C2663.61 -49.7539 2650.65 -57.1107 2646.8 -63.7249C2644.23 -68.1342 2647.49 -73.1253 2653.29 -73.0953C2658.55 -73.0807 2675.68 -53.9289 2679.84 -49.6707C2682.64 -49.0155 2678.23 -71.8711 2686.36 -75.5791C2703.35 -83.3174 2693.21 -50.5407 2696.21 -49.0136C2701.81 -53.5386 2712.63 -67.2068 2720.26 -65.497C2734.49 -62.311 2710.92 -45.9388 2708.99 -39.8663C2715.68 -40.6168 2732.47 -50.2083 2735.9 -41.8035C2739.79 -32.2582 2719.7 -31.3775 2713.79 -27.5692C2719.55 -23.8535 2739.09 -19.4342 2737.2 -11.1512C2734.71 -0.228565 2711.33 -13.1848 2705.11 -14.5672C2703.84 -14.8509 2703.18 -15.7722 2701.61 -14.7007C2703.61 -8.21384 2715.95 8.50031 2713.19 14.68C2712.05 17.2638 2707.68 18.7508 2705.03 18.3991C2700.25 17.7627 2690.06 -4.44324 2686.65 -8.8449L2681.65 9.23726C2679.7 12.5077 2677.28 20.3739 2674.03 22.3117C2669.71 24.8878 2665.34 23.1315 2664.34 18.8021C2662.68 11.7093 2673.3 -8.08643 2673.23 -16.7017C2663.19 -13.7591 2651.71 -6.80798 2641.9 -4.2962L2641.89 -4.30551Z" fill="#1E3D34"/>
<path d="M2345.53 59.4616C2348.48 60.2303 2349.8 66.0469 2351.43 68.3564C2355.53 74.1884 2360.61 79.4362 2363.66 85.9464C2366.3 85.0671 2365.08 85.0217 2365.1 83.7594C2365.18 78.9208 2361.3 62.3583 2364.83 59.3473C2379.66 46.8203 2377.77 82.1603 2378.97 87.8724L2403.74 65.7506L2409.66 63.8636C2413.3 65.0719 2414.91 69.4841 2412.7 72.7966L2388.15 97.0705C2388.36 98.5323 2389.21 98.294 2390.12 98.7441C2394.51 100.92 2407.17 103.795 2412.68 105.25C2418.07 106.66 2427.44 105.439 2426.93 113.059C2426.59 118.25 2419 118.29 2410.68 117.112C2402.37 115.933 2393.33 113.535 2390.28 113.762C2390.99 116.923 2397.09 123.867 2400.69 130.142C2404.3 136.427 2405.4 141.963 2396.29 142.551C2390.09 142.939 2382.08 125.921 2377.75 122.041C2376.87 121.931 2375.56 128.245 2373.17 134.199C2370.76 140.162 2367.28 145.754 2361.91 144.293C2354.15 142.209 2362.69 124.228 2361.72 118.406C2357.89 119.098 2351.2 124.383 2345.19 128.196C2339.14 131.95 2333.6 133.981 2331.78 127.806C2330.84 124.605 2333.86 123.368 2334.15 120.713C2328.68 123.961 2321.06 120.068 2324.14 114.174C2325.52 111.53 2330.82 108.79 2336.53 106.322C2337.95 105.707 2339.41 105.102 2340.84 104.537C2342.27 103.992 2343.68 103.459 2345.01 102.959C2347.66 101.959 2349.97 101.064 2351.52 100.324C2351.22 98.6458 2349.99 98.9816 2348.82 98.5032C2346.4 97.5009 2341.3 96.7081 2336.71 95.5028C2332.13 94.3367 2328.04 92.7984 2327.58 90.1563C2327.99 86.8146 2329.03 84.8559 2330.5 83.8093C2331.97 82.7822 2333.86 82.6577 2335.94 82.9446C2340.11 83.5284 2345.07 85.7686 2349.09 85.7684C2346.8 80.2454 2334.9 69.2377 2338.23 63.1124C2339.41 60.9372 2343.12 58.8189 2345.52 59.442L2345.53 59.4616Z" fill="#B8E04A"/>
<path d="M2664.67 180.869C2666.13 188.331 2656.78 194.106 2652.2 185.993C2649.03 180.399 2646.25 173.517 2643.57 167.631C2637.45 172.11 2634.57 180.387 2628.51 185.493C2622.68 190.369 2612.66 192.801 2613.59 183.08C2613.91 179.732 2622.26 173.652 2623.2 169.906C2617.1 172.121 2608.29 176.07 2605.73 168.517C2602.74 159.702 2630.14 154.009 2628.78 150.797C2622.54 147.703 2603.18 146.479 2605.05 137.116C2606.47 130.055 2616.26 132.729 2620.84 134.216C2618.39 130.262 2609.23 124.195 2614.61 118.98C2622.52 111.287 2633.55 128.681 2639.57 131.634C2642.93 121.574 2646.27 111.474 2649.75 101.428C2653.02 95.4854 2661.53 96.6652 2661.47 103.005C2658.3 114.938 2655.1 126.814 2652.05 138.762C2660.02 137.805 2684.51 124.434 2690.71 127.98C2702.81 134.915 2681.85 143.863 2675.51 146.569C2679.94 148.513 2691.41 147.528 2692.63 153.159C2694.9 163.608 2672.91 158.288 2671.97 160.162C2674.58 164.469 2688.09 169.859 2681.71 176.001C2673.89 183.519 2666.35 168.732 2659.18 167.382C2660.3 171.726 2663.85 176.692 2664.68 180.899L2664.67 180.869Z" fill="#1E3D34"/>
<path d="M2522.3 57.1121C2523.98 54.7647 2526.64 47.5583 2529.99 42.2227C2533.34 36.8776 2537.42 33.4713 2541.78 38.6009C2546.47 44.1168 2535.85 56.5246 2533.81 62.4218C2539.82 60.5407 2552.85 48.7856 2558.53 52.4848C2564.57 56.4282 2560.12 61.9333 2553.33 66.7119C2546.53 71.4514 2537.46 75.6018 2534.11 76.6527C2537.89 81.6685 2557.88 99.4714 2546.7 105.037C2540.69 108.03 2533.84 99.3577 2530.68 95.5352C2528.05 96.2537 2529.27 96.3793 2529.18 97.6144C2528.95 101.439 2531.53 107.399 2525.95 109.782C2517.19 113.517 2516.41 99.6985 2515.47 94.8861C2513.41 94.1274 2502.67 115.59 2494.42 106.22C2490.54 101.829 2497.42 96.0554 2499.13 91.7745C2488.2 99.8222 2472.74 96.3212 2486.83 84.8386L2486.26 83.5727C2482.65 82.5234 2479.12 81.4006 2480.07 77.1538C2481.7 69.8732 2495 72.3903 2500.69 71.5247C2497.19 66.6162 2489.03 63.4184 2491.24 56.0619C2494.83 52.2077 2497.98 52.5366 2501.99 54.6292C2504.04 55.7085 2505.52 58.2151 2507.69 58.2478C2507.74 53.7211 2501.2 42.4423 2505.92 38.7172C2517 29.9722 2519.62 51.657 2522.3 57.1121Z" fill="#1E3D34"/>
<path d="M2455.45 218.298L2456.32 200.491C2472.63 187.007 2468.8 212.885 2468.23 221.619C2469.77 221.029 2472.25 219.457 2475.16 217.584C2478.07 215.702 2481.42 213.51 2484.77 211.738C2491.44 208.156 2497.84 205.997 2499.91 210.559C2503.82 219.172 2481.65 225.582 2476.7 230.128C2476.34 230.965 2482.49 234.473 2488.89 238.571C2495.28 242.659 2502.04 247.441 2502.86 250.557C2503.33 252.298 2502.3 254.586 2500.85 255.762C2494.94 260.692 2485.28 248.572 2479.39 247.595C2481.89 254.68 2489.02 260.297 2488.62 268.243L2482.06 271.86C2477.52 271.513 2466.39 249.269 2463.56 244.671L2460.62 258.987L2457.88 273.364C2448.54 278.698 2447.03 272.189 2447.66 264.283C2448.28 256.387 2451.1 247.072 2450.18 246.913C2445.02 249.146 2433.03 262.947 2428.04 256.214C2422.82 249.201 2435.13 243.753 2439.83 239.399L2423.97 240.681C2416.54 233.546 2421.93 230.502 2429.25 229.032C2436.57 227.573 2445.75 227.682 2446.07 226.897C2443.62 222.242 2431.18 215.052 2436.38 209.122C2443.49 201.286 2450.71 214.416 2455.45 218.278L2455.45 218.298Z" fill="#1E3D34"/>
</g>
<defs>
<clipPath id="clip0_171_4594">
<rect width="2730.49" height="2990.25" fill="white" transform="translate(2861.68 2755.25) rotate(177.433)"/>
</clipPath>
</defs>
</svg>
