<svg width="256" height="261" viewBox="0 0 256 261" fill="none" xmlns="http://www.w3.org/2000/svg">
<path d="M218.726 105.079C220.516 104.642 224.853 99.7527 230.107 98.2703C247.728 93.3341 264.123 97.8944 249.909 115.146L167.535 136.611C175.211 147.212 208.738 142.25 214.835 148.093C247.132 179.133 148.983 154.654 146.232 157.898C153.525 168.733 195.528 216.212 185.516 226.533C182.727 229.394 174.676 228.432 170.353 225.394C155.776 215.083 146.249 179.442 127.425 170.176C123.547 185.162 133.467 255.348 122.003 260.572C109.299 262.337 108.772 248.391 106.997 240.12C101.493 214.407 109.91 184.03 103.579 157.897C91.8445 166.065 46.5038 227.573 35.6483 222.566C35.5428 218.528 30.6713 215.093 30.1749 212.226C27.4751 196.412 78.9059 149.492 90.9254 137.091L3.32397 122.13L0.00020518 106.714C3.69798 95.5118 72.1072 106.98 84.7665 106.356C87.9836 101.73 51.4218 36.1412 47.9931 25.4694C43.4516 11.3905 54.9603 4.63445 66.0116 14.9107C82.3029 30.0701 91.8608 76.5958 113.903 91.9689C123.758 90.0331 144.847 17.1465 152.476 7.81087C157.655 1.46443 162.421 0.86067 170.029 -0.000240384C183.546 8.92319 130.893 101.836 134.796 121.898C162.512 115.446 191.108 111.823 218.802 105.064L218.726 105.079Z" fill="#1E3D34"/>
</svg>
