<svg width="520" height="535" viewBox="0 0 520 535" fill="none" xmlns="http://www.w3.org/2000/svg">
<path d="M254.129 119.758C381.733 102.28 468.442 238.409 382.03 344.717C280.303 469.859 76.1708 396.682 115.029 234.973C127.416 183.432 202.714 126.757 254.129 119.758ZM262.868 138.72C236.948 139.908 196.139 163.833 176.625 180.929C52.4148 289.697 206.787 456.793 338.124 356.255C443.202 275.825 391.193 132.866 262.868 138.677V138.72Z" fill="#1E3D34"/>
<path d="M511.929 104.826L519.013 116.364C519.565 120.776 516.51 122.642 514.135 125.442C511.377 128.666 445.836 167.439 441.552 168.542C435.316 170.154 427.51 167.779 426.365 162.391C422.929 146.144 499.796 115.516 511.929 104.783V104.826Z" fill="#1E3D34"/>
<path d="M199.825 90.828L185.911 3.01628C204.916 -16.2005 217.345 62.3634 217.897 70.7628C218.915 85.7799 216.794 92.7793 199.783 90.828H199.825Z" fill="#1E3D34"/>
<path d="M411.554 126.839C408.288 128.663 394.755 128.535 394.034 127.814C386.398 120.433 425.002 61.3829 433.231 63.1221C452.915 67.3642 414.736 125.057 411.554 126.839Z" fill="#1E3D34"/>
<path d="M70.3144 465.318C61.5332 456.876 124.953 389.257 130.383 416.873C125.674 429.09 81.8531 476.39 70.3144 465.318Z" fill="#1E3D34"/>
<path d="M32.3081 300.216C48.004 298.646 59.7124 295.041 70.1905 310.439C70.1905 330.632 -23.264 324.226 5.49772 305.773C14.0669 303.906 23.7814 301.107 32.3505 300.258L32.3081 300.216Z" fill="#1E3D34"/>
<path d="M276.146 460.743C294.175 456.967 290.654 532.562 280.643 534.683C262.614 538.458 266.135 462.864 276.146 460.743Z" fill="#1E3D34"/>
<path d="M466.918 401.562C491.056 445.383 401.632 392.442 417.116 377.467C427 371.316 464.288 396.769 466.918 401.562Z" fill="#1E3D34"/>
<path d="M109.682 72.3731C123.385 68.0461 161.097 113.649 141.88 118.57C132.166 121.072 108.707 93.5412 104.889 86.2872C100.647 78.1847 104.168 77.4212 109.682 72.3731Z" fill="#1E3D34"/>
<path d="M454.148 349.682C452.282 325.459 468.911 328.938 481.849 342.852C479.262 360.414 465.56 352.609 454.148 349.682Z" fill="#1E3D34"/>
<path d="M262.863 138.718C391.188 132.906 443.197 275.865 338.119 356.296C206.782 456.834 52.4105 289.737 176.621 180.969C196.134 163.873 236.944 139.906 262.863 138.76V138.718Z" fill="#B8E04A"/>
</svg>
