<svg xmlns="http://www.w3.org/2000/svg" width="133" height="137" viewBox="0 0 133 137" role="img" aria-label="Joshua Tree Health logo asset">
<path d="M 108.0 132.0 L 111.0 133.0 L 112.0 132.0 L 112.0 131.0 L 109.0 131.0 Z " fill="#b7b3af" fill-rule="evenodd"></path>
<path d="M 85.0 130.0 L 84.0 131.0 L 84.0 133.0 L 87.0 133.0 L 87.0 131.0 L 86.0 130.0 Z " fill="#bdbacf" fill-rule="evenodd"></path>
<path d="M 92.0 130.0 L 92.0 134.0 L 93.0 134.0 L 96.0 132.0 L 97.0 133.0 L 97.0 134.0 L 98.0 133.0 L 99.0 133.0 L 100.0 134.0 L 102.0 134.0 L 104.0 132.0 L 104.0 130.0 L 103.0 129.0 L 103.0 128.0 L 101.0 128.0 L 99.0 130.0 L 98.0 130.0 L 97.0 129.0 L 96.0 130.0 L 94.0 128.0 L 93.0 128.0 L 93.0 129.0 Z " fill="#b7b3b0" fill-rule="evenodd"></path>
<path d="M 54.0 131.0 L 54.0 133.0 L 55.0 134.0 L 68.0 134.0 L 69.0 135.0 L 71.0 132.0 L 72.0 133.0 L 72.0 134.0 L 76.0 134.0 L 77.0 133.0 L 78.0 134.0 L 79.0 133.0 L 79.0 131.0 L 77.0 131.0 L 76.0 130.0 L 77.0 129.0 L 76.0 128.0 L 75.0 128.0 L 74.0 129.0 L 70.0 129.0 L 69.0 128.0 L 68.0 128.0 L 68.0 130.0 L 67.0 131.0 L 66.0 131.0 L 65.0 130.0 L 64.0 130.0 L 63.0 131.0 L 62.0 131.0 L 61.0 130.0 L 60.0 131.0 L 59.0 130.0 L 59.0 129.0 L 60.0 128.0 L 61.0 128.0 L 58.0 129.0 L 58.0 130.0 L 57.0 131.0 L 56.0 130.0 L 56.0 129.0 L 55.0 129.0 L 55.0 130.0 Z M 66.0 133.0 L 67.0 132.0 L 68.0 133.0 L 67.0 134.0 Z M 69.0 131.0 L 70.0 130.0 L 71.0 131.0 L 70.0 132.0 Z " fill="#bebbb8" fill-rule="evenodd"></path>
<path d="M 27.0 129.0 L 27.0 134.0 L 28.0 133.0 L 29.0 134.0 L 38.0 134.0 L 39.0 133.0 L 41.0 135.0 L 42.0 134.0 L 48.0 134.0 L 49.0 135.0 L 51.0 133.0 L 51.0 130.0 L 50.0 130.0 L 49.0 129.0 L 49.0 128.0 L 48.0 128.0 L 48.0 129.0 L 47.0 130.0 L 46.0 129.0 L 44.0 129.0 L 43.0 130.0 L 42.0 129.0 L 40.0 129.0 L 39.0 130.0 L 36.0 130.0 L 35.0 131.0 L 34.0 131.0 L 31.0 129.0 L 32.0 128.0 L 33.0 128.0 L 32.0 128.0 L 31.0 129.0 Z M 49.0 132.0 L 50.0 131.0 L 51.0 132.0 L 50.0 133.0 Z M 42.0 131.0 L 43.0 130.0 L 44.0 131.0 L 43.0 132.0 Z M 45.0 130.0 L 46.0 129.0 L 47.0 130.0 L 46.0 131.0 Z M 43.0 130.0 L 44.0 129.0 L 45.0 130.0 L 44.0 131.0 Z M 41.0 130.0 L 42.0 129.0 L 43.0 130.0 L 42.0 131.0 Z " fill="#bebab7" fill-rule="evenodd"></path>
<path d="M 7.0 129.0 L 7.0 130.0 L 8.0 131.0 L 8.0 134.0 L 13.0 134.0 L 14.0 133.0 L 15.0 134.0 L 19.0 134.0 L 19.0 133.0 L 20.0 132.0 L 21.0 133.0 L 21.0 134.0 L 22.0 134.0 L 22.0 130.0 L 21.0 129.0 L 19.0 129.0 L 18.0 130.0 L 17.0 129.0 L 15.0 129.0 L 14.0 130.0 L 13.0 129.0 L 12.0 129.0 L 12.0 130.0 L 11.0 131.0 L 10.0 130.0 L 10.0 128.0 L 8.0 128.0 Z M 13.0 131.0 L 14.0 130.0 L 15.0 131.0 L 14.0 132.0 Z M 18.0 130.0 L 19.0 129.0 L 20.0 130.0 L 19.0 131.0 Z M 16.0 130.0 L 17.0 129.0 L 18.0 130.0 L 17.0 131.0 Z M 14.0 130.0 L 15.0 129.0 L 16.0 130.0 L 15.0 131.0 Z " fill="#bfbbb9" fill-rule="evenodd"></path>
<path d="M 116.0 132.0 L 117.0 133.0 L 117.0 134.0 L 123.0 134.0 L 124.0 133.0 L 125.0 134.0 L 127.0 134.0 L 127.0 133.0 L 129.0 131.0 L 129.0 130.0 L 127.0 128.0 L 125.0 128.0 L 124.0 129.0 L 123.0 128.0 L 122.0 128.0 L 121.0 129.0 L 120.0 129.0 L 119.0 128.0 L 119.0 127.0 L 118.0 127.0 L 118.0 128.0 L 117.0 129.0 Z " fill="#c3bfbc" fill-rule="evenodd"></path>
<path d="M 103.0 124.0 L 105.0 124.0 Z " fill="#fcf9f7" fill-rule="evenodd"></path>
<path d="M 53.0 120.0 L 53.0 121.0 L 51.0 123.0 L 53.0 121.0 Z " fill="#e8e2dd" fill-rule="evenodd"></path>
<path d="M 1.0 105.0 L 1.0 106.0 L 2.0 106.0 L 3.0 108.0 L 6.0 108.0 L 7.0 109.0 L 7.0 121.0 L 9.0 123.0 L 10.0 122.0 L 12.0 122.0 L 12.0 118.0 L 11.0 117.0 L 11.0 109.0 L 12.0 108.0 L 13.0 109.0 L 12.0 108.0 L 13.0 107.0 L 15.0 107.0 L 16.0 108.0 L 16.0 115.0 L 15.0 116.0 L 15.0 122.0 L 17.0 122.0 L 18.0 123.0 L 20.0 122.0 L 20.0 116.0 L 19.0 115.0 L 22.0 111.0 L 24.0 111.0 L 25.0 112.0 L 25.0 114.0 L 23.0 116.0 L 25.0 117.0 L 24.0 119.0 L 27.0 122.0 L 29.0 123.0 L 33.0 123.0 L 39.0 120.0 L 41.0 123.0 L 43.0 124.0 L 47.0 124.0 L 47.0 123.0 L 51.0 120.0 L 51.0 118.0 L 53.0 116.0 L 53.0 113.0 L 51.0 112.0 L 52.0 111.0 L 49.0 109.0 L 50.0 108.0 L 49.0 107.0 L 48.0 107.0 L 47.0 109.0 L 46.0 108.0 L 44.0 109.0 L 42.0 109.0 L 41.0 108.0 L 43.0 107.0 L 41.0 107.0 L 37.0 111.0 L 35.0 110.0 L 34.0 108.0 L 32.0 107.0 L 30.0 107.0 L 29.0 109.0 L 28.0 108.0 L 25.0 111.0 L 24.0 109.0 L 21.0 107.0 L 23.0 106.0 L 21.0 106.0 L 20.0 107.0 L 21.0 108.0 L 20.0 109.0 L 18.0 109.0 L 16.0 107.0 L 17.0 106.0 L 17.0 104.0 L 16.0 103.0 L 8.0 103.0 L 7.0 102.0 L 6.0 103.0 L 3.0 103.0 L 3.0 104.0 Z M 42.0 123.0 L 43.0 122.0 L 44.0 123.0 L 43.0 124.0 Z M 44.0 119.0 L 45.0 118.0 L 46.0 118.0 L 47.0 119.0 L 46.0 120.0 L 45.0 120.0 Z M 46.0 118.0 L 47.0 117.0 L 48.0 118.0 L 47.0 119.0 Z M 43.0 118.0 L 44.0 117.0 L 45.0 118.0 L 44.0 119.0 Z M 30.0 118.0 L 31.0 117.0 L 32.0 117.0 L 33.0 118.0 L 32.0 119.0 L 31.0 119.0 Z M 47.0 113.0 L 48.0 112.0 L 49.0 113.0 L 48.0 114.0 Z M 44.0 113.0 L 45.0 112.0 L 46.0 112.0 L 47.0 113.0 L 46.0 114.0 L 45.0 114.0 Z M 29.0 112.0 L 30.0 111.0 L 32.0 111.0 L 33.0 112.0 L 32.0 113.0 L 30.0 113.0 Z M 39.0 110.0 L 40.0 111.0 L 39.0 112.0 L 39.0 114.0 L 38.0 115.0 L 37.0 114.0 L 37.0 111.0 L 38.0 110.0 Z M 39.0 110.0 L 40.0 109.0 L 41.0 110.0 L 40.0 111.0 Z M 40.0 109.0 L 41.0 108.0 L 42.0 109.0 L 41.0 110.0 Z M 48.0 108.0 L 49.0 107.0 L 50.0 108.0 L 49.0 109.0 Z " fill="#8d8c8a" fill-rule="evenodd"></path>
<path d="M 42.0 85.0 L 44.0 85.0 Z " fill="#eae2dc" fill-rule="evenodd"></path>
<path d="M 20.0 94.0 L 21.0 100.0 L 28.0 103.0 L 34.0 98.0 L 42.0 103.0 L 46.0 103.0 L 50.0 98.0 L 53.0 101.0 L 59.0 103.0 L 57.0 105.0 L 56.0 104.0 L 57.0 106.0 L 56.0 122.0 L 57.0 121.0 L 59.0 123.0 L 63.0 121.0 L 64.0 115.0 L 65.0 116.0 L 68.0 115.0 L 70.0 117.0 L 70.0 122.0 L 74.0 122.0 L 75.0 120.0 L 79.0 124.0 L 83.0 124.0 L 87.0 120.0 L 92.0 123.0 L 108.0 121.0 L 110.0 123.0 L 111.0 122.0 L 119.0 123.0 L 120.0 121.0 L 119.0 117.0 L 120.0 116.0 L 121.0 119.0 L 121.0 113.0 L 123.0 111.0 L 126.0 115.0 L 125.0 122.0 L 128.0 123.0 L 131.0 117.0 L 130.0 112.0 L 128.0 111.0 L 129.0 110.0 L 126.0 107.0 L 125.0 109.0 L 124.0 108.0 L 122.0 109.0 L 119.0 103.0 L 117.0 103.0 L 115.0 107.0 L 110.0 104.0 L 109.0 107.0 L 107.0 109.0 L 105.0 103.0 L 108.0 100.0 L 107.0 99.0 L 108.0 98.0 L 107.0 91.0 L 104.0 87.0 L 102.0 88.0 L 98.0 87.0 L 95.0 89.0 L 90.0 87.0 L 89.0 98.0 L 87.0 97.0 L 85.0 98.0 L 83.0 96.0 L 82.0 86.0 L 79.0 87.0 L 76.0 86.0 L 74.0 88.0 L 73.0 86.0 L 71.0 88.0 L 70.0 83.0 L 66.0 83.0 L 66.0 91.0 L 64.0 95.0 L 62.0 94.0 L 64.0 89.0 L 62.0 89.0 L 61.0 87.0 L 60.0 88.0 L 57.0 86.0 L 51.0 90.0 L 47.0 87.0 L 45.0 88.0 L 42.0 87.0 L 36.0 91.0 L 37.0 97.0 L 35.0 99.0 L 34.0 82.0 L 32.0 82.0 L 30.0 84.0 L 29.0 95.0 L 24.0 98.0 L 23.0 94.0 Z M 94.0 119.0 L 95.0 118.0 L 96.0 119.0 L 95.0 120.0 Z M 114.0 118.0 L 115.0 117.0 L 116.0 118.0 L 115.0 119.0 Z M 95.0 118.0 L 96.0 117.0 L 97.0 118.0 L 96.0 119.0 Z M 93.0 118.0 L 94.0 117.0 L 95.0 118.0 L 94.0 119.0 Z M 112.0 117.0 L 113.0 116.0 L 114.0 117.0 L 114.0 118.0 L 113.0 119.0 L 112.0 118.0 Z M 80.0 118.0 L 80.0 117.0 L 81.0 116.0 L 83.0 116.0 L 84.0 117.0 L 82.0 119.0 L 81.0 119.0 Z M 107.0 115.0 L 108.0 116.0 L 108.0 120.0 L 107.0 121.0 L 106.0 120.0 L 106.0 116.0 Z M 61.0 116.0 L 62.0 115.0 L 63.0 116.0 L 62.0 117.0 Z M 73.0 115.0 L 74.0 114.0 L 75.0 115.0 L 75.0 116.0 L 74.0 117.0 L 73.0 116.0 Z M 107.0 114.0 L 108.0 113.0 L 109.0 114.0 L 109.0 115.0 L 108.0 116.0 L 107.0 115.0 Z M 91.0 114.0 L 92.0 113.0 L 93.0 114.0 L 92.0 115.0 Z M 89.0 114.0 L 90.0 113.0 L 91.0 114.0 L 90.0 115.0 Z M 114.0 112.0 L 115.0 113.0 L 115.0 116.0 L 114.0 117.0 L 113.0 116.0 L 113.0 113.0 Z M 93.0 113.0 L 94.0 112.0 L 96.0 112.0 L 97.0 113.0 L 96.0 114.0 L 94.0 114.0 Z M 112.0 112.0 L 113.0 111.0 L 114.0 112.0 L 113.0 113.0 Z M 106.0 113.0 L 106.0 112.0 L 107.0 111.0 L 108.0 111.0 L 109.0 112.0 L 107.0 114.0 Z M 87.0 112.0 L 88.0 111.0 L 89.0 112.0 L 88.0 113.0 Z M 82.0 112.0 L 83.0 111.0 L 84.0 112.0 L 83.0 113.0 Z M 80.0 112.0 L 81.0 111.0 L 82.0 112.0 L 81.0 113.0 Z M 63.0 111.0 L 64.0 110.0 L 65.0 111.0 L 64.0 112.0 Z M 115.0 110.0 L 116.0 109.0 L 117.0 110.0 L 117.0 111.0 L 116.0 112.0 L 115.0 111.0 Z M 99.0 109.0 L 100.0 108.0 L 101.0 109.0 L 100.0 110.0 Z M 97.0 108.0 L 98.0 107.0 L 99.0 107.0 L 100.0 108.0 L 99.0 109.0 L 98.0 109.0 Z M 113.0 107.0 L 114.0 106.0 L 115.0 107.0 L 115.0 108.0 L 114.0 109.0 L 113.0 108.0 Z M 112.0 106.0 L 113.0 105.0 L 114.0 106.0 L 113.0 107.0 Z M 98.0 106.0 L 99.0 105.0 L 100.0 106.0 L 99.0 107.0 Z M 35.0 99.0 L 36.0 98.0 L 37.0 99.0 L 36.0 100.0 Z M 26.0 98.0 L 27.0 97.0 L 28.0 98.0 L 27.0 99.0 Z M 101.0 97.0 L 102.0 96.0 L 103.0 96.0 L 104.0 97.0 L 103.0 98.0 L 102.0 98.0 Z M 99.0 97.0 L 100.0 96.0 L 102.0 98.0 L 101.0 99.0 L 100.0 99.0 L 99.0 98.0 Z M 93.0 97.0 L 94.0 96.0 L 95.0 97.0 L 95.0 98.0 L 94.0 99.0 L 93.0 98.0 Z M 56.0 97.0 L 57.0 96.0 L 59.0 96.0 L 60.0 97.0 L 58.0 99.0 Z M 28.0 97.0 L 29.0 96.0 L 30.0 97.0 L 29.0 98.0 Z M 54.0 96.0 L 55.0 95.0 L 56.0 96.0 L 55.0 97.0 Z M 64.0 95.0 L 65.0 94.0 L 66.0 95.0 L 66.0 96.0 L 65.0 97.0 L 64.0 96.0 Z M 95.0 94.0 L 96.0 93.0 L 97.0 94.0 L 96.0 95.0 Z M 46.0 94.0 L 47.0 93.0 L 48.0 94.0 L 48.0 95.0 L 47.0 96.0 L 46.0 95.0 Z M 96.0 93.0 L 97.0 92.0 L 98.0 93.0 L 97.0 94.0 Z M 94.0 93.0 L 95.0 92.0 L 96.0 93.0 L 95.0 94.0 Z M 50.0 93.0 L 51.0 92.0 L 52.0 93.0 L 51.0 94.0 Z M 40.0 92.0 L 41.0 93.0 L 41.0 96.0 L 40.0 97.0 L 39.0 96.0 L 39.0 93.0 Z M 30.0 92.0 L 31.0 93.0 L 31.0 96.0 L 30.0 97.0 L 29.0 96.0 L 29.0 93.0 Z M 43.0 91.0 L 45.0 91.0 L 46.0 92.0 L 46.0 97.0 L 45.0 98.0 L 42.0 98.0 L 41.0 97.0 L 41.0 93.0 Z M 100.0 91.0 L 101.0 90.0 L 102.0 90.0 L 103.0 91.0 L 102.0 92.0 L 101.0 92.0 Z M 61.0 102.0 L 65.0 99.0 L 66.0 100.0 L 67.0 103.0 L 68.0 103.0 L 68.0 102.0 L 69.0 101.0 L 70.0 101.0 L 70.0 100.0 L 69.0 99.0 L 69.0 95.0 L 70.0 94.0 L 71.0 95.0 L 71.0 97.0 L 71.0 94.0 L 72.0 93.0 L 73.0 93.0 L 71.0 93.0 L 70.0 92.0 L 70.0 91.0 L 71.0 90.0 L 73.0 90.0 L 75.0 92.0 L 75.0 101.0 L 76.0 102.0 L 78.0 102.0 L 78.0 99.0 L 79.0 98.0 L 80.0 98.0 L 81.0 99.0 L 81.0 100.0 L 84.0 102.0 L 84.0 103.0 L 87.0 103.0 L 90.0 101.0 L 91.0 102.0 L 91.0 103.0 L 94.0 100.0 L 97.0 102.0 L 102.0 102.0 L 103.0 101.0 L 104.0 101.0 L 105.0 102.0 L 103.0 104.0 L 103.0 111.0 L 102.0 112.0 L 101.0 111.0 L 101.0 104.0 L 98.0 106.0 L 94.0 106.0 L 97.0 106.0 L 98.0 107.0 L 97.0 108.0 L 94.0 108.0 L 93.0 109.0 L 92.0 108.0 L 92.0 109.0 L 89.0 112.0 L 85.0 108.0 L 84.0 108.0 L 83.0 109.0 L 82.0 108.0 L 82.0 107.0 L 81.0 107.0 L 81.0 108.0 L 80.0 109.0 L 78.0 107.0 L 77.0 110.0 L 75.0 112.0 L 74.0 111.0 L 74.0 110.0 L 75.0 109.0 L 75.0 105.0 L 76.0 104.0 L 77.0 104.0 L 74.0 105.0 L 72.0 103.0 L 70.0 103.0 L 70.0 104.0 L 69.0 105.0 L 69.0 106.0 L 70.0 107.0 L 70.0 110.0 L 68.0 112.0 L 67.0 112.0 L 64.0 110.0 L 63.0 111.0 L 62.0 111.0 L 61.0 110.0 L 61.0 107.0 L 62.0 106.0 L 62.0 105.0 L 61.0 104.0 Z M 57.0 91.0 L 58.0 90.0 L 59.0 91.0 L 59.0 92.0 L 58.0 93.0 L 57.0 92.0 Z M 51.0 90.0 L 52.0 89.0 L 53.0 90.0 L 52.0 91.0 Z M 95.0 89.0 L 96.0 88.0 L 97.0 89.0 L 96.0 90.0 Z M 79.0 87.0 L 80.0 88.0 L 80.0 90.0 L 79.0 91.0 L 77.0 89.0 Z M 76.0 88.0 L 77.0 87.0 L 78.0 88.0 L 77.0 89.0 Z M 79.0 87.0 L 80.0 86.0 L 81.0 87.0 L 80.0 88.0 Z M 75.0 87.0 L 76.0 86.0 L 77.0 87.0 L 76.0 88.0 Z M 56.0 87.0 L 57.0 86.0 L 58.0 87.0 L 57.0 88.0 Z " fill="#8c8a88" fill-rule="evenodd"></path>
<path d="M 100.0 2.0 L 99.0 2.0 L 98.0 4.0 L 95.0 2.0 L 94.0 4.0 L 92.0 4.0 L 92.0 6.0 L 90.0 7.0 L 89.0 9.0 L 85.0 8.0 L 84.0 6.0 L 80.0 6.0 L 79.0 9.0 L 78.0 7.0 L 77.0 8.0 L 75.0 6.0 L 77.0 5.0 L 76.0 1.0 L 73.0 1.0 L 72.0 0.0 L 64.0 0.0 L 63.0 1.0 L 62.0 0.0 L 60.0 2.0 L 61.0 2.0 L 63.0 5.0 L 60.0 6.0 L 60.0 7.0 L 62.0 8.0 L 60.0 11.0 L 58.0 9.0 L 57.0 10.0 L 53.0 10.0 L 51.0 13.0 L 48.0 7.0 L 46.0 6.0 L 38.0 7.0 L 38.0 8.0 L 35.0 10.0 L 38.0 12.0 L 36.0 14.0 L 35.0 13.0 L 36.0 19.0 L 38.0 20.0 L 38.0 22.0 L 41.0 23.0 L 43.0 26.0 L 45.0 27.0 L 44.0 28.0 L 46.0 29.0 L 45.0 30.0 L 47.0 31.0 L 48.0 34.0 L 52.0 37.0 L 51.0 38.0 L 53.0 40.0 L 57.0 50.0 L 59.0 51.0 L 58.0 52.0 L 60.0 53.0 L 59.0 54.0 L 61.0 55.0 L 60.0 56.0 L 62.0 58.0 L 61.0 60.0 L 61.0 77.0 L 63.0 79.0 L 65.0 78.0 L 67.0 80.0 L 69.0 78.0 L 71.0 79.0 L 73.0 77.0 L 74.0 74.0 L 74.0 64.0 L 73.0 63.0 L 74.0 57.0 L 73.0 56.0 L 75.0 55.0 L 76.0 53.0 L 75.0 52.0 L 77.0 51.0 L 80.0 47.0 L 87.0 43.0 L 90.0 39.0 L 91.0 40.0 L 93.0 37.0 L 99.0 32.0 L 98.0 31.0 L 100.0 30.0 L 99.0 29.0 L 101.0 27.0 L 101.0 19.0 L 103.0 18.0 L 103.0 16.0 L 106.0 14.0 L 106.0 13.0 L 104.0 12.0 L 105.0 11.0 L 103.0 6.0 L 100.0 4.0 Z M 72.0 59.0 L 73.0 58.0 L 74.0 59.0 L 73.0 60.0 Z M 55.0 46.0 L 56.0 45.0 L 57.0 46.0 L 56.0 47.0 Z M 64.0 44.0 L 65.0 43.0 L 66.0 43.0 L 67.0 44.0 L 67.0 45.0 L 66.0 46.0 Z M 86.0 42.0 L 87.0 41.0 L 88.0 42.0 L 87.0 43.0 Z M 80.0 41.0 L 81.0 40.0 L 82.0 41.0 L 81.0 42.0 Z M 80.0 41.0 L 81.0 42.0 L 80.0 43.0 L 80.0 44.0 L 78.0 46.0 L 77.0 46.0 L 76.0 47.0 L 76.0 48.0 L 74.0 50.0 L 74.0 51.0 L 73.0 52.0 L 72.0 52.0 L 72.0 53.0 L 71.0 54.0 L 72.0 55.0 L 71.0 56.0 L 70.0 56.0 L 70.0 58.0 L 69.0 59.0 L 69.0 64.0 L 70.0 65.0 L 70.0 75.0 L 69.0 76.0 L 67.0 74.0 L 66.0 75.0 L 65.0 74.0 L 65.0 68.0 L 64.0 67.0 L 64.0 61.0 L 65.0 60.0 L 65.0 58.0 L 63.0 56.0 L 64.0 55.0 L 63.0 54.0 L 64.0 53.0 L 63.0 53.0 L 62.0 52.0 L 64.0 50.0 L 66.0 52.0 L 66.0 53.0 L 69.0 53.0 L 70.0 52.0 L 69.0 51.0 L 70.0 50.0 L 72.0 50.0 L 71.0 50.0 L 70.0 49.0 L 71.0 48.0 L 73.0 48.0 L 73.0 47.0 L 72.0 47.0 L 71.0 46.0 L 72.0 45.0 L 72.0 44.0 L 71.0 43.0 L 72.0 42.0 L 72.0 41.0 L 73.0 40.0 L 74.0 41.0 L 75.0 40.0 L 76.0 41.0 L 76.0 42.0 L 77.0 41.0 Z M 71.0 40.0 L 71.0 39.0 L 72.0 38.0 L 73.0 38.0 L 74.0 39.0 L 72.0 41.0 Z M 85.0 38.0 L 86.0 37.0 L 87.0 38.0 L 87.0 39.0 L 86.0 40.0 L 85.0 39.0 Z M 75.0 38.0 L 76.0 37.0 L 77.0 38.0 L 76.0 39.0 Z M 66.0 37.0 L 67.0 37.0 L 68.0 38.0 L 68.0 41.0 L 69.0 42.0 L 69.0 47.0 L 68.0 48.0 L 67.0 48.0 L 66.0 47.0 L 67.0 46.0 L 67.0 43.0 L 66.0 42.0 L 66.0 41.0 L 65.0 41.0 L 64.0 40.0 L 65.0 39.0 L 66.0 39.0 L 65.0 38.0 Z M 88.0 36.0 L 89.0 35.0 L 90.0 36.0 L 89.0 37.0 Z M 72.0 33.0 L 73.0 32.0 L 74.0 33.0 L 73.0 34.0 Z M 55.0 32.0 L 56.0 32.0 L 57.0 33.0 L 55.0 35.0 L 56.0 35.0 L 57.0 34.0 L 58.0 35.0 L 60.0 35.0 L 63.0 32.0 L 64.0 32.0 L 65.0 33.0 L 65.0 34.0 L 63.0 37.0 L 63.0 39.0 L 62.0 40.0 L 61.0 40.0 L 61.0 44.0 L 62.0 45.0 L 62.0 46.0 L 64.0 48.0 L 64.0 50.0 L 63.0 51.0 L 62.0 51.0 L 61.0 50.0 L 61.0 48.0 L 60.0 48.0 L 59.0 47.0 L 60.0 46.0 L 59.0 46.0 L 58.0 45.0 L 59.0 44.0 L 59.0 43.0 L 58.0 42.0 L 57.0 39.0 L 56.0 38.0 L 55.0 38.0 L 53.0 36.0 L 53.0 34.0 Z M 92.0 32.0 L 93.0 31.0 L 94.0 32.0 L 93.0 33.0 Z M 87.0 32.0 L 88.0 31.0 L 89.0 32.0 L 88.0 33.0 Z M 64.0 32.0 L 65.0 31.0 L 66.0 32.0 L 65.0 33.0 Z M 93.0 31.0 L 94.0 30.0 L 95.0 31.0 L 94.0 32.0 Z M 88.0 31.0 L 89.0 30.0 L 90.0 31.0 L 89.0 32.0 Z M 63.0 31.0 L 64.0 30.0 L 65.0 31.0 L 64.0 32.0 Z M 95.0 30.0 L 96.0 29.0 L 97.0 30.0 L 96.0 31.0 Z M 68.0 30.0 L 69.0 29.0 L 70.0 29.0 L 71.0 30.0 L 70.0 31.0 L 69.0 31.0 Z M 60.0 30.0 L 61.0 29.0 L 62.0 30.0 L 61.0 31.0 Z M 55.0 30.0 L 56.0 29.0 L 57.0 30.0 L 57.0 31.0 L 56.0 32.0 L 55.0 31.0 Z M 49.0 30.0 L 50.0 29.0 L 51.0 30.0 L 50.0 31.0 Z M 65.0 29.0 L 66.0 28.0 L 67.0 29.0 L 66.0 30.0 Z M 56.0 29.0 L 57.0 28.0 L 58.0 29.0 L 57.0 30.0 Z M 52.0 27.0 L 55.0 30.0 L 55.0 32.0 L 53.0 34.0 L 52.0 34.0 L 50.0 32.0 L 50.0 31.0 L 51.0 30.0 L 52.0 31.0 L 51.0 30.0 L 51.0 28.0 Z M 75.0 27.0 L 76.0 26.0 L 77.0 27.0 L 76.0 28.0 Z M 66.0 26.0 L 67.0 25.0 L 68.0 26.0 L 67.0 27.0 Z M 57.0 26.0 L 58.0 25.0 L 59.0 26.0 L 58.0 27.0 Z M 49.0 26.0 L 50.0 25.0 L 51.0 25.0 L 52.0 26.0 L 51.0 27.0 L 50.0 27.0 Z M 46.0 26.0 L 47.0 25.0 L 48.0 25.0 L 49.0 26.0 L 50.0 29.0 L 49.0 30.0 L 47.0 28.0 L 47.0 27.0 Z M 65.0 25.0 L 66.0 24.0 L 67.0 25.0 L 66.0 26.0 Z M 46.0 24.0 L 47.0 23.0 L 48.0 24.0 L 47.0 25.0 Z M 74.0 22.0 L 75.0 23.0 L 73.0 25.0 L 73.0 26.0 L 72.0 27.0 L 70.0 24.0 L 72.0 22.0 Z M 47.0 23.0 L 48.0 22.0 L 49.0 22.0 L 50.0 23.0 L 49.0 24.0 L 48.0 24.0 Z M 77.0 22.0 L 78.0 21.0 L 79.0 22.0 L 78.0 23.0 Z M 67.0 22.0 L 68.0 21.0 L 69.0 22.0 L 68.0 23.0 Z M 61.0 22.0 L 62.0 21.0 L 63.0 22.0 L 62.0 23.0 Z M 96.0 20.0 L 98.0 22.0 L 98.0 25.0 L 97.0 26.0 L 98.0 27.0 L 95.0 30.0 L 94.0 29.0 L 94.0 28.0 L 95.0 27.0 L 95.0 21.0 Z M 66.0 20.0 L 67.0 19.0 L 68.0 20.0 L 67.0 21.0 Z M 50.0 20.0 L 51.0 19.0 L 53.0 21.0 L 52.0 22.0 L 51.0 22.0 L 50.0 21.0 Z M 91.0 17.0 L 92.0 18.0 L 91.0 19.0 L 93.0 22.0 L 93.0 23.0 L 92.0 24.0 L 93.0 25.0 L 93.0 26.0 L 92.0 27.0 L 92.0 29.0 L 90.0 31.0 L 89.0 30.0 L 86.0 33.0 L 86.0 35.0 L 85.0 36.0 L 84.0 35.0 L 84.0 34.0 L 84.0 35.0 L 83.0 36.0 L 82.0 36.0 L 80.0 38.0 L 77.0 37.0 L 76.0 36.0 L 76.0 34.0 L 77.0 33.0 L 78.0 33.0 L 77.0 33.0 L 76.0 32.0 L 77.0 31.0 L 78.0 31.0 L 77.0 30.0 L 78.0 29.0 L 79.0 29.0 L 78.0 28.0 L 79.0 27.0 L 80.0 27.0 L 80.0 26.0 L 82.0 24.0 L 84.0 24.0 L 84.0 22.0 L 85.0 21.0 L 87.0 21.0 L 87.0 20.0 L 86.0 19.0 L 87.0 18.0 L 88.0 18.0 L 89.0 17.0 Z M 72.0 18.0 L 73.0 17.0 L 74.0 18.0 L 73.0 19.0 Z M 72.0 16.0 L 73.0 15.0 L 74.0 16.0 L 73.0 17.0 Z M 36.0 16.0 L 37.0 15.0 L 38.0 16.0 L 37.0 17.0 Z M 89.0 14.0 L 90.0 15.0 L 90.0 16.0 L 89.0 17.0 L 88.0 17.0 L 87.0 16.0 Z M 71.0 13.0 L 72.0 12.0 L 73.0 13.0 L 72.0 14.0 Z M 52.0 13.0 L 53.0 12.0 L 54.0 13.0 L 53.0 14.0 Z M 49.0 13.0 L 50.0 12.0 L 51.0 13.0 L 50.0 14.0 Z M 75.0 12.0 L 76.0 11.0 L 77.0 12.0 L 76.0 13.0 Z M 62.0 12.0 L 63.0 11.0 L 64.0 12.0 L 63.0 13.0 Z M 73.0 11.0 L 74.0 10.0 L 75.0 10.0 L 76.0 11.0 L 75.0 12.0 L 74.0 12.0 Z M 89.0 9.0 L 90.0 10.0 L 90.0 12.0 L 88.0 14.0 L 86.0 14.0 L 85.0 13.0 L 86.0 12.0 L 87.0 12.0 L 86.0 11.0 Z M 83.0 10.0 L 84.0 9.0 L 85.0 10.0 L 85.0 11.0 L 84.0 12.0 L 83.0 11.0 Z M 62.0 10.0 L 63.0 9.0 L 64.0 9.0 L 65.0 10.0 L 64.0 11.0 L 63.0 11.0 Z M 46.0 10.0 L 47.0 9.0 L 48.0 10.0 L 47.0 11.0 Z M 90.0 8.0 L 91.0 7.0 L 92.0 8.0 L 91.0 9.0 Z M 99.0 6.0 L 100.0 5.0 L 101.0 6.0 L 100.0 7.0 Z M 73.0 4.0 L 74.0 3.0 L 75.0 4.0 L 74.0 5.0 Z M 64.0 4.0 L 65.0 3.0 L 66.0 4.0 L 65.0 5.0 Z M 74.0 2.0 L 75.0 1.0 L 76.0 2.0 L 75.0 3.0 Z M 70.0 1.0 L 71.0 0.0 L 72.0 1.0 L 71.0 2.0 Z M 67.0 1.0 L 68.0 0.0 L 69.0 1.0 L 68.0 2.0 Z " fill="#8f8d8b" fill-rule="evenodd"></path>
</svg>