<svg xmlns="http://www.w3.org/2000/svg" width="131" height="139" viewBox="0 0 131 139" role="img" aria-label="Joshua Tree Health logo asset">
<path d="M 89.0 132.0 L 89.0 133.0 L 88.0 134.0 L 89.0 134.0 Z " fill="#e8e2dd" fill-rule="evenodd"></path>
<path d="M 109.0 130.0 L 108.0 131.0 L 108.0 133.0 L 109.0 134.0 L 111.0 134.0 L 112.0 133.0 L 112.0 132.0 L 110.0 130.0 Z " fill="#d0d5d0" fill-rule="evenodd"></path>
<path d="M 84.0 130.0 L 82.0 133.0 L 83.0 133.0 L 84.0 134.0 L 86.0 134.0 L 86.0 132.0 Z " fill="#bfc8ca" fill-rule="evenodd"></path>
<path d="M 92.0 135.0 L 94.0 135.0 L 95.0 134.0 L 96.0 135.0 L 100.0 135.0 L 101.0 134.0 L 102.0 134.0 L 102.0 133.0 L 103.0 132.0 L 103.0 130.0 L 102.0 129.0 L 100.0 129.0 L 98.0 131.0 L 97.0 130.0 L 94.0 130.0 L 93.0 129.0 L 92.0 130.0 Z " fill="#afb8b4" fill-rule="evenodd"></path>
<path d="M 54.0 130.0 L 54.0 135.0 L 57.0 135.0 L 58.0 134.0 L 59.0 135.0 L 61.0 135.0 L 62.0 134.0 L 63.0 135.0 L 69.0 135.0 L 69.0 134.0 L 70.0 133.0 L 71.0 134.0 L 71.0 135.0 L 73.0 135.0 L 74.0 136.0 L 74.0 135.0 L 75.0 134.0 L 76.0 135.0 L 78.0 135.0 L 79.0 134.0 L 78.0 134.0 L 77.0 133.0 L 78.0 132.0 L 76.0 130.0 L 71.0 130.0 L 70.0 131.0 L 67.0 130.0 L 65.0 132.0 L 64.0 131.0 L 64.0 130.0 L 64.0 131.0 L 63.0 132.0 L 62.0 132.0 L 60.0 130.0 L 59.0 131.0 L 57.0 129.0 L 56.0 130.0 Z M 68.0 133.0 L 69.0 132.0 L 70.0 133.0 L 69.0 134.0 Z " fill="#b6beb9" fill-rule="evenodd"></path>
<path d="M 25.0 131.0 L 25.0 133.0 L 26.0 134.0 L 26.0 135.0 L 27.0 135.0 L 28.0 134.0 L 29.0 135.0 L 29.0 136.0 L 30.0 135.0 L 35.0 135.0 L 35.0 134.0 L 36.0 133.0 L 37.0 134.0 L 37.0 135.0 L 38.0 134.0 L 39.0 134.0 L 40.0 135.0 L 49.0 135.0 L 49.0 132.0 L 48.0 131.0 L 48.0 130.0 L 46.0 130.0 L 45.0 131.0 L 44.0 131.0 L 42.0 133.0 L 41.0 132.0 L 41.0 130.0 L 40.0 131.0 L 37.0 131.0 L 36.0 130.0 L 35.0 130.0 L 35.0 131.0 L 34.0 132.0 L 32.0 130.0 L 30.0 130.0 L 29.0 129.0 L 29.0 130.0 L 28.0 131.0 L 27.0 130.0 L 26.0 130.0 Z M 45.0 131.0 L 46.0 130.0 L 47.0 131.0 L 47.0 132.0 L 46.0 133.0 L 45.0 132.0 Z M 30.0 131.0 L 31.0 130.0 L 32.0 131.0 L 31.0 132.0 Z " fill="#b2bbb4" fill-rule="evenodd"></path>
<path d="M 6.0 129.0 L 6.0 135.0 L 8.0 135.0 L 9.0 134.0 L 10.0 135.0 L 15.0 135.0 L 16.0 136.0 L 17.0 135.0 L 21.0 135.0 L 21.0 133.0 L 22.0 132.0 L 21.0 132.0 L 20.0 131.0 L 17.0 132.0 L 16.0 131.0 L 16.0 130.0 L 15.0 130.0 L 14.0 131.0 L 11.0 130.0 L 10.0 131.0 L 9.0 130.0 L 9.0 129.0 Z " fill="#bcc4bd" fill-rule="evenodd"></path>
<path d="M 116.0 130.0 L 117.0 131.0 L 117.0 132.0 L 116.0 133.0 L 117.0 134.0 L 116.0 135.0 L 119.0 135.0 L 120.0 134.0 L 121.0 135.0 L 123.0 135.0 L 124.0 134.0 L 125.0 135.0 L 126.0 135.0 L 128.0 133.0 L 128.0 130.0 L 127.0 129.0 L 125.0 129.0 L 124.0 130.0 L 123.0 130.0 L 122.0 129.0 L 122.0 128.0 L 121.0 128.0 L 122.0 129.0 L 121.0 130.0 L 120.0 130.0 L 118.0 128.0 L 117.0 128.0 L 117.0 129.0 Z M 125.0 134.0 L 126.0 133.0 L 127.0 134.0 L 126.0 135.0 Z M 116.0 133.0 L 117.0 132.0 L 118.0 133.0 L 117.0 134.0 Z " fill="#b7bfba" fill-rule="evenodd"></path>
<path d="M 2.0 104.0 L 2.0 109.0 L 4.0 109.0 L 6.0 111.0 L 5.0 112.0 L 5.0 121.0 L 6.0 123.0 L 8.0 124.0 L 8.0 125.0 L 10.0 125.0 L 9.0 124.0 L 10.0 123.0 L 12.0 123.0 L 12.0 121.0 L 11.0 120.0 L 12.0 119.0 L 10.0 115.0 L 10.0 110.0 L 12.0 108.0 L 15.0 108.0 L 16.0 109.0 L 14.0 112.0 L 13.0 111.0 L 13.0 110.0 L 13.0 113.0 L 14.0 114.0 L 14.0 123.0 L 15.0 122.0 L 17.0 124.0 L 16.0 125.0 L 17.0 125.0 L 17.0 124.0 L 19.0 122.0 L 19.0 119.0 L 20.0 118.0 L 20.0 114.0 L 22.0 112.0 L 24.0 115.0 L 24.0 118.0 L 23.0 120.0 L 25.0 121.0 L 28.0 124.0 L 31.0 124.0 L 32.0 125.0 L 34.0 124.0 L 38.0 120.0 L 39.0 122.0 L 42.0 125.0 L 46.0 125.0 L 50.0 121.0 L 51.0 121.0 L 50.0 118.0 L 52.0 117.0 L 52.0 114.0 L 50.0 113.0 L 51.0 112.0 L 50.0 112.0 L 46.0 109.0 L 48.0 108.0 L 46.0 109.0 L 44.0 109.0 L 43.0 110.0 L 42.0 109.0 L 41.0 111.0 L 37.0 113.0 L 36.0 112.0 L 37.0 111.0 L 34.0 108.0 L 32.0 107.0 L 30.0 107.0 L 29.0 109.0 L 27.0 109.0 L 24.0 112.0 L 23.0 110.0 L 21.0 110.0 L 20.0 109.0 L 18.0 110.0 L 15.0 108.0 L 17.0 106.0 L 15.0 104.0 L 15.0 103.0 L 8.0 103.0 L 7.0 104.0 Z M 29.0 120.0 L 30.0 119.0 L 31.0 119.0 L 32.0 120.0 L 31.0 121.0 L 30.0 121.0 Z M 43.0 119.0 L 44.0 118.0 L 46.0 118.0 L 47.0 119.0 L 46.0 120.0 L 44.0 120.0 Z M 31.0 119.0 L 32.0 118.0 L 33.0 119.0 L 32.0 120.0 Z M 28.0 119.0 L 29.0 118.0 L 30.0 119.0 L 29.0 120.0 Z M 36.0 118.0 L 37.0 117.0 L 38.0 118.0 L 37.0 119.0 Z M 43.0 114.0 L 43.0 113.0 L 44.0 112.0 L 46.0 112.0 L 47.0 113.0 L 44.0 115.0 Z M 29.0 113.0 L 30.0 112.0 L 31.0 112.0 L 32.0 113.0 L 32.0 114.0 L 31.0 115.0 Z M 33.0 109.0 L 34.0 108.0 L 35.0 109.0 L 34.0 110.0 Z M 4.0 109.0 L 5.0 108.0 L 6.0 109.0 L 5.0 110.0 Z M 31.0 108.0 L 32.0 107.0 L 33.0 108.0 L 32.0 109.0 Z " fill="#869d95" fill-rule="evenodd"></path>
<path d="M 18.0 96.0 L 20.0 98.0 L 19.0 100.0 L 24.0 104.0 L 28.0 104.0 L 34.0 99.0 L 33.0 98.0 L 34.0 94.0 L 36.0 96.0 L 37.0 99.0 L 36.0 100.0 L 41.0 104.0 L 44.0 104.0 L 49.0 100.0 L 58.0 105.0 L 57.0 122.0 L 59.0 125.0 L 62.0 123.0 L 61.0 120.0 L 62.0 117.0 L 67.0 117.0 L 68.0 122.0 L 71.0 124.0 L 73.0 123.0 L 74.0 120.0 L 76.0 121.0 L 75.0 123.0 L 76.0 122.0 L 79.0 125.0 L 83.0 125.0 L 87.0 121.0 L 92.0 125.0 L 96.0 123.0 L 104.0 124.0 L 106.0 123.0 L 105.0 114.0 L 107.0 112.0 L 109.0 119.0 L 108.0 122.0 L 110.0 124.0 L 111.0 123.0 L 118.0 124.0 L 120.0 122.0 L 121.0 116.0 L 120.0 114.0 L 122.0 112.0 L 125.0 114.0 L 125.0 122.0 L 127.0 125.0 L 129.0 122.0 L 128.0 112.0 L 125.0 109.0 L 121.0 110.0 L 119.0 104.0 L 117.0 104.0 L 113.0 110.0 L 111.0 109.0 L 112.0 108.0 L 111.0 105.0 L 109.0 106.0 L 107.0 105.0 L 108.0 109.0 L 106.0 111.0 L 105.0 110.0 L 105.0 104.0 L 107.0 102.0 L 107.0 91.0 L 104.0 88.0 L 102.0 89.0 L 97.0 88.0 L 94.0 91.0 L 92.0 88.0 L 89.0 88.0 L 88.0 95.0 L 85.0 98.0 L 84.0 89.0 L 81.0 88.0 L 78.0 91.0 L 75.0 88.0 L 69.0 89.0 L 68.0 88.0 L 69.0 84.0 L 66.0 83.0 L 62.0 88.0 L 61.0 87.0 L 59.0 89.0 L 54.0 88.0 L 51.0 91.0 L 46.0 88.0 L 45.0 89.0 L 42.0 88.0 L 38.0 90.0 L 36.0 93.0 L 33.0 91.0 L 33.0 83.0 L 30.0 83.0 L 29.0 84.0 L 30.0 98.0 L 25.0 99.0 L 24.0 96.0 L 23.0 97.0 L 22.0 94.0 Z M 114.0 122.0 L 115.0 121.0 L 116.0 122.0 L 115.0 123.0 Z M 87.0 121.0 L 88.0 120.0 L 89.0 121.0 L 88.0 122.0 Z M 113.0 120.0 L 114.0 119.0 L 115.0 119.0 L 116.0 120.0 L 115.0 121.0 L 114.0 121.0 Z M 93.0 120.0 L 93.0 119.0 L 94.0 118.0 L 95.0 118.0 L 96.0 119.0 L 94.0 121.0 Z M 91.0 119.0 L 92.0 118.0 L 93.0 119.0 L 93.0 120.0 L 92.0 121.0 L 91.0 120.0 Z M 83.0 119.0 L 84.0 118.0 L 85.0 119.0 L 84.0 120.0 Z M 79.0 119.0 L 80.0 118.0 L 82.0 118.0 L 83.0 119.0 L 82.0 120.0 L 80.0 120.0 Z M 86.0 119.0 L 86.0 118.0 L 87.0 117.0 L 88.0 117.0 L 89.0 118.0 L 87.0 120.0 Z M 68.0 117.0 L 69.0 116.0 L 70.0 117.0 L 69.0 118.0 Z M 87.0 116.0 L 88.0 115.0 L 89.0 116.0 L 88.0 117.0 Z M 88.0 115.0 L 89.0 114.0 L 90.0 115.0 L 89.0 116.0 Z M 73.0 114.0 L 74.0 115.0 L 74.0 118.0 L 73.0 119.0 L 72.0 118.0 L 72.0 115.0 Z M 93.0 114.0 L 94.0 113.0 L 95.0 114.0 L 94.0 115.0 Z M 91.0 114.0 L 92.0 113.0 L 93.0 114.0 L 92.0 115.0 Z M 114.0 112.0 L 115.0 113.0 L 115.0 116.0 L 116.0 117.0 L 116.0 118.0 L 115.0 119.0 L 113.0 119.0 L 112.0 120.0 L 111.0 119.0 L 111.0 115.0 L 112.0 114.0 L 112.0 113.0 L 113.0 112.0 Z M 82.0 112.0 L 83.0 113.0 L 83.0 114.0 L 82.0 115.0 L 81.0 115.0 L 80.0 114.0 Z M 79.0 113.0 L 80.0 112.0 L 81.0 113.0 L 80.0 114.0 Z M 105.0 112.0 L 106.0 111.0 L 107.0 112.0 L 106.0 113.0 Z M 86.0 111.0 L 87.0 110.0 L 89.0 112.0 L 88.0 113.0 L 87.0 113.0 L 86.0 112.0 Z M 114.0 110.0 L 115.0 109.0 L 116.0 110.0 L 115.0 111.0 Z M 89.0 110.0 L 90.0 109.0 L 91.0 110.0 L 90.0 111.0 Z M 85.0 110.0 L 86.0 109.0 L 87.0 110.0 L 86.0 111.0 Z M 87.0 109.0 L 88.0 108.0 L 89.0 109.0 L 88.0 110.0 Z M 85.0 107.0 L 86.0 106.0 L 87.0 107.0 L 86.0 108.0 Z M 72.0 106.0 L 73.0 105.0 L 74.0 106.0 L 74.0 110.0 L 74.0 105.0 L 75.0 104.0 L 77.0 104.0 L 76.0 103.0 L 79.0 100.0 L 80.0 100.0 L 83.0 103.0 L 87.0 103.0 L 88.0 102.0 L 89.0 102.0 L 90.0 103.0 L 92.0 103.0 L 92.0 102.0 L 93.0 101.0 L 94.0 101.0 L 97.0 104.0 L 100.0 104.0 L 102.0 102.0 L 103.0 102.0 L 104.0 103.0 L 102.0 106.0 L 102.0 111.0 L 101.0 112.0 L 100.0 112.0 L 99.0 111.0 L 100.0 110.0 L 100.0 109.0 L 99.0 110.0 L 98.0 109.0 L 97.0 109.0 L 96.0 110.0 L 95.0 109.0 L 95.0 108.0 L 93.0 110.0 L 92.0 109.0 L 91.0 110.0 L 88.0 108.0 L 88.0 106.0 L 89.0 105.0 L 86.0 105.0 L 84.0 108.0 L 85.0 109.0 L 84.0 110.0 L 83.0 110.0 L 80.0 108.0 L 80.0 109.0 L 79.0 110.0 L 78.0 109.0 L 78.0 110.0 L 77.0 111.0 L 76.0 110.0 L 77.0 111.0 L 76.0 112.0 L 74.0 112.0 L 73.0 113.0 L 72.0 112.0 Z M 85.0 99.0 L 86.0 98.0 L 87.0 99.0 L 86.0 100.0 Z M 83.0 99.0 L 84.0 98.0 L 85.0 99.0 L 84.0 100.0 Z M 98.0 98.0 L 99.0 97.0 L 101.0 97.0 L 102.0 98.0 L 101.0 99.0 L 99.0 99.0 Z M 57.0 98.0 L 58.0 97.0 L 59.0 97.0 L 60.0 98.0 L 59.0 99.0 L 58.0 99.0 Z M 64.0 96.0 L 65.0 97.0 L 65.0 99.0 L 64.0 100.0 L 63.0 99.0 L 63.0 97.0 Z M 51.0 96.0 L 52.0 95.0 L 53.0 96.0 L 52.0 97.0 Z M 96.0 94.0 L 97.0 93.0 L 98.0 94.0 L 97.0 95.0 Z M 94.0 93.0 L 95.0 94.0 L 95.0 96.0 L 94.0 97.0 L 93.0 96.0 L 93.0 94.0 Z M 59.0 94.0 L 60.0 93.0 L 61.0 93.0 L 62.0 94.0 L 61.0 95.0 L 60.0 95.0 Z M 64.0 92.0 L 65.0 93.0 L 65.0 95.0 L 64.0 96.0 L 63.0 96.0 L 62.0 95.0 Z M 99.0 92.0 L 100.0 91.0 L 101.0 91.0 L 102.0 92.0 L 101.0 93.0 L 100.0 93.0 Z M 72.0 91.0 L 73.0 92.0 L 73.0 93.0 L 72.0 94.0 L 73.0 93.0 L 75.0 95.0 L 75.0 100.0 L 74.0 101.0 L 74.0 102.0 L 75.0 102.0 L 76.0 103.0 L 74.0 105.0 L 73.0 105.0 L 72.0 104.0 L 70.0 104.0 L 70.0 105.0 L 69.0 106.0 L 69.0 111.0 L 68.0 112.0 L 62.0 112.0 L 61.0 111.0 L 62.0 110.0 L 62.0 106.0 L 60.0 104.0 L 60.0 103.0 L 63.0 101.0 L 64.0 101.0 L 66.0 103.0 L 68.0 103.0 L 68.0 94.0 L 69.0 93.0 L 70.0 93.0 L 70.0 92.0 L 71.0 91.0 Z M 55.0 92.0 L 56.0 91.0 L 58.0 91.0 L 60.0 93.0 L 59.0 94.0 L 58.0 94.0 Z M 42.0 91.0 L 44.0 91.0 L 47.0 94.0 L 47.0 97.0 L 45.0 100.0 L 44.0 99.0 L 44.0 98.0 L 43.0 99.0 L 40.0 99.0 L 39.0 98.0 L 40.0 97.0 L 40.0 94.0 Z M 61.0 89.0 L 62.0 88.0 L 63.0 89.0 L 62.0 90.0 Z M 60.0 88.0 L 61.0 87.0 L 62.0 88.0 L 61.0 89.0 Z M 64.0 85.0 L 65.0 86.0 L 65.0 91.0 L 64.0 92.0 L 62.0 90.0 L 63.0 89.0 L 63.0 86.0 Z " fill="#7d978f" fill-rule="evenodd"></path>
<path d="M 103.0 4.0 L 102.0 6.0 L 100.0 3.0 L 98.0 4.0 L 95.0 3.0 L 93.0 5.0 L 91.0 5.0 L 90.0 9.0 L 87.0 11.0 L 84.0 7.0 L 81.0 7.0 L 80.0 5.0 L 79.0 8.0 L 76.0 9.0 L 75.0 8.0 L 76.0 5.0 L 73.0 0.0 L 72.0 1.0 L 71.0 0.0 L 65.0 0.0 L 66.0 1.0 L 65.0 3.0 L 62.0 1.0 L 62.0 2.0 L 60.0 3.0 L 62.0 4.0 L 61.0 5.0 L 62.0 6.0 L 60.0 7.0 L 60.0 9.0 L 64.0 11.0 L 62.0 13.0 L 61.0 12.0 L 59.0 13.0 L 57.0 11.0 L 57.0 9.0 L 56.0 9.0 L 55.0 11.0 L 53.0 11.0 L 52.0 13.0 L 50.0 14.0 L 47.0 10.0 L 48.0 9.0 L 43.0 6.0 L 41.0 8.0 L 39.0 7.0 L 33.0 15.0 L 37.0 17.0 L 35.0 18.0 L 35.0 20.0 L 37.0 21.0 L 37.0 23.0 L 42.0 25.0 L 44.0 27.0 L 43.0 28.0 L 46.0 31.0 L 46.0 33.0 L 48.0 34.0 L 48.0 36.0 L 51.0 38.0 L 52.0 41.0 L 54.0 42.0 L 54.0 45.0 L 56.0 48.0 L 56.0 50.0 L 58.0 54.0 L 60.0 55.0 L 59.0 56.0 L 61.0 57.0 L 60.0 59.0 L 62.0 60.0 L 61.0 61.0 L 61.0 69.0 L 62.0 70.0 L 61.0 76.0 L 62.0 79.0 L 65.0 81.0 L 70.0 81.0 L 73.0 78.0 L 73.0 75.0 L 72.0 74.0 L 73.0 62.0 L 72.0 61.0 L 74.0 60.0 L 73.0 58.0 L 74.0 55.0 L 83.0 46.0 L 86.0 45.0 L 94.0 38.0 L 97.0 37.0 L 100.0 33.0 L 99.0 32.0 L 101.0 31.0 L 100.0 29.0 L 103.0 27.0 L 103.0 22.0 L 101.0 21.0 L 102.0 19.0 L 103.0 20.0 L 105.0 17.0 L 104.0 16.0 L 105.0 14.0 L 103.0 12.0 L 105.0 9.0 L 102.0 8.0 L 103.0 5.0 L 104.0 7.0 Z M 67.0 77.0 L 68.0 76.0 L 69.0 77.0 L 68.0 78.0 Z M 70.0 54.0 L 71.0 53.0 L 72.0 54.0 L 71.0 55.0 Z M 69.0 53.0 L 70.0 52.0 L 71.0 53.0 L 70.0 54.0 Z M 71.0 52.0 L 72.0 51.0 L 73.0 52.0 L 73.0 53.0 L 72.0 54.0 L 71.0 53.0 Z M 72.0 51.0 L 73.0 50.0 L 74.0 51.0 L 73.0 52.0 Z M 70.0 51.0 L 71.0 50.0 L 72.0 51.0 L 71.0 52.0 Z M 73.0 50.0 L 74.0 49.0 L 75.0 50.0 L 74.0 51.0 Z M 71.0 48.0 L 72.0 47.0 L 73.0 48.0 L 73.0 49.0 L 72.0 50.0 L 71.0 49.0 Z M 65.0 40.0 L 67.0 40.0 L 68.0 41.0 L 67.0 42.0 L 69.0 44.0 L 68.0 45.0 L 67.0 45.0 L 67.0 47.0 L 68.0 47.0 L 69.0 48.0 L 68.0 49.0 L 66.0 49.0 L 64.0 46.0 L 64.0 41.0 Z M 70.0 40.0 L 71.0 39.0 L 75.0 43.0 L 76.0 42.0 L 77.0 43.0 L 77.0 44.0 L 79.0 42.0 L 80.0 42.0 L 81.0 43.0 L 75.0 50.0 L 74.0 49.0 L 74.0 48.0 L 75.0 47.0 L 74.0 46.0 L 74.0 47.0 L 73.0 48.0 L 72.0 47.0 L 72.0 45.0 L 71.0 44.0 L 71.0 42.0 L 70.0 41.0 Z M 90.0 37.0 L 91.0 36.0 L 92.0 37.0 L 91.0 38.0 Z M 83.0 36.0 L 84.0 35.0 L 85.0 36.0 L 84.0 37.0 Z M 88.0 32.0 L 89.0 33.0 L 89.0 34.0 L 88.0 35.0 L 87.0 35.0 L 86.0 34.0 Z M 63.0 31.0 L 64.0 30.0 L 66.0 32.0 L 65.0 33.0 L 64.0 33.0 L 63.0 32.0 Z M 78.0 30.0 L 79.0 29.0 L 80.0 30.0 L 80.0 31.0 L 79.0 32.0 L 78.0 31.0 Z M 64.0 29.0 L 65.0 28.0 L 66.0 29.0 L 65.0 30.0 Z M 47.0 29.0 L 48.0 28.0 L 49.0 29.0 L 48.0 30.0 Z M 79.0 28.0 L 80.0 27.0 L 81.0 28.0 L 81.0 29.0 L 80.0 30.0 L 79.0 29.0 Z M 60.0 28.0 L 61.0 27.0 L 62.0 28.0 L 61.0 29.0 Z M 51.0 27.0 L 53.0 30.0 L 55.0 30.0 L 56.0 29.0 L 57.0 30.0 L 57.0 31.0 L 56.0 32.0 L 55.0 32.0 L 55.0 34.0 L 56.0 34.0 L 58.0 37.0 L 61.0 36.0 L 63.0 33.0 L 64.0 33.0 L 65.0 34.0 L 64.0 35.0 L 64.0 37.0 L 61.0 42.0 L 61.0 44.0 L 62.0 45.0 L 62.0 47.0 L 63.0 48.0 L 62.0 49.0 L 63.0 49.0 L 64.0 50.0 L 63.0 51.0 L 65.0 53.0 L 65.0 54.0 L 66.0 54.0 L 67.0 55.0 L 69.0 53.0 L 71.0 56.0 L 70.0 57.0 L 69.0 57.0 L 70.0 58.0 L 70.0 59.0 L 68.0 62.0 L 68.0 66.0 L 69.0 66.0 L 70.0 67.0 L 70.0 71.0 L 69.0 72.0 L 69.0 75.0 L 66.0 78.0 L 65.0 77.0 L 65.0 69.0 L 64.0 68.0 L 64.0 59.0 L 63.0 58.0 L 64.0 57.0 L 63.0 56.0 L 62.0 53.0 L 60.0 51.0 L 60.0 50.0 L 59.0 49.0 L 60.0 48.0 L 59.0 48.0 L 58.0 47.0 L 59.0 46.0 L 58.0 45.0 L 58.0 44.0 L 54.0 39.0 L 53.0 36.0 L 49.0 32.0 L 50.0 31.0 L 50.0 28.0 Z M 56.0 27.0 L 57.0 26.0 L 58.0 27.0 L 57.0 28.0 Z M 49.0 27.0 L 50.0 26.0 L 51.0 27.0 L 50.0 28.0 Z M 46.0 27.0 L 47.0 26.0 L 48.0 27.0 L 47.0 28.0 Z M 70.0 26.0 L 71.0 25.0 L 72.0 26.0 L 71.0 27.0 Z M 65.0 26.0 L 66.0 25.0 L 67.0 26.0 L 66.0 27.0 Z M 48.0 26.0 L 49.0 25.0 L 50.0 26.0 L 49.0 27.0 Z M 53.0 25.0 L 54.0 24.0 L 55.0 25.0 L 54.0 26.0 Z M 45.0 25.0 L 46.0 24.0 L 47.0 25.0 L 46.0 26.0 Z M 70.0 24.0 L 71.0 23.0 L 73.0 23.0 L 74.0 24.0 L 74.0 25.0 L 73.0 26.0 L 72.0 26.0 Z M 60.0 24.0 L 61.0 23.0 L 63.0 25.0 L 63.0 26.0 L 62.0 27.0 L 60.0 25.0 Z M 47.0 24.0 L 48.0 23.0 L 49.0 24.0 L 48.0 25.0 Z M 97.0 22.0 L 98.0 23.0 L 98.0 25.0 L 96.0 28.0 L 95.0 27.0 L 95.0 23.0 L 96.0 22.0 Z M 84.0 23.0 L 85.0 22.0 L 86.0 23.0 L 85.0 24.0 Z M 73.0 23.0 L 74.0 22.0 L 75.0 23.0 L 74.0 24.0 Z M 66.0 23.0 L 67.0 22.0 L 68.0 23.0 L 67.0 24.0 Z M 51.0 22.0 L 52.0 21.0 L 53.0 22.0 L 52.0 23.0 Z M 86.0 20.0 L 87.0 19.0 L 88.0 20.0 L 87.0 21.0 Z M 90.0 18.0 L 92.0 21.0 L 92.0 28.0 L 91.0 29.0 L 91.0 32.0 L 90.0 33.0 L 89.0 33.0 L 88.0 32.0 L 89.0 31.0 L 85.0 35.0 L 84.0 35.0 L 83.0 36.0 L 83.0 38.0 L 82.0 39.0 L 81.0 38.0 L 81.0 37.0 L 81.0 38.0 L 80.0 39.0 L 79.0 38.0 L 79.0 39.0 L 78.0 40.0 L 76.0 38.0 L 76.0 36.0 L 75.0 35.0 L 76.0 34.0 L 76.0 33.0 L 78.0 31.0 L 79.0 32.0 L 81.0 30.0 L 81.0 28.0 L 80.0 27.0 L 80.0 25.0 L 81.0 24.0 L 84.0 25.0 L 86.0 23.0 L 88.0 23.0 L 88.0 22.0 L 87.0 21.0 L 88.0 20.0 L 88.0 19.0 L 89.0 18.0 Z M 103.0 17.0 L 104.0 16.0 L 105.0 17.0 L 104.0 18.0 Z M 88.0 17.0 L 89.0 16.0 L 90.0 16.0 L 91.0 17.0 L 90.0 18.0 L 89.0 18.0 Z M 72.0 16.0 L 73.0 15.0 L 74.0 16.0 L 74.0 17.0 L 73.0 18.0 L 72.0 17.0 Z M 89.0 15.0 L 90.0 14.0 L 91.0 15.0 L 90.0 16.0 Z M 60.0 14.0 L 61.0 13.0 L 62.0 14.0 L 61.0 15.0 Z M 52.0 14.0 L 53.0 13.0 L 54.0 14.0 L 53.0 15.0 Z M 90.0 12.0 L 91.0 11.0 L 92.0 12.0 L 92.0 13.0 L 91.0 14.0 L 90.0 13.0 Z M 88.0 11.0 L 89.0 10.0 L 90.0 11.0 L 90.0 12.0 L 89.0 13.0 L 88.0 12.0 Z M 37.0 9.0 L 38.0 8.0 L 39.0 9.0 L 38.0 10.0 Z M 93.0 5.0 L 94.0 4.0 L 95.0 5.0 L 94.0 6.0 Z " fill="#7e968f" fill-rule="evenodd"></path>
</svg>