<svg xmlns="http://www.w3.org/2000/svg" width="407" height="180" viewBox="0 0 407 180" role="img" aria-label="Joshua Tree Health logo asset">
<path d="M 310.0 150.0 L 309.0 150.0 L 306.0 152.0 L 306.0 156.0 L 307.0 157.0 L 311.0 157.0 L 311.0 156.0 L 312.0 155.0 L 312.0 152.0 Z " fill="#b7aacf" fill-rule="evenodd"></path>
<path d="M 364.0 149.0 L 362.0 151.0 L 361.0 151.0 L 361.0 154.0 L 362.0 155.0 L 362.0 156.0 L 364.0 158.0 L 366.0 156.0 L 365.0 155.0 L 366.0 154.0 L 367.0 154.0 L 367.0 152.0 L 366.0 151.0 L 365.0 151.0 L 364.0 150.0 Z " fill="#b5b3b0" fill-rule="evenodd"></path>
<path d="M 325.0 158.0 L 326.0 159.0 L 327.0 158.0 L 328.0 158.0 L 329.0 157.0 L 328.0 156.0 L 329.0 155.0 L 332.0 155.0 L 333.0 156.0 L 333.0 158.0 L 337.0 158.0 L 337.0 156.0 L 338.0 155.0 L 339.0 155.0 L 340.0 156.0 L 340.0 158.0 L 345.0 158.0 L 345.0 157.0 L 346.0 156.0 L 347.0 156.0 L 350.0 153.0 L 350.0 150.0 L 349.0 149.0 L 348.0 149.0 L 347.0 148.0 L 347.0 147.0 L 344.0 147.0 L 344.0 148.0 L 343.0 149.0 L 342.0 149.0 L 341.0 148.0 L 341.0 147.0 L 340.0 147.0 L 340.0 152.0 L 339.0 153.0 L 337.0 150.0 L 338.0 149.0 L 336.0 149.0 L 335.0 148.0 L 336.0 147.0 L 335.0 147.0 L 335.0 149.0 L 334.0 150.0 L 329.0 147.0 L 327.0 147.0 L 326.0 148.0 L 326.0 150.0 L 325.0 151.0 L 326.0 152.0 L 326.0 154.0 L 325.0 155.0 Z M 329.0 151.0 L 330.0 150.0 L 331.0 151.0 L 331.0 152.0 L 330.0 153.0 L 329.0 152.0 Z " fill="#b1afad" fill-rule="evenodd"></path>
<path d="M 269.0 149.0 L 271.0 151.0 L 270.0 152.0 L 270.0 154.0 L 269.0 155.0 L 270.0 156.0 L 270.0 159.0 L 275.0 159.0 L 278.0 154.0 L 279.0 155.0 L 280.0 158.0 L 281.0 158.0 L 282.0 159.0 L 282.0 160.0 L 282.0 159.0 L 283.0 158.0 L 284.0 159.0 L 285.0 158.0 L 286.0 158.0 L 287.0 159.0 L 288.0 158.0 L 291.0 158.0 L 292.0 159.0 L 292.0 160.0 L 292.0 159.0 L 293.0 158.0 L 294.0 158.0 L 294.0 152.0 L 293.0 151.0 L 292.0 151.0 L 291.0 150.0 L 288.0 149.0 L 287.0 148.0 L 287.0 147.0 L 287.0 151.0 L 286.0 152.0 L 285.0 152.0 L 283.0 150.0 L 283.0 149.0 L 282.0 150.0 L 281.0 149.0 L 277.0 149.0 L 276.0 150.0 L 276.0 151.0 L 277.0 151.0 L 278.0 152.0 L 278.0 153.0 L 277.0 154.0 L 276.0 153.0 L 276.0 154.0 L 275.0 155.0 L 274.0 154.0 L 274.0 149.0 L 273.0 148.0 L 273.0 147.0 L 270.0 147.0 L 270.0 148.0 Z M 275.0 156.0 L 276.0 155.0 L 277.0 156.0 L 276.0 157.0 Z M 273.0 156.0 L 274.0 155.0 L 275.0 156.0 L 274.0 157.0 Z M 288.0 155.0 L 289.0 154.0 L 290.0 155.0 L 289.0 156.0 Z M 284.0 155.0 L 285.0 154.0 L 286.0 155.0 L 285.0 156.0 Z M 282.0 154.0 L 283.0 153.0 L 284.0 153.0 L 285.0 154.0 L 284.0 155.0 L 283.0 155.0 Z M 284.0 153.0 L 285.0 152.0 L 286.0 153.0 L 285.0 154.0 Z M 271.0 151.0 L 272.0 152.0 L 272.0 155.0 L 271.0 156.0 L 270.0 155.0 L 270.0 152.0 Z M 278.0 150.0 L 279.0 149.0 L 280.0 150.0 L 279.0 151.0 Z " fill="#b7b5b2" fill-rule="evenodd"></path>
<path d="M 242.0 149.0 L 242.0 158.0 L 246.0 158.0 L 246.0 156.0 L 247.0 155.0 L 248.0 156.0 L 248.0 158.0 L 249.0 159.0 L 249.0 160.0 L 249.0 159.0 L 250.0 158.0 L 252.0 158.0 L 253.0 159.0 L 256.0 160.0 L 257.0 159.0 L 258.0 159.0 L 260.0 157.0 L 261.0 157.0 L 262.0 158.0 L 261.0 159.0 L 262.0 159.0 L 263.0 160.0 L 264.0 160.0 L 266.0 158.0 L 267.0 159.0 L 267.0 152.0 L 266.0 152.0 L 265.0 151.0 L 265.0 150.0 L 263.0 150.0 L 263.0 151.0 L 260.0 153.0 L 257.0 150.0 L 254.0 150.0 L 252.0 152.0 L 251.0 151.0 L 251.0 148.0 L 248.0 150.0 L 247.0 149.0 L 245.0 149.0 L 244.0 148.0 L 244.0 147.0 L 244.0 148.0 L 243.0 149.0 Z M 258.0 156.0 L 259.0 155.0 L 260.0 156.0 L 259.0 157.0 Z M 260.0 154.0 L 261.0 153.0 L 262.0 154.0 L 261.0 155.0 Z M 245.0 152.0 L 246.0 151.0 L 247.0 151.0 L 248.0 152.0 L 247.0 153.0 L 246.0 153.0 Z M 246.0 150.0 L 247.0 149.0 L 248.0 150.0 L 247.0 151.0 Z " fill="#b3b1b0" fill-rule="evenodd"></path>
<path d="M 137.0 149.0 L 137.0 150.0 L 138.0 150.0 L 139.0 151.0 L 139.0 154.0 L 140.0 155.0 L 139.0 156.0 L 140.0 157.0 L 140.0 158.0 L 144.0 158.0 L 145.0 157.0 L 146.0 157.0 L 148.0 159.0 L 149.0 158.0 L 150.0 159.0 L 153.0 158.0 L 154.0 159.0 L 153.0 160.0 L 154.0 159.0 L 155.0 159.0 L 154.0 159.0 L 153.0 158.0 L 153.0 156.0 L 154.0 155.0 L 157.0 158.0 L 157.0 159.0 L 158.0 159.0 L 159.0 160.0 L 160.0 160.0 L 162.0 157.0 L 163.0 158.0 L 166.0 158.0 L 167.0 159.0 L 168.0 158.0 L 169.0 158.0 L 170.0 159.0 L 170.0 160.0 L 170.0 159.0 L 171.0 158.0 L 172.0 158.0 L 172.0 153.0 L 171.0 152.0 L 171.0 151.0 L 170.0 151.0 L 169.0 150.0 L 164.0 150.0 L 163.0 151.0 L 162.0 151.0 L 161.0 150.0 L 158.0 150.0 L 158.0 151.0 L 157.0 152.0 L 156.0 151.0 L 155.0 151.0 L 156.0 152.0 L 155.0 153.0 L 154.0 153.0 L 151.0 150.0 L 151.0 149.0 L 149.0 149.0 L 149.0 150.0 L 146.0 153.0 L 145.0 153.0 L 144.0 152.0 L 145.0 151.0 L 145.0 149.0 L 144.0 148.0 L 145.0 147.0 L 139.0 147.0 Z M 159.0 159.0 L 160.0 158.0 L 161.0 159.0 L 160.0 160.0 Z M 144.0 155.0 L 145.0 154.0 L 146.0 155.0 L 145.0 156.0 Z M 154.0 154.0 L 155.0 153.0 L 156.0 154.0 L 155.0 155.0 Z M 165.0 151.0 L 166.0 150.0 L 167.0 151.0 L 166.0 152.0 Z M 163.0 151.0 L 164.0 150.0 L 165.0 151.0 L 164.0 152.0 Z " fill="#bbb9b7" fill-rule="evenodd"></path>
<path d="M 402.0 150.0 L 401.0 149.0 L 401.0 148.0 L 400.0 148.0 L 399.0 147.0 L 397.0 147.0 L 397.0 148.0 L 395.0 150.0 L 393.0 150.0 L 392.0 149.0 L 391.0 146.0 L 390.0 146.0 L 390.0 148.0 L 387.0 150.0 L 386.0 150.0 L 383.0 147.0 L 383.0 148.0 L 382.0 149.0 L 380.0 147.0 L 380.0 148.0 L 379.0 149.0 L 378.0 149.0 L 378.0 150.0 L 381.0 155.0 L 380.0 156.0 L 379.0 156.0 L 378.0 157.0 L 378.0 158.0 L 379.0 159.0 L 379.0 160.0 L 381.0 160.0 L 381.0 159.0 L 382.0 158.0 L 384.0 160.0 L 385.0 159.0 L 385.0 158.0 L 386.0 157.0 L 387.0 157.0 L 388.0 158.0 L 387.0 159.0 L 388.0 158.0 L 389.0 158.0 L 390.0 159.0 L 390.0 161.0 L 392.0 159.0 L 392.0 158.0 L 393.0 157.0 L 395.0 157.0 L 396.0 158.0 L 397.0 158.0 L 397.0 157.0 L 398.0 156.0 L 399.0 156.0 L 399.0 155.0 L 400.0 154.0 L 401.0 155.0 L 401.0 154.0 L 402.0 153.0 Z M 384.0 156.0 L 385.0 155.0 L 386.0 155.0 L 387.0 156.0 L 386.0 157.0 L 385.0 157.0 Z M 397.0 155.0 L 398.0 154.0 L 399.0 155.0 L 398.0 156.0 Z M 382.0 153.0 L 383.0 152.0 L 384.0 153.0 L 384.0 154.0 L 383.0 155.0 L 382.0 154.0 Z M 379.0 152.0 L 380.0 151.0 L 381.0 152.0 L 380.0 153.0 Z M 399.0 151.0 L 400.0 150.0 L 401.0 151.0 L 400.0 152.0 Z M 386.0 150.0 L 387.0 151.0 L 386.0 152.0 L 386.0 154.0 L 385.0 155.0 L 384.0 154.0 L 384.0 151.0 L 385.0 150.0 Z " fill="#b0aeab" fill-rule="evenodd"></path>
<path d="M 232.0 150.0 L 231.0 149.0 L 230.0 149.0 L 229.0 148.0 L 229.0 146.0 L 228.0 146.0 L 227.0 147.0 L 227.0 148.0 L 226.0 149.0 L 225.0 149.0 L 227.0 151.0 L 225.0 154.0 L 224.0 154.0 L 223.0 153.0 L 224.0 152.0 L 222.0 150.0 L 219.0 150.0 L 217.0 152.0 L 215.0 152.0 L 214.0 151.0 L 214.0 149.0 L 213.0 150.0 L 211.0 148.0 L 210.0 148.0 L 210.0 149.0 L 207.0 152.0 L 206.0 152.0 L 205.0 151.0 L 205.0 150.0 L 200.0 150.0 L 200.0 151.0 L 199.0 152.0 L 198.0 152.0 L 196.0 150.0 L 193.0 150.0 L 192.0 151.0 L 191.0 150.0 L 191.0 151.0 L 192.0 152.0 L 191.0 153.0 L 190.0 153.0 L 189.0 152.0 L 189.0 149.0 L 188.0 148.0 L 187.0 149.0 L 187.0 150.0 L 186.0 151.0 L 185.0 151.0 L 184.0 150.0 L 183.0 147.0 L 183.0 148.0 L 182.0 149.0 L 181.0 149.0 L 181.0 152.0 L 182.0 153.0 L 182.0 158.0 L 183.0 159.0 L 187.0 155.0 L 188.0 156.0 L 188.0 160.0 L 189.0 160.0 L 188.0 159.0 L 189.0 158.0 L 190.0 158.0 L 190.0 157.0 L 191.0 156.0 L 192.0 157.0 L 192.0 159.0 L 193.0 159.0 L 194.0 160.0 L 197.0 159.0 L 197.0 156.0 L 198.0 155.0 L 199.0 156.0 L 199.0 158.0 L 201.0 158.0 L 201.0 154.0 L 202.0 153.0 L 203.0 154.0 L 203.0 155.0 L 204.0 154.0 L 205.0 155.0 L 205.0 159.0 L 206.0 158.0 L 206.0 153.0 L 207.0 152.0 L 209.0 154.0 L 208.0 155.0 L 208.0 156.0 L 212.0 160.0 L 213.0 160.0 L 216.0 158.0 L 217.0 158.0 L 219.0 160.0 L 220.0 160.0 L 221.0 159.0 L 223.0 159.0 L 224.0 158.0 L 226.0 158.0 L 227.0 159.0 L 227.0 160.0 L 228.0 160.0 L 228.0 159.0 L 229.0 158.0 L 231.0 160.0 L 232.0 159.0 L 232.0 157.0 L 231.0 156.0 L 232.0 155.0 Z M 218.0 159.0 L 219.0 158.0 L 220.0 159.0 L 219.0 160.0 Z M 214.0 158.0 L 215.0 157.0 L 216.0 158.0 L 215.0 159.0 Z M 225.0 156.0 L 226.0 155.0 L 227.0 156.0 L 226.0 157.0 Z M 211.0 156.0 L 212.0 155.0 L 213.0 156.0 L 212.0 157.0 Z M 183.0 156.0 L 184.0 155.0 L 185.0 156.0 L 184.0 157.0 Z M 217.0 154.0 L 218.0 153.0 L 219.0 154.0 L 218.0 155.0 Z M 212.0 155.0 L 213.0 154.0 L 215.0 154.0 L 216.0 153.0 L 218.0 155.0 L 217.0 156.0 L 213.0 156.0 Z M 211.0 154.0 L 212.0 153.0 L 213.0 154.0 L 212.0 155.0 Z M 219.0 153.0 L 220.0 152.0 L 221.0 153.0 L 220.0 154.0 Z M 214.0 153.0 L 215.0 152.0 L 216.0 153.0 L 215.0 154.0 Z M 226.0 152.0 L 227.0 151.0 L 228.0 152.0 L 227.0 153.0 Z M 201.0 151.0 L 202.0 150.0 L 203.0 151.0 L 202.0 152.0 Z M 211.0 150.0 L 212.0 149.0 L 213.0 150.0 L 212.0 151.0 Z " fill="#b1afac" fill-rule="evenodd"></path>
<path d="M 290.0 114.0 L 290.0 116.0 L 291.0 117.0 L 290.0 118.0 L 290.0 122.0 L 291.0 123.0 L 290.0 125.0 L 292.0 126.0 L 291.0 127.0 L 293.0 128.0 L 292.0 129.0 L 295.0 132.0 L 297.0 132.0 L 301.0 135.0 L 308.0 135.0 L 309.0 134.0 L 311.0 134.0 L 315.0 131.0 L 315.0 130.0 L 318.0 126.0 L 320.0 130.0 L 324.0 134.0 L 326.0 133.0 L 327.0 135.0 L 329.0 135.0 L 330.0 136.0 L 334.0 136.0 L 333.0 135.0 L 334.0 134.0 L 336.0 135.0 L 338.0 132.0 L 340.0 134.0 L 341.0 133.0 L 343.0 134.0 L 344.0 133.0 L 344.0 125.0 L 345.0 124.0 L 346.0 125.0 L 346.0 120.0 L 345.0 119.0 L 345.0 113.0 L 344.0 112.0 L 345.0 108.0 L 342.0 105.0 L 345.0 108.0 L 344.0 110.0 L 340.0 106.0 L 340.0 104.0 L 339.0 106.0 L 338.0 104.0 L 335.0 104.0 L 334.0 105.0 L 328.0 104.0 L 326.0 105.0 L 320.0 113.0 L 320.0 114.0 L 322.0 115.0 L 321.0 116.0 L 324.0 116.0 L 325.0 118.0 L 324.0 119.0 L 323.0 118.0 L 320.0 121.0 L 318.0 125.0 L 317.0 124.0 L 317.0 118.0 L 318.0 117.0 L 318.0 114.0 L 317.0 112.0 L 318.0 111.0 L 317.0 112.0 L 316.0 110.0 L 315.0 110.0 L 312.0 107.0 L 312.0 106.0 L 309.0 104.0 L 307.0 104.0 L 306.0 105.0 L 299.0 104.0 L 295.0 106.0 L 291.0 112.0 L 292.0 113.0 Z M 335.0 134.0 L 336.0 133.0 L 337.0 134.0 L 336.0 135.0 Z M 323.0 133.0 L 324.0 132.0 L 325.0 133.0 L 324.0 134.0 Z M 310.0 133.0 L 311.0 132.0 L 312.0 133.0 L 311.0 134.0 Z M 319.0 128.0 L 320.0 127.0 L 321.0 128.0 L 320.0 129.0 Z M 333.0 127.0 L 334.0 126.0 L 335.0 127.0 L 334.0 128.0 Z M 327.0 127.0 L 328.0 126.0 L 329.0 127.0 L 329.0 128.0 L 328.0 129.0 L 327.0 128.0 Z M 300.0 127.0 L 301.0 126.0 L 302.0 126.0 L 305.0 128.0 L 304.0 129.0 L 302.0 129.0 Z M 308.0 126.0 L 309.0 125.0 L 310.0 126.0 L 309.0 127.0 Z M 337.0 124.0 L 338.0 125.0 L 338.0 126.0 L 337.0 127.0 L 336.0 127.0 L 335.0 126.0 Z M 297.0 125.0 L 298.0 124.0 L 299.0 124.0 L 300.0 125.0 L 299.0 126.0 L 298.0 126.0 Z M 319.0 123.0 L 320.0 122.0 L 321.0 123.0 L 320.0 124.0 Z M 297.0 123.0 L 298.0 122.0 L 299.0 123.0 L 298.0 124.0 Z M 335.0 122.0 L 336.0 121.0 L 338.0 121.0 L 339.0 122.0 L 339.0 124.0 L 338.0 125.0 L 337.0 124.0 L 337.0 123.0 L 336.0 123.0 Z M 325.0 125.0 L 326.0 124.0 L 331.0 124.0 L 329.0 124.0 L 328.0 123.0 L 331.0 121.0 L 332.0 121.0 L 333.0 122.0 L 333.0 123.0 L 336.0 123.0 L 337.0 124.0 L 335.0 126.0 L 334.0 126.0 L 333.0 127.0 L 329.0 127.0 L 328.0 126.0 L 327.0 127.0 Z M 298.0 122.0 L 299.0 121.0 L 306.0 121.0 L 307.0 122.0 L 311.0 122.0 L 312.0 123.0 L 312.0 124.0 L 311.0 125.0 L 309.0 125.0 L 308.0 126.0 L 308.0 128.0 L 307.0 129.0 L 306.0 128.0 L 306.0 127.0 L 303.0 127.0 L 300.0 125.0 L 301.0 124.0 L 303.0 124.0 L 303.0 123.0 L 299.0 123.0 Z M 320.0 121.0 L 321.0 120.0 L 322.0 121.0 L 321.0 122.0 Z M 299.0 116.0 L 300.0 115.0 L 301.0 116.0 L 300.0 117.0 Z M 296.0 115.0 L 297.0 114.0 L 299.0 116.0 L 298.0 117.0 L 297.0 117.0 L 296.0 116.0 Z M 326.0 115.0 L 330.0 111.0 L 336.0 111.0 L 338.0 113.0 L 338.0 114.0 L 337.0 115.0 L 332.0 115.0 L 332.0 116.0 L 331.0 117.0 L 330.0 117.0 L 329.0 116.0 L 327.0 116.0 Z M 308.0 112.0 L 309.0 111.0 L 311.0 113.0 L 311.0 114.0 L 310.0 115.0 L 308.0 113.0 Z M 310.0 115.0 L 309.0 116.0 L 305.0 116.0 L 304.0 115.0 L 299.0 115.0 L 298.0 114.0 L 301.0 111.0 L 305.0 111.0 L 306.0 112.0 L 306.0 111.0 L 307.0 110.0 L 308.0 111.0 L 308.0 113.0 L 307.0 114.0 L 309.0 114.0 Z " fill="#777674" fill-rule="evenodd"></path>
<path d="M 242.0 114.0 L 240.0 110.0 L 235.0 105.0 L 233.0 104.0 L 227.0 105.0 L 224.0 103.0 L 224.0 105.0 L 223.0 106.0 L 222.0 104.0 L 222.0 106.0 L 221.0 107.0 L 219.0 107.0 L 215.0 110.0 L 217.0 111.0 L 216.0 112.0 L 214.0 112.0 L 216.0 113.0 L 215.0 114.0 L 213.0 114.0 L 215.0 117.0 L 214.0 118.0 L 214.0 121.0 L 215.0 122.0 L 213.0 123.0 L 211.0 120.0 L 211.0 114.0 L 209.0 111.0 L 209.0 109.0 L 205.0 105.0 L 203.0 104.0 L 201.0 104.0 L 200.0 105.0 L 196.0 105.0 L 195.0 104.0 L 193.0 104.0 L 187.0 108.0 L 188.0 109.0 L 186.0 110.0 L 186.0 112.0 L 184.0 115.0 L 184.0 122.0 L 183.0 123.0 L 185.0 125.0 L 184.0 126.0 L 186.0 127.0 L 185.0 128.0 L 190.0 133.0 L 191.0 132.0 L 192.0 134.0 L 194.0 134.0 L 195.0 136.0 L 197.0 136.0 L 198.0 137.0 L 199.0 136.0 L 201.0 136.0 L 202.0 134.0 L 206.0 133.0 L 209.0 130.0 L 209.0 128.0 L 212.0 123.0 L 213.0 125.0 L 215.0 125.0 L 216.0 126.0 L 214.0 127.0 L 215.0 127.0 L 218.0 131.0 L 223.0 134.0 L 222.0 135.0 L 224.0 133.0 L 225.0 135.0 L 232.0 135.0 L 233.0 134.0 L 235.0 134.0 L 238.0 130.0 L 241.0 129.0 L 242.0 128.0 L 241.0 127.0 L 242.0 125.0 L 237.0 123.0 L 235.0 125.0 L 233.0 125.0 L 234.0 126.0 L 231.0 128.0 L 226.0 128.0 L 223.0 126.0 L 222.0 123.0 L 223.0 122.0 L 234.0 122.0 L 235.0 121.0 L 241.0 121.0 L 242.0 120.0 Z M 234.0 133.0 L 235.0 132.0 L 236.0 133.0 L 235.0 134.0 Z M 205.0 132.0 L 206.0 131.0 L 207.0 132.0 L 206.0 133.0 Z M 240.0 128.0 L 241.0 127.0 L 242.0 128.0 L 241.0 129.0 Z M 192.0 127.0 L 193.0 126.0 L 194.0 127.0 L 193.0 128.0 Z M 202.0 127.0 L 202.0 126.0 L 203.0 125.0 L 204.0 125.0 L 205.0 126.0 L 203.0 128.0 Z M 191.0 124.0 L 191.0 123.0 L 192.0 122.0 L 205.0 122.0 L 206.0 123.0 L 204.0 125.0 L 203.0 125.0 L 202.0 126.0 L 202.0 128.0 L 201.0 129.0 L 199.0 127.0 L 197.0 127.0 L 195.0 129.0 L 194.0 128.0 L 194.0 127.0 Z M 205.0 122.0 L 206.0 121.0 L 211.0 121.0 L 212.0 122.0 L 210.0 124.0 L 208.0 124.0 Z M 230.0 116.0 L 231.0 115.0 L 234.0 115.0 L 235.0 116.0 L 234.0 117.0 L 231.0 117.0 Z M 194.0 116.0 L 195.0 115.0 L 204.0 115.0 L 205.0 116.0 L 204.0 117.0 L 195.0 117.0 Z M 221.0 114.0 L 222.0 113.0 L 223.0 114.0 L 222.0 115.0 Z M 190.0 114.0 L 191.0 113.0 L 192.0 113.0 L 193.0 114.0 L 192.0 115.0 L 191.0 115.0 Z M 202.0 112.0 L 203.0 111.0 L 204.0 112.0 L 203.0 113.0 Z M 192.0 113.0 L 194.0 111.0 L 201.0 111.0 L 204.0 114.0 L 203.0 115.0 L 194.0 115.0 Z M 231.0 111.0 L 232.0 110.0 L 233.0 111.0 L 232.0 112.0 Z M 222.0 115.0 L 223.0 114.0 L 224.0 114.0 L 224.0 112.0 L 227.0 110.0 L 228.0 110.0 L 229.0 111.0 L 231.0 111.0 L 234.0 114.0 L 233.0 115.0 L 230.0 115.0 L 229.0 116.0 L 223.0 116.0 Z M 187.0 108.0 L 188.0 107.0 L 189.0 108.0 L 188.0 109.0 Z M 204.0 106.0 L 205.0 105.0 L 206.0 106.0 L 205.0 107.0 Z M 202.0 105.0 L 203.0 104.0 L 204.0 105.0 L 203.0 106.0 Z " fill="#777675" fill-rule="evenodd"></path>
<path d="M 168.0 103.0 L 167.0 104.0 L 167.0 105.0 L 166.0 106.0 L 165.0 106.0 L 165.0 118.0 L 164.0 119.0 L 164.0 125.0 L 165.0 126.0 L 165.0 132.0 L 166.0 133.0 L 173.0 133.0 L 174.0 132.0 L 174.0 131.0 L 173.0 130.0 L 173.0 123.0 L 174.0 122.0 L 174.0 118.0 L 175.0 117.0 L 175.0 115.0 L 177.0 113.0 L 178.0 113.0 L 177.0 113.0 L 176.0 112.0 L 178.0 110.0 L 182.0 110.0 L 183.0 109.0 L 183.0 107.0 L 181.0 104.0 L 177.0 104.0 L 176.0 105.0 L 175.0 105.0 L 175.0 106.0 L 174.0 107.0 L 173.0 106.0 L 172.0 106.0 L 170.0 103.0 Z M 173.0 116.0 L 174.0 115.0 L 175.0 116.0 L 175.0 117.0 L 174.0 118.0 L 173.0 117.0 Z " fill="#82817f" fill-rule="evenodd"></path>
<path d="M 278.0 96.0 L 278.0 98.0 Z " fill="#eae3dd" fill-rule="evenodd"></path>
<path d="M 380.0 95.0 L 378.0 98.0 L 378.0 99.0 L 379.0 100.0 L 379.0 132.0 L 378.0 133.0 L 380.0 135.0 L 383.0 135.0 L 385.0 133.0 L 385.0 124.0 L 384.0 123.0 L 384.0 117.0 L 386.0 115.0 L 387.0 115.0 L 387.0 114.0 L 388.0 113.0 L 388.0 111.0 L 389.0 110.0 L 390.0 111.0 L 391.0 110.0 L 392.0 110.0 L 393.0 111.0 L 395.0 111.0 L 398.0 113.0 L 397.0 114.0 L 397.0 119.0 L 398.0 120.0 L 398.0 131.0 L 397.0 132.0 L 398.0 133.0 L 400.0 133.0 L 401.0 134.0 L 403.0 134.0 L 405.0 132.0 L 405.0 123.0 L 404.0 122.0 L 404.0 116.0 L 405.0 115.0 L 403.0 113.0 L 404.0 112.0 L 404.0 111.0 L 403.0 111.0 L 402.0 110.0 L 403.0 109.0 L 399.0 105.0 L 398.0 106.0 L 397.0 105.0 L 397.0 103.0 L 395.0 105.0 L 392.0 105.0 L 391.0 104.0 L 389.0 104.0 L 389.0 105.0 L 388.0 106.0 L 387.0 105.0 L 386.0 106.0 L 385.0 105.0 L 385.0 96.0 L 383.0 96.0 L 382.0 95.0 Z " fill="#6b6968" fill-rule="evenodd"></path>
<path d="M 350.0 96.0 L 350.0 102.0 L 349.0 103.0 L 349.0 116.0 L 350.0 117.0 L 350.0 133.0 L 355.0 133.0 L 356.0 132.0 L 355.0 130.0 L 355.0 125.0 L 356.0 124.0 L 356.0 111.0 L 358.0 110.0 L 361.0 112.0 L 361.0 114.0 L 362.0 115.0 L 362.0 124.0 L 361.0 125.0 L 360.0 124.0 L 360.0 118.0 L 360.0 127.0 L 362.0 129.0 L 362.0 131.0 L 364.0 133.0 L 365.0 132.0 L 366.0 134.0 L 367.0 133.0 L 369.0 135.0 L 369.0 136.0 L 372.0 136.0 L 371.0 135.0 L 372.0 134.0 L 376.0 133.0 L 376.0 129.0 L 375.0 128.0 L 376.0 127.0 L 376.0 122.0 L 376.0 127.0 L 375.0 128.0 L 371.0 128.0 L 370.0 127.0 L 371.0 126.0 L 369.0 125.0 L 369.0 114.0 L 368.0 113.0 L 370.0 110.0 L 372.0 110.0 L 373.0 111.0 L 376.0 110.0 L 377.0 111.0 L 377.0 113.0 L 376.0 106.0 L 374.0 105.0 L 374.0 103.0 L 371.0 103.0 L 370.0 104.0 L 368.0 103.0 L 369.0 102.0 L 369.0 97.0 L 368.0 97.0 L 367.0 95.0 L 363.0 95.0 L 363.0 96.0 L 361.0 97.0 L 361.0 103.0 L 359.0 104.0 L 358.0 106.0 L 356.0 104.0 L 356.0 96.0 Z M 361.0 111.0 L 362.0 110.0 L 363.0 111.0 L 362.0 112.0 Z M 361.0 104.0 L 362.0 103.0 L 363.0 104.0 L 362.0 105.0 Z " fill="#797876" fill-rule="evenodd"></path>
<path d="M 138.0 95.0 L 137.0 96.0 L 136.0 96.0 L 136.0 100.0 L 138.0 102.0 L 146.0 102.0 L 148.0 104.0 L 148.0 105.0 L 147.0 106.0 L 147.0 108.0 L 148.0 109.0 L 147.0 110.0 L 148.0 111.0 L 148.0 133.0 L 149.0 133.0 L 150.0 134.0 L 150.0 135.0 L 154.0 135.0 L 156.0 133.0 L 156.0 104.0 L 158.0 102.0 L 163.0 102.0 L 164.0 103.0 L 166.0 101.0 L 167.0 98.0 L 166.0 97.0 L 166.0 96.0 L 150.0 96.0 L 149.0 95.0 L 146.0 95.0 L 145.0 96.0 L 143.0 96.0 L 142.0 95.0 Z " fill="#7c7b7a" fill-rule="evenodd"></path>
<path d="M 285.0 94.0 L 284.0 94.0 L 283.0 93.0 L 283.0 94.0 L 281.0 96.0 L 280.0 96.0 L 280.0 110.0 L 279.0 111.0 L 278.0 110.0 L 278.0 107.0 L 278.0 110.0 L 279.0 111.0 L 278.0 112.0 L 270.0 112.0 L 269.0 111.0 L 264.0 111.0 L 263.0 110.0 L 263.0 96.0 L 262.0 95.0 L 257.0 95.0 L 257.0 96.0 L 256.0 97.0 L 255.0 96.0 L 255.0 118.0 L 256.0 119.0 L 256.0 133.0 L 262.0 133.0 L 262.0 128.0 L 264.0 126.0 L 264.0 120.0 L 267.0 117.0 L 269.0 117.0 L 270.0 118.0 L 278.0 118.0 L 279.0 119.0 L 279.0 133.0 L 280.0 132.0 L 281.0 133.0 L 286.0 133.0 L 286.0 122.0 L 287.0 121.0 L 287.0 110.0 L 286.0 109.0 L 286.0 96.0 L 285.0 95.0 Z M 262.0 122.0 L 263.0 121.0 L 264.0 122.0 L 264.0 123.0 L 263.0 124.0 L 262.0 123.0 Z M 279.0 118.0 L 280.0 117.0 L 281.0 118.0 L 280.0 119.0 Z M 282.0 95.0 L 283.0 94.0 L 284.0 95.0 L 283.0 96.0 Z " fill="#72716f" fill-rule="evenodd"></path>
<path d="M 350.0 93.0 L 354.0 93.0 L 355.0 92.0 L 351.0 92.0 Z " fill="#e9e2db" fill-rule="evenodd"></path>
<path d="M 322.0 92.0 L 325.0 92.0 Z " fill="#ebe2dc" fill-rule="evenodd"></path>
<path d="M 292.0 92.0 L 296.0 92.0 Z " fill="#eae2db" fill-rule="evenodd"></path>
<path d="M 206.0 62.0 L 206.0 67.0 Z " fill="#fcf7f2" fill-rule="evenodd"></path>
<path d="M 337.0 60.0 L 337.0 62.0 L 334.0 64.0 L 334.0 65.0 L 332.0 68.0 L 332.0 70.0 L 333.0 70.0 L 334.0 71.0 L 333.0 72.0 L 334.0 72.0 L 335.0 71.0 L 336.0 71.0 L 337.0 72.0 L 335.0 74.0 L 334.0 74.0 L 332.0 76.0 L 333.0 77.0 L 332.0 78.0 L 331.0 78.0 L 332.0 79.0 L 331.0 80.0 L 331.0 84.0 L 332.0 85.0 L 332.0 86.0 L 334.0 88.0 L 334.0 89.0 L 335.0 89.0 L 337.0 91.0 L 346.0 91.0 L 348.0 89.0 L 349.0 90.0 L 350.0 90.0 L 351.0 89.0 L 352.0 90.0 L 355.0 90.0 L 356.0 89.0 L 356.0 68.0 L 357.0 67.0 L 357.0 66.0 L 356.0 66.0 L 355.0 65.0 L 355.0 64.0 L 351.0 60.0 L 349.0 60.0 L 348.0 59.0 L 342.0 59.0 L 342.0 60.0 L 341.0 61.0 L 339.0 59.0 L 339.0 60.0 L 338.0 61.0 Z M 348.0 89.0 L 349.0 88.0 L 350.0 88.0 L 351.0 89.0 L 350.0 90.0 L 349.0 90.0 Z M 351.0 79.0 L 349.0 81.0 L 348.0 80.0 L 348.0 81.0 L 346.0 84.0 L 339.0 84.0 L 338.0 83.0 L 338.0 80.0 L 339.0 79.0 L 340.0 79.0 L 340.0 78.0 L 341.0 77.0 L 342.0 77.0 L 343.0 78.0 L 346.0 78.0 L 348.0 76.0 L 349.0 76.0 Z M 336.0 73.0 L 337.0 72.0 L 338.0 73.0 L 337.0 74.0 Z M 348.0 67.0 L 349.0 66.0 L 350.0 67.0 L 349.0 68.0 Z M 338.0 69.0 L 340.0 66.0 L 341.0 67.0 L 343.0 65.0 L 346.0 65.0 L 347.0 66.0 L 346.0 67.0 L 345.0 67.0 L 348.0 67.0 L 350.0 69.0 L 348.0 72.0 L 347.0 71.0 L 344.0 71.0 L 343.0 70.0 L 341.0 70.0 L 342.0 70.0 L 343.0 71.0 L 341.0 73.0 L 340.0 73.0 L 339.0 72.0 Z " fill="#6e6d6b" fill-rule="evenodd"></path>
<path d="M 209.0 71.0 L 209.0 77.0 L 208.0 79.0 L 210.0 79.0 L 211.0 80.0 L 209.0 81.0 L 209.0 82.0 L 212.0 83.0 L 210.0 84.0 L 214.0 86.0 L 216.0 89.0 L 218.0 90.0 L 219.0 89.0 L 220.0 91.0 L 224.0 91.0 L 225.0 90.0 L 229.0 91.0 L 230.0 89.0 L 231.0 91.0 L 232.0 88.0 L 233.0 90.0 L 234.0 87.0 L 239.0 83.0 L 240.0 80.0 L 242.0 85.0 L 249.0 91.0 L 254.0 91.0 L 255.0 90.0 L 260.0 91.0 L 261.0 89.0 L 262.0 91.0 L 262.0 89.0 L 266.0 87.0 L 265.0 86.0 L 268.0 84.0 L 268.0 79.0 L 267.0 77.0 L 265.0 76.0 L 265.0 74.0 L 258.0 71.0 L 251.0 71.0 L 249.0 69.0 L 252.0 67.0 L 251.0 66.0 L 252.0 65.0 L 255.0 67.0 L 258.0 67.0 L 260.0 69.0 L 266.0 69.0 L 266.0 66.0 L 265.0 64.0 L 262.0 62.0 L 261.0 59.0 L 258.0 61.0 L 257.0 59.0 L 251.0 59.0 L 246.0 61.0 L 243.0 64.0 L 244.0 66.0 L 242.0 67.0 L 242.0 72.0 L 247.0 76.0 L 256.0 79.0 L 255.0 80.0 L 249.0 79.0 L 251.0 80.0 L 249.0 82.0 L 247.0 80.0 L 247.0 78.0 L 246.0 78.0 L 244.0 81.0 L 241.0 81.0 L 240.0 80.0 L 240.0 71.0 L 238.0 67.0 L 239.0 66.0 L 237.0 65.0 L 234.0 61.0 L 233.0 62.0 L 231.0 60.0 L 228.0 59.0 L 222.0 59.0 L 221.0 61.0 L 219.0 59.0 L 219.0 61.0 L 218.0 62.0 L 217.0 60.0 L 216.0 63.0 L 214.0 62.0 L 215.0 61.0 L 213.0 63.0 L 214.0 64.0 L 211.0 67.0 L 212.0 68.0 L 210.0 69.0 Z M 246.0 89.0 L 247.0 88.0 L 248.0 89.0 L 247.0 90.0 Z M 258.0 83.0 L 259.0 82.0 L 260.0 83.0 L 260.0 84.0 L 259.0 85.0 L 258.0 84.0 Z M 250.0 83.0 L 251.0 82.0 L 252.0 82.0 L 253.0 83.0 L 252.0 84.0 L 251.0 84.0 Z M 241.0 83.0 L 242.0 82.0 L 243.0 83.0 L 242.0 84.0 Z M 237.0 83.0 L 238.0 82.0 L 239.0 83.0 L 238.0 84.0 Z M 259.0 81.0 L 260.0 80.0 L 262.0 82.0 L 261.0 83.0 L 260.0 83.0 L 259.0 82.0 Z M 216.0 80.0 L 217.0 79.0 L 218.0 80.0 L 217.0 81.0 Z M 260.0 79.0 L 260.0 80.0 L 258.0 83.0 L 253.0 83.0 L 250.0 81.0 L 251.0 80.0 L 256.0 80.0 L 258.0 78.0 L 259.0 78.0 Z M 257.0 72.0 L 258.0 71.0 L 259.0 72.0 L 258.0 73.0 Z M 248.0 68.0 L 249.0 67.0 L 250.0 68.0 L 249.0 69.0 Z M 221.0 67.0 L 229.0 67.0 L 231.0 69.0 L 231.0 70.0 L 232.0 71.0 L 232.0 75.0 L 233.0 76.0 L 232.0 77.0 L 232.0 80.0 L 231.0 81.0 L 230.0 80.0 L 230.0 81.0 L 229.0 82.0 L 228.0 82.0 L 229.0 83.0 L 228.0 84.0 L 222.0 84.0 L 221.0 83.0 L 220.0 83.0 L 218.0 81.0 L 218.0 80.0 L 217.0 79.0 L 217.0 72.0 L 216.0 71.0 L 217.0 70.0 L 220.0 69.0 L 220.0 68.0 Z M 218.0 68.0 L 219.0 67.0 L 220.0 68.0 L 219.0 69.0 Z M 256.0 66.0 L 257.0 65.0 L 258.0 66.0 L 257.0 67.0 Z M 237.0 66.0 L 238.0 65.0 L 239.0 66.0 L 238.0 67.0 Z M 224.0 66.0 L 225.0 65.0 L 226.0 65.0 L 227.0 66.0 L 226.0 67.0 L 225.0 67.0 Z M 222.0 66.0 L 223.0 65.0 L 224.0 66.0 L 223.0 67.0 Z M 243.0 64.0 L 244.0 63.0 L 245.0 64.0 L 244.0 65.0 Z M 245.0 62.0 L 246.0 61.0 L 247.0 62.0 L 246.0 63.0 Z M 260.0 60.0 L 261.0 59.0 L 262.0 60.0 L 261.0 61.0 Z " fill="#787775" fill-rule="evenodd"></path>
<path d="M 270.0 52.0 L 270.0 66.0 L 268.0 67.0 L 269.0 68.0 L 269.0 73.0 L 269.0 67.0 L 270.0 66.0 L 271.0 67.0 L 270.0 89.0 L 271.0 89.0 L 272.0 91.0 L 275.0 91.0 L 275.0 90.0 L 278.0 88.0 L 277.0 87.0 L 278.0 86.0 L 278.0 71.0 L 279.0 69.0 L 282.0 67.0 L 288.0 67.0 L 290.0 70.0 L 290.0 73.0 L 289.0 74.0 L 289.0 79.0 L 290.0 80.0 L 289.0 81.0 L 289.0 88.0 L 292.0 90.0 L 296.0 90.0 L 298.0 88.0 L 299.0 89.0 L 299.0 85.0 L 301.0 83.0 L 302.0 85.0 L 304.0 86.0 L 303.0 87.0 L 305.0 89.0 L 312.0 92.0 L 317.0 91.0 L 319.0 89.0 L 320.0 90.0 L 321.0 89.0 L 322.0 90.0 L 326.0 90.0 L 328.0 88.0 L 329.0 89.0 L 329.0 81.0 L 328.0 80.0 L 329.0 62.0 L 327.0 61.0 L 322.0 61.0 L 321.0 62.0 L 320.0 61.0 L 321.0 80.0 L 316.0 84.0 L 311.0 84.0 L 309.0 81.0 L 307.0 80.0 L 308.0 79.0 L 308.0 72.0 L 309.0 71.0 L 308.0 62.0 L 304.0 60.0 L 302.0 60.0 L 301.0 62.0 L 300.0 61.0 L 300.0 66.0 L 299.0 67.0 L 296.0 67.0 L 295.0 66.0 L 296.0 65.0 L 294.0 64.0 L 291.0 60.0 L 288.0 59.0 L 284.0 59.0 L 283.0 60.0 L 280.0 59.0 L 278.0 62.0 L 277.0 61.0 L 277.0 51.0 L 271.0 51.0 Z M 320.0 88.0 L 321.0 87.0 L 322.0 88.0 L 321.0 89.0 Z M 304.0 88.0 L 305.0 87.0 L 306.0 88.0 L 305.0 89.0 Z M 327.0 86.0 L 328.0 85.0 L 329.0 86.0 L 329.0 87.0 L 328.0 88.0 L 327.0 87.0 Z M 316.0 84.0 L 317.0 83.0 L 318.0 84.0 L 317.0 85.0 Z M 299.0 81.0 L 300.0 80.0 L 302.0 82.0 L 301.0 83.0 L 300.0 83.0 L 299.0 82.0 Z M 300.0 71.0 L 301.0 72.0 L 301.0 74.0 L 300.0 75.0 L 299.0 74.0 L 299.0 72.0 Z M 289.0 69.0 L 290.0 68.0 L 291.0 69.0 L 290.0 70.0 Z M 296.0 68.0 L 297.0 67.0 L 298.0 67.0 L 299.0 68.0 L 299.0 70.0 L 298.0 71.0 Z M 283.0 66.0 L 284.0 65.0 L 285.0 65.0 L 286.0 66.0 L 285.0 67.0 L 284.0 67.0 Z M 279.0 60.0 L 280.0 59.0 L 281.0 60.0 L 281.0 61.0 L 280.0 62.0 L 279.0 61.0 Z " fill="#7e7c7b" fill-rule="evenodd"></path>
<path d="M 204.0 51.0 L 199.0 51.0 L 198.0 52.0 L 198.0 54.0 L 199.0 55.0 L 199.0 70.0 L 198.0 71.0 L 198.0 78.0 L 197.0 79.0 L 198.0 80.0 L 197.0 81.0 L 196.0 81.0 L 194.0 83.0 L 193.0 83.0 L 193.0 84.0 L 192.0 85.0 L 191.0 84.0 L 187.0 84.0 L 186.0 83.0 L 185.0 83.0 L 182.0 80.0 L 182.0 79.0 L 181.0 78.0 L 181.0 75.0 L 179.0 73.0 L 178.0 74.0 L 175.0 74.0 L 174.0 75.0 L 174.0 78.0 L 175.0 79.0 L 175.0 80.0 L 174.0 81.0 L 175.0 82.0 L 175.0 84.0 L 180.0 89.0 L 181.0 89.0 L 182.0 90.0 L 184.0 90.0 L 186.0 92.0 L 186.0 91.0 L 187.0 90.0 L 192.0 90.0 L 194.0 92.0 L 194.0 90.0 L 195.0 89.0 L 196.0 90.0 L 196.0 89.0 L 197.0 88.0 L 198.0 89.0 L 199.0 88.0 L 200.0 88.0 L 201.0 87.0 L 201.0 86.0 L 203.0 84.0 L 203.0 82.0 L 204.0 81.0 L 204.0 77.0 L 205.0 76.0 L 205.0 72.0 L 204.0 71.0 L 204.0 55.0 L 205.0 54.0 L 205.0 52.0 Z M 179.0 88.0 L 180.0 87.0 L 181.0 88.0 L 180.0 89.0 Z M 175.0 84.0 L 176.0 83.0 L 177.0 84.0 L 176.0 85.0 Z M 183.0 83.0 L 184.0 82.0 L 185.0 83.0 L 184.0 84.0 Z " fill="#60605f" fill-rule="evenodd"></path>
<path d="M 161.0 12.0 L 157.0 17.0 L 154.0 12.0 L 149.0 14.0 L 143.0 23.0 L 145.0 26.0 L 142.0 31.0 L 146.0 34.0 L 143.0 37.0 L 148.0 39.0 L 148.0 45.0 L 150.0 45.0 L 146.0 60.0 L 135.0 71.0 L 134.0 69.0 L 124.0 76.0 L 117.0 74.0 L 116.0 70.0 L 126.0 50.0 L 129.0 48.0 L 132.0 51.0 L 133.0 46.0 L 137.0 46.0 L 139.0 41.0 L 135.0 41.0 L 140.0 39.0 L 138.0 22.0 L 134.0 25.0 L 133.0 18.0 L 129.0 21.0 L 126.0 17.0 L 122.0 25.0 L 119.0 20.0 L 115.0 20.0 L 117.0 13.0 L 112.0 12.0 L 114.0 8.0 L 110.0 9.0 L 107.0 4.0 L 104.0 13.0 L 100.0 3.0 L 98.0 11.0 L 97.0 7.0 L 93.0 9.0 L 94.0 14.0 L 90.0 19.0 L 97.0 24.0 L 92.0 27.0 L 90.0 23.0 L 86.0 26.0 L 82.0 21.0 L 81.0 27.0 L 78.0 24.0 L 75.0 25.0 L 76.0 30.0 L 72.0 30.0 L 66.0 22.0 L 63.0 23.0 L 62.0 16.0 L 58.0 20.0 L 57.0 15.0 L 54.0 15.0 L 53.0 19.0 L 49.0 16.0 L 49.0 19.0 L 43.0 22.0 L 45.0 24.0 L 41.0 28.0 L 47.0 32.0 L 46.0 35.0 L 44.0 33.0 L 44.0 38.0 L 48.0 39.0 L 48.0 44.0 L 52.0 42.0 L 53.0 46.0 L 56.0 46.0 L 65.0 66.0 L 80.0 84.0 L 84.0 97.0 L 88.0 101.0 L 87.0 104.0 L 91.0 108.0 L 89.0 109.0 L 92.0 110.0 L 92.0 119.0 L 94.0 119.0 L 92.0 144.0 L 98.0 149.0 L 109.0 148.0 L 112.0 144.0 L 111.0 123.0 L 114.0 116.0 L 112.0 113.0 L 123.0 93.0 L 146.0 76.0 L 148.0 77.0 L 146.0 79.0 L 163.0 60.0 L 161.0 58.0 L 165.0 50.0 L 163.0 40.0 L 169.0 39.0 L 166.0 34.0 L 171.0 31.0 L 168.0 30.0 L 169.0 25.0 L 165.0 23.0 L 168.0 19.0 L 166.0 17.0 L 163.0 20.0 Z M 102.0 95.0 L 103.0 94.0 L 104.0 95.0 L 103.0 96.0 Z M 116.0 93.0 L 117.0 92.0 L 118.0 93.0 L 117.0 94.0 Z M 104.0 91.0 L 105.0 90.0 L 106.0 91.0 L 105.0 92.0 Z M 122.0 81.0 L 123.0 80.0 L 124.0 81.0 L 123.0 82.0 Z M 132.0 79.0 L 133.0 78.0 L 134.0 79.0 L 134.0 80.0 L 133.0 81.0 L 132.0 80.0 Z M 128.0 79.0 L 129.0 78.0 L 130.0 79.0 L 129.0 80.0 Z M 130.0 78.0 L 131.0 77.0 L 132.0 78.0 L 132.0 79.0 L 131.0 80.0 L 130.0 79.0 Z M 132.0 77.0 L 133.0 76.0 L 134.0 76.0 L 135.0 77.0 L 134.0 78.0 L 133.0 78.0 Z M 137.0 76.0 L 138.0 75.0 L 139.0 75.0 L 140.0 76.0 L 139.0 77.0 L 138.0 77.0 Z M 98.0 76.0 L 99.0 75.0 L 100.0 76.0 L 99.0 77.0 Z M 80.0 76.0 L 81.0 75.0 L 82.0 76.0 L 81.0 77.0 Z M 137.0 74.0 L 138.0 75.0 L 136.0 78.0 L 135.0 77.0 L 135.0 75.0 L 136.0 74.0 Z M 142.0 72.0 L 143.0 73.0 L 143.0 74.0 L 142.0 75.0 L 141.0 75.0 L 140.0 74.0 Z M 138.0 73.0 L 139.0 72.0 L 140.0 72.0 L 141.0 73.0 L 140.0 74.0 L 139.0 74.0 Z M 101.0 71.0 L 102.0 72.0 L 102.0 75.0 L 104.0 77.0 L 104.0 80.0 L 105.0 81.0 L 105.0 83.0 L 106.0 84.0 L 105.0 85.0 L 105.0 89.0 L 104.0 90.0 L 104.0 93.0 L 102.0 95.0 L 101.0 94.0 L 101.0 93.0 L 100.0 92.0 L 100.0 91.0 L 99.0 90.0 L 98.0 87.0 L 97.0 87.0 L 96.0 86.0 L 97.0 85.0 L 97.0 79.0 L 98.0 78.0 L 99.0 78.0 L 99.0 77.0 L 100.0 76.0 L 100.0 75.0 L 99.0 75.0 L 98.0 74.0 L 99.0 73.0 L 100.0 73.0 L 100.0 72.0 Z M 144.0 71.0 L 145.0 70.0 L 146.0 71.0 L 146.0 72.0 L 145.0 73.0 L 144.0 72.0 Z M 131.0 71.0 L 132.0 70.0 L 133.0 71.0 L 133.0 72.0 L 132.0 73.0 L 131.0 72.0 Z M 101.0 70.0 L 102.0 69.0 L 104.0 71.0 L 103.0 72.0 L 102.0 72.0 L 101.0 71.0 Z M 144.0 68.0 L 145.0 69.0 L 145.0 70.0 L 143.0 72.0 L 142.0 71.0 L 142.0 70.0 Z M 146.0 68.0 L 147.0 67.0 L 148.0 68.0 L 147.0 69.0 Z M 102.0 68.0 L 103.0 67.0 L 104.0 68.0 L 103.0 69.0 Z M 156.0 67.0 L 157.0 66.0 L 158.0 67.0 L 157.0 68.0 Z M 147.0 67.0 L 148.0 66.0 L 149.0 67.0 L 148.0 68.0 Z M 138.0 66.0 L 139.0 67.0 L 139.0 68.0 L 138.0 69.0 L 137.0 69.0 L 136.0 68.0 Z M 101.0 67.0 L 102.0 66.0 L 103.0 67.0 L 102.0 68.0 Z M 72.0 67.0 L 73.0 66.0 L 74.0 67.0 L 73.0 68.0 Z M 92.0 66.0 L 93.0 65.0 L 94.0 66.0 L 93.0 67.0 Z M 148.0 64.0 L 149.0 63.0 L 150.0 64.0 L 149.0 65.0 Z M 93.0 63.0 L 94.0 62.0 L 95.0 63.0 L 95.0 64.0 L 94.0 65.0 L 93.0 64.0 Z M 150.0 61.0 L 151.0 60.0 L 152.0 61.0 L 151.0 62.0 Z M 94.0 61.0 L 95.0 60.0 L 96.0 61.0 L 96.0 62.0 L 95.0 63.0 L 94.0 62.0 Z M 87.0 60.0 L 88.0 59.0 L 90.0 61.0 L 90.0 62.0 L 89.0 63.0 L 88.0 63.0 L 87.0 62.0 Z M 95.0 59.0 L 96.0 58.0 L 97.0 59.0 L 97.0 60.0 L 96.0 61.0 L 95.0 60.0 Z M 89.0 59.0 L 90.0 58.0 L 91.0 59.0 L 91.0 60.0 L 90.0 61.0 L 89.0 60.0 Z M 116.0 58.0 L 117.0 57.0 L 118.0 58.0 L 117.0 59.0 Z M 113.0 58.0 L 114.0 57.0 L 115.0 58.0 L 115.0 59.0 L 114.0 60.0 L 113.0 59.0 Z M 96.0 58.0 L 97.0 57.0 L 98.0 58.0 L 97.0 59.0 Z M 114.0 57.0 L 115.0 56.0 L 116.0 57.0 L 115.0 58.0 Z M 115.0 56.0 L 116.0 55.0 L 117.0 56.0 L 116.0 57.0 Z M 97.0 56.0 L 98.0 55.0 L 99.0 56.0 L 98.0 57.0 Z M 91.0 55.0 L 92.0 56.0 L 92.0 58.0 L 91.0 59.0 L 90.0 58.0 L 90.0 56.0 Z M 88.0 56.0 L 89.0 55.0 L 90.0 56.0 L 89.0 57.0 Z M 91.0 55.0 L 92.0 54.0 L 93.0 55.0 L 92.0 56.0 Z M 91.0 53.0 L 92.0 52.0 L 93.0 53.0 L 92.0 54.0 Z M 120.0 51.0 L 121.0 52.0 L 121.0 53.0 L 120.0 54.0 L 120.0 55.0 L 118.0 57.0 L 117.0 56.0 L 117.0 55.0 L 118.0 54.0 L 117.0 55.0 L 116.0 54.0 L 116.0 53.0 L 118.0 51.0 L 119.0 52.0 Z M 118.0 51.0 L 119.0 50.0 L 120.0 51.0 L 119.0 52.0 Z M 77.0 51.0 L 78.0 50.0 L 79.0 51.0 L 79.0 52.0 L 78.0 53.0 L 77.0 52.0 Z M 158.0 49.0 L 159.0 50.0 L 159.0 53.0 L 157.0 55.0 L 156.0 54.0 L 156.0 52.0 Z M 131.0 50.0 L 132.0 49.0 L 133.0 50.0 L 132.0 51.0 Z M 83.0 49.0 L 85.0 49.0 L 86.0 50.0 L 86.0 51.0 L 84.0 54.0 L 83.0 53.0 L 83.0 51.0 L 82.0 50.0 Z M 127.0 46.0 L 128.0 45.0 L 129.0 46.0 L 129.0 47.0 L 128.0 48.0 L 127.0 47.0 Z M 116.0 45.0 L 117.0 46.0 L 115.0 48.0 L 115.0 49.0 L 112.0 52.0 L 112.0 54.0 L 111.0 55.0 L 110.0 55.0 L 110.0 57.0 L 108.0 59.0 L 108.0 61.0 L 107.0 62.0 L 107.0 63.0 L 104.0 68.0 L 103.0 67.0 L 103.0 64.0 L 105.0 61.0 L 105.0 59.0 L 106.0 58.0 L 106.0 56.0 L 107.0 55.0 L 107.0 53.0 L 108.0 52.0 L 108.0 50.0 L 107.0 49.0 L 109.0 47.0 L 110.0 48.0 L 110.0 47.0 L 112.0 45.0 L 113.0 45.0 L 114.0 46.0 L 115.0 45.0 Z M 83.0 46.0 L 84.0 45.0 L 85.0 46.0 L 84.0 47.0 Z M 77.0 46.0 L 78.0 45.0 L 79.0 46.0 L 78.0 47.0 Z M 124.0 44.0 L 125.0 45.0 L 123.0 47.0 L 122.0 50.0 L 121.0 51.0 L 120.0 51.0 L 119.0 50.0 L 120.0 49.0 L 119.0 48.0 L 120.0 47.0 L 121.0 47.0 L 121.0 45.0 L 122.0 44.0 Z M 113.0 45.0 L 114.0 44.0 L 115.0 45.0 L 114.0 46.0 Z M 92.0 43.0 L 93.0 44.0 L 93.0 45.0 L 95.0 45.0 L 96.0 46.0 L 95.0 47.0 L 94.0 47.0 L 94.0 49.0 L 93.0 50.0 L 92.0 50.0 L 92.0 51.0 L 91.0 52.0 L 89.0 50.0 L 89.0 49.0 L 91.0 47.0 L 91.0 44.0 Z M 157.0 43.0 L 158.0 42.0 L 159.0 43.0 L 158.0 44.0 Z M 59.0 43.0 L 60.0 42.0 L 61.0 43.0 L 60.0 44.0 Z M 162.0 42.0 L 163.0 41.0 L 164.0 42.0 L 163.0 43.0 Z M 113.0 41.0 L 114.0 42.0 L 114.0 44.0 L 113.0 45.0 L 112.0 44.0 L 112.0 42.0 Z M 76.0 42.0 L 77.0 41.0 L 78.0 42.0 L 77.0 43.0 Z M 63.0 42.0 L 64.0 41.0 L 65.0 42.0 L 64.0 43.0 Z M 113.0 41.0 L 114.0 40.0 L 115.0 41.0 L 114.0 42.0 Z M 62.0 45.0 L 66.0 44.0 L 70.0 48.0 L 68.0 49.0 L 72.0 51.0 L 70.0 52.0 L 78.0 60.0 L 83.0 53.0 L 85.0 55.0 L 83.0 58.0 L 84.0 59.0 L 82.0 60.0 L 82.0 67.0 L 87.0 71.0 L 91.0 67.0 L 96.0 65.0 L 99.0 56.0 L 99.0 46.0 L 101.0 44.0 L 102.0 45.0 L 104.0 40.0 L 105.0 41.0 L 105.0 46.0 L 101.0 54.0 L 101.0 59.0 L 96.0 68.0 L 97.0 69.0 L 93.0 74.0 L 93.0 79.0 L 91.0 80.0 L 92.0 89.0 L 102.0 104.0 L 106.0 101.0 L 112.0 86.0 L 109.0 84.0 L 111.0 83.0 L 108.0 81.0 L 110.0 80.0 L 108.0 79.0 L 108.0 70.0 L 113.0 59.0 L 117.0 59.0 L 112.0 68.0 L 112.0 74.0 L 115.0 79.0 L 118.0 81.0 L 119.0 80.0 L 120.0 82.0 L 130.0 79.0 L 131.0 80.0 L 116.0 93.0 L 117.0 95.0 L 110.0 104.0 L 111.0 106.0 L 108.0 110.0 L 108.0 133.0 L 106.0 143.0 L 98.0 142.0 L 98.0 115.0 L 97.0 111.0 L 95.0 110.0 L 96.0 108.0 L 94.0 107.0 L 95.0 103.0 L 94.0 104.0 L 92.0 100.0 L 93.0 99.0 L 90.0 98.0 L 92.0 97.0 L 89.0 96.0 L 89.0 92.0 L 85.0 84.0 L 83.0 83.0 L 83.0 80.0 L 81.0 79.0 L 83.0 78.0 L 81.0 77.0 L 82.0 76.0 L 77.0 73.0 L 78.0 71.0 L 69.0 63.0 L 70.0 62.0 L 65.0 57.0 L 62.0 48.0 L 60.0 47.0 Z M 155.0 39.0 L 156.0 40.0 L 156.0 44.0 L 157.0 44.0 L 158.0 45.0 L 157.0 46.0 L 156.0 46.0 L 156.0 55.0 L 158.0 57.0 L 157.0 58.0 L 156.0 58.0 L 156.0 59.0 L 157.0 60.0 L 156.0 61.0 L 155.0 61.0 L 154.0 62.0 L 154.0 63.0 L 150.0 67.0 L 149.0 67.0 L 148.0 66.0 L 152.0 61.0 L 152.0 60.0 L 151.0 59.0 L 152.0 58.0 L 153.0 58.0 L 153.0 57.0 L 152.0 56.0 L 153.0 55.0 L 154.0 55.0 L 154.0 54.0 L 153.0 53.0 L 153.0 47.0 L 154.0 46.0 L 154.0 40.0 Z M 100.0 40.0 L 101.0 39.0 L 102.0 40.0 L 101.0 41.0 Z M 69.0 39.0 L 72.0 39.0 L 74.0 41.0 L 75.0 41.0 L 76.0 42.0 L 76.0 43.0 L 75.0 44.0 L 76.0 45.0 L 76.0 46.0 L 77.0 46.0 L 78.0 47.0 L 77.0 48.0 L 77.0 49.0 L 78.0 50.0 L 77.0 51.0 L 76.0 51.0 L 75.0 50.0 L 75.0 48.0 L 72.0 45.0 L 72.0 44.0 L 71.0 44.0 L 70.0 43.0 L 71.0 42.0 L 68.0 40.0 Z M 112.0 39.0 L 113.0 38.0 L 114.0 39.0 L 113.0 40.0 Z M 93.0 39.0 L 94.0 38.0 L 97.0 41.0 L 96.0 42.0 L 95.0 42.0 L 93.0 40.0 Z M 147.0 38.0 L 148.0 37.0 L 149.0 38.0 L 148.0 39.0 Z M 105.0 37.0 L 106.0 38.0 L 106.0 40.0 L 105.0 41.0 L 104.0 40.0 L 104.0 38.0 Z M 101.0 38.0 L 102.0 37.0 L 103.0 38.0 L 103.0 39.0 L 102.0 40.0 L 101.0 39.0 Z M 44.0 38.0 L 45.0 37.0 L 46.0 38.0 L 45.0 39.0 Z M 68.0 37.0 L 69.0 36.0 L 72.0 36.0 L 73.0 37.0 L 73.0 38.0 L 72.0 39.0 L 69.0 39.0 L 68.0 38.0 Z M 104.0 36.0 L 105.0 35.0 L 106.0 36.0 L 105.0 37.0 Z M 95.0 36.0 L 96.0 35.0 L 97.0 36.0 L 96.0 37.0 Z M 72.0 36.0 L 73.0 35.0 L 74.0 35.0 L 75.0 36.0 L 74.0 37.0 L 73.0 37.0 Z M 94.0 35.0 L 95.0 34.0 L 96.0 35.0 L 95.0 36.0 Z M 92.0 34.0 L 93.0 33.0 L 94.0 34.0 L 93.0 35.0 Z M 70.0 34.0 L 71.0 33.0 L 72.0 34.0 L 71.0 35.0 Z M 145.0 33.0 L 146.0 32.0 L 147.0 33.0 L 146.0 34.0 Z M 101.0 33.0 L 102.0 32.0 L 103.0 32.0 L 104.0 33.0 L 104.0 34.0 L 103.0 35.0 Z M 95.0 32.0 L 96.0 31.0 L 97.0 31.0 L 98.0 32.0 L 98.0 34.0 L 97.0 35.0 L 96.0 35.0 L 95.0 34.0 Z M 69.0 32.0 L 70.0 31.0 L 71.0 32.0 L 70.0 33.0 Z M 68.0 31.0 L 69.0 30.0 L 70.0 31.0 L 69.0 32.0 Z M 111.0 29.0 L 115.0 33.0 L 117.0 33.0 L 118.0 34.0 L 117.0 35.0 L 114.0 35.0 L 113.0 36.0 L 113.0 38.0 L 112.0 39.0 L 111.0 38.0 L 111.0 44.0 L 110.0 45.0 L 109.0 44.0 L 109.0 36.0 L 111.0 33.0 L 110.0 32.0 L 110.0 30.0 Z M 89.0 30.0 L 90.0 29.0 L 91.0 30.0 L 90.0 31.0 Z M 76.0 30.0 L 77.0 29.0 L 78.0 30.0 L 77.0 31.0 Z M 166.0 29.0 L 167.0 28.0 L 168.0 29.0 L 168.0 30.0 L 167.0 31.0 L 166.0 30.0 Z M 135.0 29.0 L 136.0 28.0 L 137.0 28.0 L 138.0 29.0 L 138.0 30.0 L 137.0 31.0 Z M 145.0 28.0 L 146.0 27.0 L 147.0 28.0 L 146.0 29.0 Z M 137.0 28.0 L 138.0 27.0 L 139.0 28.0 L 138.0 29.0 Z M 90.0 28.0 L 91.0 27.0 L 93.0 29.0 L 92.0 30.0 L 91.0 30.0 L 90.0 29.0 Z M 131.0 26.0 L 132.0 25.0 L 133.0 26.0 L 132.0 27.0 Z M 94.0 26.0 L 95.0 25.0 L 96.0 25.0 L 97.0 26.0 L 96.0 27.0 L 95.0 27.0 Z M 84.0 26.0 L 85.0 25.0 L 86.0 26.0 L 85.0 27.0 Z M 66.0 28.0 L 66.0 26.0 L 67.0 25.0 L 69.0 27.0 L 67.0 29.0 Z M 165.0 25.0 L 166.0 24.0 L 167.0 25.0 L 166.0 26.0 Z M 132.0 25.0 L 133.0 24.0 L 134.0 25.0 L 133.0 26.0 Z M 122.0 25.0 L 123.0 24.0 L 124.0 25.0 L 124.0 26.0 L 123.0 27.0 L 122.0 26.0 Z M 45.0 24.0 L 47.0 26.0 L 47.0 27.0 L 46.0 28.0 L 45.0 28.0 L 43.0 26.0 Z M 127.0 24.0 L 128.0 23.0 L 129.0 24.0 L 128.0 25.0 Z M 114.0 24.0 L 115.0 23.0 L 117.0 23.0 L 119.0 25.0 L 118.0 26.0 L 119.0 27.0 L 119.0 28.0 L 118.0 29.0 L 116.0 27.0 L 116.0 26.0 L 115.0 27.0 L 114.0 26.0 Z M 161.0 22.0 L 162.0 21.0 L 163.0 22.0 L 162.0 23.0 Z M 160.0 21.0 L 161.0 20.0 L 162.0 21.0 L 161.0 22.0 Z M 152.0 21.0 L 153.0 20.0 L 154.0 21.0 L 153.0 22.0 Z M 129.0 21.0 L 130.0 20.0 L 131.0 21.0 L 130.0 22.0 Z M 53.0 21.0 L 54.0 20.0 L 55.0 21.0 L 54.0 22.0 Z M 50.0 20.0 L 51.0 21.0 L 51.0 24.0 L 50.0 25.0 L 49.0 24.0 L 49.0 21.0 Z M 47.0 21.0 L 48.0 20.0 L 49.0 21.0 L 48.0 22.0 Z M 147.0 20.0 L 148.0 19.0 L 149.0 20.0 L 148.0 21.0 Z M 48.0 20.0 L 49.0 19.0 L 50.0 20.0 L 49.0 21.0 Z M 146.0 19.0 L 147.0 18.0 L 148.0 19.0 L 147.0 20.0 Z M 53.0 19.0 L 54.0 18.0 L 55.0 19.0 L 54.0 20.0 Z M 157.0 17.0 L 158.0 16.0 L 159.0 17.0 L 158.0 18.0 Z M 150.0 16.0 L 151.0 15.0 L 152.0 16.0 L 151.0 17.0 Z M 94.0 14.0 L 96.0 16.0 L 94.0 18.0 L 92.0 16.0 Z M 111.0 14.0 L 112.0 13.0 L 113.0 13.0 L 114.0 14.0 L 113.0 15.0 L 112.0 15.0 Z M 103.0 14.0 L 104.0 13.0 L 105.0 14.0 L 104.0 15.0 Z M 98.0 14.0 L 99.0 13.0 L 100.0 14.0 L 99.0 15.0 Z M 107.0 12.0 L 108.0 11.0 L 109.0 12.0 L 108.0 13.0 Z M 98.0 11.0 L 99.0 10.0 L 100.0 11.0 L 100.0 12.0 L 99.0 13.0 L 98.0 12.0 Z M 96.0 11.0 L 97.0 10.0 L 98.0 11.0 L 98.0 12.0 L 97.0 13.0 L 96.0 12.0 Z M 109.0 10.0 L 110.0 9.0 L 111.0 10.0 L 110.0 11.0 Z M 95.0 9.0 L 96.0 8.0 L 97.0 9.0 L 96.0 10.0 Z M 94.0 8.0 L 95.0 7.0 L 96.0 8.0 L 95.0 9.0 Z " fill="#6c8a81" fill-rule="evenodd"></path>
<path d="M 1.0 0.0 L 2.0 1.0 L 2.0 14.0 L 1.0 15.0 L 2.0 16.0 L 2.0 22.0 L 1.0 23.0 L 2.0 24.0 L 1.0 25.0 L 2.0 26.0 L 1.0 27.0 L 1.0 33.0 L 2.0 34.0 L 2.0 44.0 L 1.0 45.0 L 2.0 47.0 L 1.0 51.0 L 2.0 52.0 L 1.0 53.0 L 2.0 54.0 L 2.0 66.0 L 1.0 67.0 L 2.0 68.0 L 1.0 69.0 L 2.0 70.0 L 2.0 96.0 L 1.0 97.0 L 1.0 105.0 L 2.0 106.0 L 1.0 108.0 L 1.0 125.0 L 2.0 126.0 L 1.0 128.0 L 2.0 130.0 L 2.0 140.0 L 1.0 141.0 L 1.0 149.0 L 2.0 150.0 L 2.0 156.0 L 1.0 157.0 L 2.0 159.0 L 1.0 161.0 L 2.0 162.0 L 2.0 166.0 L 1.0 168.0 L 2.0 169.0 L 2.0 178.0 L 1.0 179.0 L 3.0 179.0 L 3.0 0.0 Z " fill="#dfdad6" fill-rule="evenodd"></path>
</svg>