<?xml version="1.0" encoding="UTF-8"?>
<svg id="Layer_1" data-name="Layer 1" xmlns="http://www.w3.org/2000/svg" viewBox="0 0 2000 2000">
  <defs>
    <style>
      .cls-1 {
        fill: #1e3d34;
      }
    </style>
  </defs>
  <path class="cls-1" d="M577.22,316.72l34.61-61.76c12.52-15.93,37.97-13.61,37.99,9.52,0,12.36-24.64,65.44-22.18,68.02,18.13-5.72,40.48-31.55,60.69-27.95,7.92,1.39,17.87,11.78,17.87,20.05,0,18.92-74.34,66.66-88.05,83.78,32.53,2.29,76.71-9.49,108.08-2.47,5.7,1.28,11.6,5.69,14.49,10.77,22.44,39.18-74.4,40.92-95.83,42.31-4.71.32-9.11-2.41-7.81,4.7l93.63,53.11c6.53,8.88,3.76,18.95,1.65,28.82l125.32,112.63c-1.47-11.55-5.55-24.99-6.25-36.42-2.52-42.05,23.54-125.75,36.2-169.16,11.97-41.01,36.2-74.87,23.6-120.2-5.78,1.77-7.58,8.82-10.01,13.67-17.44,35.14-30.88,95.57-49.21,124.59-14.63,23.16-37.79,13.35-34.64-12.42l52.86-154.3c-18.42,14.8-37.01,29.63-56.96,42.43-13.65,8.74-50.02,37.73-61.18,14.51-11.71-24.29,40.16-51.89,51.99-69.56-16.89,2-37.79,8.47-54.42,5.54-17.35-3.08-31.14-19.82-18.16-35.73,14.83-18.17,109.99-32.76,135.61-42.63,2.75-3.57-61.13-49.74-66.3-55.2-7.37-7.81-13.94-18.34-6.42-28.82,19.32-26.87,61.21,27.63,79,36.59,5.26-6.36-68.67-129.4-64.74-151.87,2.66-15.12,17.87-20.66,29.9-10.82l41.12,74.12c3.61-20.49-9.77-48.09-5.61-67.3,4.42-20.43,28.71-20.31,33.34,0,6.82,29.83,5.67,64.11,16.02,94.64,1.42,4.15.9,9.66,6.68,10.65l20.5-107.55c23.08-22.87,41.81-.06,36,26.64l-34.38,137.85c27.82-17.62,103.37-97.07,133.96-95.19,13.42.84,20.59,13.58,16.66,26.5-7.08,23.33-72.09,65.73-90.77,84.48,34.44,1.25,66.88-7.55,101.09,1.39,21.19,5.54,30.73,29.28,8.35,40.43-14.95,7.46-63.73,10.62-82.67,11.93-12.23.84-26.2-1.45-37.85,0-4.37.55-9.17,1.71-4.66,6.3l134.02,72.73c10.33,6.24,22.47,15.47,19.89,29.34-7.49,40.54-87.03-25.74-106.66-29.25,7.95,11,40.45,32.07,20.79,47.71-21.22,16.86-46.26-25.8-61.73-35.09,1.76,25.86,46.12,80.88,44.07,102.47-.75,7.78-6.97,15.99-14.89,17.21-10.58,1.62-13.76-8.85-22.9-8.97-15.9,86.37-55.78,176.97-39.58,265.83,7.26,39.85,26.08,82.68,40.34,120.81,11.33,30.3,103.17,255.15,117.45,258.55,4.11,1.01,5.43-2.55,7.82-4.79,25.12-23.74,104-128.79,118.2-159.73,24.15-52.5,9.05-90.37,7.82-143.74-1.18-51.11,1.18-102.42.09-153.52l-36.99,56.97c-12.92,10.94-34.49,2.41-35.45-14.54-.96-16.95,51.55-109.9,47.22-115.18-19.84,8.53-84.8,75.8-101.73,40.28-10.78-22.67,38.43-51.02,51.33-65.53-18.45-.03-71.53,10.65-83.42-3.31-6.04-7.08-6.97-19.15-1.88-27.02,11.51-17.76,91.67-16.02,113.67-23.54l-78.83-48.93c-14.16-19.07-1.62-38.34,22.21-31.78,14.46,3.97,99.67,56.21,103.92,52.24-7.4-28.73-42.67-94.46-37.83-121.6,1.57-8.76,14.32-18.34,22.93-17.04,25.36,3.89,37.67,85.29,43.32,107,4.51.46,5.12-7.46,6.3-11,7.8-23.1,27.18-105.17,39.52-118.52,13.04-14.1,32.85-5.31,32.83,13.76l-31.38,122.09c25.16-13.61,65.15-62.48,95.51-53.14,17.38,5.34,10.36,22.46,2.26,32.65-20.83,26.21-51.39,42.43-75.73,64.72,23.45,6.12,110.6,7.43,125.23,22.98,5.14,5.48,5.38,21.59.09,26.9-10.78,10.82-125.21,0-147.38-2.41l23.57,31.66c10.82,16.16,85.82,68.58,60.23,88.83-20.85,16.48-47.34-17.53-61.73-28.76,4.53,14.28,24.54,120.18,33.1,120.23l187.52-216.7c-9.54-3.34-15.73,5.4-26.68,4.99-16.72-.64-25.6-15.27-17.07-29.92,6.13-10.51,21.6-11.49,27.99-20.89-25.64,2.7-60.52-2.12-42.71-35.03l77.38-21.91c-13.39-2.9-27.93-6.65-40.83-11.23-21.49-7.6-61.13-16.11-47.63-46.81,12.35-19.39,99.73,19.88,120,23.16-11.42-19.59-80.76-72.7-81.91-90.31-1.16-17.62,18.1-24.17,31.2-15.32l88.51,80.39-43.52-128.88c-.2-16.75,14.63-25.74,29.59-16.77,14.95,8.97,33.54,83.15,42.39,101.37l17.02-44.49c53.9-17.06,18.28,70.14,23.91,98.26,22.5-10.77,64.95-65.93,89.99-50.79,29.35,17.76-27.24,44.49-36.43,57.08,19.35-3.02,76.54-16.92,74.68,16.95-1.33,24.52-36.84,23.16-49.47,36.83,19.11,1.25,83.39,4.79,90.07,25.16,6.98,21.21-7.72,27.28-25.33,28.76-44.24,3.72-95.57-6.5-140.38-6.41l86.46,91.88c15.82,17.67,1.97,43.44-21.42,31.02-28.54-23.77-55.66-57.17-83.89-80.27-2.86-2.35-16.62-13.67-18.93-11-1.08,24.61,1.39,49.68-.05,74.26-1.02,17.3-3.22,52.3-8.36,67.5-9.35,27.6-38.89,12.91-38.89-1.07v-45.85l-47.86,76.91c-55.37,78.36-118.43,152.24-163.86,237.24-16.68,31.2-34.99,64.83-40.42,100.15l271.05-41.15c3.66-4.96-98.98-48.93-105.54-63.27-2.89-6.3-2.35-17.41,1.29-23.16,11.16-17.62,59.74,16.28,72.73,23.19,1.39-5.95-3.33-7.52-6.25-11.09-11.27-13.64-50.98-53.14-53.05-67.15-1.93-13.03,10.32-22.03,22.96-19.82,17.87,3.13,81.6,90.49,102.57,104.39-4.95-36.68-19.8-71.33-26.78-107.49-3.58-18.6-10-31.69,10.18-43.85,6.76-1.83,15.61,2.03,19.86,7.34,13.13,16.31,24.7,73.33,33.77,95.94,1.91,4.79-1.85,8.56,7.09,6.94.58-27.54-.96-59.14,3.9-86.22,1.91-10.59,11.57-24.78,22.9-24.78,9.49.38,17.24,8.15,17.5,17.56l-9.61,144.06c3.93,5.28,82.59-83.03,97.65-87.27,15.96-4.5,27.24,12.13,20.45,27.13-5,11.09-51.36,40.14-58.24,56.97,21.77,0,66.62-28.35,83.74-9.69,7.37,8.01,8.27,18.72,1.45,27.22l-66.27,33.11c20.9,3.22,100.79-.61,101.12,30.01.11,11.29-8.04,19.88-18.37,23.01-14.6,4.44-48.75,6.18-65.43,7.08-19.34,1.04-38.95-.73-58.29.06,11.86,22,87.24,73.54,88.32,93.56.43,7.96-10.29,18.89-17.87,19.62-13.71,1.27-69.32-58.27-83.02-70.55-12.98-11.61-27.24-22.55-41.03-33.17v166.06c0,3.57-12.72,9.61-17.32,9.63-13.65.09-18.68-13.99-20.24-25.74-1.83-13.87-2.58-35.43-3.38-50.35-1.11-19.91.72-40.11,0-60.05l-6.28-1.57c-10.73,18.64-47.65,98.76-65.37,103.83-5.07,1.46-15.41.26-19.07-3.39-16.45-16.57,21.89-66.86,29.21-84.65,1.77-4.27,2.89-3.95-3.09-3.11-55.84,7.75-267.38,86.11-315.9,116.38-71.77,44.8-111.03,141.01-108.12,223.54,5.12,143.16,40.37,295.89,53.52,439.7,5.82,63.41,13.91,107.49-61.82,118.2-61.71,8.74-123.62,4.24-185.58,6.74-23.33.92-66.82,14.39-86.6,1.45-3.7-2.43-18.19-20.51-19.78-24.4-8.5-20.96,15.9-80.74,21.83-106.13,37.21-159.38,51.9-360.03,8.85-519.29-43.05-159.27-130.81-151.96-280.68-151.99-105.72,0-211.89-2.35-318.27-6.12-4.25-.14-7.26-1.68-10.93-3.22-4.71,4.78,29.49,27.04,20.41,47.36-3.09,6.97-11.22,10.27-18.53,9.58-16.8-1.6-59.97-44.61-76.05-56.85-2.98-2.27-14.72-11.93-17.26-9.52,6.88,22.35,37.18,67.79,34.03,89.41-1.88,12.95-17.26,13.82-27.76,10.22l-25.16-45.86c-3.99,22.38,7.37,49.16,2.43,70.47-4.6,19.85-32.3,19.45-36.49,0l-10.15-111.62c-5.55.87-5.41,6.39-7.11,10.22-8.59,19.39-23.07,75.25-45.63,77.77-6.71.76-17.03-4.23-19.11-11.11-7.26-23.68,31.23-81.55,40.37-105.32-6.1-5-128.79,70.92-111.9-.07l51.99-28.4c-21.08-.29-45.92.84-66.39-4.57-23.22-6.12-23.97-35.96-1.16-39.52,26.92-4.24,65.29.96,92.76,2.94,1.79-8.07-2.17-5.52-5.9-8.19-21.46-15.15-72.26-43.33-86.89-61.55-6.71-8.36-7.37-20.17-.43-28.56,13.13-15.85,28.16,5.19,42.82,6.56-26.78-26.35-4.42-57.32,26.86-28.53,21.31,19.62,39.73,49.13,64.51,66.49.23-24.84-26.57-72.81-17.2-94.81,6.51-15.29,24.38-10.39,32.27,2.26,16.31,26.24,26.57,83.61,32.3,114.69,4.54-.38,4.92-4.67,6.36-7.81,10.93-23.65,25.97-100.5,53.35-104.79,11.85-1.86,22.73,9.84,22.35,22.29-.69,23.16-20.07,58.74-28.54,80.82,6.68,5.6,57.57-48.38,77.03-18.75,6.13,9.34,4.71,20.23-2.89,28.35l-70.99,37.85c118.76-21.1,235.28-54.07,356.18-63.27-27.18-22.43-58.81-38.37-86.6-60.16-38.14-29.92-77.78-68.55-110.46-104.27-8.13-1.07-2.83,9.61-7.63,17.56-14.95,24.78-32.44-9.4-41.15-20.75,9.19,39.93-33.02,54.47-37.85,11.06-3.41-30.7,1.59-67.82-3.18-99.63-2.63-3.54-68.73,43.88-75.5,46.03-17.03,5.43-29.67-7.23-24-24.09,3.15-9.37,13.97-10.3,17.55-18.75-13.5,3.54-27.09.06-31.6-14.45-3.79-27.34,49.56-33.78,68.15-42.23,3.73-1.68,5.7,1.51,4.45-6.62-14.63-3.57-81.57-15.47-86.17-26.03-6.56-15.09,1.88-28.41,18.19-27.92,12.49.38,77.03,22.29,80.56,19.12-3.67-22.84-51.64-61.73-37.47-83.46,20.27-31.05,59.07,41.96,65.9,58.16,5.35.61,3.44-10.94,3.27-14.34-.87-16.83-9.48-54.65,22.81-45.07,21.92,6.5,9.31,58.01,19.6,62.6,10.06-25.39,45.89-84.77,57.77-27.66l-30.97,71.94c3.47,3.34,77.81-23.77,90.68-24.64,15.58-1.04,24.43,13.49,17.98,27.74-5.44,12.01-36.23,14.8-36.2,17.44,17.06,6.91,39.87-.78,38.14,25.33-1.01,15.24-15.87,16.89-28.63,17.41,20.7,26.09,51.35,43.36,79.05,61.38,74.08,48.15,154.29,89.76,232.91,130.01,4.6,2.35,24.87,13.84,28.42,10.97-55.43-115.33-141.28-212.26-207.44-321.61-24.26-40.08-49.85-83.99-66.85-127.46-6.02-.7-2.05,6.15-1.62,9.52,3.04,23.59,18.65,93.48,6.3,110.57-6.1,8.45-15.44,11.29-24.49,5.8-13.45-8.18-13.01-55.89-14.89-72.15-5.96.99-5.15,6.68-6.65,10.68-4.13,11.09-13.04,48.9-19.32,54.91-6.27,6.01-24.92,5.51-28.63-3.05-9.08-21.04,27.53-123.37,19.95-132.1l-81.17,43.68c-55.29-4.93-6.62-41.93,11.83-59.46-54.3,5.28-48.69-43.76,0-49.05-25.56-16.69-93.54-15.09-75.87-59.58,5.18-5.83,12.75-5.34,19.84-4.62,26.2,2.79,58.09,19.15,84.4,24.61,4.66-4.53-33.48-35.09-36.4-44.08-3.62-11.2-.78-26.76,12.95-28.73,18.94-2.7,56.99,42.37,61.27,38.02l-40.39-103.6c-3.53-21.33,21.89-31.95,33.74-14.6,11.86,17.35,23.8,64.08,33.63,86.42,1.73,3.95,3.01,12.68,7.72,12.83v-96.47c0-4.21-5.26-4.85,1.65-14.1,14.8-19.85,36.17-1.86,36.17,17.27v64.83l.23.12ZM968.04,471.66l18.85-70.93c-8.96-18.4-18.39-40.19-31.4-55.57l12.55,126.5ZM934.15,496.21l-10.15-37.18c-8.47,54.27-38.72,111.12-34.67,165.97,1.88,25.36,33.17,99.6-11.07,96.81-9.37-.58-26.72-15.82-34.58-22.52-34.32-29.25-67.81-65.85-102.47-96.44-42.79-37.7-87.15-74.61-132.4-109.06,10.41,23.16,24.03,44.58,35.22,67.44,30.97,63.38,58.09,108.68,97.73,167.62,48.49,72.06,140.67,182.89,161.15,265.25,3.33,13.41,4.22,27.6-12.78,30.56-12.84,2.23-81.98-33.9-98.6-42.14-81.51-40.46-239.04-120.41-299.48-183.41-11.88-12.39-22.61-38.19-40.89-36.42,6.36,12.6,27.56,20.63,25.33,36.16-2.57,18.02-22.52,14.02-34.76,12.83,47.74,46.46,95.07,98.87,148.39,138.89,41.52,31.17,89.06,53.8,132.29,82.33,6.88,5.25,7.52,13.7,5.61,21.79-4.31,12.51-48,7.14-60.95,8.47-122.51,12.45-244.16,41.96-364.07,67.97,9.77,9.6,15.15,18.89,29.87,20.63,48.17,5.72,121.73,1.74,173.46,3.04,100.97,2.59,213.19-3.79,312,3.23,148.68,10.59,188.5,128.01,206.05,258.2,19.81,146.99,12.29,290.29-20.01,434.47-3.33,14.84-27.56,96.99-26.34,102.13,2.54,10.93,20.7,8.97,29.61,8.64,18.48-.7,41.15-5.91,59.62-6.55,57.74-2.03,115.32,2.64,172.68-7.02,29.21-4.9,22.55-25.11,21.42-51.49-5.9-141.27-44.01-293.37-53.7-436.38-6.3-92.92,5.32-153.75,61.67-229,52.63-70.26,153.6-99.09,233.82-129.15,26.63-9.98,54.97-21.44,82.73-26.11,1.47-1.39-14.03-21.82-2.35-33.98,10.43-10.85,47.45-22.17,62.2-29.28.73-5.66-7.05-3.05-10.58-2.73-76.8,7.05-155.72,30.53-233.29,36.57-50.72-10.19-34.87-59.58-20.41-95.01,56.87-139.65,173.84-250.74,245.96-382.61,15.21-27.8,36.25-54.79,30.93-87.53-50.98,45.62-88.46,104.3-132.43,156.48-28.16,33.4-60,71.3-89.72,102.91-18.04,19.21-38.98,44.23-66.3,22.17-29.96-24.15-42.27-146.03-61.16-188.49-2.11-4.76-3.26-8.85-9.65-7.66-4.16,50.73-4.37,102.44-3.29,153.52,1.21,57.23,16.01,146.96,1.01,200.01-13.25,46.87-94.99,150.68-130.03,188.96-21.75,23.76-41.03,42.74-67.58,10.71-39.41-47.57-92.99-190.47-116.88-252.8-40.16-104.79-65.67-156.54-44.76-272.53,5.81-32.21,15.5-63.58,21.11-95.86-.32-2.06-16.68,5.43-24.49-2.38v-.03ZM1702.52,1031.53l-44.1,22.08c17.03-3.34,38.11-2,44.1-22.08Z"/>
  <path class="cls-1" d="M967.28,896.32c5.03,4.88,32.24,69.56,36.98,81.46,7.34,18.34,26.08,61.64,29.29,78.21,5.75,29.69-27.24,34.54-36.72,8.33-9.05-45.5-46.96-104.39-55.72-146.5-4.71-22.64,11.88-35.32,26.2-21.51h-.03Z"/>
  <path class="cls-1" d="M1190.94,1670.9c10.76-3.27,17.82,2.33,21.58,11.99.14,16.25,3.59,33.61,4.54,49.22,1.27,20.63,5.4,73.95,2.86,91.39-4.23,29.04-34.47,27.22-37.57.35-3.99-34.48.12-84.02.21-120.38,0-9.75-7.75-27.65,8.36-32.57h.02Z"/>
  <path class="cls-1" d="M1031.96,1141.42c-10.44-10.97.49-30.18,15.73-27.2,32.44,6.36,6.16,50.17-15.73,27.2Z"/>
  <path class="cls-1" d="M1192.62,1910.01c-13.41-13.47,2.72-42.42,21.2-25.97,19.84,17.64-5.75,41.47-21.2,25.97Z"/>
</svg>