<svg xmlns="http://www.w3.org/2000/svg" width="91" height="118" viewBox="0 0 91 118" role="img" aria-label="Joshua Tree Health logo asset">
<path d="M 46.0 116.0 L 48.0 116.0 Z " fill="#F8F5EB" fill-rule="evenodd"></path>
<path d="M 89.0 8.0 L 82.0 10.0 L 80.0 12.0 L 83.0 13.0 L 79.0 15.0 L 79.0 19.0 L 76.0 20.0 L 76.0 16.0 L 73.0 14.0 L 72.0 15.0 L 71.0 12.0 L 69.0 14.0 L 66.0 10.0 L 63.0 12.0 L 62.0 15.0 L 61.0 13.0 L 60.0 14.0 L 60.0 10.0 L 56.0 6.0 L 58.0 5.0 L 50.0 1.0 L 48.0 3.0 L 45.0 2.0 L 45.0 9.0 L 41.0 5.0 L 40.0 7.0 L 41.0 10.0 L 39.0 13.0 L 42.0 16.0 L 44.0 16.0 L 42.0 19.0 L 39.0 17.0 L 35.0 18.0 L 34.0 15.0 L 32.0 15.0 L 31.0 18.0 L 28.0 16.0 L 26.0 22.0 L 21.0 19.0 L 22.0 16.0 L 19.0 14.0 L 18.0 11.0 L 13.0 8.0 L 11.0 10.0 L 8.0 10.0 L 8.0 14.0 L 4.0 14.0 L 4.0 19.0 L 1.0 19.0 L 3.0 22.0 L 5.0 22.0 L 2.0 26.0 L 5.0 28.0 L 4.0 29.0 L 7.0 32.0 L 8.0 31.0 L 9.0 33.0 L 12.0 33.0 L 14.0 35.0 L 13.0 37.0 L 15.0 38.0 L 14.0 39.0 L 17.0 42.0 L 16.0 43.0 L 27.0 56.0 L 26.0 57.0 L 31.0 63.0 L 33.0 70.0 L 38.0 78.0 L 41.0 89.0 L 40.0 112.0 L 43.0 114.0 L 52.0 114.0 L 53.0 112.0 L 55.0 112.0 L 55.0 84.0 L 57.0 83.0 L 56.0 81.0 L 58.0 77.0 L 68.0 65.0 L 69.0 67.0 L 72.0 63.0 L 82.0 57.0 L 90.0 49.0 L 90.0 34.0 L 89.0 43.0 L 88.0 44.0 L 86.0 41.0 L 88.0 40.0 L 88.0 38.0 L 86.0 37.0 L 87.0 33.0 L 90.0 32.0 Z M 54.0 74.0 L 55.0 73.0 L 56.0 74.0 L 55.0 75.0 Z M 48.0 68.0 L 48.0 67.0 L 49.0 66.0 L 50.0 66.0 L 51.0 67.0 L 49.0 69.0 Z M 65.0 62.0 L 66.0 61.0 L 67.0 62.0 L 66.0 63.0 Z M 63.0 61.0 L 64.0 60.0 L 65.0 60.0 L 66.0 61.0 L 65.0 62.0 L 64.0 62.0 Z M 66.0 61.0 L 66.0 60.0 L 67.0 59.0 L 68.0 59.0 L 69.0 60.0 L 67.0 62.0 Z M 70.0 59.0 L 71.0 58.0 L 72.0 59.0 L 71.0 60.0 Z M 72.0 57.0 L 74.0 54.0 L 76.0 56.0 L 74.0 58.0 L 73.0 58.0 Z M 46.0 53.0 L 48.0 55.0 L 48.0 57.0 L 49.0 58.0 L 48.0 59.0 L 50.0 61.0 L 49.0 62.0 L 48.0 62.0 L 48.0 63.0 L 49.0 62.0 L 51.0 64.0 L 50.0 65.0 L 49.0 65.0 L 49.0 66.0 L 48.0 67.0 L 49.0 70.0 L 47.0 72.0 L 46.0 71.0 L 46.0 70.0 L 44.0 67.0 L 44.0 65.0 L 43.0 64.0 L 43.0 59.0 L 44.0 58.0 L 44.0 57.0 L 45.0 56.0 L 45.0 54.0 Z M 80.0 51.0 L 81.0 52.0 L 81.0 53.0 L 80.0 54.0 L 79.0 54.0 L 77.0 56.0 L 76.0 56.0 L 75.0 55.0 L 76.0 54.0 L 76.0 53.0 L 77.0 52.0 Z M 46.0 52.0 L 47.0 51.0 L 48.0 52.0 L 48.0 53.0 L 47.0 54.0 L 46.0 53.0 Z M 39.0 52.0 L 40.0 51.0 L 41.0 52.0 L 40.0 53.0 Z M 80.0 51.0 L 81.0 50.0 L 82.0 51.0 L 81.0 52.0 Z M 42.0 50.0 L 43.0 51.0 L 43.0 53.0 L 42.0 54.0 L 41.0 53.0 L 41.0 51.0 Z M 38.0 51.0 L 39.0 50.0 L 40.0 51.0 L 39.0 52.0 Z M 81.0 50.0 L 82.0 49.0 L 83.0 50.0 L 82.0 51.0 Z M 82.0 49.0 L 83.0 48.0 L 84.0 49.0 L 83.0 50.0 Z M 47.0 49.0 L 48.0 48.0 L 49.0 49.0 L 48.0 50.0 Z M 42.0 49.0 L 43.0 48.0 L 44.0 49.0 L 44.0 50.0 L 43.0 51.0 L 42.0 50.0 Z M 40.0 48.0 L 41.0 47.0 L 42.0 48.0 L 41.0 49.0 Z M 48.0 47.0 L 49.0 46.0 L 50.0 46.0 L 51.0 47.0 L 50.0 48.0 L 49.0 48.0 Z M 43.0 47.0 L 44.0 46.0 L 45.0 47.0 L 45.0 48.0 L 44.0 49.0 L 43.0 48.0 Z M 86.0 45.0 L 87.0 46.0 L 84.0 49.0 L 83.0 48.0 L 83.0 47.0 L 85.0 45.0 Z M 53.0 48.0 L 55.0 45.0 L 57.0 45.0 L 58.0 46.0 L 57.0 47.0 L 56.0 47.0 L 56.0 48.0 L 55.0 49.0 L 54.0 49.0 Z M 44.0 46.0 L 45.0 45.0 L 46.0 46.0 L 45.0 47.0 Z M 41.0 46.0 L 42.0 45.0 L 43.0 46.0 L 42.0 47.0 Z M 49.0 45.0 L 50.0 44.0 L 51.0 45.0 L 50.0 46.0 Z M 36.0 45.0 L 37.0 44.0 L 38.0 45.0 L 37.0 46.0 Z M 85.0 44.0 L 86.0 43.0 L 87.0 43.0 L 88.0 44.0 L 87.0 45.0 L 86.0 45.0 Z M 44.0 44.0 L 45.0 43.0 L 46.0 44.0 L 45.0 45.0 Z M 42.0 44.0 L 43.0 43.0 L 44.0 44.0 L 43.0 45.0 Z M 50.0 42.0 L 51.0 41.0 L 52.0 42.0 L 52.0 43.0 L 51.0 44.0 L 50.0 43.0 Z M 31.0 42.0 L 32.0 41.0 L 33.0 41.0 L 34.0 42.0 L 34.0 43.0 L 33.0 44.0 Z M 81.0 41.0 L 82.0 40.0 L 83.0 41.0 L 82.0 42.0 Z M 60.0 39.0 L 61.0 40.0 L 60.0 41.0 L 59.0 44.0 L 58.0 45.0 L 57.0 45.0 L 56.0 44.0 L 57.0 43.0 L 58.0 40.0 L 59.0 39.0 Z M 33.0 40.0 L 34.0 39.0 L 35.0 40.0 L 34.0 41.0 Z M 59.0 38.0 L 60.0 37.0 L 61.0 38.0 L 60.0 39.0 Z M 54.0 37.0 L 55.0 36.0 L 56.0 37.0 L 55.0 38.0 Z M 66.0 36.0 L 67.0 35.0 L 68.0 36.0 L 67.0 37.0 Z M 55.0 35.0 L 56.0 34.0 L 57.0 35.0 L 56.0 36.0 Z M 35.0 33.0 L 36.0 34.0 L 36.0 36.0 L 35.0 37.0 L 34.0 36.0 L 34.0 34.0 Z M 29.0 34.0 L 30.0 33.0 L 31.0 34.0 L 30.0 35.0 Z M 27.0 34.0 L 28.0 33.0 L 30.0 35.0 L 29.0 36.0 L 28.0 36.0 L 27.0 35.0 Z M 71.0 33.0 L 72.0 32.0 L 73.0 33.0 L 72.0 34.0 Z M 41.0 32.0 L 42.0 33.0 L 42.0 35.0 L 41.0 36.0 L 41.0 38.0 L 40.0 39.0 L 40.0 41.0 L 39.0 42.0 L 39.0 44.0 L 38.0 45.0 L 37.0 44.0 L 37.0 40.0 L 39.0 37.0 L 39.0 33.0 L 40.0 32.0 Z M 20.0 32.0 L 23.0 34.0 L 24.0 38.0 L 31.0 44.0 L 30.0 45.0 L 31.0 44.0 L 33.0 45.0 L 33.0 50.0 L 34.0 52.0 L 36.0 53.0 L 36.0 52.0 L 38.0 51.0 L 39.0 52.0 L 38.0 53.0 L 39.0 52.0 L 42.0 54.0 L 40.0 57.0 L 41.0 58.0 L 39.0 60.0 L 39.0 63.0 L 41.0 65.0 L 41.0 67.0 L 39.0 69.0 L 40.0 69.0 L 41.0 67.0 L 43.0 70.0 L 42.0 71.0 L 44.0 72.0 L 43.0 73.0 L 45.0 74.0 L 44.0 75.0 L 46.0 76.0 L 47.0 78.0 L 48.0 78.0 L 51.0 74.0 L 54.0 66.0 L 51.0 57.0 L 52.0 56.0 L 51.0 55.0 L 53.0 52.0 L 52.0 50.0 L 53.0 49.0 L 55.0 50.0 L 55.0 56.0 L 56.0 58.0 L 60.0 60.0 L 61.0 62.0 L 65.0 62.0 L 66.0 63.0 L 58.0 70.0 L 59.0 71.0 L 58.0 72.0 L 54.0 73.0 L 53.0 76.0 L 55.0 77.0 L 53.0 78.0 L 52.0 84.0 L 51.0 85.0 L 52.0 92.0 L 51.0 93.0 L 51.0 102.0 L 50.0 103.0 L 50.0 109.0 L 49.0 110.0 L 45.0 111.0 L 43.0 109.0 L 43.0 100.0 L 45.0 98.0 L 44.0 97.0 L 45.0 96.0 L 44.0 95.0 L 44.0 88.0 L 41.0 80.0 L 41.0 76.0 L 37.0 71.0 L 33.0 59.0 L 31.0 58.0 L 32.0 57.0 L 30.0 54.0 L 27.0 52.0 L 26.0 48.0 L 23.0 47.0 L 24.0 45.0 L 19.0 41.0 L 21.0 40.0 L 18.0 39.0 L 20.0 38.0 L 18.0 37.0 L 19.0 35.0 L 18.0 36.0 L 17.0 34.0 Z M 26.0 32.0 L 27.0 31.0 L 28.0 32.0 L 28.0 33.0 L 27.0 34.0 L 26.0 33.0 Z M 25.0 31.0 L 26.0 30.0 L 27.0 31.0 L 26.0 32.0 Z M 49.0 29.0 L 50.0 30.0 L 50.0 33.0 L 49.0 34.0 L 48.0 33.0 L 48.0 30.0 Z M 47.0 29.0 L 48.0 30.0 L 48.0 33.0 L 49.0 34.0 L 49.0 35.0 L 48.0 36.0 L 47.0 36.0 L 48.0 37.0 L 48.0 38.0 L 47.0 39.0 L 47.0 41.0 L 44.0 44.0 L 43.0 43.0 L 43.0 42.0 L 44.0 41.0 L 44.0 38.0 L 45.0 37.0 L 45.0 35.0 L 46.0 34.0 L 46.0 30.0 Z M 24.0 30.0 L 25.0 29.0 L 26.0 30.0 L 25.0 31.0 Z M 41.0 29.0 L 42.0 28.0 L 43.0 28.0 L 44.0 29.0 L 44.0 31.0 L 43.0 32.0 Z M 4.0 29.0 L 5.0 28.0 L 6.0 29.0 L 5.0 30.0 Z M 22.0 28.0 L 23.0 27.0 L 24.0 28.0 L 24.0 29.0 L 23.0 30.0 L 22.0 29.0 Z M 81.0 27.0 L 82.0 26.0 L 83.0 27.0 L 82.0 28.0 Z M 55.0 26.0 L 58.0 29.0 L 56.0 31.0 L 56.0 32.0 L 57.0 32.0 L 58.0 33.0 L 57.0 34.0 L 55.0 34.0 L 55.0 35.0 L 54.0 36.0 L 54.0 38.0 L 53.0 39.0 L 54.0 40.0 L 52.0 42.0 L 51.0 41.0 L 51.0 38.0 L 52.0 37.0 L 52.0 34.0 L 53.0 33.0 L 53.0 28.0 Z M 47.0 25.0 L 48.0 24.0 L 49.0 25.0 L 48.0 26.0 Z M 26.0 24.0 L 27.0 25.0 L 27.0 26.0 L 25.0 28.0 L 24.0 27.0 L 24.0 26.0 Z M 80.0 24.0 L 81.0 23.0 L 82.0 24.0 L 81.0 25.0 Z M 78.0 22.0 L 80.0 24.0 L 80.0 25.0 L 79.0 26.0 L 78.0 26.0 L 78.0 27.0 L 79.0 27.0 L 81.0 29.0 L 81.0 30.0 L 84.0 32.0 L 83.0 33.0 L 84.0 34.0 L 84.0 35.0 L 83.0 36.0 L 82.0 36.0 L 82.0 40.0 L 79.0 45.0 L 80.0 46.0 L 78.0 48.0 L 77.0 48.0 L 75.0 50.0 L 74.0 50.0 L 74.0 51.0 L 73.0 52.0 L 71.0 52.0 L 70.0 53.0 L 67.0 54.0 L 64.0 57.0 L 62.0 57.0 L 59.0 54.0 L 59.0 50.0 L 60.0 49.0 L 60.0 47.0 L 61.0 46.0 L 61.0 45.0 L 62.0 44.0 L 63.0 44.0 L 63.0 43.0 L 65.0 41.0 L 66.0 38.0 L 68.0 36.0 L 69.0 36.0 L 70.0 37.0 L 70.0 36.0 L 71.0 35.0 L 72.0 35.0 L 75.0 32.0 L 76.0 32.0 L 75.0 32.0 L 74.0 31.0 L 74.0 29.0 L 76.0 27.0 L 76.0 26.0 L 75.0 26.0 L 74.0 25.0 L 75.0 24.0 L 76.0 24.0 L 76.0 23.0 L 77.0 22.0 Z M 57.0 22.0 L 58.0 23.0 L 58.0 24.0 L 57.0 25.0 L 56.0 25.0 L 55.0 24.0 Z M 42.0 24.0 L 42.0 23.0 L 43.0 22.0 L 44.0 22.0 L 45.0 23.0 L 43.0 25.0 Z M 21.0 23.0 L 22.0 22.0 L 23.0 23.0 L 22.0 24.0 Z M 28.0 22.0 L 29.0 21.0 L 30.0 22.0 L 29.0 23.0 Z M 58.0 19.0 L 59.0 18.0 L 60.0 19.0 L 59.0 20.0 Z M 31.0 19.0 L 32.0 18.0 L 33.0 19.0 L 32.0 20.0 Z M 79.0 18.0 L 80.0 17.0 L 81.0 18.0 L 80.0 19.0 Z M 5.0 18.0 L 6.0 17.0 L 7.0 18.0 L 6.0 19.0 Z M 57.0 17.0 L 58.0 16.0 L 59.0 17.0 L 58.0 18.0 Z M 4.0 17.0 L 5.0 16.0 L 6.0 17.0 L 5.0 18.0 Z M 64.0 13.0 L 65.0 14.0 L 65.0 17.0 L 64.0 18.0 L 62.0 16.0 L 62.0 15.0 Z " fill="#F8F5EB" fill-rule="evenodd"></path>
</svg>