<svg xmlns="http://www.w3.org/2000/svg" width="233" height="97" viewBox="0 0 233 97" role="img" aria-label="Joshua Tree Health logo asset">
<path d="M 193.0 87.0 L 194.0 88.0 L 193.0 89.0 L 191.0 89.0 L 192.0 89.0 L 193.0 90.0 L 193.0 91.0 L 194.0 91.0 L 195.0 92.0 L 195.0 93.0 L 195.0 92.0 L 197.0 90.0 L 197.0 89.0 L 196.0 88.0 L 196.0 87.0 Z M 195.0 90.0 L 196.0 89.0 L 197.0 90.0 L 196.0 91.0 Z " fill="#b3b1af" fill-rule="evenodd"></path>
<path d="M 154.0 87.0 L 153.0 86.0 L 152.0 87.0 L 150.0 87.0 L 149.0 88.0 L 149.0 91.0 L 150.0 91.0 L 151.0 92.0 L 152.0 91.0 L 154.0 91.0 L 155.0 90.0 Z " fill="#c7bcd9" fill-rule="evenodd"></path>
<path d="M 206.0 93.0 L 211.0 93.0 L 212.0 92.0 L 213.0 92.0 L 216.0 94.0 L 216.0 93.0 L 217.0 92.0 L 218.0 93.0 L 219.0 92.0 L 220.0 92.0 L 221.0 93.0 L 221.0 90.0 L 222.0 89.0 L 223.0 90.0 L 224.0 89.0 L 225.0 89.0 L 225.0 86.0 L 224.0 85.0 L 224.0 84.0 L 223.0 84.0 L 222.0 85.0 L 220.0 85.0 L 219.0 86.0 L 217.0 84.0 L 216.0 85.0 L 215.0 84.0 L 214.0 84.0 L 213.0 85.0 L 213.0 91.0 L 212.0 92.0 L 210.0 90.0 L 210.0 88.0 L 211.0 87.0 L 211.0 85.0 L 207.0 85.0 L 206.0 86.0 L 208.0 88.0 L 208.0 90.0 L 206.0 92.0 Z M 218.0 90.0 L 219.0 89.0 L 220.0 90.0 L 219.0 91.0 Z M 215.0 88.0 L 216.0 87.0 L 217.0 88.0 L 217.0 89.0 L 216.0 90.0 L 215.0 89.0 Z M 209.0 87.0 L 210.0 86.0 L 211.0 87.0 L 210.0 88.0 Z " fill="#adaba8" fill-rule="evenodd"></path>
<path d="M 163.0 85.0 L 163.0 92.0 L 164.0 93.0 L 167.0 92.0 L 167.0 91.0 L 169.0 89.0 L 170.0 90.0 L 170.0 92.0 L 171.0 93.0 L 172.0 93.0 L 173.0 92.0 L 176.0 93.0 L 176.0 87.0 L 177.0 86.0 L 178.0 87.0 L 178.0 93.0 L 179.0 93.0 L 179.0 92.0 L 180.0 91.0 L 181.0 91.0 L 181.0 90.0 L 182.0 89.0 L 183.0 90.0 L 184.0 89.0 L 184.0 88.0 L 183.0 87.0 L 184.0 86.0 L 182.0 84.0 L 179.0 84.0 L 177.0 86.0 L 176.0 85.0 L 172.0 85.0 L 171.0 84.0 L 170.0 85.0 L 169.0 85.0 L 168.0 84.0 L 164.0 84.0 Z M 172.0 90.0 L 173.0 89.0 L 174.0 90.0 L 173.0 91.0 Z M 163.0 85.0 L 164.0 84.0 L 165.0 85.0 L 164.0 86.0 Z " fill="#b4b2af" fill-rule="evenodd"></path>
<path d="M 98.0 85.0 L 98.0 92.0 L 102.0 92.0 L 103.0 93.0 L 106.0 92.0 L 108.0 94.0 L 109.0 94.0 L 111.0 92.0 L 113.0 92.0 L 114.0 93.0 L 114.0 94.0 L 116.0 94.0 L 116.0 93.0 L 119.0 91.0 L 120.0 92.0 L 120.0 94.0 L 121.0 93.0 L 124.0 93.0 L 127.0 91.0 L 129.0 93.0 L 129.0 94.0 L 130.0 94.0 L 132.0 92.0 L 133.0 92.0 L 134.0 93.0 L 135.0 92.0 L 136.0 92.0 L 137.0 93.0 L 138.0 93.0 L 139.0 92.0 L 139.0 89.0 L 134.0 85.0 L 133.0 85.0 L 133.0 87.0 L 132.0 88.0 L 130.0 86.0 L 129.0 86.0 L 128.0 85.0 L 128.0 84.0 L 126.0 86.0 L 126.0 91.0 L 125.0 92.0 L 124.0 91.0 L 124.0 86.0 L 123.0 85.0 L 120.0 85.0 L 120.0 87.0 L 121.0 88.0 L 121.0 89.0 L 120.0 90.0 L 116.0 86.0 L 115.0 86.0 L 113.0 88.0 L 111.0 88.0 L 108.0 86.0 L 107.0 87.0 L 106.0 87.0 L 105.0 86.0 L 105.0 85.0 L 104.0 85.0 L 103.0 84.0 L 102.0 85.0 L 101.0 85.0 L 100.0 84.0 L 99.0 84.0 Z M 119.0 91.0 L 120.0 90.0 L 121.0 91.0 L 120.0 92.0 Z M 107.0 91.0 L 108.0 90.0 L 109.0 90.0 L 110.0 91.0 L 109.0 92.0 L 108.0 92.0 Z M 135.0 90.0 L 136.0 89.0 L 137.0 90.0 L 137.0 91.0 L 136.0 92.0 L 135.0 91.0 Z M 131.0 90.0 L 132.0 89.0 L 133.0 90.0 L 132.0 91.0 Z M 128.0 90.0 L 129.0 89.0 L 130.0 89.0 L 131.0 90.0 L 130.0 91.0 L 129.0 91.0 Z M 134.0 89.0 L 135.0 88.0 L 136.0 89.0 L 135.0 90.0 Z M 111.0 89.0 L 112.0 88.0 L 113.0 89.0 L 113.0 90.0 L 112.0 91.0 L 111.0 90.0 Z " fill="#b5b3b0" fill-rule="evenodd"></path>
<path d="M 49.0 85.0 L 49.0 92.0 L 50.0 92.0 L 51.0 93.0 L 51.0 94.0 L 51.0 93.0 L 54.0 91.0 L 55.0 92.0 L 55.0 93.0 L 58.0 93.0 L 59.0 94.0 L 61.0 94.0 L 63.0 92.0 L 64.0 92.0 L 65.0 93.0 L 65.0 94.0 L 65.0 93.0 L 66.0 92.0 L 69.0 93.0 L 69.0 92.0 L 70.0 91.0 L 72.0 91.0 L 74.0 93.0 L 75.0 93.0 L 76.0 92.0 L 78.0 92.0 L 79.0 93.0 L 81.0 93.0 L 82.0 92.0 L 83.0 92.0 L 85.0 94.0 L 89.0 94.0 L 89.0 93.0 L 90.0 92.0 L 91.0 92.0 L 90.0 92.0 L 89.0 91.0 L 89.0 85.0 L 84.0 85.0 L 86.0 87.0 L 86.0 91.0 L 85.0 92.0 L 84.0 91.0 L 84.0 88.0 L 82.0 86.0 L 80.0 86.0 L 78.0 88.0 L 78.0 91.0 L 77.0 92.0 L 75.0 89.0 L 76.0 88.0 L 76.0 87.0 L 73.0 85.0 L 70.0 86.0 L 71.0 87.0 L 70.0 88.0 L 69.0 88.0 L 68.0 87.0 L 66.0 87.0 L 65.0 86.0 L 65.0 87.0 L 64.0 88.0 L 62.0 88.0 L 61.0 87.0 L 61.0 86.0 L 59.0 86.0 L 58.0 87.0 L 56.0 84.0 L 55.0 84.0 L 54.0 85.0 L 51.0 84.0 L 51.0 85.0 L 50.0 86.0 Z M 58.0 93.0 L 59.0 92.0 L 60.0 93.0 L 59.0 94.0 Z M 80.0 91.0 L 81.0 90.0 L 82.0 91.0 L 81.0 92.0 Z M 65.0 90.0 L 66.0 89.0 L 67.0 90.0 L 66.0 91.0 Z M 73.0 89.0 L 74.0 88.0 L 75.0 89.0 L 75.0 90.0 L 74.0 91.0 L 73.0 90.0 Z M 69.0 89.0 L 70.0 88.0 L 71.0 89.0 L 70.0 90.0 Z " fill="#b8b5b2" fill-rule="evenodd"></path>
<path d="M 15.0 85.0 L 15.0 86.0 L 16.0 86.0 L 17.0 87.0 L 16.0 88.0 L 17.0 89.0 L 17.0 92.0 L 18.0 93.0 L 19.0 93.0 L 19.0 88.0 L 20.0 87.0 L 21.0 87.0 L 23.0 90.0 L 23.0 91.0 L 22.0 92.0 L 25.0 94.0 L 26.0 94.0 L 28.0 92.0 L 29.0 92.0 L 32.0 94.0 L 33.0 94.0 L 36.0 92.0 L 37.0 93.0 L 37.0 94.0 L 37.0 93.0 L 38.0 92.0 L 41.0 94.0 L 41.0 93.0 L 42.0 92.0 L 42.0 90.0 L 41.0 89.0 L 41.0 87.0 L 36.0 87.0 L 35.0 88.0 L 33.0 86.0 L 32.0 86.0 L 30.0 88.0 L 28.0 88.0 L 26.0 86.0 L 25.0 86.0 L 23.0 88.0 L 22.0 88.0 L 21.0 87.0 L 21.0 85.0 L 20.0 84.0 L 18.0 84.0 L 17.0 85.0 Z M 34.0 91.0 L 35.0 90.0 L 36.0 91.0 L 35.0 92.0 Z M 28.0 91.0 L 29.0 90.0 L 30.0 91.0 L 29.0 92.0 Z " fill="#b5b1ae" fill-rule="evenodd"></path>
<path d="M 185.0 74.0 L 187.0 74.0 Z " fill="#e8e2dd" fill-rule="evenodd"></path>
<path d="M 126.0 74.0 L 129.0 74.0 Z " fill="#e9e1dc" fill-rule="evenodd"></path>
<path d="M 92.0 58.0 L 92.0 60.0 Z " fill="#faf7f4" fill-rule="evenodd"></path>
<path d="M 133.0 55.0 L 133.0 56.0 L 134.0 57.0 L 133.0 58.0 L 133.0 63.0 L 134.0 64.0 L 133.0 65.0 L 134.0 66.0 L 134.0 67.0 L 135.0 67.0 L 138.0 70.0 L 138.0 71.0 L 141.0 73.0 L 143.0 73.0 L 144.0 72.0 L 147.0 72.0 L 149.0 74.0 L 148.0 73.0 L 149.0 72.0 L 150.0 72.0 L 151.0 73.0 L 151.0 71.0 L 152.0 70.0 L 153.0 70.0 L 156.0 66.0 L 158.0 66.0 L 159.0 67.0 L 158.0 68.0 L 157.0 68.0 L 157.0 69.0 L 158.0 70.0 L 157.0 69.0 L 158.0 68.0 L 159.0 68.0 L 160.0 69.0 L 160.0 71.0 L 161.0 71.0 L 164.0 73.0 L 165.0 72.0 L 169.0 72.0 L 170.0 73.0 L 171.0 73.0 L 171.0 72.0 L 172.0 71.0 L 173.0 72.0 L 174.0 71.0 L 175.0 71.0 L 176.0 72.0 L 176.0 73.0 L 180.0 73.0 L 181.0 72.0 L 181.0 53.0 L 180.0 52.0 L 179.0 52.0 L 178.0 51.0 L 178.0 50.0 L 175.0 48.0 L 173.0 48.0 L 172.0 47.0 L 169.0 47.0 L 168.0 48.0 L 165.0 47.0 L 164.0 48.0 L 163.0 48.0 L 160.0 51.0 L 161.0 52.0 L 160.0 53.0 L 159.0 53.0 L 159.0 55.0 L 162.0 59.0 L 160.0 61.0 L 159.0 60.0 L 159.0 62.0 L 158.0 63.0 L 157.0 63.0 L 156.0 62.0 L 157.0 61.0 L 157.0 58.0 L 156.0 57.0 L 156.0 56.0 L 157.0 55.0 L 155.0 53.0 L 155.0 52.0 L 152.0 49.0 L 151.0 49.0 L 150.0 48.0 L 148.0 48.0 L 147.0 47.0 L 144.0 47.0 L 143.0 48.0 L 141.0 48.0 L 140.0 49.0 L 139.0 48.0 L 138.0 49.0 L 137.0 49.0 L 134.0 53.0 L 135.0 54.0 L 134.0 55.0 Z M 163.0 65.0 L 164.0 64.0 L 165.0 65.0 L 164.0 66.0 Z M 173.0 64.0 L 174.0 63.0 L 175.0 64.0 L 174.0 65.0 Z M 156.0 65.0 L 156.0 64.0 L 157.0 63.0 L 158.0 63.0 L 159.0 64.0 L 157.0 66.0 Z M 174.0 63.0 L 173.0 64.0 L 173.0 65.0 L 171.0 67.0 L 168.0 67.0 L 167.0 68.0 L 165.0 66.0 L 165.0 64.0 L 166.0 63.0 L 168.0 63.0 L 170.0 61.0 L 171.0 62.0 L 173.0 62.0 Z M 138.0 62.0 L 139.0 61.0 L 152.0 61.0 L 153.0 62.0 L 156.0 62.0 L 157.0 63.0 L 156.0 64.0 L 152.0 64.0 L 151.0 65.0 L 150.0 65.0 L 148.0 68.0 L 147.0 68.0 L 146.0 67.0 L 143.0 67.0 L 142.0 68.0 L 140.0 65.0 L 140.0 63.0 L 139.0 64.0 L 138.0 63.0 Z M 161.0 58.0 L 162.0 57.0 L 163.0 57.0 L 164.0 58.0 L 163.0 59.0 L 162.0 59.0 Z M 160.0 57.0 L 161.0 56.0 L 162.0 57.0 L 161.0 58.0 Z M 149.0 56.0 L 150.0 55.0 L 151.0 56.0 L 151.0 57.0 L 150.0 58.0 L 149.0 57.0 Z M 163.0 57.0 L 165.0 54.0 L 166.0 54.0 L 167.0 55.0 L 166.0 56.0 L 168.0 54.0 L 172.0 54.0 L 174.0 56.0 L 173.0 57.0 L 170.0 57.0 L 169.0 58.0 L 164.0 58.0 Z M 172.0 54.0 L 173.0 53.0 L 174.0 53.0 L 175.0 54.0 L 174.0 55.0 L 173.0 55.0 Z M 168.0 53.0 L 169.0 52.0 L 170.0 52.0 L 171.0 53.0 L 170.0 54.0 L 169.0 54.0 Z M 143.0 53.0 L 144.0 52.0 L 146.0 52.0 L 147.0 53.0 L 146.0 54.0 L 144.0 54.0 Z M 139.0 57.0 L 142.0 52.0 L 143.0 53.0 L 143.0 54.0 L 148.0 54.0 L 149.0 55.0 L 149.0 56.0 L 148.0 57.0 L 145.0 57.0 L 144.0 58.0 L 140.0 58.0 Z M 135.0 51.0 L 136.0 50.0 L 137.0 51.0 L 136.0 52.0 Z M 136.0 50.0 L 137.0 49.0 L 138.0 50.0 L 137.0 51.0 Z " fill="#72706f" fill-rule="evenodd"></path>
<path d="M 77.0 47.0 L 76.0 48.0 L 74.0 48.0 L 72.0 50.0 L 71.0 50.0 L 70.0 51.0 L 70.0 52.0 L 67.0 57.0 L 67.0 63.0 L 68.0 64.0 L 67.0 65.0 L 68.0 66.0 L 68.0 67.0 L 69.0 67.0 L 70.0 68.0 L 69.0 69.0 L 70.0 70.0 L 71.0 70.0 L 73.0 72.0 L 74.0 71.0 L 75.0 72.0 L 75.0 73.0 L 83.0 73.0 L 84.0 72.0 L 85.0 72.0 L 85.0 71.0 L 86.0 70.0 L 87.0 70.0 L 89.0 68.0 L 89.0 67.0 L 90.0 66.0 L 90.0 64.0 L 88.0 64.0 L 87.0 63.0 L 86.0 63.0 L 86.0 64.0 L 85.0 65.0 L 84.0 65.0 L 82.0 67.0 L 77.0 67.0 L 74.0 65.0 L 73.0 62.0 L 74.0 61.0 L 78.0 61.0 L 79.0 62.0 L 81.0 62.0 L 82.0 61.0 L 83.0 62.0 L 84.0 61.0 L 90.0 61.0 L 90.0 57.0 L 91.0 56.0 L 91.0 54.0 L 90.0 53.0 L 90.0 52.0 L 87.0 49.0 L 86.0 49.0 L 85.0 48.0 L 81.0 48.0 L 80.0 47.0 Z M 75.0 67.0 L 76.0 66.0 L 77.0 67.0 L 76.0 68.0 Z M 73.0 55.0 L 74.0 54.0 L 75.0 54.0 L 75.0 53.0 L 76.0 52.0 L 77.0 53.0 L 77.0 54.0 L 78.0 53.0 L 82.0 53.0 L 84.0 55.0 L 84.0 56.0 L 85.0 57.0 L 84.0 58.0 L 77.0 58.0 L 76.0 57.0 L 75.0 57.0 L 74.0 58.0 L 73.0 57.0 Z M 88.0 52.0 L 89.0 51.0 L 90.0 52.0 L 89.0 53.0 Z M 87.0 51.0 L 88.0 50.0 L 89.0 51.0 L 88.0 52.0 Z M 86.0 50.0 L 87.0 49.0 L 88.0 50.0 L 87.0 51.0 Z " fill="#6b6a69" fill-rule="evenodd"></path>
<path d="M 43.0 49.0 L 43.0 50.0 L 42.0 51.0 L 43.0 52.0 L 43.0 53.0 L 40.0 58.0 L 39.0 57.0 L 39.0 56.0 L 39.0 58.0 L 40.0 59.0 L 40.0 64.0 L 41.0 65.0 L 41.0 67.0 L 45.0 71.0 L 46.0 71.0 L 47.0 72.0 L 49.0 72.0 L 50.0 73.0 L 50.0 74.0 L 51.0 74.0 L 50.0 73.0 L 51.0 72.0 L 58.0 72.0 L 59.0 73.0 L 58.0 74.0 L 56.0 74.0 L 58.0 74.0 L 59.0 73.0 L 58.0 72.0 L 59.0 71.0 L 60.0 71.0 L 61.0 70.0 L 62.0 71.0 L 61.0 70.0 L 64.0 67.0 L 64.0 64.0 L 65.0 63.0 L 65.0 62.0 L 64.0 61.0 L 64.0 57.0 L 65.0 56.0 L 63.0 54.0 L 64.0 53.0 L 63.0 52.0 L 63.0 51.0 L 60.0 48.0 L 59.0 48.0 L 58.0 47.0 L 56.0 47.0 L 55.0 48.0 L 54.0 48.0 L 53.0 47.0 L 52.0 48.0 L 48.0 48.0 L 46.0 50.0 Z M 44.0 70.0 L 45.0 69.0 L 46.0 70.0 L 45.0 71.0 Z M 40.0 64.0 L 41.0 63.0 L 42.0 64.0 L 41.0 65.0 Z M 48.0 64.0 L 48.0 63.0 L 49.0 62.0 L 53.0 62.0 L 54.0 61.0 L 61.0 61.0 L 62.0 62.0 L 63.0 61.0 L 64.0 61.0 L 65.0 62.0 L 63.0 64.0 L 60.0 64.0 L 59.0 65.0 L 58.0 65.0 L 58.0 66.0 L 56.0 68.0 L 51.0 68.0 L 49.0 66.0 L 49.0 65.0 Z M 47.0 55.0 L 48.0 54.0 L 49.0 54.0 L 49.0 53.0 L 50.0 52.0 L 51.0 53.0 L 56.0 53.0 L 58.0 55.0 L 58.0 56.0 L 59.0 57.0 L 58.0 58.0 L 48.0 58.0 L 47.0 57.0 L 48.0 56.0 Z M 42.0 51.0 L 43.0 50.0 L 44.0 51.0 L 43.0 52.0 Z M 43.0 50.0 L 44.0 49.0 L 45.0 50.0 L 44.0 51.0 Z M 59.0 49.0 L 60.0 48.0 L 61.0 49.0 L 60.0 50.0 Z M 57.0 48.0 L 58.0 47.0 L 59.0 48.0 L 58.0 49.0 Z " fill="#6d6c6b" fill-rule="evenodd"></path>
<path d="M 40.0 48.0 L 37.0 48.0 L 36.0 47.0 L 34.0 47.0 L 33.0 48.0 L 31.0 48.0 L 30.0 47.0 L 27.0 47.0 L 24.0 50.0 L 24.0 67.0 L 25.0 68.0 L 25.0 72.0 L 26.0 72.0 L 27.0 73.0 L 30.0 73.0 L 32.0 71.0 L 32.0 64.0 L 33.0 63.0 L 33.0 59.0 L 32.0 59.0 L 31.0 58.0 L 33.0 56.0 L 34.0 57.0 L 34.0 56.0 L 35.0 55.0 L 35.0 53.0 L 36.0 52.0 L 39.0 52.0 L 40.0 53.0 Z M 33.0 55.0 L 34.0 54.0 L 35.0 55.0 L 34.0 56.0 Z " fill="#878583" fill-rule="evenodd"></path>
<path d="M 172.0 44.0 L 173.0 45.0 L 174.0 45.0 L 173.0 45.0 Z " fill="#ece3dc" fill-rule="evenodd"></path>
<path d="M 202.0 43.0 L 202.0 46.0 Z " fill="#eae3db" fill-rule="evenodd"></path>
<path d="M 131.0 41.0 L 131.0 48.0 Z " fill="#faf8f3" fill-rule="evenodd"></path>
<path d="M 183.0 40.0 L 184.0 43.0 L 183.0 44.0 L 184.0 45.0 L 184.0 72.0 L 189.0 72.0 L 189.0 69.0 L 190.0 68.0 L 191.0 71.0 L 190.0 68.0 L 191.0 67.0 L 190.0 66.0 L 190.0 62.0 L 193.0 53.0 L 195.0 55.0 L 195.0 62.0 L 194.0 63.0 L 195.0 65.0 L 194.0 66.0 L 194.0 69.0 L 199.0 73.0 L 205.0 73.0 L 206.0 71.0 L 208.0 71.0 L 209.0 73.0 L 213.0 73.0 L 214.0 72.0 L 213.0 57.0 L 217.0 53.0 L 222.0 53.0 L 225.0 55.0 L 224.0 56.0 L 224.0 66.0 L 223.0 67.0 L 224.0 68.0 L 223.0 70.0 L 227.0 73.0 L 229.0 73.0 L 229.0 72.0 L 231.0 71.0 L 231.0 68.0 L 230.0 67.0 L 231.0 66.0 L 230.0 64.0 L 231.0 62.0 L 231.0 55.0 L 229.0 53.0 L 230.0 52.0 L 225.0 48.0 L 222.0 47.0 L 215.0 48.0 L 214.0 47.0 L 214.0 41.0 L 213.0 40.0 L 208.0 40.0 L 208.0 64.0 L 206.0 68.0 L 204.0 68.0 L 201.0 66.0 L 200.0 54.0 L 201.0 53.0 L 202.0 55.0 L 201.0 53.0 L 202.0 52.0 L 205.0 52.0 L 205.0 48.0 L 201.0 48.0 L 200.0 47.0 L 200.0 41.0 L 197.0 40.0 L 193.0 42.0 L 195.0 44.0 L 195.0 46.0 L 191.0 48.0 L 190.0 47.0 L 190.0 40.0 Z M 194.0 69.0 L 195.0 68.0 L 196.0 69.0 L 195.0 70.0 Z M 200.0 67.0 L 201.0 66.0 L 202.0 67.0 L 201.0 68.0 Z M 193.0 53.0 L 194.0 52.0 L 195.0 53.0 L 194.0 54.0 Z M 191.0 53.0 L 192.0 52.0 L 193.0 53.0 L 192.0 54.0 Z " fill="#747372" fill-rule="evenodd"></path>
<path d="M 28.0 40.0 L 28.0 44.0 Z " fill="#fbf9f6" fill-rule="evenodd"></path>
<path d="M 26.0 39.0 L 24.0 39.0 L 23.0 40.0 L 1.0 40.0 L 1.0 43.0 L 2.0 44.0 L 8.0 44.0 L 9.0 45.0 L 9.0 51.0 L 10.0 52.0 L 10.0 68.0 L 9.0 69.0 L 9.0 70.0 L 11.0 72.0 L 16.0 72.0 L 16.0 45.0 L 17.0 44.0 L 18.0 45.0 L 19.0 44.0 L 21.0 44.0 L 22.0 45.0 L 25.0 45.0 L 26.0 44.0 Z " fill="#696867" fill-rule="evenodd"></path>
<path d="M 76.0 38.0 L 77.0 39.0 L 78.0 38.0 Z " fill="#e8e3de" fill-rule="evenodd"></path>
<path d="M 143.0 10.0 L 143.0 20.0 L 142.0 21.0 L 142.0 28.0 L 143.0 29.0 L 144.0 32.0 L 147.0 35.0 L 148.0 34.0 L 149.0 35.0 L 149.0 36.0 L 150.0 36.0 L 151.0 37.0 L 154.0 37.0 L 155.0 36.0 L 157.0 36.0 L 157.0 35.0 L 158.0 34.0 L 159.0 35.0 L 160.0 35.0 L 161.0 36.0 L 161.0 37.0 L 164.0 37.0 L 164.0 36.0 L 166.0 33.0 L 165.0 32.0 L 166.0 31.0 L 166.0 30.0 L 165.0 29.0 L 165.0 10.0 L 161.0 10.0 L 160.0 11.0 L 159.0 11.0 L 159.0 18.0 L 158.0 19.0 L 158.0 27.0 L 157.0 28.0 L 158.0 27.0 L 159.0 28.0 L 159.0 29.0 L 157.0 31.0 L 154.0 31.0 L 148.0 27.0 L 149.0 26.0 L 149.0 24.0 L 148.0 23.0 L 148.0 10.0 Z M 142.0 28.0 L 143.0 27.0 L 144.0 28.0 L 143.0 29.0 Z " fill="#72716f" fill-rule="evenodd"></path>
<path d="M 177.0 9.0 L 177.0 10.0 L 176.0 11.0 L 175.0 10.0 L 174.0 11.0 L 173.0 11.0 L 173.0 12.0 L 172.0 13.0 L 169.0 14.0 L 167.0 16.0 L 167.0 24.0 L 167.0 17.0 L 168.0 16.0 L 169.0 17.0 L 169.0 18.0 L 171.0 18.0 L 174.0 21.0 L 172.0 23.0 L 171.0 22.0 L 169.0 24.0 L 169.0 25.0 L 168.0 26.0 L 168.0 30.0 L 169.0 31.0 L 168.0 32.0 L 168.0 34.0 L 169.0 34.0 L 170.0 35.0 L 171.0 34.0 L 172.0 35.0 L 172.0 36.0 L 173.0 35.0 L 174.0 36.0 L 174.0 37.0 L 174.0 36.0 L 175.0 35.0 L 176.0 35.0 L 178.0 37.0 L 178.0 36.0 L 179.0 35.0 L 180.0 36.0 L 182.0 36.0 L 182.0 35.0 L 183.0 34.0 L 184.0 34.0 L 185.0 35.0 L 186.0 35.0 L 187.0 36.0 L 187.0 37.0 L 188.0 37.0 L 189.0 36.0 L 190.0 36.0 L 192.0 34.0 L 192.0 17.0 L 191.0 17.0 L 190.0 16.0 L 191.0 15.0 L 190.0 14.0 L 191.0 13.0 L 189.0 13.0 L 184.0 9.0 Z M 169.0 34.0 L 170.0 33.0 L 171.0 34.0 L 170.0 35.0 Z M 168.0 32.0 L 169.0 31.0 L 170.0 32.0 L 170.0 33.0 L 169.0 34.0 L 168.0 33.0 Z M 174.0 30.0 L 175.0 29.0 L 176.0 30.0 L 175.0 31.0 Z M 183.0 26.0 L 184.0 25.0 L 185.0 26.0 L 184.0 27.0 Z M 184.0 25.0 L 185.0 24.0 L 186.0 25.0 L 185.0 26.0 Z M 175.0 27.0 L 176.0 26.0 L 177.0 26.0 L 178.0 25.0 L 181.0 24.0 L 183.0 26.0 L 183.0 27.0 L 184.0 28.0 L 182.0 31.0 L 181.0 30.0 L 180.0 31.0 L 178.0 31.0 L 175.0 29.0 Z M 174.0 19.0 L 177.0 16.0 L 178.0 16.0 L 178.0 15.0 L 179.0 14.0 L 180.0 15.0 L 181.0 15.0 L 182.0 14.0 L 183.0 15.0 L 183.0 17.0 L 184.0 16.0 L 185.0 16.0 L 186.0 17.0 L 186.0 18.0 L 184.0 20.0 L 181.0 19.0 L 180.0 20.0 L 178.0 20.0 L 177.0 21.0 L 176.0 21.0 Z M 168.0 15.0 L 169.0 14.0 L 170.0 14.0 L 171.0 15.0 L 170.0 16.0 L 169.0 16.0 Z " fill="#7a7977" fill-rule="evenodd"></path>
<path d="M 123.0 2.0 L 116.0 2.0 L 117.0 24.0 L 115.0 26.0 L 110.0 21.0 L 108.0 21.0 L 114.0 17.0 L 114.0 12.0 L 113.0 14.0 L 107.0 10.0 L 98.0 10.0 L 92.0 13.0 L 89.0 18.0 L 82.0 10.0 L 73.0 9.0 L 63.0 18.0 L 63.0 27.0 L 65.0 31.0 L 71.0 36.0 L 79.0 35.0 L 81.0 37.0 L 84.0 33.0 L 86.0 34.0 L 85.0 33.0 L 89.0 27.0 L 89.0 18.0 L 91.0 15.0 L 93.0 16.0 L 91.0 21.0 L 95.0 25.0 L 94.0 24.0 L 96.0 23.0 L 98.0 25.0 L 96.0 27.0 L 91.0 27.0 L 92.0 28.0 L 90.0 31.0 L 97.0 36.0 L 106.0 36.0 L 109.0 38.0 L 108.0 40.0 L 102.0 41.0 L 101.0 69.0 L 104.0 73.0 L 110.0 72.0 L 110.0 61.0 L 112.0 59.0 L 123.0 59.0 L 124.0 71.0 L 129.0 72.0 L 130.0 69.0 L 129.0 39.0 L 125.0 39.0 L 125.0 41.0 L 123.0 41.0 L 123.0 54.0 L 111.0 52.0 L 111.0 40.0 L 109.0 37.0 L 114.0 31.0 L 115.0 26.0 L 117.0 26.0 L 116.0 35.0 L 122.0 36.0 L 124.0 29.0 L 123.0 19.0 L 125.0 16.0 L 130.0 14.0 L 130.0 16.0 L 133.0 18.0 L 134.0 35.0 L 138.0 37.0 L 140.0 34.0 L 140.0 18.0 L 138.0 14.0 L 132.0 9.0 L 128.0 8.0 L 124.0 10.0 Z M 102.0 61.0 L 103.0 62.0 L 103.0 67.0 L 102.0 68.0 L 101.0 67.0 L 101.0 62.0 Z M 109.0 60.0 L 110.0 59.0 L 111.0 60.0 L 110.0 61.0 Z M 109.0 53.0 L 110.0 52.0 L 111.0 53.0 L 110.0 54.0 Z M 110.0 39.0 L 111.0 40.0 L 111.0 43.0 L 110.0 44.0 L 109.0 43.0 L 109.0 40.0 Z M 108.0 36.0 L 109.0 35.0 L 110.0 36.0 L 109.0 37.0 Z M 106.0 36.0 L 107.0 35.0 L 108.0 36.0 L 107.0 37.0 Z M 90.0 31.0 L 91.0 30.0 L 92.0 30.0 L 93.0 31.0 L 92.0 32.0 L 91.0 32.0 Z M 72.0 30.0 L 73.0 29.0 L 74.0 30.0 L 73.0 31.0 Z M 107.0 28.0 L 108.0 27.0 L 109.0 28.0 L 108.0 29.0 Z M 113.0 27.0 L 114.0 26.0 L 115.0 27.0 L 115.0 28.0 L 114.0 29.0 L 113.0 28.0 Z M 97.0 27.0 L 99.0 24.0 L 101.0 26.0 L 106.0 26.0 L 107.0 27.0 L 107.0 29.0 L 105.0 31.0 L 103.0 31.0 L 102.0 30.0 L 99.0 30.0 Z M 93.0 23.0 L 94.0 22.0 L 95.0 23.0 L 94.0 24.0 Z M 92.0 22.0 L 93.0 21.0 L 94.0 22.0 L 93.0 23.0 Z M 91.0 21.0 L 92.0 20.0 L 93.0 21.0 L 92.0 22.0 Z M 97.0 17.0 L 98.0 16.0 L 99.0 16.0 L 100.0 17.0 L 99.0 18.0 L 98.0 18.0 Z M 131.0 16.0 L 132.0 15.0 L 133.0 16.0 L 132.0 17.0 Z M 113.0 15.0 L 114.0 14.0 L 115.0 15.0 L 114.0 16.0 Z M 99.0 18.0 L 100.0 17.0 L 100.0 15.0 L 101.0 14.0 L 104.0 14.0 L 105.0 15.0 L 105.0 16.0 L 106.0 16.0 L 108.0 18.0 L 108.0 19.0 L 106.0 21.0 L 105.0 21.0 L 103.0 19.0 L 101.0 19.0 L 100.0 20.0 L 99.0 19.0 Z M 75.0 14.0 L 77.0 14.0 L 78.0 15.0 L 78.0 16.0 L 80.0 16.0 L 82.0 18.0 L 82.0 19.0 L 83.0 20.0 L 83.0 25.0 L 82.0 26.0 L 82.0 27.0 L 83.0 28.0 L 80.0 30.0 L 74.0 30.0 L 69.0 27.0 L 70.0 26.0 L 69.0 25.0 L 69.0 20.0 L 73.0 16.0 L 74.0 16.0 L 74.0 15.0 Z M 91.0 14.0 L 92.0 13.0 L 93.0 14.0 L 92.0 15.0 Z " fill="#777675" fill-rule="evenodd"></path>
<path d="M 59.0 2.0 L 53.0 2.0 L 52.0 3.0 L 52.0 21.0 L 53.0 22.0 L 53.0 26.0 L 52.0 27.0 L 52.0 28.0 L 51.0 29.0 L 50.0 29.0 L 50.0 30.0 L 49.0 31.0 L 48.0 30.0 L 43.0 30.0 L 42.0 29.0 L 41.0 29.0 L 40.0 28.0 L 40.0 26.0 L 39.0 25.0 L 39.0 23.0 L 37.0 23.0 L 36.0 22.0 L 36.0 21.0 L 34.0 21.0 L 34.0 22.0 L 33.0 23.0 L 32.0 23.0 L 32.0 28.0 L 33.0 29.0 L 33.0 30.0 L 34.0 31.0 L 35.0 31.0 L 37.0 33.0 L 37.0 35.0 L 38.0 36.0 L 37.0 35.0 L 38.0 34.0 L 39.0 34.0 L 40.0 35.0 L 40.0 36.0 L 41.0 36.0 L 42.0 35.0 L 44.0 37.0 L 47.0 37.0 L 49.0 35.0 L 51.0 37.0 L 51.0 36.0 L 52.0 35.0 L 53.0 36.0 L 53.0 34.0 L 56.0 31.0 L 58.0 31.0 L 57.0 30.0 L 59.0 27.0 L 59.0 26.0 L 58.0 25.0 L 58.0 15.0 L 59.0 14.0 Z M 38.0 26.0 L 39.0 25.0 L 40.0 26.0 L 39.0 27.0 Z " fill="#737170" fill-rule="evenodd"></path>
</svg>