<svg xmlns="http://www.w3.org/2000/svg" width="248" height="155" viewBox="0 0 248 155" role="img" aria-label="Joshua Tree Health logo asset">
<path d="M 168.0 136.0 L 166.0 136.0 L 166.0 138.0 L 167.0 138.0 L 168.0 137.0 Z " fill="#f8f5eb" fill-rule="evenodd"></path>
<path d="M 140.0 136.0 L 140.0 138.0 L 142.0 138.0 L 142.0 136.0 Z " fill="#f8f5eb" fill-rule="evenodd"></path>
<path d="M 97.0 136.0 L 96.0 137.0 L 96.0 138.0 L 97.0 139.0 L 99.0 139.0 L 99.0 136.0 Z " fill="#f8f5eb" fill-rule="evenodd"></path>
<path d="M 63.0 136.0 L 62.0 137.0 L 62.0 138.0 L 63.0 139.0 L 65.0 139.0 L 65.0 136.0 Z " fill="#f8f5eb" fill-rule="evenodd"></path>
<path d="M 130.0 135.0 L 130.0 138.0 L 131.0 138.0 L 131.0 135.0 Z " fill="#f8f5eb" fill-rule="evenodd"></path>
<path d="M 126.0 135.0 L 126.0 137.0 L 128.0 137.0 L 128.0 135.0 Z " fill="#f8f5eb" fill-rule="evenodd"></path>
<path d="M 109.0 135.0 L 109.0 138.0 L 112.0 137.0 L 114.0 139.0 L 116.0 139.0 L 117.0 138.0 L 118.0 139.0 L 121.0 139.0 L 121.0 137.0 L 120.0 136.0 L 120.0 135.0 L 119.0 135.0 L 117.0 137.0 L 116.0 136.0 L 111.0 136.0 L 110.0 135.0 Z " fill="#f8f5eb" fill-rule="evenodd"></path>
<path d="M 74.0 136.0 L 73.0 135.0 L 72.0 135.0 L 71.0 136.0 L 67.0 136.0 L 67.0 139.0 L 69.0 139.0 L 71.0 137.0 L 74.0 138.0 Z " fill="#f8f5eb" fill-rule="evenodd"></path>
<path d="M 178.0 135.0 L 178.0 136.0 L 180.0 136.0 L 181.0 137.0 L 185.0 137.0 L 184.0 134.0 L 183.0 134.0 L 182.0 135.0 L 179.0 134.0 Z " fill="#f8f5eb" fill-rule="evenodd"></path>
<path d="M 174.0 134.0 L 174.0 135.0 L 175.0 136.0 L 174.0 139.0 L 176.0 139.0 L 176.0 134.0 Z " fill="#f8f5eb" fill-rule="evenodd"></path>
<path d="M 148.0 135.0 L 148.0 137.0 L 151.0 137.0 L 152.0 138.0 L 153.0 138.0 L 154.0 137.0 L 155.0 138.0 L 158.0 138.0 L 159.0 137.0 L 160.0 137.0 L 160.0 134.0 L 157.0 134.0 L 154.0 136.0 L 153.0 135.0 L 151.0 135.0 L 150.0 134.0 L 149.0 134.0 Z " fill="#f8f5eb" fill-rule="evenodd"></path>
<path d="M 123.0 134.0 L 123.0 139.0 L 124.0 139.0 L 124.0 134.0 Z " fill="#f8f5eb" fill-rule="evenodd"></path>
<path d="M 79.0 134.0 L 79.0 138.0 L 81.0 138.0 L 82.0 139.0 L 86.0 139.0 L 87.0 136.0 L 84.0 136.0 L 83.0 135.0 L 83.0 134.0 L 82.0 134.0 L 81.0 135.0 L 80.0 134.0 Z " fill="#f8f5eb" fill-rule="evenodd"></path>
<path d="M 61.0 134.0 L 59.0 134.0 L 59.0 136.0 L 60.0 136.0 L 61.0 135.0 Z " fill="#f8f5eb" fill-rule="evenodd"></path>
<path d="M 148.0 112.0 L 145.0 115.0 L 145.0 116.0 L 147.0 118.0 L 145.0 120.0 L 145.0 124.0 L 147.0 126.0 L 152.0 126.0 L 153.0 125.0 L 154.0 126.0 L 156.0 126.0 L 157.0 125.0 L 157.0 117.0 L 156.0 116.0 L 156.0 114.0 L 154.0 112.0 Z M 155.0 120.0 L 155.0 122.0 L 154.0 123.0 L 152.0 123.0 L 151.0 124.0 L 149.0 124.0 L 148.0 123.0 L 148.0 121.0 L 149.0 120.0 L 153.0 120.0 L 154.0 119.0 Z M 147.0 117.0 L 150.0 114.0 L 152.0 114.0 L 154.0 116.0 L 152.0 118.0 L 148.0 118.0 Z " fill="#f8f5eb" fill-rule="evenodd"></path>
<path d="M 134.0 112.0 L 131.0 115.0 L 131.0 117.0 L 130.0 118.0 L 130.0 121.0 L 131.0 122.0 L 132.0 125.0 L 133.0 125.0 L 134.0 126.0 L 140.0 126.0 L 141.0 125.0 L 142.0 125.0 L 143.0 124.0 L 143.0 122.0 L 140.0 122.0 L 140.0 123.0 L 139.0 124.0 L 136.0 124.0 L 133.0 121.0 L 134.0 120.0 L 143.0 120.0 L 143.0 115.0 L 140.0 112.0 Z M 133.0 117.0 L 136.0 114.0 L 138.0 114.0 L 141.0 117.0 L 140.0 118.0 L 134.0 118.0 Z " fill="#f8f5eb" fill-rule="evenodd"></path>
<path d="M 95.0 113.0 L 93.0 116.0 L 93.0 123.0 L 96.0 126.0 L 103.0 126.0 L 105.0 124.0 L 105.0 122.0 L 103.0 122.0 L 101.0 124.0 L 98.0 124.0 L 95.0 121.0 L 96.0 120.0 L 105.0 120.0 L 106.0 119.0 L 106.0 118.0 L 105.0 117.0 L 105.0 115.0 L 102.0 112.0 L 97.0 112.0 L 96.0 113.0 Z M 96.0 116.0 L 97.0 115.0 L 100.0 114.0 L 103.0 117.0 L 102.0 118.0 L 97.0 118.0 L 96.0 117.0 Z " fill="#f8f5eb" fill-rule="evenodd"></path>
<path d="M 70.0 112.0 L 70.0 126.0 L 72.0 126.0 L 72.0 118.0 L 75.0 115.0 L 77.0 115.0 L 78.0 116.0 L 78.0 122.0 L 80.0 125.0 L 81.0 125.0 L 82.0 126.0 L 88.0 126.0 L 90.0 124.0 L 90.0 122.0 L 88.0 122.0 L 86.0 124.0 L 83.0 124.0 L 81.0 122.0 L 81.0 121.0 L 82.0 120.0 L 91.0 120.0 L 91.0 116.0 L 89.0 113.0 L 88.0 113.0 L 87.0 112.0 L 82.0 112.0 L 79.0 115.0 L 77.0 112.0 L 74.0 112.0 L 73.0 113.0 L 72.0 112.0 Z M 81.0 117.0 L 84.0 114.0 L 85.0 114.0 L 88.0 117.0 L 87.0 118.0 L 82.0 118.0 Z M 77.0 115.0 L 78.0 114.0 L 79.0 115.0 L 78.0 116.0 Z " fill="#f8f5eb" fill-rule="evenodd"></path>
<path d="M 55.0 108.0 L 55.0 109.0 L 56.0 110.0 L 60.0 110.0 L 61.0 111.0 L 61.0 126.0 L 64.0 126.0 L 64.0 111.0 L 65.0 110.0 L 70.0 110.0 L 70.0 108.0 Z " fill="#f8f5eb" fill-rule="evenodd"></path>
<path d="M 174.0 107.0 L 173.0 108.0 L 173.0 125.0 L 174.0 126.0 L 176.0 126.0 L 176.0 117.0 L 179.0 114.0 L 180.0 114.0 L 183.0 117.0 L 183.0 126.0 L 185.0 126.0 L 185.0 114.0 L 183.0 112.0 L 178.0 112.0 L 177.0 113.0 L 176.0 112.0 L 176.0 107.0 Z " fill="#f8f5eb" fill-rule="evenodd"></path>
<path d="M 160.0 107.0 L 159.0 108.0 L 159.0 126.0 L 162.0 126.0 L 162.0 115.0 L 163.0 114.0 L 164.0 114.0 L 166.0 116.0 L 166.0 125.0 L 167.0 126.0 L 171.0 126.0 L 171.0 124.0 L 169.0 124.0 L 168.0 123.0 L 168.0 115.0 L 169.0 114.0 L 171.0 114.0 L 171.0 112.0 L 169.0 112.0 L 168.0 111.0 L 168.0 108.0 L 166.0 108.0 L 166.0 111.0 L 163.0 113.0 L 162.0 112.0 L 162.0 108.0 L 161.0 107.0 Z " fill="#f8f5eb" fill-rule="evenodd"></path>
<path d="M 127.0 107.0 L 126.0 107.0 L 125.0 108.0 L 125.0 115.0 L 124.0 116.0 L 117.0 116.0 L 116.0 115.0 L 116.0 108.0 L 114.0 108.0 L 114.0 126.0 L 116.0 126.0 L 116.0 119.0 L 117.0 118.0 L 124.0 118.0 L 125.0 119.0 L 125.0 125.0 L 126.0 126.0 L 128.0 126.0 L 128.0 108.0 Z " fill="#f8f5eb" fill-rule="evenodd"></path>
<path d="M 152.0 91.0 L 151.0 92.0 L 151.0 95.0 L 153.0 95.0 L 154.0 96.0 L 153.0 97.0 L 152.0 97.0 L 150.0 99.0 L 150.0 102.0 L 152.0 104.0 L 158.0 104.0 L 159.0 103.0 L 160.0 104.0 L 162.0 104.0 L 162.0 93.0 L 160.0 91.0 L 159.0 91.0 L 158.0 90.0 L 155.0 90.0 L 154.0 91.0 Z M 153.0 100.0 L 155.0 98.0 L 159.0 98.0 L 160.0 99.0 L 160.0 101.0 L 159.0 102.0 L 154.0 102.0 L 153.0 101.0 Z M 153.0 94.0 L 156.0 92.0 L 157.0 93.0 L 158.0 93.0 L 159.0 94.0 L 159.0 95.0 L 158.0 96.0 L 154.0 96.0 L 153.0 95.0 Z " fill="#f8f5eb" fill-rule="evenodd"></path>
<path d="M 137.0 90.0 L 136.0 91.0 L 136.0 102.0 L 138.0 104.0 L 140.0 104.0 L 141.0 105.0 L 142.0 105.0 L 145.0 103.0 L 146.0 104.0 L 148.0 104.0 L 148.0 91.0 L 145.0 91.0 L 145.0 92.0 L 146.0 93.0 L 146.0 97.0 L 145.0 98.0 L 145.0 100.0 L 143.0 102.0 L 140.0 102.0 L 139.0 101.0 L 139.0 91.0 L 138.0 90.0 Z " fill="#f8f5eb" fill-rule="evenodd"></path>
<path d="M 109.0 91.0 L 107.0 93.0 L 107.0 96.0 L 109.0 98.0 L 112.0 98.0 L 113.0 99.0 L 115.0 99.0 L 116.0 100.0 L 116.0 101.0 L 115.0 102.0 L 111.0 102.0 L 109.0 100.0 L 107.0 100.0 L 107.0 102.0 L 109.0 104.0 L 111.0 104.0 L 112.0 105.0 L 113.0 105.0 L 114.0 104.0 L 117.0 104.0 L 119.0 102.0 L 119.0 99.0 L 117.0 97.0 L 115.0 97.0 L 114.0 96.0 L 111.0 96.0 L 110.0 95.0 L 110.0 94.0 L 113.0 92.0 L 116.0 95.0 L 118.0 95.0 L 118.0 92.0 L 115.0 90.0 L 111.0 90.0 L 110.0 91.0 Z " fill="#f8f5eb" fill-rule="evenodd"></path>
<path d="M 97.0 90.0 L 96.0 91.0 L 94.0 91.0 L 92.0 93.0 L 92.0 94.0 L 91.0 95.0 L 91.0 99.0 L 92.0 100.0 L 92.0 102.0 L 94.0 104.0 L 96.0 104.0 L 97.0 105.0 L 100.0 105.0 L 101.0 104.0 L 102.0 104.0 L 105.0 101.0 L 105.0 94.0 L 102.0 91.0 L 101.0 91.0 L 100.0 90.0 Z M 98.0 92.0 L 99.0 93.0 L 100.0 93.0 L 103.0 96.0 L 103.0 99.0 L 100.0 102.0 L 97.0 102.0 L 94.0 99.0 L 94.0 95.0 L 96.0 93.0 L 97.0 93.0 Z " fill="#f8f5eb" fill-rule="evenodd"></path>
<path d="M 88.0 86.0 L 85.0 86.0 L 85.0 100.0 L 84.0 101.0 L 83.0 101.0 L 82.0 102.0 L 80.0 102.0 L 77.0 99.0 L 77.0 97.0 L 74.0 97.0 L 74.0 100.0 L 75.0 101.0 L 75.0 102.0 L 77.0 104.0 L 79.0 104.0 L 80.0 105.0 L 83.0 105.0 L 84.0 104.0 L 85.0 104.0 L 88.0 101.0 Z " fill="#f8f5eb" fill-rule="evenodd"></path>
<path d="M 122.0 85.0 L 121.0 86.0 L 121.0 104.0 L 124.0 104.0 L 124.0 95.0 L 126.0 93.0 L 129.0 93.0 L 131.0 95.0 L 131.0 104.0 L 133.0 104.0 L 133.0 93.0 L 130.0 90.0 L 127.0 90.0 L 126.0 91.0 L 125.0 91.0 L 124.0 90.0 L 124.0 86.0 L 123.0 85.0 Z " fill="#f8f5eb" fill-rule="evenodd"></path>
<path d="M 93.0 14.0 L 91.0 16.0 L 92.0 19.0 L 90.0 20.0 L 93.0 23.0 L 91.0 25.0 L 93.0 26.0 L 93.0 28.0 L 95.0 27.0 L 96.0 28.0 L 96.0 30.0 L 98.0 31.0 L 101.0 37.0 L 108.0 45.0 L 116.0 62.0 L 116.0 79.0 L 117.0 80.0 L 124.0 80.0 L 125.0 79.0 L 125.0 62.0 L 128.0 55.0 L 135.0 48.0 L 145.0 42.0 L 149.0 37.0 L 150.0 26.0 L 153.0 25.0 L 152.0 23.0 L 154.0 22.0 L 152.0 20.0 L 154.0 19.0 L 152.0 17.0 L 153.0 15.0 L 147.0 11.0 L 145.0 14.0 L 143.0 13.0 L 144.0 17.0 L 143.0 18.0 L 141.0 17.0 L 143.0 20.0 L 141.0 22.0 L 143.0 23.0 L 142.0 25.0 L 145.0 26.0 L 144.0 33.0 L 138.0 40.0 L 129.0 44.0 L 127.0 42.0 L 127.0 40.0 L 133.0 29.0 L 136.0 30.0 L 135.0 27.0 L 136.0 26.0 L 138.0 27.0 L 138.0 25.0 L 136.0 24.0 L 138.0 23.0 L 138.0 18.0 L 136.0 17.0 L 136.0 15.0 L 134.0 17.0 L 133.0 14.0 L 131.0 17.0 L 128.0 16.0 L 127.0 10.0 L 125.0 11.0 L 124.0 8.0 L 122.0 11.0 L 120.0 8.0 L 119.0 12.0 L 118.0 10.0 L 116.0 10.0 L 117.0 12.0 L 115.0 14.0 L 119.0 18.0 L 117.0 20.0 L 116.0 18.0 L 114.0 18.0 L 113.0 20.0 L 110.0 17.0 L 106.0 21.0 L 106.0 23.0 L 109.0 26.0 L 108.0 27.0 L 108.0 29.0 L 110.0 30.0 L 109.0 33.0 L 103.0 26.0 L 104.0 21.0 L 102.0 19.0 L 101.0 15.0 L 99.0 15.0 L 98.0 13.0 L 96.0 16.0 L 95.0 14.0 Z M 135.0 44.0 L 136.0 43.0 L 137.0 43.0 L 138.0 44.0 L 137.0 45.0 L 136.0 45.0 Z M 137.0 43.0 L 138.0 42.0 L 139.0 43.0 L 138.0 44.0 Z M 138.0 42.0 L 139.0 41.0 L 140.0 41.0 L 141.0 42.0 L 140.0 43.0 L 139.0 43.0 Z M 140.0 41.0 L 141.0 40.0 L 142.0 41.0 L 141.0 42.0 Z M 141.0 40.0 L 142.0 39.0 L 143.0 40.0 L 142.0 41.0 Z M 142.0 39.0 L 143.0 38.0 L 144.0 39.0 L 143.0 40.0 Z M 143.0 38.0 L 144.0 37.0 L 145.0 38.0 L 144.0 39.0 Z M 148.0 19.0 L 149.0 20.0 L 149.0 21.0 L 148.0 22.0 L 148.0 27.0 L 149.0 28.0 L 149.0 32.0 L 148.0 33.0 L 148.0 35.0 L 145.0 38.0 L 144.0 37.0 L 144.0 36.0 L 146.0 33.0 L 146.0 23.0 L 145.0 22.0 L 145.0 21.0 L 147.0 19.0 Z M 115.0 20.0 L 116.0 19.0 L 117.0 20.0 L 116.0 21.0 Z M 98.0 19.0 L 100.0 21.0 L 100.0 27.0 L 99.0 28.0 L 98.0 27.0 L 98.0 24.0 L 97.0 24.0 L 96.0 23.0 L 96.0 22.0 Z M 127.0 18.0 L 128.0 17.0 L 129.0 18.0 L 128.0 19.0 Z M 123.0 15.0 L 124.0 16.0 L 124.0 19.0 L 126.0 19.0 L 127.0 20.0 L 127.0 21.0 L 133.0 21.0 L 134.0 22.0 L 133.0 25.0 L 132.0 26.0 L 131.0 26.0 L 131.0 28.0 L 126.0 37.0 L 126.0 44.0 L 129.0 46.0 L 131.0 46.0 L 134.0 44.0 L 135.0 44.0 L 136.0 45.0 L 134.0 47.0 L 133.0 47.0 L 127.0 53.0 L 127.0 54.0 L 124.0 59.0 L 124.0 62.0 L 123.0 63.0 L 123.0 77.0 L 122.0 78.0 L 119.0 78.0 L 118.0 77.0 L 118.0 61.0 L 116.0 58.0 L 116.0 56.0 L 115.0 55.0 L 115.0 54.0 L 114.0 53.0 L 110.0 44.0 L 107.0 41.0 L 107.0 40.0 L 102.0 35.0 L 102.0 34.0 L 99.0 29.0 L 100.0 28.0 L 102.0 28.0 L 108.0 35.0 L 111.0 35.0 L 112.0 34.0 L 112.0 27.0 L 111.0 27.0 L 110.0 26.0 L 111.0 25.0 L 111.0 24.0 L 112.0 23.0 L 113.0 24.0 L 116.0 24.0 L 116.0 23.0 L 117.0 22.0 L 118.0 22.0 L 119.0 21.0 L 121.0 21.0 L 121.0 16.0 L 122.0 15.0 Z M 92.0 16.0 L 93.0 15.0 L 94.0 16.0 L 93.0 17.0 Z M 150.0 15.0 L 151.0 14.0 L 152.0 15.0 L 151.0 16.0 Z M 147.0 14.0 L 148.0 13.0 L 149.0 14.0 L 149.0 15.0 L 148.0 16.0 L 147.0 15.0 Z M 116.0 13.0 L 117.0 12.0 L 118.0 13.0 L 117.0 14.0 Z " fill="#f8f5eb" fill-rule="evenodd"></path>
<path d="M 4.0 8.0 L 1.0 18.0 L 2.0 142.0 L 10.0 152.0 L 15.0 154.0 L 232.0 154.0 L 243.0 147.0 L 246.0 140.0 L 246.0 14.0 L 242.0 6.0 L 237.0 2.0 L 231.0 0.0 L 18.0 0.0 L 9.0 3.0 Z M 6.0 11.0 L 12.0 5.0 L 19.0 2.0 L 229.0 2.0 L 236.0 5.0 L 244.0 16.0 L 244.0 138.0 L 242.0 143.0 L 230.0 152.0 L 17.0 152.0 L 7.0 145.0 L 3.0 136.0 L 3.0 18.0 Z " fill="#f8f5eb" fill-rule="evenodd"></path>
</svg>