<?xml version="1.0" encoding="UTF-8"?>
<svg id="Layer_1" data-name="Layer 1" xmlns="http://www.w3.org/2000/svg" viewBox="0 0 2000 2000">
  <defs>
    <style>
      .cls-1 {
        fill: #1e3d34;
      }
    </style>
  </defs>
  <path class="cls-1" d="M148.03,813.14l9.41-16.78c3.4-4.33,10.32-3.7,10.33,2.59,0,3.36-6.7,17.79-6.03,18.49,4.93-1.55,11-8.57,16.5-7.6,2.15.38,4.86,3.2,4.86,5.45,0,5.14-20.2,18.12-23.93,22.77,8.84.62,20.85-2.58,29.38-.67,1.55.35,3.15,1.55,3.94,2.93,6.1,10.65-20.22,11.12-26.04,11.5-1.28.09-2.48-.65-2.12,1.28l25.45,14.43c1.78,2.41,1.02,5.15.45,7.83l34.06,30.61c-.4-3.14-1.51-6.79-1.7-9.9-.68-11.43,6.4-34.18,9.84-45.97,3.25-11.14,9.84-20.35,6.41-32.67-1.57.48-2.06,2.4-2.72,3.71-4.74,9.55-8.39,25.97-13.38,33.86-3.98,6.29-10.27,3.63-9.41-3.38l14.37-41.94c-5.01,4.02-10.06,8.05-15.48,11.53-3.71,2.37-13.6,10.25-16.63,3.94-3.18-6.6,10.92-14.1,14.13-18.91-4.59.54-10.27,2.3-14.79,1.51-4.72-.84-8.46-5.39-4.94-9.71,4.03-4.94,29.89-8.9,36.86-11.59.75-.97-16.61-13.52-18.02-15-2-2.12-3.79-4.98-1.74-7.83,5.25-7.3,16.64,7.51,21.47,9.95,1.43-1.73-18.66-35.17-17.6-41.27.72-4.11,4.86-5.62,8.13-2.94l11.17,20.14c.98-5.57-2.66-13.07-1.52-18.29,1.2-5.55,7.8-5.52,9.06,0,1.85,8.11,1.54,17.42,4.35,25.72.39,1.13.24,2.63,1.82,2.89l5.57-29.23c6.27-6.22,11.36-.02,9.78,7.24l-9.34,37.46c7.56-4.79,28.09-26.38,36.41-25.87,3.65.23,5.6,3.69,4.53,7.2-1.93,6.34-19.59,17.86-24.67,22.96,9.36.34,18.18-2.05,27.47.38,5.76,1.51,8.35,7.96,2.27,10.99-4.06,2.03-17.32,2.89-22.47,3.24-3.32.23-7.12-.39-10.29,0-1.19.15-2.49.47-1.27,1.71l36.42,19.77c2.81,1.7,6.11,4.2,5.41,7.97-2.04,11.02-23.65-7-28.99-7.95,2.16,2.99,10.99,8.72,5.65,12.97-5.77,4.58-12.57-7.01-16.78-9.54.48,7.03,12.53,21.98,11.98,27.85-.2,2.11-1.89,4.35-4.05,4.68-2.88.44-3.74-2.41-6.22-2.44-4.32,23.47-15.16,48.1-10.76,72.25,1.97,10.83,7.09,22.47,10.96,32.83,3.08,8.23,28.04,69.34,31.92,70.27,1.12.27,1.48-.69,2.12-1.3,6.83-6.45,28.27-35,32.12-43.41,6.56-14.27,2.46-24.56,2.12-39.07-.32-13.89.32-27.83.02-41.72l-10.05,15.48c-3.51,2.97-9.37.65-9.63-3.95-.26-4.61,14.01-29.87,12.83-31.3-5.39,2.32-23.05,20.6-27.65,10.95-2.93-6.16,10.45-13.87,13.95-17.81-5.01,0-19.44,2.89-22.67-.9-1.64-1.92-1.89-5.21-.51-7.34,3.13-4.83,24.91-4.35,30.89-6.4l-21.42-13.3c-3.85-5.18-.44-10.42,6.04-8.64,3.93,1.08,27.09,15.28,28.24,14.2-2.01-7.81-11.6-25.67-10.28-33.05.43-2.38,3.89-4.98,6.23-4.63,6.89,1.06,10.24,23.18,11.77,29.08,1.23.13,1.39-2.03,1.71-2.99,2.12-6.28,7.39-28.58,10.74-32.21,3.54-3.83,8.93-1.44,8.92,3.74l-8.53,33.18c6.84-3.7,17.71-16.98,25.96-14.44,4.72,1.45,2.82,6.11.61,8.87-5.66,7.12-13.97,11.53-20.58,17.59,6.37,1.66,30.06,2.02,34.03,6.25,1.4,1.49,1.46,5.87.02,7.31-2.93,2.94-34.03,0-40.06-.65l6.4,8.61c2.94,4.39,23.32,18.64,16.37,24.14-5.67,4.48-12.87-4.76-16.78-7.82,1.23,3.88,6.67,32.66,9,32.68l50.96-58.89c-2.59-.91-4.27,1.47-7.25,1.36-4.54-.17-6.96-4.15-4.64-8.13,1.67-2.86,5.87-3.12,7.61-5.68-6.97.73-16.45-.58-11.61-9.52l21.03-5.95c-3.64-.79-7.59-1.81-11.1-3.05-5.84-2.07-16.61-4.38-12.94-12.72,3.36-5.27,27.1,5.4,32.61,6.29-3.1-5.32-21.95-19.76-22.26-24.55-.32-4.79,4.92-6.57,8.48-4.16l24.06,21.85-11.83-35.03c-.05-4.55,3.98-7,8.04-4.56,4.06,2.44,9.12,22.6,11.52,27.55l4.63-12.09c14.65-4.64,4.97,19.06,6.5,26.71,6.12-2.93,17.65-17.92,24.46-13.8,7.98,4.83-7.4,12.09-9.9,15.51,5.26-.82,20.8-4.6,20.3,4.61-.36,6.66-10.01,6.29-13.44,10.01,5.19.34,22.66,1.3,24.48,6.84,1.9,5.77-2.1,7.41-6.88,7.82-12.02,1.01-25.97-1.77-38.15-1.74l23.5,24.97c4.3,4.8.53,11.81-5.82,8.43-7.76-6.46-15.13-15.54-22.8-21.82-.78-.64-4.52-3.71-5.15-2.99-.29,6.69.38,13.5-.01,20.18-.28,4.7-.87,14.21-2.27,18.35-2.54,7.5-10.57,3.51-10.57-.29v-12.46l-13.01,20.9c-15.05,21.3-32.19,41.38-44.53,64.48-4.53,8.48-9.51,17.62-10.99,27.22l73.67-11.18c1-1.35-26.9-13.3-28.68-17.19-.79-1.71-.64-4.73.35-6.29,3.03-4.79,16.24,4.42,19.77,6.3.38-1.62-.9-2.04-1.7-3.01-3.06-3.71-13.85-14.44-14.42-18.25-.53-3.54,2.8-5.99,6.24-5.39,4.86.85,22.18,24.59,27.88,28.37-1.34-9.97-5.38-19.39-7.28-29.21-.97-5.06-2.72-8.61,2.77-11.92,1.84-.5,4.24.55,5.4,2,3.57,4.43,6.71,19.93,9.18,26.08.52,1.3-.5,2.33,1.93,1.89.16-7.48-.26-16.07,1.06-23.43.52-2.88,3.14-6.74,6.22-6.74,2.58.1,4.69,2.22,4.76,4.77l-2.61,39.15c1.07,1.44,22.45-22.57,26.54-23.72,4.34-1.22,7.4,3.3,5.56,7.37-1.36,3.01-13.96,10.91-15.83,15.48,5.92,0,18.11-7.71,22.76-2.63,2,2.18,2.25,5.09.39,7.4l-18.01,9c5.68.88,27.39-.17,27.48,8.16.03,3.07-2.19,5.4-4.99,6.25-3.97,1.21-13.25,1.68-17.78,1.92-5.26.28-10.58-.2-15.84.02,3.22,5.98,23.71,19.99,24,25.43.12,2.16-2.8,5.13-4.86,5.33-3.73.35-18.84-15.84-22.56-19.17-3.53-3.16-7.4-6.13-11.15-9.02v45.13c0,.97-3.46,2.61-4.71,2.62-3.71.02-5.08-3.8-5.5-7-.5-3.77-.7-9.63-.92-13.68-.3-5.41.19-10.9,0-16.32l-1.71-.43c-2.92,5.06-12.95,26.84-17.77,28.22-1.38.4-4.19.07-5.18-.92-4.47-4.5,5.95-18.17,7.94-23.01.48-1.16.79-1.07-.84-.84-15.18,2.11-72.67,23.4-85.86,31.63-19.51,12.18-30.18,38.32-29.38,60.75,1.39,38.91,10.97,80.42,14.55,119.5,1.58,17.23,3.78,29.21-16.8,32.12-16.77,2.38-33.6,1.15-50.44,1.83-6.34.25-18.16,3.91-23.54.39-1.01-.66-4.94-5.57-5.38-6.63-2.31-5.7,4.32-21.94,5.93-28.84,10.11-43.32,14.11-97.85,2.4-141.13-11.7-43.29-35.55-41.3-76.28-41.31-28.73,0-57.59-.64-86.5-1.66-1.16-.04-1.97-.46-2.97-.87-1.28,1.3,8.02,7.35,5.55,12.87-.84,1.89-3.05,2.79-5.04,2.6-4.57-.43-16.3-12.12-20.67-15.45-.81-.62-4-3.24-4.69-2.59,1.87,6.07,10.11,18.42,9.25,24.3-.51,3.52-4.69,3.75-7.54,2.78l-6.84-12.46c-1.08,6.08,2,13.36.66,19.15-1.25,5.39-8.78,5.28-9.92,0l-2.76-30.34c-1.51.24-1.47,1.74-1.93,2.78-2.33,5.27-6.27,20.45-12.4,21.14-1.82.21-4.63-1.15-5.19-3.02-1.97-6.44,8.49-22.16,10.97-28.62-1.66-1.36-35,19.28-30.41-.02l14.13-7.72c-5.73-.08-12.48.23-18.04-1.24-6.31-1.66-6.51-9.77-.31-10.74,7.32-1.15,17.74.26,25.21.8.49-2.19-.59-1.5-1.6-2.23-5.83-4.12-19.64-11.78-23.62-16.73-1.82-2.27-2-5.48-.12-7.76,3.57-4.31,7.65,1.41,11.64,1.78-7.28-7.16-1.2-15.58,7.3-7.75,5.79,5.33,10.8,13.35,17.53,18.07.06-6.75-7.22-19.79-4.68-25.77,1.77-4.16,6.62-2.82,8.77.62,4.43,7.13,7.22,22.72,8.78,31.17,1.23-.1,1.34-1.27,1.73-2.12,2.97-6.43,7.06-27.31,14.5-28.48,3.22-.5,6.18,2.67,6.07,6.06-.19,6.29-5.45,15.96-7.76,21.97,1.82,1.52,15.65-13.15,20.94-5.1,1.67,2.54,1.28,5.5-.79,7.71l-19.29,10.29c32.28-5.74,63.95-14.69,96.8-17.2-7.39-6.1-15.98-10.43-23.54-16.35-10.37-8.13-21.14-18.63-30.02-28.34-2.21-.29-.77,2.61-2.07,4.77-4.06,6.74-8.82-2.56-11.18-5.64,2.5,10.85-8.97,14.8-10.29,3-.93-8.34.43-18.43-.86-27.08-.72-.96-18.68,11.93-20.52,12.51-4.63,1.47-8.06-1.96-6.52-6.55.86-2.55,3.8-2.8,4.77-5.09-3.67.96-7.36.02-8.59-3.93-1.03-7.43,13.47-9.18,18.52-11.48,1.01-.46,1.55.41,1.21-1.8-3.98-.97-22.17-4.2-23.42-7.08-1.78-4.1.51-7.72,4.94-7.59,3.4.1,20.94,6.06,21.89,5.2-1-6.21-14.04-16.78-10.18-22.68,5.51-8.44,16.06,11.41,17.91,15.81,1.45.17.93-2.97.89-3.9-.24-4.57-2.58-14.85,6.2-12.25,5.96,1.77,2.53,15.77,5.33,17.01,2.73-6.9,12.47-23.04,15.7-7.52l-8.42,19.55c.94.91,21.15-6.46,24.64-6.7,4.24-.28,6.64,3.67,4.89,7.54-1.48,3.27-9.85,4.02-9.84,4.74,4.64,1.88,10.84-.21,10.37,6.89-.28,4.14-4.31,4.59-7.78,4.73,5.63,7.09,13.96,11.78,21.49,16.68,20.13,13.09,41.93,24.4,63.3,35.34,1.25.64,6.76,3.76,7.73,2.98-15.06-31.34-38.4-57.69-56.38-87.41-6.59-10.89-13.55-22.83-18.17-34.64-1.63-.19-.56,1.67-.44,2.59.83,6.41,5.07,25.4,1.71,30.05-1.66,2.3-4.2,3.07-6.66,1.58-3.65-2.22-3.54-15.19-4.05-19.61-1.62.27-1.4,1.81-1.81,2.9-1.12,3.01-3.54,13.29-5.25,14.92-1.71,1.63-6.77,1.5-7.78-.83-2.47-5.72,7.48-33.53,5.42-35.9l-22.06,11.87c-15.03-1.34-1.8-11.4,3.21-16.16-14.76,1.44-13.23-11.89,0-13.33-6.95-4.54-25.42-4.1-20.62-16.19,1.41-1.59,3.47-1.45,5.39-1.25,7.12.76,15.79,5.21,22.94,6.69,1.27-1.23-9.1-9.54-9.89-11.98-.98-3.04-.21-7.27,3.52-7.81,5.15-.73,15.49,11.52,16.65,10.33l-10.98-28.16c-.96-5.8,5.95-8.68,9.17-3.97,3.22,4.72,6.47,17.42,9.14,23.49.47,1.07.82,3.45,2.1,3.49v-26.22c0-1.14-1.43-1.32.45-3.83,4.02-5.4,9.83-.5,9.83,4.69v17.62l.06.03ZM254.24,855.25l5.12-19.28c-2.44-5-5-10.92-8.53-15.1l3.41,34.38ZM245.03,861.93l-2.76-10.1c-2.3,14.75-10.52,30.2-9.42,45.11.51,6.89,9.01,27.07-3.01,26.31-2.55-.16-7.26-4.3-9.4-6.12-9.33-7.95-18.43-17.9-27.85-26.21-11.63-10.25-23.69-20.28-35.98-29.64,2.83,6.29,6.53,12.11,9.57,18.33,8.42,17.23,15.79,29.54,26.56,45.56,13.18,19.58,38.23,49.71,43.8,72.09.9,3.64,1.15,7.5-3.47,8.31-3.49.61-22.28-9.21-26.8-11.45-22.15-10.99-64.97-32.72-81.39-49.85-3.23-3.37-6.15-10.38-11.11-9.9,1.73,3.42,7.49,5.61,6.88,9.83-.7,4.9-6.12,3.81-9.45,3.49,12.97,12.63,25.84,26.87,40.33,37.75,11.28,8.47,24.2,14.62,35.95,22.38,1.87,1.43,2.04,3.72,1.52,5.92-1.17,3.4-13.05,1.94-16.57,2.3-33.3,3.38-66.36,11.4-98.95,18.47,2.66,2.61,4.12,5.13,8.12,5.61,13.09,1.55,33.08.47,47.14.83,27.44.7,57.94-1.03,84.79.88,40.41,2.88,51.23,34.79,56,70.17,5.38,39.95,3.34,78.9-5.44,118.08-.9,4.03-7.49,26.36-7.16,27.76.69,2.97,5.63,2.44,8.05,2.35,5.02-.19,11.18-1.61,16.2-1.78,15.69-.55,31.34.72,46.93-1.91,7.94-1.33,6.13-6.82,5.82-13.99-1.6-38.39-11.96-79.73-14.59-118.6-1.71-25.25,1.44-41.79,16.76-62.24,14.3-19.1,41.74-26.93,63.55-35.1,7.24-2.71,14.94-5.83,22.48-7.1.4-.38-3.81-5.93-.64-9.24,2.84-2.95,12.89-6.03,16.9-7.96.2-1.54-1.92-.83-2.87-.74-20.87,1.92-42.32,8.3-63.4,9.94-13.78-2.77-9.48-16.19-5.55-25.82,15.46-37.95,47.25-68.15,66.85-103.99,4.13-7.56,9.85-14.89,8.41-23.79-13.85,12.4-24.04,28.35-35.99,42.53-7.65,9.08-16.31,19.38-24.38,27.97-4.9,5.22-10.59,12.02-18.02,6.03-8.14-6.56-11.49-39.69-16.62-51.23-.57-1.29-.89-2.41-2.62-2.08-1.13,13.79-1.19,27.84-.9,41.72.33,15.55,4.35,39.94.27,54.36-3.6,12.74-25.82,40.95-35.34,51.36-5.91,6.46-11.15,11.62-18.37,2.91-10.71-12.93-25.27-51.76-31.76-68.71-10.92-28.48-17.85-42.54-12.17-74.07,1.58-8.75,4.21-17.28,5.74-26.05-.09-.56-4.53,1.48-6.66-.65h0ZM453.86,1007.42l-11.98,6c4.63-.91,10.36-.54,11.98-6Z"/>
  <path class="cls-1" d="M254.04,970.67c1.37,1.33,8.76,18.91,10.05,22.14,2,4.98,7.09,16.75,7.96,21.26,1.56,8.07-7.4,9.39-9.98,2.26-2.46-12.37-12.76-28.37-15.14-39.81-1.28-6.15,3.23-9.6,7.12-5.84h0Z"/>
  <path class="cls-1" d="M314.82,1181.18c2.92-.89,4.84.63,5.86,3.26.04,4.42.97,9.13,1.23,13.38.35,5.61,1.47,20.1.78,24.84-1.15,7.89-9.37,7.4-10.21.09-1.08-9.37.03-22.84.06-32.72,0-2.65-2.11-7.52,2.27-8.85h0Z"/>
  <path class="cls-1" d="M271.62,1037.28c-2.84-2.98.13-8.2,4.28-7.39,8.82,1.73,1.67,13.64-4.28,7.39Z"/>
  <path class="cls-1" d="M315.28,1246.17c-3.65-3.66.74-11.53,5.76-7.06,5.39,4.79-1.56,11.27-5.76,7.06Z"/>
  <path class="cls-1" d="M584.6,983.89h23.55c10.11,0,18.22-1.6,24.34-4.79,6.12-3.46,10.78-8.38,13.97-14.77,3.19-6.39,5.32-14.24,6.38-23.55,1.07-9.58,1.6-20.49,1.6-32.73v-101.37h-65.85v-40.31h108.96v152.86c0,16.23-1.47,30.86-4.39,43.9-2.93,12.77-7.85,23.68-14.77,32.73-6.92,8.78-16.1,15.57-27.54,20.35-11.44,4.52-25.68,6.79-42.7,6.79h-23.55v-39.11Z"/>
  <path class="cls-1" d="M730.06,892.9c0-19.42,3.59-37.12,10.78-53.08,7.18-15.96,16.89-29.67,29.13-41.11,12.24-11.44,26.47-20.35,42.7-26.74,16.5-6.39,34.06-9.58,52.68-9.58s36.05,3.19,52.28,9.58c16.5,6.39,30.73,15.3,42.7,26.74,12.24,11.44,21.82,25.14,28.73,41.11,7.18,15.96,10.78,33.66,10.78,53.08s-3.59,36.72-10.78,52.68c-6.92,15.96-16.5,29.67-28.73,41.11-11.97,11.44-26.21,20.35-42.7,26.74-16.23,6.39-33.66,9.58-52.28,9.58s-36.19-3.19-52.68-9.58c-16.23-6.39-30.46-15.3-42.7-26.74-12.24-11.44-21.95-25.14-29.13-41.11-7.18-15.96-10.78-33.53-10.78-52.68ZM865.36,983.89c13.04,0,25.01-2.26,35.92-6.79,11.18-4.79,20.75-11.17,28.73-19.16,8.25-8.25,14.63-17.83,19.16-28.74,4.79-11.17,7.18-23.28,7.18-36.32s-2.4-25.14-7.18-36.32c-4.52-11.18-10.91-20.75-19.16-28.74-7.98-8.25-17.56-14.63-28.73-19.16-10.91-4.79-22.88-7.18-35.92-7.18s-25.15,2.39-36.32,7.18c-11.17,4.52-20.89,10.91-29.13,19.16-8.25,7.98-14.77,17.56-19.56,28.74-4.52,11.17-6.79,23.28-6.79,36.32s2.26,25.14,6.79,36.32c4.79,10.91,11.31,20.49,19.56,28.74,8.25,7.98,17.96,14.37,29.13,19.16,11.18,4.52,23.28,6.79,36.32,6.79Z"/>
  <path class="cls-1" d="M1063.81,940.39c.8,7.18,2.93,13.57,6.39,19.16,3.73,5.59,8.38,10.38,13.97,14.37,5.59,3.99,11.84,7.05,18.76,9.18,7.18,1.86,14.63,2.79,22.35,2.79,7.18,0,14.1-.4,20.75-1.2,6.65-.8,12.64-2.26,17.96-4.39,5.32-2.39,9.58-5.59,12.77-9.58s4.79-9.18,4.79-15.57c0-8.51-2.79-15.43-8.38-20.75-5.32-5.32-11.97-9.71-19.96-13.17-7.72-3.46-15.96-6.12-24.74-7.98-8.78-2.13-16.5-3.99-23.15-5.59-9.31-2.13-18.63-4.79-27.94-7.98-9.31-3.46-17.7-7.98-25.15-13.57-7.18-5.59-13.17-12.51-17.96-20.75-4.53-8.51-6.79-18.76-6.79-30.73,0-13.57,2.66-24.88,7.98-33.92,5.59-9.31,12.77-16.63,21.55-21.95,9.05-5.59,19.29-9.58,30.73-11.97,11.44-2.39,23.28-3.59,35.52-3.59,13.31,0,26.08,1.6,38.32,4.79,12.24,3.19,22.88,8.11,31.93,14.77,9.31,6.65,16.5,15.17,21.55,25.54,5.32,10.11,7.72,22.35,7.18,36.72h-42.3c0-7.72-1.73-14.37-5.19-19.96-3.19-5.85-7.45-10.51-12.77-13.97-5.05-3.73-10.91-6.39-17.56-7.98-6.65-1.86-13.57-2.79-20.76-2.79-6.12,0-12.24.4-18.36,1.2-6.12.8-11.57,2.26-16.37,4.39-4.79,2.13-8.78,5.19-11.97,9.18-2.92,3.72-4.39,8.78-4.39,15.17s1.6,12.24,4.79,16.76c3.46,4.52,7.85,8.38,13.17,11.57,5.32,2.93,11.18,5.32,17.56,7.18,6.39,1.6,12.51,3.06,18.36,4.39,10.38,2.39,21.42,5.19,33.13,8.38,11.97,3.19,22.88,7.72,32.73,13.57,9.84,5.59,17.96,13.17,24.34,22.75,6.65,9.31,9.98,21.29,9.98,35.92,0,13.57-2.93,25.01-8.78,34.32-5.59,9.05-13.17,16.5-22.75,22.35-9.58,5.59-20.49,9.58-32.73,11.97-12.24,2.66-24.74,3.99-37.51,3.99s-25.41-1.6-37.92-4.79c-12.5-3.46-23.68-8.51-33.53-15.17-9.84-6.92-17.83-15.57-23.95-25.94-6.12-10.38-9.31-22.75-9.58-37.12h43.9Z"/>
  <path class="cls-1" d="M1259.26,1019.02v-253.03h43.1v106.16h124.12v-106.16h43.1v253.03h-43.1v-109.36h-124.12v109.36h-43.1Z"/>
  <path class="cls-1" d="M1559.88,766.38v140.09c0,11.18,1.06,21.55,3.19,31.13,2.4,9.31,6.12,17.43,11.18,24.35,5.32,6.92,12.24,12.37,20.75,16.36,8.51,3.99,18.89,5.99,31.13,5.99s22.88-2,31.13-5.99c8.51-3.99,15.3-9.45,20.35-16.36,5.32-7.18,9.05-15.43,11.18-24.74,2.4-9.58,3.59-19.82,3.59-30.73v-140.09h42.31v141.28c0,17.03-2.13,32.59-6.39,46.7-4.26,14.1-10.91,26.21-19.96,36.32s-20.35,18.09-33.93,23.95c-13.57,5.59-29.8,8.38-48.69,8.38s-34.86-2.8-48.69-8.38c-13.57-5.85-24.88-13.84-33.93-23.95-8.78-10.11-15.43-22.22-19.96-36.32-4.26-14.37-6.39-29.93-6.39-46.7v-141.28h43.1Z"/>
  <path class="cls-1" d="M1750.16,1019.02l92.2-252.64h65.45l92.2,252.64h-45.5l-23.15-63.86h-112.95l-23.15,63.86h-45.1ZM1918.18,918.04l-43.1-119.33-43.5,119.33h86.61Z"/>
  <path class="cls-1" d="M635.33,1269.91v-148.4h-56.06v-25.56h142.08v25.56h-56.34v148.4h-29.68Z"/>
  <path class="cls-1" d="M751.63,1162.46c2.01-7.51,6.05-13.56,12.09-18.14,6.23-4.77,13.19-7.15,20.89-7.15h13.47v28.58h-10.44c-5.5,0-10.53,1.1-15.12,3.3-4.4,2.01-8.25,4.85-11.54,8.52-3.11,3.67-5.5,7.88-7.15,12.64-1.65,4.76-2.47,9.8-2.47,15.11v64.58h-28.03v-100.31c0-5.13-2.38-7.7-7.15-7.7h-9.07v-24.46h19.51c16.67,0,25.01,7.79,25.01,23.36v1.65Z"/>
  <path class="cls-1" d="M880.55,1272.93c-11.18,0-21.07-1.65-29.68-4.95-8.61-3.48-15.85-8.24-21.71-14.29-5.86-6.04-10.35-13.28-13.47-21.71-2.93-8.43-4.4-17.77-4.4-28.03s1.47-19.6,4.4-28.03c2.93-8.43,7.15-15.66,12.64-21.71,5.68-6.23,12.73-10.99,21.16-14.29,8.43-3.48,18.14-5.22,29.13-5.22s20.06,1.65,28.31,4.95c8.43,3.3,15.48,7.97,21.16,14.02s9.98,13.28,12.92,21.71c2.93,8.24,4.4,17.41,4.4,27.48v8.24h-105.26c.73,5.31,2.01,10.26,3.85,14.84,1.83,4.4,4.31,8.24,7.42,11.54,3.3,3.3,7.33,5.86,12.09,7.69,4.77,1.83,10.44,2.75,17.04,2.75,11.36,0,19.7-2.01,25.01-6.05,5.31-4.21,8.61-9.16,9.89-14.84h28.58c-2.01,13.92-8.43,25.1-19.24,33.53-10.63,8.24-25.38,12.37-44.25,12.37ZM914.9,1188.57c-1.1-4.4-2.57-8.34-4.4-11.82-1.65-3.66-3.94-6.78-6.87-9.34-2.75-2.56-6.14-4.58-10.17-6.04-4.03-1.47-8.97-2.2-14.84-2.2s-10.9.73-15.12,2.2c-4.21,1.47-7.78,3.48-10.72,6.04-2.75,2.57-5.04,5.68-6.87,9.34-1.65,3.48-3.02,7.42-4.12,11.82h73.1Z"/>
  <path class="cls-1" d="M1034.6,1272.93c-11.18,0-21.07-1.65-29.68-4.95-8.61-3.48-15.85-8.24-21.71-14.29-5.86-6.04-10.35-13.28-13.47-21.71-2.93-8.43-4.4-17.77-4.4-28.03s1.47-19.6,4.4-28.03c2.93-8.43,7.15-15.66,12.64-21.71,5.68-6.23,12.73-10.99,21.16-14.29,8.43-3.48,18.14-5.22,29.13-5.22s20.06,1.65,28.31,4.95c8.43,3.3,15.48,7.97,21.16,14.02s9.98,13.28,12.92,21.71c2.93,8.24,4.4,17.41,4.4,27.48v8.24h-105.26c.73,5.31,2.01,10.26,3.85,14.84,1.83,4.4,4.31,8.24,7.42,11.54,3.3,3.3,7.33,5.86,12.09,7.69,4.77,1.83,10.44,2.75,17.04,2.75,11.36,0,19.7-2.01,25.01-6.05,5.31-4.21,8.61-9.16,9.89-14.84h28.58c-2.02,13.92-8.43,25.1-19.24,33.53-10.63,8.24-25.38,12.37-44.25,12.37ZM1068.95,1188.57c-1.1-4.4-2.57-8.34-4.4-11.82-1.65-3.66-3.94-6.78-6.87-9.34-2.75-2.56-6.14-4.58-10.17-6.04-4.03-1.47-8.98-2.2-14.84-2.2s-10.9.73-15.12,2.2c-4.21,1.47-7.79,3.48-10.72,6.04-2.75,2.57-5.04,5.68-6.87,9.34-1.65,3.48-3.02,7.42-4.12,11.82h73.1Z"/>
  <path class="cls-1" d="M1177.93,1269.91v-174.23h29.68v73.1h85.47v-73.1h29.68v174.23h-29.68v-75.3h-85.47v75.3h-29.68Z"/>
  <path class="cls-1" d="M1420.38,1272.93c-11.18,0-21.07-1.65-29.68-4.95-8.61-3.48-15.85-8.24-21.71-14.29-5.86-6.04-10.35-13.28-13.47-21.71-2.93-8.43-4.4-17.77-4.4-28.03s1.47-19.6,4.4-28.03c2.93-8.43,7.15-15.66,12.64-21.71,5.68-6.23,12.73-10.99,21.16-14.29,8.43-3.48,18.14-5.22,29.13-5.22s20.06,1.65,28.31,4.95c8.43,3.3,15.48,7.97,21.16,14.02,5.68,6.05,9.98,13.28,12.92,21.71,2.93,8.24,4.4,17.41,4.4,27.48v8.24h-105.26c.73,5.31,2.01,10.26,3.85,14.84,1.83,4.4,4.31,8.24,7.42,11.54,3.3,3.3,7.33,5.86,12.09,7.69,4.76,1.83,10.44,2.75,17.04,2.75,11.36,0,19.7-2.01,25.01-6.05,5.31-4.21,8.61-9.16,9.89-14.84h28.58c-2.02,13.92-8.43,25.1-19.24,33.53-10.63,8.24-25.38,12.37-44.25,12.37ZM1454.74,1188.57c-1.1-4.4-2.57-8.34-4.4-11.82-1.65-3.66-3.94-6.78-6.87-9.34-2.75-2.56-6.14-4.58-10.17-6.04-4.03-1.47-8.98-2.2-14.84-2.2s-10.9.73-15.12,2.2c-4.21,1.47-7.79,3.48-10.72,6.04-2.75,2.57-5.04,5.68-6.87,9.34-1.65,3.48-3.02,7.42-4.12,11.82h73.1Z"/>
  <path class="cls-1" d="M1641.04,1269.91c-15.02,0-24-5.96-26.93-17.86-5.13,6.96-12,12.18-20.61,15.67-8.43,3.3-17.59,4.95-27.48,4.95s-19.15-1.65-27.21-4.95c-8.06-3.3-14.93-7.88-20.61-13.74-5.5-5.86-9.71-13.01-12.64-21.44-2.93-8.61-4.4-18.14-4.4-28.58,0-11.54,1.65-21.62,4.95-30.23,3.3-8.79,7.78-16.03,13.46-21.71,5.86-5.86,12.64-10.17,20.34-12.92,7.88-2.93,16.31-4.4,25.28-4.4s17.68,1.65,26.11,4.95c8.61,3.12,15.85,7.97,21.71,14.57v-16.76h27.76v98.94c0,5.49,2.84,8.24,8.52,8.24h7.15v25.28h-15.39ZM1572.6,1246.83c7.15,0,13.28-1.28,18.41-3.85,5.13-2.56,9.25-5.86,12.37-9.89,3.3-4.03,5.68-8.52,7.14-13.46,1.47-5.13,2.2-10.26,2.2-15.39,0-6.41-.82-12.27-2.48-17.59-1.47-5.31-3.85-9.89-7.14-13.74-3.3-3.85-7.51-6.87-12.64-9.07-4.95-2.2-10.9-3.3-17.86-3.3-5.86,0-11.45.82-16.76,2.47-5.13,1.47-9.62,3.94-13.47,7.42-3.85,3.3-6.96,7.69-9.34,13.19-2.2,5.5-3.3,12.18-3.3,20.06s1.1,14.57,3.3,20.06c2.38,5.31,5.5,9.71,9.34,13.19,3.85,3.48,8.34,6.04,13.47,7.69,5.31,1.47,10.9,2.2,16.76,2.2Z"/>
  <path class="cls-1" d="M1706.73,1076.44v193.47h-28.03v-193.47h28.03Z"/>
  <path class="cls-1" d="M1757.11,1087.98h28.3v19.24c0,7.51-.55,13.93-1.65,19.24-1.1,5.31-4.3,8.98-9.62,10.99h57.16v24.46h-46.44v68.7c0,5.5,1.19,9.25,3.57,11.27,2.38,1.83,5.68,2.75,9.89,2.75h34.08v25.56h-39.3c-5.31,0-10.17-.55-14.56-1.65-4.4-1.28-8.25-3.39-11.54-6.32-3.12-3.11-5.59-7.15-7.42-12.09-1.65-4.95-2.47-11.18-2.47-18.69v-69.53h-26.11v-24.46h4.95c8.06,0,13.56-2.2,16.49-6.59,3.11-4.4,4.67-11.18,4.67-20.34v-22.53Z"/>
  <path class="cls-1" d="M1856.11,1269.91v-194.02h28.03v79.7c5.86-7.7,12.82-13.1,20.89-16.22,8.24-3.3,16.86-4.95,25.83-4.95,9.71,0,18.05,1.74,25.01,5.22,6.96,3.48,12.64,8.15,17.04,14.02,4.4,5.86,7.6,12.64,9.62,20.34,2.01,7.7,3.02,15.76,3.02,24.19v71.73h-28.03v-71.45c0-11.18-2.66-20.34-7.97-27.48-5.13-7.33-13.47-10.99-25.01-10.99-5.5,0-10.72.82-15.67,2.47-4.76,1.65-9.07,4.12-12.92,7.42-3.66,3.3-6.6,7.33-8.79,12.09-2.01,4.76-3.02,10.26-3.02,16.49v71.45h-28.03Z"/>
</svg>