<?xml version="1.0" encoding="UTF-8"?>
<svg id="Layer_1" data-name="Layer 1" xmlns="http://www.w3.org/2000/svg" viewBox="0 0 2000 2000">
  <defs>
    <style>
      .cls-1 {
        fill: #1e3d34;
      }
    </style>
  </defs>
  <path class="cls-1" d="M1526.05,1295.26v-570.19h97.13v239.23h279.7v-239.23h97.13v570.19h-97.13v-246.42h-279.7v246.42h-97.13Z"/>
  <path class="cls-1" d="M1174.47,1295.26v-485.65h-183.47v-83.64h464.96v83.64h-184.36v485.65h-97.13Z"/>
  <path class="cls-1" d="M690.82,1216.12h53.06c22.78,0,41.07-3.6,54.86-10.79,13.79-7.79,24.28-18.89,31.48-33.28,7.2-14.39,11.99-32.08,14.39-53.06,2.4-21.58,3.6-46.16,3.6-73.75v-228.43h-148.39v-90.83h245.52v344.45c0,36.57-3.3,69.55-9.89,98.93-6.6,28.78-17.69,53.36-33.28,73.75-15.59,19.79-36.27,35.07-62.05,45.87-25.78,10.19-57.86,15.29-96.23,15.29h-53.06v-88.14Z"/>
  <path class="cls-1" d="M172.22,783.95l10.94-19.53c3.96-5.04,12-4.3,12.01,3.01,0,3.91-7.79,20.69-7.01,21.51,5.73-1.81,12.8-9.97,19.19-8.84,2.51.44,5.65,3.73,5.65,6.34,0,5.98-23.51,21.08-27.84,26.49,10.29.72,24.26-3,34.18-.78,1.8.4,3.67,1.8,4.58,3.4,7.09,12.39-23.52,12.94-30.3,13.38-1.49.1-2.88-.76-2.47,1.49l29.6,16.79c2.07,2.81,1.19,5.99.52,9.11l39.63,35.61c-.47-3.65-1.76-7.9-1.98-11.52-.8-13.3,7.44-39.76,11.45-53.49,3.79-12.97,11.45-23.67,7.46-38.01-1.83.56-2.4,2.79-3.16,4.32-5.51,11.11-9.76,30.22-15.56,39.39-4.63,7.32-11.95,4.22-10.95-3.93l16.71-48.79c-5.82,4.68-11.7,9.37-18.01,13.42-4.32,2.76-15.82,11.93-19.35,4.59-3.7-7.68,12.7-16.41,16.44-22-5.34.63-11.95,2.68-17.21,1.75-5.49-.97-9.85-6.27-5.74-11.3,4.69-5.74,34.78-10.36,42.88-13.48.87-1.13-19.33-15.73-20.96-17.45-2.33-2.47-4.41-5.8-2.03-9.11,6.11-8.5,19.36,8.74,24.98,11.57,1.66-2.01-21.71-40.92-20.47-48.02.84-4.78,5.65-6.53,9.45-3.42l13,23.44c1.14-6.48-3.09-15.21-1.77-21.28,1.4-6.46,9.08-6.42,10.54,0,2.16,9.43,1.79,20.27,5.06,29.92.45,1.31.28,3.06,2.11,3.37l6.48-34.01c7.3-7.23,13.22-.02,11.38,8.42l-10.87,43.59c8.8-5.57,32.69-30.69,42.36-30.1,4.24.27,6.51,4.29,5.27,8.38-2.24,7.38-22.79,20.78-28.7,26.71,10.89.39,21.15-2.39,31.96.44,6.7,1.75,9.72,9.26,2.64,12.78-4.73,2.36-20.15,3.36-26.14,3.77-3.87.27-8.28-.46-11.97,0-1.38.17-2.9.54-1.47,1.99l42.38,23c3.27,1.97,7.1,4.89,6.29,9.28-2.37,12.82-27.52-8.14-33.73-9.25,2.51,3.48,12.79,10.14,6.57,15.09-6.71,5.33-14.63-8.16-19.52-11.09.56,8.18,14.58,25.57,13.93,32.4-.24,2.46-2.2,5.06-4.71,5.44-3.35.51-4.35-2.8-7.24-2.84-5.03,27.31-17.64,55.96-12.52,84.06,2.29,12.6,8.25,26.14,12.75,38.2,3.58,9.58,32.62,80.68,37.14,81.75,1.3.32,1.72-.81,2.47-1.52,7.94-7.51,32.88-40.72,37.37-50.51,7.64-16.6,2.86-28.58,2.47-45.45-.37-16.16.37-32.38.03-48.54l-11.7,18.01c-4.09,3.46-10.91.76-11.21-4.6-.3-5.36,16.3-34.75,14.93-36.42-6.27,2.7-26.81,23.97-32.17,12.74-3.41-7.17,12.15-16.13,16.23-20.72-5.83,0-22.62,3.37-26.38-1.05-1.91-2.24-2.2-6.06-.59-8.54,3.64-5.62,28.98-5.07,35.94-7.44l-24.92-15.47c-4.48-6.03-.51-12.12,7.02-10.05,4.57,1.26,31.52,17.77,32.86,16.52-2.34-9.08-13.49-29.87-11.96-38.45.49-2.77,4.53-5.8,7.25-5.39,8.02,1.23,11.91,26.97,13.7,33.83,1.43.15,1.62-2.36,1.99-3.48,2.47-7.3,8.6-33.25,12.5-37.48,4.12-4.46,10.39-1.68,10.38,4.35l-9.92,38.6c7.96-4.3,20.6-19.76,30.2-16.8,5.5,1.69,3.28,7.1.71,10.32-6.59,8.29-16.25,13.42-23.95,20.46,7.41,1.94,34.97,2.35,39.6,7.27,1.63,1.73,1.7,6.83.03,8.51-3.41,3.42-39.59,0-46.6-.76l7.45,10.01c3.42,5.11,27.13,21.68,19.04,28.09-6.59,5.21-14.97-5.54-19.52-9.09,1.43,4.51,7.76,38,10.47,38.02l59.29-68.52c-3.02-1.06-4.97,1.71-8.44,1.58-5.29-.2-8.09-4.83-5.4-9.46,1.94-3.32,6.83-3.63,8.85-6.61-8.11.85-19.14-.67-13.5-11.08l24.47-6.93c-4.23-.92-8.83-2.1-12.91-3.55-6.79-2.4-19.33-5.09-15.06-14.8,3.9-6.13,31.53,6.29,37.94,7.32-3.61-6.19-25.54-22.99-25.9-28.56-.37-5.57,5.72-7.64,9.86-4.85l27.99,25.42-13.76-40.75c-.06-5.29,4.63-8.14,9.36-5.3,4.73,2.84,10.61,26.29,13.4,32.05l5.38-14.07c17.04-5.4,5.78,22.18,7.56,31.07,7.11-3.4,20.54-20.85,28.45-16.06,9.28,5.62-8.61,14.07-11.52,18.05,6.12-.95,24.2-5.35,23.62,5.36-.42,7.75-11.65,7.32-15.64,11.64,6.04.39,26.37,1.51,28.48,7.96,2.21,6.71-2.44,8.63-8.01,9.09-13.99,1.17-30.22-2.06-44.39-2.03l27.34,29.05c5,5.59.62,13.74-6.77,9.81-9.03-7.52-17.6-18.08-26.53-25.38-.9-.74-5.26-4.32-5.99-3.48-.34,7.78.44,15.71-.02,23.48-.32,5.47-1.02,16.54-2.64,21.34-2.96,8.73-12.3,4.08-12.3-.34v-14.5l-15.13,24.32c-17.51,24.78-37.45,48.14-51.81,75.02-5.28,9.86-11.06,20.5-12.78,31.67l85.71-13.01c1.16-1.57-31.3-15.47-33.37-20-.91-1.99-.74-5.51.41-7.32,3.53-5.57,18.89,5.15,23,7.33.44-1.88-1.05-2.38-1.98-3.51-3.56-4.31-16.12-16.8-16.78-21.23-.61-4.12,3.26-6.96,7.26-6.27,5.65.99,25.8,28.61,32.43,33.01-1.56-11.6-6.26-22.56-8.47-33.99-1.13-5.88-3.16-10.02,3.22-13.87,2.14-.58,4.94.64,6.28,2.32,4.15,5.16,7.81,23.19,10.68,30.34.6,1.51-.58,2.71,2.24,2.19.18-8.71-.3-18.7,1.23-27.26.6-3.35,3.66-7.84,7.24-7.84,3,.12,5.45,2.58,5.53,5.55l-3.04,45.55c1.24,1.67,26.11-26.25,30.88-27.59,5.05-1.42,8.61,3.84,6.46,8.58-1.58,3.51-16.24,12.69-18.42,18.01,6.88,0,21.06-8.97,26.48-3.06,2.33,2.53,2.62,5.92.46,8.61l-20.95,10.47c6.61,1.02,31.87-.19,31.97,9.49.03,3.57-2.54,6.29-5.81,7.28-4.62,1.4-15.41,1.95-20.69,2.24-6.11.33-12.31-.23-18.43.02,3.75,6.96,27.58,23.25,27.92,29.58.14,2.52-3.25,5.97-5.65,6.2-4.33.4-21.92-18.43-26.25-22.31-4.1-3.67-8.61-7.13-12.97-10.49v52.51c0,1.13-4.02,3.04-5.48,3.05-4.32.03-5.91-4.42-6.4-8.14-.58-4.39-.81-11.2-1.07-15.92-.35-6.3.23-12.68,0-18.99l-1.99-.5c-3.39,5.89-15.07,31.23-20.67,32.83-1.6.46-4.87.08-6.03-1.07-5.2-5.24,6.92-21.14,9.23-26.77.56-1.35.91-1.25-.98-.98-17.66,2.45-84.54,27.23-99.89,36.8-22.69,14.17-35.11,44.59-34.19,70.68,1.62,45.27,12.76,93.56,16.92,139.03,1.84,20.05,4.4,33.99-19.55,37.37-19.51,2.76-39.09,1.34-58.68,2.13-7.38.29-21.13,4.55-27.38.46-1.17-.77-5.75-6.49-6.25-7.72-2.69-6.63,5.03-25.53,6.9-33.56,11.77-50.4,16.41-113.84,2.8-164.2-13.61-50.36-41.36-48.05-88.75-48.06-33.43,0-67-.74-100.64-1.93-1.34-.04-2.29-.53-3.46-1.02-1.49,1.51,9.33,8.55,6.45,14.97-.98,2.2-3.55,3.25-5.86,3.03-5.31-.51-18.96-14.11-24.05-17.98-.94-.72-4.65-3.77-5.46-3.01,2.18,7.07,11.76,21.44,10.76,28.27-.59,4.09-5.46,4.37-8.78,3.23l-7.95-14.5c-1.26,7.08,2.33,15.55.77,22.28-1.45,6.28-10.21,6.15-11.54,0l-3.21-35.29c-1.76.27-1.71,2.02-2.25,3.23-2.72,6.13-7.3,23.79-14.43,24.59-2.12.24-5.39-1.34-6.04-3.51-2.29-7.49,9.87-25.79,12.76-33.3-1.93-1.58-40.72,22.43-35.38-.02l16.44-8.98c-6.67-.09-14.52.26-20.99-1.44-7.34-1.93-7.58-11.37-.37-12.5,8.51-1.34,20.64.3,29.33.93.57-2.55-.69-1.74-1.87-2.59-6.78-4.79-22.85-13.7-27.47-19.46-2.12-2.64-2.33-6.38-.14-9.03,4.15-5.01,8.91,1.64,13.54,2.07-8.47-8.33-1.4-18.12,8.49-9.02,6.74,6.2,12.56,15.54,20.4,21.02.07-7.85-8.4-23.02-5.44-29.98,2.06-4.84,7.71-3.29,10.2.72,5.16,8.3,8.4,26.44,10.21,36.27,1.44-.12,1.55-1.48,2.01-2.47,3.46-7.48,8.21-31.78,16.87-33.14,3.75-.59,7.19,3.11,7.07,7.05-.22,7.32-6.35,18.57-9.02,25.56,2.11,1.77,18.2-15.3,24.36-5.93,1.94,2.95,1.49,6.4-.91,8.97l-22.45,11.97c37.55-6.67,74.4-17.1,112.62-20.01-8.59-7.09-18.6-12.13-27.38-19.02-12.06-9.46-24.59-21.67-34.93-32.97-2.57-.34-.9,3.04-2.41,5.55-4.73,7.84-10.26-2.97-13.01-6.56,2.91,12.63-10.44,17.22-11.97,3.5-1.08-9.71.5-21.45-1.01-31.5-.83-1.12-21.73,13.87-23.87,14.55-5.38,1.72-9.38-2.28-7.59-7.62,1-2.96,4.42-3.26,5.55-5.93-4.27,1.12-8.57.02-9.99-4.57-1.2-8.64,15.67-10.68,21.55-13.35,1.18-.53,1.8.48,1.41-2.09-4.63-1.13-25.79-4.89-27.25-8.23-2.08-4.77.59-8.98,5.75-8.83,3.95.12,24.36,7.05,25.47,6.05-1.16-7.22-16.33-19.52-11.85-26.39,6.41-9.82,18.68,13.27,20.84,18.39,1.69.19,1.09-3.46,1.03-4.53-.27-5.32-3-17.28,7.21-14.25,6.93,2.06,2.94,18.34,6.2,19.79,3.18-8.03,14.51-26.8,18.27-8.74l-9.79,22.75c1.1,1.06,24.6-7.52,28.67-7.79,4.93-.33,7.73,4.27,5.69,8.77-1.72,3.8-11.46,4.68-11.45,5.51,5.39,2.18,12.61-.25,12.06,8.01-.32,4.82-5.02,5.34-9.05,5.51,6.55,8.25,16.24,13.71,25,19.41,23.42,15.22,48.79,28.38,73.65,41.11,1.45.74,7.86,4.38,8.99,3.47-17.53-36.47-44.67-67.12-65.59-101.69-7.67-12.67-15.76-26.56-21.14-40.3-1.9-.22-.65,1.95-.51,3.01.96,7.46,5.9,29.56,1.99,34.96-1.93,2.67-4.88,3.57-7.74,1.84-4.25-2.59-4.11-17.67-4.71-22.81-1.88.31-1.63,2.11-2.1,3.38-1.31,3.51-4.12,15.46-6.11,17.36-1.98,1.9-7.88,1.74-9.05-.96-2.87-6.65,8.7-39.01,6.31-41.77l-25.66,13.81c-17.48-1.56-2.09-13.26,3.74-18.8-17.17,1.67-15.4-13.84,0-15.51-8.08-5.28-29.58-4.77-23.99-18.84,1.64-1.84,4.03-1.69,6.27-1.46,8.28.88,18.37,6.06,26.69,7.78,1.47-1.43-10.59-11.09-11.51-13.94-1.14-3.54-.25-8.46,4.1-9.08,5.99-.85,18.02,13.4,19.37,12.02l-12.77-32.76c-1.12-6.74,6.92-10.1,10.67-4.62,3.75,5.49,7.52,20.26,10.63,27.33.55,1.25.95,4.01,2.44,4.06v-30.5c0-1.33-1.66-1.53.52-4.46,4.68-6.28,11.44-.59,11.44,5.46v20.5l.07.04ZM295.79,832.95l5.96-22.43c-2.83-5.82-5.81-12.71-9.93-17.57l3.97,40ZM285.08,840.71l-3.21-11.75c-2.68,17.16-12.24,35.14-10.96,52.48.59,8.02,10.49,31.49-3.5,30.61-2.96-.18-8.45-5-10.94-7.12-10.85-9.25-21.44-20.82-32.4-30.49-13.53-11.92-27.56-23.59-41.87-34.48,3.29,7.32,7.6,14.09,11.14,21.33,9.79,20.04,18.37,34.37,30.9,53,15.33,22.78,44.48,57.83,50.95,83.87,1.05,4.24,1.33,8.73-4.04,9.66-4.06.71-25.92-10.72-31.18-13.32-25.77-12.79-75.58-38.07-94.69-57.99-3.76-3.92-7.15-12.08-12.93-11.52,2.01,3.98,8.71,6.52,8.01,11.43-.81,5.7-7.12,4.43-10.99,4.06,15.09,14.69,30.06,31.26,46.92,43.92,13.13,9.86,28.16,17.01,41.83,26.03,2.18,1.66,2.38,4.33,1.77,6.89-1.36,3.96-15.18,2.26-19.27,2.68-38.74,3.94-77.2,13.27-115.12,21.49,3.09,3.03,4.79,5.97,9.44,6.52,15.23,1.81,38.49.55,54.85.96,31.93.82,67.41-1.2,98.65,1.02,47.01,3.35,59.6,40.48,65.15,81.64,6.26,46.48,3.89,91.79-6.33,137.38-1.05,4.69-8.71,30.67-8.33,32.29.8,3.46,6.55,2.84,9.36,2.73,5.84-.22,13.01-1.87,18.85-2.07,18.26-.64,36.46.84,54.6-2.22,9.23-1.55,7.13-7.94,6.77-16.28-1.87-44.67-13.92-92.76-16.98-137.98-1.99-29.38,1.68-48.62,19.5-72.41,16.64-22.22,48.57-31.33,73.93-40.84,8.42-3.16,17.38-6.78,26.16-8.26.46-.44-4.44-6.9-.74-10.75,3.3-3.43,15-7.01,19.67-9.26.23-1.79-2.23-.96-3.34-.86-24.29,2.23-49.24,9.65-73.77,11.56-16.04-3.22-11.03-18.84-6.45-30.04,17.98-44.16,54.97-79.28,77.77-120.98,4.81-8.79,11.46-17.32,9.78-27.68-16.12,14.43-27.97,32.98-41.88,49.48-8.91,10.56-18.97,22.55-28.37,32.54-5.71,6.07-12.32,13.98-20.97,7.01-9.47-7.63-13.37-46.18-19.34-59.6-.67-1.51-1.03-2.8-3.05-2.42-1.32,16.04-1.38,32.39-1.04,48.54.38,18.1,5.06,46.47.32,63.24-4.19,14.82-30.04,47.64-41.12,59.75-6.88,7.51-12.97,13.51-21.37,3.39-12.46-15.04-29.4-60.22-36.96-79.94-12.7-33.14-20.76-49.5-14.15-86.17,1.84-10.19,4.9-20.11,6.67-30.31-.1-.65-5.28,1.72-7.74-.75h0ZM528.03,1009.97l-13.94,6.98c5.39-1.06,12.05-.63,13.94-6.98Z"/>
  <path class="cls-1" d="M295.56,967.22c1.59,1.54,10.19,22,11.69,25.76,2.32,5.8,8.25,19.49,9.26,24.73,1.82,9.39-8.61,10.92-11.61,2.63-2.86-14.39-14.85-33.01-17.62-46.32-1.49-7.16,3.76-11.17,8.28-6.8h0Z"/>
  <path class="cls-1" d="M366.28,1212.14c3.4-1.03,5.63.74,6.82,3.79.04,5.14,1.13,10.63,1.44,15.56.4,6.52,1.71,23.38.9,28.9-1.34,9.18-10.9,8.61-11.88.11-1.26-10.9.04-26.57.07-38.06,0-3.08-2.45-8.74,2.64-10.3h0Z"/>
  <path class="cls-1" d="M316.01,1044.72c-3.3-3.47.16-9.54,4.97-8.6,10.26,2.01,1.95,15.86-4.97,8.6Z"/>
  <path class="cls-1" d="M366.81,1287.75c-4.24-4.26.86-13.41,6.7-8.21,6.27,5.58-1.82,13.11-6.7,8.21Z"/>
</svg>