<?xml version="1.0" encoding="UTF-8"?>
<svg id="Layer_1" data-name="Layer 1" xmlns="http://www.w3.org/2000/svg" viewBox="0 0 1000 1000">
  <defs>
    <style>
      .cls-1 {
        fill: #fffaf3;
      }
    </style>
  </defs>
  <path class="cls-1" d="M230.13,2.54c82.94-22.65,144.59,112.15,193.43,164.82,151.14,162.63,303.1,323.36,448.24,491.45,48.29,82.96-13.92,166.45-100.12,115.43-144.86-180.64-316.46-343.82-461.06-523.92C271.05,201.19,117.73,33.38,230.13,2.81v-.27Z"/>
  <path class="cls-1" d="M654.35,747.22c39.29,46.66,17.46,110.52-40.65,126.07-63.29,16.92-390.12-253.23-485.61-273.97-46.92-69.59,11.46-138.9,91.39-106.97l434.6,254.86h.27Z"/>
  <path class="cls-1" d="M243.77,838.36c62.47-7.1,177.6,44.75,252.9,28.65,84.85,51.03,22.65,123.89-59.47,132.35-36.83,3.82-153.87-10.1-188.51-21.01-78.57-24.83-85.39-131.25-4.91-140.26v.27Z"/>
</svg>