<?xml version="1.0" encoding="UTF-8"?>
<svg id="Layer_1" data-name="Layer 1" xmlns="http://www.w3.org/2000/svg" viewBox="0 0 1000 1000">
  <path d="M505.74,239.81c-1.74,6.26,1.82,6.76,4,10.11,12,17.89,30.18,34.97,42.97,53.95,96.27,142.61,139.45,322.09,122.73,493.27l50.74-96.58c12.72-32.14,97.86-111.33,117.06-49.01,15.19,49.38-53.51,151.78-82.95,192.14,33.52,0,67.98-15.71,98.95,6.03,61.66,43.27-50.6,94.9-86.88,101.08,13.09,20,72.56-5.75,77,22.33,5.01,31.92-38.9,26.91-58.75,26.11-61-2.48-120.83-6.55-181.76-8.08-46.68-1.16-107.67-21.16-151.74-14.25-25.23,3.93-52.71,19.05-78.96,22.04-94.44,10.55-119.16-75.48-205.69-80.36-22.03-1.23-35.26,17.46-49.8-2.68-1.6-55.13,83.11-31.13,115.32-18.26,33.01,13.24,88.48,62.91,113.34,64.36,33.37,1.96,79.68-24.35,116.19-27.2,37.3-2.83,66.53,13.02,102.95,12.01,1.89-7.78-2.83-7.78-6.76-11.35-35.19-32-131.66-133.52-130.94-180.57.65-41.45,40.28-18.04,59.03-2.03,31.19,26.61,56.49,61.3,86.67,88.94-4.36-47.41-19.49-95.33-16.07-143.34,1.89-26.4,13.67-83.92,47.04-85.74,10.11-.51,22.47,12.65,21.67.8-1.82-26.04-13.89-69.66-21.38-95.77-26.46-92.51-77.94-183.26-138.21-257.58-45.08,59.12-189.69,149.73-208.15,24.35-90.96,9.02-79.77-78.25-21.38-116.64,9.6-6.26,37.08-13.68,39.77-16.8,3.7-4.36,4.21-16.79,8.43-23.92,20.93-35.2,66.82-78.03,109.71-80.21,12-.59,25.95,8.5,34.54,6.47,3.34-.8,33.66-30.76,47.18-37.82,80.85-42.03,162.13,4.81,105.57,93.09,77.37,49.81-28.93,120.43-81.28,131.19l-.14-.07ZM453.24,94.37c17.45-2.47,50.24-16.65,65.8-7.35,8.51,5.09,8.36,18.18,20.37,14.98,12-3.2,43.55-53.95,12.71-60-41.88-8.14-75.53,22.18-98.88,52.36ZM412.89,110.51l-10.4-23.86c-13.67-3.49-83.4,41.24-70.38,64.29l80.78-40.43ZM509.8,122.73c-54.6,3.2-112.04,29.45-153.48,64.57,54.82,2.55,115.31-26.91,153.48-64.57ZM570.37,146.94l-24.06,2.18-80.92,54.33c7.63,2.47,11.84,3.86,20.2,2.47,12.88-2.11,102.16-42.32,84.78-58.97ZM307.69,187.44c-34.68-4.36-68.92,21.24-72.56,56.36,27.62,11.85,65-34.17,84.92-14.18,17.23,17.38-43.19,73.08-1.24,78.11,46.31,5.53,116.91-59.49,138.43-98.25-23.85,1.32-45.58,15.05-71.17,17.67-34.47,3.63-77.94,5.53-78.38-39.78v.07ZM630.93,865.87c5.75-57.81.22-127.78-15.92-183.99-1.6-5.53-.44-12.5-8.21-13.96-8.58,59.77,1.01,128.57,17.37,186.6,1.16,4.15,1.02,12.22,6.83,11.28l-.07.07ZM804.62,676.06c-7.56-8.14-44.28,45.9-47.69,51.27-23.41,36.72-41.09,80.58-53.3,122.39,23.26-11.2,109.5-164.42,100.91-173.66h.07ZM828.91,878.01c-45.29-2.33-94.29,19.92-125.2,52.42,38.97-10.25,82.52-21.96,117.27-42.39,5.23-3.06,10.18.73,7.93-10.03ZM663.29,942.58c-7.13-15.05-25.88-9.09-10.11,4l10.11-4Z"/>
</svg>