<?xml version="1.0" encoding="UTF-8"?>
<svg id="Layer_1" data-name="Layer 1" xmlns="http://www.w3.org/2000/svg" viewBox="0 0 1000 1000">
  <defs>
    <style>
      .cls-1 {
        fill: #2c5f52;
      }
    </style>
  </defs>
  <path class="cls-1" d="M559.01,559.33c19.85-19.85,135.77,5.3,162.12,19.3,14,7.47,31.39,32.49,42.4,30.73,37.23-23.38,69.17-60.35,115.37-66.33,121.48-15.63,116.05,106.71,30.03,89.72-17.12-3.41-19.83-19.45-41.43-11.29-43.36,16.31-74.2,97.06-116.47,92.57-31.12-3.27-34.64-38.62-49.87-54.92-31.26-33.56-100.27-23.78-140.65-40.51-15.63-11.82-13.17-47.43-1.21-59.26h-.28Z"/>
  <path class="cls-1" d="M604.27,257.31c39.28-39.14,131.55,6.53,167.02,35.47,42.12-50.97,161.84-97.59,215.65-48.11,17.67,16.18,18.62,47.17-4.62,55.19-27.72,9.37-56.93-15.91-108.16,4.88-51.23,20.81-67.54,83.19-117.15,79.94-36.68-2.31-41.98-61.85-99.06-66.2-17.12-1.36-33.28,13.74-52.58-1.63-15.23-12.11-13.45-47.17-1.23-59.41l.13-.13Z"/>
  <path class="cls-1" d="M275.69,626.47c32.75-9.1,47.7,25.01,38.6,54.09-2.04,6.66-95.81,89.98-103.96,92.57-51.63,16.44-61.83-34.94-102.32-34.94-36.42,0-56.66,50.97-94.05,19.03-50.95-43.63,50.84-93.78,93.24-93.24,26.09.4,84.8,29.36,90.36,28.27,13.05-2.57,64.42-61.98,78.14-65.65v-.13Z"/>
</svg>