<?xml version="1.0" encoding="UTF-8"?>
<svg id="Layer_1" data-name="Layer 1" xmlns="http://www.w3.org/2000/svg" viewBox="0 0 1000 1000">
  <defs>
    <style>
      .cls-1 {
        fill: #1e3d34;
      }
    </style>
  </defs>
  <path class="cls-1" d="M913.19,12.55c24.24,24.24,10.74,57.44-9.35,79.1-57.02,61.81-295.11,205.94-379.75,260.61-125.62,81.1-259.14,150.66-380.97,238.12-132.17-29.83-46.51-98.58,20.47-146.09C380.98,289.85,638.13,169.18,852.98,6.8c16.49-10.96,46.29-8.36,60.01,5.56l.19.19Z"/>
  <path class="cls-1" d="M350.38,586.2c96.59-11.51,81.48,90.25,27.83,105.75-35.78,10.35-206.88,21.66-235.1,7.75-41.14-20.06-19.28-80.49,18.87-91.42,32.4-9.35,80.68.58,118.06-3.6,24.24-2.77,48.09-15.88,70.53-18.48h-.19Z"/>
  <path class="cls-1" d="M129,839.46c34.36-9.35,103.12,40.34,138.7,56.06,35.58,15.69,110.51,6.56,79.69,74.54-32.18,70.94-175.06-2.19-219.19-34.59-37.77-27.83-44.1-83.89.61-96.01h.19Z"/>
</svg>