<?xml version="1.0" encoding="UTF-8"?>
<svg id="Layer_1" data-name="Layer 1" xmlns="http://www.w3.org/2000/svg" viewBox="0 0 1000 1000">
  <defs>
    <style>
      .cls-1 {
        fill: #a89fd8;
      }
    </style>
  </defs>
  <path class="cls-1" d="M487.79,200.76c18.57-2.08,40.59-3.18,59.05-1.49,55.38,5.06,161.77,52.41,194.81,97.38,90.12,122.59,79.89,317.15-35.03,420.68C399.66,993.89-30.56,568.84,306.97,284.64c47.24-39.8,118.79-76.83,180.81-83.88ZM696.59,328.02c-193.72-222.45-616.98,103.83-397.85,339.98,117.7,126.86,321.44,103.04,413.15-39.11,49.31-76.63,45.25-231.39-15.19-300.87h-.11Z"/>
  <path class="cls-1" d="M410.48,840.22c9.63,9.73,9.33,114.55,6.45,133.31-5.46,35.44-43.87,33.16-49.12,5.76-3.18-16.88-1.89-126.07,4.96-136.79,6.84-10.72,29.38-10.82,37.71-2.38v.1Z"/>
  <path class="cls-1" d="M859.86,674.85c5.65-5.66,19.74-8.24,27.69-6.05,8.33,2.28,69.07,57.18,72.84,65.42,14.78,32.36-9.23,50.33-38.81,33.25-4.27-2.48-64.11-62.34-66.09-66.61-3.58-8.04-1.89-19.85,4.37-26.01Z"/>
  <path class="cls-1" d="M685.58,834.57c11.72-.99,20.15,7.35,24.51,17.47,4.77,11.22,17.58,94,13.31,102.54-8.24,16.47-33.36,15.09-43.97-.3-12.6-18.27-28.48-116.74,6.15-119.71Z"/>
  <path class="cls-1" d="M581.38,120.75c-13.21,13.4-41.69,6.35-41.78-17.57-.1-23.92,13.79-135.2,54.48-94.2,14,14.1-1.28,100.36-12.6,111.87l-.1-.1Z"/>
  <path class="cls-1" d="M774.41,242.06c-7.45,7.74-24.53,7.25-33.55,1.79-30.67-20.05,28.38-156.84,59.75-105.22,7.05,11.51-19.86,96.98-26.2,103.53v-.1Z"/>
  <path class="cls-1" d="M280.28,95.34c2.47-3.87,21.93-7.15,28.28-5.56,28.88,7.54,69.67,130.14,13.4,114.25-15.39-4.37-50.13-95.39-41.69-108.69Z"/>
  <path class="cls-1" d="M189.97,222.7c12.7,12.11.88,35.73-13.6,41.89-30.47,8.93-91.3-43.87-83.57-72.36l14.19-14c31.27-9.33,32.65,20.25,49.13,31.47,9.42,6.45,27.48,6.95,33.84,13Z"/>
  <path class="cls-1" d="M101.84,608.74c33.15-7.64,47.24,15.19,29.17,40.3-7.14,9.93-51.7,23.23-64.6,24.12-27.3,1.89-40.5-25.21-24.13-41.29,2.28-2.28,53.39-21.74,59.55-23.13Z"/>
</svg>