<?xml version="1.0" encoding="UTF-8"?>
<svg id="Layer_1" data-name="Layer 1" xmlns="http://www.w3.org/2000/svg" viewBox="0 0 1000 1000">
  <defs>
    <style>
      .cls-1 {
        fill: #b8e04a;
      }
    </style>
  </defs>
  <path class="cls-1" d="M524.96,981.57c-92.78,93.17-177.31-193.98-177.71-257.17-.37-55.54,41.62-141.86,41.62-169.71,0-17.19-37.6-72.76-46.59-101.2-38.93-124.11-22.14-315.77,78.85-407.99,27.67-25.41,83.79-67.4,117.01-31.7,38.35,60.33-39.33,82.49-68.54,122.75-60.3,83.63-64.71,244.02-.96,327.07,226.59-159.06,288.8,171.81,84.19,180.42-29.61,1.33-77.68-33.22-87.43-2.68-19.67,61.28-8.58,143.19,17.38,201.63,18.31,41.43,88.36,91.82,41.8,138.59h.37Z"/>
</svg>