<?xml version="1.0" encoding="UTF-8"?>
<svg id="Layer_1" data-name="Layer 1" xmlns="http://www.w3.org/2000/svg" viewBox="0 0 1000 1000">
  <defs>
    <style>
      .cls-1 {
        fill: #fffaf3;
      }
    </style>
  </defs>
  <path class="cls-1" d="M101.01,593.34c-9.7-14.32-10.05-31.37-2.01-46.62,5.21-7.94,21.07-11.37,30.07-11.14,52.54,1.42,129.69,55.98,185.88,64.15,244.46,35.39,328-259.31,580.16-126.64,17.76,9.36,79.87,47.69,91.47,59.77,23.67,24.86,15.62,60.48-20.82,54.33-27.92-4.74-88.5-60.84-130.03-74.33-138.68-44.97-217.02,73.74-330.61,122.62-161.99,69.59-252.75,10.05-403.97-42.14h-.13Z"/>
  <path class="cls-1" d="M413.51,333.67c30.77-2.95,120.23.59,113.36,47.1-6.39,42.85-65.67,9.72-94.41,10.77-44.38,1.55-98.57,32.67-142.12,42.49-100.58,22.73-133.11-4.73-223.39-26.87-37.4-9.23-80.58,5.34-62.83-55.62,23.31-39.54,149.8,19.77,185.78,24.73,84.48,11.48,146.13-35.14,223.62-42.49v-.12Z"/>
</svg>