<?xml version="1.0" encoding="UTF-8"?>
<svg id="Layer_1" data-name="Layer 1" xmlns="http://www.w3.org/2000/svg" viewBox="0 0 1000 1000">
  <defs>
    <style>
      .cls-1 {
        fill: #8fbfb0;
      }
    </style>
  </defs>
  <path class="cls-1" d="M19.9,271.9c-64.03-64.26,42.69-98.09,92.22-98.68,171.36-2.44,364.06,24.75,536.62,34.82,70.48,4.04,142.56-5.21,212.84-.39,21.54,1.4,96.45,8.66,110.15,12.9,37.86,11.89,43.69,91.84-19.94,99.5-243.24,29.18-577.3-33.45-829-45.92-31.41-1.63-75.11,25.76-103.1-2.21h.2Z"/>
  <path class="cls-1" d="M886.35,377.42c34.43-10.26,63.23,3.84,68.46,39.67,13.29,91.84-249.69,184.3-311.1,233.25-47.32,13.88-92.42-11.89-76.52-65.66,14.1-47.74,177.4-103.92,225.12-133.33,25.37-15.73,82.56-70.7,94.04-74.12v.2Z"/>
  <path class="cls-1" d="M757.07,821.13c-9.66-6.06-15.3-53.57-11.07-68.69,11.07-39.28,184.65-180.66,188.88-59.01-25.78,41.69-123.43,161.54-178,127.5l.2.2Z"/>
</svg>