<?xml version="1.0" encoding="UTF-8"?>
<svg id="Layer_1" data-name="Layer 1" xmlns="http://www.w3.org/2000/svg" viewBox="0 0 1000 1000">
  <defs>
    <style>
      .cls-1 {
        fill: #fffaf3;
      }
    </style>
  </defs>
  <path class="cls-1" d="M603.09,358.87c54.12-74.78,131.03-252.93,195.36-307.92,43.03-36.63,121.01-38.98,124.21,30.7,2.98,64.57-137.63,232.25-165.54,300.68,327.88-124.05,250.11,149.14-11.72,148.1,41.12,56.45,189.19,150.65,175.55,222.02-30.47,159.82-259.49-100.14-329.37-109.51-21.94,68.82-29.19,318.98-95.02,349.03-30.68,14.06-59.02,11.09-73.93-20.44-31.32-66.5,40.48-312.4,38.56-399.57-14.91-14.27-309.98,96.34-331.5-30.26-18.32-108.68,115.68-84.15,165.75-135.32-53.05-28.98-243.94-112.51-263.54-157.24-22.37-51.58,26.42-89.52,77.12-77.36l316.37,151.72c5.75-78.63-153.39-250.17-77.98-308.78,67.11-52,100.98,46.9,123.78,91.63,29.61,58.4,71.37,199.03,103.12,240.17,9.16,11.92,12.36,15.75,28.76,12.58v-.24Z"/>
</svg>