<?xml version="1.0" encoding="UTF-8"?>
<svg id="Layer_1" data-name="Layer 1" xmlns="http://www.w3.org/2000/svg" viewBox="0 0 1000 1000">
  <defs>
    <style>
      .cls-1 {
        fill: #a89fd8;
      }
    </style>
  </defs>
  <path class="cls-1" d="M616.3,296.33c68.32-9.25,142.35-2.47,207.44,19.6,43.03,14.64,232.89,107.51,159.63,167.53-34.7,28.54-58.3-21.3-82.98-38.57-101.48-71.12-275.45-106.61-375.86-17.44-10.02,8.93-11.72,7.09-.31,16.66,17.73,14.49,53.21,23.6,74.34,37.02,152.69,97.49,105.96,253.92-76.65,222.44-97.01-16.66-141.74-123.88-138.65-212.73-80.97-32.08-175.82-22.83-247.54,27.79-34.55,24.37-67.4,87.16-111.04,74.19-62.15-40.71,8.17-100.58,46.12-130.66,77.58-61.54,152.69-81.15,251.86-73.42,29.15,2.3,76.04,22.83,101.02,15.57,10.79-3.09,63.54-56,85.9-68.8,29.61-16.96,73.1-34.4,106.73-39.04v-.15ZM601.18,619.67c.62-62.79-81.43-80.67-128.47-102.73-7.4,75.43,57.37,122.63,128.47,102.73Z"/>
</svg>