<?xml version="1.0" encoding="UTF-8"?>
<svg id="Layer_1" data-name="Layer 1" xmlns="http://www.w3.org/2000/svg" viewBox="0 0 1000 1000">
  <defs>
    <style>
      .cls-1 {
        fill: #fffaf3;
      }
    </style>
  </defs>
  <path class="cls-1" d="M281.48,586.96c-67.16-9.78-249.79,53.31-276.78-35.84-41.83-139.14,207.69-78.9,276.55-110.45,22.93-31.58-329.63-301.24-215.61-384.94C154.32,6.01,260.44,203.72,334.29,241.75c-13.15-55.01-84.6-212.32-3.83-236.48,128.36-38.47,166.59,232.39,203.17,316.08,60.97-41.37,82.23-197.48,166.13-193.88,129.79,5.72-2.63,222.57,6.46,233.82,66.92-20.57,206.3-161.17,273.45-107.59,36.11,28.69,18.4,84.4-8.85,113.08-43.03,45.43-331.06,190.79-330.79,213.48,53.78,62.63,233.29,211.82,153.22,299.58-87.26,95.38-298.54-179.07-325.8-159.94-19.83,68.12-23.89,281.37-126.69,278.51-16.97-.47-59.5-40.4-59.5-46.12v-365.07l.23-.27Z"/>
</svg>