<?xml version="1.0" encoding="UTF-8"?>
<svg id="Layer_1" data-name="Layer 1" xmlns="http://www.w3.org/2000/svg" viewBox="0 0 1000 1000">
  <defs>
    <style>
      .cls-1 {
        fill: #a89fd8;
      }
    </style>
  </defs>
  <path class="cls-1" d="M697.93,368.99c113.29-4.66,360.71,65.16,289.38,222.07-78.31,172.4-441.23,174.74-591.93,109.58-24.01-10.39-85.08-57.12-90.44-58.17-7.23-1.4-50.46,16.55-70.04,18.42-129.83,12.12-321.66-52.93-191.48-204.35,99.65-115.87,269.45-121.34,407.79-87.43,12.82-146.77,234.96-144.32,246.61-.11h.11ZM553.29,325.39c-65.5,14.93-17.13,115.17-49.88,131.38-30.53,15.03-59.79-17.83-89.27-27.41-99.65-32.05-230.99-16.78-309.19,56.3-110.48,103.28,73.31,131.97,145.8,107.01,18.42-6.3,41.96-29.48,60.6-27.5,17.25,1.87,43.82,37.06,60.25,49.07,99.88,73.1,267.81,78.23,384.14,49.67,62.81-15.38,236.24-81.13,158.97-165.41-33.69-36.72-139.85-65.05-188.22-64.58-32.18.34-43.02,29.14-74.36-9.69-27.96-34.5-5.24-66.9-29.01-87.54-17.72-15.38-47.9-16.44-69.93-11.42l.12.11Z"/>
</svg>