<?xml version="1.0" encoding="UTF-8"?>
<svg id="Layer_1" data-name="Layer 1" xmlns="http://www.w3.org/2000/svg" viewBox="0 0 1000 1000">
  <defs>
    <style>
      .cls-1 {
        fill: #a89fd8;
      }
    </style>
  </defs>
  <path class="cls-1" d="M680.39,405.64c85.2-21.49,281.98,5.78,313.69,101.82,15.72,47.43-.74,75.59-38.97,104.79-140.47,107.31-664,126.72-827.15,69.81-173.5-60.47-171.87-205.72,12.89-241.88,58.39-11.41,108.91-2.22,167.15-1.63,30.08-188.23,303.02-204.09,372.24-32.9h.14ZM87.81,570.3c1.63,2.82,48.46,26.53,56.61,29.79,150.25,58.54,451.05,34.68,609.45.3,56.18-12.15,122.26-24.31,164.2-66.1-30.39-32.76-85.37-48.32-128.49-52.47-46.07-4.45-108.77,14.23-143.42,3.41-40.91-12.75-24.16-66.55-74.11-98.71-45.18-29.2-107.86-29.2-150.69,4.89-64.31,51.28,10.81,125.69-46.83,151.18-22.22,9.78-120.77-30.53-168.18-29.05-24.59.74-140.62,18.53-118.69,56.77h.14Z"/>
</svg>