<?xml version="1.0" encoding="UTF-8"?>
<svg id="Layer_1" data-name="Layer 1" xmlns="http://www.w3.org/2000/svg" viewBox="0 0 1000 1000">
  <path d="M607.16,300.88c12.25,42.27-7.68,80.22-55.11,76.6-52.44-3.96-98.49-60.99-131.78-95.92-23.11,130.08-3.11,261.55,28.72,388.1l10.78-73.07c8.45-50.55,54.42-123.02,104.1-63.4,55.28,66.51,30.7,255.16,19.32,337.63,45.02-40.29,116.26-119.56,183.45-104.38,33.29,7.6,30.7,44.43,18.71,69.36-30.18,62.8-210,153.99-277.71,163.14-52.87,7.16-197.59-23.21-245.71-48.92-35.45-18.97-75.03-56.5-44.59-97.21,24.32-32.61,78.14-19.58,110.74-16.74,4.4.35,15.09,4.31,10.69-5.96-1.9-4.56-26.3-30.1-32.6-39.24-22.51-32.61-98.84-138.81-45.88-168.65,49.33-27.87,107.55,42.35,135.92,73.84,1.9,2.08,11.82,14.76,14.57,9.4-44.85-152.69-66.75-315.82-23.98-471.87-47,9.92-97.2,18.72-142.22-3.96-66.93-33.81-30.7-108.26,32-115.85,8.8-9.75-59.16-43.23-37.17-87.48,26.48-53.4,117.47-12.68,153.95,10.27,53.64-78.59,144.12-5.09,176.37,54.78,6.12,11.3,11.56,36.14,15.96,41.49,5.95,7.07,24.49,8.29,34.33,13.63,77.45,41.93,81.33,137.85-12.76,154.34l-.09.08ZM362.57,104.28c-.95-8.11,8.45-16.47,9.06-22.43,1.38-13.45-69.34-41.57-85.64-35.01,18.46,26.66,48.47,42.87,76.59,57.45ZM541.1,175.01c-9.75-18.8.34-30.02-8.37-51.5-11.73-28.72-83.66-112.92-98.58-50.72,41.92,21.48,69.6,49.34,92.28,90.49,30.79,55.81,23.63,119.04-51.83,94.9-6.12-2.68-8.88,1.28-6.56,6.56,6.73,15.01,79.95,76.51,95.82,64.7-9.31-24.41-51.06-86.18,2.33-86.36,14.15,0,68.57,26.4,64.86-16.21-3.19-36.41-62.53-46.93-90.04-51.85h.09ZM496.77,214.44c9.23-9.49-64.34-99.11-86.16-95.75-4.74,4.58,43.47,65.56,50.11,72.03,3.97,3.88,32.69,27.34,36.14,23.72h-.09ZM372.14,142.58c-31.65,15.18-68.82,5.26-100.56,21.48-31.74,16.21-6.99,27.69,17.25,30.8,38.12,4.91,67.01-4.49,102.63-14.06l-19.23-38.3-.09.08ZM530.32,564.24c-8.45-1.73-9.57,2.15-13.28,8.19-12.94,21.48-19.58,104.9-20.44,132.94-2.33,74.71,7.93,153.64,14.66,227.82,12.07-7.16,13.54-29.76,16.82-43.05,25.1-103.09,34.76-224.2,2.24-325.82v-.08ZM448.9,880.49c-16.82-50.72-46.49-101.27-79.52-143.29-20.87-26.57-44.85-57.71-78.57-67.54-12.08,10.09,131.35,202.63,158.09,210.75v.08ZM741.19,813.47c-45.88,14.49-84.87,49.69-114.97,86.18,17.51,3.01,125.75-77.04,114.97-86.18ZM444.16,947.52c-43.21-49.17-122.9-77.13-186.89-67.03,1.47,18.29,22.94,26.22,37.09,32.35,45.02,19.58,101.42,27.34,149.81,34.68Z"/>
</svg>