<?xml version="1.0" encoding="UTF-8"?>
<svg id="Layer_1" data-name="Layer 1" xmlns="http://www.w3.org/2000/svg" viewBox="0 0 1000 1000">
  <defs>
    <style>
      .cls-1 {
        fill: #a89fd8;
        stroke: #1e3d34;
      }
    </style>
  </defs>
  <path class="cls-1" d="M549.86,3.08c13.14-3.83,25.98-4.38,39.38,0,48.98,21.07,43.49,63.48,39.69,109.72-13.71,163.62-120.13,658.87-175.66,812.65-39.91,110.54-150.71,68.4-140.31-63.75,13.41-166.63,121.19-583.9,172.88-754.64,10.13-33.11,28.18-94.13,64.29-103.98h-.27Z"/>
  <path class="cls-1" d="M664.46,985.1c-74.95-64.85,153.76-349.96,194.24-368.57,79.87-36.94,110.79,48.98,73.58,119.84-9.03,16.96-154.02,220.81-164.42,230.39-32.26,30.1-64.02,47.34-103.41,18.33Z"/>
  <path class="cls-1" d="M102.03,924.36c-34.2-34.48-71.41-329.16-35-354.34,49.51-15.87,98.19-16.69,115.71,38.03,10.93,33.93,41.86,285.11,29.82,304.81-24.64,29-82.34,39.95-110.53,11.22v.27Z"/>
</svg>