<svg width="2728" height="1558" viewBox="0 0 2728 1558" fill="none" xmlns="http://www.w3.org/2000/svg">
<g clip-path="url(#clip0_171_4888)">
<path d="M1031.52 1531.85C1033.04 1532.15 1035.14 1532.08 1037.47 1531.89C1039.77 1531.67 1042.31 1531.36 1044.73 1531.24C1049.58 1530.99 1053.97 1531.53 1055.18 1535.21C1057.2 1541.3 1051.19 1543.69 1043.76 1544.84C1036.34 1545.98 1027.42 1545.73 1023.73 1546.85C1023.62 1548.71 1024.78 1548.49 1025.91 1549.11C1028.83 1550.75 1040.04 1555.5 1041.18 1557.51C1042.95 1560.64 1040.9 1564.58 1037.24 1565.36C1033.94 1566.05 1028.26 1563.54 1022.76 1560.39C1017.22 1557.2 1011.86 1553.37 1009.14 1551.53C1009.83 1555.27 1013.8 1563.02 1017.39 1570.57C1020.98 1578.13 1024.18 1585.47 1023.18 1588.4C1021.78 1592.53 1017.05 1594.04 1013.48 1591.32C1009.58 1588.34 1006.68 1576.35 1004.15 1571.43C1003.69 1570.53 1003.4 1568.67 1001.98 1569.14C1001.5 1574.56 1003.68 1591.93 1000.4 1595.68C996.673 1599.93 990.35 1597.79 989.436 1592.8L989.536 1557.96C988.855 1557.52 983.438 1562.18 977.561 1567.05C971.704 1571.95 965.483 1577.2 963.448 1578.02C958.926 1579.86 954.464 1577.69 954.639 1573.12C954.741 1570.47 957.739 1567.89 960.978 1565.35C964.217 1562.8 967.646 1560.24 968.684 1557.72C967.264 1558.64 964.926 1559.42 962.326 1559.92C959.715 1560.41 956.84 1560.59 954.367 1560.34C949.419 1559.83 946.083 1557.54 949.611 1552.28C951.101 1550.02 957.253 1547.23 963.698 1544.75C970.154 1542.28 977.029 1540.22 980.111 1539.54C974.821 1533.85 951.861 1534.37 949.412 1527.74C948.954 1519.31 954.6 1519.1 961.431 1520.97C968.271 1522.84 976.471 1526.88 980.989 1526.96L965.782 1497.46C965.31 1494.31 966.823 1491.87 969.028 1490.83C971.234 1489.78 974.09 1490.09 976.39 1492.49C983.248 1499.66 989.465 1514.86 994.731 1523.57C997.339 1523.48 996.22 1523.07 996.557 1521.9C998.195 1516 998.403 1493.18 1009.11 1494.93C1019.37 1496.52 1012.25 1514.44 1012.61 1521.19C1013.8 1522.04 1025.46 1506.46 1027.89 1505.37C1032.57 1503.27 1036.63 1509.11 1033.88 1513.22C1028.08 1520.42 1022.22 1527.66 1016.25 1534.87L1031.49 1531.86L1031.52 1531.85Z" fill="#1E3D34"></path>
<path d="M1134.63 1453.09C1136.74 1451.24 1139.36 1446.69 1142.19 1442.95C1143.6 1441.07 1145.1 1439.42 1146.59 1438.36C1148.06 1437.3 1149.58 1436.87 1151.14 1437.5C1155.98 1439.47 1154.88 1443.82 1152.11 1448.27C1151.42 1449.38 1150.62 1450.51 1149.78 1451.57C1148.93 1452.64 1148.04 1453.67 1147.21 1454.63C1145.51 1456.56 1143.97 1458.22 1143.16 1459.33C1143.67 1461.81 1143.61 1460.77 1145.01 1460.69C1150.77 1460.43 1162.76 1454.67 1165.72 1461.46C1167.62 1465.83 1164.01 1468.23 1159.3 1469.71C1156.97 1470.46 1154.31 1470.92 1151.93 1471.27C1149.55 1471.63 1147.46 1471.88 1146.2 1472.18C1145.85 1472.83 1150.92 1477.44 1155.32 1482.66C1159.71 1487.89 1163.39 1493.73 1159.88 1497C1155.86 1500.73 1151.41 1497.59 1147.52 1493.63C1143.63 1489.69 1140.21 1484.9 1138.11 1485.46C1137.19 1491.59 1141.28 1503.88 1133.35 1506.54C1130.24 1507.6 1128.16 1506.9 1126.78 1505.16C1125.4 1503.44 1124.74 1500.7 1124.41 1497.64C1123.78 1491.53 1124.41 1484.09 1123.6 1480.89C1122.82 1480.47 1117.51 1484.68 1111.44 1488.29C1105.4 1491.93 1098.38 1494.68 1094.66 1491.49C1089.17 1486.76 1094.12 1481.35 1101.06 1476.75C1107.91 1472.05 1116.76 1468.12 1119.49 1466.38C1111.55 1461.42 1103.65 1456.35 1095.92 1451.3C1093.47 1449.13 1092.69 1444.8 1095.14 1442.53C1097.94 1439.96 1103.95 1442.53 1109.5 1445.44C1115.04 1448.36 1119.99 1451.5 1120.59 1450.37C1118.53 1446.05 1109.3 1433.55 1113.57 1429.36C1122.12 1420.91 1130.81 1448.01 1134.64 1453.1L1134.63 1453.09Z" fill="#1E3D34"></path>
<path d="M1450.6 1287.02C1452.89 1285.51 1455.18 1281.43 1457.87 1278.18C1460.49 1274.85 1463.46 1272.28 1467.04 1273.73C1470.02 1274.94 1471.09 1276.9 1470.99 1279.3C1470.87 1281.68 1469.61 1284.52 1467.8 1287.3C1464.28 1292.95 1458.79 1298.46 1457.42 1301.51C1458.76 1302.78 1459.31 1301.92 1460.45 1301.6C1463.4 1300.79 1473.82 1296.58 1476 1297.01C1479.44 1297.8 1481.32 1301.73 1479.64 1304.63C1478.14 1307.25 1472.82 1309.45 1467.03 1310.89C1464.15 1311.61 1461.19 1312.21 1458.58 1312.66C1455.94 1313.08 1453.65 1313.39 1452.14 1313.6C1455.33 1315.65 1463.54 1318.33 1471.42 1321.01C1479.26 1323.68 1486.76 1326.37 1488.33 1328.98C1490.58 1332.68 1488.6 1336.8 1484.33 1337.33C1479.64 1337.9 1468.99 1331.68 1463.79 1329.93C1462.83 1329.61 1461.28 1328.54 1460.75 1329.74C1464.43 1333.67 1478.5 1344.07 1479.1 1348.78C1479.78 1354.12 1474 1356.62 1469.87 1353.71C1461.62 1345.58 1453.28 1337.57 1444.88 1329.67C1444.51 1329.71 1444.31 1331.31 1444.2 1333.77C1444.08 1336.22 1444.06 1339.54 1443.92 1342.92C1443.8 1346.31 1443.7 1349.88 1443.46 1352.75C1443.22 1355.63 1442.92 1357.89 1442.55 1358.77C1440.93 1362.73 1436.47 1363.58 1433.47 1360.17C1430.06 1356.26 1434 1346.09 1431.74 1341.42C1431.52 1342.87 1430.55 1344.67 1429.25 1346.45C1427.93 1348.21 1426.32 1349.97 1424.54 1351.08C1421.01 1353.35 1417.38 1353.4 1416 1347.77C1415.69 1346.56 1416.03 1344.67 1416.71 1342.44C1417.36 1340.17 1418.36 1337.56 1419.51 1335C1420.66 1332.43 1421.82 1329.79 1422.95 1327.6C1424.09 1325.41 1425.07 1323.55 1425.76 1322.46C1422.15 1322.03 1416.92 1324.9 1411.94 1327.47C1406.83 1329.91 1402.02 1332.08 1398.97 1330.27C1392.9 1324.52 1395.92 1321.6 1401.36 1319.53C1404.02 1318.44 1407.28 1317.52 1410.24 1316.58C1413.21 1315.65 1415.77 1314.58 1417.17 1313.4C1407.01 1309.51 1396.99 1305.48 1387 1301.17C1384.45 1299.24 1383.56 1296.89 1384.01 1295.11C1384.45 1293.32 1386.28 1292.13 1389.32 1292.6C1391.6 1292.95 1394.24 1293.64 1397.07 1294.51C1399.87 1295.38 1402.87 1296.43 1405.87 1297.53C1411.88 1299.73 1417.98 1302.12 1422.75 1303.54C1424.21 1302.03 1423.26 1302.39 1422.58 1301.43C1420.86 1299.02 1415.77 1294.01 1412.02 1289.09C1410.13 1286.62 1408.58 1284.18 1407.97 1282.06C1407.35 1279.95 1407.6 1278.09 1409.44 1276.88C1412.95 1274.53 1417.14 1277.14 1421.08 1280.9C1425.03 1284.66 1428.71 1289.63 1431.39 1291.69C1432.01 1291.61 1431.15 1287.35 1430.1 1282.86C1429.02 1278.33 1427.82 1273.65 1428.09 1272.58C1429.05 1268.42 1435.98 1269.53 1437.56 1273.8C1438.74 1277.87 1439.8 1281.9 1440.87 1285.99C1441.39 1288.03 1441.93 1290.12 1442.43 1292.17L1443.87 1298.35C1445 1296.47 1446.18 1294.64 1447.27 1292.72L1450.58 1287L1450.6 1287.02Z" fill="#1E3D34"></path>
<path d="M1581.99 1312C1579.19 1316.42 1573.38 1319.03 1570.24 1314.64C1567.74 1311.14 1570.72 1304.07 1574.66 1296.86C1576.59 1293.23 1578.85 1289.62 1580.68 1286.36C1582.54 1283.12 1584.13 1280.31 1584.87 1278.42C1583.06 1278.65 1580.2 1279.94 1576.85 1281.69C1575.18 1282.56 1573.39 1283.55 1571.56 1284.58C1569.7 1285.59 1567.78 1286.64 1565.89 1287.66C1558.33 1291.78 1550.95 1295.21 1548.36 1293.96C1544.07 1291.88 1545.29 1287.07 1547.99 1283.66C1549.27 1282.06 1555.98 1278.14 1562.17 1274.2C1568.43 1270.31 1574.19 1266.44 1573.87 1265.74C1569.82 1265.21 1564.24 1265.9 1558.78 1266.42C1553.29 1266.94 1547.89 1267.28 1544.21 1266.26C1541.75 1265.58 1540.2 1263.85 1539.74 1261.85C1539.3 1259.85 1539.94 1257.56 1541.89 1255.66C1543.66 1253.96 1550.92 1253.5 1558.49 1253.36C1566.04 1253.22 1573.91 1253.43 1576.87 1253.39C1578.06 1252.61 1573.74 1249.15 1569.41 1244.91C1565.06 1240.65 1560.72 1235.64 1562.01 1231.61C1564.62 1223.15 1570.44 1225.93 1576.01 1230.79C1578.79 1233.22 1581.5 1236.18 1583.69 1238.47C1585.88 1240.74 1587.56 1242.35 1588.35 1242.06C1588.55 1238.53 1587.8 1232.51 1587.83 1226.87C1587.77 1221.2 1588.5 1215.9 1591.57 1213.58C1597.3 1209.26 1599.62 1214.11 1600.81 1220.79C1601.39 1224.12 1601.71 1227.91 1602.09 1231.22C1602.45 1234.51 1602.84 1237.31 1603.65 1238.67C1604.62 1237.29 1605.61 1235.08 1606.63 1232.56C1607.65 1230.05 1608.72 1227.23 1609.96 1224.69C1612.43 1219.59 1615.4 1215.49 1619.74 1216.87C1624.64 1218.42 1624.06 1223.28 1622.04 1228.61C1620.02 1233.94 1616.63 1239.7 1616.05 1243.22C1619.38 1242.27 1625.12 1238.76 1630.61 1236.27C1636.12 1233.8 1641.45 1232.37 1643.96 1235.87C1647.24 1240.47 1642.6 1245.36 1636.36 1249.41C1633.24 1251.44 1629.78 1253.29 1626.77 1254.85C1623.73 1256.41 1621.14 1257.69 1619.82 1258.65C1618.76 1259.42 1617.62 1259.3 1617.34 1261.22C1620.39 1262.69 1627.11 1263.94 1633.39 1265.58C1639.67 1267.23 1645.52 1269.3 1646.81 1272.56C1647.92 1275.29 1645.89 1279.81 1643.76 1281.65C1639.89 1285 1616.8 1277.11 1611.24 1276.55C1614.35 1282.03 1617.46 1287.57 1620.51 1293.18C1621.38 1296.99 1625.07 1304.57 1624.02 1308.49C1622.54 1313.66 1618.08 1315.62 1614.38 1313.14C1611.33 1311.09 1608.45 1304.47 1605.41 1297.67C1602.35 1290.85 1599.27 1283.9 1596.15 1280.89C1591.13 1290.2 1587.71 1303.4 1582.03 1312.01L1581.99 1312Z" fill="#1E3D34"></path>
<path d="M1354.41 1484.96C1357.25 1485.53 1359.38 1491.05 1361.24 1493.17C1365.95 1498.54 1371.55 1503.15 1375.42 1509.21C1377.82 1508.03 1376.64 1508.13 1376.48 1506.89C1375.86 1502.09 1369.46 1486.42 1372.12 1483.18C1374.96 1479.76 1377.38 1479.32 1379.46 1480.62C1381.56 1481.94 1383.37 1485.09 1384.87 1488.86C1387.92 1496.43 1389.49 1506.4 1390.51 1509.17C1393.95 1505.02 1397.17 1500.64 1400.38 1496.35L1405.17 1489.92L1406.36 1488.31L1407.51 1486.66L1409.79 1483.35L1414.92 1480.33C1418.65 1480.71 1421.33 1484.6 1419.99 1488.27C1414.11 1497.98 1407.65 1507.32 1401.04 1516.82C1401.49 1518.23 1402.29 1517.85 1403.27 1518.15C1405.62 1518.84 1410.02 1519.26 1414.64 1519.53C1419.25 1519.81 1424.04 1519.91 1426.98 1520.02C1429.88 1520.16 1433.6 1519.27 1436.75 1519.33C1439.91 1519.39 1442.52 1520.38 1443.02 1524.23C1443.37 1526.86 1441.57 1528.7 1438.61 1530.02C1435.61 1531.24 1431.41 1531.89 1427.04 1532.24C1422.66 1532.59 1418.1 1532.64 1414.28 1532.68C1410.39 1532.64 1407.24 1532.64 1405.72 1533.01C1406.87 1536.06 1414.07 1541.9 1418.67 1547.49C1423.27 1553.08 1425.13 1558.52 1415.43 1560.86C1408.85 1562.43 1398.81 1546.55 1393.92 1543.25C1393.01 1543.26 1392.32 1549.72 1390.3 1556.07C1389.3 1559.24 1387.97 1562.38 1386.18 1564.63C1384.38 1566.86 1382.07 1568.11 1379.23 1567.67C1375.13 1567 1375.12 1561.88 1375.86 1556.28C1376.64 1550.71 1378.02 1544.42 1377.26 1541.58C1373.52 1542.77 1367.17 1548.63 1361.2 1552.81C1355.27 1557.06 1349.58 1559.15 1347.62 1553.08C1346.58 1549.91 1349.58 1548.58 1349.76 1545.95C1344.35 1549.35 1336.71 1545.62 1339.54 1539.7C1340.17 1538.38 1341.75 1537.01 1343.87 1535.67C1345.96 1534.27 1348.55 1532.84 1351.27 1531.5C1356.69 1528.8 1362.61 1526.39 1365.42 1524.55C1364.95 1522.91 1363.78 1523.35 1362.61 1522.98C1360.19 1522.24 1355.14 1521.76 1350.6 1520.81C1346.07 1519.87 1342.04 1518.46 1341.39 1515.88C1341.61 1509.29 1344.64 1508.12 1348.67 1508.49C1350.69 1508.7 1352.9 1509.23 1355.11 1509.69C1357.31 1510.15 1359.51 1510.52 1361.43 1510.37C1359.99 1507.75 1356.11 1503.96 1352.91 1500.02C1349.72 1496.09 1347.18 1492.03 1348.26 1488.95C1349.04 1486.77 1352.11 1484.52 1354.42 1484.98L1354.41 1484.96Z" fill="#1E3D34"></path>
<path d="M1714.47 1446.57C1717.19 1449.31 1717.1 1454.16 1715.06 1457.9C1713.06 1461.65 1709.29 1464.25 1704.95 1462.5C1698.94 1460.1 1692.66 1456.15 1686.99 1453.02C1683.29 1462.34 1684.66 1472.55 1680.69 1482.59C1678.87 1487.4 1675.46 1492.48 1672.17 1495.07C1668.88 1497.66 1665.7 1497.73 1664.02 1492.64C1663.44 1490.88 1664.65 1486.85 1665.88 1482.72C1667.15 1478.6 1668.27 1474.35 1667.87 1472.2C1666.58 1473.97 1665.18 1475.99 1663.7 1477.92C1662.17 1479.85 1660.57 1481.71 1658.95 1483.17C1655.7 1486.11 1652.35 1487.5 1649.33 1484.87C1647.57 1483.34 1647.84 1480.53 1649.18 1477.13C1650.51 1473.74 1652.93 1469.78 1655.34 1465.89C1657.76 1462 1660.37 1458.26 1662.06 1455.33C1663.76 1452.4 1664.68 1450.33 1663.92 1449.88C1662.03 1450.43 1659.4 1451.75 1656.47 1453.24C1653.53 1454.73 1650.24 1456.36 1647.13 1457.59C1640.9 1460.06 1635.36 1460.9 1633.98 1455.84C1631.89 1448.27 1642.71 1443.39 1647.74 1441.1C1643.33 1439.48 1631.65 1440.91 1633.91 1432.17C1634.74 1428.96 1636.56 1427.02 1638.97 1425.83C1641.36 1424.64 1644.29 1424.22 1647.39 1424.12C1653.57 1423.92 1660.3 1425.01 1663.92 1423.88C1662.68 1418.07 1661.34 1412.3 1659.99 1406.61C1658.65 1400.91 1657.12 1395.25 1655.63 1389.66C1655.3 1385.86 1657.06 1382.53 1659.39 1380.77C1661.74 1379.02 1664.68 1378.86 1666.59 1381.51C1668.89 1387.75 1671.15 1394.08 1673.24 1400.46C1675.35 1406.84 1677.46 1413.31 1679.35 1419.84C1680.21 1418.9 1681.19 1417.56 1682.26 1415.95C1683.3 1414.33 1684.43 1412.44 1685.61 1410.37C1686.8 1408.3 1688.05 1406.05 1689.33 1403.74C1690.58 1401.43 1691.85 1399.05 1693.12 1396.71C1694.4 1394.37 1695.67 1392.07 1696.93 1389.91C1698.14 1387.75 1699.35 1385.75 1700.52 1383.98C1702.85 1380.46 1705.06 1377.96 1706.93 1377.33C1714.17 1374.83 1714.94 1380.05 1713.11 1386.98C1712.22 1390.44 1710.77 1394.31 1709.21 1397.81C1707.65 1401.3 1706.07 1404.42 1705.07 1406.41C1707.61 1405.29 1711.28 1401.98 1714.88 1399.37C1718.42 1396.77 1721.9 1394.87 1724.15 1396.71C1726.24 1398.41 1726.4 1400.67 1725.46 1403.13C1724.52 1405.6 1722.41 1408.27 1720.08 1410.77C1715.45 1415.79 1709.68 1420.16 1709.78 1421.38C1712.22 1422.13 1717.32 1420.64 1721.54 1420.33C1725.7 1420.01 1729.07 1420.89 1727.86 1426.55C1726.36 1433.49 1721.72 1435.42 1716.55 1436.2C1711.33 1436.98 1705.61 1436.64 1701.85 1439.19C1705.28 1442.13 1711.38 1443.46 1714.45 1446.55L1714.47 1446.57Z" fill="#1E3D34"></path>
<path d="M1517.91 1434.32C1518.38 1431.35 1517.58 1423.64 1517.93 1417.24C1518.14 1414.05 1518.69 1411.21 1520.01 1409.44C1521.28 1407.65 1523.31 1406.92 1526.51 1408C1529.93 1409.15 1530.93 1413.86 1531.07 1419.1C1531.17 1424.31 1530.47 1430.07 1530.88 1433.27C1533.2 1430.82 1535.97 1425.26 1538.84 1420.26C1541.7 1415.24 1544.86 1410.89 1548.28 1410.84C1555.62 1410.74 1554.61 1418.19 1550.72 1426.34C1548.86 1430.45 1546.18 1434.65 1543.72 1438.21C1541.28 1441.78 1538.89 1444.61 1537.55 1445.99C1540.42 1447.28 1548.62 1449.27 1555.09 1452.22C1561.53 1455.17 1566.34 1459.3 1561.98 1465.16C1559.65 1468.31 1555.89 1468.85 1552.16 1468.34C1548.4 1467.81 1544.65 1466.24 1542.33 1465.3C1540.05 1467.38 1541.29 1466.85 1541.71 1468.05C1543.01 1471.76 1548 1476.01 1543.32 1481.33C1535.84 1489.5 1529.98 1476.62 1527.16 1472.59C1526.04 1472.74 1524.8 1479.21 1522.3 1485.09C1521.67 1486.56 1520.98 1488 1520.18 1489.27C1519.38 1490.54 1518.44 1491.61 1517.44 1492.45C1515.42 1494.11 1513.02 1494.72 1510.16 1493.38C1507.48 1492.12 1507.39 1489.33 1508 1486.28C1508.59 1483.21 1509.91 1479.92 1509.93 1477.45C1508.98 1479.06 1507.8 1480.46 1506.59 1481.7C1505.37 1482.95 1504.09 1484.03 1502.82 1484.93C1500.28 1486.71 1497.76 1487.75 1495.82 1487.84C1491.96 1488.05 1490.43 1484.54 1495.35 1476.17L1494.35 1475.21C1490.44 1475.7 1486.66 1476.03 1486.1 1471.62C1485.61 1467.85 1488.78 1465.29 1492.73 1463.21C1496.57 1461.03 1501.23 1459.34 1503.78 1457.68C1498.5 1454.7 1489.65 1455.15 1488.81 1447.44C1490.6 1442.43 1493.58 1441.4 1498.19 1441.57C1500.56 1441.66 1502.94 1443.27 1504.96 1442.31C1503.07 1438.16 1492.3 1430.83 1494.86 1425.45C1496.38 1422.31 1498.2 1421.03 1500.24 1420.97C1502.28 1420.91 1504.53 1422.07 1506.73 1423.74C1511.16 1427.08 1515.44 1432.51 1517.89 1434.32L1517.91 1434.32Z" fill="#1E3D34"></path>
<path d="M1446.83 1168.33C1446.35 1162.84 1438.16 1149.55 1443.9 1145.97C1448.37 1143.18 1451.22 1146.65 1453.15 1151.54C1455.09 1156.45 1456.05 1162.65 1456.88 1165.22C1459.18 1166.27 1458.31 1165.71 1459.06 1164.56C1459.81 1163.38 1460.56 1161.68 1461.35 1159.82C1462.12 1157.93 1462.95 1155.88 1463.92 1154.03C1465.86 1150.36 1468.27 1147.38 1471.89 1148.18C1481.22 1150.3 1471.08 1165.73 1469.07 1170.32C1469.4 1170.99 1476.08 1169.64 1482.88 1169.17C1489.66 1168.72 1496.55 1169.18 1497.15 1173.92C1497.83 1179.31 1492.71 1181.05 1487.19 1181.8C1481.68 1182.57 1475.85 1182.46 1475.11 1184.44C1479.58 1188.72 1491.89 1192.68 1489.42 1200.38C1487.47 1206.42 1482.36 1205.09 1477.03 1202.05C1471.7 1198.98 1466.07 1194.2 1463.01 1192.96C1462.6 1193.14 1462.5 1194.82 1462.44 1197.31C1462.37 1199.77 1462.38 1203.1 1462.05 1206.34C1461.74 1209.61 1461.22 1212.98 1460.11 1215.54C1459.02 1218.11 1457.42 1219.98 1455.06 1220.38C1448.13 1221.53 1446.6 1214.84 1446.78 1207.24C1446.82 1203.36 1447.37 1199.31 1447.83 1195.73C1448.3 1192.15 1448.81 1189.2 1448.89 1187.66C1444.6 1189.2 1440.32 1190.68 1436.06 1192.13C1431.8 1193.58 1427.5 1194.89 1423.26 1196.21C1420.14 1196.71 1416.17 1194.76 1415.73 1191.71C1415.48 1189.98 1416.73 1188.43 1418.73 1187C1420.72 1185.55 1423.44 1184.22 1426.19 1183.03C1431.69 1180.68 1437.13 1178.65 1436.55 1177.58C1431.85 1176.65 1416.42 1176.38 1415.48 1170.76C1414.99 1167.92 1416.32 1166.41 1418.65 1165.65C1420.99 1164.88 1424.37 1164.93 1428.01 1165.34C1435.29 1166.14 1443.64 1168.36 1446.83 1168.36L1446.83 1168.33Z" fill="#1E3D34"></path>
<path d="M1725.51 1144.4C1724.29 1140.83 1721 1136.77 1717.74 1132.88C1714.45 1128.99 1711.2 1125.25 1710.09 1122.26C1707.91 1116.32 1712.03 1110.56 1717.48 1114.2C1718.68 1115.01 1722.9 1120.74 1726.89 1126.23C1730.89 1131.71 1734.72 1136.9 1735.29 1136.4C1735.28 1132.04 1733.99 1123.89 1733.07 1116.01C1732.19 1108.11 1731.66 1100.5 1733.5 1096.94C1735.94 1092.17 1741.73 1091.45 1744.33 1096.14C1746.82 1100.6 1747.58 1108.58 1747.7 1116.85C1747.82 1125.12 1747.25 1133.73 1747.19 1139.34C1749.16 1140.39 1748.71 1139.43 1749.58 1138.45C1754.73 1132.66 1763.93 1107.33 1772.17 1117.34C1774.19 1119.77 1771.56 1125.04 1768.21 1130.31C1764.85 1135.61 1760.69 1140.96 1759.7 1143.6L1775.3 1135.41L1790.85 1127.15C1798.58 1126.17 1800.68 1134.2 1793.99 1140.26C1784.85 1148.53 1768.82 1150.96 1759.42 1160.09C1768.02 1164.65 1779.06 1164.93 1787.52 1168.87C1790.79 1170.39 1794.38 1173.57 1792.37 1178.65C1788.18 1189.14 1768.92 1178.86 1761.97 1179.97C1766.58 1185.23 1771.15 1190.53 1775.67 1195.9C1774.27 1206.97 1769.96 1206.32 1765.89 1203.01C1761.8 1199.7 1757.82 1193.85 1757.03 1194.41C1756.66 1200.42 1760.26 1208.3 1758.98 1214.35C1757.86 1219.35 1753.75 1221.5 1750.28 1219.57C1748.4 1218.53 1746.36 1211.08 1744.28 1203.31C1742.26 1195.5 1740.2 1187.35 1738.79 1184.5C1737.14 1184.85 1733.83 1193.08 1730.24 1201.87C1726.66 1210.66 1722.82 1220.01 1720.61 1222.54C1715.78 1228.07 1709.88 1221.23 1712.49 1212.46C1715.85 1201.1 1724.56 1188.14 1728.67 1176.92C1728.45 1176.19 1722.6 1178.02 1716.38 1179.93C1710.16 1181.85 1703.57 1183.83 1701.81 1183.63C1700.37 1183.47 1699.01 1183.13 1697.96 1181.99C1694.91 1174.28 1700.4 1170.68 1707.62 1168.53C1714.85 1166.38 1723.89 1165.69 1727.97 1164.03C1729.11 1163.57 1729.55 1164.5 1729.78 1161.87L1698.25 1147.52C1694.43 1145.87 1694.22 1139.34 1697.06 1136.03C1701.23 1131.16 1720.26 1143.1 1725.53 1144.39L1725.51 1144.4Z" fill="#1E3D34"></path>
<path d="M1608.06 733.419C1610.23 730.539 1612.21 724.474 1614.7 719.277C1617.2 714.08 1620.11 709.805 1623.91 710.576C1630.22 711.844 1628.89 719.271 1625.83 727.467C1624.33 731.558 1622.33 735.872 1620.65 739.691C1618.98 743.51 1617.56 746.847 1617.08 749.02C1618.66 750.061 1619.05 748.752 1620.19 747.91C1621.66 746.803 1624.87 744.007 1628 741.474C1631.14 738.941 1634.23 736.69 1635.39 736.638C1639.02 736.475 1641.39 740.523 1640.18 744.542C1639.12 748.173 1634.02 752.585 1628.5 756.617C1622.99 760.637 1616.96 764.291 1614.02 766.205C1617.66 767.253 1626.46 766.858 1634.9 766.84C1643.33 766.823 1651.36 767.183 1653.49 769.53C1656.47 772.84 1655.58 778.085 1651.51 780.31C1647.03 782.743 1634.96 780.151 1629.37 780.431C1628.35 780.477 1626.55 779.937 1626.32 781.569C1630.95 784.505 1647.54 790.148 1649.45 794.987C1651.61 800.465 1646.92 805.651 1642 804.41C1631.51 799.354 1621.03 794.249 1610.6 789.101C1609.88 789.603 1611.61 797.173 1613.5 805.157C1615.44 813.128 1617.54 821.503 1617.49 823.847C1617.32 829.09 1613.51 832.634 1609.38 830.627C1604.6 828.309 1604.86 814.413 1601.2 810.153C1602.02 817.483 1594.97 838.641 1588.19 827.293C1586.77 824.844 1586.68 817.481 1587.24 809.788C1587.51 805.942 1587.92 802.04 1588.38 798.636C1588.85 795.231 1589.34 792.366 1589.73 790.617C1585.97 792.097 1581.63 798.888 1577.44 805.252C1573.21 811.638 1569.16 817.576 1565.62 817.494C1557.74 814.494 1559.85 808.523 1564.61 802.084C1569.3 795.667 1576.63 788.842 1578.79 784.131C1567.61 785.112 1556.43 786.164 1545.22 787.288C1539.08 785.551 1539.2 776.366 1545.65 773.534C1555.38 769.254 1571.9 769.605 1582.18 768.103C1583.36 765.307 1582.47 766.288 1581.57 765.387C1577.13 760.932 1556.96 749.774 1564.05 738.765C1567.43 733.519 1572.15 735.119 1576.71 738.398C1581.29 741.666 1585.84 746.547 1588.92 747.981C1589.56 747.581 1587.96 742.348 1586.35 736.724C1584.72 731.112 1582.98 725.154 1583.19 723.533C1583.92 717.324 1591.25 716.024 1593.23 721.19C1594.77 726.197 1596.3 731.183 1597.93 736.125C1599.54 741.068 1601.12 745.992 1602.8 750.862C1604.48 745.061 1606.3 739.233 1608.07 733.419L1608.06 733.419Z" fill="#1E3D34"></path>
<path d="M1743.73 731.059C1741.39 735.589 1736.1 738.919 1732.38 734.971C1730.89 733.387 1730.7 730.742 1731.31 727.532C1731.91 724.322 1733.24 720.538 1734.96 716.748C1738.28 709.141 1742.84 701.479 1744.17 697.626C1740.6 698.186 1732.9 703.256 1725.56 708.14C1721.89 710.577 1718.24 712.933 1715.22 714.58C1712.2 716.226 1709.75 717.137 1708.39 716.658C1703.93 715.066 1704.69 709.656 1707.32 705.724C1708.56 703.857 1715.08 698.9 1721.31 694.386C1727.47 689.836 1733.38 685.747 1733.04 685.022C1728.97 684.564 1723.33 685.467 1717.77 686.327C1712.23 687.186 1706.78 688.011 1703.03 687.198C1698.05 686.14 1696.64 680.077 1700.81 675.606C1702.69 673.579 1710.08 672.648 1717.74 672.294C1725.45 671.948 1733.39 672.173 1736.37 672.16C1737.61 671.364 1733.38 667.729 1729.27 663.169C1727.22 660.888 1725.19 658.366 1723.88 655.863C1723.22 654.611 1722.75 653.371 1722.54 652.159C1722.36 650.956 1722.44 649.801 1722.87 648.711C1726.48 639.61 1732.03 642.995 1737.12 648.432C1742.21 653.88 1746.87 661.288 1748.5 660.775C1748.96 657.171 1748.79 650.982 1749.36 645.111C1749.62 642.166 1750.17 639.359 1751.04 637.017C1751.92 634.676 1753.12 632.8 1754.83 631.792C1761.2 628.033 1762.73 633.33 1763.07 640.182C1763.33 647.007 1762.67 655.525 1764.09 658.374C1768.24 653.153 1774.18 634.778 1782.34 638.717C1786.97 640.952 1785.81 645.539 1783.25 650.418C1781.99 652.867 1780.31 655.345 1778.98 657.707C1777.62 660.06 1776.48 662.213 1776.08 663.903C1779.46 663.281 1785.28 660.427 1790.98 658.8C1796.66 657.154 1801.99 656.615 1804.15 660.202C1805.58 662.56 1805.05 664.676 1803.37 666.583C1801.71 668.499 1798.94 670.235 1795.78 671.798C1789.5 674.913 1781.67 677.346 1779.04 679.005C1777.97 679.674 1776.85 679.484 1776.53 681.31C1779.53 682.887 1786.15 684.482 1792.32 686.478C1798.48 688.474 1804.22 690.86 1805.5 693.885C1806.58 696.409 1804.71 700.277 1802.64 701.781C1798.95 704.479 1775.89 696.304 1770.38 695.69C1773.62 701 1776.88 706.25 1780.16 711.428C1781.26 714.982 1785.49 721.9 1784.76 725.416C1783.85 730.121 1779.71 732.049 1775.79 729.922C1772.61 728.193 1768.99 722.159 1765.54 715.817C1762.07 709.476 1758.6 702.735 1755.48 699.842C1750.78 709.091 1748.22 722.129 1743.73 731.079L1743.73 731.059Z" fill="#1E3D34"></path>
<path d="M1613.2 1003.38C1615.62 1001.6 1621.01 1004.12 1623.83 1004.28C1630.95 1004.69 1638.21 1003.96 1645.22 1005.57C1646.17 1002.97 1645.37 1003.9 1644.39 1003.11C1640.63 1000.08 1625.21 993.051 1624.97 988.507C1623.93 969.404 1650.93 992.168 1656.18 994.765L1653.56 961.81L1655.64 955.981C1658.79 953.808 1663.3 955.177 1664.6 958.922L1669.05 993.107C1670.34 993.83 1670.67 993.015 1671.57 992.564C1675.95 990.415 1685.92 982.051 1690.43 978.505C1694.81 975.035 1699.55 966.755 1705.3 971.772C1713.14 978.608 1686.94 996.49 1683.58 1001.64C1689.46 1004.41 1720.43 999.202 1709.94 1014.66C1706.37 1019.92 1688.04 1015.7 1682.31 1016.75C1681.06 1017.98 1698.85 1036.66 1689.83 1043.39C1683.35 1048.2 1674.69 1030 1669.49 1027.16C1665.8 1034.02 1669.67 1061.57 1657.84 1056.44C1654.79 1055.12 1655.76 1052 1653.9 1050.09C1652.91 1056.38 1645.04 1059.7 1642.48 1053.6C1640.19 1048.14 1647.51 1030.51 1649 1023.86C1647.51 1023.04 1647.01 1024.22 1645.9 1024.82C1641.32 1027.34 1630.8 1038.51 1626.13 1035.88C1616.81 1026.34 1631.13 1022.94 1636.09 1016.72C1630.33 1015.1 1614.36 1017.41 1611.59 1011.14C1610.61 1008.91 1611.22 1004.82 1613.19 1003.36L1613.2 1003.38Z" fill="#1E3D34"></path>
<path d="M1901.1 829.459C1904.49 831.149 1905.94 834.378 1905.38 836.955C1904.85 839.572 1902.34 841.576 1897.75 840.771C1891.43 839.663 1884.31 837.56 1878.04 835.959C1877.98 839.365 1879.2 842.794 1880.48 846.27C1881.77 849.745 1883.1 853.22 1883.33 856.883C1883.74 863.821 1879.8 872.517 1872.56 866.205C1870.05 863.995 1870.18 854.459 1867.74 851.596C1866.81 854.44 1865.81 858.009 1864.12 860.587C1862.43 863.175 1860.03 864.734 1856.24 863.473C1851.82 861.999 1852.54 855.36 1853.98 849.099C1855.4 842.789 1857.58 836.906 1855.85 836.433C1852.8 837.741 1848.08 841.646 1843.38 844.49C1838.68 847.323 1833.93 848.998 1830.77 845.535C1828.39 842.929 1829.2 840.2 1831.1 837.853C1833 835.515 1835.99 833.53 1837.93 832.322C1833.33 831.727 1823.03 834.801 1822.1 827.786C1820.77 817.425 1841.18 819.913 1847.14 817.494C1844.2 813.332 1841.26 809.139 1838.34 804.916C1835.45 800.721 1832.56 796.486 1829.68 792.221C1827.07 786.312 1833.25 781.21 1838.11 785.146C1845.38 794.59 1852.8 803.917 1860.29 813.101C1862.36 810.105 1864.41 802.466 1866.88 795.478C1868.08 791.951 1869.43 788.627 1870.85 786.041C1872.26 783.445 1873.78 781.615 1875.43 781.19C1888.22 777.845 1882.22 796.312 1880.59 802.141C1882.69 801.296 1885.25 798.838 1887.99 797.014C1890.71 795.181 1893.53 793.893 1896.08 795.2C1900.84 797.639 1898.81 801.384 1895.8 804.932C1892.76 808.432 1888.63 811.63 1889.1 812.5C1894.04 813.269 1906.36 807.942 1907.36 815.555C1908.68 824.946 1892.44 821.169 1887.11 825.212C1891.2 827.01 1897.25 827.55 1901.06 829.461L1901.1 829.459Z" fill="#1E3D34"></path>
<path d="M1717.34 861.722C1716.45 858.97 1712.33 852.568 1710.08 846.683C1707.85 840.807 1707.57 835.504 1714.29 835.143C1721.51 834.779 1725.03 850.637 1728.51 855.766C1730.63 849.885 1729.04 832.549 1735.45 830.34C1742.25 828.013 1743.9 834.806 1743.65 842.965C1743.38 851.135 1741.22 860.752 1740.06 864.017C1746.35 863.995 1772.57 858.976 1770.31 870.989C1769.12 877.469 1758.09 877.733 1753.13 877.956C1752.15 880.462 1752.97 879.575 1753.91 880.373C1756.84 882.835 1763.17 884.313 1761.79 890.16C1759.63 899.306 1748.04 891.748 1743.61 889.654C1741.82 890.835 1752.58 912.155 1740.17 913.212C1734.34 913.713 1733.79 904.759 1731.37 900.853C1731.31 914.399 1719.35 924.766 1718.47 906.607L1717.11 906.308C1714.12 908.584 1711.11 910.751 1708.26 907.465C1703.38 901.818 1713.33 892.643 1716.05 887.586C1710.03 887.456 1702.57 892.095 1698 885.953C1697.07 880.79 1699.16 878.443 1703.24 876.479C1705.33 875.474 1708.21 875.795 1709.54 874.074C1705.93 871.333 1692.97 869.832 1692.81 863.823C1692.46 849.695 1711.38 860.618 1717.35 861.732L1717.34 861.722Z" fill="#1E3D34"></path>
<path d="M1806.2 1013.3L1792.64 1001.4C1791.98 979.408 1810.14 998.634 1816.69 1004.61C1817.18 1002.93 1817.46 999.857 1817.77 996.239C1818.08 992.632 1818.4 988.473 1818.97 984.594C1820.11 976.875 1822.24 970.243 1827.14 971.325C1831.76 972.309 1832.02 978.403 1831.19 985.117C1830.35 991.861 1828.42 999.245 1828.63 1002.79C1829.52 1004.38 1854.87 990.912 1860.88 993.405C1862.56 994.091 1863.76 996.38 1863.83 998.339C1864.1 1006.42 1848.52 1007.1 1844.12 1011.48C1851.26 1013.83 1860.1 1011.27 1866.13 1016.66L1864.92 1024.66C1861.82 1028.38 1837.4 1023.7 1832.02 1023.18C1838.33 1031 1844.63 1038.83 1850.91 1046.75C1847.22 1070.27 1826.87 1034.68 1825.44 1036.12C1824.67 1039.06 1825.05 1045.42 1824.58 1051.03C1824.08 1056.67 1822.74 1061.55 1818.54 1061.47C1809.77 1061.31 1813.43 1047 1813.02 1040.16L1803.91 1054.66C1793.64 1056.32 1794.73 1049.67 1798.23 1042.47C1801.73 1035.27 1807.66 1027.5 1807.2 1026.74C1802.06 1025.86 1788.57 1031.77 1787.21 1023.59C1785.4 1012.62 1800.21 1014.89 1806.19 1013.32L1806.2 1013.3Z" fill="#1E3D34"></path>
<path d="M1616.18 570.331C1616.76 566.532 1616 559.979 1616.04 553.721C1616.1 547.492 1617.06 541.633 1620.74 539.256C1626.47 535.595 1628.14 540.586 1628.42 547.28C1628.57 550.627 1628.35 554.41 1628.13 557.794C1627.95 561.205 1627.74 564.207 1627.78 565.968C1629.87 567.405 1629.12 566.648 1630.27 565.075C1631.44 563.491 1632.7 561.172 1634.17 558.704C1635.63 556.236 1637.19 553.554 1638.83 551.148C1642.11 546.336 1645.65 542.664 1649.09 544.021C1653.54 545.773 1651.86 551.434 1648.64 557.424C1647.05 560.429 1645.02 563.493 1643.23 566.236C1641.47 568.998 1639.88 571.381 1639.02 572.931C1639.17 573.825 1646.57 572.122 1653.72 571.831C1660.91 571.549 1667.86 572.649 1667.17 578.576C1666.47 585.394 1660.72 587.283 1654.79 588.18C1648.86 589.076 1642.73 588.951 1641.46 591.561C1645.09 597.124 1657.04 602.103 1652.88 611.959C1649.61 619.713 1644.52 618.39 1639.52 614.72C1634.51 611.061 1629.63 604.994 1626.68 603.495C1626.2 603.766 1625.68 606.082 1625.07 609.472C1624.5 612.881 1623.82 617.356 1622.9 621.902C1621.99 626.448 1620.73 631.048 1619.23 634.779C1617.7 638.501 1615.74 641.342 1613.17 642.318C1605.58 645.241 1604.85 636.245 1606.38 625.305C1608.08 614.409 1611.87 601.556 1612.93 597.294C1610.45 598.576 1607.93 599.85 1605.47 601.172L1598.09 605.176C1593.17 607.87 1588.23 610.614 1583.28 613.398C1579.75 614.748 1575.85 612.64 1576.15 608.042C1576.48 602.802 1583.21 597.415 1589.73 593.079C1596.37 588.797 1602.78 585.537 1602.47 583.989C1597.75 582.94 1581.07 584.328 1581.8 575.967C1582.58 567.454 1589.45 565.984 1597.04 566.775C1604.61 567.537 1612.79 570.403 1616.19 570.311L1616.18 570.331Z" fill="#1E3D34"></path>
<path d="M1897.72 600.842C1897.47 597.46 1895.38 592.878 1893.42 588.442C1891.45 584.006 1889.5 579.648 1889.34 576.693C1889.02 570.811 1894.56 567.429 1898.47 572.61C1899.33 573.752 1901.51 580.211 1903.7 586.249C1905.88 592.297 1908.07 597.925 1908.72 597.726C1909.86 594.171 1910.79 587.002 1912.21 580.122C1913.71 573.308 1915.65 566.754 1918.38 564.55C1922.15 561.598 1927.62 563.475 1928.44 568.363C1929.22 573.023 1927.61 579.852 1925.33 586.551C1924.15 589.887 1923.01 593.301 1921.85 596.376C1920.72 599.46 1919.66 602.26 1918.93 604.495C1920.5 606.057 1920.32 605.133 1921.36 604.666C1924.45 603.317 1929.7 598.447 1934.84 595.403C1940.06 592.387 1945.04 591.172 1947.41 596.782C1948.58 599.512 1944.74 602.477 1940.42 605.343C1936.07 608.181 1930.97 610.822 1929.4 612.524C1934.84 612.34 1940.25 612.188 1945.63 612.087C1951.02 611.985 1956.31 611.898 1961.72 611.926C1965.33 613.136 1967.1 615.469 1967.04 617.714C1966.98 619.959 1965.19 622.161 1961.48 623.108C1956.42 624.416 1950.08 624.01 1943.67 623.766C1937.33 623.55 1930.89 623.489 1925.58 625.409C1932.6 631.991 1942.74 636.141 1949.77 642.152C1952.52 644.491 1955.18 648.095 1952.54 651.167C1947.1 657.487 1930.87 643.279 1924.25 641.804C1927.64 647.408 1931.01 652.923 1934.52 658.421C1931.82 666.32 1927.91 664.503 1924.5 660.752C1921.09 657.001 1918.2 651.225 1917.37 651.412C1916.16 656.001 1918.54 663.102 1916.66 667.35C1915.15 670.851 1911.08 671.374 1907.99 668.94C1907.16 668.287 1906.43 666.377 1905.79 663.784C1905.47 662.486 1905.16 661.019 1904.88 659.45C1904.61 657.89 1904.4 656.238 1904.17 654.557C1903.3 647.839 1902.66 640.68 1901.79 637.936C1900.2 637.717 1895.77 643.342 1891.1 649.407C1886.54 655.517 1881.89 662.112 1879.5 663.61C1874.4 666.952 1869.3 659.984 1872.9 653.366C1875.22 649.098 1878.8 644.803 1882.77 640.731C1884.73 638.681 1886.71 636.65 1888.55 634.636C1889.48 633.633 1890.37 632.622 1891.21 631.624C1892.06 630.625 1892.89 629.657 1893.64 628.672C1893.58 628.024 1887.7 627.647 1881.52 627.404C1875.33 627.15 1868.71 626.977 1867.08 626.309C1865.75 625.768 1864.5 625.094 1863.71 623.818C1863 620.076 1864.11 617.794 1866.31 616.514C1868.54 615.243 1871.87 614.974 1875.5 615.181C1882.78 615.585 1891.39 617.912 1895.52 617.877C1896.67 617.866 1896.9 618.786 1897.65 616.681C1888.85 609.237 1880.14 601.75 1871.48 594.21C1868.28 591.541 1869.82 585.776 1873.36 583.875C1875.97 582.488 1880.88 586.031 1885.74 590.257C1890.61 594.484 1895.42 599.383 1897.72 600.832L1897.72 600.842Z" fill="#1E3D34"></path>
<path d="M1996.13 194.096C1997.82 193.54 1999.9 192.295 2002.2 190.861C2004.5 189.446 2007 187.813 2009.45 186.422C2014.36 183.639 2019.09 181.825 2021.78 184.618C2026.23 189.253 2021.09 194.549 2014 199.431C2010.44 201.853 2006.45 204.264 2002.92 206.424C1999.39 208.574 1996.33 210.483 1994.71 211.987C1995.41 213.738 1996.47 212.899 1997.88 212.866C2001.55 212.742 2014.72 211.11 2016.66 212.355C2019.73 214.289 2019.41 218.968 2016.16 221.566C2013.22 223.92 2006.57 224.609 1999.73 224.716C1992.93 224.88 1985.93 224.443 1982.39 224.332C1984.78 227.278 1992.24 231.988 1999.16 236.783C2006.08 241.578 2012.45 246.468 2012.85 249.613C2013.42 254.042 2009.71 257.852 2005.06 257.329C1999.98 256.756 1991.54 247.716 1986.81 244.774C1985.95 244.233 1984.78 242.753 1983.66 243.984C1985.78 249.055 1996.15 263.164 1994.96 268.243C1993.6 274 1986.71 275.58 1983.37 271.756C1977.67 261.631 1972.01 251.464 1966.38 241.256C1965.52 241.274 1962.48 248.478 1959.46 256.251C1956.4 263.996 1953.26 272.144 1951.86 274.109C1948.68 278.436 1943.45 279.281 1941.19 275.288C1938.57 270.671 1946.88 259.037 1946.35 253.465C1944.55 256.739 1939.1 261.878 1934.22 264.529C1929.34 267.171 1924.99 267.336 1925.53 260.625C1925.77 257.771 1930.03 251.434 1934.99 245.286C1939.97 239.166 1945.58 233.129 1948.26 230.637C1944.3 229.753 1936.79 233.003 1929.55 235.97C1925.91 237.434 1922.38 238.904 1919.4 239.729C1916.4 240.554 1913.95 240.734 1912.51 239.717C1910.1 236.241 1910.24 233.533 1911.94 231.324C1913.64 229.116 1916.89 227.428 1920.77 226.083C1928.51 223.364 1938.45 221.697 1943.04 219.049C1933.22 213.483 1923.38 208.088 1913.46 202.707C1909.4 197.794 1914.88 190.071 1921.91 191.428C1932.42 193.399 1945.84 203.087 1955.15 207.675C1957.72 206.018 1956.42 206.327 1956.2 205.075C1955.11 198.878 1945.05 178.208 1957.08 173.204C1962.86 170.863 1965.77 174.886 1967.66 180.157C1969.55 185.428 1970.49 192.042 1972.21 194.988C1972.58 195.012 1973.19 193.713 1973.93 191.728C1974.68 189.752 1975.58 187.09 1976.49 184.336C1978.32 178.838 1980.27 172.995 1981.32 171.777C1985.33 167.113 1992.1 170.343 1990.82 175.625C1987.76 185.542 1984.8 195.415 1981.95 205.282C1986.65 201.508 1991.41 197.821 1996.14 194.085L1996.13 194.096Z" fill="#1E3D34"></path>
<path d="M2108.84 269.393C2104.36 271.876 2098.1 271.606 2097.26 266.258C2096.61 262.003 2102.57 257.001 2109.63 252.641C2113.14 250.441 2116.89 248.351 2120.16 246.513C2123.45 244.704 2126.29 243.135 2127.91 241.911C2124.6 240.378 2115.41 240.319 2106.64 240.262C2097.86 240.165 2089.39 239.904 2087.71 237.597C2084.9 233.749 2088.57 229.811 2092.9 228.035C2094.95 227.212 2103.04 226.76 2110.67 226.498C2118.3 226.226 2125.39 226.008 2125.51 225.242C2119.24 219.977 2104.78 215.891 2099.44 210.395C2095.89 206.72 2098.03 201.038 2103.83 199.647C2106.45 199.029 2113.06 202.327 2119.63 206.276C2126.21 210.215 2132.71 214.739 2135.23 216.358C2136.68 216.363 2135.09 211.029 2134.07 204.988C2133.04 198.958 2132.58 192.182 2136.28 189.484C2144.01 183.822 2146.93 189.617 2148.38 196.919C2149.83 204.212 2149.84 212.98 2151.47 213.407C2153.76 210.612 2156.88 205.297 2160.43 200.663C2163.99 196.059 2168.04 192.274 2171.98 192.348C2179.33 192.528 2177.92 197.797 2174.63 203.77C2172.99 206.767 2170.85 209.906 2169.13 212.766C2167.41 215.626 2166.06 218.119 2165.9 219.698C2167.49 219.175 2169.59 217.98 2171.92 216.594C2174.25 215.219 2176.87 213.73 2179.41 212.495C2184.5 210.054 2189.4 208.814 2191.88 212.617C2194.68 216.935 2191.24 220.233 2186.46 223.05C2184.07 224.468 2181.32 225.743 2178.9 227.012C2176.48 228.292 2174.35 229.519 2173.11 230.745C2176.32 232.003 2182.8 232.663 2188.58 234.256C2194.33 235.81 2199.23 238.123 2199.14 242.331C2199.09 245.106 2197.48 246.65 2194.99 247.412C2192.49 248.165 2189.18 248.214 2185.62 247.883C2178.53 247.229 2170.59 245.193 2167.43 245.154C2166.16 245.141 2165.31 244.378 2164.03 245.757C2167.41 251.642 2182.88 265.403 2181.64 271.985C2181.14 274.72 2177.35 277.042 2174.74 277.229C2170.06 277.569 2155.21 258.165 2150.91 254.624C2150.68 260.861 2150.48 267.085 2150.31 273.279C2149.23 276.881 2148.77 284.95 2146.19 287.578C2142.74 291.036 2138.16 290.341 2136.11 286.388C2134.44 283.15 2134.9 276.142 2135.57 268.865C2136.25 261.627 2137.16 254.149 2136.13 249.971C2127.04 255.053 2117.67 264.583 2108.85 269.403L2108.84 269.393Z" fill="#1E3D34"></path>
<path d="M1848.59 430.031C1851.65 429.483 1855.2 434.279 1857.64 435.711C1863.8 439.339 1870.61 442.026 1876.04 446.738C1878.13 444.842 1876.98 445.304 1876.5 444.135C1874.63 439.674 1864.42 426.058 1866.51 421.79C1870.96 412.891 1876.19 416.841 1880.74 423.604C1885.29 430.367 1889.24 439.84 1890.92 442.227L1897.92 427.058C1900.26 421.978 1902.76 417.001 1905.2 411.947L1909.99 407.888C1913.83 407.596 1916.99 411.068 1916.19 414.998L1909.45 430.965C1907.25 436.289 1905.16 441.669 1903.03 446.989C1903.82 448.245 1904.5 447.684 1905.5 447.739C1907.94 447.86 1912.34 447.333 1916.81 446.682C1919.04 446.341 1921.3 445.99 1923.35 445.678C1925.42 445.375 1927.27 445.111 1928.69 444.908C1934.2 444.16 1942.29 439.543 1944.78 446.739C1946.51 451.647 1939.55 454.421 1931.54 456.532C1923.57 458.651 1914.37 460.004 1911.68 461.416C1913.61 464.023 1921.96 467.952 1927.77 472.266C1933.58 476.601 1936.84 481.189 1928.89 485.219C1923.47 487.955 1909.2 475.712 1903.66 473.918C1902.83 474.175 1904.18 480.381 1904.59 486.779C1904.95 493.159 1904.23 499.608 1898.79 500.483C1894.89 501.128 1892.88 496.553 1891.5 491.17C1890.11 485.797 1889.32 479.596 1887.65 477.158C1884.49 479.382 1880.67 486.961 1876.87 492.927C1873.02 498.856 1868.88 503.015 1864.58 498.253C1862.36 495.78 1864.56 493.369 1863.69 490.865C1860.1 496.101 1851.57 495.963 1851.79 489.277C1851.91 486.298 1855.58 481.529 1859.74 476.838C1860.78 475.671 1861.84 474.501 1862.89 473.363C1863.98 472.254 1865.03 471.166 1866.02 470.15C1868.01 468.109 1869.75 466.309 1870.85 464.979C1869.88 463.57 1868.89 464.406 1867.63 464.462C1865 464.58 1860.03 466.024 1855.33 466.926C1850.67 467.855 1846.27 468.233 1844.74 466.029C1843.7 462.812 1843.85 460.563 1844.75 458.961C1845.68 457.378 1847.36 456.442 1849.39 455.8C1853.46 454.517 1858.92 454.432 1862.6 452.706C1858.23 448.607 1842.77 443.695 1843.32 436.593C1843.42 435.327 1844.1 433.795 1845.08 432.53C1846.07 431.275 1847.35 430.286 1848.6 430.06L1848.59 430.031Z" fill="#1E3D34"></path>
<path d="M2181.84 440.285C2183.64 443.617 2182.94 447.112 2180.98 448.952C2179.01 450.782 2175.83 451.025 2172.52 447.74C2167.97 443.219 2163.34 437.421 2159.1 432.525C2155.12 438.119 2155.24 446.452 2151.62 452.621C2149.86 455.573 2146.98 458.184 2144.23 458.918C2141.48 459.652 2138.9 458.547 2137.66 453.907C2136.82 450.732 2142.23 443.102 2141.83 439.386C2137.16 442.909 2130.62 448.687 2125.86 442.344C2120.23 434.869 2142.9 422.841 2140.65 420.219C2137.4 419.515 2131.29 420.018 2125.89 419.64C2120.47 419.242 2115.65 417.877 2115.01 413.261C2114.04 406.287 2123.73 406.293 2128.31 406.599C2124.87 403.48 2114.67 400.073 2117.92 393.831C2122.76 384.605 2138.04 398.254 2144.37 399.682L2144.43 384.274L2144.51 376.523L2144.68 368.797C2145.99 362.403 2154.1 361.578 2155.82 367.627C2156.33 379.696 2156.9 391.583 2157.75 403.537C2159.49 402.879 2161.85 401.201 2164.63 399.195C2167.4 397.179 2170.5 394.767 2173.6 392.486C2176.68 390.196 2179.81 388.103 2182.57 386.708C2185.32 385.304 2187.7 384.596 2189.35 385.123C2195.76 387.188 2194.87 391.412 2191.79 395.564C2190.25 397.645 2188.15 399.702 2186.15 401.493C2184.17 403.304 2182.27 404.84 2181.05 405.806C2183.31 406.265 2186.9 405.644 2190.28 405.582C2193.68 405.54 2196.83 406.009 2198.18 408.541C2200.68 413.254 2196.66 415.376 2192.05 416.684C2187.41 417.973 2182.07 418.352 2181.94 419.319C2185.58 422.81 2199.05 425.149 2195.29 432.184C2193 436.481 2189.08 435.546 2184.89 433.612C2180.69 431.668 2176.19 428.676 2172.82 428.817C2175.15 432.637 2179.82 436.531 2181.85 440.284L2181.84 440.285Z" fill="#1E3D34"></path>
<path d="M2012.88 361.794C2013.7 359.055 2013.86 351.44 2015.31 345.318C2016.75 339.188 2019.58 334.706 2025.3 338.224C2028.38 340.118 2028.38 344.832 2027.63 349.821C2026.85 354.781 2025.43 360.14 2025.39 363.215C2030.38 359.568 2038.91 344.531 2045.38 346.313C2052.25 348.267 2049.8 354.813 2045.01 361.344C2040.16 367.828 2033.1 374.501 2030.32 376.507C2032.91 378.293 2040.32 381.835 2045.98 386.046C2051.64 390.246 2055.58 395.085 2051.39 399.317C2049.13 401.59 2045.69 401.214 2042.29 399.945C2038.91 398.695 2035.55 396.544 2033.46 395.246C2031.29 396.734 2032.44 396.482 2032.79 397.658C2033.88 401.313 2038.3 406.08 2034.02 410.026C2027.32 416.202 2021.78 403.607 2019.25 399.416C2018.18 399.374 2017.01 405.243 2014.81 410.326C2012.61 415.42 2009.31 419.692 2003.87 416.722C1998.72 413.91 2003.01 406.31 2003.11 401.772C2001.28 404.546 1998.94 406.714 1996.61 408.209C1994.31 409.724 1991.99 410.539 1990.16 410.521C1986.51 410.494 1984.81 407.136 1989.26 399.36L1988.28 398.362C1984.58 398.609 1980.92 398.792 1980.29 394.486C1979.73 390.787 1982.83 388.427 1986.65 386.643C1990.48 384.86 1995.03 383.675 1997.53 382.332C1992.61 378.879 1983.87 378.62 1983.43 370.982C1985.47 366.146 1988.55 365.397 1993.03 366.047C1995.32 366.385 1997.54 368.257 1999.58 367.575C1998.11 363.297 1988.21 354.822 1991.43 349.723C1993.3 346.715 1995.35 345.723 1997.39 345.982C1999.44 346.23 2001.48 347.71 2003.41 349.696C2007.27 353.667 2010.73 359.638 2012.89 361.783L2012.88 361.794Z" fill="#1E3D34"></path>
<path d="M2012.63 531.795C2010.38 526.411 2008.11 520.977 2005.98 515.567C2014.87 497.991 2021.94 522.579 2025.09 530.506C2026.19 529.476 2027.7 527.276 2029.48 524.654C2031.24 522.022 2033.26 518.969 2035.45 516.318C2039.81 510.977 2044.49 506.983 2048.1 510.465C2054.92 517.026 2038.38 529.69 2035.95 535.354C2035.99 536.204 2042.77 537.371 2049.96 539.03C2057.13 540.661 2064.88 542.906 2066.87 545.43C2067.98 546.841 2068.06 549.18 2067.31 550.655C2064.35 556.804 2051.03 549.033 2045.54 550.02C2050.66 555.496 2059.11 558.27 2062.12 565.403C2060.74 567.116 2059.44 568.866 2058.13 570.617C2054.17 571.715 2035.16 555.68 2030.79 552.543C2031.98 557.094 2033.21 561.624 2034.45 566.123C2035.73 570.64 2037.06 575.145 2038.39 579.62C2032.81 587.277 2028.62 582.14 2025.7 575.033C2022.77 567.937 2021.16 558.79 2020.31 558.959C2018.58 560.808 2016.63 565.78 2014.22 569.732C2011.86 573.712 2009.1 576.739 2005.46 574.659C2001.67 572.507 2001.79 569.158 2003.12 565.655C2003.45 564.78 2003.85 563.891 2004.3 563.02C2004.76 562.148 2005.26 561.295 2005.74 560.453C2006.7 558.778 2007.63 557.195 2008.17 555.839C2003.8 558.007 1999.38 560.187 1995.09 562.472C1990.34 560.653 1988.77 558.611 1989.09 556.504C1989.42 554.407 1991.64 552.246 1994.52 550.345C2000.27 546.504 2008.24 543.444 2008.18 542.645C2006.14 541.005 2001.65 539.645 1997.93 537.84C1994.2 536.035 1991.21 533.757 1992.23 530.197C1995.14 520.718 2006.92 529.959 2012.64 531.805L2012.63 531.795Z" fill="#1E3D34"></path>
<path d="M2086.2 67.2448C2090.62 61.7614 2095.79 44.3926 2104 44.4249C2110.33 44.4611 2109.5 49.4332 2106.76 55.102C2104 60.7712 2099.3 67.1381 2097.75 70.0205C2098.81 72.3252 2098.54 71.2961 2100.22 70.6505C2106.98 68.0251 2120.81 57.4551 2125.31 63.3292C2131.12 70.8968 2109.54 78.5808 2103.8 81.7613C2103.5 82.5653 2110.41 85.1987 2116.49 88.8102C2122.57 92.4111 2127.84 96.9895 2124.5 101.544C2116.91 111.924 2101.69 95.4094 2097.06 98.2195C2097.39 104.721 2104.87 115.297 2096.62 121.092C2090.14 125.657 2086.6 121.772 2084.28 116.02C2081.95 110.278 2080.87 102.659 2079.16 99.8227C2078.63 99.7765 2077.11 101.386 2074.96 103.785C2072.83 106.203 2070.1 109.438 2067.12 112.575C2064.14 115.722 2060.9 118.76 2057.78 120.881C2054.68 123.023 2051.66 124.199 2049.07 123.544C2041.44 121.624 2045.35 113.961 2052 106.085C2058.67 98.2689 2068.01 90.1527 2070.88 87.2411L2062.94 86.2357L2054.99 85.3211L2039 83.575C2035.5 82.6711 2033.36 78.7929 2035.79 75.3007C2038.55 71.3329 2046.56 70.8039 2053.95 71.0133C2061.35 71.2517 2068.13 72.149 2068.6 70.7366C2065.22 67.3044 2050.99 59.1836 2055.47 52.887C2060.03 46.476 2066.34 49.1263 2072.17 53.93C2078 58.6937 2083.39 65.479 2086.22 67.2539L2086.2 67.2448Z" fill="#1E3D34"></path>
<path d="M2313.38 235.238C2316.32 228.779 2315.26 215.063 2317.9 209.58C2320.5 204.127 2327.24 203.585 2328.27 209.995C2328.49 211.407 2327.29 218.217 2326.26 224.67C2325.22 231.133 2324.33 237.239 2325.03 237.358C2330.73 231.897 2343.23 212.948 2350.45 211.243C2355.36 210.162 2359.54 214.189 2357.92 219.056C2354.87 228.352 2338.31 241.227 2330.93 248.094C2331.56 250.218 2331.89 249.293 2333.09 249.329C2340.19 249.551 2362.75 240.942 2361.41 253.395C2360.81 259.417 2341.14 258.327 2336.42 260.101C2346.7 264.555 2356.9 269.052 2367.01 273.594C2372.53 278.902 2368.83 285.324 2360.79 283.893C2355.29 282.918 2349.55 279.792 2343.69 276.752C2337.89 273.758 2331.95 270.851 2326.06 270.265C2329.01 279.482 2336.13 287.822 2339.37 296.515C2340.63 299.882 2341.16 304.493 2336.92 306.135C2328.2 309.508 2321.2 289.061 2315.89 284.685C2315.91 291.351 2315.92 297.977 2316.02 304.639C2309.04 310.678 2306.5 307.208 2305.5 302.178C2304.5 297.137 2305.09 290.515 2304.24 290.302C2300.57 293.93 2298.79 301.598 2294.63 304.587C2291.21 307.042 2287.2 305.561 2285.81 301.879C2285.06 299.891 2287.59 293.581 2290.52 287.023C2293.45 280.466 2296.77 273.65 2297.48 270.766C2294.84 268.872 2269.14 282.907 2263.21 283.283C2256.75 283.733 2256.18 275.05 2263.04 270.908C2267.46 268.217 2273.11 266.232 2278.82 264.365C2281.67 263.426 2284.54 262.527 2287.29 261.572C2288.67 261.1 2290.01 260.61 2291.31 260.101C2292.63 259.621 2293.9 259.114 2295.1 258.57C2295.39 257.946 2290.27 254.892 2284.82 251.733C2279.4 248.593 2273.57 245.291 2272.47 243.909C2271.57 242.788 2270.81 241.6 2270.78 240.081C2272.1 236.387 2274.27 234.879 2276.91 234.781C2279.58 234.711 2282.7 236.033 2285.86 237.923C2292.21 241.712 2298.78 247.814 2302.58 249.716C2303.63 250.239 2303.35 251.173 2305.16 249.63L2293.04 217.281C2291.51 213.395 2295.73 208.901 2299.87 208.806C2305.9 208.676 2310.68 230.534 2313.4 235.227L2313.38 235.238Z" fill="#1E3D34"></path>
<path d="M2641.89 -4.30551C2636.9 -3.01085 2630.91 -4.85417 2631.47 -10.2446C2632.34 -18.8924 2659.62 -23.1689 2667.09 -26.4363C2661.36 -30.9543 2631.5 -34.9908 2629.35 -40.3502C2627.61 -44.7563 2632.02 -47.6471 2636.56 -48.2909C2640.86 -48.9044 2667.95 -41.7504 2668.53 -43.1976C2663.61 -49.7539 2650.65 -57.1107 2646.8 -63.7249C2644.23 -68.1342 2647.49 -73.1253 2653.29 -73.0953C2658.55 -73.0807 2675.68 -53.9289 2679.84 -49.6707C2682.64 -49.0155 2678.23 -71.8711 2686.36 -75.5791C2703.34 -83.3174 2693.21 -50.5407 2696.21 -49.0136C2701.81 -53.5386 2712.63 -67.2068 2720.26 -65.497C2734.49 -62.311 2710.92 -45.9388 2708.99 -39.8663C2715.68 -40.6168 2732.47 -50.2083 2735.9 -41.8035C2739.79 -32.2582 2719.7 -31.3775 2713.79 -27.5692C2719.55 -23.8535 2739.09 -19.4342 2737.2 -11.1512C2734.71 -0.228565 2711.33 -13.1848 2705.11 -14.5672C2703.84 -14.8509 2703.18 -15.7722 2701.61 -14.7007C2703.61 -8.21384 2715.95 8.50031 2713.19 14.68C2712.05 17.2638 2707.68 18.7508 2705.03 18.3991C2700.25 17.7627 2690.06 -4.44324 2686.65 -8.8449L2681.65 9.23726C2679.7 12.5077 2677.28 20.3739 2674.03 22.3117C2669.71 24.8878 2665.34 23.1315 2664.34 18.8021C2662.68 11.7093 2673.3 -8.08643 2673.23 -16.7017C2663.19 -13.7591 2651.71 -6.80798 2641.9 -4.2962L2641.89 -4.30551Z" fill="#1E3D34"></path>
<path d="M2345.53 59.4616C2348.48 60.2303 2349.8 66.0469 2351.43 68.3564C2355.53 74.1884 2360.61 79.4362 2363.66 85.9464C2366.3 85.0671 2365.08 85.0217 2365.1 83.7594C2365.18 78.9208 2361.3 62.3583 2364.83 59.3473C2379.66 46.8203 2377.77 82.1603 2378.97 87.8724L2403.74 65.7506L2409.66 63.8636C2413.3 65.0719 2414.91 69.4841 2412.7 72.7966L2388.15 97.0705C2388.36 98.5323 2389.21 98.294 2390.12 98.7441C2394.51 100.92 2407.17 103.795 2412.68 105.25C2418.07 106.66 2427.44 105.439 2426.93 113.059C2426.59 118.25 2419 118.29 2410.68 117.112C2402.37 115.933 2393.33 113.535 2390.28 113.762C2390.99 116.923 2397.09 123.867 2400.69 130.142C2404.3 136.427 2405.4 141.963 2396.29 142.551C2390.09 142.939 2382.08 125.921 2377.75 122.041C2376.87 121.931 2375.56 128.245 2373.17 134.199C2370.76 140.162 2367.28 145.754 2361.91 144.293C2354.15 142.209 2362.69 124.228 2361.72 118.406C2357.89 119.098 2351.2 124.383 2345.19 128.196C2339.14 131.95 2333.6 133.981 2331.78 127.806C2330.84 124.605 2333.86 123.368 2334.15 120.713C2328.68 123.961 2321.06 120.068 2324.14 114.174C2325.52 111.53 2330.82 108.79 2336.53 106.322C2337.96 105.707 2339.41 105.102 2340.84 104.537C2342.27 103.992 2343.68 103.459 2345.01 102.959C2347.66 101.959 2349.97 101.064 2351.52 100.324C2351.22 98.6458 2349.99 98.9816 2348.82 98.5032C2346.4 97.5009 2341.31 96.7081 2336.71 95.5028C2332.13 94.3367 2328.04 92.7984 2327.58 90.1563C2327.99 86.8146 2329.03 84.8559 2330.5 83.8093C2331.97 82.7822 2333.86 82.6577 2335.94 82.9446C2340.11 83.5284 2345.07 85.7686 2349.09 85.7684C2346.8 80.2454 2334.9 69.2377 2338.23 63.1124C2339.41 60.9372 2343.12 58.8189 2345.52 59.442L2345.53 59.4616Z" fill="#1E3D34"></path>
<path d="M2664.67 180.869C2666.13 188.331 2656.78 194.106 2652.2 185.993C2649.03 180.399 2646.25 173.517 2643.57 167.631C2637.45 172.11 2634.57 180.387 2628.51 185.493C2622.68 190.369 2612.66 192.801 2613.59 183.08C2613.91 179.732 2622.26 173.652 2623.2 169.906C2617.1 172.121 2608.29 176.07 2605.73 168.517C2602.74 159.702 2630.14 154.009 2628.78 150.797C2622.54 147.703 2603.18 146.479 2605.05 137.116C2606.47 130.055 2616.26 132.729 2620.84 134.216C2618.39 130.262 2609.24 124.195 2614.61 118.98C2622.52 111.287 2633.55 128.681 2639.57 131.634C2642.93 121.574 2646.27 111.474 2649.75 101.428C2653.02 95.4854 2661.53 96.6652 2661.47 103.005C2658.3 114.938 2655.1 126.814 2652.05 138.762C2660.02 137.805 2684.51 124.434 2690.71 127.98C2702.81 134.915 2681.85 143.863 2675.51 146.569C2679.95 148.513 2691.41 147.528 2692.63 153.159C2694.9 163.608 2672.91 158.288 2671.97 160.162C2674.58 164.469 2688.09 169.859 2681.71 176.001C2673.89 183.519 2666.35 168.732 2659.18 167.382C2660.31 171.726 2663.85 176.692 2664.68 180.899L2664.67 180.869Z" fill="#1E3D34"></path>
<path d="M2522.3 57.1121C2523.98 54.7647 2526.64 47.5583 2529.99 42.2227C2533.34 36.8776 2537.42 33.4713 2541.78 38.6009C2546.46 44.1168 2535.85 56.5246 2533.81 62.4218C2539.82 60.5407 2552.85 48.7856 2558.53 52.4848C2564.57 56.4282 2560.12 61.9333 2553.33 66.7119C2546.53 71.4514 2537.46 75.6018 2534.11 76.6527C2537.89 81.6685 2557.88 99.4714 2546.7 105.037C2540.69 108.03 2533.84 99.3577 2530.68 95.5352C2528.05 96.2537 2529.27 96.3793 2529.18 97.6144C2528.94 101.439 2531.53 107.399 2525.95 109.782C2517.19 113.517 2516.41 99.6985 2515.47 94.8861C2513.41 94.1274 2502.67 115.59 2494.42 106.22C2490.54 101.829 2497.42 96.0554 2499.13 91.7745C2488.2 99.8222 2472.74 96.3212 2486.83 84.8386L2486.26 83.5727C2482.65 82.5234 2479.12 81.4006 2480.07 77.1538C2481.7 69.8732 2495 72.3903 2500.69 71.5247C2497.19 66.6162 2489.03 63.4184 2491.24 56.0619C2494.83 52.2077 2497.98 52.5366 2501.99 54.6292C2504.04 55.7085 2505.52 58.2151 2507.69 58.2478C2507.74 53.7211 2501.2 42.4423 2505.92 38.7172C2517 29.9722 2519.62 51.657 2522.3 57.1121Z" fill="#1E3D34"></path>
<path d="M2455.46 218.298L2456.32 200.491C2472.63 187.007 2468.8 212.885 2468.23 221.619C2469.77 221.029 2472.25 219.457 2475.16 217.584C2478.07 215.702 2481.42 213.51 2484.77 211.738C2491.44 208.156 2497.84 205.997 2499.91 210.559C2503.82 219.172 2481.65 225.582 2476.7 230.128C2476.34 230.965 2482.49 234.473 2488.89 238.571C2495.28 242.659 2502.04 247.441 2502.86 250.557C2503.33 252.298 2502.3 254.586 2500.85 255.762C2494.94 260.692 2485.28 248.572 2479.39 247.595C2481.89 254.68 2489.02 260.297 2488.62 268.243L2482.06 271.86C2477.52 271.513 2466.39 249.269 2463.56 244.671L2460.62 258.987L2457.88 273.364C2448.54 278.698 2447.03 272.189 2447.66 264.283C2448.28 256.387 2451.1 247.072 2450.18 246.913C2445.02 249.146 2433.03 262.947 2428.04 256.214C2422.82 249.201 2435.14 243.753 2439.83 239.399L2423.97 240.681C2416.54 233.546 2421.93 230.502 2429.25 229.032C2436.57 227.573 2445.75 227.682 2446.07 226.897C2443.62 222.242 2431.18 215.052 2436.39 209.122C2443.49 201.286 2450.71 214.416 2455.45 218.278L2455.46 218.298Z" fill="#1E3D34"></path>
<g clip-path="url(#clip1_171_4888)">
<path d="M1254.23 50.2844C1256.01 50.2844 1257.46 48.8391 1257.46 47.0563C1257.46 45.2734 1256.01 43.8281 1254.23 43.8281C1252.45 43.8281 1251 45.2734 1251 47.0563C1251 48.8391 1252.45 50.2844 1254.23 50.2844Z" fill="#F3E8D9"></path>
<path d="M1316.56 50.2844C1318.35 50.2844 1319.79 48.8391 1319.79 47.0563C1319.79 45.2734 1318.35 43.8281 1316.56 43.8281C1314.78 43.8281 1313.33 45.2734 1313.33 47.0563C1313.33 48.8391 1314.78 50.2844 1316.56 50.2844Z" fill="#F3E8D9"></path>
<path d="M1378.89 50.2844C1380.68 50.2844 1382.12 48.8391 1382.12 47.0563C1382.12 45.2734 1380.68 43.8281 1378.89 43.8281C1377.11 43.8281 1375.66 45.2734 1375.66 47.0563C1375.66 48.8391 1377.11 50.2844 1378.89 50.2844Z" fill="#F3E8D9"></path>
<path d="M1441.28 50.2844C1443.07 50.2844 1444.51 48.8391 1444.51 47.0563C1444.51 45.2734 1443.07 43.8281 1441.28 43.8281C1439.5 43.8281 1438.05 45.2734 1438.05 47.0563C1438.05 48.8391 1439.5 50.2844 1441.28 50.2844Z" fill="#F3E8D9"></path>
<path d="M1503.61 50.2844C1505.4 50.2844 1506.84 48.8391 1506.84 47.0563C1506.84 45.2734 1505.4 43.8281 1503.61 43.8281C1501.83 43.8281 1500.38 45.2734 1500.38 47.0563C1500.38 48.8391 1501.83 50.2844 1503.61 50.2844Z" fill="#F3E8D9"></path>
<path d="M1565.94 50.2844C1567.73 50.2844 1569.17 48.8391 1569.17 47.0563C1569.17 45.2734 1567.73 43.8281 1565.94 43.8281C1564.16 43.8281 1562.71 45.2734 1562.71 47.0563C1562.71 48.8391 1564.16 50.2844 1565.94 50.2844Z" fill="#F3E8D9"></path>
<path d="M1628.33 50.2844C1630.12 50.2844 1631.56 48.8391 1631.56 47.0563C1631.56 45.2734 1630.12 43.8281 1628.33 43.8281C1626.55 43.8281 1625.1 45.2734 1625.1 47.0563C1625.1 48.8391 1626.55 50.2844 1628.33 50.2844Z" fill="#F3E8D9"></path>
<path d="M1690.67 50.2844C1692.45 50.2844 1693.9 48.8391 1693.9 47.0563C1693.9 45.2734 1692.45 43.8281 1690.67 43.8281C1688.88 43.8281 1687.44 45.2734 1687.44 47.0563C1687.44 48.8391 1688.88 50.2844 1690.67 50.2844Z" fill="#F3E8D9"></path>
<path d="M1753 50.2844C1754.78 50.2844 1756.23 48.8391 1756.23 47.0563C1756.23 45.2734 1754.78 43.8281 1753 43.8281C1751.21 43.8281 1749.77 45.2734 1749.77 47.0563C1749.77 48.8391 1751.21 50.2844 1753 50.2844Z" fill="#F3E8D9"></path>
<path d="M1815.39 50.2844C1817.17 50.2844 1818.62 48.8391 1818.62 47.0563C1818.62 45.2734 1817.17 43.8281 1815.39 43.8281C1813.6 43.8281 1812.16 45.2734 1812.16 47.0563C1812.16 48.8391 1813.6 50.2844 1815.39 50.2844Z" fill="#F3E8D9"></path>
<path d="M1877.72 50.2844C1879.5 50.2844 1880.95 48.8391 1880.95 47.0563C1880.95 45.2734 1879.5 43.8281 1877.72 43.8281C1875.93 43.8281 1874.49 45.2734 1874.49 47.0563C1874.49 48.8391 1875.93 50.2844 1877.72 50.2844Z" fill="#F3E8D9"></path>
<path d="M1940.11 50.2844C1941.89 50.2844 1943.34 48.8391 1943.34 47.0563C1943.34 45.2734 1941.89 43.8281 1940.11 43.8281C1938.32 43.8281 1936.88 45.2734 1936.88 47.0563C1936.88 48.8391 1938.32 50.2844 1940.11 50.2844Z" fill="#F3E8D9"></path>
<path d="M2002.44 50.2844C2004.22 50.2844 2005.67 48.8391 2005.67 47.0563C2005.67 45.2734 2004.22 43.8281 2002.44 43.8281C2000.66 43.8281 1999.21 45.2734 1999.21 47.0563C1999.21 48.8391 2000.66 50.2844 2002.44 50.2844Z" fill="#F3E8D9"></path>
<path d="M2064.77 50.2844C2066.55 50.2844 2068 48.8391 2068 47.0563C2068 45.2734 2066.55 43.8281 2064.77 43.8281C2062.99 43.8281 2061.54 45.2734 2061.54 47.0563C2061.54 48.8391 2062.99 50.2844 2064.77 50.2844Z" fill="#F3E8D9"></path>
<path d="M1254.23 113.771C1256.01 113.771 1257.46 112.325 1257.46 110.543C1257.46 108.76 1256.01 107.314 1254.23 107.314C1252.45 107.314 1251 108.76 1251 110.543C1251 112.325 1252.45 113.771 1254.23 113.771Z" fill="#F3E8D9"></path>
<path d="M1316.56 113.771C1318.35 113.771 1319.79 112.325 1319.79 110.543C1319.79 108.76 1318.35 107.314 1316.56 107.314C1314.78 107.314 1313.33 108.76 1313.33 110.543C1313.33 112.325 1314.78 113.771 1316.56 113.771Z" fill="#F3E8D9"></path>
<path d="M1378.89 113.771C1380.68 113.771 1382.12 112.325 1382.12 110.543C1382.12 108.76 1380.68 107.314 1378.89 107.314C1377.11 107.314 1375.66 108.76 1375.66 110.543C1375.66 112.325 1377.11 113.771 1378.89 113.771Z" fill="#F3E8D9"></path>
<path d="M1441.28 113.771C1443.07 113.771 1444.51 112.325 1444.51 110.543C1444.51 108.76 1443.07 107.314 1441.28 107.314C1439.5 107.314 1438.05 108.76 1438.05 110.543C1438.05 112.325 1439.5 113.771 1441.28 113.771Z" fill="#F3E8D9"></path>
<path d="M1503.61 113.771C1505.4 113.771 1506.84 112.325 1506.84 110.543C1506.84 108.76 1505.4 107.314 1503.61 107.314C1501.83 107.314 1500.38 108.76 1500.38 110.543C1500.38 112.325 1501.83 113.771 1503.61 113.771Z" fill="#F3E8D9"></path>
<path d="M1565.94 113.771C1567.73 113.771 1569.17 112.325 1569.17 110.543C1569.17 108.76 1567.73 107.314 1565.94 107.314C1564.16 107.314 1562.71 108.76 1562.71 110.543C1562.71 112.325 1564.16 113.771 1565.94 113.771Z" fill="#F3E8D9"></path>
<path d="M1628.33 113.771C1630.12 113.771 1631.56 112.325 1631.56 110.543C1631.56 108.76 1630.12 107.314 1628.33 107.314C1626.55 107.314 1625.1 108.76 1625.1 110.543C1625.1 112.325 1626.55 113.771 1628.33 113.771Z" fill="#F3E8D9"></path>
<path d="M1690.67 113.771C1692.45 113.771 1693.9 112.325 1693.9 110.543C1693.9 108.76 1692.45 107.314 1690.67 107.314C1688.88 107.314 1687.44 108.76 1687.44 110.543C1687.44 112.325 1688.88 113.771 1690.67 113.771Z" fill="#F3E8D9"></path>
<path d="M1753 113.771C1754.78 113.771 1756.23 112.325 1756.23 110.543C1756.23 108.76 1754.78 107.314 1753 107.314C1751.21 107.314 1749.77 108.76 1749.77 110.543C1749.77 112.325 1751.21 113.771 1753 113.771Z" fill="#F3E8D9"></path>
<path d="M1815.39 113.771C1817.17 113.771 1818.62 112.325 1818.62 110.543C1818.62 108.76 1817.17 107.314 1815.39 107.314C1813.6 107.314 1812.16 108.76 1812.16 110.543C1812.16 112.325 1813.6 113.771 1815.39 113.771Z" fill="#F3E8D9"></path>
<path d="M1877.72 113.771C1879.5 113.771 1880.95 112.325 1880.95 110.543C1880.95 108.76 1879.5 107.314 1877.72 107.314C1875.93 107.314 1874.49 108.76 1874.49 110.543C1874.49 112.325 1875.93 113.771 1877.72 113.771Z" fill="#F3E8D9"></path>
<path d="M1940.11 113.771C1941.89 113.771 1943.34 112.325 1943.34 110.543C1943.34 108.76 1941.89 107.314 1940.11 107.314C1938.32 107.314 1936.88 108.76 1936.88 110.543C1936.88 112.325 1938.32 113.771 1940.11 113.771Z" fill="#F3E8D9"></path>
<path d="M2002.44 113.771C2004.22 113.771 2005.67 112.325 2005.67 110.543C2005.67 108.76 2004.22 107.314 2002.44 107.314C2000.66 107.314 1999.21 108.76 1999.21 110.543C1999.21 112.325 2000.66 113.771 2002.44 113.771Z" fill="#F3E8D9"></path>
<path d="M2064.77 113.771C2066.55 113.771 2068 112.325 2068 110.543C2068 108.76 2066.55 107.314 2064.77 107.314C2062.99 107.314 2061.54 108.76 2061.54 110.543C2061.54 112.325 2062.99 113.771 2064.77 113.771Z" fill="#F3E8D9"></path>
<path d="M1254.23 177.198C1256.01 177.198 1257.46 175.753 1257.46 173.97C1257.46 172.188 1256.01 170.742 1254.23 170.742C1252.45 170.742 1251 172.188 1251 173.97C1251 175.753 1252.45 177.198 1254.23 177.198Z" fill="#F3E8D9"></path>
<path d="M1316.56 177.198C1318.35 177.198 1319.79 175.753 1319.79 173.97C1319.79 172.188 1318.35 170.742 1316.56 170.742C1314.78 170.742 1313.33 172.188 1313.33 173.97C1313.33 175.753 1314.78 177.198 1316.56 177.198Z" fill="#F3E8D9"></path>
<path d="M1378.89 177.198C1380.68 177.198 1382.12 175.753 1382.12 173.97C1382.12 172.188 1380.68 170.742 1378.89 170.742C1377.11 170.742 1375.66 172.188 1375.66 173.97C1375.66 175.753 1377.11 177.198 1378.89 177.198Z" fill="#F3E8D9"></path>
<path d="M1441.28 177.198C1443.07 177.198 1444.51 175.753 1444.51 173.97C1444.51 172.188 1443.07 170.742 1441.28 170.742C1439.5 170.742 1438.05 172.188 1438.05 173.97C1438.05 175.753 1439.5 177.198 1441.28 177.198Z" fill="#F3E8D9"></path>
<path d="M1503.61 177.198C1505.4 177.198 1506.84 175.753 1506.84 173.97C1506.84 172.188 1505.4 170.742 1503.61 170.742C1501.83 170.742 1500.38 172.188 1500.38 173.97C1500.38 175.753 1501.83 177.198 1503.61 177.198Z" fill="#F3E8D9"></path>
<path d="M1565.94 177.198C1567.73 177.198 1569.17 175.753 1569.17 173.97C1569.17 172.188 1567.73 170.742 1565.94 170.742C1564.16 170.742 1562.71 172.188 1562.71 173.97C1562.71 175.753 1564.16 177.198 1565.94 177.198Z" fill="#F3E8D9"></path>
<path d="M1628.33 177.198C1630.12 177.198 1631.56 175.753 1631.56 173.97C1631.56 172.188 1630.12 170.742 1628.33 170.742C1626.55 170.742 1625.1 172.188 1625.1 173.97C1625.1 175.753 1626.55 177.198 1628.33 177.198Z" fill="#F3E8D9"></path>
<path d="M1690.67 177.198C1692.45 177.198 1693.9 175.753 1693.9 173.97C1693.9 172.188 1692.45 170.742 1690.67 170.742C1688.88 170.742 1687.44 172.188 1687.44 173.97C1687.44 175.753 1688.88 177.198 1690.67 177.198Z" fill="#F3E8D9"></path>
<path d="M1753 177.198C1754.78 177.198 1756.23 175.753 1756.23 173.97C1756.23 172.188 1754.78 170.742 1753 170.742C1751.21 170.742 1749.77 172.188 1749.77 173.97C1749.77 175.753 1751.21 177.198 1753 177.198Z" fill="#F3E8D9"></path>
<path d="M1815.39 177.198C1817.17 177.198 1818.62 175.753 1818.62 173.97C1818.62 172.188 1817.17 170.742 1815.39 170.742C1813.6 170.742 1812.16 172.188 1812.16 173.97C1812.16 175.753 1813.6 177.198 1815.39 177.198Z" fill="#F3E8D9"></path>
<path d="M1877.72 177.198C1879.5 177.198 1880.95 175.753 1880.95 173.97C1880.95 172.188 1879.5 170.742 1877.72 170.742C1875.93 170.742 1874.49 172.188 1874.49 173.97C1874.49 175.753 1875.93 177.198 1877.72 177.198Z" fill="#F3E8D9"></path>
<path d="M1940.11 177.198C1941.89 177.198 1943.34 175.753 1943.34 173.97C1943.34 172.188 1941.89 170.742 1940.11 170.742C1938.32 170.742 1936.88 172.188 1936.88 173.97C1936.88 175.753 1938.32 177.198 1940.11 177.198Z" fill="#F3E8D9"></path>
<path d="M2002.44 177.198C2004.22 177.198 2005.67 175.753 2005.67 173.97C2005.67 172.188 2004.22 170.742 2002.44 170.742C2000.66 170.742 1999.21 172.188 1999.21 173.97C1999.21 175.753 2000.66 177.198 2002.44 177.198Z" fill="#F3E8D9"></path>
<path d="M2064.77 177.198C2066.55 177.198 2068 175.753 2068 173.97C2068 172.188 2066.55 170.742 2064.77 170.742C2062.99 170.742 2061.54 172.188 2061.54 173.97C2061.54 175.753 2062.99 177.198 2064.77 177.198Z" fill="#F3E8D9"></path>
<path d="M1254.23 240.685C1256.01 240.685 1257.46 239.24 1257.46 237.457C1257.46 235.674 1256.01 234.229 1254.23 234.229C1252.45 234.229 1251 235.674 1251 237.457C1251 239.24 1252.45 240.685 1254.23 240.685Z" fill="#F3E8D9"></path>
<path d="M1316.56 240.685C1318.35 240.685 1319.79 239.24 1319.79 237.457C1319.79 235.674 1318.35 234.229 1316.56 234.229C1314.78 234.229 1313.33 235.674 1313.33 237.457C1313.33 239.24 1314.78 240.685 1316.56 240.685Z" fill="#F3E8D9"></path>
<path d="M1378.89 240.685C1380.68 240.685 1382.12 239.24 1382.12 237.457C1382.12 235.674 1380.68 234.229 1378.89 234.229C1377.11 234.229 1375.66 235.674 1375.66 237.457C1375.66 239.24 1377.11 240.685 1378.89 240.685Z" fill="#F3E8D9"></path>
<path d="M1441.28 240.685C1443.07 240.685 1444.51 239.24 1444.51 237.457C1444.51 235.674 1443.07 234.229 1441.28 234.229C1439.5 234.229 1438.05 235.674 1438.05 237.457C1438.05 239.24 1439.5 240.685 1441.28 240.685Z" fill="#F3E8D9"></path>
<path d="M1503.61 240.685C1505.4 240.685 1506.84 239.24 1506.84 237.457C1506.84 235.674 1505.4 234.229 1503.61 234.229C1501.83 234.229 1500.38 235.674 1500.38 237.457C1500.38 239.24 1501.83 240.685 1503.61 240.685Z" fill="#F3E8D9"></path>
<path d="M1565.94 240.685C1567.73 240.685 1569.17 239.24 1569.17 237.457C1569.17 235.674 1567.73 234.229 1565.94 234.229C1564.16 234.229 1562.71 235.674 1562.71 237.457C1562.71 239.24 1564.16 240.685 1565.94 240.685Z" fill="#F3E8D9"></path>
<path d="M1628.33 240.685C1630.12 240.685 1631.56 239.24 1631.56 237.457C1631.56 235.674 1630.12 234.229 1628.33 234.229C1626.55 234.229 1625.1 235.674 1625.1 237.457C1625.1 239.24 1626.55 240.685 1628.33 240.685Z" fill="#F3E8D9"></path>
<path d="M1690.67 240.685C1692.45 240.685 1693.9 239.24 1693.9 237.457C1693.9 235.674 1692.45 234.229 1690.67 234.229C1688.88 234.229 1687.44 235.674 1687.44 237.457C1687.44 239.24 1688.88 240.685 1690.67 240.685Z" fill="#F3E8D9"></path>
<path d="M1753 240.685C1754.78 240.685 1756.23 239.24 1756.23 237.457C1756.23 235.674 1754.78 234.229 1753 234.229C1751.21 234.229 1749.77 235.674 1749.77 237.457C1749.77 239.24 1751.21 240.685 1753 240.685Z" fill="#F3E8D9"></path>
<path d="M1815.39 240.685C1817.17 240.685 1818.62 239.24 1818.62 237.457C1818.62 235.674 1817.17 234.229 1815.39 234.229C1813.6 234.229 1812.16 235.674 1812.16 237.457C1812.16 239.24 1813.6 240.685 1815.39 240.685Z" fill="#F3E8D9"></path>
<path d="M1877.72 240.685C1879.5 240.685 1880.95 239.24 1880.95 237.457C1880.95 235.674 1879.5 234.229 1877.72 234.229C1875.93 234.229 1874.49 235.674 1874.49 237.457C1874.49 239.24 1875.93 240.685 1877.72 240.685Z" fill="#F3E8D9"></path>
<path d="M1940.11 240.685C1941.89 240.685 1943.34 239.24 1943.34 237.457C1943.34 235.674 1941.89 234.229 1940.11 234.229C1938.32 234.229 1936.88 235.674 1936.88 237.457C1936.88 239.24 1938.32 240.685 1940.11 240.685Z" fill="#F3E8D9"></path>
<path d="M2002.44 240.685C2004.22 240.685 2005.67 239.24 2005.67 237.457C2005.67 235.674 2004.22 234.229 2002.44 234.229C2000.66 234.229 1999.21 235.674 1999.21 237.457C1999.21 239.24 2000.66 240.685 2002.44 240.685Z" fill="#F3E8D9"></path>
<path d="M2064.77 240.685C2066.55 240.685 2068 239.24 2068 237.457C2068 235.674 2066.55 234.229 2064.77 234.229C2062.99 234.229 2061.54 235.674 2061.54 237.457C2061.54 239.24 2062.99 240.685 2064.77 240.685Z" fill="#F3E8D9"></path>
<path d="M1254.23 304.172C1256.01 304.172 1257.46 302.727 1257.46 300.944C1257.46 299.161 1256.01 297.716 1254.23 297.716C1252.45 297.716 1251 299.161 1251 300.944C1251 302.727 1252.45 304.172 1254.23 304.172Z" fill="#F3E8D9"></path>
<path d="M1316.56 304.172C1318.35 304.172 1319.79 302.727 1319.79 300.944C1319.79 299.161 1318.35 297.716 1316.56 297.716C1314.78 297.716 1313.33 299.161 1313.33 300.944C1313.33 302.727 1314.78 304.172 1316.56 304.172Z" fill="#F3E8D9"></path>
<path d="M1378.89 304.172C1380.68 304.172 1382.12 302.727 1382.12 300.944C1382.12 299.161 1380.68 297.716 1378.89 297.716C1377.11 297.716 1375.66 299.161 1375.66 300.944C1375.66 302.727 1377.11 304.172 1378.89 304.172Z" fill="#F3E8D9"></path>
<path d="M1441.28 304.172C1443.07 304.172 1444.51 302.727 1444.51 300.944C1444.51 299.161 1443.07 297.716 1441.28 297.716C1439.5 297.716 1438.05 299.161 1438.05 300.944C1438.05 302.727 1439.5 304.172 1441.28 304.172Z" fill="#F3E8D9"></path>
<path d="M1503.61 304.172C1505.4 304.172 1506.84 302.727 1506.84 300.944C1506.84 299.161 1505.4 297.716 1503.61 297.716C1501.83 297.716 1500.38 299.161 1500.38 300.944C1500.38 302.727 1501.83 304.172 1503.61 304.172Z" fill="#F3E8D9"></path>
<path d="M1565.94 304.172C1567.73 304.172 1569.17 302.727 1569.17 300.944C1569.17 299.161 1567.73 297.716 1565.94 297.716C1564.16 297.716 1562.71 299.161 1562.71 300.944C1562.71 302.727 1564.16 304.172 1565.94 304.172Z" fill="#F3E8D9"></path>
<path d="M1628.33 304.172C1630.12 304.172 1631.56 302.727 1631.56 300.944C1631.56 299.161 1630.12 297.716 1628.33 297.716C1626.55 297.716 1625.1 299.161 1625.1 300.944C1625.1 302.727 1626.55 304.172 1628.33 304.172Z" fill="#F3E8D9"></path>
<path d="M1690.67 304.172C1692.45 304.172 1693.9 302.727 1693.9 300.944C1693.9 299.161 1692.45 297.716 1690.67 297.716C1688.88 297.716 1687.44 299.161 1687.44 300.944C1687.44 302.727 1688.88 304.172 1690.67 304.172Z" fill="#F3E8D9"></path>
<path d="M1753 304.172C1754.78 304.172 1756.23 302.727 1756.23 300.944C1756.23 299.161 1754.78 297.716 1753 297.716C1751.21 297.716 1749.77 299.161 1749.77 300.944C1749.77 302.727 1751.21 304.172 1753 304.172Z" fill="#F3E8D9"></path>
<path d="M1815.39 304.172C1817.17 304.172 1818.62 302.727 1818.62 300.944C1818.62 299.161 1817.17 297.716 1815.39 297.716C1813.6 297.716 1812.16 299.161 1812.16 300.944C1812.16 302.727 1813.6 304.172 1815.39 304.172Z" fill="#F3E8D9"></path>
<path d="M1877.72 304.172C1879.5 304.172 1880.95 302.727 1880.95 300.944C1880.95 299.161 1879.5 297.716 1877.72 297.716C1875.93 297.716 1874.49 299.161 1874.49 300.944C1874.49 302.727 1875.93 304.172 1877.72 304.172Z" fill="#F3E8D9"></path>
<path d="M1940.11 304.172C1941.89 304.172 1943.34 302.727 1943.34 300.944C1943.34 299.161 1941.89 297.716 1940.11 297.716C1938.32 297.716 1936.88 299.161 1936.88 300.944C1936.88 302.727 1938.32 304.172 1940.11 304.172Z" fill="#F3E8D9"></path>
<path d="M2002.44 304.172C2004.22 304.172 2005.67 302.727 2005.67 300.944C2005.67 299.161 2004.22 297.716 2002.44 297.716C2000.66 297.716 1999.21 299.161 1999.21 300.944C1999.21 302.727 2000.66 304.172 2002.44 304.172Z" fill="#F3E8D9"></path>
<path d="M2064.77 304.172C2066.55 304.172 2068 302.727 2068 300.944C2068 299.161 2066.55 297.716 2064.77 297.716C2062.99 297.716 2061.54 299.161 2061.54 300.944C2061.54 302.727 2062.99 304.172 2064.77 304.172Z" fill="#F3E8D9"></path>
<path d="M1254.23 367.599C1256.01 367.599 1257.46 366.154 1257.46 364.371C1257.46 362.588 1256.01 361.143 1254.23 361.143C1252.45 361.143 1251 362.588 1251 364.371C1251 366.154 1252.45 367.599 1254.23 367.599Z" fill="#F3E8D9"></path>
<path d="M1316.56 367.599C1318.35 367.599 1319.79 366.154 1319.79 364.371C1319.79 362.588 1318.35 361.143 1316.56 361.143C1314.78 361.143 1313.33 362.588 1313.33 364.371C1313.33 366.154 1314.78 367.599 1316.56 367.599Z" fill="#F3E8D9"></path>
<path d="M1378.89 367.599C1380.68 367.599 1382.12 366.154 1382.12 364.371C1382.12 362.588 1380.68 361.143 1378.89 361.143C1377.11 361.143 1375.66 362.588 1375.66 364.371C1375.66 366.154 1377.11 367.599 1378.89 367.599Z" fill="#F3E8D9"></path>
<path d="M1441.28 367.599C1443.07 367.599 1444.51 366.154 1444.51 364.371C1444.51 362.588 1443.07 361.143 1441.28 361.143C1439.5 361.143 1438.05 362.588 1438.05 364.371C1438.05 366.154 1439.5 367.599 1441.28 367.599Z" fill="#F3E8D9"></path>
<path d="M1503.61 367.599C1505.4 367.599 1506.84 366.154 1506.84 364.371C1506.84 362.588 1505.4 361.143 1503.61 361.143C1501.83 361.143 1500.38 362.588 1500.38 364.371C1500.38 366.154 1501.83 367.599 1503.61 367.599Z" fill="#F3E8D9"></path>
<path d="M1565.94 367.599C1567.73 367.599 1569.17 366.154 1569.17 364.371C1569.17 362.588 1567.73 361.143 1565.94 361.143C1564.16 361.143 1562.71 362.588 1562.71 364.371C1562.71 366.154 1564.16 367.599 1565.94 367.599Z" fill="#F3E8D9"></path>
<path d="M1628.33 367.599C1630.12 367.599 1631.56 366.154 1631.56 364.371C1631.56 362.588 1630.12 361.143 1628.33 361.143C1626.55 361.143 1625.1 362.588 1625.1 364.371C1625.1 366.154 1626.55 367.599 1628.33 367.599Z" fill="#F3E8D9"></path>
<path d="M1690.67 367.599C1692.45 367.599 1693.9 366.154 1693.9 364.371C1693.9 362.588 1692.45 361.143 1690.67 361.143C1688.88 361.143 1687.44 362.588 1687.44 364.371C1687.44 366.154 1688.88 367.599 1690.67 367.599Z" fill="#F3E8D9"></path>
<path d="M1753 367.599C1754.78 367.599 1756.23 366.154 1756.23 364.371C1756.23 362.588 1754.78 361.143 1753 361.143C1751.21 361.143 1749.77 362.588 1749.77 364.371C1749.77 366.154 1751.21 367.599 1753 367.599Z" fill="#F3E8D9"></path>
<path d="M1815.39 367.599C1817.17 367.599 1818.62 366.154 1818.62 364.371C1818.62 362.588 1817.17 361.143 1815.39 361.143C1813.6 361.143 1812.16 362.588 1812.16 364.371C1812.16 366.154 1813.6 367.599 1815.39 367.599Z" fill="#F3E8D9"></path>
<path d="M1877.72 367.599C1879.5 367.599 1880.95 366.154 1880.95 364.371C1880.95 362.588 1879.5 361.143 1877.72 361.143C1875.93 361.143 1874.49 362.588 1874.49 364.371C1874.49 366.154 1875.93 367.599 1877.72 367.599Z" fill="#F3E8D9"></path>
<path d="M1940.11 367.599C1941.89 367.599 1943.34 366.154 1943.34 364.371C1943.34 362.588 1941.89 361.143 1940.11 361.143C1938.32 361.143 1936.88 362.588 1936.88 364.371C1936.88 366.154 1938.32 367.599 1940.11 367.599Z" fill="#F3E8D9"></path>
<path d="M2002.44 367.599C2004.22 367.599 2005.67 366.154 2005.67 364.371C2005.67 362.588 2004.22 361.143 2002.44 361.143C2000.66 361.143 1999.21 362.588 1999.21 364.371C1999.21 366.154 2000.66 367.599 2002.44 367.599Z" fill="#F3E8D9"></path>
<path d="M2064.77 367.599C2066.55 367.599 2068 366.154 2068 364.371C2068 362.588 2066.55 361.143 2064.77 361.143C2062.99 361.143 2061.54 362.588 2061.54 364.371C2061.54 366.154 2062.99 367.599 2064.77 367.599Z" fill="#F3E8D9"></path>
<path d="M1254.23 431.086C1256.01 431.086 1257.46 429.641 1257.46 427.858C1257.46 426.075 1256.01 424.63 1254.23 424.63C1252.45 424.63 1251 426.075 1251 427.858C1251 429.641 1252.45 431.086 1254.23 431.086Z" fill="#F3E8D9"></path>
<path d="M1316.56 431.086C1318.35 431.086 1319.79 429.641 1319.79 427.858C1319.79 426.075 1318.35 424.63 1316.56 424.63C1314.78 424.63 1313.33 426.075 1313.33 427.858C1313.33 429.641 1314.78 431.086 1316.56 431.086Z" fill="#F3E8D9"></path>
<path d="M1378.89 431.086C1380.68 431.086 1382.12 429.641 1382.12 427.858C1382.12 426.075 1380.68 424.63 1378.89 424.63C1377.11 424.63 1375.66 426.075 1375.66 427.858C1375.66 429.641 1377.11 431.086 1378.89 431.086Z" fill="#F3E8D9"></path>
<path d="M1441.28 431.086C1443.07 431.086 1444.51 429.641 1444.51 427.858C1444.51 426.075 1443.07 424.63 1441.28 424.63C1439.5 424.63 1438.05 426.075 1438.05 427.858C1438.05 429.641 1439.5 431.086 1441.28 431.086Z" fill="#F3E8D9"></path>
<path d="M1503.61 431.086C1505.4 431.086 1506.84 429.641 1506.84 427.858C1506.84 426.075 1505.4 424.63 1503.61 424.63C1501.83 424.63 1500.38 426.075 1500.38 427.858C1500.38 429.641 1501.83 431.086 1503.61 431.086Z" fill="#F3E8D9"></path>
<path d="M1565.94 431.086C1567.73 431.086 1569.17 429.641 1569.17 427.858C1569.17 426.075 1567.73 424.63 1565.94 424.63C1564.16 424.63 1562.71 426.075 1562.71 427.858C1562.71 429.641 1564.16 431.086 1565.94 431.086Z" fill="#F3E8D9"></path>
<path d="M1628.33 431.086C1630.12 431.086 1631.56 429.641 1631.56 427.858C1631.56 426.075 1630.12 424.63 1628.33 424.63C1626.55 424.63 1625.1 426.075 1625.1 427.858C1625.1 429.641 1626.55 431.086 1628.33 431.086Z" fill="#F3E8D9"></path>
<path d="M1690.67 431.086C1692.45 431.086 1693.9 429.641 1693.9 427.858C1693.9 426.075 1692.45 424.63 1690.67 424.63C1688.88 424.63 1687.44 426.075 1687.44 427.858C1687.44 429.641 1688.88 431.086 1690.67 431.086Z" fill="#F3E8D9"></path>
<path d="M1753 431.086C1754.78 431.086 1756.23 429.641 1756.23 427.858C1756.23 426.075 1754.78 424.63 1753 424.63C1751.21 424.63 1749.77 426.075 1749.77 427.858C1749.77 429.641 1751.21 431.086 1753 431.086Z" fill="#F3E8D9"></path>
<path d="M1815.39 431.086C1817.17 431.086 1818.62 429.641 1818.62 427.858C1818.62 426.075 1817.17 424.63 1815.39 424.63C1813.6 424.63 1812.16 426.075 1812.16 427.858C1812.16 429.641 1813.6 431.086 1815.39 431.086Z" fill="#F3E8D9"></path>
<path d="M1877.72 431.086C1879.5 431.086 1880.95 429.641 1880.95 427.858C1880.95 426.075 1879.5 424.63 1877.72 424.63C1875.93 424.63 1874.49 426.075 1874.49 427.858C1874.49 429.641 1875.93 431.086 1877.72 431.086Z" fill="#F3E8D9"></path>
<path d="M1940.11 431.086C1941.89 431.086 1943.34 429.641 1943.34 427.858C1943.34 426.075 1941.89 424.63 1940.11 424.63C1938.32 424.63 1936.88 426.075 1936.88 427.858C1936.88 429.641 1938.32 431.086 1940.11 431.086Z" fill="#F3E8D9"></path>
<path d="M2002.44 431.086C2004.22 431.086 2005.67 429.641 2005.67 427.858C2005.67 426.075 2004.22 424.63 2002.44 424.63C2000.66 424.63 1999.21 426.075 1999.21 427.858C1999.21 429.641 2000.66 431.086 2002.44 431.086Z" fill="#F3E8D9"></path>
<path d="M2064.77 431.086C2066.55 431.086 2068 429.641 2068 427.858C2068 426.075 2066.55 424.63 2064.77 424.63C2062.99 424.63 2061.54 426.075 2061.54 427.858C2061.54 429.641 2062.99 431.086 2064.77 431.086Z" fill="#F3E8D9"></path>
<path d="M1254.23 494.573C1256.01 494.573 1257.46 493.127 1257.46 491.344C1257.46 489.562 1256.01 488.116 1254.23 488.116C1252.45 488.116 1251 489.562 1251 491.344C1251 493.127 1252.45 494.573 1254.23 494.573Z" fill="#F3E8D9"></path>
<path d="M1316.56 494.573C1318.35 494.573 1319.79 493.127 1319.79 491.344C1319.79 489.562 1318.35 488.116 1316.56 488.116C1314.78 488.116 1313.33 489.562 1313.33 491.344C1313.33 493.127 1314.78 494.573 1316.56 494.573Z" fill="#F3E8D9"></path>
<path d="M1378.89 494.573C1380.68 494.573 1382.12 493.127 1382.12 491.344C1382.12 489.562 1380.68 488.116 1378.89 488.116C1377.11 488.116 1375.66 489.562 1375.66 491.344C1375.66 493.127 1377.11 494.573 1378.89 494.573Z" fill="#F3E8D9"></path>
<path d="M1441.28 494.573C1443.07 494.573 1444.51 493.127 1444.51 491.344C1444.51 489.562 1443.07 488.116 1441.28 488.116C1439.5 488.116 1438.05 489.562 1438.05 491.344C1438.05 493.127 1439.5 494.573 1441.28 494.573Z" fill="#F3E8D9"></path>
<path d="M1503.61 494.573C1505.4 494.573 1506.84 493.127 1506.84 491.344C1506.84 489.562 1505.4 488.116 1503.61 488.116C1501.83 488.116 1500.38 489.562 1500.38 491.344C1500.38 493.127 1501.83 494.573 1503.61 494.573Z" fill="#F3E8D9"></path>
<path d="M1565.94 494.573C1567.73 494.573 1569.17 493.127 1569.17 491.344C1569.17 489.562 1567.73 488.116 1565.94 488.116C1564.16 488.116 1562.71 489.562 1562.71 491.344C1562.71 493.127 1564.16 494.573 1565.94 494.573Z" fill="#F3E8D9"></path>
<path d="M1628.33 494.573C1630.12 494.573 1631.56 493.127 1631.56 491.344C1631.56 489.562 1630.12 488.116 1628.33 488.116C1626.55 488.116 1625.1 489.562 1625.1 491.344C1625.1 493.127 1626.55 494.573 1628.33 494.573Z" fill="#F3E8D9"></path>
<path d="M1690.67 494.573C1692.45 494.573 1693.9 493.127 1693.9 491.344C1693.9 489.562 1692.45 488.116 1690.67 488.116C1688.88 488.116 1687.44 489.562 1687.44 491.344C1687.44 493.127 1688.88 494.573 1690.67 494.573Z" fill="#F3E8D9"></path>
<path d="M1753 494.573C1754.78 494.573 1756.23 493.127 1756.23 491.344C1756.23 489.562 1754.78 488.116 1753 488.116C1751.21 488.116 1749.77 489.562 1749.77 491.344C1749.77 493.127 1751.21 494.573 1753 494.573Z" fill="#F3E8D9"></path>
<path d="M1815.39 494.573C1817.17 494.573 1818.62 493.127 1818.62 491.344C1818.62 489.562 1817.17 488.116 1815.39 488.116C1813.6 488.116 1812.16 489.562 1812.16 491.344C1812.16 493.127 1813.6 494.573 1815.39 494.573Z" fill="#F3E8D9"></path>
<path d="M1877.72 494.573C1879.5 494.573 1880.95 493.127 1880.95 491.344C1880.95 489.562 1879.5 488.116 1877.72 488.116C1875.93 488.116 1874.49 489.562 1874.49 491.344C1874.49 493.127 1875.93 494.573 1877.72 494.573Z" fill="#F3E8D9"></path>
<path d="M1940.11 494.573C1941.89 494.573 1943.34 493.127 1943.34 491.344C1943.34 489.562 1941.89 488.116 1940.11 488.116C1938.32 488.116 1936.88 489.562 1936.88 491.344C1936.88 493.127 1938.32 494.573 1940.11 494.573Z" fill="#F3E8D9"></path>
<path d="M2002.44 494.573C2004.22 494.573 2005.67 493.127 2005.67 491.344C2005.67 489.562 2004.22 488.116 2002.44 488.116C2000.66 488.116 1999.21 489.562 1999.21 491.344C1999.21 493.127 2000.66 494.573 2002.44 494.573Z" fill="#F3E8D9"></path>
<path d="M2064.77 494.573C2066.55 494.573 2068 493.127 2068 491.344C2068 489.562 2066.55 488.116 2064.77 488.116C2062.99 488.116 2061.54 489.562 2061.54 491.344C2061.54 493.127 2062.99 494.573 2064.77 494.573Z" fill="#F3E8D9"></path>
<path d="M1254.23 558C1256.01 558 1257.46 556.555 1257.46 554.772C1257.46 552.989 1256.01 551.544 1254.23 551.544C1252.45 551.544 1251 552.989 1251 554.772C1251 556.555 1252.45 558 1254.23 558Z" fill="#F3E8D9"></path>
<path d="M1316.56 558C1318.35 558 1319.79 556.555 1319.79 554.772C1319.79 552.989 1318.35 551.544 1316.56 551.544C1314.78 551.544 1313.33 552.989 1313.33 554.772C1313.33 556.555 1314.78 558 1316.56 558Z" fill="#F3E8D9"></path>
<path d="M1378.89 558C1380.68 558 1382.12 556.555 1382.12 554.772C1382.12 552.989 1380.68 551.544 1378.89 551.544C1377.11 551.544 1375.66 552.989 1375.66 554.772C1375.66 556.555 1377.11 558 1378.89 558Z" fill="#F3E8D9"></path>
<path d="M1441.28 558C1443.07 558 1444.51 556.555 1444.51 554.772C1444.51 552.989 1443.07 551.544 1441.28 551.544C1439.5 551.544 1438.05 552.989 1438.05 554.772C1438.05 556.555 1439.5 558 1441.28 558Z" fill="#F3E8D9"></path>
<path d="M1503.61 558C1505.4 558 1506.84 556.555 1506.84 554.772C1506.84 552.989 1505.4 551.544 1503.61 551.544C1501.83 551.544 1500.38 552.989 1500.38 554.772C1500.38 556.555 1501.83 558 1503.61 558Z" fill="#F3E8D9"></path>
<path d="M1565.94 558C1567.73 558 1569.17 556.555 1569.17 554.772C1569.17 552.989 1567.73 551.544 1565.94 551.544C1564.16 551.544 1562.71 552.989 1562.71 554.772C1562.71 556.555 1564.16 558 1565.94 558Z" fill="#F3E8D9"></path>
<path d="M1628.33 558C1630.12 558 1631.56 556.555 1631.56 554.772C1631.56 552.989 1630.12 551.544 1628.33 551.544C1626.55 551.544 1625.1 552.989 1625.1 554.772C1625.1 556.555 1626.55 558 1628.33 558Z" fill="#F3E8D9"></path>
<path d="M1690.67 558C1692.45 558 1693.9 556.555 1693.9 554.772C1693.9 552.989 1692.45 551.544 1690.67 551.544C1688.88 551.544 1687.44 552.989 1687.44 554.772C1687.44 556.555 1688.88 558 1690.67 558Z" fill="#F3E8D9"></path>
<path d="M1753 558C1754.78 558 1756.23 556.555 1756.23 554.772C1756.23 552.989 1754.78 551.544 1753 551.544C1751.21 551.544 1749.77 552.989 1749.77 554.772C1749.77 556.555 1751.21 558 1753 558Z" fill="#F3E8D9"></path>
<path d="M1815.39 558C1817.17 558 1818.62 556.555 1818.62 554.772C1818.62 552.989 1817.17 551.544 1815.39 551.544C1813.6 551.544 1812.16 552.989 1812.16 554.772C1812.16 556.555 1813.6 558 1815.39 558Z" fill="#F3E8D9"></path>
<path d="M1877.72 558C1879.5 558 1880.95 556.555 1880.95 554.772C1880.95 552.989 1879.5 551.544 1877.72 551.544C1875.93 551.544 1874.49 552.989 1874.49 554.772C1874.49 556.555 1875.93 558 1877.72 558Z" fill="#F3E8D9"></path>
<path d="M1940.11 558C1941.89 558 1943.34 556.555 1943.34 554.772C1943.34 552.989 1941.89 551.544 1940.11 551.544C1938.32 551.544 1936.88 552.989 1936.88 554.772C1936.88 556.555 1938.32 558 1940.11 558Z" fill="#F3E8D9"></path>
<path d="M2002.44 558C2004.22 558 2005.67 556.555 2005.67 554.772C2005.67 552.989 2004.22 551.544 2002.44 551.544C2000.66 551.544 1999.21 552.989 1999.21 554.772C1999.21 556.555 2000.66 558 2002.44 558Z" fill="#F3E8D9"></path>
<path d="M2064.77 558C2066.55 558 2068 556.555 2068 554.772C2068 552.989 2066.55 551.544 2064.77 551.544C2062.99 551.544 2061.54 552.989 2061.54 554.772C2061.54 556.555 2062.99 558 2064.77 558Z" fill="#F3E8D9"></path>
</g>
</g>
<defs>
<clipPath id="clip0_171_4888">
<rect width="2730.49" height="2990.25" fill="white" transform="translate(2861.68 2755.25) rotate(177.433)"></rect>
</clipPath>
<clipPath id="clip1_171_4888">
<rect width="817" height="768" fill="white" transform="translate(1251 -210)"></rect>
</clipPath>
</defs>
</svg>