<svg xmlns="http://www.w3.org/2000/svg" width="264" height="277" viewBox="0 0 264 277" role="img" aria-label="Joshua Tree Health logo asset">
<path d="M 207.0 266.0 L 206.0 267.0 L 206.0 269.0 L 207.0 270.0 L 207.0 271.0 L 210.0 271.0 L 210.0 270.0 L 211.0 269.0 L 210.0 268.0 L 210.0 267.0 L 208.0 267.0 Z " fill="#b3b1af" fill-rule="evenodd"></path>
<path d="M 164.0 267.0 L 164.0 270.0 L 165.0 271.0 L 169.0 271.0 L 169.0 267.0 L 168.0 267.0 L 167.0 266.0 Z " fill="#c0b3d5" fill-rule="evenodd"></path>
<path d="M 115.0 265.0 L 115.0 272.0 L 116.0 273.0 L 118.0 271.0 L 120.0 273.0 L 120.0 272.0 L 121.0 271.0 L 122.0 271.0 L 124.0 274.0 L 125.0 274.0 L 127.0 272.0 L 128.0 272.0 L 131.0 274.0 L 131.0 273.0 L 134.0 271.0 L 136.0 274.0 L 136.0 273.0 L 137.0 272.0 L 138.0 272.0 L 139.0 273.0 L 139.0 274.0 L 139.0 273.0 L 140.0 272.0 L 140.0 270.0 L 141.0 269.0 L 142.0 270.0 L 142.0 272.0 L 144.0 274.0 L 145.0 274.0 L 146.0 273.0 L 149.0 272.0 L 149.0 269.0 L 150.0 268.0 L 151.0 269.0 L 151.0 272.0 L 153.0 272.0 L 154.0 271.0 L 154.0 268.0 L 153.0 268.0 L 151.0 265.0 L 151.0 266.0 L 150.0 267.0 L 149.0 266.0 L 149.0 265.0 L 147.0 265.0 L 147.0 266.0 L 146.0 267.0 L 145.0 266.0 L 145.0 265.0 L 143.0 265.0 L 140.0 268.0 L 139.0 267.0 L 139.0 265.0 L 136.0 264.0 L 135.0 265.0 L 135.0 269.0 L 134.0 270.0 L 133.0 269.0 L 133.0 267.0 L 132.0 266.0 L 131.0 267.0 L 130.0 266.0 L 127.0 267.0 L 125.0 265.0 L 124.0 265.0 L 122.0 267.0 L 120.0 265.0 L 119.0 265.0 L 118.0 266.0 L 116.0 264.0 Z M 134.0 270.0 L 135.0 269.0 L 136.0 270.0 L 135.0 271.0 Z M 127.0 270.0 L 128.0 269.0 L 129.0 270.0 L 129.0 271.0 L 128.0 272.0 L 127.0 271.0 Z M 141.0 269.0 L 142.0 268.0 L 143.0 269.0 L 142.0 270.0 Z M 139.0 269.0 L 140.0 268.0 L 141.0 269.0 L 140.0 270.0 Z M 135.0 268.0 L 136.0 267.0 L 137.0 268.0 L 137.0 269.0 L 136.0 270.0 L 135.0 269.0 Z M 120.0 267.0 L 121.0 266.0 L 122.0 267.0 L 121.0 268.0 Z M 123.0 266.0 L 124.0 265.0 L 125.0 266.0 L 124.0 267.0 Z " fill="#b7b4b1" fill-rule="evenodd"></path>
<path d="M 238.0 266.0 L 236.0 264.0 L 235.0 264.0 L 234.0 263.0 L 233.0 264.0 L 232.0 264.0 L 230.0 266.0 L 229.0 265.0 L 229.0 264.0 L 228.0 264.0 L 227.0 265.0 L 219.0 265.0 L 219.0 266.0 L 218.0 267.0 L 219.0 267.0 L 221.0 269.0 L 219.0 271.0 L 219.0 273.0 L 220.0 274.0 L 220.0 273.0 L 221.0 272.0 L 222.0 272.0 L 223.0 273.0 L 224.0 273.0 L 225.0 272.0 L 226.0 273.0 L 227.0 273.0 L 228.0 274.0 L 228.0 275.0 L 228.0 274.0 L 229.0 273.0 L 230.0 273.0 L 231.0 272.0 L 233.0 272.0 L 235.0 269.0 L 236.0 270.0 L 237.0 270.0 L 238.0 269.0 Z M 236.0 269.0 L 237.0 268.0 L 238.0 269.0 L 237.0 270.0 Z M 226.0 268.0 L 227.0 267.0 L 228.0 268.0 L 228.0 269.0 L 227.0 270.0 L 226.0 269.0 Z M 222.0 268.0 L 223.0 267.0 L 224.0 268.0 L 224.0 269.0 L 223.0 270.0 L 222.0 269.0 Z M 233.0 264.0 L 234.0 263.0 L 235.0 264.0 L 234.0 265.0 Z " fill="#b5b2b0" fill-rule="evenodd"></path>
<path d="M 179.0 271.0 L 180.0 272.0 L 182.0 272.0 L 182.0 271.0 L 181.0 270.0 L 182.0 269.0 L 183.0 269.0 L 185.0 271.0 L 185.0 272.0 L 186.0 273.0 L 187.0 273.0 L 189.0 271.0 L 190.0 272.0 L 191.0 272.0 L 192.0 271.0 L 193.0 272.0 L 194.0 272.0 L 195.0 271.0 L 195.0 270.0 L 196.0 269.0 L 197.0 270.0 L 197.0 269.0 L 199.0 267.0 L 196.0 264.0 L 195.0 265.0 L 193.0 265.0 L 193.0 266.0 L 192.0 267.0 L 191.0 266.0 L 191.0 265.0 L 190.0 265.0 L 190.0 266.0 L 189.0 267.0 L 188.0 266.0 L 188.0 265.0 L 185.0 265.0 L 184.0 264.0 L 181.0 263.0 L 180.0 264.0 L 180.0 270.0 Z M 191.0 268.0 L 192.0 267.0 L 193.0 268.0 L 192.0 269.0 Z M 184.0 266.0 L 185.0 265.0 L 186.0 266.0 L 185.0 267.0 Z M 181.0 264.0 L 182.0 263.0 L 183.0 264.0 L 182.0 265.0 Z " fill="#adaaa8" fill-rule="evenodd"></path>
<path d="M 68.0 265.0 L 68.0 272.0 L 73.0 272.0 L 74.0 273.0 L 76.0 271.0 L 78.0 273.0 L 78.0 274.0 L 79.0 274.0 L 81.0 272.0 L 91.0 272.0 L 92.0 273.0 L 92.0 275.0 L 92.0 273.0 L 93.0 272.0 L 94.0 273.0 L 95.0 272.0 L 97.0 274.0 L 99.0 274.0 L 101.0 272.0 L 102.0 272.0 L 103.0 273.0 L 102.0 274.0 L 107.0 274.0 L 106.0 273.0 L 107.0 272.0 L 108.0 272.0 L 106.0 270.0 L 106.0 265.0 L 101.0 265.0 L 100.0 266.0 L 99.0 266.0 L 98.0 265.0 L 97.0 266.0 L 96.0 266.0 L 95.0 267.0 L 96.0 268.0 L 96.0 270.0 L 95.0 271.0 L 94.0 270.0 L 93.0 267.0 L 91.0 265.0 L 90.0 265.0 L 89.0 266.0 L 89.0 268.0 L 88.0 269.0 L 87.0 268.0 L 87.0 267.0 L 81.0 267.0 L 80.0 266.0 L 79.0 267.0 L 77.0 267.0 L 74.0 264.0 L 73.0 264.0 L 72.0 265.0 L 70.0 263.0 L 70.0 264.0 L 69.0 265.0 Z M 103.0 273.0 L 104.0 272.0 L 105.0 272.0 L 106.0 273.0 L 105.0 274.0 L 104.0 274.0 Z M 71.0 271.0 L 72.0 270.0 L 73.0 271.0 L 72.0 272.0 Z M 81.0 269.0 L 82.0 268.0 L 83.0 269.0 L 82.0 270.0 Z M 101.0 268.0 L 102.0 267.0 L 103.0 267.0 L 104.0 268.0 L 104.0 269.0 L 103.0 270.0 L 102.0 270.0 L 101.0 269.0 Z M 101.0 265.0 L 102.0 266.0 L 102.0 267.0 L 101.0 268.0 L 100.0 268.0 L 99.0 267.0 Z " fill="#b8b6b3" fill-rule="evenodd"></path>
<path d="M 36.0 265.0 L 36.0 267.0 L 37.0 267.0 L 38.0 268.0 L 38.0 270.0 L 37.0 271.0 L 38.0 272.0 L 39.0 272.0 L 39.0 268.0 L 40.0 267.0 L 41.0 267.0 L 42.0 268.0 L 42.0 271.0 L 43.0 271.0 L 45.0 274.0 L 46.0 274.0 L 49.0 272.0 L 51.0 274.0 L 52.0 274.0 L 55.0 272.0 L 56.0 273.0 L 57.0 273.0 L 58.0 272.0 L 59.0 272.0 L 60.0 273.0 L 61.0 272.0 L 61.0 268.0 L 60.0 267.0 L 58.0 267.0 L 57.0 266.0 L 54.0 268.0 L 52.0 265.0 L 51.0 265.0 L 49.0 267.0 L 48.0 267.0 L 47.0 266.0 L 46.0 267.0 L 45.0 267.0 L 44.0 266.0 L 45.0 265.0 L 44.0 266.0 L 43.0 266.0 L 42.0 265.0 L 40.0 265.0 L 39.0 264.0 L 40.0 263.0 L 41.0 263.0 L 37.0 263.0 L 37.0 264.0 Z M 50.0 273.0 L 51.0 272.0 L 52.0 273.0 L 51.0 274.0 Z M 57.0 270.0 L 58.0 269.0 L 59.0 270.0 L 58.0 271.0 Z M 48.0 268.0 L 49.0 267.0 L 50.0 268.0 L 49.0 269.0 Z M 42.0 267.0 L 43.0 266.0 L 44.0 267.0 L 43.0 268.0 Z M 51.0 266.0 L 52.0 265.0 L 53.0 266.0 L 52.0 267.0 Z M 37.0 264.0 L 38.0 263.0 L 39.0 264.0 L 38.0 265.0 Z " fill="#b8b5b2" fill-rule="evenodd"></path>
<path d="M 193.0 262.0 L 195.0 262.0 Z " fill="#e9e1dd" fill-rule="evenodd"></path>
<path d="M 236.0 255.0 L 240.0 255.0 Z " fill="#e9e2dc" fill-rule="evenodd"></path>
<path d="M 199.0 255.0 L 201.0 255.0 Z " fill="#e8e0db" fill-rule="evenodd"></path>
<path d="M 118.0 254.0 L 122.0 254.0 Z " fill="#fcfaf7" fill-rule="evenodd"></path>
<path d="M 205.0 242.0 L 205.0 249.0 Z " fill="#eee3d9" fill-rule="evenodd"></path>
<path d="M 178.0 238.0 L 178.0 240.0 L 179.0 239.0 Z " fill="#ece4da" fill-rule="evenodd"></path>
<path d="M 233.0 235.0 L 233.0 239.0 Z " fill="#e8e2dc" fill-rule="evenodd"></path>
<path d="M 227.0 233.0 L 228.0 234.0 L 229.0 233.0 L 231.0 233.0 Z " fill="#e7e1db" fill-rule="evenodd"></path>
<path d="M 188.0 224.0 L 186.0 226.0 L 183.0 227.0 L 181.0 229.0 L 181.0 230.0 L 180.0 231.0 L 180.0 235.0 L 183.0 235.0 L 184.0 236.0 L 184.0 237.0 L 179.0 242.0 L 179.0 248.0 L 182.0 251.0 L 181.0 252.0 L 182.0 252.0 L 185.0 254.0 L 189.0 254.0 L 190.0 255.0 L 193.0 255.0 L 196.0 253.0 L 195.0 254.0 L 194.0 253.0 L 194.0 252.0 L 197.0 250.0 L 199.0 253.0 L 202.0 253.0 L 203.0 252.0 L 203.0 236.0 L 204.0 235.0 L 204.0 232.0 L 203.0 231.0 L 203.0 230.0 L 198.0 225.0 L 197.0 225.0 L 196.0 226.0 L 195.0 225.0 L 195.0 224.0 L 192.0 224.0 L 191.0 225.0 L 190.0 224.0 Z M 192.0 253.0 L 193.0 252.0 L 194.0 253.0 L 194.0 254.0 L 193.0 255.0 L 192.0 254.0 Z M 196.0 242.0 L 196.0 244.0 L 193.0 247.0 L 186.0 247.0 L 185.0 246.0 L 185.0 244.0 L 187.0 242.0 L 194.0 242.0 L 195.0 241.0 Z M 193.0 241.0 L 194.0 240.0 L 195.0 241.0 L 194.0 242.0 Z M 185.0 234.0 L 186.0 233.0 L 187.0 234.0 L 186.0 235.0 Z M 202.0 232.0 L 203.0 231.0 L 204.0 232.0 L 203.0 233.0 Z M 186.0 236.0 L 186.0 235.0 L 187.0 234.0 L 187.0 232.0 L 188.0 231.0 L 189.0 231.0 L 190.0 232.0 L 191.0 231.0 L 194.0 231.0 L 195.0 232.0 L 195.0 233.0 L 197.0 235.0 L 196.0 236.0 L 195.0 236.0 L 194.0 235.0 L 190.0 235.0 L 188.0 237.0 L 187.0 237.0 Z " fill="#747371" fill-rule="evenodd"></path>
<path d="M 154.0 226.0 L 152.0 228.0 L 153.0 229.0 L 152.0 230.0 L 151.0 230.0 L 150.0 231.0 L 149.0 230.0 L 149.0 234.0 L 150.0 235.0 L 150.0 237.0 L 149.0 238.0 L 149.0 242.0 L 150.0 242.0 L 151.0 243.0 L 150.0 244.0 L 150.0 245.0 L 151.0 245.0 L 152.0 246.0 L 151.0 247.0 L 152.0 248.0 L 153.0 248.0 L 156.0 251.0 L 156.0 252.0 L 157.0 253.0 L 159.0 253.0 L 160.0 254.0 L 165.0 254.0 L 166.0 255.0 L 168.0 255.0 L 167.0 254.0 L 168.0 253.0 L 169.0 253.0 L 170.0 254.0 L 170.0 252.0 L 171.0 251.0 L 174.0 251.0 L 175.0 250.0 L 174.0 249.0 L 174.0 248.0 L 175.0 247.0 L 176.0 247.0 L 177.0 248.0 L 177.0 247.0 L 176.0 246.0 L 177.0 245.0 L 176.0 244.0 L 171.0 244.0 L 170.0 245.0 L 168.0 245.0 L 168.0 247.0 L 167.0 248.0 L 166.0 247.0 L 161.0 247.0 L 158.0 244.0 L 157.0 244.0 L 156.0 243.0 L 157.0 242.0 L 175.0 242.0 L 176.0 241.0 L 176.0 237.0 L 177.0 236.0 L 177.0 235.0 L 176.0 234.0 L 176.0 233.0 L 177.0 232.0 L 176.0 232.0 L 175.0 231.0 L 176.0 230.0 L 175.0 230.0 L 171.0 226.0 L 170.0 227.0 L 169.0 226.0 L 169.0 225.0 L 168.0 225.0 L 167.0 224.0 L 160.0 224.0 L 160.0 225.0 L 159.0 226.0 L 158.0 225.0 L 158.0 226.0 L 157.0 227.0 Z M 149.0 233.0 L 150.0 232.0 L 151.0 233.0 L 150.0 234.0 Z M 158.0 233.0 L 161.0 231.0 L 166.0 231.0 L 167.0 232.0 L 168.0 232.0 L 169.0 233.0 L 169.0 234.0 L 168.0 235.0 L 160.0 235.0 Z M 150.0 231.0 L 151.0 230.0 L 152.0 230.0 L 153.0 231.0 L 152.0 232.0 L 151.0 232.0 Z M 155.0 226.0 L 156.0 227.0 L 154.0 229.0 L 153.0 229.0 L 152.0 228.0 L 154.0 226.0 Z " fill="#7d7c7a" fill-rule="evenodd"></path>
<path d="M 46.0 224.0 L 41.0 224.0 L 40.0 225.0 L 39.0 225.0 L 37.0 227.0 L 34.0 225.0 L 35.0 224.0 L 32.0 224.0 L 33.0 225.0 L 32.0 226.0 L 30.0 226.0 L 30.0 245.0 L 31.0 246.0 L 31.0 253.0 L 35.0 253.0 L 36.0 252.0 L 36.0 238.0 L 38.0 236.0 L 38.0 235.0 L 40.0 232.0 L 42.0 232.0 L 43.0 231.0 L 45.0 231.0 L 46.0 230.0 L 47.0 230.0 L 47.0 225.0 Z M 38.0 226.0 L 39.0 225.0 L 40.0 226.0 L 39.0 227.0 Z " fill="#727170" fill-rule="evenodd"></path>
<path d="M 105.0 238.0 L 104.0 237.0 L 104.0 235.0 L 102.0 234.0 L 103.0 233.0 L 102.0 230.0 L 98.0 226.0 L 97.0 227.0 L 96.0 225.0 L 95.0 226.0 L 94.0 225.0 L 94.0 223.0 L 92.0 224.0 L 87.0 223.0 L 88.0 224.0 L 86.0 226.0 L 85.0 225.0 L 84.0 226.0 L 83.0 225.0 L 83.0 227.0 L 80.0 230.0 L 77.0 231.0 L 79.0 232.0 L 78.0 233.0 L 76.0 233.0 L 77.0 234.0 L 76.0 236.0 L 74.0 234.0 L 73.0 230.0 L 68.0 225.0 L 66.0 224.0 L 57.0 224.0 L 53.0 227.0 L 52.0 226.0 L 49.0 229.0 L 50.0 231.0 L 49.0 232.0 L 49.0 234.0 L 47.0 235.0 L 47.0 243.0 L 48.0 244.0 L 48.0 246.0 L 50.0 247.0 L 49.0 248.0 L 52.0 251.0 L 54.0 251.0 L 55.0 252.0 L 55.0 254.0 L 56.0 253.0 L 57.0 254.0 L 65.0 254.0 L 69.0 252.0 L 73.0 247.0 L 73.0 244.0 L 71.0 243.0 L 74.0 241.0 L 78.0 244.0 L 77.0 246.0 L 82.0 252.0 L 86.0 254.0 L 93.0 254.0 L 94.0 255.0 L 95.0 253.0 L 97.0 254.0 L 98.0 253.0 L 98.0 251.0 L 101.0 248.0 L 103.0 248.0 L 102.0 247.0 L 104.0 246.0 L 103.0 244.0 L 97.0 244.0 L 94.0 248.0 L 93.0 247.0 L 88.0 247.0 L 86.0 246.0 L 84.0 243.0 L 85.0 242.0 L 102.0 242.0 L 105.0 239.0 Z M 85.0 253.0 L 86.0 252.0 L 87.0 253.0 L 86.0 254.0 Z M 81.0 251.0 L 82.0 250.0 L 83.0 251.0 L 82.0 252.0 Z M 66.0 244.0 L 67.0 243.0 L 68.0 244.0 L 67.0 245.0 Z M 55.0 244.0 L 56.0 243.0 L 65.0 243.0 L 66.0 244.0 L 65.0 245.0 L 66.0 246.0 L 65.0 247.0 L 64.0 247.0 L 63.0 246.0 L 62.0 247.0 L 59.0 247.0 L 58.0 248.0 L 57.0 247.0 L 57.0 246.0 Z M 54.0 243.0 L 55.0 242.0 L 56.0 243.0 L 55.0 244.0 Z M 74.0 241.0 L 75.0 240.0 L 76.0 241.0 L 75.0 242.0 Z M 84.0 234.0 L 85.0 233.0 L 86.0 234.0 L 85.0 235.0 Z M 66.0 234.0 L 67.0 233.0 L 68.0 234.0 L 67.0 235.0 Z M 54.0 234.0 L 55.0 233.0 L 56.0 233.0 L 57.0 234.0 L 56.0 235.0 L 55.0 235.0 Z M 95.0 233.0 L 96.0 232.0 L 97.0 233.0 L 96.0 234.0 Z M 56.0 233.0 L 58.0 231.0 L 64.0 231.0 L 65.0 232.0 L 65.0 233.0 L 67.0 235.0 L 66.0 236.0 L 64.0 236.0 L 63.0 235.0 L 58.0 235.0 Z M 86.0 231.0 L 87.0 230.0 L 88.0 231.0 L 88.0 232.0 L 89.0 232.0 L 90.0 231.0 L 93.0 231.0 L 96.0 234.0 L 95.0 235.0 L 87.0 235.0 L 86.0 234.0 Z M 49.0 229.0 L 50.0 228.0 L 51.0 229.0 L 51.0 230.0 L 50.0 231.0 L 49.0 230.0 Z M 50.0 228.0 L 51.0 227.0 L 52.0 228.0 L 51.0 229.0 Z M 51.0 227.0 L 52.0 226.0 L 53.0 227.0 L 52.0 228.0 Z " fill="#7c7b7a" fill-rule="evenodd"></path>
<path d="M 233.0 217.0 L 233.0 219.0 Z " fill="#e9e2dc" fill-rule="evenodd"></path>
<path d="M 224.0 216.0 L 223.0 217.0 L 220.0 217.0 L 219.0 218.0 L 218.0 218.0 L 218.0 221.0 L 217.0 222.0 L 216.0 222.0 L 216.0 223.0 L 215.0 224.0 L 216.0 225.0 L 216.0 230.0 L 217.0 230.0 L 218.0 231.0 L 218.0 232.0 L 217.0 233.0 L 215.0 233.0 L 216.0 234.0 L 216.0 235.0 L 217.0 235.0 L 218.0 236.0 L 218.0 238.0 L 219.0 239.0 L 219.0 249.0 L 221.0 251.0 L 221.0 252.0 L 224.0 253.0 L 226.0 255.0 L 231.0 255.0 L 230.0 254.0 L 233.0 251.0 L 233.0 248.0 L 232.0 248.0 L 231.0 247.0 L 231.0 246.0 L 231.0 247.0 L 230.0 248.0 L 227.0 248.0 L 226.0 247.0 L 227.0 246.0 L 226.0 247.0 L 225.0 246.0 L 225.0 245.0 L 226.0 244.0 L 226.0 238.0 L 225.0 237.0 L 225.0 231.0 L 226.0 230.0 L 227.0 230.0 L 228.0 231.0 L 229.0 230.0 L 230.0 230.0 L 231.0 231.0 L 232.0 230.0 L 233.0 230.0 L 233.0 226.0 L 232.0 226.0 L 231.0 225.0 L 231.0 224.0 L 228.0 222.0 L 228.0 218.0 L 228.0 223.0 L 227.0 224.0 L 226.0 223.0 L 226.0 219.0 Z M 219.0 249.0 L 220.0 248.0 L 221.0 249.0 L 220.0 250.0 Z M 218.0 233.0 L 219.0 232.0 L 220.0 233.0 L 219.0 234.0 Z M 227.0 224.0 L 228.0 223.0 L 229.0 224.0 L 228.0 225.0 Z M 225.0 224.0 L 226.0 223.0 L 227.0 224.0 L 226.0 225.0 Z M 215.0 224.0 L 216.0 223.0 L 218.0 223.0 L 219.0 224.0 L 218.0 225.0 L 216.0 225.0 Z M 218.0 223.0 L 219.0 222.0 L 220.0 223.0 L 219.0 224.0 Z " fill="#7a7877" fill-rule="evenodd"></path>
<path d="M 117.0 217.0 L 117.0 233.0 L 116.0 234.0 L 116.0 238.0 L 117.0 239.0 L 117.0 246.0 L 116.0 247.0 L 116.0 252.0 L 117.0 251.0 L 118.0 252.0 L 124.0 252.0 L 124.0 239.0 L 125.0 238.0 L 126.0 239.0 L 129.0 239.0 L 130.0 238.0 L 137.0 238.0 L 138.0 239.0 L 139.0 239.0 L 140.0 238.0 L 141.0 239.0 L 141.0 243.0 L 140.0 244.0 L 140.0 252.0 L 141.0 252.0 L 142.0 253.0 L 141.0 254.0 L 146.0 254.0 L 145.0 253.0 L 146.0 252.0 L 147.0 252.0 L 147.0 249.0 L 146.0 248.0 L 146.0 227.0 L 148.0 225.0 L 148.0 218.0 L 147.0 217.0 L 140.0 217.0 L 140.0 231.0 L 139.0 232.0 L 136.0 232.0 L 135.0 231.0 L 135.0 230.0 L 133.0 230.0 L 131.0 232.0 L 124.0 232.0 L 123.0 231.0 L 124.0 230.0 L 123.0 229.0 L 123.0 217.0 L 122.0 216.0 Z " fill="#6c6b6b" fill-rule="evenodd"></path>
<path d="M 208.0 215.0 L 208.0 216.0 L 207.0 217.0 L 207.0 226.0 L 208.0 227.0 L 208.0 239.0 L 207.0 240.0 L 207.0 249.0 L 208.0 250.0 L 208.0 252.0 L 209.0 253.0 L 209.0 254.0 L 213.0 254.0 L 212.0 253.0 L 213.0 252.0 L 214.0 252.0 L 214.0 240.0 L 213.0 239.0 L 213.0 223.0 L 214.0 222.0 L 214.0 217.0 L 212.0 215.0 Z " fill="#71706f" fill-rule="evenodd"></path>
<path d="M 141.0 215.0 L 145.0 215.0 Z " fill="#fbf9f6" fill-rule="evenodd"></path>
<path d="M 237.0 214.0 L 237.0 215.0 L 235.0 217.0 L 235.0 219.0 L 236.0 220.0 L 236.0 235.0 L 235.0 236.0 L 235.0 241.0 L 236.0 242.0 L 236.0 243.0 L 235.0 244.0 L 235.0 252.0 L 236.0 253.0 L 241.0 253.0 L 243.0 251.0 L 243.0 237.0 L 242.0 237.0 L 241.0 236.0 L 243.0 234.0 L 244.0 235.0 L 244.0 234.0 L 245.0 233.0 L 245.0 231.0 L 246.0 230.0 L 247.0 231.0 L 247.0 232.0 L 250.0 232.0 L 250.0 231.0 L 251.0 230.0 L 253.0 233.0 L 253.0 235.0 L 254.0 234.0 L 255.0 235.0 L 255.0 253.0 L 256.0 254.0 L 259.0 254.0 L 259.0 253.0 L 260.0 252.0 L 261.0 252.0 L 261.0 234.0 L 259.0 232.0 L 260.0 231.0 L 259.0 230.0 L 259.0 229.0 L 258.0 229.0 L 256.0 227.0 L 256.0 226.0 L 254.0 226.0 L 252.0 224.0 L 253.0 223.0 L 252.0 223.0 L 251.0 224.0 L 246.0 224.0 L 243.0 226.0 L 242.0 225.0 L 242.0 217.0 L 241.0 216.0 L 241.0 215.0 L 239.0 215.0 L 238.0 214.0 Z " fill="#737170" fill-rule="evenodd"></path>
<path d="M 199.0 214.0 L 202.0 214.0 Z " fill="#e9e2da" fill-rule="evenodd"></path>
<path d="M 85.0 214.0 L 88.0 214.0 Z " fill="#e9e2db" fill-rule="evenodd"></path>
<path d="M 4.0 215.0 L 4.0 216.0 L 3.0 217.0 L 2.0 217.0 L 2.0 220.0 L 5.0 223.0 L 10.0 223.0 L 11.0 222.0 L 12.0 222.0 L 13.0 223.0 L 12.0 224.0 L 13.0 225.0 L 13.0 226.0 L 12.0 227.0 L 12.0 228.0 L 13.0 229.0 L 13.0 251.0 L 14.0 251.0 L 16.0 254.0 L 19.0 254.0 L 19.0 253.0 L 20.0 252.0 L 21.0 252.0 L 21.0 236.0 L 22.0 235.0 L 22.0 227.0 L 24.0 224.0 L 27.0 224.0 L 28.0 223.0 L 30.0 223.0 L 30.0 222.0 L 31.0 221.0 L 32.0 221.0 L 32.0 217.0 L 30.0 215.0 L 30.0 214.0 L 26.0 214.0 L 25.0 215.0 L 24.0 214.0 L 23.0 215.0 L 12.0 215.0 L 11.0 214.0 L 10.0 214.0 L 9.0 215.0 L 8.0 214.0 L 7.0 214.0 L 6.0 215.0 Z M 21.0 223.0 L 22.0 222.0 L 27.0 222.0 L 28.0 223.0 L 27.0 224.0 L 22.0 224.0 Z M 12.0 222.0 L 13.0 221.0 L 14.0 222.0 L 13.0 223.0 Z " fill="#888785" fill-rule="evenodd"></path>
<path d="M 163.0 183.0 L 162.0 184.0 L 162.0 200.0 L 161.0 201.0 L 160.0 200.0 L 161.0 201.0 L 161.0 205.0 L 164.0 207.0 L 163.0 208.0 L 166.0 211.0 L 167.0 211.0 L 168.0 212.0 L 169.0 212.0 L 170.0 211.0 L 171.0 212.0 L 171.0 213.0 L 173.0 213.0 L 175.0 211.0 L 176.0 212.0 L 177.0 212.0 L 177.0 211.0 L 178.0 210.0 L 179.0 211.0 L 180.0 210.0 L 181.0 210.0 L 182.0 211.0 L 182.0 212.0 L 186.0 212.0 L 186.0 211.0 L 187.0 210.0 L 187.0 205.0 L 188.0 204.0 L 188.0 202.0 L 187.0 201.0 L 187.0 189.0 L 188.0 188.0 L 188.0 185.0 L 187.0 185.0 L 186.0 184.0 L 182.0 184.0 L 181.0 185.0 L 180.0 184.0 L 180.0 201.0 L 181.0 202.0 L 180.0 203.0 L 179.0 203.0 L 177.0 205.0 L 176.0 204.0 L 174.0 204.0 L 175.0 204.0 L 176.0 205.0 L 175.0 206.0 L 172.0 206.0 L 171.0 205.0 L 171.0 204.0 L 170.0 204.0 L 169.0 203.0 L 169.0 201.0 L 168.0 201.0 L 167.0 200.0 L 167.0 184.0 L 166.0 183.0 Z M 161.0 205.0 L 162.0 204.0 L 163.0 205.0 L 162.0 206.0 Z " fill="#6f6e6c" fill-rule="evenodd"></path>
<path d="M 69.0 186.0 L 69.0 193.0 L 70.0 194.0 L 70.0 197.0 L 71.0 198.0 L 71.0 200.0 L 73.0 201.0 L 72.0 203.0 L 74.0 204.0 L 73.0 205.0 L 74.0 207.0 L 77.0 210.0 L 81.0 212.0 L 83.0 212.0 L 84.0 211.0 L 85.0 212.0 L 89.0 212.0 L 90.0 211.0 L 92.0 212.0 L 96.0 209.0 L 97.0 209.0 L 96.0 208.0 L 98.0 206.0 L 100.0 207.0 L 102.0 206.0 L 101.0 204.0 L 103.0 203.0 L 104.0 204.0 L 104.0 206.0 L 108.0 211.0 L 112.0 212.0 L 113.0 213.0 L 118.0 213.0 L 119.0 211.0 L 120.0 212.0 L 124.0 211.0 L 127.0 208.0 L 128.0 206.0 L 127.0 205.0 L 129.0 204.0 L 129.0 201.0 L 128.0 199.0 L 124.0 195.0 L 125.0 193.0 L 127.0 193.0 L 128.0 190.0 L 126.0 186.0 L 123.0 183.0 L 121.0 184.0 L 120.0 182.0 L 112.0 182.0 L 110.0 184.0 L 108.0 184.0 L 108.0 185.0 L 106.0 186.0 L 104.0 190.0 L 104.0 193.0 L 108.0 199.0 L 107.0 201.0 L 103.0 199.0 L 105.0 198.0 L 102.0 194.0 L 102.0 190.0 L 100.0 190.0 L 99.0 188.0 L 95.0 184.0 L 91.0 182.0 L 83.0 182.0 L 82.0 184.0 L 80.0 183.0 L 78.0 186.0 L 77.0 185.0 L 74.0 188.0 L 75.0 189.0 L 74.0 190.0 L 72.0 190.0 L 71.0 191.0 L 71.0 192.0 L 73.0 193.0 L 71.0 195.0 L 69.0 193.0 Z M 112.0 212.0 L 113.0 211.0 L 114.0 212.0 L 113.0 213.0 Z M 75.0 208.0 L 76.0 207.0 L 77.0 208.0 L 76.0 209.0 Z M 120.0 205.0 L 121.0 204.0 L 122.0 205.0 L 121.0 206.0 Z M 110.0 205.0 L 111.0 204.0 L 112.0 205.0 L 111.0 206.0 Z M 99.0 204.0 L 100.0 203.0 L 101.0 204.0 L 101.0 205.0 L 100.0 206.0 L 99.0 205.0 Z M 100.0 203.0 L 101.0 202.0 L 102.0 203.0 L 101.0 204.0 Z M 92.0 203.0 L 93.0 202.0 L 94.0 203.0 L 93.0 204.0 Z M 127.0 201.0 L 128.0 200.0 L 129.0 201.0 L 128.0 202.0 Z M 103.0 201.0 L 104.0 200.0 L 105.0 201.0 L 104.0 202.0 Z M 100.0 201.0 L 101.0 200.0 L 102.0 201.0 L 101.0 202.0 Z M 108.0 200.0 L 109.0 199.0 L 110.0 200.0 L 113.0 200.0 L 114.0 199.0 L 115.0 200.0 L 115.0 201.0 L 119.0 201.0 L 120.0 202.0 L 122.0 202.0 L 123.0 203.0 L 122.0 204.0 L 119.0 205.0 L 119.0 206.0 L 118.0 207.0 L 114.0 207.0 L 113.0 206.0 L 114.0 205.0 L 112.0 205.0 L 108.0 201.0 Z M 121.0 195.0 L 122.0 194.0 L 123.0 195.0 L 122.0 196.0 Z M 102.0 194.0 L 103.0 195.0 L 103.0 199.0 L 102.0 200.0 L 101.0 199.0 L 101.0 195.0 Z M 122.0 194.0 L 123.0 193.0 L 124.0 194.0 L 123.0 195.0 Z M 115.0 194.0 L 116.0 193.0 L 117.0 194.0 L 116.0 195.0 Z M 78.0 194.0 L 79.0 193.0 L 80.0 194.0 L 79.0 195.0 Z M 110.0 191.0 L 111.0 190.0 L 112.0 191.0 L 111.0 192.0 Z M 100.0 190.0 L 101.0 190.0 L 102.0 191.0 L 102.0 194.0 L 101.0 195.0 L 100.0 194.0 L 100.0 192.0 L 99.0 191.0 Z M 71.0 191.0 L 72.0 190.0 L 73.0 191.0 L 72.0 192.0 Z M 85.0 189.0 L 88.0 189.0 L 95.0 194.0 L 95.0 200.0 L 94.0 201.0 L 93.0 201.0 L 93.0 202.0 L 90.0 205.0 L 89.0 205.0 L 87.0 207.0 L 86.0 206.0 L 83.0 205.0 L 80.0 202.0 L 80.0 200.0 L 79.0 199.0 L 79.0 195.0 L 80.0 194.0 L 80.0 193.0 L 83.0 190.0 L 84.0 190.0 Z M 111.0 189.0 L 112.0 188.0 L 113.0 189.0 L 119.0 189.0 L 123.0 193.0 L 122.0 194.0 L 118.0 194.0 L 117.0 193.0 L 112.0 193.0 L 111.0 192.0 L 112.0 191.0 L 111.0 190.0 Z M 88.0 189.0 L 89.0 188.0 L 90.0 189.0 L 89.0 190.0 Z M 83.0 189.0 L 84.0 188.0 L 85.0 189.0 L 84.0 190.0 Z M 94.0 185.0 L 95.0 184.0 L 96.0 185.0 L 95.0 186.0 Z M 122.0 184.0 L 123.0 183.0 L 124.0 184.0 L 123.0 185.0 Z M 90.0 183.0 L 91.0 182.0 L 92.0 183.0 L 91.0 184.0 Z " fill="#7c7b79" fill-rule="evenodd"></path>
<path d="M 194.0 185.0 L 193.0 186.0 L 194.0 187.0 L 193.0 188.0 L 192.0 188.0 L 192.0 189.0 L 191.0 190.0 L 191.0 192.0 L 192.0 192.0 L 193.0 193.0 L 192.0 194.0 L 195.0 194.0 L 196.0 195.0 L 195.0 196.0 L 194.0 196.0 L 191.0 199.0 L 192.0 200.0 L 191.0 201.0 L 190.0 201.0 L 190.0 206.0 L 191.0 206.0 L 192.0 207.0 L 191.0 208.0 L 194.0 211.0 L 195.0 210.0 L 196.0 211.0 L 196.0 213.0 L 197.0 213.0 L 197.0 212.0 L 198.0 211.0 L 199.0 212.0 L 205.0 212.0 L 208.0 210.0 L 209.0 210.0 L 210.0 211.0 L 210.0 212.0 L 215.0 212.0 L 215.0 211.0 L 216.0 210.0 L 216.0 199.0 L 215.0 198.0 L 215.0 187.0 L 211.0 183.0 L 209.0 183.0 L 208.0 182.0 L 206.0 182.0 L 205.0 181.0 L 204.0 182.0 L 201.0 181.0 L 199.0 184.0 L 198.0 183.0 L 197.0 183.0 L 195.0 185.0 Z M 205.0 204.0 L 206.0 203.0 L 207.0 204.0 L 206.0 205.0 Z M 201.0 199.0 L 202.0 199.0 L 207.0 202.0 L 205.0 204.0 L 203.0 204.0 L 204.0 204.0 L 205.0 205.0 L 203.0 207.0 L 200.0 207.0 L 198.0 205.0 L 199.0 204.0 L 198.0 205.0 L 197.0 204.0 L 197.0 203.0 L 199.0 201.0 L 200.0 201.0 L 200.0 200.0 Z M 208.0 198.0 L 209.0 199.0 L 209.0 201.0 L 208.0 202.0 L 206.0 200.0 Z M 196.0 195.0 L 197.0 194.0 L 198.0 195.0 L 197.0 196.0 Z M 207.0 191.0 L 208.0 190.0 L 210.0 192.0 L 209.0 193.0 L 208.0 193.0 L 207.0 192.0 Z M 196.0 193.0 L 197.0 192.0 L 198.0 192.0 L 200.0 190.0 L 200.0 189.0 L 201.0 188.0 L 202.0 189.0 L 206.0 189.0 L 207.0 188.0 L 208.0 189.0 L 207.0 192.0 L 206.0 193.0 L 203.0 193.0 L 203.0 194.0 L 202.0 195.0 L 201.0 194.0 L 197.0 194.0 Z M 213.0 187.0 L 214.0 186.0 L 215.0 187.0 L 214.0 188.0 Z M 193.0 186.0 L 194.0 185.0 L 195.0 186.0 L 194.0 187.0 Z " fill="#7a7978" fill-rule="evenodd"></path>
<path d="M 132.0 173.0 L 131.0 174.0 L 131.0 177.0 L 130.0 178.0 L 130.0 188.0 L 131.0 189.0 L 131.0 207.0 L 130.0 208.0 L 130.0 209.0 L 133.0 212.0 L 133.0 213.0 L 134.0 212.0 L 137.0 212.0 L 137.0 199.0 L 138.0 198.0 L 138.0 193.0 L 141.0 190.0 L 142.0 190.0 L 142.0 189.0 L 143.0 188.0 L 144.0 189.0 L 146.0 189.0 L 147.0 188.0 L 150.0 192.0 L 150.0 199.0 L 149.0 200.0 L 149.0 210.0 L 150.0 210.0 L 152.0 212.0 L 152.0 213.0 L 156.0 213.0 L 156.0 212.0 L 158.0 210.0 L 159.0 210.0 L 159.0 206.0 L 158.0 205.0 L 158.0 191.0 L 157.0 190.0 L 157.0 189.0 L 156.0 189.0 L 155.0 188.0 L 156.0 187.0 L 152.0 183.0 L 152.0 182.0 L 151.0 183.0 L 150.0 183.0 L 149.0 182.0 L 150.0 181.0 L 148.0 181.0 L 147.0 182.0 L 143.0 182.0 L 140.0 184.0 L 139.0 183.0 L 139.0 175.0 L 139.0 183.0 L 138.0 184.0 L 137.0 183.0 L 137.0 173.0 Z M 156.0 191.0 L 157.0 190.0 L 158.0 191.0 L 157.0 192.0 Z M 148.0 190.0 L 149.0 189.0 L 150.0 190.0 L 149.0 191.0 Z M 137.0 185.0 L 138.0 184.0 L 139.0 184.0 L 140.0 185.0 L 139.0 186.0 L 138.0 186.0 Z " fill="#7f7d7c" fill-rule="evenodd"></path>
<path d="M 66.0 173.0 L 61.0 173.0 L 60.0 174.0 L 60.0 198.0 L 61.0 199.0 L 59.0 202.0 L 58.0 201.0 L 58.0 202.0 L 56.0 205.0 L 49.0 205.0 L 48.0 204.0 L 47.0 204.0 L 45.0 201.0 L 45.0 197.0 L 44.0 196.0 L 43.0 196.0 L 42.0 197.0 L 40.0 197.0 L 39.0 196.0 L 37.0 198.0 L 37.0 199.0 L 39.0 202.0 L 38.0 203.0 L 40.0 205.0 L 40.0 206.0 L 43.0 209.0 L 43.0 210.0 L 44.0 209.0 L 45.0 210.0 L 45.0 211.0 L 46.0 210.0 L 47.0 211.0 L 47.0 212.0 L 49.0 212.0 L 50.0 211.0 L 54.0 211.0 L 55.0 212.0 L 54.0 213.0 L 52.0 213.0 L 54.0 213.0 L 55.0 212.0 L 58.0 212.0 L 59.0 211.0 L 60.0 211.0 L 61.0 210.0 L 61.0 209.0 L 65.0 205.0 L 65.0 204.0 L 66.0 203.0 L 67.0 203.0 L 66.0 200.0 L 67.0 199.0 L 68.0 200.0 L 68.0 195.0 L 67.0 194.0 L 67.0 184.0 L 68.0 183.0 L 68.0 181.0 L 67.0 180.0 L 68.0 179.0 L 68.0 175.0 L 67.0 175.0 L 66.0 174.0 Z " fill="#737271" fill-rule="evenodd"></path>
<path d="M 151.0 87.0 L 152.0 88.0 Z " fill="#eae3dc" fill-rule="evenodd"></path>
<path d="M 202.0 9.0 L 197.0 16.0 L 195.0 10.0 L 191.0 15.0 L 188.0 11.0 L 186.0 15.0 L 189.0 21.0 L 182.0 21.0 L 186.0 25.0 L 182.0 26.0 L 185.0 27.0 L 182.0 30.0 L 186.0 33.0 L 181.0 37.0 L 188.0 40.0 L 186.0 42.0 L 189.0 52.0 L 185.0 64.0 L 160.0 81.0 L 153.0 79.0 L 153.0 71.0 L 164.0 50.0 L 169.0 52.0 L 169.0 45.0 L 175.0 45.0 L 172.0 40.0 L 179.0 38.0 L 174.0 35.0 L 179.0 30.0 L 176.0 20.0 L 171.0 20.0 L 167.0 15.0 L 166.0 21.0 L 163.0 12.0 L 160.0 24.0 L 157.0 19.0 L 150.0 17.0 L 154.0 12.0 L 147.0 10.0 L 150.0 5.0 L 145.0 2.0 L 143.0 7.0 L 141.0 0.0 L 137.0 6.0 L 133.0 0.0 L 130.0 10.0 L 126.0 5.0 L 124.0 7.0 L 124.0 17.0 L 130.0 22.0 L 123.0 30.0 L 123.0 23.0 L 117.0 28.0 L 115.0 20.0 L 112.0 20.0 L 111.0 26.0 L 107.0 22.0 L 106.0 28.0 L 102.0 30.0 L 95.0 24.0 L 97.0 22.0 L 91.0 17.0 L 93.0 15.0 L 88.0 15.0 L 85.0 10.0 L 80.0 14.0 L 78.0 11.0 L 76.0 18.0 L 70.0 19.0 L 72.0 22.0 L 68.0 25.0 L 73.0 30.0 L 69.0 35.0 L 72.0 38.0 L 77.0 37.0 L 73.0 41.0 L 75.0 44.0 L 80.0 41.0 L 78.0 45.0 L 85.0 47.0 L 87.0 57.0 L 108.0 84.0 L 123.0 116.0 L 126.0 130.0 L 124.0 158.0 L 130.0 164.0 L 139.0 164.0 L 146.0 159.0 L 146.0 124.0 L 156.0 103.0 L 192.0 77.0 L 202.0 63.0 L 203.0 40.0 L 211.0 38.0 L 207.0 34.0 L 212.0 32.0 L 208.0 14.0 L 203.0 18.0 Z M 147.0 105.0 L 148.0 104.0 L 149.0 105.0 L 148.0 106.0 Z M 152.0 99.0 L 153.0 98.0 L 154.0 99.0 L 153.0 100.0 Z M 153.0 98.0 L 154.0 97.0 L 155.0 98.0 L 154.0 99.0 Z M 174.0 81.0 L 175.0 80.0 L 176.0 81.0 L 175.0 82.0 Z M 153.0 81.0 L 154.0 80.0 L 155.0 81.0 L 154.0 82.0 Z M 176.0 80.0 L 177.0 79.0 L 178.0 80.0 L 177.0 81.0 Z M 173.0 80.0 L 174.0 79.0 L 175.0 80.0 L 174.0 81.0 Z M 179.0 78.0 L 180.0 77.0 L 181.0 78.0 L 181.0 79.0 L 180.0 80.0 L 179.0 79.0 Z M 177.0 77.0 L 178.0 78.0 L 176.0 80.0 L 175.0 80.0 L 174.0 79.0 L 176.0 77.0 Z M 125.0 78.0 L 126.0 77.0 L 127.0 78.0 L 127.0 79.0 L 126.0 80.0 L 125.0 79.0 Z M 177.0 77.0 L 178.0 76.0 L 179.0 77.0 L 178.0 78.0 Z M 151.0 77.0 L 152.0 76.0 L 153.0 77.0 L 152.0 78.0 Z M 126.0 76.0 L 127.0 75.0 L 128.0 76.0 L 127.0 77.0 Z M 100.0 76.0 L 101.0 75.0 L 102.0 76.0 L 101.0 77.0 Z M 135.0 75.0 L 136.0 74.0 L 137.0 75.0 L 136.0 76.0 Z M 134.0 74.0 L 135.0 75.0 L 135.0 77.0 L 137.0 79.0 L 136.0 80.0 L 136.0 83.0 L 137.0 84.0 L 137.0 86.0 L 138.0 87.0 L 138.0 89.0 L 139.0 90.0 L 139.0 96.0 L 140.0 97.0 L 139.0 98.0 L 138.0 98.0 L 138.0 100.0 L 137.0 101.0 L 136.0 101.0 L 137.0 101.0 L 138.0 102.0 L 136.0 104.0 L 136.0 105.0 L 135.0 106.0 L 134.0 105.0 L 134.0 103.0 L 131.0 98.0 L 132.0 97.0 L 132.0 96.0 L 130.0 93.0 L 130.0 91.0 L 129.0 91.0 L 128.0 90.0 L 128.0 86.0 L 129.0 85.0 L 130.0 85.0 L 129.0 84.0 L 130.0 83.0 L 130.0 82.0 L 131.0 81.0 L 131.0 79.0 Z M 127.0 74.0 L 128.0 73.0 L 129.0 74.0 L 129.0 75.0 L 128.0 76.0 L 127.0 75.0 Z M 135.0 71.0 L 136.0 72.0 L 136.0 74.0 L 135.0 75.0 L 134.0 74.0 L 134.0 72.0 Z M 130.0 70.0 L 131.0 71.0 L 129.0 74.0 L 128.0 73.0 L 128.0 71.0 L 129.0 70.0 Z M 136.0 69.0 L 138.0 71.0 L 138.0 73.0 L 137.0 74.0 L 135.0 71.0 L 135.0 70.0 Z M 129.0 69.0 L 130.0 68.0 L 131.0 69.0 L 130.0 70.0 Z M 119.0 65.0 L 121.0 67.0 L 118.0 69.0 L 117.0 68.0 L 117.0 67.0 Z M 194.0 64.0 L 195.0 65.0 L 195.0 66.0 L 194.0 67.0 L 193.0 67.0 L 192.0 66.0 Z M 131.0 64.0 L 132.0 63.0 L 133.0 64.0 L 132.0 65.0 Z M 97.0 63.0 L 98.0 62.0 L 99.0 63.0 L 98.0 64.0 Z M 158.0 61.0 L 159.0 60.0 L 160.0 61.0 L 159.0 62.0 Z M 133.0 60.0 L 134.0 61.0 L 134.0 63.0 L 133.0 64.0 L 132.0 63.0 L 132.0 61.0 Z M 149.0 60.0 L 150.0 59.0 L 152.0 61.0 L 151.0 62.0 L 150.0 62.0 L 149.0 61.0 Z M 159.0 59.0 L 160.0 58.0 L 161.0 59.0 L 160.0 60.0 Z M 152.0 58.0 L 153.0 57.0 L 154.0 58.0 L 153.0 59.0 Z M 150.0 58.0 L 151.0 57.0 L 152.0 58.0 L 151.0 59.0 Z M 133.0 58.0 L 134.0 57.0 L 135.0 58.0 L 134.0 59.0 Z M 134.0 57.0 L 135.0 56.0 L 136.0 57.0 L 135.0 58.0 Z M 87.0 57.0 L 88.0 56.0 L 89.0 57.0 L 88.0 58.0 Z M 153.0 56.0 L 154.0 55.0 L 155.0 56.0 L 154.0 57.0 Z M 151.0 55.0 L 152.0 54.0 L 153.0 55.0 L 153.0 56.0 L 152.0 57.0 L 151.0 56.0 Z M 134.0 55.0 L 135.0 54.0 L 136.0 55.0 L 135.0 56.0 Z M 86.0 55.0 L 87.0 54.0 L 88.0 55.0 L 87.0 56.0 Z M 154.0 54.0 L 155.0 53.0 L 156.0 53.0 L 157.0 54.0 L 156.0 55.0 L 155.0 55.0 Z M 135.0 54.0 L 136.0 53.0 L 137.0 54.0 L 136.0 55.0 Z M 153.0 53.0 L 154.0 52.0 L 155.0 53.0 L 154.0 54.0 Z M 155.0 52.0 L 156.0 51.0 L 157.0 51.0 L 158.0 52.0 L 157.0 53.0 L 156.0 53.0 Z M 106.0 52.0 L 107.0 51.0 L 109.0 53.0 L 108.0 54.0 L 107.0 54.0 L 106.0 53.0 Z M 167.0 51.0 L 168.0 50.0 L 169.0 51.0 L 168.0 52.0 Z M 135.0 51.0 L 136.0 50.0 L 137.0 51.0 L 136.0 52.0 Z M 154.0 51.0 L 154.0 50.0 L 155.0 49.0 L 158.0 49.0 L 159.0 50.0 L 158.0 51.0 L 156.0 51.0 L 155.0 52.0 Z M 105.0 50.0 L 106.0 49.0 L 107.0 50.0 L 106.0 51.0 Z M 149.0 48.0 L 150.0 49.0 L 150.0 50.0 L 149.0 51.0 L 148.0 51.0 L 147.0 50.0 Z M 155.0 48.0 L 156.0 47.0 L 158.0 47.0 L 159.0 48.0 L 158.0 49.0 L 156.0 49.0 Z M 108.0 46.0 L 109.0 46.0 L 110.0 47.0 L 110.0 51.0 L 109.0 52.0 L 108.0 52.0 L 107.0 51.0 L 107.0 50.0 L 108.0 49.0 L 107.0 50.0 L 105.0 48.0 Z M 92.0 46.0 L 93.0 45.0 L 94.0 46.0 L 93.0 47.0 Z M 88.0 46.0 L 89.0 45.0 L 90.0 46.0 L 89.0 47.0 Z M 116.0 44.0 L 118.0 46.0 L 118.0 51.0 L 117.0 52.0 L 116.0 51.0 L 116.0 47.0 L 115.0 46.0 L 115.0 45.0 Z M 95.0 45.0 L 96.0 44.0 L 97.0 45.0 L 96.0 46.0 Z M 121.0 44.0 L 122.0 43.0 L 123.0 44.0 L 122.0 45.0 Z M 199.0 43.0 L 200.0 44.0 L 200.0 50.0 L 199.0 51.0 L 199.0 53.0 L 198.0 54.0 L 198.0 57.0 L 197.0 58.0 L 197.0 60.0 L 196.0 61.0 L 196.0 63.0 L 195.0 64.0 L 194.0 63.0 L 194.0 64.0 L 192.0 66.0 L 191.0 65.0 L 192.0 66.0 L 192.0 68.0 L 185.0 75.0 L 184.0 75.0 L 181.0 78.0 L 179.0 76.0 L 180.0 75.0 L 180.0 74.0 L 181.0 73.0 L 182.0 74.0 L 187.0 69.0 L 186.0 68.0 L 189.0 66.0 L 189.0 64.0 L 191.0 61.0 L 191.0 59.0 L 193.0 57.0 L 193.0 56.0 L 192.0 55.0 L 193.0 54.0 L 193.0 43.0 L 194.0 42.0 L 195.0 43.0 L 195.0 44.0 L 198.0 44.0 Z M 193.0 40.0 L 194.0 39.0 L 195.0 40.0 L 195.0 41.0 L 194.0 42.0 L 193.0 41.0 Z M 127.0 39.0 L 130.0 41.0 L 129.0 42.0 L 129.0 46.0 L 127.0 49.0 L 127.0 51.0 L 126.0 52.0 L 126.0 54.0 L 125.0 55.0 L 125.0 56.0 L 126.0 57.0 L 125.0 58.0 L 124.0 58.0 L 124.0 59.0 L 123.0 60.0 L 123.0 62.0 L 122.0 63.0 L 122.0 64.0 L 120.0 66.0 L 119.0 65.0 L 119.0 63.0 L 120.0 62.0 L 120.0 61.0 L 119.0 60.0 L 120.0 59.0 L 121.0 59.0 L 121.0 57.0 L 120.0 56.0 L 121.0 55.0 L 122.0 55.0 L 122.0 52.0 L 121.0 51.0 L 122.0 50.0 L 122.0 45.0 L 123.0 44.0 L 125.0 44.0 L 126.0 45.0 L 127.0 45.0 L 127.0 43.0 L 125.0 41.0 L 125.0 40.0 L 126.0 39.0 Z M 150.0 39.0 L 151.0 38.0 L 152.0 39.0 L 151.0 40.0 Z M 184.0 38.0 L 185.0 37.0 L 186.0 38.0 L 185.0 39.0 Z M 182.0 38.0 L 183.0 37.0 L 184.0 38.0 L 183.0 39.0 Z M 128.0 38.0 L 129.0 37.0 L 130.0 38.0 L 129.0 39.0 Z M 145.0 36.0 L 146.0 37.0 L 146.0 41.0 L 146.0 38.0 L 147.0 37.0 L 148.0 37.0 L 149.0 38.0 L 149.0 39.0 L 150.0 39.0 L 151.0 40.0 L 151.0 41.0 L 150.0 42.0 L 149.0 42.0 L 149.0 45.0 L 150.0 45.0 L 151.0 46.0 L 151.0 48.0 L 150.0 49.0 L 149.0 48.0 L 149.0 47.0 L 148.0 48.0 L 148.0 49.0 L 147.0 50.0 L 147.0 51.0 L 148.0 52.0 L 146.0 54.0 L 145.0 57.0 L 143.0 59.0 L 143.0 60.0 L 140.0 65.0 L 141.0 66.0 L 140.0 67.0 L 139.0 67.0 L 140.0 68.0 L 138.0 71.0 L 136.0 69.0 L 136.0 68.0 L 137.0 67.0 L 137.0 65.0 L 139.0 63.0 L 138.0 62.0 L 139.0 61.0 L 140.0 61.0 L 140.0 60.0 L 139.0 59.0 L 140.0 58.0 L 141.0 58.0 L 141.0 57.0 L 140.0 56.0 L 141.0 55.0 L 142.0 55.0 L 142.0 53.0 L 141.0 52.0 L 143.0 50.0 L 143.0 49.0 L 142.0 48.0 L 143.0 47.0 L 144.0 47.0 L 144.0 45.0 L 143.0 44.0 L 143.0 43.0 L 144.0 42.0 L 144.0 37.0 Z M 145.0 36.0 L 146.0 35.0 L 147.0 36.0 L 146.0 37.0 Z M 151.0 35.0 L 152.0 34.0 L 153.0 35.0 L 152.0 36.0 Z M 138.0 35.0 L 139.0 34.0 L 140.0 35.0 L 139.0 36.0 Z M 125.0 35.0 L 126.0 34.0 L 127.0 35.0 L 126.0 36.0 Z M 103.0 34.0 L 105.0 34.0 L 106.0 35.0 L 104.0 38.0 L 103.0 37.0 L 103.0 40.0 L 104.0 40.0 L 107.0 42.0 L 107.0 44.0 L 106.0 45.0 L 106.0 47.0 L 105.0 48.0 L 103.0 48.0 L 102.0 47.0 L 102.0 46.0 L 103.0 45.0 L 102.0 45.0 L 101.0 44.0 L 102.0 43.0 L 99.0 42.0 L 98.0 41.0 L 99.0 40.0 L 97.0 38.0 L 98.0 37.0 L 100.0 37.0 L 100.0 36.0 Z M 152.0 34.0 L 153.0 33.0 L 154.0 34.0 L 153.0 35.0 Z M 136.0 31.0 L 138.0 32.0 L 137.0 37.0 L 140.0 40.0 L 138.0 43.0 L 139.0 47.0 L 134.0 50.0 L 134.0 57.0 L 131.0 63.0 L 132.0 67.0 L 130.0 67.0 L 125.0 78.0 L 126.0 82.0 L 124.0 87.0 L 124.0 93.0 L 132.0 107.0 L 131.0 108.0 L 137.0 112.0 L 145.0 98.0 L 145.0 90.0 L 141.0 83.0 L 141.0 76.0 L 149.0 61.0 L 152.0 63.0 L 145.0 76.0 L 148.0 79.0 L 146.0 81.0 L 149.0 82.0 L 149.0 85.0 L 158.0 88.0 L 173.0 80.0 L 174.0 82.0 L 165.0 90.0 L 164.0 89.0 L 154.0 96.0 L 151.0 100.0 L 152.0 99.0 L 153.0 101.0 L 146.0 107.0 L 148.0 108.0 L 143.0 115.0 L 143.0 122.0 L 140.0 125.0 L 142.0 129.0 L 139.0 139.0 L 141.0 156.0 L 139.0 159.0 L 131.0 159.0 L 129.0 156.0 L 130.0 123.0 L 128.0 122.0 L 129.0 119.0 L 121.0 105.0 L 123.0 102.0 L 122.0 103.0 L 117.0 96.0 L 108.0 76.0 L 101.0 66.0 L 98.0 65.0 L 99.0 63.0 L 100.0 64.0 L 96.0 62.0 L 92.0 56.0 L 90.0 46.0 L 93.0 47.0 L 95.0 45.0 L 98.0 47.0 L 108.0 62.0 L 110.0 62.0 L 113.0 57.0 L 115.0 47.0 L 117.0 55.0 L 112.0 69.0 L 116.0 75.0 L 119.0 75.0 L 124.0 70.0 L 131.0 55.0 Z M 125.0 33.0 L 128.0 31.0 L 130.0 33.0 L 130.0 34.0 L 129.0 35.0 L 128.0 34.0 L 126.0 34.0 Z M 101.0 32.0 L 102.0 31.0 L 103.0 32.0 L 102.0 33.0 Z M 76.0 32.0 L 77.0 31.0 L 78.0 32.0 L 77.0 33.0 Z M 128.0 31.0 L 129.0 30.0 L 130.0 31.0 L 129.0 32.0 Z M 99.0 31.0 L 100.0 30.0 L 101.0 31.0 L 100.0 32.0 Z M 72.0 31.0 L 73.0 30.0 L 74.0 30.0 L 75.0 31.0 L 75.0 32.0 L 74.0 33.0 Z M 172.0 30.0 L 173.0 29.0 L 174.0 30.0 L 173.0 31.0 Z M 106.0 30.0 L 107.0 29.0 L 108.0 30.0 L 107.0 31.0 Z M 98.0 30.0 L 99.0 29.0 L 100.0 30.0 L 99.0 31.0 Z M 174.0 29.0 L 175.0 28.0 L 176.0 29.0 L 175.0 30.0 Z M 144.0 30.0 L 146.0 28.0 L 147.0 28.0 L 151.0 32.0 L 152.0 32.0 L 153.0 33.0 L 151.0 35.0 L 150.0 34.0 L 150.0 35.0 L 149.0 36.0 L 147.0 36.0 L 146.0 35.0 L 147.0 34.0 L 146.0 33.0 L 146.0 32.0 L 145.0 32.0 L 144.0 31.0 Z M 117.0 29.0 L 118.0 28.0 L 119.0 29.0 L 118.0 30.0 Z M 105.0 29.0 L 106.0 28.0 L 107.0 29.0 L 106.0 30.0 Z M 187.0 28.0 L 188.0 27.0 L 189.0 28.0 L 188.0 29.0 Z M 172.0 28.0 L 173.0 27.0 L 174.0 28.0 L 173.0 29.0 Z M 112.0 28.0 L 113.0 27.0 L 114.0 28.0 L 114.0 29.0 L 113.0 30.0 L 112.0 29.0 Z M 207.0 28.0 L 209.0 26.0 L 211.0 28.0 L 210.0 29.0 L 208.0 29.0 Z M 152.0 27.0 L 153.0 26.0 L 154.0 26.0 L 155.0 27.0 L 154.0 28.0 L 153.0 28.0 Z M 151.0 26.0 L 152.0 25.0 L 153.0 26.0 L 152.0 27.0 Z M 111.0 26.0 L 112.0 25.0 L 113.0 26.0 L 112.0 27.0 Z M 95.0 27.0 L 95.0 26.0 L 96.0 25.0 L 97.0 25.0 L 98.0 26.0 L 96.0 28.0 Z M 175.0 25.0 L 176.0 24.0 L 177.0 25.0 L 176.0 26.0 Z M 169.0 25.0 L 170.0 24.0 L 171.0 25.0 L 170.0 26.0 Z M 152.0 25.0 L 153.0 24.0 L 154.0 25.0 L 153.0 26.0 Z M 150.0 25.0 L 151.0 24.0 L 152.0 25.0 L 151.0 26.0 Z M 73.0 25.0 L 74.0 24.0 L 75.0 25.0 L 74.0 26.0 Z M 128.0 24.0 L 129.0 23.0 L 130.0 23.0 L 131.0 24.0 L 130.0 25.0 L 129.0 25.0 Z M 176.0 23.0 L 177.0 22.0 L 178.0 23.0 L 177.0 24.0 Z M 130.0 23.0 L 131.0 22.0 L 132.0 23.0 L 131.0 24.0 Z M 72.0 22.0 L 73.0 23.0 L 73.0 25.0 L 72.0 26.0 L 71.0 25.0 L 71.0 23.0 Z M 200.0 22.0 L 201.0 21.0 L 202.0 22.0 L 202.0 23.0 L 201.0 24.0 L 200.0 23.0 Z M 171.0 22.0 L 172.0 21.0 L 173.0 22.0 L 172.0 23.0 Z M 169.0 22.0 L 170.0 21.0 L 171.0 22.0 L 171.0 23.0 L 170.0 24.0 L 169.0 23.0 Z M 146.0 23.0 L 147.0 22.0 L 149.0 22.0 L 150.0 21.0 L 151.0 21.0 L 154.0 23.0 L 153.0 24.0 L 151.0 24.0 L 150.0 25.0 L 149.0 24.0 L 147.0 24.0 Z M 77.0 22.0 L 78.0 21.0 L 79.0 21.0 L 80.0 22.0 L 79.0 23.0 L 78.0 23.0 Z M 172.0 21.0 L 173.0 20.0 L 174.0 21.0 L 173.0 22.0 Z M 170.0 21.0 L 171.0 20.0 L 172.0 21.0 L 171.0 22.0 Z M 151.0 21.0 L 152.0 20.0 L 153.0 21.0 L 152.0 22.0 Z M 207.0 20.0 L 208.0 19.0 L 209.0 20.0 L 208.0 21.0 Z M 192.0 20.0 L 193.0 19.0 L 194.0 20.0 L 193.0 21.0 Z M 93.0 20.0 L 94.0 19.0 L 95.0 20.0 L 94.0 21.0 Z M 82.0 19.0 L 83.0 18.0 L 84.0 19.0 L 83.0 20.0 Z M 77.0 19.0 L 78.0 18.0 L 79.0 19.0 L 79.0 20.0 L 78.0 21.0 L 77.0 20.0 Z M 202.0 17.0 L 203.0 18.0 L 203.0 20.0 L 202.0 21.0 L 201.0 20.0 L 201.0 18.0 Z M 197.0 17.0 L 198.0 16.0 L 199.0 17.0 L 198.0 18.0 Z M 148.0 17.0 L 149.0 16.0 L 150.0 17.0 L 149.0 18.0 Z M 76.0 17.0 L 77.0 16.0 L 78.0 17.0 L 78.0 18.0 L 77.0 19.0 L 76.0 18.0 Z M 204.0 16.0 L 205.0 15.0 L 206.0 16.0 L 206.0 17.0 L 205.0 18.0 L 204.0 17.0 Z M 87.0 16.0 L 88.0 15.0 L 89.0 16.0 L 88.0 17.0 Z M 80.0 15.0 L 81.0 14.0 L 82.0 15.0 L 81.0 16.0 Z M 81.0 14.0 L 82.0 13.0 L 83.0 14.0 L 82.0 15.0 Z M 125.0 12.0 L 126.0 11.0 L 129.0 14.0 L 128.0 15.0 L 127.0 15.0 L 125.0 13.0 Z M 147.0 10.0 L 148.0 11.0 L 148.0 13.0 L 146.0 15.0 L 145.0 14.0 L 145.0 13.0 Z M 136.0 11.0 L 137.0 10.0 L 138.0 11.0 L 137.0 12.0 Z M 132.0 8.0 L 133.0 9.0 L 133.0 11.0 L 134.0 12.0 L 133.0 13.0 L 132.0 13.0 L 130.0 11.0 L 130.0 10.0 Z M 137.0 7.0 L 138.0 6.0 L 139.0 7.0 L 138.0 8.0 Z M 131.0 6.0 L 132.0 5.0 L 133.0 6.0 L 132.0 7.0 Z M 144.0 4.0 L 145.0 3.0 L 146.0 4.0 L 145.0 5.0 Z M 130.0 4.0 L 131.0 3.0 L 132.0 4.0 L 132.0 5.0 L 131.0 6.0 L 130.0 5.0 Z " fill="#64837b" fill-rule="evenodd"></path>
</svg>