<?xml version="1.0" encoding="UTF-8"?>
<svg id="Layer_1" data-name="Layer 1" xmlns="http://www.w3.org/2000/svg" viewBox="0 0 1500 1500">
  <defs>
    <style>
      .cls-1 {
        fill: #263c34;
      }
    </style>
  </defs>
  <path class="cls-1" d="M1266.95,636.5c4.43-7.25,55.16-33.54,44.31-44.29-19.67,0-32.96,20.13-49.52,28.67-2.06-2.75,8.4-41.99,8.03-50.87-.19-4.64.34-11.6-6.72-11.73-8.56,2.02-7.22,42.6-14.35,50.87-3.2,3.38-2.91-1.5-3.97-3.86-5.02-11.09-9.51-22.51-14.74-33.52l-10-.42,15.62,44.28-37.64-12.9-4.19,6.46,1.3,3.97,27.49,12.9-54.44,2.9c-2.42,5.49-3.3,8,2.32,11.54,4.54,4.02,9.71-1.31,11.71-1.36h.02c19.55-.38,39.17.29,58.69,0-5.17,17.54-33.96,45.19-38.04,59.81-.99,3.54-.66,7.1,2.86,7.98,11.41,2.88,33.01-41.99,41.68-49.48,5.71-.19,15.94,47.45,19.81,53.14,2.29,3.39,7.06,6.27,10.15,4.16,4.9-3.33-10-50.84-10.39-59.96,3.66-3.39,49.57,18.88,52.13,6.46,1.89-9.12-43.86-22.07-52.13-24.77Z"/>
  <path class="cls-1" d="M385.53,786.24c8.23,6.35,22.8,10.88,28.36,15.99,5.18,4.75,9.07,16.59,15.67,23.44,14.93,15.43,61.43,36.44,82.55,37.52,11.19.56,16.9-9.25,8.9-14.32-1.28-.8-8.77,1.73-13.63.96-26.66-4.16-57.77-19.04-75.08-39.92l39.09-7.78c53.96-25.04,22.21-98.91-33.09-74.82-22.27,9.68-29.66,35.16-26.92,57.83-35.2-11.55-55.11-50.18-48.93-86.71,1.25-7.38,19.14-33.54,8.46-35.83-10.67-2.27-22.34,41.59-22.34,50.85-.08,25.6,16.91,57.25,36.96,72.79ZM449.34,735.77c56.02-9.14,48.61,68.79-15.65,59.56-2.7-.38-6.8-1.07-8.66-2.98-12.42-12.43,4.64-53.38,24.31-56.58Z"/>
  <path class="cls-1" d="M348.47,1301.18c4.26-14.02-11.63-21.59-21.78-28.45-32.18-21.71-104.25-54.79-137.1-22.18-23.27,23.09,4.75,48.41,28.66,54.97,16.77,4.59,123.26,6.42,130.22-4.34ZM197.47,1279.34c-11.25-16.37,4.77-26.82,20.19-29.38,35.11-5.82,63.85,12.8,94.57,25.51l.02-.03c.61,4.77-5.57,2.27-8.4,1.89-23.11-3.14-46.18-11.38-69.83-9.71l.05,10.34c27.49,4.1,57.75,6.18,83.4,17.04-28.12,3.78-102.27,10.16-120-15.65Z"/>
  <path class="cls-1" d="M502.23,1192.59h-.03c-44.84,2.35-83.24,41.04-88.86,83.46-.43,3.33-3.84,6.37-4.18,8.98-1.12,8.99,12.08,8.98,18.5,8.03,25.3-3.71,82.7-32,99.8-51.54,24.26-27.68,10.14-50.77-25.23-48.93ZM505.07,1245.22c-22.05,17.21-52.02,25.51-78,35.36,17.41-30.1,54.3-42.95,80.85-63.86l-4.24-6.29c-7.82-2.35-40.42,20.51-48.77,26.35-8.61,6.02-16.87,12.61-23.97,20.37-3.71-2.99,2.06-9.19,3.97-11.68,10.08-13.06,29.59-30.24,45.11-35.75,42.98-15.22,65.99,3.49,25.06,35.49Z"/>
  <path class="cls-1" d="M1236.42,858.67c-7.81-4.67-46.28-11.55-47.73-13.57.05-12,37.84-23.76,30-36.48-2.64-4.3-5.06-2.08-8.43-.61-4.75,2.11-29.88,26.59-31.99,24.08.05-15.25,4.93-29.36,1.89-44.96-2.9-14.77-10.93-3.52-12.34,4.58l-.03-.03c-1.9,10.96,1.39,26.24,0,37.81-5.66.78-24.18-42.64-28.69-24.72-1.46,5.76,17.03,28.85,20.87,35.12-7.75,1.6-46.74.58-46.89,9.17,12.08,9.03,30.6,1.87,44.26,1.31,5.6,5.06-40.82,34.72-31.28,46.9l28.64-23.44-5.18,32.58c14.5,5.26,15.55-25.51,20.63-36.76,1.06-2.32,1.06-7.94,5.42-3.65,4,3.92,5.82,37.03,19.57,33.88,4.9-3.62,3.07-3.25,2.06-7.15-1.65-6.53-16.42-33.76-13.73-37.16,5.55.06,56.47,18.34,57.38,11.71.74-5.38-.14-6.05-4.43-8.61Z"/>
  <path class="cls-1" d="M706.14,530.89c2.53-11.92-28.21-9.67-34.61-8.5-13.75,2.54-42.08,30-26.64,33.28,4.83,1.02,16.77-19.12,27.22-22.26,9.25-2.75,32.71,3.57,34.04-2.53Z"/>
  <path class="cls-1" d="M802.43,462.83l-2.38-19.28c5.76,3.66,9.87,9.12,15.6,1.26l-12.79-15.95c-.64-4.14,10.8-10.56,1.04-16.58-15.97,5.5-15.6,23.97-14.27,37.78.77,7.92,3.74,22.48,12.8,12.77Z"/>
  <path class="cls-1" d="M738.96,482.79l-5.46-7.89v-.03c-8.46,11.95-19.43,13.27-31.67,17.83-3.22,1.2-9.89,1.38-8.74,6.88,2.48,11.89,42.76-3.38,45.86-16.79Z"/>
  <path class="cls-1" d="M608.37,520.07h.02c-2.1-.26-23.39,5.12-22.19,10.79,1.94,9.34,28.76,1.15,28.61-5.17-.02-.53-4.78-5.42-6.43-5.62Z"/>
  <path class="cls-1" d="M1182.65,1123.7c-18.31-7.98-37.35-14.85-56.53-20.43,11.07-15.04,6.58-22.77.46-38.26-13.68-34.64-41.12-63.38-76.1-76.49,4.05-11.3,12.47-19.75,16.91-31.3,6.95-17.94,8.16-36.53,6.24-55.7-1.07-10.93-12.58-39.75-12.08-44.29.51-4.54,8.02-12.24,10.29-18.11,10.53-27.22,14.59-53.64,2.66-81.45l9.5-9.78c-33.65-97.19-73.05-200.82-150.86-271.77-12.45-11.35-27.86-19.97-39.17-32.55,93.82-.9,187.09-7.66,280.43-15.63,14.64-1.25,65.74,5.58,57.57-20.99-6.62-21.51-72.41-33.97-92.84-31.17,8.75-49.32-31.59-94.54-80.83-67.82,8.64-70.78-64.37-128.64-125.26-79.56-12.79,10.29-18.91,23.57-28.45,33.57-2.11,2.18-1.82,2.37-5.44,1.68v-.03c-10.93-125.95-203.49-168.88-234.79-31.3-64.15-47.17-176.26,5.02-146.03,91.24-29.86,4.14-58.53,11.15-85.23,25.65-24.72,13.43-66.28,45.32-51.11,78.07,12.67,27.35,112.57,19.95,138.91,13.67-9.06,30.1-1.6,69,24.77,88.68,5.2,3.87,12.06,4.4,15.63,7.84,5.17,5.01,12.75,26.68,20.88,36.48,8.61,10.37,19.46,16.69,29.62,24.98-4.8,17.28-21.3,105.69-14.1,115.98l24.82,2.59c-.19,4.99,1.74,9.68,2.42,14.51,2.98,21.68,7.71,67.94,5.66,88.49-1.28,13.06-9.97,26.08-10.37,39.38-.27,8.43,4.06,16.61,2.56,25.27-42.87,14.63-80.98,72.02-75.1,117.1,3.17,24.29,17.83,44.66,30.61,64.52-39.2,13.51-54.13,57.73-42.52,96.01,2.91,9.65,27.92,55.17,34.69,59.17,4.56,2.69,10.69.98,15.67,1.3,3.33,17.2-5.65,23.57-17.06,33.83-20.31,18.26-66.33,43.6-80.82,62.61-25.12,32.96,29.14,27,49.72,26.23,44.26-1.62,96.7-4.5,140.72-7.97,21.78-1.7,36.04-2.29,37.97-27.2l-5.36-92.71c3.28-3.3,28.34,9.71,23.07-16.32-1.57-7.65-10.8-10.53-9.7-18.26,35.92-51.97,46.08-115.32,10.24-170.15l58.6-48.18c5.9-1.09,3.58,2.58,3.87,6.45,2.22,30.34,5.15,79.56,4.24,109.12-.67,22.45-12.11,52.81-8.8,72.84,4.75,28.92,23.52,16.72,27.8,20.45.66.56.9,6.56,2.32,9.31,8.06,15.36,19.94,31.94,38.6,34.52,7.01.96,27.16,2.61,33.76,2.4,9.17-.29,16.43-8.27,20.72-8.8,3.3-.42,8.26,2,12.99,1.52,24.26-2.46,26.08-22.71,17.09-41.81,9.23-.62,14.66,8.45,22.61,12.56,9.87,5.12,37.04,9.81,39.36,11.47,1.28.94,8.29,16.71,13.55,21.67,5.26,4.94,28,17.55,33.7,13.92l14.64-30.93c2.86,4.3,17.52,8.96,18.99,10.99,1.68,2.3,6.58,35.51,5.82,39.7-4.43,24.48-100.33,80.71-9.02,77.14,21.84-.83,77.35-7.87,93.8-20.96,19.92-15.84,41.8-75.83,50.2-101.05,5.14-15.43,15.19-40.68,4.51-55.33-3.73-5.15-42.56-22.61-51.65-26.59ZM557.42,521.8h-.02c-25.46-4.03-41.06-78.04-16.42-80.28,27.44-2.5,14.53,22.77,13.76,37.16-.77,14.39-.14,29,2.67,43.12ZM553.53,391.37c-4.46,7.41-27.19,14.45-16.93,33.88-26.92,9.41-126.81,19.27-143.68-3.68-14.64-19.94,30.34-53.53,45.4-61.93,28.12-15.7,61.13-23.39,93.05-25.62-3.68-25.65-12.11-49.22,4.06-72.87,18.67-27.27,63.8-41.08,95.18-32.9,6.32,1.65,25.33,10.85,28.72,15.6,4.06,5.7.93,27.67,8.94,27.52,8.02-.14,3.33-19.31,3.9-24.67,12.07-110.54,155.67-113.18,201.88-24.53,5.98,11.49,16.05,57.8,24.11,59.32,17.47-6.24,23.04-27.46,37.44-40.07,34.87-30.52,83.94-23.19,103.02,19.62,9.58,21.51,3.09,37.68,10.24,57.57,7.55,6.14,22.48-4.91,34.07-5.58,27.76-1.6,45.56,18.69,45.94,45.78.11,9.14-6.37,18.5.96,24.9,9.25,8.1,27.65,3.6,38.98,5.34,17.15,2.66,39.59,8.37,51.08,21.89.1,6.03-24.59,3.49-29.91,3.95-95.27,8.02-191.44,15.6-286.85,18.32-13.54.4-51.17-1.36-60.79-11.12-4.66-4.69-6.94-21.99-18.79-32.08-16.71-14.24-33.8-5.89-36.76-7.67-1.12-.67-10.51-17.89-14.16-22.27-43.6-52.28-162.1-77.48-205.93-15.46-12.54,17.73-8.75,39.33-13.2,46.76ZM575.71,500.95h.02v10.39h-7.82c-1.01-6.24,1.23-11.06,7.81-10.39ZM570.46,524.42c12.79-1.87,27.4-5.57,38.34-12.56,3.52-2.24,15.95-13.71,16.47-16.15l.1-.05c-1.87,8.3-6.7,21.91,3.97,23.59,5.36.83,40.64-6.38,37.73-17.04-2.61-9.38-29.17,6.02-31.27,3.89,6.88-18.98,12.18-54.23-13.12-61.48-3.92-1.12-8.85,1.15-10.48.18-2.34-1.41-2.96-7.68-6.77-8.9-8.26-2.64-34.16,22.8-31.88,31.86,4.78,18.91,36.8-7.49,37.44-18.99,21.86,11.44,21.59,22.31,16.95,45.12-.38,1.89-2.56,1.65-2.58,1.79,4.45-21.62-23.62-18.93-37.09-14.9-8.19,2.43-14.5,8.67-22.9,9.68-3.12-3.44,8.98-37.12,2.56-44.29,16.58-1.6,28.42-13.39,37.88-26.07l3.71.14c5.02,15.33,28.6,11.43,40.2,4.64,5.04-2.98,18.45-20.67,22.51-17.86l10.48,15.6-24.34-.1-3.87,8.88c1.54,8.11,32.77,17.89,41.25,17.35-7.62,8.45-23.76,10.96-27.62,23.35-9.73,31.38,64.2,11.57,68.06-12.63,2.18-13.78-16.53-7.92-21.11-13.31-1.31-3.87,1.58-9.04-1.68-12.42-4.13-4.27-15.27-3.2-17.65-8.43l29.68-7.76c4.98,4.11,4.08,9.41,9.49,14.16,8.72,7.73,20.24,4.5,26,7.9,3.18,1.86,3.34,9.81,9.09,9.09,6.53-1.39,3.18-21.68,3.87-27.43,1.68-13.99,15.94-33.43,31.43-28.8,37.06,11.06,34.84,105.64-3.38,97.55-4.35-.93-14.83-9.33-18.95-12.63-2.22-1.79-7.47-13.95-14.27-7.78-3.79,3.44,7.04,14.24,6.64,18.42-2.35,23.95-20.13,62.69-37.92,79.4-58.31,54.71-146.3,36-166.98-43.03ZM588.76,495.67c13.47-13.97,37.04-6.27,11.7,7.34l-11.7-7.34ZM703.53,460.5l18.26-1.28-9.15,7.9-9.11-6.62ZM700.97,1321.12c-1.28,1.31-3.46,1.9-5.15,2.67-31.6,4.14-63.67,1.92-95.31,3.81-16.43.98-97.5,11.79-105.66,5.17v-.03c-.77-.61,4.1-7.44,5.46-8.85,17.23-17.92,89.31-60.65,95.11-79.62,1.68-5.44-.43-19.65,4.98-20.58l102.76,40.34c-1.04,11.01,3.76,51.06-2.19,57.09ZM732.03,1000.17c-3.17,1.54-6.74,1.39-10.13,1.54-1.9,13.01,8.74,22.82,13.43,34.64,21.65,54.68,6.38,99.71-23.87,146.66-5.73,11.63,22.53,22.43,1.36,24.74-22.69,2.46-52.09-.72-75.88-.24-14.9.3-44.84,7.1-58.52,1.36-29.71-29.64-48.53-76.86-20.47-114.2,11.2-14.88,25.78-12.56,33.52-26.63-7.84-22.03-26.23-36.02-30.2-61.06-5.31-33.38,12.23-73.9,37.92-95.35,14.26-11.92,22.74-9.78,38-16.91-1.65-18.98-7.25-31.22-1.6-51,7.06-24.66,44.26-56.36,67.98-65.03,29.68-10.83,58.07-5.6,88.65-3.95h.02l2.06,172.91c-2.59,8.71-52.09,47.54-62.28,52.53ZM633.1,717.37c21.15-2.91,42.12,6.48,62.57-.02l6.7,49.67c-24.72,7.94-41.51,26.24-61.43,41.6l-7.84-91.26ZM779.14,704.36c4.8-53.81,16.95-114.97,41.27-163.46,6.85-13.65,17.83-26.87,25.35-39.86,1.98-3.42,5.26-5.14,3.81-10.53-8.93-8.54-28.98,27.4-32.64,33.84-31.97,56.23-45.4,124.7-50.92,188.66,1.41,5.79,23.78,4.26,28.8,4.38,1.3.93-2.61,3.33-2.61,3.87v43.03l-77.1-5.06c-6.54-46.56-18.39-93.47-44.21-133.13-16.08-3.92,6.61,33.41,7.81,36.53,5.5,14.43,9.9,29.54,14.37,44.29h-83.45l-.03.08c-1.31-14.19,4.86-95.07,12.95-100.59,9.67-2.56,20.08,3.22,30.15,4.03,42.45,3.38,103.63-24.16,130.17-57.54,9.35-11.78,22.34-42.69,29-49.24,2.86-2.83,7.84-2.98,10.34-5.31,22.07-20.77,18.69-31.4,22.16-58.74.48-3.73-1.42-4.45,3.82-3.81,13.67,1.7,51.16,26.96,62.65,36.52,81.69,67.93,126.01,172.27,157.87,271.12l-114.78,10.47-2.59-33.91c8.34.96,24.39-2.8,26.08-11.75,2.69-14.18,1.2-61.96-.05-78.2-.4-5.25-6.7-48.02-9.14-48.41l-9.12,1.55c5.07,40.72,13.33,82.7,4.88,123.37l-184.84-2.22ZM807.63,1161.74c-4.11-11.25-1.92-23.31-2.35-34.96l10.38,36.47-8.03-1.5ZM944.74,1160.3c-20.83-.19-22.31-53.77-31.3-64.78-3.06-3.73-7.94-4.06-10.45-.05-1.38,2.18,10.29,39.56,12.42,45.01,4.42,11.31,25.14,42.08,25.51,47.78.69,11.44-12.07,14.16-20.87,10.15-17.43-7.92-34.79-75.56-39.46-94.81l-10.11-.3c-4.67,4.53,18.67,67.21,23.01,77.38,2.96,6.91,16.9,23.28,6.58,26.61-18.08,5.81-31.78-30.68-36.15-43.99-4.02-12.15-7.47-42.39-12.21-50.39-2.96-4.98-4.22-4.98-9.92-4.38,2.37,27.09,9.09,55.77,19.54,80.84,4.19,10.06,20.37,30.48-7.39,12.58-41.94-27.04-40.92-145.28-43.49-191.2-4.82-85.55-9.7-174.98-7.92-260.92.21-10.86,4.4-21.36,2.7-32.47l135.66,2.61-.02.02.1,228.3c-1.18,57.81-17.11,121.89,2.43,177.28,2.88,8.11,23.27,34.95,1.34,34.74ZM1046.52,1217.75c-16.87-2.03-25.23-28.27-34.24-33.3-9.83-5.5-43.01-5.1-49.43-18.48-1.31-2.77,3.63-7.63,4.1-12,1.52-14.66-13.62-32.02-17.49-47.51-7.04-28.03-1.76-52.73-.8-80.07,3.04-86.06,7.33-171.59,5.1-257.85l109.39-11.71-.05.02c14.37,33.49,7.25,69.67-15.57,97.35,14.95,35.97,23.3,67.77,5.94,104.91-4.5,9.58-20.51,25.79-18.93,33.16.38,1.7,25.22,12.07,31.25,16.13,27.59,18.55,47.06,45.59,54.77,78.06l-74.04,131.31ZM1123.52,1310.68c-3.14.82-20.15,3.86-22.23,3.86h-40.44l-.03-.03c-4.93-4.45,43.57-50.81,45.54-62.26,2.67-15.57-5.68-54.21-24.59-58.98l66.57-69.19c9.66,2.37,59.13,21.55,60.93,27.88-14.9,49.8-42.66,95.45-61.13,144.24-4.59,6.64-16.88,12.47-24.63,14.5ZM1227.92,1169.64c-.38,16.32-35.36,101.34-45.91,116.03-2.22,3.09-20.16,20.71-22,18.43v-.03l63.85-146c4.43,3.04,4.19,6.82,4.06,11.57Z"/>
  <path class="cls-1" d="M395.78,1324.94c6.18-72.31,47.14-212.21-30.48-257.67-47.17-27.64-89.82-7.84-108.14,40.87-34.76-7.73-82.31,4.38-75.11,48.49,2.18,13.36,16.51,17.73,19.47,24.98,2.96,7.25-6.75,12.96,5.09,28.66,8.1,10.72,20.58,15.86,33.99,15.84,6.62-.03,15.43-3.78,20.26-2.5,7.14,1.92,20.42,19.7,37.72,22.5,20.08,3.23,46.53-7.3,32.04-29.38,16.21-8.06,26.31-3.31,33.09-24.19,9.75-29.91-15.6-62.21-42.85-73l-31.99-7.06c14.69-16.26,25.94-27.49,48.71-17.47,47.22,20.82,38.26,97.83,34.71,139.98-2.56,30.29-10.47,60.41-10.29,90.87-1.15,5.22-57.81,10.48-66.89,14.53-10.35,4.61-7.74,13.94,1.63,12.19,23.86-4.48,47.65-11.58,71.98-14.26,14.9-1.65,74.44-1.44,81.75-6.91,3.7-2.75,2.83-5.01,2.66-9.04l-57.33,2.57ZM309.2,1128.57c45.86,11.63,71.8,83.75,3.06,73.85v.02c-4.35,10.29,16.95,22.61,7.81,29.94-13.51,10.82-53.85-5.97-46.93-27.33,63.27,4.35,39.8-41.92-2.48-53.57-32.36-8.93-64.31,5.15-34.07,36.66l28.71,16.87-10.55-1.25-2.46,9.07c-18.07,1.25-36.66,1.6-40.85-19.62l9.41-15.25c-1.82-6.1-31.14-9.87-28.1-33.52,4.35-33.89,70.52-33.56,84.35-4.61l3.97-1.22c8.05-13.81,13.07-13.86,28.15-10.03ZM236.77,1164.86c4.61-15.63,65.82,6.37,62.44,27.09-13.89,5.22-68.55-6.46-62.44-27.09ZM382.2,1323.16c-2.96,5.01-4.24,4.98-9.92,4.38h.02c6.56-57.49,17.67-117.98,13.11-176.1-5.09-65.02-80.87-105.34-109.68-32.5l-7.47-2.96c5.55-32.64,33.43-54.44,67.62-48,86.62,16.27,63.56,151.84,54.28,213.57-1.44,9.51-3.95,34.84-7.95,41.6Z"/>
</svg>