<svg width="766" height="628" viewBox="0 0 766 628" fill="none" xmlns="http://www.w3.org/2000/svg">
<path d="M728.872 30.8802C743.119 30.7012 749.802 40.1742 745.148 53.6453C762.721 52.6905 765.526 66.7882 756.545 79.6327C784.86 95.1625 741.582 118.733 729.871 130.235C719.637 140.29 718.19 149.107 702.138 154.537C695.44 156.804 683.833 156.61 679.194 159.236C675.793 161.16 628.069 210.629 624.787 215.403C623.847 216.775 622.519 216.999 623.191 219.476C641.301 218.312 653.385 235.662 655.757 251.952C678.687 245.806 700.154 258.83 704.406 282.206C719.652 276.224 743.432 293.783 741.881 309.566C740.001 328.617 693.859 320.576 680.984 320.218C653.281 319.427 625.622 319.606 597.904 318.726C577.168 318.07 545.989 312.654 526.341 315.34C519.031 316.339 512.407 324.171 507.977 329.542L524.014 420.289L521.329 424.212L510.975 424.317C533.338 429.508 552.15 451.393 551.628 474.725C553.865 475.158 553.716 475.083 555.014 473.696C562.19 466.028 573.692 449.32 584.985 448.604C588.342 448.395 593.742 450.722 595.517 449.633C598.322 447.903 617.298 419.752 623.146 413.74C633.708 402.865 637.811 398.449 653.072 405.043C669.706 412.233 725.262 454.914 737.062 469.027C774.775 514.094 683.819 484.795 667.558 485.019C662.292 485.094 657.07 492.582 655.713 497.491C667.423 505.054 682.64 507.113 676.016 523.538C664.276 552.643 614.225 617.567 583.239 625.876C556.983 632.918 519.837 617.776 512.572 590.207C477.573 619.819 431.625 587 436.16 544.677C389.302 549.257 376.233 514.08 398.089 476.545C399.058 474.875 401.848 472.801 397.91 471.533C396.283 471.011 392.166 476.889 388.809 478.664C371.579 487.779 354.393 482.408 339.609 471.682C324.87 487.749 303.432 488.092 283.277 484.512C284.441 500.922 269.478 513.841 254.052 515.482C257.155 530.117 258.782 540.321 253.635 554.896C242.536 586.328 229.049 565.443 209.238 556.238C196.11 572.305 183.414 612.703 157.591 604.469C143.269 599.904 77.4796 549.644 62.2629 537.203C57.131 533.011 34.2016 516.198 47.449 509.723C58.7124 504.219 101.752 518.809 116.759 520.092C126.978 520.972 128.992 520.136 131.872 509.887L119.728 500.758C120.37 482.453 131.409 463.671 149.639 458.256C144.791 427.271 151.519 401.089 179.715 385.067C198.019 374.669 214.847 371.059 235.032 378.682C237.747 377.892 240.208 369.627 242.61 366.643C257.961 347.548 282.904 342.61 306.102 348.891C307.609 347.697 314.248 314.937 314.248 311.267C314.248 308.835 313.994 306.986 311.577 305.807L238.806 274.524C230.765 270.376 236.971 264.797 237.732 258.531C234.435 258.8 231.929 258.158 228.99 256.682C216.816 250.505 198.542 235.11 185.548 226.965C156.114 208.511 126.367 191.236 95.65 175.377C82.9247 168.814 59.0406 159.728 51.5814 147.898C46.2407 139.425 48.8215 127.908 58.8168 125.178L58.8466 122.791C50.0448 119.763 45.5395 103.189 51.1786 96.4157C53.2224 93.9542 59.6522 93.074 60.1743 92.4176C61.2335 91.1197 60.0252 82.2583 64.9034 77.9917C69.7817 73.7102 78.9266 74.5456 81.239 72.83C82.328 72.0245 82.328 69.011 83.3872 67.7131C98.4994 49.319 133.766 91.1794 136.884 87.793C126.262 63.5659 142.225 42.9042 161.962 68.4292C173.882 83.8546 177.402 103.934 183.176 122.015L270.149 171.663C277.071 167.307 279.652 170.499 285.978 173.692C304.76 183.195 321.707 196.397 340.161 206.482L348.097 190.758C344.86 184.388 338.594 180.42 337.297 172.767C335.417 161.638 341.682 148.107 349.902 140.603C353.528 137.291 364.97 132.518 365.462 131.772C367.238 129.086 365.597 118.599 369.699 111.617C382.976 89.0013 416.438 88.4344 432.296 108.828C460.462 84.4214 491.999 120.509 489.866 149.524C502.815 149.375 509.26 157.162 515.003 167.441C519.225 164.607 527.654 151.717 532.562 153.015L549.151 170.693C576.541 143.9 603.036 116.182 630.426 89.3892C633.305 86.5846 640.511 82.7954 641.898 79.6029C643.838 75.202 638.616 67.7579 637.93 62.4619C636.602 52.1385 639.78 32.3422 653.236 32.3272C667.767 32.3272 666.424 53.705 669.497 53.6154C679.492 45.485 707.061 12.9485 719.563 14.9177C725.5 15.8427 732.303 25.0173 728.842 30.8802H728.872ZM678.433 68.28L682.536 63.3123L691.964 68.1159C695.052 67.3103 717.698 40.0698 719.757 35.6092C722.815 28.9856 725.112 20.1988 714.699 24.0178C708.658 26.2406 679.06 53.4066 675.121 59.2844C674.107 60.806 673.003 61.8801 673.764 63.909L678.433 68.3098V68.28ZM676.852 108.917C677.657 98.3998 681.432 91.7761 677.598 81.3185C674.375 72.5168 666.916 69.3243 663.172 61.6116C659.427 53.8989 660.964 44.3065 653.251 39.0702C644.971 44.8286 644.673 54.5255 646.314 63.8344C647.358 69.7271 653.057 75.0081 649.984 81.2588L553.94 175.586L596.323 232.469L676.001 152.821C682.804 148.42 692.695 149.793 700.885 146.794C712.835 142.423 718.936 130.325 728.021 121.896C732.974 117.301 767.704 94.894 756.62 86.8531C751.518 83.1534 726.634 100.891 723.889 104.74C721.845 107.604 722.308 110.603 722.367 113.825L716.892 113.885C708.165 97.5047 696.052 83.2877 681.73 71.5471C688.085 84.5557 687.474 95.2073 683.162 108.753L676.837 108.932L676.852 108.917ZM702.899 82.8998C705.271 83.5413 705.599 82.2583 706.972 81.3185C713.73 76.6938 736.734 54.8686 738.345 47.5885C740.463 38.026 733.601 36.922 726.366 40.5471L696.395 73.9638L702.899 82.8998ZM716.057 99.0263C718.936 101.04 750.175 75.7988 753.054 70.4879C756.65 63.8344 753.323 59.9557 746.132 60.2093C733.959 60.6568 719.861 81.1245 711.179 88.9267L716.072 99.0263H716.057ZM239.358 255.249L267.971 178.809L175.239 125.103C171.122 107.858 167.556 91.06 157.785 75.9032C154.309 70.5177 148.998 62.3873 141.792 65.9379C137.377 76.8579 149.624 90.9556 150.087 98.355C150.594 106.56 144.91 114.556 147.073 127.252C147.939 132.294 154.01 137.903 149.102 141.454C142.822 142.766 138.973 125.252 138.719 120.896C138.376 115.198 142.479 103.084 141.076 100.846C139.838 98.8772 107.063 75.3661 103.303 73.4715C83.611 63.5659 88.9368 76.9773 99.5139 87.0172C101.647 89.0461 117.938 102.816 119.117 103.323C123.309 105.158 129.321 99.1009 130.439 106.485C111.747 116.331 100.991 130.683 104.422 152.851H97.9325L97.7535 146.526C87.1019 146.481 64.1426 119.598 56.7879 135.427C52.939 143.721 64.9333 151.135 70.8111 154.746C88.1909 165.442 110.001 172.379 128.679 183.06C155.055 198.158 184.742 216.537 209.999 233.454C220.143 240.257 230.213 247.194 239.388 255.264L239.358 255.249ZM105.869 118.569L112.433 109.529C113.075 105.904 95.0981 93.1784 91.5624 90.0605C89.1755 87.9571 87.6389 83.3772 84.879 82.1241C77.763 78.8868 66.1267 80.9754 69.3043 91.1048C71.3034 97.4898 103.169 120.419 105.869 118.554V118.569ZM60.0252 99.444C54.7739 101.01 54.5949 107.067 57.1609 111.453C59.9804 116.272 93.8897 139.32 96.2915 137.411C97.6938 135.113 99.5437 129.922 99.3945 127.49C99.1558 123.597 80.6273 112.378 75.9877 108.872C70.7514 104.904 67.9617 97.087 60.0252 99.444ZM370.788 140.156C362.762 135.442 347.799 152.031 345.86 159.281C343.025 169.888 345.576 177.183 354.035 183.687C361.315 177.615 379.277 158.818 377.307 148.987C377.203 148.45 371.265 140.454 370.788 140.171V140.156ZM383.305 266.632C392.912 267.766 404.339 265.797 414.2 266.632L416.632 270.675C406.01 280.342 391.211 283.609 377.621 286.95C406.189 321.396 452.734 277.671 464.177 248.312C465.415 245.12 465.027 236.333 467.891 235.751C472.829 234.752 472.799 251.296 482.884 253.34C502.248 257.263 525.103 215.403 509.29 204.065C496.922 195.189 486.121 208.496 484.152 208.093C476.708 206.527 488.046 196.442 486.554 195.099C474.962 195.994 470.293 185.044 464.445 177.391C445.902 186.939 429.193 172.916 426.374 154.432L413.38 157.699C425.121 177.973 414.573 193.264 393.867 198.351C389.436 202.469 408.412 204.11 410.143 203.215L409.978 209.555C407.905 212.017 373.011 208.108 379.068 199.112C389.138 190.34 417.333 186.879 409.964 168.411C405.563 157.371 393.345 157.834 383.379 154.373C376.621 180.166 349.365 189.699 344.189 217.76C339.4 243.673 358.122 263.633 383.29 266.617L383.305 266.632ZM514.213 414.59L500.339 325.23L597.128 244.687L532.965 164.099C527.908 160.027 522.865 170.469 519.971 174.065C518.509 175.885 515.302 176.586 514.645 177.645C512.482 181.076 513.019 189.475 506.097 192.683V195.084C530.175 202.723 522.985 231.723 510.17 247.149C498.116 261.664 485.734 264.305 468.816 255.339C453.734 283.907 422.838 318.234 386.9 303.689C372.862 298.005 365.552 283.296 365.969 268.512C350.141 263.663 337.893 249.416 335.76 232.887C335.059 227.427 337.416 214.955 336.193 213.001C334.79 210.748 296.316 187.849 290.886 185.059C288.29 183.717 278.876 177.943 276.713 179.525L242.834 267.273L332.06 305.673L329.405 312.043L320.692 310.536L312.726 367.285C343.503 373.923 374.622 378.831 405.279 386.111C441.844 394.809 477.2 408.026 514.213 414.59ZM533.741 307.254C536.217 307.627 538.485 308.686 541.036 308.91C581.36 312.461 627.084 310.984 667.96 312.088C686.504 312.58 707.777 316.563 726.336 313.669C729.558 313.162 733.511 311.789 733.84 308.06C733.138 298.423 722.83 289.188 713.446 289.248C708.344 289.278 703.242 293.052 698.632 289.561C693.635 285.429 698.2 270.108 682.237 262.052C668.318 255.026 663.783 261.306 650.715 261.053C646.851 243.449 641.167 224.458 619.043 225.846C613.792 226.174 601.559 235.781 602.26 239.466C602.827 242.45 608.78 244.837 602.096 249.64L533.726 307.254H533.741ZM306.058 356.066C290.214 351.307 266.36 352.948 253.963 364.943C247.548 371.149 242.192 389.647 234.062 388.275C224.529 386.663 222.903 380.562 207.836 382.263C175.627 385.888 154.368 412.875 156.382 444.725C156.711 450.006 160.694 458.435 158.202 462.224C154.443 465.745 148.685 465.924 144.478 468.475C138.197 472.294 123.995 492.314 128.634 498.371L237.687 563.488C248.428 558.595 250.412 539.679 248.995 529.356C248.204 523.582 243.61 518.301 245.31 512.588C246.668 509.156 256.917 507.471 261.139 505.457C275.55 498.565 276.176 490.091 275.162 474.755C292.079 477.739 312.98 484.139 328.032 471.518C331.091 468.952 333.955 461.851 334.76 461.657C341.757 459.971 347.351 468.639 353.736 471.801C365.656 477.709 380.306 478.902 389.839 468.251C390.689 466.118 379.098 458.957 376.964 456.704C371.549 450.946 365.283 439.727 366.074 431.672C366.313 429.24 369.281 427.599 370.281 427.644C371.444 427.688 376.457 444.158 379.993 448.783C388.377 459.748 400.52 462.373 409.964 470.996C406.368 480.737 397.208 488.704 395.627 500.101C393.061 518.51 400.431 534.234 419.78 537.441C428.82 538.948 434.355 535.89 442.754 537.262C445.603 539.261 443.888 553.553 444.455 558.327C447.543 584.613 477.887 603.484 501.741 588.312C507.067 584.926 512.094 574.528 517.823 584.165C526.848 599.367 524.148 604.469 543.423 613.852C586.551 634.857 619.551 594.488 642.391 563.086C649.223 553.687 666.454 528.655 669.602 518.689C670.064 517.212 670.989 515.601 670.094 514.05L586.313 455.541C574.497 456.376 554.059 491.18 548.927 492.329C538.604 494.656 545.377 475.919 544.959 470.906C543.094 448.977 519.688 429.389 497.892 430.105L497.101 425.958L502.83 424.347L501.129 420.379C465.131 411.144 429.79 399.791 393.568 391.333C369.028 385.604 333.746 382.203 311.682 374.028C309.25 373.133 305.565 372.372 304.655 369.627L306.058 356.096V356.066ZM738.628 486.123C740.031 484.586 733.526 477.097 732.184 475.516C720.145 461.314 663.649 416.798 647.12 410.98C644.524 410.07 642.286 409.264 639.452 409.712L738.628 486.123ZM724.008 486.108L633.007 416.888C628.352 416.186 604.916 448.44 602.201 454.601C601.395 457.823 602.559 456.406 604.274 457.018C623.907 463.999 644.285 469.191 663.425 477.59L724.008 486.108ZM169.451 598.293C153.548 582.584 134.512 569.486 116.297 556.343C110.136 551.897 55.4751 512.379 52.3721 515.407C54.7888 522.762 63.5608 528.446 69.5132 533.22C91.458 550.823 125.919 577.034 149.43 591.52C156.009 595.577 160.888 599.844 169.466 598.307L169.451 598.293ZM80.0157 520.285L175.15 593.399C177.447 593.325 199.899 557.79 200.168 554.925C200.391 552.539 199.317 552.419 197.602 551.464C191.769 548.212 177.79 545.736 170.242 543.051C151.236 536.308 141.375 531.623 121.742 528.267C107.823 525.895 94.0239 522.195 80.0157 520.271V520.285Z" fill="#1E3D34"/>
<path d="M534.546 52.0196C533.83 52.0495 531.801 53.586 529.683 53.7501C522.582 54.2872 516.674 51.2886 523.417 45.7838L556.491 43.8892C554.373 39.2497 541.2 38.5784 539.32 35.8782C529.37 21.5418 564.95 38.4143 566.248 37.3849C564.293 32.6857 551.896 11.3229 556.506 8.14532C557.789 7.26514 560.788 8.24974 562.205 9.74156C566.979 14.7988 567.889 29.1501 574.363 34.1328C576.989 28.7025 578.57 1.11886 583.344 0C588.327 0.298363 587.462 5.66889 587.506 8.96581C587.641 19.2146 582.106 30.1794 582.524 40.652C587.626 38.4292 609.63 18.3941 613.39 21.139C613.121 22.6905 614.717 24.3763 614.687 25.5101C614.508 31.7608 591.296 45.754 585.761 49.573L618.044 61.9999L618.134 68.1462C615.866 72.1442 590.639 62.522 585.761 61.791C584.18 63.3127 593.116 91.1798 593.608 95.521C594.264 101.25 589.356 102.95 585.925 98.1764C580.868 91.135 580.778 72.6216 573.543 65.0581C569.634 65.0432 556.014 91.2842 552.389 94.2679C549.927 96.2967 548.062 96.1625 545.094 95.9089C540.618 91.4633 567.814 59.9859 567.859 52.0196C556.79 52.3627 545.601 51.5572 534.517 52.0196H534.546Z" fill="#1E3D34"/>
<path d="M345.084 555.224C345.084 555.492 340.937 560.788 345.86 559.267C354.602 556.567 361.867 538.381 374.339 541.41C374.652 555.045 355.96 558.312 349.947 569.023C356.303 571.171 389.541 577.691 390.6 582.882C390.973 584.687 389.496 586.194 387.914 586.686C379.53 589.357 356.825 577.169 346.71 577.169C345.114 578.81 357.168 600.844 357.78 604.364C358.212 606.811 358.406 610.526 355.512 611.257C347.859 613.166 343.995 588.238 339.355 583.673L328.644 616.015C313.427 618.313 325.75 599.695 325.526 591.788C318.38 594.533 309.519 614.807 303.164 604.006L328.793 573.916L296.256 575.513L296.167 569.948L328.778 565.771C331.24 563.727 304.76 536.293 318.246 536.442C323.542 536.502 329.42 555.343 335.268 557.641L337.177 524.582L339.385 521.912C341.011 521.061 345.054 523.001 345.054 524.328C345.054 534.532 345.561 545.065 345.054 555.224H345.084Z" fill="#1E3D34"/>
<path d="M306.565 60.6275C300.419 68.0418 317.679 88.4797 310.533 95.521C303 102.95 286.053 86.7939 277.654 86.1226C228.349 128.371 255.037 77.9624 250.443 70.2199C242.103 64.5509 228.692 60.2993 226.275 49.6626C227.095 40.6222 250.771 40.4283 257.23 36.5346L265.212 7.47405C280.1 0.298413 283.427 31.0298 289.782 35.0577C297.361 36.2214 322.364 27.6732 326.392 35.744C331.896 46.7685 311.682 54.4215 306.55 60.6126L306.565 60.6275ZM319.067 40.6521C308.266 40.0702 297.465 40.8311 287.514 45.4109L270.299 16.2608L263.735 41.4129L236.166 51.2141C241.253 57.5096 255.932 62.0596 258.245 69.8767C260.229 76.575 254.47 85.5408 255.664 92.6866C264.093 89.882 268.24 78.2458 277.609 78.2757C283.143 78.2906 303.059 90.792 304.432 89.4195C303.835 81.5278 294.884 69.1607 296.958 61.7463C299.031 54.332 314.397 47.0221 319.082 40.667L319.067 40.6521Z" fill="#1E3D34"/>
<path d="M89.3697 254.041C134.244 247.895 164.737 295.767 134.348 333.152C98.5743 377.161 26.7875 351.427 40.4526 294.559C44.8088 276.433 71.2888 256.502 89.3697 254.041ZM92.4429 260.709C83.3278 261.127 68.9764 269.541 62.114 275.553C18.4332 313.803 72.7209 372.566 118.908 337.21C155.861 308.925 137.571 258.651 92.4429 260.694V260.709Z" fill="#1E3D34"/>
<path d="M180.028 248.79L182.519 252.848C182.713 254.4 181.639 255.056 180.804 256.041C179.834 257.174 156.785 270.81 155.278 271.197C153.085 271.764 150.341 270.929 149.938 269.034C148.729 263.321 175.761 252.55 180.028 248.775V248.79Z" fill="#1E3D34"/>
<path d="M70.2741 243.867L65.3809 212.987C72.0643 206.229 76.4353 233.857 76.6293 236.811C76.9873 242.092 76.2414 244.553 70.2591 243.867H70.2741Z" fill="#1E3D34"/>
<path d="M144.731 256.532C143.582 257.173 138.823 257.128 138.57 256.875C135.884 254.279 149.46 233.513 152.354 234.125C159.276 235.616 145.85 255.905 144.731 256.532Z" fill="#1E3D34"/>
<path d="M24.7285 375.564C21.6404 372.595 43.9432 348.816 45.8528 358.527C44.1969 362.824 28.7863 379.458 24.7285 375.564Z" fill="#1E3D34"/>
<path d="M11.3617 317.502C16.8815 316.95 20.999 315.682 24.6838 321.098C24.6838 328.199 -8.18123 325.946 1.93338 319.457C4.94687 318.8 8.36316 317.816 11.3767 317.517L11.3617 317.502Z" fill="#1E3D34"/>
<path d="M97.1124 373.954C103.453 372.627 102.214 399.211 98.6938 399.957C92.3535 401.284 93.5917 374.7 97.1124 373.954Z" fill="#1E3D34"/>
<path d="M164.2 353.143C172.688 368.553 141.241 349.935 146.686 344.669C150.162 342.506 163.275 351.457 164.2 353.143Z" fill="#1E3D34"/>
<path d="M38.5726 237.377C43.3912 235.855 56.6536 251.892 49.8956 253.623C46.4793 254.503 38.2295 244.821 36.8869 242.27C35.395 239.421 36.6332 239.152 38.5726 237.377Z" fill="#1E3D34"/>
<path d="M159.709 334.898C159.053 326.38 164.901 327.603 169.451 332.496C168.541 338.672 163.722 335.928 159.709 334.898Z" fill="#1E3D34"/>
<path d="M306.058 356.066L304.655 369.597C305.565 372.342 309.265 373.088 311.682 373.998C333.746 382.188 369.043 385.574 393.568 391.303C429.79 399.761 465.132 411.114 501.129 420.348L502.83 424.317L497.101 425.928L497.892 430.075C519.688 429.359 543.095 448.946 544.959 470.876C545.392 475.874 538.619 494.611 548.928 492.299C554.059 491.15 574.497 456.346 586.313 455.51L670.094 514.019C670.989 515.556 670.064 517.167 669.602 518.659C666.454 528.609 649.223 553.657 642.391 563.055C619.551 594.458 586.551 634.827 543.423 613.822C524.148 604.438 526.863 599.336 517.823 584.135C512.094 574.498 507.067 584.896 501.741 588.282C477.902 603.454 447.543 584.582 444.455 558.297C443.888 553.523 445.618 539.246 442.754 537.232C434.355 535.875 428.82 538.918 419.78 537.411C400.431 534.204 393.061 518.48 395.627 500.071C397.209 488.673 406.383 480.707 409.964 470.966C400.505 462.343 388.377 459.717 379.993 448.752C376.457 444.128 371.445 427.658 370.281 427.613C369.281 427.569 366.313 429.21 366.074 431.641C365.283 439.697 371.549 450.916 376.964 456.674C379.083 458.927 390.674 466.087 389.839 468.221C380.306 478.872 365.656 477.664 353.737 471.771C347.352 468.609 341.757 459.941 334.761 461.627C333.955 461.821 331.091 468.922 328.032 471.488C312.995 484.109 292.094 477.694 275.162 474.725C276.176 490.046 275.535 498.519 261.139 505.427C256.932 507.441 246.683 509.141 245.31 512.557C243.625 518.286 248.22 523.552 248.995 529.325C250.398 539.649 248.428 558.58 237.687 563.458L128.635 498.34C123.995 492.284 138.197 472.249 144.478 468.444C148.685 465.893 154.443 465.714 158.203 462.194C160.694 458.404 156.711 449.976 156.383 444.695C154.369 412.83 175.627 385.858 207.836 382.232C222.903 380.547 224.529 386.633 234.062 388.244C242.193 389.617 247.533 371.118 253.963 364.912C266.375 352.918 290.229 351.277 306.058 356.036V356.066Z" fill="#A89FD8"/>
<path d="M514.213 414.59C477.2 408.026 441.844 394.809 405.279 386.112C374.622 378.817 343.503 373.923 312.726 367.285L320.693 310.536L329.405 312.043L332.06 305.673L242.834 267.274L276.713 179.525C278.877 177.944 288.29 183.732 290.886 185.06C296.316 187.849 334.79 210.734 336.193 213.001C337.416 214.956 335.059 227.442 335.76 232.887C337.893 249.416 350.141 263.663 365.97 268.512C365.552 283.296 372.862 298.005 386.9 303.689C422.838 318.234 453.734 283.907 468.816 255.339C485.734 264.29 498.131 261.649 510.17 247.149C522.985 231.709 530.175 202.708 506.082 195.085V192.683C513.019 189.475 512.482 181.076 514.645 177.645C515.302 176.601 518.509 175.885 519.971 174.065C522.85 170.47 527.893 160.027 532.965 164.1L597.129 244.687L500.339 325.231L514.213 414.59Z" fill="#B8E04A"/>
<path d="M239.358 255.25C230.184 247.179 220.114 240.242 209.969 233.44C184.713 216.508 155.04 198.128 128.65 183.046C109.972 172.365 88.1614 165.428 70.7816 154.731C64.9038 151.121 52.9095 143.707 56.7584 135.412C64.0982 119.584 87.0574 146.467 97.724 146.512L97.903 152.837H104.392C100.961 130.668 111.732 116.332 130.41 106.471C129.291 99.0867 123.279 105.143 119.087 103.309C117.923 102.801 101.618 89.0169 99.4844 87.003C88.9073 76.963 83.5815 63.5516 103.274 73.4573C107.033 75.3519 139.809 98.8629 141.047 100.832C142.449 103.085 138.347 115.198 138.69 120.882C138.958 125.223 142.807 142.752 149.073 141.439C153.996 137.889 147.909 132.295 147.044 127.237C144.881 114.542 150.565 106.546 150.057 98.3408C149.595 90.9413 137.347 76.8437 141.763 65.9236C148.968 62.3731 154.279 70.5035 157.755 75.8889C167.527 91.0458 171.092 107.859 175.21 125.089L267.942 178.794L239.328 255.235L239.358 255.25Z" fill="#FFFAF3"/>
<path d="M676.852 108.916L683.177 108.737C687.489 95.1768 688.1 84.5252 681.745 71.5315C696.052 83.2721 708.18 97.504 716.908 113.869L722.383 113.81C722.308 110.587 721.846 107.589 723.904 104.724C726.649 100.876 751.548 83.1379 756.635 86.8376C767.719 94.8785 732.989 117.271 728.037 121.88C718.966 130.309 712.865 142.423 700.9 146.779C692.71 149.777 682.819 148.405 676.017 152.806L596.338 232.454L553.955 175.571L649.999 81.2433C653.072 74.9925 647.373 69.7115 646.329 63.8188C644.688 54.5099 644.986 44.8131 653.266 39.0547C660.964 44.3059 659.383 53.764 663.187 61.596C666.991 69.4281 674.376 72.5161 677.613 81.3029C681.447 91.7606 677.672 98.3842 676.867 108.902L676.852 108.916Z" fill="#FFFAF3"/>
<path d="M383.305 266.633C358.137 263.649 339.415 243.689 344.204 217.776C349.395 189.715 376.636 180.182 383.394 154.389C393.36 157.85 405.578 157.387 409.979 168.427C417.333 186.895 389.138 190.341 379.083 199.128C373.041 208.124 407.92 212.047 409.993 209.571L410.158 203.231C408.427 204.111 389.451 202.47 393.882 198.367C414.603 193.28 425.136 177.989 413.395 157.715L426.389 154.448C429.208 172.932 445.902 186.955 464.46 177.407C470.308 185.06 474.978 196.01 486.569 195.115C488.046 196.458 476.723 206.543 484.167 208.109C486.136 208.527 496.937 195.22 509.304 204.081C525.103 215.419 502.263 257.279 482.899 253.356C472.799 251.312 472.844 234.768 467.906 235.767C465.042 236.349 465.43 245.121 464.192 248.328C452.749 277.687 406.204 321.427 377.636 286.966C391.241 283.625 406.025 280.373 416.647 270.691L414.215 266.648C404.354 265.812 392.927 267.782 383.32 266.648L383.305 266.633ZM388.944 167.502C378.471 165.562 383.961 178.989 389.033 181.256C393.061 183.061 405.861 183.046 406.89 178.004C403.4 168.695 390.406 183.076 388.944 167.502ZM440.859 188.775C432.58 183.897 433.997 199.74 443.067 203.619C450.183 206.662 468.324 205.618 465.415 195.1C463.177 192.713 452.436 202.574 444.738 196.249C443.008 194.817 441.367 189.088 440.844 188.775H440.859ZM427.582 210.093C421.973 211.257 415.349 218.089 410.337 218.701C404.444 219.417 387.139 209.825 384.14 225.22C380.381 244.479 404.578 253.594 420.272 251.58C450.914 247.657 455.464 204.32 427.567 210.093H427.582ZM498.19 218.074C501.935 217.403 505.351 217.164 504.441 212.182C490.269 199.531 472.382 243.346 482.526 245.494C487.777 246.598 486.435 233.932 488.21 230.874C491.805 230.098 491.074 231.769 492.238 234.171L497.176 232.53L498.19 218.074Z" fill="#FFFAF3"/>
<path d="M533.741 307.256L602.111 249.642C608.81 244.838 602.842 242.451 602.275 239.467C601.574 235.783 613.807 226.175 619.058 225.847C641.167 224.46 646.866 243.451 650.73 261.054C663.798 261.308 668.334 255.042 682.252 262.054C698.2 270.109 693.65 285.415 698.648 289.563C703.257 293.068 708.359 289.279 713.461 289.249C722.86 289.205 733.154 298.424 733.855 308.061C733.527 311.791 729.573 313.163 726.351 313.67C707.792 316.564 686.519 312.581 667.976 312.089C627.099 310.985 581.375 312.462 541.051 308.911C538.5 308.688 536.232 307.628 533.756 307.256H533.741Z" fill="#8FBFB0"/>
<path d="M724.009 486.109L663.426 477.591C644.286 469.177 623.907 464 604.275 457.019C602.544 456.407 601.395 457.824 602.201 454.602C604.916 448.441 628.353 416.173 633.007 416.889L724.009 486.109Z" fill="#2C5F52"/>
<path d="M80.0156 520.285C94.0239 522.21 107.823 525.909 121.742 528.281C141.375 531.623 151.236 536.307 170.241 543.065C177.79 545.75 191.769 548.227 197.602 551.479C199.317 552.434 200.391 552.553 200.168 554.94C199.899 557.804 177.447 593.339 175.15 593.414L80.0156 520.3V520.285Z" fill="#2C5F52"/>
<path d="M169.451 598.292C160.873 599.829 156.009 595.562 149.415 591.504C125.904 577.019 91.4429 550.808 69.4981 533.204C63.5457 528.43 54.7737 522.747 52.3569 515.392C55.4599 512.364 110.121 551.882 116.282 556.327C134.497 569.485 153.533 582.583 169.436 598.277L169.451 598.292Z" fill="#FFFAF3"/>
<path d="M678.433 68.28L673.764 63.8792C673.003 61.8503 674.092 60.7762 675.122 59.2546C679.06 53.3917 708.658 26.2108 714.7 23.988C725.113 20.169 722.83 28.9558 719.757 35.5794C717.683 40.0549 695.037 67.2954 691.964 68.0861L682.536 63.2825L678.433 68.2502V68.28Z" fill="#FFFAF3"/>
<path d="M105.869 118.569C103.169 120.433 71.3036 97.5041 69.3046 91.1191C66.127 80.9897 77.7633 78.8862 84.8793 82.1384C87.6392 83.4064 89.1757 87.9714 91.5627 90.0749C95.0983 93.1928 113.075 105.918 112.433 109.543L105.869 118.583V118.569Z" fill="#FFFAF3"/>
<path d="M738.628 486.123L639.452 409.713C642.286 409.25 644.524 410.056 647.12 410.981C663.649 416.799 720.145 461.3 732.184 475.517C733.526 477.098 740.031 484.587 738.628 486.123Z" fill="#FFFAF3"/>
<path d="M716.057 99.0255L711.164 88.9259C719.861 81.1386 733.944 60.6709 746.118 60.2084C753.308 59.9399 756.65 63.8186 753.04 70.487C750.175 75.7979 718.937 101.039 716.042 99.0255H716.057Z" fill="#FFFAF3"/>
<path d="M702.899 82.9004L696.395 73.9644L726.366 40.5478C733.601 36.9227 740.464 38.0266 738.345 47.5891C736.734 54.8692 713.73 76.6796 706.972 81.3191C705.6 82.2589 705.271 83.5419 702.899 82.9004Z" fill="#FFFAF3"/>
<path d="M60.0253 99.4442C67.9618 97.0872 70.7515 104.904 75.9878 108.873C80.6274 112.393 99.1559 123.597 99.3946 127.49C99.5438 129.907 97.6939 135.099 96.2916 137.411C93.8898 139.32 59.9805 116.272 57.1609 111.453C54.595 107.067 54.774 101.011 60.0253 99.4442Z" fill="#FFFAF3"/>
<path d="M370.788 140.155C371.266 140.439 377.188 148.435 377.308 148.972C379.292 158.803 361.33 177.615 354.035 183.672C345.577 177.182 343.026 169.872 345.86 159.265C347.799 152.015 362.762 135.426 370.788 140.14V140.155ZM359.734 146.331C359.466 149.912 361.823 153.134 361.375 156.759C360.569 163.144 348.59 168.201 355.691 173.96C362.598 175.422 378.829 143.437 359.734 146.331Z" fill="#FFFAF3"/>
<path d="M319.067 40.6522C314.397 47.0223 299.031 54.2725 296.943 61.7316C294.854 69.1907 303.82 81.4981 304.417 89.4048C303.044 90.7772 283.143 78.2758 277.594 78.2609C268.225 78.2311 264.078 89.8672 255.649 92.6718C254.456 85.541 260.214 76.5751 258.23 69.862C255.918 62.0448 241.238 57.4948 236.151 51.1993L263.72 41.3981L270.284 16.2461L287.5 45.3962C297.45 40.8163 308.251 40.0555 319.052 40.6373L319.067 40.6522Z" fill="#B8E04A"/>
<path d="M92.4426 260.709C137.57 258.665 155.86 308.939 118.908 337.224C72.7207 372.58 18.433 313.818 62.1137 275.567C68.9762 269.555 83.3276 261.127 92.4426 260.724V260.709Z" fill="#B8E04A"/>
<path d="M427.582 210.091C455.464 204.318 450.929 247.655 420.287 251.579C404.578 253.592 380.396 244.477 384.155 225.218C387.153 209.823 404.459 219.415 410.351 218.699C415.364 218.087 421.973 211.255 427.597 210.091H427.582ZM437.548 218.117C436.712 216.745 430.894 215.298 429.656 218.699L434.564 230.857C438.786 235.004 438.562 219.788 437.548 218.117ZM423.121 221.116C411.47 222.801 420.332 235.706 418.273 243.866L431.103 238.212L423.121 221.116ZM398.745 222.742C390.436 222.921 388.556 230.454 394.687 235.706L398.745 222.742ZM410.128 225.979H405.279L402.027 242.195L410.128 243.866V225.979Z" fill="#1E3D34"/>
<path d="M498.19 218.074L497.176 232.529L492.238 234.17C491.074 231.753 491.805 230.098 488.21 230.873C486.435 233.932 487.777 246.597 482.526 245.493C472.382 243.36 490.269 199.53 504.441 212.181C505.351 217.164 501.935 217.402 498.19 218.074Z" fill="#1E3D34"/>
<path d="M440.86 188.773C441.382 189.087 443.023 194.815 444.753 196.247C452.436 202.573 463.177 192.727 465.43 195.099C468.339 205.616 450.199 206.66 443.083 203.617C434.012 199.738 432.58 183.895 440.875 188.773H440.86Z" fill="#1E3D34"/>
<path d="M388.944 167.501C390.391 183.091 403.385 168.71 406.891 178.004C405.861 183.046 393.061 183.046 389.033 181.256C383.961 178.988 378.471 165.562 388.944 167.501Z" fill="#1E3D34"/>
<path d="M359.734 146.332C378.829 143.438 362.598 175.422 355.691 173.96C348.59 168.202 360.569 163.145 361.375 156.76C361.837 153.134 359.465 149.912 359.734 146.332Z" fill="#1E3D34"/>
<path d="M423.122 221.117L431.103 238.213L418.273 243.867C420.317 235.707 411.47 222.803 423.122 221.117Z" fill="#FFFAF3"/>
<path d="M410.128 225.98V243.867L402.027 242.197L405.294 225.995L410.128 225.98Z" fill="#FFFAF3"/>
<path d="M437.548 218.119C438.562 219.775 438.786 235.006 434.564 230.859L429.656 218.701C430.894 215.299 436.712 216.747 437.548 218.119Z" fill="#FFFAF3"/>
<path d="M398.745 222.744L394.687 235.708C388.556 230.442 390.436 222.923 398.745 222.744Z" fill="#FFFAF3"/>
</svg>
