<?xml version="1.0" encoding="UTF-8"?>
<svg id="Layer_1" data-name="Layer 1" xmlns="http://www.w3.org/2000/svg" viewBox="0 0 1500 1500">
  <defs>
    <style>
      .cls-1 {
        fill: #263c34;
      }
    </style>
  </defs>
  <path class="cls-1" d="M1022.12,951.33v.03c-26.18,4.39-36.68,38.43-50.96,56.81-29.86,38.42-83.95,43.45-102.51,92.95-44.64,119.12,143.44,196.31,234.23,86.32,66.34-80.32,45.89-257.38-80.76-236.11ZM948.75,1223.9c-48.93-16.36-90.59-68.23-68.26-121.04,17.15-40.6,65.29-47.87,92.21-78.17,24.24-27.31,23.4-60.14,67.11-63.25h.03c59.29-4.23,90.62,65.7,90.89,115.75.52,93.21-87.42,178.35-181.98,146.7Z"/>
  <path class="cls-1" d="M942.58,354.4c-5.36,9.27-37.57,34.98-37.68,43.8-.26,20.91,29.72-15.97,35.15-18.77-1.17,11.39-15.98,34.4-1.26,40.07,8.15-1.71,17.01-41.21,18.85-50.1,5.76-1.03,3.98.39,5.56,3.21,1.77,3.23,14.82,46.99,24.47,36.89,1.23-18.15-12.53-32.49-15.01-50.08,5.18-4.54,47.36,13.71,57.08,14.56,4.11.35,5.53.3,8.06-3.33.98-5.77-1.48-6.79-5.71-9.27-8.53-4.98-53.16-13.19-54.41-18.3l37.68-35.04c.29-22.86-41.97,20.71-47.7,23.79v-56.34c0-4.36-12.53-6.48-12.53,2.51v51.35c-10.71-5.68-15.65-24.57-23.27-31.81-1.88-1.82-6.1-4.33-8.09-.8-6.65,11.44,19.5,33.02,21.33,45.13h-38.84c-4.38,0-18.25,5.86-13.77,12.5,2.05,3.04,42.64-1.86,50.11.05Z"/>
  <path class="cls-1" d="M410.56,309.85v.03c-15.85,3.29-29.59,20.59-31.31,36.46-5.24,48.11,57.69,70.18,80.7,27.93,20.74-38.05-7.83-73.05-49.39-64.43Z"/>
  <path class="cls-1" d="M194.13,517.97c2.94,11.1-10.47,38.48-2.79,46.28h.03c11.6,11.79,34.51-20.74,43.36-22.01,14.51-2.06,34.07,22.36,51.42,14.01,10.06-13.73-10.48-38.01-7.32-49.7,5.64-10.91,35.86-26.19,34.86-38.01-1.86-21.63-50.85-1.15-60.4-7.56-43.78-96.42-34.96-10.57-47.51,2.42-8.04,8.38-45.75,7-47.76,20.12-3.76,17.22,32.8,25.96,36.11,34.45ZM173.16,484.67c9.88-2.73,32.78-4.94,40.02-11.35,7.33-6.53,9.41-28.98,10.09-38.77,4.48-.98,4.95,1.33,7.1,4.17,4.53,5.95,16.46,36.95,18.2,38.25l49.83-7.31c3.61,3.15-23.63,21.68-26.37,24.97-14.53,17.41,2.83,31.12,3.82,50.17-14.5-2.92-26.12-16.24-41.3-15.18-15.16,1.06-20.18,17.89-33.83,22.69,2.2-12.89,8.71-29.15,3.33-42.01-2.42-5.83-36.42-19.51-30.9-25.63Z"/>
  <polygon class="cls-1" points="248.59 476.97 248.58 476.97 248.54 476.97 248.59 476.97"/>
  <path class="cls-1" d="M393.86,292.84c35.39,24.95,28.49-14.53,11.5-30.28-26.3-24.39-44.39,7.1-11.5,30.28Z"/>
  <path class="cls-1" d="M466.65,260.24c-14.6-17.59-47.13,26.39-42.86,41.52,14.72,3.54,53.9-28.21,42.86-41.52Z"/>
  <path class="cls-1" d="M852.33,576.15l-21.39,8.7,1.27,6.41c5.7,3.73,41.58-5.42,42.16-12.54.85-10.54-37.86-16.5-34.51-42.43.62-4.85,10.29-18.86,7.45-21.51-7.09-6.62-16.29,9.45-17.36,16.42-3.77,24.04,7.23,30.02,22.38,44.96Z"/>
  <path class="cls-1" d="M808.64,619.81c11.09,1.77,37.93,1.56,33.66-14.85-18.66,3.97-26.51,10.01-43.48-2.91-5.65-4.32-7.68-16.09-16.66-5.83,2.71,11.07,15.41,21.81,26.48,23.59Z"/>
  <path class="cls-1" d="M713.58,519.98l-6.57,6.06,7.24,7.86-7.2,16.97c1.24,3.95,7.44,2.85,9.26,4.67h-.02c1.59,1.61,1.06,6.57,3.03,8.18h7.77c6.12-14.69,3.12-37.22-13.51-43.73Z"/>
  <path class="cls-1" d="M1054.78,1081.5c-43.93,6-39.22,73.18,6.6,71.94,55.2-1.47,36.21-77.77-6.6-71.94ZM1073.56,1138.07c-36.51,17.92-53.57-36.63-21.45-43.99,24.47-5.6,46.55,31.66,21.45,43.99Z"/>
  <path class="cls-1" d="M1059.76,996.37c-41.4,5.98-39.77,72.11,9.1,66.96,46.36-4.88,35.39-73.4-9.1-66.96ZM1059.26,1050.8c-28.86-4.61-20.03-43.55,5.29-44.31,25.94-.79,35.57,50.84-5.29,44.31Z"/>
  <path class="cls-1" d="M999.62,1151.7c-34.74,4.94-37.63,53.22.47,60.99,48.63,9.94,51.17-68.35-.47-60.99ZM983.08,1184.44c.05-11.76,9.63-21.89,21.28-22.51l.02.02c7.68-.41,19.45,7.92,20.91,15.63,5.7,30.59-34.12,30.63-42.2,6.86Z"/>
  <path class="cls-1" d="M921.83,1109.16c-32.59,6.64-27.75,56.58,9.44,56.58,45.07-.03,33.83-65.41-9.44-56.58ZM915.71,1147.98c-14.97-15.01,9.98-41.99,27.9-21.66,17.94,20.33-13.21,36.39-27.9,21.66Z"/>
  <path class="cls-1" d="M987.7,755.27s0-.01-.01-.02c0,0-.01,0-.02-.01l.03.03Z"/>
  <path class="cls-1" d="M1350.97,553.72l-252.89-85.41c-6.8-1.91-15.38-3.32-18.24,4.54-14.25,36.11-30.92,71.28-45.72,107.13-8.2,19.84-18.53,41.57-21.57,62.4-59.88,12-118.36,33.16-170.21,65.32l5.56-32.01c29.63-9.07,54.69-34.75,65.02-64.02,2.15-6.09,3.92-23.18,4.77-24.06.71-.71,14.38-.98,19.18-5.88,2.94-3,9.82-20.97,10.51-25.84,3.82-27.31-7.76-81.46-44.89-63.69.71-24.09-20.53-50.63-42.67-58.85-18.22-6.79-16.04-4.41-32.69-14.92-38.99-24.62-96.88-2.21-110.15,41.17-39.95-45.57-105.35-49.64-152.82-12.53l-.06.02c-4.62-57.08-73.29-88.32-118.99-52.55-67.41,52.76,3.61,156.12,77.65,125.3,6.21,4.29,2.71,12.04,4,18.47,17.39,87.33,117.07,105.68,173.88,42.28l23.84,6.88-11.36,44.99c-61.31,31.68-99.29,88.94-123.92,151.73l-125.34,17.63c-20.04-28.15-45.3-51.75-67.64-77.9-5.01-5.86-26.12-37.01-28.16-38.21-9.98-5.74-23.04,7.51-25.63,6.92-15.62-17.19-40.54-65.91-65.37-67.78-10.88-.83-13.94,3.08-22.04,8.14-23.75,14.79-105.38,79.53-120.57,99.97-5.92,7.95-17.42,26.92-4.01,33.63,25.97,13,100.47-42.49,132.64-18.57-22.92,60.11-8.36,130.37,70.38,107.48-6.6,39.58,2.67,79.5,42.05,97.01,35.51,15.82,72.23,8.51,100.79-16.85,12.65,39.99,50.37,66.31,92.77,55.16-4.23,8.18-32.07,52.82-38.4,52.2-34.33-14.3-68.93-28.86-103.85-41.58-20.56-7.5-58.64-23.57-78.21-27.18-2.62-.48-5.24-2.05-7.79.02l-2.42,8.95c-2.8,2.54-59.75-24.5-68.76-27.59-38.87-13.35-41.39-8.92-58.61,26.74-16.39,33.93-44.04,96.18-54.11,131.29-3.54,12.41-9.5,36.66,11.86,31.99,15.38-3.38,43.78-42.28,58.14-54.73,20.71-17.94,41.98-35.66,68.93-16.24-4.18,6.26-8.97,17.12-7.47,24.59.35,1.79,4.26,1.91,5.74,4.89,18.21,36.34,24.86,74.29,56.9,103.36,45.86,41.61,156.15,65.06,178-11.3,15.66,5.51,28.81,16.85,45.04,21.36,81.53,22.62,169.56-49.69,143.07-135.05,1.55-4.98,16.86-5.03,22.95-7.24,44.54-16.09,73.52-79.32,69.64-124.58,48.02,15.03,90.17-3.68,121.57-40.07,4.83-5.59,22.87-34.05,25.07-35.08,5.03-2.38,4.5,13.12,12,13.03l247.34,86.21,13.77-4.14,146.31-375.13c1.27-7.85-17.59-37.36-24.78-41.84ZM1026.52,629.93l65.03-152.06,249.52,84.47-141.91,355.59-221.48-77.55,2.44-8.79c31.75.17,69.41-14.72,81.46-46.34,8.6-22.57-1.39-20.19-2.64-31.25-1.08-9.6,11.32-28.04-.92-40.28-4.57-4.58-11.63-1.05-10.16-8.57l32.58-10.04v41.34c0,10.83,13.01,38.48,20.04,47.61,27.98,36.37,85.21,41.54,114.09,3.82,18.92-24.74,11.3-55.84,17.33-85.39,6.03-29.54,34.65-39.19,24.74-77.06-2.58-9.86-12.85-16.75-13.33-21.78-.79-8.17,13.51-41.51-3.76-41.39-5.29.05-22.72,22.83-35.07,21.63-2.39-.23-14.35-9.73-19.57-12-54.93-23.92-86.38,14.5-91.97,65.64-19.54,1.62-42.3-2.24-61.4,0l.02-.08c-1.08.14-3.44,3.45-6.24,2.5l1.21-10.01ZM1144.58,600.19c31.39-3.74,64.66,4.03,91.18-20.31-3.97,36.55-25.24,76.46-60.13,91.45-16.27,7.01-46.11,12.69-57.63-3.73l.02-.02c33.69.47,65.11-17.3,87.67-41.37l-7.6-5.26c-24.03,20.27-50.31,35.52-82.59,36.55,4.44-10,40.49-25.72,21.34-35.04l-31.34,25.04c-6.97-27.45,13.68-44.28,39.08-47.32ZM1123.04,592.38c13.42-23.45,44.28-16.18,65.14-7.44l-65.14,7.44ZM1108.02,677.6v-.02c48.07,35.24,114.93-10.07,130.3-60.13,25.06,24.48-2.44,45.22-12.26,66.72-16.83,36.89,4.33,97.8-45.43,114.93-64.61,22.24-94.33-49.25-87.85-102.86,1.59-13.06,13.33-6.94,15.24-18.65ZM1064.06,689.33c-9.26-.98-14.22-33.75-8.71-41.8h37.61l10.03,27.54-38.93,14.25ZM1042.79,647.56v.02c-1.05,16.12.21,30.54,7.54,45.07-5.91,2.11-15.01,2.53-20.78.05-4.36-1.89.83-18.39-19.94-14.6-20.48,3.76-35.86,46.81-60.87,47.26-13.09.24-15.06-4.23-31.18,1.2-28.77,9.68-37.75,29.21-74.65,35.61-8.07,1.42-38.86,7.23-40.58-3.39,58.54-67.41,155.7-93.65,240.46-111.21ZM817.26,775.36l37.6-5.01c-4.03,5.1-31.13,35.27-35.04,32.54-9.09-12.09,3.08-15.15-2.56-27.53ZM897.99,513.94c1.74-10.21,16.98-18.69,26.31-10.97,12.79,10.6,15.32,57.96,4.47,69.4-2.98,3.14-4.7,2.85-8.74,2.51,7.8-13.86-22.6-57.7-22.04-60.94ZM734.11,590.73c4.53-13.32,17.98-15.85,17.98-30.87l-.08-.03c10.38,3,18.97,10.1,31.98,11.89,17.15,2.35,41.96,3.74,38.27-20.13-12.86-12.1-59.55-24.83-70.43-8.2-5.01,7.71.21,10.68.21,16.44-14.53-4.18-14.72,12.77-26.4,15.01-33.84,6.56-32.78-57.43-9.47-69.84l5.85.88c8.97,5.74,12.68,29.51,19.24,31.02,10.92-1.38,21.84-2.94,32.16-7.07,4.92-1.95,17.89-11.56,20-11.71,7.1-.45,21.27,18.77,26.1.74l-14.8-12.88,32.52-43.84,19.75,34.25c.44,5-11.82,9.44-6,18.42,6.92,7.42,14.54-8,19.63-7.24l16.74,16-26.07,13.94c-23.04,32.8,26.13,28.71,43.61,14.83,19.77,76.09-64.7,148.17-135.1,106.28-6.94-4.14-22.25-21.01-23.9-21.25-1.76-.23-6.33-.76-6.39,1.48-3.36,12.01,8.48,14.09,10.04,23.72-5.89-1.45-28.34-2.23-29.31-8.65,6.83-19.56,7.35-44.02,13.86-63.2ZM762.15,551.1c5.53-6.67,15.13-3,22.51-3.76l-2.53,12.53-19.98-8.77ZM884.93,539.81l-.3,9.7c-33.22,9.42-5.94-16.07.3-9.7ZM708.25,647.56c-1.55,29.98,31.31,21.6,50.07,25.07,6.51,1.2,36.25,33.95,43.87,41.34,4.98,4.88,14.8,6.71,12.21,15.94l-.05.02-20.86,15.36c-3.88-.97-37.93-56.19-46.42-63.93-3.42-3.15-4.88-4.65-10.04-3.73l2.85,13.42,63.5,86.86,1.21,7.33-108.86,67.78-31.93-103.44c-3.38-8.3-13.38-4.39-11.51,3.74l32.12,104.66-89.08-44.95c16.15-66.25,53.85-129.55,112.92-165.49ZM715.68,855.51l21.36,32.55v.02l-11.68-4.59-28.42-17.92,18.74-10.06ZM138.08,750.26c-2.36-2.32,21.94-25.98,25.04-28.83,22.75-21.01,57.75-49.25,82.94-67.41,12.16-8.79,24.24-21.56,39.87-13.98v.03l-7.73,11.03-140.13,99.16ZM239.83,730.5c-25.36.08-52.05,15.21-76.7,19.75v-.03l129.55-97.42c3.12-1.11,4.88.27,7.2,2.06,2.08,1.62,30.19,39.51,30.87,42.01,1.06,3.85,0,4.48-2.24,7.01-10.16,11.42-42.8,22.33-54.4,36.02-11.73-2.41-21.5-9.42-34.28-9.41ZM181.75,1120.94c-1.21,2.14-13.68,15.56-16.09,12.69-.88-5.82.8-10.92,2.36-16.39,9.63-33.46,41.66-108.39,58.08-139.9,5.27-10.12,8.89-19.45,22.24-16.59l.02.03c-12.18,29.54-26.09,58.4-38.77,87.76-8.98,20.78-17.88,54.58-27.84,72.4ZM205.76,1093.53l55.13-126.72,70.16,26.52-30.1,70.13c-41.08-22.19-65.41,6.15-95.18,30.07ZM736.32,1063.95c-11.8,4.41-21.87,3.35-33.25,6.86-1.61,11.5,5.51,20.95,6.53,33.92,6.17,78.62-81.59,126.4-149.67,94.51-11.42-5.36-20.18-15.15-31.98-18.12-10.09.8-9.86,19.13-15.29,27.57-23.24,36.21-88.2,27.19-121.51,11.44-55.07-26.03-65.84-75.53-89.68-126.01l44.51-104.72c2.7-1.95,5.38-1.12,8.27-.64,9.18,1.52,32.72,10.92,43.28,14.53,46.37,15.89,91.8,35.49,137.66,52.79,4.97-.44,7.09-4.7,9.94-7.86,15.03-16.69,27.68-49.19,41.49-63.73,4.38-4.57,18.16-10.79,24.92-15.18,3.86-2.5,7.15-8.32,10.29-9.77,10.83-5.06,54.23,8.8,68.9,8.8l5.09-2.48,1.14-7.57-73.79-12.63c-9.23,5.09-14.95,12.68-24.15,18.65-34.71,22.56-70.99,25.72-98.82-8.53-5.47-6.76-18.01-34.08-20.41-34.86-7.94-2.54-25.97,19.07-38.51,23.5-30.59,10.83-77.49.62-91.47-31.22-1.3-2.94-6.23-19.39-6.23-21.33,0-9.5,1.95-38.86,0-45.1l.05-.03c-2.94-9.45-23.24.3-29.01,1.03-53.87,6.97-57.84-51.79-41.31-88.88,6.23-14,57.07-42.58,72.67-52.63,4.54-2.91,6.94-10,13.42-8.35l102.13,116.34,125.17-18.88-4.97,18.94c-.32,2.27,1.05,3.38,2.42,4.85,5.06,5.44,53.34,27.22,64.4,33.4,32.24,17.98,67.47,37.16,98.35,57.02,17.01,10.95,32.02,24.42,49.7,34.24,11.21,41.39-19.72,104.88-60.29,120.13ZM953.02,857.19c-27.63,47.63-62.7,92.98-124.49,86.03-42.07-4.74-87.36-58.73-101.27-96.09l74.18-48.95c8.12-1.33,15.41,28.59,28.34,24.77.09-2.47-.42-6.04.61-8.09,8.89-17.41,76.52-75.68,96.48-79.03,12.33-2.04,25.87,1.85,37.55-2.54,18.13-6.85,30.75-36.77,49.58-45.58,9.62,10.01-2.2,27.25-8.23,36.83-3.45,5.43-23.14,25.64-18.1,30.72,6.76,6.68,26.19-21.42,29.6-26.75,6.74-10.5,5.38-25.03,20.48-23.33-1.42,27.15-21.66,46.55-37.57,66.35,3.04,14.35,27.45-15.06,31.16-18.92,3.77-3.04,12.8-32.12,17.65-29.89,15.15,7.01-12.09,48.72-21.47,56.14-9.57,7.59-25.63,8.83-22.33,21.5,17.59,1.21,31.45-14.53,42.67-26.34,2.41-2.56,2.3-10.19,7.5-4.92-7.06,31.52-39.13,50.73-70.21,51.35v-10.04c-3.8-.48-5.91.05-8.95,2.35-5.33,4.03-18.12,35.71-23.19,44.45ZM1209.55,960.71l-235.13-80.64c-8.18-8.06-15.77-31.96,3.26-28.59,24.01,4.27,68.17,27.36,93.92,36.65,43.49,15.68,87.98,28.72,131.01,45.69h.02c2.14,7.21,8.65,16.75,10.6,23.22,1.03,3.48-.26,4.45-3.68,3.67ZM1225.73,953.22v.02c-6.57-5.44-15.97-22.78-14.59-30.69l138.67-352.65,12.71,25.01c-47.95,118.49-93.6,237.97-136.79,358.32Z"/>
</svg>