<?xml version="1.0" encoding="UTF-8"?>
<svg id="Layer_1" data-name="Layer 1" xmlns="http://www.w3.org/2000/svg" viewBox="0 0 1500 1500">
  <defs>
    <style>
      .cls-1 {
        fill: #98bdb0;
      }

      .cls-2 {
        fill: #263c34;
      }

      .cls-3 {
        fill: #a59ed3;
      }

      .cls-4 {
        fill: #395e53;
      }

      .cls-5 {
        fill: #fdf9f3;
      }

      .cls-6 {
        fill: #bfde63;
      }
    </style>
  </defs>
  <path class="cls-2" d="M1345.06,263.26c24.52-.31,36.01,15.99,28.01,39.17,30.23-1.64,35.06,22.61,19.61,44.71,48.71,26.72-25.76,67.27-45.9,87.06-17.6,17.3-20.1,32.47-47.71,41.81-11.53,3.9-31.5,3.57-39.48,8.08-5.85,3.31-87.95,88.42-93.59,96.63-1.62,2.36-3.91,2.75-2.75,7.01,31.16-2,51.96,27.85,56.04,55.87,39.45-10.57,76.37,11.83,83.7,52.05,26.22-10.29,67.13,19.92,64.47,47.07-3.23,32.78-82.62,18.94-104.78,18.33-47.66-1.36-95.24-1.05-142.93-2.57-35.66-1.13-89.31-10.45-123.11-5.83-12.58,1.72-23.97,15.19-31.59,24.43l27.58,156.13-4.61,6.75-17.81.18c38.47,8.93,70.83,46.58,69.94,86.72,3.85.75,3.6.62,5.82-1.77,12.35-13.19,32.14-41.94,51.56-43.17,5.78-.36,15.07,3.64,18.13,1.77,4.82-2.98,37.47-51.41,47.54-61.75,18.17-18.71,25.22-26.31,51.48-14.96,28.63,12.37,124.2,85.8,144.5,110.08,64.9,77.54-91.6,27.13-119.57,27.51-9.07.13-18.05,13.01-20.39,21.46,20.15,13.01,46.33,16.56,34.94,44.81-20.2,50.07-106.32,161.77-159.62,176.07-45.18,12.12-109.08-13.94-121.58-61.37-60.22,50.95-139.27-5.52-131.46-78.33-80.62,7.88-103.11-52.64-65.5-117.22,1.67-2.87,6.47-6.44-.31-8.62-2.8-.9-9.88,9.21-15.66,12.27-29.64,15.68-59.22,6.44-84.65-12.01-25.36,27.64-62.25,28.23-96.91,22.07,2,28.23-23.74,50.46-50.29,53.28,5.35,25.18,8.14,42.73-.72,67.81-19.08,54.08-42.29,18.15-76.37,2.31-22.59,27.64-44.44,97.15-88.86,82.98-24.64-7.85-137.83-94.32-164.01-115.73-8.83-7.21-48.28-36.14-25.48-47.28,19.37-9.47,93.42,15.63,119.24,17.84,17.58,1.51,21.04.08,26-17.56l-20.89-15.71c1.1-31.49,20.09-63.81,51.46-73.12-8.34-53.31,3.23-98.35,51.73-125.92,31.5-17.89,60.46-24.1,95.18-10.99,4.68-1.36,8.91-15.58,13.04-20.71,26.41-32.85,69.32-41.35,109.23-30.54,2.6-2.05,14.02-58.42,14.02-64.73,0-4.18-.45-7.37-4.59-9.39l-125.2-53.82c-13.83-7.14-3.17-16.73-1.86-27.52-5.68.46-9.98-.64-15.04-3.18-20.94-10.63-52.39-37.11-74.74-51.12-50.65-31.75-101.82-61.47-154.67-88.75-21.9-11.29-62.99-26.92-75.82-47.28-9.19-14.58-4.75-34.39,12.46-39.09l.05-4.11c-15.16-5.21-22.9-33.72-13.2-45.38,3.51-4.24,14.57-5.75,15.47-6.88,1.82-2.23-.24-17.48,8.14-24.82,8.4-7.37,24.14-5.93,28.11-8.88,1.88-1.39,1.88-6.57,3.7-8.8,26-31.65,86.68,40.37,92.03,34.55-18.27-41.68,9.19-77.23,43.15-33.31,20.51,26.54,26.56,61.08,36.51,92.19l149.63,85.42c11.91-7.49,16.34-2,27.23,3.49,32.31,16.35,61.47,39.06,93.21,56.41l13.66-27.05c-5.57-10.96-16.36-17.79-18.58-30.95-3.23-19.15,7.54-42.43,21.68-55.34,6.25-5.7,25.93-13.91,26.77-15.19,3.06-4.62.24-22.66,7.29-34.68,22.85-38.91,80.41-39.89,107.7-4.8,48.45-41.99,102.71,20.1,99.05,70.02,22.26-.26,33.36,13.14,43.23,30.83,7.28-4.88,21.76-27.05,30.21-24.82l28.54,30.41c47.12-46.1,92.72-93.78,139.84-139.88,4.96-4.82,17.34-11.34,19.73-16.84,3.34-7.57-5.64-20.38-6.83-29.49-2.29-17.76,3.18-51.82,26.34-51.85,25,0,22.68,36.78,27.97,36.62,17.19-13.99,64.62-69.96,86.13-66.58,10.22,1.59,21.92,17.37,15.97,27.46h.05ZM1258.28,327.6l7.07-8.55,16.21,8.26c5.32-1.39,44.28-48.25,47.83-55.93,5.26-11.39,9.2-26.51-8.71-19.94-10.39,3.82-61.32,50.56-68.09,60.67-1.74,2.62-3.65,4.47-2.34,7.96l8.03,7.57v-.05ZM1255.56,397.52c1.39-18.09,7.88-29.49,1.29-47.48-5.54-15.14-18.37-20.64-24.83-33.9-6.43-13.27-3.8-29.77-17.07-38.78-14.25,9.91-14.76,26.59-11.94,42.61,1.81,10.14,11.61,19.22,6.31,29.98l-165.23,162.28,72.91,97.86,137.09-137.03c11.7-7.57,28.71-5.21,42.82-10.37,20.54-7.52,31.05-28.33,46.68-42.84,8.52-7.91,68.27-46.46,49.2-60.29-8.77-6.37-51.6,24.15-56.31,30.77-3.51,4.93-2.72,10.09-2.61,15.63l-9.43.1c-15-28.18-35.85-52.64-60.49-72.84,10.94,22.38,9.88,40.71,2.46,64.01l-10.87.31.02-.03ZM1300.38,352.75c4.08,1.1,4.65-1.1,7-2.72,11.63-7.96,51.2-45.5,53.97-58.03,3.65-16.45-8.15-18.35-20.59-12.12l-51.58,57.49,11.2,15.37ZM1323.02,380.5c4.95,3.46,58.7-39.96,63.64-49.1,6.19-11.45.46-18.12-11.91-17.68-20.94.77-45.2,35.98-60.13,49.41l8.41,17.37h-.02ZM502.89,649.27l49.22-131.51-159.54-92.4c-7.09-29.67-13.21-58.57-30.04-84.65-5.97-9.26-15.11-23.25-27.51-17.14-7.59,18.79,13.47,43.04,14.28,55.77.86,14.12-8.91,27.87-5.2,49.72,1.5,8.67,11.94,18.32,3.49,24.43-10.8,2.26-17.43-27.87-17.86-35.37-.59-9.8,6.47-30.64,4.06-34.49-2.13-3.39-58.53-43.84-65-47.1-33.88-17.04-24.71,6.03-6.52,23.3,3.68,3.49,31.71,27.18,33.74,28.05,7.21,3.16,17.55-7.26,19.48,5.44-32.16,16.94-50.67,41.63-44.77,79.77h-11.17l-.31-10.88c-18.32-.08-57.82-46.33-70.47-19.1-6.62,14.27,14,27.02,24.12,33.24,29.9,18.4,67.42,30.34,99.56,48.71,45.37,25.98,96.45,57.6,139.91,86.7,17.45,11.7,34.77,23.64,50.56,37.52l-.05-.03ZM273.22,414.12l11.29-15.55c1.1-6.24-29.82-28.13-35.91-33.49-4.09-3.62-6.74-11.5-11.49-13.66-12.25-5.57-32.26-1.98-26.8,15.45,3.44,10.99,58.27,50.43,62.92,47.22v.03ZM194.36,381.22c-9.05,2.69-9.36,13.11-4.94,20.66,4.85,8.29,63.19,47.94,67.32,44.66,2.41-3.95,5.59-12.88,5.33-17.07-.4-6.7-32.28-26-40.26-32.03-9.02-6.83-13.82-20.28-27.46-16.22ZM729,451.26c-13.82-8.11-39.55,20.43-42.89,32.9-4.87,18.25-.48,30.8,14.06,41.99,12.52-10.45,43.44-42.79,40.05-59.7-.19-.92-10.39-14.68-11.22-15.17v-.03ZM750.53,668.86c16.53,1.95,36.2-1.44,53.16,0l4.18,6.96c-18.27,16.63-43.73,22.25-67.11,28,49.15,59.26,129.22-15.96,148.92-66.47,2.12-5.49,1.46-20.61,6.38-21.61,8.5-1.72,8.45,26.74,25.79,30.26,33.33,6.75,72.64-65.27,45.44-84.78-21.28-15.27-39.86,7.62-43.25,6.93-12.8-2.69,6.71-20.04,4.13-22.36-19.94,1.54-27.97-17.3-38.02-30.47-31.91,16.43-60.66-7.7-65.51-39.5l-22.35,5.62c20.2,34.88,2.05,61.19-33.57,69.94-7.62,7.08,25.01,9.91,27.99,8.37l-.28,10.91c-3.58,4.24-63.6-2.49-53.18-17.97,17.32-15.09,65.82-21.05,53.14-52.82-7.57-18.99-28.59-18.2-45.73-24.15-11.63,44.38-58.51,60.78-67.42,109.05-8.24,44.58,23.97,78.92,67.27,84.06l.02.03ZM975.75,923.41l-23.86-153.74,166.52-138.57-110.4-138.65c-8.69-7.01-17.36,10.96-22.35,17.15-2.51,3.13-8.03,4.34-9.15,6.16-3.73,5.9-2.8,20.35-14.71,25.87v4.13c41.43,13.14,29.04,63.04,7,89.57-20.73,24.97-42.05,29.52-71.14,14.09-25.96,49.15-79.11,108.21-140.94,83.18-24.15-9.78-36.73-35.09-36.01-60.52-27.23-8.34-48.31-32.85-51.97-61.29-1.2-9.39,2.86-30.85.74-34.21-2.41-3.88-68.59-43.27-77.94-48.07-4.47-2.31-20.66-12.24-24.4-9.52l-58.29,150.97,153.52,66.07-4.58,10.96-14.99-2.59-13.69,97.63c52.94,11.42,106.48,19.86,159.23,32.39,62.9,14.96,123.73,37.7,187.41,49ZM1009.35,738.74c4.27.64,8.15,2.46,12.56,2.85,69.37,6.11,148.03,3.57,218.36,5.47,31.9.85,68.51,7.7,100.44,2.72,5.54-.87,12.34-3.23,12.9-9.65-1.2-16.58-18.94-32.47-35.08-32.37-8.79.05-17.57,6.54-25.5.54-8.6-7.11-.74-33.47-28.2-47.33-23.95-12.09-31.76-1.28-54.25-1.72-6.64-30.29-16.41-62.96-54.49-60.57-9.03.56-30.07,17.09-28.87,23.43.98,5.13,11.22,9.24-.28,17.5l-117.63,99.12h.02ZM617.64,822.72c-27.27-8.19-68.3-5.36-89.64,15.27-11.03,10.68-20.25,42.5-34.24,40.14-16.4-2.77-19.2-13.27-45.11-10.34-55.42,6.24-91.99,52.67-88.53,107.46.57,9.09,7.42,23.59,3.13,30.11-6.47,6.06-16.38,6.37-23.6,10.75-10.8,6.57-35.25,41.01-27.27,51.43l187.63,112.03c18.48-8.42,21.88-40.96,19.46-58.72-1.38-9.93-9.27-19.02-6.35-28.85,2.34-5.9,19.97-8.8,27.23-12.27,24.79-11.86,25.88-26.44,24.12-52.82,29.11,5.13,65.07,16.14,90.96-5.57,5.26-4.41,10.18-16.63,11.58-16.97,12.04-2.9,21.66,12.01,32.65,17.45,20.51,10.16,45.71,12.22,62.11-6.11,1.46-3.67-18.48-15.99-22.16-19.87-9.31-9.91-20.09-29.21-18.74-43.07.41-4.18,5.52-7.01,7.24-6.93,2,.08,10.63,28.41,16.71,36.37,14.43,18.86,35.32,23.38,51.56,38.22-6.18,16.76-21.94,30.47-24.65,50.07-4.42,31.67,8.26,58.72,41.55,64.24,15.55,2.59,25.07-2.67,39.52-.31,4.9,3.44,1.96,28.03,2.92,36.24,5.32,45.22,57.53,77.69,98.56,51.59,9.17-5.83,17.81-23.71,27.66-7.13,15.54,26.15,10.89,34.93,44.04,51.07,74.2,36.14,130.98-33.31,170.27-87.34,11.75-16.17,41.39-59.24,46.81-76.38.79-2.54,2.39-5.31.84-7.98l-144.14-100.66c-20.32,1.44-55.48,61.31-64.31,63.29-17.77,4-6.11-28.23-6.83-36.86-3.22-37.73-43.48-71.43-80.98-70.2l-1.36-7.13,9.86-2.77-2.93-6.83c-61.94-15.89-122.74-35.42-185.05-49.97-42.22-9.86-102.92-15.71-140.89-29.77-4.18-1.54-10.51-2.85-12.08-7.57l2.41-23.28v-.05ZM1361.85,1046.48c2.41-2.64-8.77-15.53-11.1-18.25-20.71-24.43-117.9-101.02-146.34-111.03-4.47-1.57-8.31-2.95-13.2-2.18l170.63,131.46ZM1336.7,1046.45l-156.56-119.09c-8.02-1.21-48.33,54.28-53.01,64.88-1.38,5.54.62,3.11,3.56,4.16,33.79,12.01,68.85,20.94,101.78,35.39l104.22,14.65ZM382.61,1239.46c-27.35-27.03-60.11-49.56-91.44-72.17-10.6-7.65-104.64-75.64-109.99-70.43,4.16,12.65,19.25,22.43,29.49,30.65,37.76,30.29,97.05,75.38,137.5,100.3,11.32,6.98,19.72,14.32,34.48,11.68l-.03-.02ZM228.75,1105.25l163.67,125.79c3.96-.13,42.58-61.26,43.05-66.19.38-4.1-1.46-4.31-4.42-5.95-10.03-5.59-34.08-9.85-47.07-14.47-32.69-11.6-49.67-19.66-83.44-25.44-23.95-4.08-47.69-10.45-71.78-13.76v.02Z"/>
  <path class="cls-2" d="M1010.75,299.63c-1.24.05-4.73,2.69-8.38,2.98-12.21.92-22.38-4.23-10.77-13.71l56.9-3.26c-3.65-7.98-26.31-9.14-29.54-13.78-17.12-24.66,44.09,4.36,46.33,2.59-3.37-8.08-24.69-44.84-16.76-50.31,2.2-1.51,7.36.18,9.79,2.75,8.22,8.7,9.79,33.39,20.92,41.96,4.52-9.34,7.24-56.8,15.45-58.72,8.59.51,7.09,9.75,7.17,15.43.22,17.63-9.29,36.5-8.59,54.51,8.79-3.82,46.64-38.29,53.11-33.57-.46,2.67,2.29,5.57,2.24,7.52-.31,10.75-40.24,34.83-49.77,41.4l55.54,21.38.15,10.57c-3.89,6.88-47.3-9.68-55.69-10.93-2.72,2.62,12.66,50.56,13.51,58.03,1.12,9.86-7.31,12.78-13.23,4.57-8.69-12.11-8.84-43.96-21.3-56.98-6.73-.03-30.16,45.12-36.39,50.25-4.23,3.49-7.45,3.26-12.56,2.82-7.69-7.65,39.09-61.8,39.17-75.51-19.05.59-38.3-.8-57.36,0h.05Z"/>
  <path class="cls-2" d="M684.77,1165.36c0,.46-7.12,9.57,1.34,6.96,15.04-4.65,27.54-35.93,49-30.72.53,23.46-31.62,29.08-41.96,47.51,10.93,3.7,68.11,14.91,69.94,23.84.64,3.11-1.89,5.7-4.63,6.54-14.42,4.6-53.49-16.37-70.88-16.37-2.75,2.82,18,40.73,19.05,46.79.74,4.21,1.08,10.6-3.91,11.86-13.16,3.28-19.8-39.6-27.79-47.46l-18.44,55.64c-26.17,3.95-4.97-28.08-5.35-41.68-12.3,4.72-27.54,39.6-38.49,21.02l44.1-51.77-55.97,2.75-.15-9.57,56.1-7.19c4.23-3.52-41.33-50.72-18.12-50.46,9.1.1,19.22,32.52,29.28,36.47l3.29-56.88,3.8-4.59c2.79-1.46,9.74,1.87,9.74,4.16,0,17.56.88,35.68,0,53.15h.05Z"/>
  <path class="cls-2" d="M618.52,314.43c-10.58,12.76,19.11,47.92,6.81,60.03-12.96,12.78-42.12-15.01-56.57-16.17-84.82,72.69-38.9-14.04-46.81-27.36-14.35-9.75-37.42-17.07-41.58-35.37,1.43-15.55,42.15-15.89,53.26-22.59l13.73-50c25.62-12.35,31.35,40.53,42.27,47.46,13.04,2,56.05-12.71,62.99,1.18,9.48,18.97-25.31,32.13-34.13,42.79l.03.02ZM640.02,280.07c-18.58-1-37.16.31-54.3,8.19l-29.61-50.15-11.3,43.27-47.42,16.86c8.74,10.83,34,18.66,37.97,32.11,3.42,11.52-6.49,26.95-4.44,39.24,14.5-4.83,21.64-24.84,37.76-24.79,9.51.03,43.79,21.53,46.14,19.17-1.01-13.58-16.43-34.85-12.85-47.61,3.56-12.76,30-25.33,38.06-36.27l-.02-.03Z"/>
  <path class="cls-2" d="M244.84,647.19c77.2-10.57,129.67,71.79,77.39,136.11-61.56,75.72-185.05,31.44-161.55-66.4,7.5-31.18,53.06-65.48,84.16-69.71ZM250.12,658.67c-15.67.72-40.36,15.2-52.18,25.54-75.15,65.81,18.25,166.91,97.72,106.08,63.57-48.66,32.1-135.16-45.54-131.64v.03Z"/>
  <path class="cls-2" d="M400.81,638.16l4.28,6.98c.33,2.67-1.51,3.8-2.96,5.49-1.67,1.95-41.31,25.41-43.91,26.08-3.77.98-8.5-.46-9.19-3.72-2.08-9.83,44.42-28.36,51.77-34.85v.03Z"/>
  <path class="cls-2" d="M211.98,629.69l-8.41-53.13c11.49-11.63,19.03,35.91,19.36,40.99.62,9.09-.67,13.32-10.96,12.14h.02Z"/>
  <path class="cls-2" d="M340.08,651.48c-1.98,1.1-10.17,1.03-10.6.59-4.63-4.47,18.74-40.19,23.71-39.14,11.92,2.57-11.18,37.47-13.11,38.55Z"/>
  <path class="cls-2" d="M133.63,856.27c-5.32-5.11,33.05-46.02,36.34-29.31-2.84,7.39-29.35,36.01-36.34,29.31Z"/>
  <path class="cls-2" d="M110.62,756.37c9.5-.95,16.58-3.13,22.92,6.19,0,12.22-56.53,8.34-39.14-2.82,5.2-1.13,11.06-2.82,16.26-3.34l-.03-.03Z"/>
  <path class="cls-2" d="M258.15,853.5c10.91-2.28,8.77,43.45,2.72,44.74-10.91,2.28-8.77-43.45-2.72-44.74Z"/>
  <path class="cls-2" d="M373.58,817.69c14.61,26.51-39.5-5.52-30.13-14.58,5.97-3.72,28.53,11.68,30.13,14.58Z"/>
  <path class="cls-2" d="M157.44,618.52c8.29-2.62,31.11,24.97,19.49,27.95-5.88,1.51-20.08-15.14-22.38-19.53-2.56-4.9-.45-5.36,2.89-8.42Z"/>
  <path class="cls-2" d="M365.85,786.3c-1.14-14.65,8.93-12.55,16.76-4.13-1.57,10.63-9.86,5.9-16.76,4.13Z"/>
  <path class="cls-3" d="M617.64,822.72l-2.41,23.28c1.57,4.72,7.93,6.01,12.08,7.57,37.97,14.09,98.68,19.92,140.89,29.77,62.31,14.55,123.11,34.08,185.05,49.97l2.93,6.83-9.86,2.77,1.36,7.13c37.51-1.23,77.76,32.47,80.98,70.2.74,8.6-10.91,40.83,6.83,36.86,8.83-1.98,43.99-61.86,64.31-63.29l144.14,100.66c1.55,2.64-.05,5.42-.84,7.98-5.42,17.12-35.06,60.21-46.81,76.38-39.29,54.03-96.07,123.48-170.27,87.34-33.15-16.14-28.49-24.92-44.04-51.07-9.86-16.58-18.49,1.31-27.66,7.13-41.02,26.1-93.25-6.37-98.56-51.59-.96-8.21,2.01-32.78-2.92-36.24-14.43-2.33-23.97,2.9-39.52.31-33.29-5.52-45.97-32.57-41.55-64.24,2.72-19.61,18.49-33.31,24.65-50.07-16.26-14.84-37.13-19.35-51.56-38.22-6.07-7.96-14.71-36.29-16.71-36.37-1.72-.08-6.83,2.75-7.24,6.93-1.36,13.86,9.43,33.16,18.74,43.07,3.65,3.88,23.59,16.19,22.16,19.87-16.4,18.32-41.6,16.25-62.11,6.11-10.99-5.44-20.61-20.35-32.65-17.45-1.39.33-6.31,12.55-11.58,16.97-25.88,21.71-61.83,10.68-90.96,5.57,1.75,26.36.64,40.94-24.12,52.82-7.24,3.46-24.88,6.39-27.23,12.27-2.91,9.86,5.01,18.92,6.35,28.85,2.41,17.76-.98,50.33-19.46,58.72l-187.63-112.03c-7.98-10.42,16.46-44.89,27.27-51.43,7.23-4.39,17.14-4.7,23.6-10.75,4.28-6.52-2.56-21.02-3.13-30.11-3.46-54.82,33.12-101.23,88.53-107.46,25.91-2.9,28.71,7.57,45.11,10.34,13.99,2.36,23.17-29.46,34.24-40.14,21.37-20.63,62.4-23.46,89.64-15.27v.05Z"/>
  <path class="cls-6" d="M975.75,923.41c-63.67-11.29-124.51-34.03-187.41-48.99-52.75-12.55-106.29-20.97-159.23-32.39l13.69-97.63,14.99,2.59,4.58-10.96-153.52-66.06,58.29-150.97c3.73-2.72,19.92,7.24,24.4,9.52,9.34,4.8,75.53,44.17,77.94,48.07,2.12,3.36-1.94,24.85-.74,34.21,3.66,28.44,24.74,52.95,51.97,61.29-.72,25.44,11.85,50.74,36.01,60.52,61.83,25.02,114.98-34.03,140.94-83.18,29.09,15.4,50.43,10.86,71.14-14.09,22.04-26.56,34.43-76.46-7.04-89.57v-4.13c11.94-5.52,11.01-19.97,14.74-25.87,1.12-1.8,6.64-3.03,9.15-6.16,4.96-6.19,13.63-24.15,22.35-17.14l110.4,138.65-166.52,138.57,23.86,153.74Z"/>
  <path class="cls-5" d="M502.89,649.27c-15.79-13.89-33.12-25.82-50.56-37.52-43.46-29.13-94.5-60.75-139.91-86.7-32.14-18.38-69.66-30.31-99.56-48.71-10.12-6.21-30.74-18.97-24.12-33.24,12.63-27.23,52.13,19.02,70.47,19.1l.31,10.88h11.17c-5.9-38.14,12.63-62.8,44.77-79.77-1.93-12.7-12.27-2.28-19.48-5.44-2.01-.87-30.06-24.59-33.74-28.05-18.19-17.27-27.35-40.35,6.52-23.31,6.47,3.26,62.87,43.71,65,47.1,2.41,3.88-4.65,24.72-4.06,34.49.46,7.47,7.09,37.63,17.86,35.37,8.48-6.11-2-15.73-3.49-24.43-3.72-21.84,6.06-35.6,5.2-49.71-.81-12.73-21.87-36.98-14.28-55.77,12.4-6.11,21.54,7.88,27.53,17.14,16.81,26.08,22.93,55,30.02,84.65l159.54,92.4-49.22,131.51.05.03Z"/>
  <path class="cls-5" d="M1255.56,397.51l10.89-.31c7.42-23.33,8.46-41.66-2.46-64.01,24.6,20.2,45.47,44.68,60.49,72.84l9.41-.1c-.12-5.54-.91-10.7,2.62-15.63,4.73-6.62,47.57-37.14,56.31-30.77,19.08,13.83-40.67,52.36-49.19,60.29-15.6,14.5-26.12,35.34-46.69,42.84-14.09,5.16-31.11,2.8-42.8,10.37l-137.09,137.03-72.91-97.86,165.23-162.29c5.28-10.75-4.52-19.84-6.31-29.98-2.82-16.02-2.31-32.7,11.94-42.61,13.23,9.03,10.51,25.31,17.07,38.78,6.54,13.47,19.25,18.79,24.81,33.9,6.61,17.99.1,29.39-1.27,47.48l-.03.02Z"/>
  <path class="cls-5" d="M750.53,668.86c-43.29-5.13-75.51-39.47-67.27-84.06,8.95-48.28,55.81-64.68,67.42-109.05,17.15,5.95,38.18,5.16,45.75,24.15,12.65,31.77-35.85,37.7-53.16,52.82-10.39,15.48,49.62,22.23,53.18,17.97l.29-10.91c-2.98,1.51-35.63-1.31-28.01-8.37,35.65-8.75,53.78-35.06,33.57-69.94l22.37-5.62c4.85,31.8,33.57,55.93,65.5,39.5,10.06,13.17,18.1,32.01,38.04,30.47,2.55,2.31-16.95,19.66-4.13,22.36,3.39.72,21.97-22.17,43.24-6.93,27.18,19.51-12.11,91.52-45.42,84.78-17.38-3.52-17.31-31.98-25.79-30.26-4.94,1-4.27,16.09-6.4,21.61-19.68,50.51-99.77,125.76-148.9,66.47,23.4-5.75,48.84-11.34,67.11-28l-4.18-6.96c-16.98-1.44-36.63,1.95-53.16,0l-.03-.03ZM760.23,498.31c-18.01-3.34-8.57,19.76.15,23.66,6.93,3.11,28.96,3.08,30.73-5.59-6-16.02-28.35,8.73-30.88-18.07ZM849.56,534.91c-14.25-8.39-11.8,18.86,3.8,25.54,12.23,5.24,43.44,3.44,38.43-14.66-3.84-4.11-22.31,12.86-35.56,1.98-2.98-2.46-5.8-12.32-6.71-12.86h.03ZM826.71,571.58c-9.65,2-21.04,13.76-29.66,14.81-10.15,1.23-39.91-15.27-45.08,11.22-6.47,33.13,35.17,48.82,62.16,45.35,52.71-6.75,60.54-81.31,12.56-71.38h.02ZM948.19,585.31c6.43-1.15,12.32-1.57,10.75-10.14-24.38-21.77-55.16,53.62-37.69,57.31,9.03,1.9,6.71-19.89,9.77-25.15,6.19-1.34,4.92,1.54,6.93,5.67l8.5-2.82,1.74-24.87Z"/>
  <path class="cls-1" d="M1009.35,738.75l117.63-99.12c11.53-8.27,1.26-12.37.29-17.51-1.22-6.34,19.84-22.87,28.87-23.43,38.04-2.39,47.85,30.29,54.49,60.57,22.49.44,30.28-10.34,54.23,1.72,27.44,13.86,19.61,40.19,28.22,47.33,7.93,6.03,16.71-.49,25.48-.54,16.17-.08,33.88,15.79,35.08,32.36-.55,6.42-7.36,8.78-12.9,9.65-31.93,4.98-68.53-1.87-100.42-2.72-70.33-1.9-149.01.64-218.38-5.47-4.39-.38-8.29-2.21-12.54-2.85h-.03Z"/>
  <path class="cls-4" d="M1336.7,1046.45l-104.22-14.65c-32.93-14.48-67.99-23.38-101.78-35.39-2.98-1.05-4.94,1.38-3.56-4.16,4.68-10.6,44.99-66.12,53.01-64.88l156.56,119.09Z"/>
  <path class="cls-4" d="M228.75,1105.25c24.09,3.31,47.83,9.68,71.78,13.76,33.77,5.75,50.75,13.81,83.44,25.44,12.99,4.62,37.04,8.88,47.07,14.48,2.96,1.64,4.8,1.85,4.42,5.95-.46,4.93-39.09,66.06-43.05,66.19l-163.67-125.79v-.03Z"/>
  <path class="cls-5" d="M382.61,1239.46c-14.76,2.64-23.12-4.7-34.46-11.68-40.46-24.92-99.75-70.02-137.5-100.3-10.24-8.21-25.34-17.99-29.49-30.64,5.33-5.21,99.37,62.78,109.97,70.43,31.35,22.64,64.09,45.17,91.46,72.17l.02.03Z"/>
  <path class="cls-5" d="M1258.28,327.6l-8.03-7.57c-1.31-3.49.57-5.34,2.34-7.96,6.78-10.09,57.7-56.85,68.09-60.67,17.91-6.57,13.99,8.55,8.71,19.94-3.58,7.7-42.53,54.57-47.83,55.93l-16.21-8.26-7.07,8.55v.05Z"/>
  <path class="cls-5" d="M273.22,414.12c-4.65,3.21-59.48-36.24-62.92-47.23-5.45-17.43,14.55-21.05,26.8-15.45,4.75,2.18,7.4,10.04,11.49,13.66,6.09,5.36,37.01,27.26,35.91,33.49l-11.29,15.55v-.02Z"/>
  <path class="cls-5" d="M1361.85,1046.48l-170.63-131.46c4.89-.8,8.72.59,13.2,2.18,28.44,10.01,125.63,86.57,146.34,111.03,2.32,2.72,13.51,15.6,11.1,18.25Z"/>
  <path class="cls-5" d="M1323.02,380.5l-8.43-17.37c14.97-13.4,39.19-48.61,60.15-49.41,12.37-.46,18.12,6.21,11.91,17.68-4.92,9.14-58.67,52.56-63.66,49.1h.03Z"/>
  <path class="cls-5" d="M1300.38,352.75l-11.18-15.37,51.56-57.49c12.44-6.24,24.24-4.34,20.61,12.11-2.79,12.52-42.36,50.05-53.99,58.03-2.36,1.62-2.92,3.82-7,2.72Z"/>
  <path class="cls-5" d="M194.36,381.22c13.64-4.06,18.44,9.39,27.46,16.22,7.98,6.06,39.86,25.33,40.26,32.03.26,4.16-2.92,13.09-5.33,17.07-4.13,3.28-62.47-36.37-67.32-44.66-4.4-7.55-4.11-17.96,4.94-20.66Z"/>
  <path class="cls-5" d="M729,451.26c.83.49,11.01,14.25,11.22,15.17,3.41,16.91-27.49,49.28-40.03,59.7-14.55-11.17-18.94-23.74-14.07-41.99,3.34-12.47,29.08-41.01,42.89-32.9v.03ZM709.98,461.88c-.45,6.16,3.6,11.7,2.84,17.94-1.39,10.99-22,19.69-9.79,29.59,11.89,2.52,39.81-52.51,6.95-47.53Z"/>
  <path class="cls-6" d="M640.02,280.07c-8.03,10.96-34.48,23.43-38.07,36.27-3.6,12.83,11.84,34.01,12.87,47.61-2.37,2.36-36.61-19.15-46.16-19.17-16.1-.05-23.24,19.97-37.75,24.79-2.05-12.27,7.85-27.69,4.44-39.24-3.97-13.45-29.23-21.28-37.99-32.11l47.43-16.86,11.29-43.27,29.63,50.15c17.12-7.88,35.7-9.19,54.28-8.19l.03.03Z"/>
  <path class="cls-6" d="M250.12,658.67c77.64-3.52,109.11,82.98,45.54,131.64-79.47,60.83-172.87-40.27-97.72-106.08,11.82-10.34,36.51-24.84,52.18-25.54v-.03Z"/>
  <path class="cls-2" d="M826.71,571.58c47.97-9.93,40.17,64.63-12.54,71.38-27.03,3.46-68.63-12.22-62.18-45.35,5.16-26.49,34.94-9.98,45.08-11.22,8.62-1.05,19.99-12.81,29.68-14.81h-.03ZM843.86,585.39c-1.45-2.36-11.46-4.85-13.57,1l8.43,20.92c7.28,7.13,6.88-19.04,5.14-21.92ZM819.04,590.55c-20.04,2.9-4.8,25.1-8.34,39.14l22.07-9.73-13.73-29.41ZM777.11,593.34c-14.3.31-17.53,13.27-6.99,22.3l6.99-22.3ZM796.69,598.91h-8.34l-5.59,27.9,13.94,2.87v-30.77Z"/>
  <path class="cls-2" d="M948.19,585.31l-1.74,24.87-8.5,2.82c-2.01-4.16-.74-7.01-6.93-5.67-3.06,5.26-.74,27.05-9.77,25.15-17.46-3.67,13.32-79.08,37.69-57.31,1.57,8.57-4.32,8.98-10.75,10.14Z"/>
  <path class="cls-2" d="M849.56,534.9c.89.54,3.72,10.39,6.69,12.86,13.23,10.88,31.71-6.06,35.58-1.98,5.01,18.09-26.2,19.89-38.45,14.65-15.6-6.67-18.06-33.93-3.8-25.54h-.02Z"/>
  <path class="cls-2" d="M760.23,498.31c2.49,26.82,24.84,2.08,30.88,18.07-1.77,8.67-23.79,8.67-30.73,5.59-8.72-3.9-18.17-27-.15-23.66Z"/>
  <path class="cls-2" d="M709.98,461.89c32.86-4.98,4.94,50.05-6.95,47.53-12.21-9.91,8.4-18.61,9.77-29.59.81-6.24-3.27-11.78-2.82-17.94Z"/>
  <path class="cls-5" d="M819.04,590.55l13.73,29.41-22.07,9.73c3.53-14.04-11.7-36.24,8.34-39.14Z"/>
  <path class="cls-5" d="M796.69,598.92v30.77l-13.94-2.87,5.61-27.87,8.33-.03Z"/>
  <path class="cls-5" d="M843.86,585.39c1.74,2.85,2.13,29.05-5.14,21.92l-8.43-20.92c2.12-5.85,12.13-3.36,13.57-1Z"/>
  <path class="cls-5" d="M777.11,593.35l-6.99,22.3c-10.55-9.06-7.31-22,6.99-22.3Z"/>
</svg>