<?xml version="1.0" encoding="UTF-8"?>
<svg id="Layer_1" data-name="Layer 1" xmlns="http://www.w3.org/2000/svg" viewBox="0 0 1500 1500">
  <defs>
    <style>
      .cls-1 {
        fill: #263c34;
      }
    </style>
  </defs>
  <path class="cls-1" d="M1002.37,302.6c3.65-.28,7.14-2.93,8.38-2.98h-.05c19.06-.8,38.31.59,57.36,0-.09,13.71-46.86,67.86-39.17,75.51,5.11.44,8.33.67,12.56-2.82,6.23-5.13,29.66-50.28,36.39-50.25,12.46,13.01,12.61,44.86,21.3,56.98,5.92,8.21,14.35,5.29,13.23-4.57-.84-7.47-16.22-55.41-13.51-58.03,8.4,1.26,51.8,17.81,55.69,10.93l-.15-10.57-55.54-21.38c9.53-6.57,49.46-30.64,49.77-41.4.05-1.95-2.7-4.85-2.24-7.52-6.47-4.72-44.32,29.75-53.11,33.57-.71-18.02,8.81-36.88,8.58-54.51-.09-5.67,1.41-14.91-7.17-15.43-8.21,1.92-10.92,49.38-15.45,58.72-11.13-8.57-12.7-33.26-20.92-41.96-2.43-2.57-7.59-4.26-9.79-2.75-7.93,5.47,13.39,42.22,16.76,50.31-2.24,1.77-63.45-27.26-46.33-2.59,3.23,4.65,25.89,5.8,29.54,13.78l-56.9,3.26c-11.61,9.47-1.44,14.63,10.77,13.71Z"/>
  <path class="cls-1" d="M693.15,1189.1c10.34-18.43,42.5-24.05,41.96-47.51-21.45-5.21-33.96,26.08-49,30.72-8.46,2.62-1.34-6.49-1.34-6.96h-.05c.88-17.48,0-35.6,0-53.15,0-2.28-6.95-5.62-9.74-4.16l-3.8,4.59-3.29,56.88c-10.06-3.95-20.18-36.37-29.28-36.47-23.21-.26,22.35,46.94,18.12,50.46l-56.1,7.19.15,9.57,55.97-2.75-44.1,51.77c10.94,18.58,26.19-16.3,38.49-21.02.38,13.6-20.82,45.63,5.35,41.68l18.44-55.64c7.98,7.85,14.62,50.74,27.79,47.46,4.99-1.26,4.65-7.65,3.91-11.86-1.05-6.06-21.8-43.96-19.05-46.79,17.39,0,56.47,20.97,70.88,16.37,2.74-.85,5.26-3.44,4.63-6.54-1.82-8.93-59.01-20.15-69.94-23.84Z"/>
  <path class="cls-1" d="M521.95,330.94c7.91,13.32-38,100.05,46.81,27.36,14.45,1.15,43.61,28.95,56.57,16.17,12.3-12.11-17.39-47.28-6.81-60.03l-.03-.02c8.83-10.65,43.61-23.82,34.13-42.79-6.93-13.89-49.94.82-62.99-1.18-10.92-6.93-16.65-59.8-42.27-47.46l-13.73,50c-11.11,6.7-51.84,7.03-53.27,22.59,4.16,18.3,27.23,25.61,41.58,35.37ZM544.81,281.38l11.3-43.27,29.61,50.15c17.14-7.88,35.72-9.19,54.3-8.19l.02.03c-8.05,10.93-34.5,23.51-38.06,36.27-3.58,12.76,11.84,34.03,12.85,47.61-2.36,2.36-36.63-19.15-46.14-19.17-16.12-.05-23.26,19.97-37.76,24.79-2.05-12.29,7.86-27.72,4.44-39.24-3.97-13.45-29.23-21.28-37.97-32.11l47.42-16.86Z"/>
  <path class="cls-1" d="M160.67,716.9c-23.5,97.84,99.99,142.11,161.55,66.4,52.28-64.32-.19-146.68-77.39-136.11-31.11,4.23-76.66,38.52-84.16,69.71ZM197.94,684.2c11.82-10.34,36.51-24.82,52.18-25.54v-.03c77.64-3.51,109.11,82.98,45.54,131.64-79.47,60.83-172.87-40.27-97.72-106.08Z"/>
  <path class="cls-1" d="M349.04,672.99c.69,3.26,5.42,4.7,9.19,3.72,2.6-.67,42.24-24.13,43.91-26.07,1.44-1.69,3.29-2.82,2.96-5.49l-4.28-6.98v-.03c-7.35,6.49-53.85,25.03-51.77,34.85Z"/>
  <path class="cls-1" d="M222.92,617.55c-.33-5.08-7.86-52.61-19.35-40.99l8.41,53.13h-.02c10.29,1.18,11.58-3.05,10.96-12.14Z"/>
  <path class="cls-1" d="M353.19,612.93c-4.97-1.05-28.34,34.67-23.71,39.14.43.44,8.62.51,10.6-.59,1.93-1.08,25.03-35.98,13.11-38.55Z"/>
  <path class="cls-1" d="M133.63,856.27c6.99,6.7,33.5-21.92,36.34-29.31-3.29-16.71-41.65,24.2-36.34,29.31Z"/>
  <path class="cls-1" d="M110.63,756.37l.03.03c-5.2.51-11.06,2.21-16.26,3.34-17.39,11.16,39.14,15.04,39.14,2.82-6.33-9.32-13.42-7.14-22.92-6.19Z"/>
  <path class="cls-1" d="M258.15,853.5c-6.06,1.28-8.19,47.02,2.72,44.74,6.06-1.28,8.19-47.02-2.72-44.74Z"/>
  <path class="cls-1" d="M343.45,803.11c-9.38,9.06,44.73,41.09,30.12,14.58-1.6-2.9-24.16-18.3-30.12-14.58Z"/>
  <path class="cls-1" d="M176.93,646.47c11.61-2.98-11.2-30.57-19.49-27.95-3.34,3.05-5.45,3.52-2.89,8.42,2.31,4.39,16.5,21.05,22.38,19.53Z"/>
  <path class="cls-1" d="M382.61,782.17c-7.83-8.42-17.89-10.52-16.76,4.13,6.9,1.77,15.19,6.49,16.76-4.13Z"/>
  <path class="cls-1" d="M814.17,642.96c52.71-6.75,60.51-81.31,12.54-71.38h.03c-9.69,2-21.06,13.76-29.68,14.81-10.13,1.23-39.91-15.27-45.08,11.22-6.45,33.13,35.15,48.82,62.18,45.35ZM843.86,585.39c1.74,2.88,2.13,29.05-5.14,21.92l-8.43-20.92c2.12-5.85,12.13-3.36,13.57-1ZM819.04,590.55l13.73,29.41-22.07,9.73c3.54-14.04-11.7-36.24,8.34-39.14ZM788.34,598.91h8.34v30.77l-13.94-2.88,5.59-27.9ZM777.11,593.34l-6.99,22.3c-10.55-9.04-7.31-22,6.99-22.3Z"/>
  <path class="cls-1" d="M921.25,632.49c9.03,1.9,6.71-19.89,9.77-25.15,6.19-1.33,4.92,1.51,6.93,5.67l8.5-2.82,1.74-24.87c6.43-1.16,12.32-1.57,10.75-10.14-24.38-21.77-55.16,53.64-37.69,57.31Z"/>
  <path class="cls-1" d="M853.38,560.44c12.25,5.24,43.46,3.44,38.45-14.65-3.87-4.08-22.35,12.86-35.58,1.98-2.98-2.46-5.8-12.32-6.69-12.86h.02c-14.26-8.39-11.8,18.86,3.8,25.54Z"/>
  <path class="cls-1" d="M760.39,521.97c6.93,3.08,28.96,3.08,30.73-5.59-6.04-15.99-28.39,8.75-30.88-18.07-18.01-3.34-8.57,19.76.16,23.66Z"/>
  <path class="cls-1" d="M703.03,509.42c11.89,2.52,39.81-52.51,6.95-47.53-.45,6.16,3.63,11.7,2.82,17.94-1.38,10.99-21.99,19.69-9.77,29.59Z"/>
  <path class="cls-1" d="M1259.59,484.09c7.98-4.52,27.96-4.18,39.48-8.08,27.61-9.34,30.11-24.51,47.71-41.81,20.15-19.79,94.61-60.34,45.9-87.06,15.45-22.1,10.62-46.35-19.61-44.71,8-23.18-3.49-39.47-28.01-39.17h-.05c5.95-10.09-5.75-25.87-15.97-27.46-21.51-3.39-68.94,52.59-86.13,66.58-5.3.16-2.98-36.62-27.97-36.62-23.16.03-28.63,34.09-26.34,51.85,1.19,9.11,10.17,21.92,6.83,29.49-2.39,5.49-14.78,12.01-19.73,16.84-47.12,46.1-92.71,93.78-139.84,139.88l-28.54-30.41c-8.45-2.23-22.93,19.94-30.21,24.82-9.88-17.68-20.97-31.08-43.23-30.83,3.66-49.92-50.6-112.01-99.05-70.02-27.29-35.09-84.85-34.11-107.7,4.8-7.05,12.01-4.23,30.05-7.29,34.68-.84,1.28-20.52,9.5-26.77,15.19-14.14,12.91-24.91,36.19-21.68,55.34,2.22,13.17,13.01,19.99,18.58,30.95l-13.66,27.05c-31.74-17.35-60.9-40.06-93.21-56.41-10.89-5.49-15.33-10.98-27.23-3.49l-149.63-85.42c-9.94-31.11-16-65.65-36.51-92.19-33.96-43.92-61.42-8.37-43.15,33.31-5.35,5.83-66.03-66.19-92.03-34.55-1.82,2.23-1.82,7.42-3.7,8.8-3.97,2.95-19.72,1.51-28.11,8.88-8.38,7.34-6.31,22.59-8.14,24.82-.89,1.13-11.96,2.64-15.47,6.88-9.7,11.65-1.96,40.17,13.2,45.38l-.05,4.11c-17.2,4.7-21.64,24.51-12.46,39.09,12.83,20.35,53.92,35.98,75.82,47.28,52.85,27.28,104.02,57.01,154.67,88.75,22.35,14.01,53.8,40.5,74.74,51.12,5.06,2.54,9.36,3.65,15.04,3.18-1.31,10.78-11.97,20.38,1.86,27.52l125.2,53.82c4.15,2.03,4.59,5.21,4.59,9.39,0,6.31-11.42,62.68-14.02,64.73-39.91-10.81-82.82-2.31-109.23,30.54-4.13,5.13-8.36,19.35-13.04,20.71-34.72-13.12-63.67-6.9-95.18,10.98-48.5,27.56-60.08,72.61-51.73,125.92-31.36,9.32-50.36,41.63-51.46,73.12l20.89,15.71c-4.96,17.63-8.41,19.07-26,17.56-25.82-2.21-99.87-27.31-119.24-17.84-22.8,11.14,16.65,40.07,25.48,47.28,26.19,21.4,139.37,107.87,164.01,115.73,44.42,14.17,66.27-55.34,88.86-82.98,34.08,15.84,57.29,51.77,76.37-2.31,8.86-25.08,6.07-42.63.72-67.81,26.55-2.82,52.28-25.05,50.29-53.28,34.67,6.16,71.55,5.57,96.91-22.07,25.43,18.45,55,27.69,84.65,12.01,5.78-3.05,12.85-13.17,15.66-12.27,6.78,2.18,1.98,5.75.31,8.62-37.61,64.58-15.12,125.1,65.5,117.22-7.81,72.81,71.24,129.28,131.46,78.33,12.51,47.43,76.4,73.48,121.58,61.37,53.3-14.29,139.42-125.99,159.62-176.07,11.39-28.26-14.8-31.8-34.94-44.81,2.34-8.44,11.32-21.33,20.39-21.46,27.97-.39,184.47,50.02,119.57-27.51-20.3-24.28-115.87-97.71-144.5-110.08-26.25-11.34-33.31-3.75-51.48,14.96-10.06,10.34-42.72,58.78-47.54,61.75-3.06,1.87-12.35-2.13-18.13-1.77-19.42,1.23-39.21,29.98-51.56,43.17-2.22,2.39-1.96,2.52-5.82,1.77.89-40.14-31.47-77.79-69.94-86.72l17.81-.18,4.61-6.75-27.58-156.13c7.62-9.24,19.01-22.71,31.59-24.43,33.81-4.62,87.45,4.7,123.11,5.83,47.69,1.51,95.28,1.21,142.94,2.57,22.16.62,101.54,14.45,104.77-18.33,2.67-27.15-38.25-57.36-64.46-47.07-7.33-40.22-44.25-62.62-83.7-52.05-4.08-28.03-24.88-57.88-56.04-55.87-1.15-4.26,1.14-4.65,2.75-7.01,5.64-8.21,87.74-93.32,93.59-96.63ZM1374.76,313.72c12.37-.43,18.1,6.24,11.91,17.68-4.94,9.14-58.68,52.56-63.64,49.1h.02l-8.41-17.37c14.93-13.42,39.19-48.64,60.13-49.41ZM1340.76,279.89c12.44-6.24,24.24-4.34,20.59,12.12-2.77,12.53-42.34,50.07-53.97,58.03-2.36,1.62-2.92,3.82-7,2.72l-11.2-15.37,51.58-57.49ZM1252.59,312.12c6.78-10.11,57.7-56.85,68.09-60.67,17.91-6.57,13.97,8.55,8.71,19.94-3.54,7.68-42.51,54.54-47.83,55.93l-16.21-8.26-7.07,8.55v.05l-8.03-7.57c-1.31-3.49.6-5.34,2.34-7.96ZM686.11,484.16c3.34-12.47,29.08-41.01,42.89-32.9v.03c.83.49,11.03,14.24,11.22,15.17,3.39,16.91-27.53,49.25-40.05,59.7-14.54-11.19-18.92-23.74-14.06-41.99ZM683.24,584.77c8.91-48.28,55.79-64.68,67.42-109.05,17.14,5.95,38.16,5.16,45.73,24.15,12.68,31.77-35.82,37.73-53.14,52.82-10.43,15.48,49.6,22.2,53.18,17.97l.28-10.91c-2.98,1.54-35.61-1.28-27.99-8.37,35.61-8.75,53.76-35.06,33.57-69.94l22.35-5.62c4.85,31.8,33.6,55.93,65.51,39.5,10.05,13.17,18.08,32.01,38.02,30.47,2.58,2.31-16.93,19.66-4.13,22.36,3.39.69,21.97-22.2,43.25-6.93,27.2,19.51-12.11,91.52-45.44,84.78-17.34-3.52-17.29-31.98-25.79-30.26-4.92,1-4.27,16.12-6.38,21.61-19.7,50.51-99.77,125.74-148.92,66.47,23.38-5.75,48.84-11.37,67.11-28l-4.18-6.96c-16.96-1.44-36.63,1.95-53.16,0l-.02-.03c-43.3-5.13-75.51-39.47-67.27-84.06ZM237.11,351.42c4.75,2.16,7.4,10.04,11.49,13.66,6.09,5.36,37.01,27.26,35.91,33.49l-11.29,15.55v-.03c-4.65,3.21-59.48-36.24-62.92-47.22-5.45-17.43,14.55-21.02,26.8-15.45ZM189.42,401.88c-4.42-7.55-4.11-17.97,4.94-20.66,13.64-4.06,18.44,9.39,27.46,16.22,7.98,6.03,39.86,25.33,40.26,32.03.26,4.18-2.92,13.12-5.33,17.07-4.13,3.28-62.47-36.37-67.32-44.66ZM452.37,611.77c-43.46-29.1-94.54-60.73-139.91-86.7-32.14-18.38-69.66-30.31-99.56-48.71-10.12-6.21-30.74-18.97-24.12-33.24,12.65-27.23,52.15,19.02,70.47,19.1l.31,10.88h11.17c-5.9-38.14,12.61-62.83,44.77-79.77-1.93-12.7-12.27-2.28-19.48-5.44-2.03-.87-30.06-24.56-33.74-28.05-18.19-17.27-27.35-40.35,6.52-23.3,6.47,3.26,62.87,43.71,65,47.1,2.41,3.85-4.65,24.69-4.06,34.5.43,7.49,7.05,37.63,17.86,35.37,8.45-6.11-2-15.76-3.49-24.43-3.72-21.84,6.06-35.6,5.2-49.72-.81-12.73-21.87-36.98-14.28-55.77,12.4-6.11,21.54,7.88,27.51,17.14,16.83,26.08,22.95,54.98,30.04,84.65l159.54,92.4-49.22,131.5c-15.78-13.87-33.09-25.79-50.52-37.48ZM348.17,1227.81c-40.45-24.92-99.73-70.02-137.5-100.3-10.24-8.21-25.32-17.99-29.49-30.65,5.35-5.21,99.39,62.78,109.99,70.43,31.33,22.61,64.09,45.15,91.44,72.17l.03.02c-14.76,2.64-23.16-4.7-34.48-11.68ZM435.46,1164.85c-.46,4.93-39.09,66.07-43.05,66.19l-163.67-125.79v-.02c24.09,3.31,47.83,9.68,71.78,13.76,33.77,5.77,50.75,13.83,83.44,25.44,12.99,4.62,37.04,8.88,47.07,14.47,2.96,1.64,4.8,1.85,4.42,5.95ZM1204.42,917.2c28.44,10.01,125.63,86.6,146.34,111.03,2.32,2.72,13.51,15.6,11.1,18.25l-170.63-131.46c4.89-.77,8.72.62,13.2,2.18ZM1127.13,992.25c4.68-10.6,44.99-66.09,53.01-64.88l156.56,119.09-104.22-14.65c-32.93-14.45-67.99-23.38-101.78-35.39-2.94-1.05-4.94,1.38-3.56-4.16ZM1028.65,1020.3c.72,8.62-10.94,40.86,6.83,36.86,8.83-1.98,43.99-61.86,64.31-63.29l144.14,100.66c1.55,2.67-.05,5.44-.84,7.98-5.42,17.15-35.06,60.21-46.81,76.38-39.29,54.03-96.07,123.48-170.27,87.34-33.15-16.14-28.51-24.92-44.04-51.07-9.86-16.58-18.49,1.31-27.67,7.13-41.03,26.1-93.25-6.36-98.56-51.59-.96-8.21,1.98-32.8-2.92-36.24-14.45-2.36-23.97,2.9-39.52.31-33.29-5.52-45.97-32.57-41.55-64.24,2.72-19.61,18.48-33.31,24.65-50.07-16.24-14.84-37.13-19.35-51.56-38.22-6.07-7.96-14.71-36.29-16.71-36.37-1.72-.08-6.83,2.75-7.24,6.93-1.36,13.86,9.43,33.16,18.74,43.07,3.68,3.88,23.62,16.2,22.16,19.87-16.4,18.32-41.6,16.27-62.11,6.11-10.99-5.44-20.61-20.35-32.65-17.45-1.39.33-6.31,12.55-11.58,16.97-25.89,21.71-61.85,10.7-90.96,5.57,1.75,26.38.67,40.96-24.12,52.82-7.26,3.46-24.89,6.36-27.23,12.27-2.92,9.83,4.97,18.91,6.35,28.85,2.43,17.76-.98,50.3-19.46,58.72l-187.63-112.03c-7.98-10.42,16.46-44.86,27.27-51.43,7.23-4.39,17.14-4.7,23.6-10.75,4.28-6.52-2.56-21.02-3.13-30.11-3.46-54.8,33.12-101.23,88.53-107.46,25.91-2.93,28.71,7.57,45.11,10.34,13.99,2.36,23.21-29.46,34.24-40.14,21.33-20.64,62.37-23.46,89.64-15.27v.05l-2.41,23.28c1.57,4.72,7.9,6.03,12.08,7.57,37.97,14.06,98.67,19.92,140.89,29.77,62.31,14.55,123.12,34.08,185.05,49.97l2.92,6.83-9.86,2.77,1.36,7.13c37.51-1.23,77.76,32.47,80.98,70.2ZM951.89,769.67l23.86,153.74c-63.67-11.29-124.51-34.03-187.41-49-52.75-12.52-106.29-20.97-159.23-32.39l13.69-97.63,14.99,2.59,4.58-10.96-153.52-66.06,58.29-150.97c3.73-2.72,19.92,7.21,24.4,9.52,9.34,4.8,75.53,44.2,77.94,48.07,2.12,3.36-1.94,24.82-.74,34.21,3.66,28.44,24.74,52.95,51.97,61.29-.72,25.44,11.85,50.74,36.01,60.52,61.83,25.02,114.98-34.03,140.94-83.18,29.09,15.43,50.41,10.88,71.14-14.09,22.04-26.54,34.43-76.43-7-89.58v-4.13c11.91-5.52,10.98-19.97,14.71-25.87,1.12-1.82,6.64-3.03,9.15-6.16,4.99-6.19,13.66-24.15,22.35-17.15l110.4,138.65-166.52,138.57ZM1210.59,659.26c22.49.44,30.3-10.37,54.25,1.72,27.46,13.86,19.6,40.22,28.2,47.33,7.93,6.01,16.71-.49,25.5-.54,16.14-.1,33.88,15.79,35.08,32.37-.57,6.42-7.36,8.78-12.9,9.65-31.93,4.98-68.54-1.87-100.44-2.72-70.33-1.9-148.99.64-218.36-5.47-4.4-.39-8.29-2.21-12.56-2.85h-.02l117.63-99.12c11.49-8.27,1.26-12.37.27-17.5-1.2-6.34,19.84-22.87,28.87-23.43,38.07-2.39,47.85,30.29,54.49,60.57ZM1117.02,610.08l-72.91-97.86,165.23-162.28c5.3-10.75-4.51-19.84-6.31-29.98-2.82-16.02-2.31-32.7,11.94-42.61,13.26,9.01,10.63,25.51,17.07,38.78,6.45,13.27,19.29,18.76,24.83,33.9,6.59,17.99.1,29.39-1.29,47.48l-.02.03,10.87-.31c7.42-23.31,8.48-41.63-2.46-64.01,24.64,20.2,45.49,44.66,60.49,72.84l9.43-.1c-.1-5.54-.89-10.7,2.61-15.63,4.71-6.62,47.54-37.14,56.31-30.77,19.06,13.83-40.69,52.38-49.21,60.29-15.62,14.5-26.13,35.32-46.68,42.84-14.11,5.16-31.12,2.8-42.82,10.37l-137.08,137.03Z"/>
</svg>