<svg width="827" height="656" viewBox="0 0 827 656" fill="none" xmlns="http://www.w3.org/2000/svg">
<path d="M290.435 127.629C321.774 103.135 364.936 105.821 391.313 135.901C400.07 107.263 438.284 92.4658 464.024 108.72C475.011 115.655 473.57 114.092 485.605 118.569C500.22 124.002 514.243 141.516 513.772 157.421C538.282 145.689 545.916 181.43 543.397 199.459C542.941 202.677 538.404 214.544 536.461 216.517C533.289 219.75 524.274 219.932 523.804 220.402C523.242 220.979 522.074 232.255 520.647 236.277C513.833 255.597 497.291 272.548 477.728 278.543L474.055 299.669C508.294 278.437 546.887 264.475 586.422 256.553C588.425 242.803 595.255 228.461 600.658 215.364C610.431 191.689 621.434 168.484 630.844 144.642C632.726 139.452 638.386 140.378 642.879 141.637L809.82 198.017C814.57 200.977 827.015 220.463 826.18 225.638L729.597 473.271L720.506 476.003L557.238 419.091C552.29 419.152 552.639 408.923 549.316 410.486C547.874 411.169 535.96 429.958 532.773 433.646C512.042 457.67 484.224 470.023 452.52 460.098C455.085 489.98 435.947 531.715 406.55 542.339C402.529 543.796 392.421 543.826 391.404 547.119C408.887 603.469 350.777 651.199 296.961 636.265C286.246 633.291 277.565 625.809 267.23 622.166C252.812 672.582 179.996 657.102 149.734 629.633C128.578 610.435 124.192 585.394 112.172 561.4C111.185 559.427 108.605 559.351 108.378 558.168C107.391 553.235 110.548 546.072 113.31 541.944C95.5232 529.12 81.4849 540.821 67.8109 552.659C58.3256 560.884 39.5826 586.563 29.4296 588.793C15.3306 591.874 19.2613 575.863 21.5985 567.668C28.2458 544.494 46.5031 503.396 57.324 480.996C68.6911 457.457 70.3454 454.543 96.0088 463.346C101.958 465.395 139.55 483.242 141.402 481.557L142.995 475.654C144.68 474.288 146.41 475.32 148.14 475.639C161.055 478.021 186.203 488.63 199.771 493.577C222.824 501.985 245.664 511.591 268.323 521.031C272.496 521.441 290.875 491.968 293.668 486.566C265.682 493.926 240.777 476.564 232.43 450.157C213.581 466.897 189.344 471.723 165.897 461.282C139.899 449.717 133.783 423.371 138.139 397.237C86.1593 412.353 76.5526 365.974 91.6835 326.288C70.4364 310.505 21.2646 347.125 4.11516 338.551C-4.73274 334.119 2.85551 321.599 6.77105 316.347C16.8027 302.856 70.6793 260.119 86.3566 250.361C91.7139 247.022 93.7324 244.442 100.911 244.988C117.301 246.217 133.753 278.376 144.058 289.728C145.773 290.123 154.393 281.366 160.979 285.16C162.33 285.949 176.262 306.513 179.571 310.383C194.322 327.639 210.986 343.225 224.22 361.801L306.962 350.16C323.216 308.714 348.288 270.909 388.763 249.996L396.261 220.296L380.523 215.759C343.022 257.615 277.216 245.504 265.743 187.849C264.893 183.615 267.2 178.485 263.102 175.663C214.219 196.014 167.338 127.781 211.836 92.9514C242.007 69.337 287.339 89.9617 290.389 127.645L290.435 127.629ZM414.488 202.069C414.488 211.995 405.609 213.664 402.62 222.451C398.325 235.108 397.976 251.256 393.468 264.171C394.106 268.405 408.933 268.921 412.818 269.878C411.786 263.519 403.97 262.153 406.186 254.215C406.232 252.743 409.252 253.092 410.405 253.244C411.498 253.396 421.605 264.535 426.189 267.267C472.659 294.918 528.418 247.341 515.366 197.107C503.832 206.273 471.369 208.975 486.576 187.318L503.786 178.121L492.738 167.558C489.384 167.058 484.345 177.241 479.777 172.339C475.937 166.405 484.026 163.476 483.738 160.183L470.701 137.57L449.227 166.511L459 175.01C455.813 186.908 446.464 174.221 441.775 174.524C440.379 174.615 431.819 180.959 428.571 182.249C421.757 184.981 414.548 186.013 407.339 186.923C403.014 185.922 400.556 170.229 394.637 166.435L390.782 165.859C375.393 174.054 374.695 216.29 397.035 211.964C404.744 210.477 404.866 199.292 414.457 202.054C414.457 198.245 411.012 196.287 414.321 191.203C421.499 180.216 452.323 188.623 460.806 196.606C463.25 212.374 446.874 211.448 435.553 209.9C426.963 208.717 421.287 204.027 414.442 202.054L414.488 202.069ZM598.958 253.335C611.57 251.863 626.594 254.413 639.494 253.335C643.182 219.583 663.944 194.223 700.2 210.007C703.645 211.509 711.537 217.777 713.115 217.929C721.265 218.718 732.784 203.678 736.275 203.648C747.672 203.572 738.233 225.578 738.749 230.965C739.067 234.289 745.851 238.842 747.551 245.352C754.092 270.348 735.197 276.722 731.221 296.224C727.245 315.725 732.268 336.259 719.778 352.589C700.716 377.493 662.942 374.078 644.472 350.069C639.828 344.044 631.238 325.787 631.238 318.639V291.352L609.733 297.984C608.762 302.947 613.421 300.625 616.441 303.645C624.515 311.719 616.335 323.89 617.048 330.234C617.868 337.534 624.47 335.955 618.794 350.859C610.841 371.726 585.982 381.56 565.023 381.454L563.415 387.251L709.61 438.441L803.294 203.708L638.584 147.951L595.649 248.327L594.845 254.944C596.697 255.566 598.26 253.381 598.973 253.29L598.958 253.335ZM528.175 164.523C522.013 159.424 511.951 165.024 510.798 171.762C510.433 173.902 530.497 202.843 525.352 211.995C528.023 212.207 529.146 212.405 531.119 210.325C538.282 202.783 536.613 171.519 528.175 164.523ZM502.177 188.836C498.065 184.632 480.05 201.462 501.98 195.24L502.177 188.836ZM435.993 193.813C431.121 194.314 424.777 191.886 421.135 196.287L434.323 202.085L435.993 193.813ZM727.154 461.737C755.655 382.304 785.796 303.432 817.454 225.213L809.061 208.702L717.517 441.492C716.606 446.712 722.813 458.155 727.154 461.752V461.737ZM702.355 218.627C688.59 212.86 668.223 208.064 659.36 223.544L702.355 218.627ZM656.037 273.201C663.64 284.037 683.339 280.288 694.084 275.66C717.107 265.765 731.145 239.418 733.771 215.288C716.257 231.36 694.297 226.23 673.581 228.704C656.811 230.707 643.182 241.816 647.781 259.937L668.466 243.41C681.108 249.556 657.312 259.937 654.382 266.539C675.69 265.856 693.037 255.794 708.896 242.408L713.92 245.884C699.032 261.773 678.285 273.505 656.052 273.186L656.037 273.201ZM649.45 279.803C648.19 287.528 640.435 283.491 639.388 292.111C635.108 327.502 654.732 374.685 697.377 360.01C730.235 348.703 716.257 308.486 727.366 284.143C733.847 269.953 751.998 256.264 735.455 240.101C725.317 273.14 681.184 303.053 649.45 279.788V279.803ZM106.769 255.005C96.449 249.996 88.4813 258.434 80.4529 264.232C63.8195 276.221 40.7209 294.858 25.6961 308.729C23.6473 310.611 7.60575 326.227 9.16893 327.76L101.67 262.304L106.769 255.02V255.005ZM455.616 314.329C457.331 308.243 450.85 307.029 447.557 303.812C442.534 298.925 422.895 277.314 418.6 276.525C406.216 274.233 384.529 279.757 385.546 259.967C346.558 283.688 321.668 325.484 311.014 369.207L369.808 398.877L348.606 329.794C347.377 324.421 353.979 321.841 356.21 327.32L377.29 395.598L449.151 350.859L448.346 346.017L406.429 288.681L404.547 279.818C407.962 279.211 408.918 280.197 411.179 282.277C416.779 287.391 439.256 323.845 441.82 324.482L455.586 314.344L455.616 314.329ZM606.394 259.967C550.439 271.562 486.303 288.878 447.663 333.375C448.802 340.387 469.123 336.562 474.45 335.621C498.808 331.387 504.742 318.502 523.728 312.113C534.367 308.532 535.672 311.476 544.307 311.324C560.819 311.021 570.972 282.595 584.495 280.122C598.199 277.617 594.769 288.514 597.653 289.758C601.462 291.398 607.472 291.124 611.372 289.728C606.531 280.137 605.696 270.621 606.394 259.982V259.967ZM639.494 259.952H614.681C611.038 265.264 614.317 286.89 620.433 287.543L646.126 278.133L639.509 259.952H639.494ZM25.7113 327.76C41.9805 324.755 59.6004 314.769 76.3401 314.724C84.7782 314.708 91.2282 319.337 98.9683 320.931C106.632 311.886 128.168 304.692 134.876 297.149C136.363 295.48 137.061 295.055 136.363 292.521C135.908 290.866 117.347 265.856 115.981 264.793C114.448 263.61 113.295 262.699 111.231 263.428L25.7113 327.745V327.76ZM570.016 331.068C566.662 327.73 579.684 314.374 581.96 310.778C585.936 304.464 593.737 293.082 587.393 286.465C574.964 292.293 566.632 312.037 554.658 316.56C546.948 319.459 538.009 316.894 529.874 318.245C516.686 320.445 472.052 358.917 466.179 370.406C465.496 371.756 465.845 374.124 465.784 375.748C457.24 378.267 452.429 358.523 447.072 359.403L398.097 391.713C407.279 416.375 437.176 452.009 464.949 455.135C505.744 459.734 528.888 429.791 547.13 398.345C550.484 392.578 558.922 371.665 562.443 369.009C564.447 367.492 565.843 367.143 568.347 367.461V374.094C588.866 373.684 610.037 360.996 614.696 340.189C611.266 336.714 611.342 341.753 609.748 343.437C602.342 351.238 593.191 361.634 581.581 360.829C579.395 352.467 590.004 351.648 596.317 346.639C602.509 341.737 620.493 314.208 610.492 309.579C607.29 308.107 601.325 327.305 598.836 329.308C596.393 331.858 580.276 351.268 578.272 341.798C588.774 328.731 602.13 315.923 603.071 297.999C593.1 296.876 593.995 306.468 589.548 313.403C587.302 316.924 574.448 335.5 570.001 331.053L570.016 331.068ZM144.832 391.455C146.122 395.583 144.832 414.963 144.832 421.231C144.832 422.506 148.079 433.372 148.944 435.315C158.172 456.334 189.132 463.072 209.317 455.924C217.603 452.995 229.501 438.73 234.737 440.414C236.316 440.915 244.602 458.96 248.214 463.422C266.577 486.034 290.526 483.94 313.442 469.052C319.513 465.106 323.292 460.098 329.378 456.744L378.094 465.076L377.336 470.084L373.982 471.723C364.299 471.723 335.646 462.572 328.498 465.911C326.434 466.867 324.263 470.706 321.714 472.36C317.252 475.259 308.146 479.357 305.262 482.377C296.141 491.983 287.794 513.428 277.869 524.446C275.987 526.54 274.591 529.348 271.313 529.636C241.035 518.223 211.047 505.278 180.436 494.791C173.47 492.408 157.929 486.201 151.874 485.2C149.961 484.881 148.186 484.335 146.41 485.625L117.028 554.753C132.766 588.065 139.884 620.755 176.232 637.935C198.223 648.33 241.096 654.28 256.44 630.377C260.021 624.807 259.869 612.711 266.532 612.18C274.317 614.138 280.1 620.603 287.642 624.139C332.58 645.189 390.509 613.652 386.441 561.749C385.774 553.19 381.069 546.952 382.131 539.364C389.644 537.042 396.291 537.74 404.077 534.826C430.863 524.764 451.275 482.847 443.884 455.53C432.214 449.05 422.304 440.156 411.073 432.932C390.691 419.82 367.425 407.163 346.148 395.295C338.848 391.212 306.977 376.825 303.638 373.244C302.728 372.272 301.832 371.544 302.045 370.041L305.323 357.536L222.687 369.996L155.273 293.204C150.993 292.111 149.415 296.785 146.41 298.713C136.105 305.345 102.55 324.209 98.4371 333.451C87.5252 357.931 90.1507 396.721 125.709 392.123C129.519 391.637 142.919 385.203 144.862 391.44L144.832 391.455ZM482.327 341.024L457.513 344.333C461.231 352.498 453.203 354.516 459.198 362.499C461.778 364.305 479.671 344.393 482.327 341.024ZM711.886 448.928C683.491 437.728 654.124 429.123 625.411 418.773C608.413 412.641 579.259 397.404 563.415 394.582C550.848 392.351 555.857 408.134 561.259 413.446L716.469 466.685C718.731 467.201 719.581 466.563 718.898 464.256C717.608 459.992 713.313 453.694 711.901 448.928H711.886ZM404.562 418.727L390.463 397.237L378.094 403.885L396.853 415.707L404.562 418.742V418.727ZM81.9554 466.715C73.153 464.818 70.7551 470.979 67.2797 477.657C56.4437 498.464 35.3029 547.924 28.9439 570.005C27.9119 573.617 26.804 576.986 27.3807 580.826C28.9743 582.723 37.1999 573.86 38.0043 572.449C44.5757 560.687 50.449 538.378 56.383 524.658C64.7453 505.278 73.927 486.232 81.9706 466.73L81.9554 466.715ZM136.56 488.22L90.2418 470.706L53.8485 554.358C73.5021 538.575 89.5588 519.863 116.679 534.508L136.56 488.205V488.22Z" fill="#1E3D34"/>
<path d="M592.736 460.493C676.343 446.455 689.835 563.328 646.051 616.354C586.119 688.958 461.96 637.996 491.433 559.367C503.68 526.692 539.39 523.369 559.105 498.009C568.529 485.883 575.465 463.407 592.736 460.508V460.493ZM604.422 467.171C575.571 469.219 576.118 490.891 560.121 508.921C542.35 528.923 510.57 533.719 499.249 560.52C484.512 595.381 512.012 629.618 544.308 640.424C606.729 661.307 664.779 605.109 664.445 543.584C664.263 510.545 643.577 464.378 604.437 467.171H604.422Z" fill="#1E3D34"/>
<path d="M556.768 51.5505C560.516 49.5624 588.456 20.7425 588.274 35.843L563.4 58.9717C564.234 62.3409 593.692 67.7589 599.322 71.0521C602.115 72.6912 603.739 73.3589 603.086 77.1682C601.417 79.566 600.476 79.5964 597.774 79.3688C591.355 78.8072 563.506 66.7572 560.091 69.7621C561.73 81.372 570.806 90.8421 570.001 102.816C563.627 109.494 555.022 80.598 553.854 78.4733C552.806 76.6066 553.975 75.6657 550.181 76.3487C548.967 82.2219 543.124 108.295 537.736 109.418C528.023 105.685 537.797 90.493 538.571 82.9656C534.989 84.8171 515.199 109.16 515.366 95.3646C515.442 89.5369 536.704 72.5697 540.24 66.4537C535.308 65.194 508.506 68.4267 507.156 66.4234C504.196 62.0374 513.363 58.1674 516.246 58.1674H541.895C540.68 50.1847 523.425 35.934 527.811 28.3762C529.116 26.0542 531.908 27.7084 533.153 28.9074C538.176 33.6879 541.439 46.1629 548.512 49.9115V16.0074C548.512 10.0735 556.783 11.4697 556.783 14.3532V51.5657L556.768 51.5505Z" fill="#1E3D34"/>
<path d="M189.041 37.0415C216.465 31.3504 235.329 54.4488 221.64 79.5657C206.449 107.46 164.911 92.8905 168.371 61.1264C169.509 50.6547 178.585 39.2269 189.041 37.0567V37.0415Z" fill="#1E3D34"/>
<path d="M44.3331 204.968C39.2641 199.824 48.112 181.749 46.1694 174.418C43.984 168.818 19.8534 163.051 22.3271 151.684C23.6627 143.019 48.5521 143.929 53.8639 138.405C62.1351 129.815 56.3225 73.1465 85.2185 136.796C91.5168 141.03 123.858 127.508 125.087 141.789C125.755 149.59 105.798 159.682 102.08 166.876C99.9853 174.6 113.553 190.627 106.906 199.687C95.4627 205.196 82.5475 189.079 72.9711 190.445C67.1282 191.279 52.0124 212.754 44.3482 204.968H44.3331ZM82.1225 147.359C80.9843 146.539 73.0925 126.036 70.1028 122.105C68.6762 120.239 68.3726 118.706 65.4132 119.358C64.9579 125.824 63.592 140.636 58.7507 144.946C53.9701 149.18 38.8544 150.637 32.3285 152.443C28.6861 156.48 51.1321 165.51 52.7257 169.365C56.277 177.848 51.982 188.578 50.5251 197.092C59.5399 193.92 62.8484 182.811 72.8649 182.113C82.8814 181.415 90.5455 190.202 100.122 192.129C99.4693 179.548 88.011 170.503 97.6026 159.014C99.4086 156.844 117.393 144.612 115.01 142.533L82.0922 147.359H82.1225Z" fill="#1E3D34"/>
<path d="M185.611 5.82396C196.827 16.2198 201.38 42.2777 178.023 25.8113C156.305 10.5135 168.249 -10.2782 185.611 5.82396Z" fill="#1E3D34"/>
<path d="M197.782 31.7006C194.96 21.7145 216.434 -7.31787 226.071 4.29204C233.356 13.0792 207.495 34.0377 197.782 31.7006Z" fill="#1E3D34"/>
<path d="M144.832 391.457C142.889 385.219 129.488 391.654 125.679 392.14C90.1205 396.723 87.495 357.947 98.4069 333.468C102.52 324.225 136.075 305.376 146.38 298.729C149.385 296.802 150.963 292.127 155.243 293.22L222.657 370.012L305.293 357.553L302.015 370.058C301.802 371.576 302.698 372.289 303.608 373.26C306.947 376.827 338.818 391.229 346.118 395.311C367.395 407.179 390.661 419.836 411.043 432.949C422.273 440.173 432.184 449.066 443.854 455.546C451.245 482.849 430.833 524.766 404.046 534.843C396.261 537.772 389.629 537.059 382.101 539.381C381.039 546.969 385.743 553.206 386.411 561.766C390.479 613.669 332.55 645.206 287.612 624.156C280.07 620.62 274.272 614.155 266.502 612.197C259.839 612.713 259.991 624.824 256.409 630.393C241.066 654.296 198.192 648.362 176.202 637.951C139.869 620.772 132.736 588.082 116.998 554.77L146.38 485.641C148.155 484.366 149.931 484.898 151.843 485.216C157.899 486.218 173.44 492.425 180.406 494.808C211.017 505.295 241.005 518.255 271.282 529.653C274.576 529.364 275.957 526.557 277.839 524.462C287.764 513.444 296.126 491.985 305.232 482.393C308.116 479.358 317.222 475.276 321.684 472.377C324.233 470.723 326.403 466.883 328.467 465.927C335.616 462.604 364.284 471.74 373.951 471.74L377.305 470.101L378.064 465.092L329.348 456.761C323.262 460.115 319.483 465.123 313.412 469.069C290.481 483.957 266.532 486.036 248.184 463.438C244.557 458.976 236.285 440.932 234.707 440.431C229.471 438.746 217.573 453.012 209.286 455.941C189.102 463.089 158.142 456.351 148.914 435.332C148.064 433.389 144.801 422.523 144.801 421.248C144.801 414.98 146.091 395.6 144.801 391.472L144.832 391.457Z" fill="#B8E04A"/>
<path d="M598.958 253.335C598.245 253.411 596.681 255.612 594.83 254.989L595.634 248.372L638.569 147.996L803.279 203.754L709.595 438.487L563.399 387.297L565.008 381.5C585.967 381.606 610.841 371.787 618.778 350.904C624.454 336.001 617.853 337.564 617.033 330.279C616.32 323.92 624.5 311.749 616.426 303.69C613.406 300.67 608.747 302.992 609.718 298.03L631.223 291.398V318.685C631.223 325.817 639.813 344.09 644.457 350.115C662.927 374.109 700.716 377.539 719.763 352.634C732.268 336.304 727.427 314.784 731.206 296.269C735.197 276.767 754.077 270.393 747.536 245.398C745.836 238.887 739.052 234.334 738.733 231.011C738.217 225.608 747.642 203.602 736.26 203.693C732.769 203.724 721.235 218.763 713.1 217.974C711.522 217.823 703.63 211.555 700.185 210.052C663.929 194.254 643.167 219.613 639.479 253.381C626.579 254.458 611.554 251.909 598.943 253.381L598.958 253.335Z" fill="#FFFAF3"/>
<path d="M570.016 331.069C574.463 335.5 587.302 316.924 589.564 313.419C594.01 306.483 593.115 296.891 603.086 298.014C602.145 315.938 588.79 328.731 578.288 341.813C580.291 351.299 596.424 331.873 598.852 329.323C601.356 327.32 607.305 308.122 610.507 309.594C620.509 314.208 602.509 341.738 596.333 346.655C590.019 351.663 579.411 352.498 581.596 360.845C593.206 361.634 602.358 351.253 609.764 343.453C611.357 341.768 611.266 336.729 614.711 340.205C610.052 361.012 588.866 373.684 568.362 374.109V367.477C565.843 367.158 564.462 367.507 562.459 369.025C558.938 371.681 550.484 392.594 547.146 398.361C528.888 429.806 505.759 459.749 464.965 455.15C437.192 452.024 407.294 416.375 398.112 391.729L447.087 359.418C452.429 358.538 457.255 378.282 465.799 375.763C465.86 374.139 465.511 371.772 466.194 370.421C472.083 358.917 516.717 320.46 529.89 318.26C538.024 316.909 546.979 319.474 554.673 316.575C566.647 312.053 574.979 292.308 587.409 286.48C593.768 293.113 585.967 304.48 581.976 310.793C579.699 314.39 566.678 327.745 570.032 331.084L570.016 331.069Z" fill="#FFFAF3"/>
<path d="M455.616 314.33L441.851 324.468C439.286 323.83 416.81 287.392 411.21 282.262C408.948 280.198 407.992 279.212 404.578 279.804L406.46 288.667L448.377 346.003L449.181 350.844L377.321 395.584L356.241 327.306C354.01 321.842 347.423 324.422 348.637 329.78L369.839 398.862L311.045 369.193C321.699 325.47 346.573 283.689 385.577 259.953C384.545 279.743 406.247 274.234 418.631 276.511C422.926 277.3 442.564 298.911 447.588 303.798C450.896 307 457.362 308.214 455.647 314.315L455.616 314.33Z" fill="#A89FD8"/>
<path d="M414.488 202.07C404.897 199.308 404.775 210.478 397.066 211.98C374.726 216.306 375.424 174.07 390.813 165.875L394.668 166.451C400.587 170.245 403.045 185.938 407.37 186.939C414.594 186.044 421.803 184.997 428.602 182.265C431.85 180.96 440.425 174.631 441.806 174.54C446.48 174.237 455.829 186.924 459.031 175.026L449.258 166.527L470.732 137.586L483.769 160.199C484.057 163.492 475.983 166.421 479.808 172.355C484.361 177.257 489.399 167.074 492.769 167.574L503.817 178.137L486.607 187.334C471.4 208.991 503.863 206.289 515.397 197.123C528.449 247.341 472.69 294.934 426.22 267.283C421.652 264.567 411.529 253.412 410.436 253.26C409.267 253.093 406.263 252.744 406.217 254.232C404.001 262.169 411.802 263.535 412.849 269.893C408.964 268.937 394.137 268.437 393.499 264.187C398.007 251.287 398.34 235.14 402.651 222.467C405.64 213.68 414.519 211.996 414.519 202.085C421.363 204.058 427.039 208.748 435.629 209.932C446.951 211.495 463.326 212.421 460.883 196.637C452.399 188.654 421.576 180.247 414.397 191.234C411.074 196.319 414.519 198.291 414.534 202.085L414.488 202.07ZM477.349 172.309C472.675 167.954 466.604 178.562 465.891 183.145C463.402 199.02 470.656 202.966 480.658 212.83L466.544 218.567L467.378 222.801C471.142 225.26 494.833 219.22 495.212 214.515C495.774 207.564 470.216 203.633 472.432 186.515C472.842 183.312 479.216 174.055 477.349 172.309ZM390.874 199.217C391.936 200.264 391.572 203.542 392.877 204.62H398.007C402.043 194.907 400.071 180.034 389.083 175.739L384.742 179.731L389.523 184.921L384.773 196.121C385.592 198.732 389.69 198.003 390.889 199.202L390.874 199.217ZM474.041 231.846C461.717 234.487 456.542 238.463 445.342 229.934C441.609 227.081 440.273 219.311 434.339 226.079C436.115 233.394 444.598 240.497 451.822 241.65C459.046 242.804 476.864 242.682 474.041 231.846Z" fill="#FFFAF3"/>
<path d="M649.45 279.803C681.184 303.054 725.318 273.156 735.456 240.117C752.013 256.28 733.847 269.954 727.366 284.159C716.242 308.502 730.235 348.719 697.378 360.026C654.732 374.701 635.109 327.518 639.388 292.127C640.436 283.506 648.176 287.543 649.45 279.819V279.803Z" fill="#B8E04A"/>
<path d="M606.395 259.968C605.696 270.607 606.531 280.122 611.372 289.714C607.472 291.11 601.462 291.383 597.653 289.744C594.769 288.5 598.199 277.603 584.495 280.107C570.988 282.581 560.82 311.006 544.307 311.31C535.672 311.477 534.382 308.517 523.728 312.099C504.758 318.488 498.808 331.373 474.45 335.607C469.123 336.533 448.802 340.357 447.664 333.361C486.303 288.879 550.424 271.548 606.395 259.953V259.968Z" fill="#8FBFB0"/>
<path d="M727.154 461.738C722.813 458.141 716.606 446.698 717.517 441.478L809.061 208.688L817.454 225.199C785.796 303.418 755.655 382.305 727.154 461.723V461.738Z" fill="#FFFAF3"/>
<path d="M136.561 488.221L116.679 534.524C89.5589 519.864 73.5022 538.591 53.8486 554.375L90.2419 470.723L136.561 488.236V488.221Z" fill="#2C5F52"/>
<path d="M25.7119 327.761L111.231 263.444C113.295 262.716 114.434 263.626 115.982 264.81C117.348 265.857 135.908 290.868 136.364 292.537C137.062 295.072 136.364 295.481 134.876 297.166C128.184 304.693 106.633 311.902 98.9688 320.947C91.2137 319.369 84.7788 314.725 76.3407 314.74C59.601 314.786 41.9811 324.772 25.7119 327.777V327.761Z" fill="#2C5F52"/>
<path d="M711.887 448.928C713.313 453.694 717.608 459.992 718.883 464.256C719.581 466.563 718.716 467.201 716.455 466.685L561.245 413.446C555.857 408.134 550.834 392.351 563.4 394.582C579.244 397.405 608.383 412.626 625.396 418.773C654.11 429.138 683.476 437.728 711.872 448.928H711.887Z" fill="#FFFAF3"/>
<path d="M656.037 273.203C678.286 273.521 699.032 261.775 713.905 245.9L708.881 242.425C693.022 255.81 675.675 265.872 654.367 266.555C657.312 259.954 681.093 249.573 668.451 243.426L647.766 259.954C643.167 241.818 656.811 230.709 673.566 228.721C694.266 226.247 716.242 231.376 733.756 215.305C731.13 239.435 717.092 265.781 694.069 275.676C683.309 280.29 663.625 284.054 656.022 273.218L656.037 273.203Z" fill="#8FBFB0"/>
<path d="M81.9557 466.715C73.9122 486.217 64.7456 505.278 56.3682 524.643C50.4493 538.363 44.5608 560.672 37.9894 572.434C37.2002 573.86 28.9594 582.723 27.3659 580.811C26.7892 576.971 27.8971 573.602 28.9291 569.99C35.288 547.909 56.4289 498.464 67.2649 477.642C70.7403 470.964 73.1382 464.803 81.9405 466.7L81.9557 466.715Z" fill="#FFFAF3"/>
<path d="M106.769 255.006L101.67 262.29L9.16906 327.746C7.60588 326.213 23.6474 310.612 25.6963 308.715C40.721 294.844 63.8196 276.207 80.4531 264.218C88.4966 258.42 96.4491 249.982 106.769 254.99V255.006Z" fill="#FFFAF3"/>
<path d="M528.175 164.524C536.613 171.52 538.283 202.783 531.119 210.326C529.146 212.405 528.023 212.208 525.352 211.995C530.497 202.844 510.434 173.903 510.798 171.763C511.966 165.024 522.028 159.424 528.175 164.524Z" fill="#FFFAF3"/>
<path d="M639.494 259.953L646.111 278.134L620.417 287.544C614.301 286.891 611.023 265.265 614.666 259.953H639.479H639.494Z" fill="#2C5F52"/>
<path d="M482.327 341.025C479.671 344.395 461.778 364.306 459.198 362.5C453.203 354.517 461.231 352.499 457.513 344.334L482.327 341.025Z" fill="#A89FD8"/>
<path d="M702.355 218.628L659.36 223.545C668.223 208.05 688.59 212.846 702.355 218.628Z" fill="#B8E04A"/>
<path d="M404.562 418.728L396.868 415.692L378.109 403.87L390.478 397.223L404.562 418.728Z" fill="#A89FD8"/>
<path d="M502.177 188.837L501.98 195.242C480.065 201.464 498.065 184.633 502.177 188.837Z" fill="#FFFAF3"/>
<path d="M604.422 467.172C643.562 464.379 664.262 510.546 664.429 543.585C664.763 605.125 606.713 661.323 544.292 640.425C511.997 629.619 484.497 595.382 499.233 560.521C510.555 533.705 542.35 528.909 560.106 508.922C576.117 490.907 575.556 469.236 604.406 467.172H604.422ZM617.595 490.225C590.247 494.17 591.339 537.818 623.605 534.418C654.2 531.201 646.961 485.99 617.595 490.225ZM614.301 546.423C585.314 550.384 588.41 594.729 618.657 593.909C655.096 592.923 642.56 542.568 614.301 546.423ZM526.536 564.68C505.046 569.066 508.218 602.044 532.773 602.029C562.504 602.029 555.098 558.852 526.536 564.68ZM577.893 592.756C554.961 596.019 553.049 627.889 578.197 633.019C610.295 639.575 611.979 587.9 577.893 592.756Z" fill="#A89FD8"/>
<path d="M82.1225 147.36L115.04 142.534C117.408 144.614 99.4389 156.846 97.6329 159.016C88.0414 170.52 99.4996 179.565 100.152 192.131C90.5758 190.203 83.0483 181.401 72.8952 182.114C62.7421 182.828 59.5703 193.922 50.5554 197.093C51.9972 188.579 56.2921 177.865 52.756 169.366C51.1473 165.527 28.7164 156.481 32.3588 152.445C38.8847 150.639 54.0005 149.182 58.7811 144.947C63.6376 140.637 65.0034 125.825 65.4436 119.36C68.403 118.707 68.7065 120.24 70.1331 122.107C73.1229 126.038 81.0146 146.526 82.1529 147.36H82.1225Z" fill="#A89FD8"/>
<path d="M477.349 172.31C479.215 174.055 472.841 183.313 472.432 186.515C470.216 203.634 495.773 207.564 495.211 214.515C494.832 219.22 471.142 225.26 467.378 222.802L466.543 218.567L480.657 212.831C470.656 202.966 463.402 199.02 465.89 183.146C466.604 178.547 472.674 167.939 477.349 172.31Z" fill="#1E3D34"/>
<path d="M474.041 231.845C476.863 242.681 459.137 242.817 451.822 241.649C444.507 240.48 436.13 233.393 434.339 226.078C440.273 219.309 441.608 227.08 445.342 229.933C456.542 238.462 461.717 234.471 474.041 231.845Z" fill="#1E3D34"/>
<path d="M390.873 199.217C389.674 198.018 385.576 198.746 384.757 196.136L389.507 184.936L384.727 179.745L389.067 175.754C400.055 180.049 402.028 194.922 397.991 204.619H392.861C391.556 203.557 391.905 200.279 390.858 199.217H390.873Z" fill="#1E3D34"/>
<path d="M614.301 546.421C642.56 542.567 655.096 592.937 618.657 593.908C588.41 594.728 585.299 550.382 614.301 546.421ZM612.541 554.723C591.339 559.579 602.6 595.593 626.701 583.755C643.273 575.621 628.689 551.02 612.541 554.723Z" fill="#1E3D34"/>
<path d="M617.595 490.223C646.961 485.973 654.201 531.199 623.605 534.416C591.339 537.816 590.262 494.169 617.595 490.223ZM620.752 496.9C604.042 497.401 598.214 523.11 617.261 526.145C644.23 530.455 637.871 496.384 620.752 496.9Z" fill="#1E3D34"/>
<path d="M577.893 592.756C611.98 587.9 610.295 639.575 578.197 633.019C553.049 627.889 554.962 596.019 577.893 592.756ZM581.02 599.51C573.325 599.92 566.997 606.612 566.966 614.367C572.308 630.06 598.594 630.029 594.83 609.845C593.874 604.745 586.104 599.252 581.035 599.525L581.02 599.51Z" fill="#1E3D34"/>
<path d="M526.536 564.678C555.098 558.85 562.519 602.012 532.774 602.027C508.218 602.027 505.031 569.064 526.536 564.678ZM522.499 590.296C532.197 600.024 552.761 589.415 540.923 575.999C529.086 562.583 512.619 580.385 522.499 590.296Z" fill="#1E3D34"/>
<path d="M435.993 193.814L434.324 202.085L421.135 196.287C424.778 191.886 431.121 194.315 435.993 193.814Z" fill="#FFFAF3"/>
<path d="M612.541 554.723C628.704 551.02 643.273 575.62 626.701 583.755C602.6 595.593 591.34 559.579 612.541 554.723Z" fill="#B8E04A"/>
<path d="M620.751 496.902C637.87 496.386 644.214 530.472 617.261 526.147C598.229 523.097 604.042 497.388 620.751 496.902Z" fill="#B8E04A"/>
<path d="M581.019 599.507C586.088 599.249 593.874 604.728 594.815 609.827C598.579 630.027 572.293 630.057 566.951 614.35C566.996 606.595 573.325 599.902 581.004 599.492L581.019 599.507Z" fill="#B8E04A"/>
<path d="M522.499 590.296C512.619 580.371 529.389 562.933 540.923 576C552.457 589.067 532.197 600.039 522.499 590.296Z" fill="#B8E04A"/>
</svg>
