<svg width="784" height="686" viewBox="0 0 784 686" fill="none" xmlns="http://www.w3.org/2000/svg">
<path d="M381.491 205.731C379.384 205.137 378.762 201.631 379.186 199.595C386.892 196.682 394.018 195.862 402.29 196.484C403.294 192.878 401.343 193.882 400.325 192.963C396.776 189.81 384.319 183.277 387.641 177.989C391.275 172.206 399.179 184.918 403.831 184.154L400.82 174.299C408.695 165.97 408.964 181.369 414.606 184.154L421.577 165.674C430.838 167.158 420.516 181.764 422.34 184.154C425.098 182.684 440.199 167.752 442.362 175.713C443.96 181.595 428.533 190.446 424.857 193.628C423.443 194.858 420.955 195.551 423.839 197.276C424.772 197.841 443.522 203.95 444.611 203.992C447.82 204.105 457.096 201.065 458.552 198.025C462.639 189.456 457.676 153.217 455.441 142.569L440.043 116.355C439.266 115.987 436.409 132.615 429.212 125.644L431.56 108.648C430.98 107.885 419.399 121.374 415.299 113.272C412.499 107.758 430.782 100.094 433.087 95.5551L409.996 81.67C411.212 71.6026 427.728 84.7949 428.477 84.003L419.314 64.9004L423.104 62.3835C428.01 62.3977 436.084 77.8806 438.926 81.9952C439.86 83.3526 438.672 84.8373 442.348 84.003L449.277 59.3294L456.219 57.8164L450.068 84.003C451.185 85.1342 467.008 76.0848 468.634 81.9104C470.472 88.4853 460.942 89.4327 456.629 92.812C455.385 93.7877 453.801 92.7837 454.692 96.3186L474.785 105.029L474.728 110.204L465.481 110.967C470.925 120.497 479.055 126.804 481.968 137.635C484.131 145.666 485.149 159.381 485.573 167.936C486.252 181.665 484.654 195.565 485.828 209.294C499.289 225.131 519.113 233.996 534.822 247.358L527.696 164.359C524.924 151.18 507.32 144.323 505.68 130.862C504.125 118.193 512.17 104.35 513.245 91.7233C508.805 93.3493 507.448 104.152 501.721 102.498C493.944 100.264 509.441 84.6252 507.094 82.4901L489.603 85.4311L487.072 79.4359L507.094 73.2286L495.485 67.1345L496.263 63.1895L513.259 65.5367C515.041 63.6278 503.87 43.9737 510.982 42.4325C515.903 41.3579 519.099 58.9759 519.452 62.4542C522.959 63.0905 521.898 62.2563 522.874 60.4888C524.811 56.9681 528.94 38.3603 534.963 46.2502C538.23 50.5345 529.378 62.7795 530.227 68.6191L549.245 65.4377C555.89 74.4588 538.937 76.0424 533.309 78.6441C535.628 81.9811 562.522 91.1011 555.508 96.4318C550.743 100.052 541.454 91.8081 536.406 90.2103C538.244 100.235 533.253 111.971 535.204 121.459C535.996 125.262 547.52 144.959 551.012 144.139C556.258 131.738 582.855 91.4405 581.101 80.2984C580.748 78.0078 578.146 76.2687 578.288 74.2891C578.585 70.0755 586.701 62.6946 584.156 56.3035C578.132 59.7112 568.984 68.0535 562.593 61.6766C566.071 52.4292 576.86 50.9729 582.629 43.9879L561.023 40.156L559.51 33.1993L585.711 34.7123C582.459 29.8341 564.261 19.8232 565.675 13.9553C566.354 11.1274 569.238 11.7495 571.43 12.7959C576.266 15.1006 582.204 22.6795 587.238 25.4932C587.804 21.9301 578.627 1.7528 587.917 5.5705C593.106 7.70559 592.06 24.0227 598.027 27.0345C597.857 22.326 612.237 -5.13319 618.077 0.84787C621.216 6.97033 603.966 30.9794 605.775 33.1993C610.215 30.937 629.898 22.6653 632.825 26.9355L633.574 32.1813L605.761 43.1961C609.126 47.3531 627.947 63.3309 627.169 67.6435L622.63 71.1077L608.052 56.3176C602.99 56.0773 607.302 59.4566 607.302 60.1636V94.0705C607.302 108.097 584.764 143.121 578.203 157.444C566.17 183.673 565.406 209.69 568.786 238.167C578.896 226.219 589.911 213.989 598.663 201.023C601.35 197.049 607.783 188.806 608.561 184.621C610.031 176.83 603.555 162.407 606.115 149.922C607.882 141.24 618.572 129.971 621.159 121.812C622.771 116.736 613.51 122.731 611.94 121.063C609.056 112.763 623.464 110.685 625.797 104.873C627.225 101.31 615.376 101.352 613.821 99.1324L613.581 91.893L627.353 93.3211L624.284 81.0196C630.718 79.8177 631.213 86.124 635.045 88.7115C634.437 82.6174 635.879 71.0229 642.836 77.414L642.779 94.8764C669.037 85.5867 678.242 98.4962 647.403 104.152C649.905 109.454 667.807 112.07 665.883 118.758C663.706 126.295 647.276 111.886 645.862 113.385L648.817 130.876L646.371 133.209C644.589 133.718 642.27 131.385 640.488 133.308C637.547 136.461 630.449 154.616 630.449 158.83V188.113L634.14 190.305L664.356 171.16L647.346 168.049L647.403 162.69L667.453 162.662L658.432 147.773L662.264 142.739L672.868 153.414L673.632 144.167L679.613 144.365L682.102 156.497C686.655 152.312 691.01 147.928 695.45 143.644C697.062 142.089 697.33 140.321 700.596 141.113C710.438 143.743 686.697 160.739 685.976 164.203C691.123 164.896 716.603 158.024 713.591 167.922C711.88 173.549 696.892 171.669 692.141 171.937C696.015 179.841 708.105 182.344 707.553 191.945C700.794 195.734 687.051 175.769 684.449 178.088L682.172 202.79C675.032 207.159 675.3 196.314 674.424 191.959L574.258 299.844L575.007 424.627C589.232 419.805 601.548 407.97 616.592 403.799C672.034 388.429 706.804 440.704 738.307 476.35C741.87 480.379 751.344 483.151 741.913 489.047C687.319 486.756 632.853 483.844 578.062 484.734L578.712 541.929L466.569 546.624C462.483 548.023 460.786 562.927 455.116 567.974C450.111 572.443 417.179 586.851 420.771 569.558L400.226 569.671C395.008 580.191 381.802 583.316 371.522 587.996C372.964 598.756 380.557 597.611 389.324 597.272C398.826 596.904 428.166 591.531 434.755 597.936C441.344 604.341 426.497 611.652 421.874 614.423C406.207 623.826 389.112 631.617 373.063 640.369C372.611 642.363 374.661 642.207 376.132 642.646C381.773 644.343 404.142 646.096 396.295 656.644C393.439 660.476 381.604 662.455 376.711 663.247C303.991 675.068 186.235 669.426 111.817 661.904C102.132 660.928 52.1191 654.961 48.5559 648.061C43.0979 637.471 66.768 635.279 73.4703 634.374C87.4121 632.465 101.693 632.805 115.663 631.079C112.142 625.89 100.336 621.026 97.0694 616.572C88.2604 604.568 120.669 578.042 118.802 568.908C118.59 567.875 116.101 568.144 115.734 566.829C108.805 542.07 122.747 515.7 140.111 499.001L138.796 483.165L0.961579 487.817L0 482.599C28.1947 465.83 43.2819 433.789 77.3587 425.602C111.436 417.416 131.712 430.028 160.359 444.634C160.5 438.865 159.949 433.082 160.769 427.313C161.674 420.851 165.916 415.139 166.609 410.035C167.726 401.721 165.859 390.932 166.481 382.165C169.027 345.629 174.64 308.357 193.05 276.203C203.782 257.468 220.934 244.035 228.216 223.519C221.81 222.472 215.334 225.696 208.986 225.894C185.104 226.63 170.271 208.913 185.047 187.321C150.39 177.042 169.111 132.53 200.445 141.056C198.211 110.741 220.976 86.0674 251.956 90.3517C266.054 92.303 275.216 105.736 271.356 119.494C286.556 117.882 298.759 120.625 295.917 138.667C294.913 145.001 289.13 148.763 288.324 154.927C292.891 155.804 308.134 157.444 309.703 162.124C312.998 172.008 297.67 174.893 297.599 180.322C305.602 198.76 310.636 224.452 283.856 227.52C285.595 237.22 281.48 250.271 282.046 258.939C282.498 265.924 291.335 286.044 293.725 295.164C302.605 329.057 307.243 365.622 303.892 400.49C315.232 408.296 321.807 420.229 323.786 433.86C339.962 429.42 352.66 417.755 370.66 420.13C385.294 422.067 393.82 436.476 406.023 442.994C431.531 420.88 449.347 391.172 487.708 407.885L525.688 432.305L526.437 301.357C497.012 273.262 474.078 230.221 430.923 222.727L434.684 234.138C425.904 242.735 421.973 219.418 414.719 216.576V238.917C414.719 241.815 407.013 241.815 407.013 238.917V216.576C401.64 220.733 398.006 230.617 390.088 229.768C380.077 224.749 401.725 211.147 403.93 205.802H381.575L381.491 205.731ZM302.096 164.132L281.381 157.996L278.977 161.022C292.933 161.785 290.982 173.408 280.533 178.767C270.776 183.772 247.417 189.541 249.694 171.81L242.059 174.242L246.597 190.305L240.645 190.107C231.835 162.704 211.884 183.193 223.663 203.214C228.018 210.623 233.49 206.891 240.432 207.258C242.214 216.223 226.505 236.697 228.315 243.145C230.379 250.525 267.425 260.763 275.895 258.118C275.513 253.749 276.927 248.334 275.089 244.276C272.544 238.676 247.601 222.472 248.223 218.994C248.492 217.509 251.362 215.247 253.243 215.261C259.422 215.346 270.494 221.539 279.67 221.172C291.717 220.705 300.696 213.975 296.765 201.008L279.981 200.839L278.115 199.637L277.436 194.928L293.739 191.903C295.521 189.357 288.946 182.372 290.36 176.335C291.364 172.036 304.57 167.483 302.082 164.104L302.096 164.132ZM268.189 168.742C267.185 167.992 260.369 171.754 258.913 172.616C256.962 173.79 255.011 172.305 255.873 176.434L268.259 175.727C270.607 174.808 268.472 168.94 268.189 168.742ZM297.472 399.882C298.632 369.723 296.468 340.284 290.261 310.803C288.508 302.46 282.215 274.69 278.115 269.006C274.439 263.916 269.999 266.588 264.724 265.443C258.036 263.986 250.712 262.021 244.278 259.688C235.837 256.62 229.432 252.307 221.4 248.97C194.45 278.564 180.112 316.36 175.743 356.007C173.792 373.696 175.064 391.526 172.632 409.144L200.375 406.061C195.864 390.72 186.532 377.287 184.976 360.588C182.389 332.663 196.274 299.109 210.838 275.538C212.011 273.63 213.213 271.834 215.037 270.477L218.643 274.04C209.82 297.384 193.602 318.254 191.325 343.847C188.653 373.964 209 403.898 222.772 429.208L224.242 430.58C231.524 426.974 257.98 409.342 258.644 401.989C248.28 382.66 240.051 363.247 242.03 340.623C242.638 333.582 253.017 299.279 258.432 296.918C260.242 296.126 264.626 295.716 263.608 298.982C259.394 309.53 252.904 320.941 250.415 332.04C244.745 357.322 254.077 379.253 266.662 400.717L297.5 399.911L297.472 399.882ZM238.905 466.155C235.795 493.091 255.166 506.396 275.655 518.033C276.842 532.724 272.487 547.5 283.545 559.462C288.295 564.609 295.21 566.023 299.48 571.368C300.371 579.739 297.911 586.907 299.706 595.702C300.894 601.528 307.497 614.211 314.468 611.949L389.211 572.513C391.982 558.812 385.605 538.889 375.326 529.359C370.447 524.834 352.462 517.736 351.627 514.413C350.708 510.78 359.715 497.997 360.55 491.465C362.755 474.13 349.676 460.612 333.359 457.289C328.834 456.37 321.778 458.364 318.922 454.772C316.589 438.017 317.777 415.422 299.621 406.514L277.761 407.956C266.223 428.897 250.401 451.04 227.381 460.032L225.02 456.186L227.48 450.686L204.998 413.004C202.396 411.406 172.816 415.917 170.299 418.391C162.989 425.602 169.253 443.828 167.853 448.198C166.991 450.884 150.744 460.669 147.633 471.245C144.522 481.822 148.821 496.286 145.413 504.36C144.423 506.693 141.666 506.835 140.309 508.546C127.611 524.481 116.695 543.018 123.327 564.044C132.023 568.13 168.659 597.696 174.838 597.215C190.25 596.013 186.009 568.483 189.756 562.658C192.032 559.123 205.903 552.873 211.177 545.549C220.863 532.102 214.528 517.043 216.508 513.947C217.271 512.759 226.179 508.446 228.88 506.212C245.48 492.497 229.121 484.466 232.783 466.183H238.934L238.905 466.155ZM733.698 481.553C707.384 454.673 677.959 407.447 635.822 407.461C615.023 407.461 591.636 423.199 575.191 434.708L578.387 476.562L580.96 477.792L733.698 481.553ZM232.868 447.547C238.114 451.379 265.021 420.654 265.997 415.379C266.393 413.23 263.282 411.519 263.551 409.13L228.767 436.858L232.868 447.547ZM527.158 473.861C528.389 472.631 526.041 445.568 524.147 442.174C520.301 435.288 488.133 415.408 479.79 412.552C442.928 399.925 419.23 446.897 392.011 464.373L389.211 464.599L386.878 460.768C388.801 456.611 401.64 450.926 398.981 446.303C383.06 436.023 377.178 422.265 355.714 428.063C350.836 429.378 328.495 438.554 326.091 441.58C325.158 442.768 323.659 446.868 323.645 448.395C343.2 451.139 358.853 457.784 367.492 476.42C405.132 474.752 442.504 474.115 480.172 473.903C487.51 473.861 494.255 473.804 501.622 473.903C510.12 474.017 518.646 473.677 527.13 473.847L527.158 473.861ZM154.123 449.23C144.735 446.275 137.043 439.714 127.894 436.136C79.31 417.203 46.8874 445.794 16.9394 480.012C57.266 480.789 97.2957 475.176 137.693 477.014C141.511 466.226 146.757 457.926 154.123 449.23ZM527.144 520.083V482.331C525.787 480.125 524.076 480.21 521.828 479.941C498.016 477.141 471.617 481.214 447.82 481.624C421.322 482.076 394.725 480.28 368.383 483.108C368.737 493.911 364.169 503.257 359.121 512.349C370.546 515.799 375.354 523.929 388.405 520.069C381.561 511.741 387.26 504.926 396.875 504.883C404.906 504.855 413.362 518.061 421.676 521.483C425.946 523.237 429.877 522.869 433.992 524.608C438.559 524.933 434.925 522.968 433.61 521.879C428.307 517.51 423.57 515.502 429.509 507.697C443.437 505.336 454.791 516.464 467.913 518.415C473.441 519.235 483.368 519.843 489.306 520.154C501.834 520.805 514.602 519.546 527.13 520.098L527.144 520.083ZM243.501 501.603H240.475C240.715 508.729 225.755 514.512 224.242 516.973C222.489 519.815 223.931 534.322 220.679 542.693C214.246 559.25 201.605 558.784 195.878 567.31C193.644 570.633 194.789 581.506 193.559 586.455C191.141 596.14 178.698 608.456 168.037 603.281C159.553 621.762 180.918 629.864 194.987 634.12L331.393 632.564L322.188 616.289C312.078 620.956 309.222 621.988 301.12 613.546C291.717 603.762 290.021 587.869 292.721 575.058C271.512 563.973 264.951 544.799 269.08 521.625C260.483 516.223 247.686 511.416 243.501 501.617V501.603ZM396.125 537.051H389.96L391.516 541.66L396.125 537.051ZM436.211 543.216L422.284 542.297L402.318 553.962C412.853 552.562 431.871 554.471 436.226 543.202L436.211 543.216ZM172.632 632.564C170.37 628.973 166.029 627.714 163.371 624.123C152.752 609.87 142.84 594.91 130.27 581.704C128.488 579.838 126.098 575.977 123.27 577.801C122.252 578.466 111.11 595.151 109.371 597.88C108.523 599.223 107.052 599.958 108.551 601.782C122.464 607.523 140.422 626.597 153.02 631.376C159.341 633.78 166.142 632.154 172.632 632.564ZM426.95 601.782L416.246 602.616L345.293 641.062C346.481 642.038 347.583 644.173 349.082 644.371C352.801 644.866 407.578 614.282 415.666 609.729C419.314 607.664 424.476 605.105 426.964 601.768L426.95 601.782ZM399.208 603.309H372.229C371.395 603.309 364.876 606.632 362.218 607.169C351.401 609.404 340.669 612.033 329.838 614.098L341.56 633.992L399.208 603.295V603.309ZM181.102 640.284C172.915 640.567 164.629 640.284 156.442 640.284C148.877 640.284 110.375 607.042 104.069 607.919C99.8408 608.513 103.588 612.104 104.79 613.334C109.696 618.34 137.141 638.149 143.321 641.076C157.658 647.892 172.745 641.656 188.045 643.353C187.62 635.83 183.166 640.214 181.116 640.284H181.102Z" fill="#1E3D34"/>
<path d="M702.562 283.23C719.614 281.929 740.315 294.174 746.791 310.533C766.134 359.386 693.753 401.875 660.623 361.238C633.22 327.614 665.162 286.072 702.562 283.23ZM696.298 290.865C688.125 292.109 673.688 301.286 668.146 307.408C632.188 347.183 693.357 397.803 732.185 352.938C758.244 322.821 732.439 285.35 696.298 290.865Z" fill="#1E3D34"/>
<path d="M374.548 318.226V349.05C382.424 343.762 388.504 332.238 399.208 333.652C402.389 340.708 377.206 352.67 379.186 355.201C383.88 357.577 412.739 362.667 411.538 368.295C411 370.84 407.154 370.628 405.005 370.331C400.707 369.751 380.048 360.603 377.645 362.936L385.337 386.747C377.037 394.34 375.467 370.967 369.953 367.559C367.676 371.928 364.438 395.061 358.4 393.732C353.084 392.572 359.277 376.863 360.691 373.724C358.188 371.631 349.365 383.891 346.82 385.262C344.558 386.478 341.687 387.312 342.168 383.721C343.257 375.774 358.217 367.093 362.232 359.853C356.859 359.924 351.444 359.683 346.07 359.853C342.253 359.966 337.063 364.024 336.045 357.548C343.214 351.369 353.607 354.31 362.232 353.66C363.943 352.161 348.05 334.105 351.458 330.556C355.94 325.89 364.297 347.255 368.411 347.495V320.531C368.411 318.905 372.78 317.59 374.576 318.226H374.548Z" fill="#1E3D34"/>
<path d="M783.017 279.696C783.738 283.599 782.169 284.292 779.836 286.526C777.177 289.071 755.826 301.882 753.748 299.718C753.507 299.464 753.479 294.981 754.073 293.878C754.667 292.776 773.402 282.341 775.976 281.125C778.549 279.909 780.175 279.187 783.017 279.696Z" fill="#1E3D34"/>
<path d="M677.45 245.803C682.384 244.743 685.792 266.461 685.82 269.911C685.863 277.335 680.575 276.387 678.595 269.289C677.648 265.91 673.49 246.666 677.45 245.803Z" fill="#1E3D34"/>
<path d="M656.622 378.319C659.534 381.119 640.969 399.698 638.141 396.8C635.554 390.691 653.03 374.883 656.622 378.319Z" fill="#1E3D34"/>
<path d="M752.362 266.008L756.024 265.838L758.174 269.458L745.25 287.373L742.026 282.692L752.362 266.008Z" fill="#1E3D34"/>
<path d="M707.496 395.272V418.39L702.788 417.712C700.639 416.142 698.32 391.582 707.496 395.286V395.272Z" fill="#1E3D34"/>
<path d="M636.586 342.885L635.907 347.593C634.21 349.912 616.804 350.35 615.023 346.717C614.202 343.677 618.685 343.295 620.537 343.04C625.769 342.333 631.311 343.196 636.571 342.899L636.586 342.885Z" fill="#1E3D34"/>
<path d="M752.956 366.031L766.869 376.749C772.384 387.637 742.931 373.186 752.956 366.031Z" fill="#1E3D34"/>
<path d="M654.755 269.261C655.448 269.642 664.469 281.166 662.787 282.778C652.663 286.285 642.85 262.728 654.755 269.261Z" fill="#1E3D34"/>
<path d="M761.44 358.27C760.818 350.196 766.36 351.356 770.673 355.993C769.81 361.847 765.243 359.245 761.44 358.27Z" fill="#1E3D34"/>
<path d="M238.905 466.156H232.754C229.092 484.438 245.452 492.469 228.852 506.185C226.151 508.419 217.243 512.717 216.48 513.919C214.514 517.016 220.849 532.06 211.149 545.521C205.875 552.846 192.004 559.081 189.727 562.63C185.98 568.442 190.222 595.986 174.81 597.188C168.645 597.668 132.009 568.102 123.299 564.016C116.681 542.99 127.597 524.467 140.281 508.518C141.638 506.821 144.395 506.666 145.385 504.333C148.793 496.273 144.579 481.497 147.605 471.218C150.631 460.938 166.962 450.871 167.825 448.17C169.225 443.801 162.961 425.589 170.271 418.364C172.774 415.889 202.368 411.379 204.97 412.976L227.452 450.659L224.992 456.159L227.353 460.005C250.373 451.012 266.181 428.884 277.733 407.929L299.593 406.486C317.748 415.394 316.561 437.989 318.894 454.745C321.736 458.351 328.806 456.343 333.33 457.262C349.648 460.599 362.727 474.102 360.521 491.437C359.687 497.97 350.68 510.752 351.599 514.386C352.433 517.709 370.419 524.821 375.297 529.331C385.577 538.876 391.954 558.784 389.182 572.486L314.44 611.921C307.469 614.183 300.866 601.5 299.678 595.675C297.882 586.88 300.342 579.711 299.452 571.34C295.181 565.996 288.281 564.582 283.516 559.435C272.473 547.473 276.814 532.697 275.626 518.006C255.124 506.369 235.766 493.063 238.877 466.127L238.905 466.156Z" fill="#A89FD8"/>
<path d="M297.472 399.882L266.633 400.688C254.049 379.224 244.731 357.308 250.387 332.012C252.875 320.912 259.365 309.501 263.579 298.953C264.597 295.673 260.214 296.097 258.404 296.889C252.988 299.264 242.624 333.567 242.002 340.594C240.036 363.218 248.252 382.632 258.616 401.961C257.951 409.313 231.496 426.945 224.214 430.551L222.744 429.179C208.957 403.869 188.61 373.936 191.297 343.818C193.573 318.226 209.806 297.341 218.615 274.011L215.009 270.448C213.185 271.805 211.997 273.615 210.809 275.51C196.26 299.081 182.36 332.634 184.948 360.56C186.503 377.259 195.821 390.691 200.346 406.033L172.604 409.115C175.036 391.497 173.763 373.667 175.715 355.978C180.098 316.331 194.422 278.536 221.372 248.941C229.403 252.278 235.809 256.605 244.25 259.659C250.684 261.992 258.008 263.958 264.696 265.414C269.97 266.559 274.41 263.887 278.087 268.977C282.187 274.661 288.479 302.432 290.233 310.774C296.426 340.255 298.603 369.694 297.444 399.854L297.472 399.882Z" fill="#B8E04A"/>
<path d="M243.5 501.602C247.672 511.401 260.482 516.208 269.079 521.61C264.95 544.784 271.511 563.972 292.721 575.043C290.02 587.854 291.717 603.747 301.12 613.531C309.222 621.973 312.092 620.955 322.188 616.274L331.393 632.549L194.987 634.105C180.918 629.848 159.553 621.761 168.036 603.266C178.698 608.455 191.141 596.125 193.559 586.44C194.803 581.491 193.644 570.618 195.878 567.295C201.618 558.769 214.259 559.235 220.679 542.678C223.931 534.307 222.489 519.814 224.242 516.958C225.755 514.483 240.729 508.714 240.475 501.588H243.5V501.602Z" fill="#FFFAF3"/>
<path d="M527.158 473.86C518.674 473.69 510.148 474.03 501.65 473.917C494.283 473.818 487.538 473.874 480.2 473.917C442.532 474.115 405.16 474.765 367.52 476.433C358.881 457.797 343.228 451.152 323.673 448.409C323.673 446.896 325.172 442.781 326.119 441.593C328.523 438.553 350.878 429.391 355.742 428.076C377.206 422.279 383.102 436.037 399.009 446.316C401.668 450.94 388.829 456.624 386.906 460.781L389.239 464.613L392.039 464.387C419.258 446.91 442.956 399.938 479.818 412.565C488.161 415.421 520.329 435.301 524.175 442.187C526.069 445.567 528.416 472.644 527.186 473.874L527.158 473.86Z" fill="#8FBFB0"/>
<path d="M733.698 481.553L580.96 477.791L578.387 476.561L575.191 434.708C591.635 423.198 615.023 407.475 635.822 407.461C677.945 407.461 707.383 454.673 733.698 481.553Z" fill="#8FBFB0"/>
<path d="M527.144 520.084C514.617 519.546 501.848 520.791 489.321 520.14C483.382 519.829 473.47 519.235 467.927 518.401C454.805 516.45 443.451 505.322 429.523 507.683C423.585 515.488 428.322 517.496 433.624 521.865C434.939 522.94 438.573 524.905 434.006 524.594C429.905 522.855 425.96 523.237 421.69 521.469C413.362 518.048 404.92 504.841 396.889 504.869C387.274 504.898 381.576 511.727 388.419 520.055C375.368 523.916 370.561 515.785 359.136 512.335C364.184 503.243 368.737 493.883 368.397 483.094C394.74 480.266 421.336 482.062 447.834 481.61C471.617 481.2 498.016 477.127 521.842 479.927C524.09 480.196 525.801 480.111 527.159 482.317V520.07L527.144 520.084Z" fill="#FFFAF3"/>
<path d="M154.123 449.231C146.771 457.926 141.525 466.226 137.693 477.015C97.3098 475.177 57.266 480.79 16.9395 480.013C46.8875 445.795 79.31 417.204 127.894 436.137C137.043 439.7 144.735 446.275 154.123 449.231Z" fill="#8FBFB0"/>
<path d="M302.096 164.132C304.57 167.497 291.378 172.05 290.374 176.363C288.96 182.4 295.535 189.385 293.753 191.93L277.45 194.956L278.129 199.665L279.995 200.867L296.779 201.036C300.71 213.988 291.731 220.719 279.684 221.199C270.507 221.553 259.45 215.374 253.257 215.289C251.376 215.261 248.506 217.523 248.237 219.022C247.615 222.486 272.558 238.704 275.103 244.303C276.941 248.362 275.527 253.791 275.909 258.146C267.425 260.804 230.379 250.567 228.328 243.172C226.533 236.725 242.242 216.25 240.446 207.286C233.504 206.904 228.032 210.651 223.677 203.242C211.884 183.22 231.849 162.732 240.658 190.135L246.611 190.332L242.072 174.27L249.708 171.838C247.431 189.569 270.79 183.8 280.547 178.795C290.996 173.436 292.961 161.813 278.991 161.049L281.395 158.023L302.11 164.16L302.096 164.132ZM228.908 181.071C226.42 181.594 227.098 184.38 227.013 186.02C226.688 192.991 227.989 199.184 235.031 202.634C241.563 198.887 234.112 179.968 228.908 181.071Z" fill="#FFFAF3"/>
<path d="M172.632 632.564C166.142 632.154 159.341 633.78 153.02 631.376C140.422 626.597 122.464 607.522 108.551 601.782C107.038 599.958 108.508 599.222 109.371 597.879C111.11 595.15 122.238 578.465 123.27 577.801C126.084 575.977 128.488 579.823 130.27 581.703C142.84 594.896 152.752 609.855 163.371 624.122C166.043 627.714 170.37 628.972 172.632 632.564Z" fill="#2C5F52"/>
<path d="M399.208 603.309L341.56 634.006L329.838 614.111C340.669 612.047 351.415 609.417 362.218 607.183C364.876 606.631 371.395 603.323 372.229 603.323H399.208V603.309Z" fill="#2C5F52"/>
<path d="M426.95 601.781C424.476 605.104 419.315 607.677 415.652 609.742C407.579 614.295 352.801 644.865 349.068 644.384C347.569 644.186 346.467 642.051 345.279 641.075L416.232 602.63L426.936 601.795L426.95 601.781Z" fill="#FFFAF3"/>
<path d="M181.102 640.285C183.152 640.214 187.606 635.831 188.03 643.353C172.731 641.657 157.658 647.892 143.306 641.077C137.141 638.136 109.682 618.34 104.776 613.335C103.574 612.105 99.8267 608.513 104.054 607.919C110.361 607.043 148.863 640.285 156.428 640.285C164.629 640.285 172.901 640.568 181.088 640.285H181.102Z" fill="#FFFAF3"/>
<path d="M232.868 447.546L228.767 436.857L263.551 409.129C263.282 411.519 266.393 413.229 265.997 415.379C265.021 420.639 238.128 451.378 232.868 447.546Z" fill="#FFFAF3"/>
<path d="M436.211 543.216C431.87 554.485 412.838 552.576 402.304 553.976L422.27 542.311L436.197 543.23L436.211 543.216Z" fill="#FFFAF3"/>
<path d="M268.189 168.742C268.471 168.954 270.606 174.822 268.259 175.727L255.873 176.434C255.01 172.305 256.962 173.79 258.913 172.616C260.355 171.74 267.185 167.979 268.189 168.742Z" fill="#FFFAF3"/>
<path d="M396.125 537.051L391.516 541.66L389.96 537.051H396.125Z" fill="#FFFAF3"/>
<path d="M742.747 592.718C744.656 610.393 743.949 628.011 744.429 645.742C744.599 651.864 749.463 670.698 743.426 673.88C736.766 677.401 719.699 675.166 711.371 675.732C645.875 680.172 581.299 678.956 515.535 681.812C508.14 682.137 497.889 684.979 490.861 685.036C479.507 685.107 489.999 674.403 493.293 670.359C514.489 644.328 549.061 611.312 584.933 612.528C612.689 613.475 640.149 636.099 666.124 621.224C675.88 615.639 682.851 605.571 692.24 599.562C706.125 590.668 727.236 587.091 742.775 592.69L742.747 592.718ZM736.78 597.13C726.43 597.045 716.334 596.479 706.394 599.901C685.792 606.985 676.021 631.673 651.051 633.978C631.877 635.745 610.554 622.044 591.098 620.276C549.852 616.558 521.87 648.697 497.875 677.259L737.43 668.196L736.794 597.13H736.78Z" fill="#1E3D34"/>
<path d="M656.636 547.826C658.856 548.279 658.248 546.087 658.644 544.503C660.624 536.529 662.561 506.864 676.248 513.509C682.469 516.521 685.481 532.753 685.962 539.314C687.305 557.752 681.55 580.404 674.721 597.541C670.875 607.198 671.242 612.26 658.757 612.402C639.781 612.614 608.165 590.217 598.918 573.942C586.602 552.28 609.409 550.103 625.316 559.887C629.558 562.503 631.75 567.183 636.572 567.876C635.398 558.813 623.705 515.715 636.105 512.604C646.201 510.073 655.66 540.063 656.636 547.84V547.826ZM602.665 561.711C598.112 566.363 622.545 589.114 626.83 592.253C634.013 597.541 656.169 609.008 664.342 604.088C668.853 601.373 677.167 567.395 678.015 560.75C679.26 551.022 679.74 530.972 674.947 522.573C671.03 515.701 668.683 530.194 668.16 532.4C664.074 549.919 666.661 565.274 664.229 580.856C663.367 586.399 659.563 591.546 656.622 584.023C652.366 573.108 652.012 553.736 647.799 540.445C645.833 534.252 642.892 526.815 638.877 521.625C632.584 532.018 649.962 581.62 646.639 586.385C642.355 592.521 634.875 577.816 631.976 574.748C624.03 566.321 614.825 559.746 602.651 561.697L602.665 561.711Z" fill="#1E3D34"/>
<path d="M736.78 597.131L737.416 668.197L497.86 677.26C521.856 648.698 549.838 616.559 591.084 620.278C610.54 622.031 631.877 635.747 651.036 633.979C676.021 631.674 685.778 606.986 706.379 599.903C716.32 596.481 726.415 597.046 736.766 597.131H736.78Z" fill="#B8E04A"/>
<path d="M602.664 561.71C614.839 559.772 624.044 566.333 631.99 574.76C634.889 577.829 642.369 592.548 646.653 586.397C649.976 581.632 632.598 532.03 638.891 521.638C642.906 526.827 645.847 534.25 647.813 540.458C652.026 553.749 652.38 573.12 656.636 584.036C659.563 591.558 663.367 586.412 664.243 580.869C666.675 565.287 664.088 549.917 668.174 532.412C668.697 530.192 671.044 515.713 674.961 522.585C679.754 530.97 679.274 551.02 678.029 560.762C677.181 567.422 668.867 601.385 664.356 604.1C656.169 609.021 634.027 597.554 626.844 592.265C622.559 589.112 598.126 566.362 602.679 561.724L602.664 561.71Z" fill="#2C5F52"/>
<path d="M107.335 280.684C104.153 284.389 90.5369 291.727 89.6885 296.082C90.0561 302.728 101.509 320.657 94.0152 325.168C84.0184 329.749 72.8763 315.369 64.0248 316.627C59.1042 317.32 49.7719 331.658 42.0516 331.771L38.3894 329.904C33.4971 323.174 40.8922 310.109 39.86 302.29C-9.72809 271.663 35.5332 279.921 46.1805 269.641C49.7861 266.177 50.2669 250.68 53.4625 244.6C54.3674 242.875 53.6038 242.734 56.2055 242.536C66.4427 241.8 69.8362 261.539 75.4638 268.128C79.7906 270.772 125.448 259.588 107.307 280.67L107.335 280.684ZM101.721 273.544L73.4561 278.012L59.3586 251.967C55.7106 253.522 56.545 270.461 51.7233 275.156C46.5764 280.161 32.7053 280.204 26.2293 283.555C32.1397 290.921 43.0838 292.279 47.1843 301.258L44.724 322.863C50.2102 319.78 58.1709 309.586 64.1237 308.992C72.2682 308.186 80.95 318.338 89.4056 318.225C88.1047 309.317 80.7945 300.918 83.58 291.586C84.895 287.16 104.762 276.23 101.736 273.558L101.721 273.544Z" fill="#1E3D34"/>
<path d="M101.721 273.544C104.747 276.217 84.8806 287.147 83.5656 291.572C80.7942 300.905 88.0903 309.303 89.3912 318.211C80.9356 318.325 72.2538 308.172 64.1093 308.978C58.1564 309.572 50.1958 319.767 44.7096 322.849L47.1699 301.244C43.0694 292.265 32.1253 290.908 26.2148 283.541C32.6909 280.204 46.562 280.162 51.7089 275.142C56.5305 270.448 55.6961 253.523 59.3442 251.953L73.4417 277.998L101.707 273.53L101.721 273.544Z" fill="#B8E04A"/>
<path d="M696.298 290.866C732.439 285.337 758.244 322.821 732.185 352.938C693.357 397.804 632.188 347.184 668.146 307.409C673.674 301.286 688.125 292.124 696.298 290.866Z" fill="#B8E04A"/>
<path d="M228.909 181.072C234.112 179.969 241.564 198.888 235.031 202.635C227.989 199.185 226.703 193.006 227.014 186.021C227.085 184.395 226.42 181.609 228.909 181.072Z" fill="#1E3D34"/>
</svg>
