<svg width="613" height="694" viewBox="0 0 613 694" fill="none" xmlns="http://www.w3.org/2000/svg">
<path d="M388.046 220.472C393.075 226.973 395.363 236.112 400.072 242.598C416.236 264.87 458.434 253.603 479.453 279.198C494.656 297.724 483.869 324.398 497.148 336.176C510.019 347.589 564.723 355.897 568.425 363.418C569.446 365.473 569.854 367.864 568.484 369.875C565.189 374.729 482.718 381.099 470.678 384.101L483.315 408.778C495.734 409.42 503.664 412.131 511.943 421.46C516.389 426.459 515.602 432.129 523.648 431.648C526.388 431.488 542.057 427.931 543.398 426.619C547.873 422.261 547.232 400.645 554.403 398.604H558.543C564.169 400.266 574.139 424.652 578.235 427.071C584.576 430.832 615.841 426.867 611.804 443.251C609.428 452.885 589.998 461.602 588.555 466.208C585.669 475.449 599.603 502.954 580.261 497.735C569.577 494.864 557.537 476.178 548.733 488.48C548.004 491.497 553.776 501.409 554.505 506C557.027 522.077 550.628 533.417 540.731 545.107C576.486 582.116 562.609 631.12 505.661 611.268C510.689 646.541 486.814 664.922 453.216 657.328C451.933 661.496 455.665 682.019 452.181 682.821C428.947 682.558 405.683 682.879 382.435 682.821C311.289 682.588 239.501 684.482 167.947 685.896C148.897 694.525 132.877 695.75 113.2 688.287C97.1222 682.18 76.5409 667.283 73.4216 649.384C15.5546 662.473 -15.9736 587.844 38.4826 558.065C3.92272 530.415 22.6385 492.328 57.5045 477.052C41.2667 447.099 65.1132 422.013 93.3762 414.361C91.4521 385.792 112.34 358.768 140.195 353.915C130.341 331.366 136.886 282.128 158.458 268.135C167.321 262.392 171.315 267.056 177.305 266.109C179.594 265.745 183.515 261.328 187.436 260.541C191.357 259.754 198.309 261.445 199.067 261.007C199.971 260.483 202.085 256.285 203.717 254.579C212.521 245.411 222.885 240.135 227.578 227.614C217.083 220.005 208.279 209.817 198.951 200.663C188.733 190.649 178.282 184.367 169.361 175.447C121.829 127.944 143.168 54.233 195.948 21.2477C287.355 -35.8755 520.018 25.9702 482.237 161.323C470.066 204.919 429.661 219.553 388.075 220.501L388.046 220.472ZM219.605 210.924C219.284 204.701 202.551 186.83 215.684 185.504C223.599 184.702 241.834 194.745 250.798 194.949C255.491 195.051 262.969 190.139 268.173 188.769C281.685 185.213 293.856 184.95 307.368 189.119C311.697 190.46 319.728 196.407 322.06 196.509C324.728 196.625 328.416 193.973 331.768 193.564C341.549 192.398 354.375 195.722 363.223 199.978C370.701 203.578 378.688 213.344 385.612 214.16C393.221 215.064 413.292 210.633 421.44 208.534C488.461 191.276 494.044 116.181 453.158 68.7652C417.563 27.5007 324.072 3.20258 271.19 5.89914C201.05 9.47024 127.018 65.369 156.884 142.578C167.233 169.325 177.699 169.208 195.686 184.804C203.309 191.422 209.562 205.429 219.62 210.895L219.605 210.924ZM243.452 199.818L219.634 193.448L230.756 217.265L243.437 199.803L243.452 199.818ZM331.316 261.299C327.905 257.218 330.966 254.361 330.412 251.635C330.237 250.761 323.664 241.607 322.133 237.905C318.941 230.208 317.819 222.075 315.749 214.117C309.073 220.676 302.543 227.395 295.896 233.998C294.06 235.82 290.547 237.074 289.352 238.662C285.853 243.312 292.34 244.901 279.848 252.903C267.356 260.905 251.716 261.882 238.685 269.738C238.306 272.493 242.3 271.254 244.209 271.313C258.873 271.794 279.192 270.569 279.207 290.393C297.645 280.612 289.599 272.26 284.76 257.028C289.629 252.641 295.736 265.978 296.712 269.68C302.412 291.238 276.627 298.453 264.106 310.245C268.639 315.099 294.307 309.268 292.689 316.571C291.64 317.46 290.605 319.34 289.483 319.821C288.36 320.302 267.91 319.195 265.024 318.845C239.618 315.74 264.878 300.304 273.624 293.57C262.838 298.584 243.597 290.801 234.895 293.76C230.464 295.261 230.318 314.836 230.901 319.588C232.928 336.059 255.827 350.912 266.482 363.433C274.717 373.097 273.493 381.274 289.089 383.708C313.825 387.57 332.205 367.368 346.665 349.892C356.795 337.648 366.503 320.885 365.789 304.662C355.702 301.631 321.842 307.067 318.431 295.582C313.417 278.644 343.181 278.236 353.443 279.65C359.71 280.51 364.666 283.775 370.074 285.276C379.782 287.988 366.43 276.429 364.112 275.336C360.629 273.703 355.818 274.024 351.504 272.056C347.525 270.249 333.371 263.762 331.301 261.299H331.316ZM181.46 334.82L176.635 334.12C173.02 318.976 176.372 297.943 183.85 283.965C187.042 278.003 191.225 275 194.214 270.496C197.581 265.424 190.584 266.371 186.926 267.989C175.104 273.237 168.21 298.686 166.038 310.639C165.455 313.874 165.79 327.299 163.983 328.465C152.293 336.001 160.936 299.24 162 295.494C164.478 286.851 169.201 279.708 171.941 271.283C159.727 270.467 152.162 284.737 148.474 294.663C141.332 313.889 139.918 342.72 152.191 360.124C156.68 366.508 169.755 374.496 170.484 381.623C167.015 413.938 164.449 446.647 154.45 477.737C184.331 491.701 216.325 501.073 248.203 509.557C254.005 475.813 276.277 426.605 271.875 392.964C267.181 357.121 223.526 347.384 222.958 313.525C222.885 309.254 231.106 265.613 215.568 280.729C207.551 288.527 205.86 313.51 205.627 324.486C205.539 328.407 209.387 337.415 205.321 340.388C200.336 344.032 199.067 330.491 198.892 327.722C198.237 316.833 200.583 295.596 204.519 285.582C206.909 279.519 210.961 275.423 213.235 269.68C195.729 268.164 184.841 294.284 183.223 308.758C182.247 317.431 184.506 326.41 181.445 334.791L181.46 334.82ZM240.099 286.996L241.848 277.653L233.89 280L232.505 281.793L232.33 287.171L240.099 286.996ZM270.461 287.171C270.14 281.108 262.852 278.688 257.765 279.227V287.186L270.461 287.171ZM341.971 285.597C335.529 285.495 328.722 287.711 324.524 292.725C324.495 296.194 337.555 295.028 340.368 295.101L341.971 285.597ZM368.981 291.967L356.285 287.186L356.256 296.719C360.935 296.471 369.068 298.759 368.966 291.967H368.981ZM446.817 296.704C439.121 290.946 440.695 323.917 440.462 326.06C439.689 333.042 432.343 367.47 427.868 370.662C425.128 372.615 421.425 370.91 421.396 367.47C421.396 366.056 428.932 347.997 430.171 342.779C432.562 332.648 438.654 290.772 425.07 287.361C409.488 283.454 420.085 317.606 419.633 325.856C419.21 333.362 416.105 344.324 413.496 351.524C412.199 355.095 405.013 372.12 401.616 371.318L398.031 367.397C409.211 346.641 417.679 321.41 407.884 298.293C405.654 293.045 401.835 284.446 396.894 292.04C392.288 299.138 397.127 320.361 395.99 330.855C394.503 344.644 384.242 355.999 374.534 364.978L371.269 361.844C373.82 353.448 382.653 349.032 386.283 340.213C392.507 325.127 390.743 302.476 379.286 290.363C375.015 290.363 372.115 317.11 370.453 322.795C360.191 357.675 312.076 384.582 308.723 408.808C304.584 438.688 329.611 479.822 338.852 507.88L438.742 460.96L419.778 403.108L411.091 407.875L408.686 403.925C422.854 386.827 442.896 372.718 448.901 350.402C453.464 333.45 452.56 313.073 446.788 296.689L446.817 296.704ZM148.095 474.618C156.564 444.417 160.543 413.21 163.779 382.017L142.643 359.133C113.899 366.056 97.8364 391.695 99.7459 420.687C81.4092 423.66 57.8981 438.441 59.0642 459.459C59.4286 466.004 67.4599 478.277 64.7633 482.577C64.1365 483.568 48.3945 490.287 44.0799 493.698C29.3581 505.359 21.2537 524.424 33.0166 541.216C35.8006 545.195 48.0592 554.48 48.0738 557.992C48.0738 560.572 29.7808 573.516 25.8015 578.676C9.27221 600.117 19.3879 630.085 43.2344 640.594C56.2946 646.352 65.0841 644.166 78.1734 640.478C82.9689 644.049 80.5638 649.734 82.5898 655.243C89.907 675.067 129.642 689.526 149.392 684.774C164.945 681.028 183.996 659.878 182.917 643.684C182.771 641.542 176.562 634.735 182.363 633.496C183.835 633.175 199.884 640.288 204.912 640.959C255.987 647.911 272.283 598.732 278.216 558.255C243.204 536.231 207.143 513.754 170.367 494.398C162.321 490.156 127.907 471.659 121.683 471.411C107.705 470.843 103.798 504.324 105.562 514.702C107.18 524.22 116.042 531.77 116.304 541.288C108.142 542.644 109.395 532.907 103.055 533.403C94.3965 534.073 89.6447 539.86 84.2953 545.034C80.0682 549.13 75.7392 548.154 77.2405 542.775C79.2666 535.546 94.8047 527.762 102.02 526.989C94.7172 509.105 96.6121 486.599 109.133 471.368C122.354 455.29 132.426 471.164 148.08 474.574L148.095 474.618ZM497.687 632.68C498.81 626.354 497.687 614.431 497.687 607.259C497.687 599.272 516.87 607.405 520.893 607.886C537.976 609.868 554.782 605.219 553.281 585.06C552.115 569.26 539.521 556.083 530.979 543.737C530.979 539.875 544.214 531.464 546.182 523.928C548.558 514.804 547.596 501.161 541.182 493.771C506.156 506.088 524.843 478.32 527.598 459.853C526.519 455.247 513.43 449.416 511.17 444.402C508.401 438.266 514.8 434.942 506.317 425.468C498.839 417.116 487.965 415.396 477.223 415.644C474.774 406.315 470.969 395.237 464.308 388.051C460.883 384.349 447.342 374.044 442.809 377.557C441.322 378.708 426.367 396.36 426.163 397.657C425.449 401.986 442.838 455.232 445.388 457.054C447.094 458.278 451.088 454.037 455.636 457.01C466.422 464.065 477.572 484.836 478.68 497.59C479.365 505.461 475.94 523.302 476.975 527.5C477.208 528.432 482.441 531.216 484.234 533.345C491.259 541.667 492.702 554.757 490.589 565.208H485.721C484.059 555.573 484.438 544.553 477.675 536.712C475.43 534.117 470.459 532.732 469.381 529.059C467.719 523.404 472.485 511.524 472.383 503.974C472.194 488.611 464.06 471.601 450.84 463.453C418.831 478.626 385.772 491.745 354.652 508.726C345.367 513.784 330.441 521.392 322.352 527.266C311.93 534.831 312.659 559.304 322.133 568.312C329.115 574.944 336.082 573.574 344.405 576.242C346.592 578.341 345.994 593.718 347.146 598.893C351.883 620.101 372.071 633.044 393.483 630.129C401.675 629.006 412.039 619.794 418.335 621.354C421.834 622.214 429.544 637.577 435.827 642.081C451.89 653.596 493.3 657.357 497.687 632.65V632.68ZM302.149 403.283L278.434 390.442C280.46 401.884 278.288 413.691 276.947 425.22C285.081 429.374 293.52 429.753 302.266 426.955C299.467 418.894 300.677 411.388 302.164 403.283H302.149ZM583.482 490.506L580.625 464.634L604.137 440.496C603.014 435.671 577.127 435.044 572.259 434.214C569.242 424.564 564.111 415.498 557.26 407.933C554.651 407.875 552.625 424.36 551.284 427.348C546.182 438.645 528.662 436.604 518.342 439.694C515.937 442.318 530.119 449.999 531.81 452.419C539.871 463.992 526.869 478.262 527.875 490.506C537.903 489.369 547.523 475.463 557.26 476.076C562.711 476.411 581.514 492.721 583.468 490.506H583.482ZM303.709 435.015C293.418 437.172 284.789 436.327 275.257 431.736L248.291 531.056C254.894 535.866 285.183 549.626 285.941 556.637C286.291 559.873 278.113 591.998 276.379 597.289C262.867 638.656 232.315 657.196 189.447 644.588C188.966 657.852 181.459 669.455 173.545 679.527L445.359 675.679C447.56 674.148 447.619 657.867 446.117 655.651C445.01 654.033 440.52 653.684 438.378 652.27C428.116 645.565 422.038 639.53 415.712 628.832C378.907 652.372 335.222 626.66 338.604 582.859C311.536 580.92 301.508 551.973 311.697 529.336C315.676 520.489 332.22 516.043 332.147 510.694L303.724 435.03L303.709 435.015Z" fill="#1E3D34"/>
<path d="M46.4269 322.124C57.0675 317.824 61.9067 302.957 75.0252 304.662C81.1472 310.653 54.1813 325.55 51.2369 329.281C51.2369 332.386 80.8847 338.027 85.7094 340.854C88.3914 342.429 89.951 343.07 89.3242 346.729C87.7209 349.032 86.8172 349.061 84.2226 348.842C77.5905 348.259 51.9658 336.802 48.0303 339.63L59.0935 368.869L55.2018 371.376L43.4096 348.23C42.5496 346.554 44.2406 345.242 40.101 345.971C39.1098 347.02 34.3726 369.38 31.88 373.505C29.9414 376.711 24.4608 377.338 24.1838 375.297L28.9502 352.326C20.4524 352.909 14.5928 374.671 7.10071 364.264L30.5536 336.453C24.4753 336.613 18.3097 336.19 12.2169 336.365C8.79155 336.453 -2.16965 340.607 0.38116 332.488C1.59097 328.611 27.4051 328.261 32.1423 328.479C31.4864 324.398 10.8614 301.835 20.2484 299.911C24.9856 298.934 33.527 319.807 38.4975 322.139V289.576C38.4975 283.877 46.4415 285.218 46.4415 287.988V322.139L46.4269 322.124Z" fill="#1E3D34"/>
<path d="M588.249 198.199C592.024 191.056 583.307 183.171 577.667 179.41C554.826 164.208 527.656 176.306 519.931 201.362C536.591 197.222 560.234 200.021 568.484 217.177C582.52 246.343 537.058 256.823 518.604 230.499C517.292 228.619 513.299 216.083 510.412 218.853C505.704 230.266 506.244 240.644 511.695 251.692C513.896 256.153 527.685 269.577 515.922 268.149C509.217 267.332 499.932 243.676 499.393 236.898C498.052 220.325 506.725 217.643 511.549 206.492C513.43 202.134 513.488 196.931 515.879 191.756C527.554 166.496 560.073 157.721 582.681 174.352C588.803 178.856 602.446 193.316 592.257 199.365L588.234 198.17L588.249 198.199ZM560.773 234.289C572.055 220.252 548.223 205.793 535.104 206.113C505.836 206.799 525.805 234.566 541.751 237.554C546.955 238.53 557.143 238.807 560.773 234.289Z" fill="#1E3D34"/>
<path d="M76.4098 147.562L76.6139 153.713C36.3839 144.996 27.959 210.195 67.0667 215.661C62.6501 202.805 73.2469 182.471 85.7823 177.967C98.755 173.303 115.678 182.704 114.803 197.353C114.045 209.947 101.641 220.15 90.6069 224.115C86.7442 225.499 80.1267 223.43 81.3657 228.356C93.2452 233.691 108.171 238.968 120.298 231.592L122.543 239.376C106.932 245.264 90.7819 242.786 77.4302 233.108C74.2672 230.82 71.7165 226.286 68.5389 224.537C63.2332 221.622 57.0237 221.418 50.6394 217.016C20.2191 195.998 36.8357 136.528 76.3952 147.562H76.4098ZM75.1709 218.736C84.0914 218.284 93.8283 216.535 100.504 210.18C118.331 193.214 96.8309 174.644 81.3074 189.395C74.238 196.114 71.2062 209.874 75.1709 218.736Z" fill="#1E3D34"/>
<path d="M148.095 474.617C132.44 471.207 122.368 455.319 109.148 471.411C96.6413 486.642 94.7319 509.148 102.034 527.033C94.8193 527.805 79.2812 535.589 77.2552 542.818C75.7538 548.197 80.0829 549.173 84.3099 545.078C89.6593 539.903 94.4111 534.116 103.069 533.446C109.424 532.965 108.156 542.687 116.319 541.331C116.071 531.828 107.194 524.263 105.576 514.745C103.813 504.367 107.719 470.9 121.698 471.454C127.922 471.702 162.336 490.199 170.382 494.441C207.157 513.798 243.218 536.274 278.23 558.298C272.298 598.775 256.002 647.955 204.927 641.002C199.898 640.317 183.85 633.218 182.378 633.539C176.577 634.778 182.786 641.585 182.932 643.728C184.01 659.921 164.974 681.071 149.407 684.817C129.656 689.569 89.9217 675.109 82.6045 655.286C80.5784 649.776 82.969 644.092 78.188 640.521C65.0987 644.209 56.2946 646.38 43.249 640.637C19.388 630.128 9.28684 600.16 25.8161 578.719C29.7954 573.559 48.103 560.615 48.0884 558.035C48.0738 554.508 35.8152 545.223 33.0312 541.259C21.2683 524.453 29.3727 505.402 44.0946 493.741C48.4091 490.33 64.1657 483.611 64.7779 482.62C67.4599 478.32 59.4285 466.047 59.0786 459.502C57.9126 438.469 81.4384 423.689 99.7605 420.73C97.8511 391.739 113.914 366.085 142.658 359.176L163.793 382.06C160.557 413.253 156.578 444.445 148.109 474.661L148.095 474.617Z" fill="#B8E04A"/>
<path d="M497.688 632.68C493.3 657.386 451.875 653.625 435.827 642.11C429.544 637.606 421.834 622.243 418.335 621.383C412.039 619.824 401.675 629.036 393.483 630.158C372.071 633.073 351.898 620.13 347.146 598.922C345.98 593.733 346.592 578.37 344.405 576.271C336.068 573.603 329.101 574.974 322.133 568.341C312.673 559.334 311.93 534.861 322.352 527.296C330.442 521.421 345.368 513.813 354.652 508.755C385.772 491.774 418.831 478.656 450.84 463.482C464.061 471.615 472.194 488.64 472.384 504.003C472.471 511.554 467.719 523.448 469.381 529.088C470.46 532.762 475.43 534.146 477.675 536.741C484.438 544.568 484.044 555.587 485.721 565.237H490.589C492.703 554.771 491.274 541.697 484.234 533.359C482.441 531.231 477.208 528.447 476.975 527.514C475.94 523.316 479.365 505.475 478.68 497.604C477.558 484.85 466.407 464.08 455.636 457.025C451.088 454.051 447.094 458.278 445.389 457.069C442.838 455.247 425.449 402.001 426.163 397.672C426.381 396.374 441.322 378.723 442.809 377.571C447.342 374.059 460.883 384.349 464.308 388.066C470.97 395.267 474.774 406.33 477.223 415.658C487.98 415.411 498.839 417.131 506.317 425.483C514.8 434.942 508.401 438.28 511.17 444.417C513.43 449.416 526.519 455.247 527.598 459.867C524.843 478.335 506.156 506.102 541.183 493.785C547.596 501.176 548.558 514.819 546.182 523.943C544.214 531.493 530.979 539.889 530.979 543.752C539.506 556.112 552.1 569.274 553.281 585.075C554.768 605.248 537.976 609.898 520.893 607.901C516.87 607.434 497.688 599.286 497.688 607.274C497.688 614.445 498.81 626.354 497.688 632.694V632.68Z" fill="#B8E04A"/>
<path d="M219.605 210.924C209.548 205.444 203.295 191.436 195.671 184.833C177.684 169.237 167.219 169.354 156.87 142.607C127.003 65.3978 201.05 9.51358 271.175 5.9279C324.057 3.23135 417.534 27.5295 453.143 68.794C494.044 116.195 488.446 191.305 421.426 208.563C413.278 210.662 393.206 215.093 385.597 214.189C378.674 213.373 370.686 203.592 363.209 200.007C354.346 195.751 341.52 192.413 331.754 193.593C328.416 194.001 324.713 196.654 322.046 196.538C319.714 196.436 311.682 190.489 307.353 189.148C293.856 184.979 281.67 185.241 268.158 188.798C262.954 190.168 255.491 195.08 250.783 194.978C241.819 194.774 223.57 184.731 215.67 185.533C202.537 186.859 219.27 204.729 219.591 210.953L219.605 210.924ZM256.177 82.2622C247.504 82.6557 238.627 81.6791 229.969 82.2622C221.223 82.8598 212.259 91.2264 213.41 76.8982C214.693 60.7189 227.753 49.4517 244.166 52.1774C250.259 53.1831 254.107 63.0656 256.993 58.445C262.138 50.1804 243.772 44.146 237.913 44.146C223.045 44.146 208.338 59.1301 206.939 73.5166C206.443 78.5599 208.6 86.8536 208.148 89.2295C207.696 91.6054 199.272 97.5669 197.085 101.808C184.375 126.413 215.713 155.463 239.443 156.993L298.272 153.801C304.044 154.909 308.752 166.497 314.233 171.19C322.891 178.609 333.051 180.621 344.245 179.032C351.023 178.07 366.721 171.03 373.033 171.336C375.176 171.438 384.49 177.516 389.591 178.463C422.519 184.527 455.067 153.684 438.64 121.486C436.964 118.221 431.964 113.6 431.323 111.327C430.39 108.062 431.483 104.257 430.608 100.919C425.215 80.1195 403.934 63.2259 382.507 61.6371C377.158 61.2436 368.15 63.7216 365.395 62.9928C364.171 62.6575 354.478 54.5241 350.28 52.5564C339.042 47.309 325.267 45.6328 312.994 47.7025C307.863 48.5625 299.467 54.6699 296.727 54.6699C294.628 54.6699 290.124 51.4195 286.801 50.8656C268.595 47.8629 252.358 63.809 256.22 82.2767L256.177 82.2622Z" fill="#A89FD8"/>
<path d="M303.709 435.015L332.133 510.679C332.206 516.043 315.662 520.474 311.682 529.321C301.494 551.958 311.522 580.906 338.59 582.844C335.208 626.645 378.893 652.357 415.697 628.817C422.023 639.516 428.102 645.564 438.363 652.255C440.52 653.654 445.01 654.019 446.103 655.637C447.604 657.852 447.546 674.133 445.345 675.664L173.53 679.512C181.445 669.44 188.952 657.837 189.433 644.573C232.301 657.167 262.853 638.626 276.365 597.274C278.099 591.983 286.262 559.858 285.926 556.622C285.168 549.611 254.894 535.866 248.276 531.041L275.242 431.721C284.79 436.312 293.419 437.158 303.695 435L303.709 435.015Z" fill="#B8E04A"/>
<path d="M181.46 334.82C184.521 326.438 182.276 317.46 183.238 308.787C184.856 294.313 195.744 268.193 213.25 269.709C210.976 275.437 206.924 279.548 204.533 285.611C200.583 295.625 198.251 316.862 198.907 327.75C199.067 330.52 200.336 344.061 205.335 340.417C209.402 337.443 205.554 328.435 205.641 324.514C205.874 313.539 207.565 288.555 215.582 280.757C231.106 265.642 222.899 309.282 222.972 313.553C223.541 347.413 267.196 357.15 271.889 392.992C276.291 426.633 254.034 475.842 248.218 509.585C216.355 501.102 184.346 491.73 154.465 477.766C164.449 446.675 167.015 413.967 170.498 381.652C169.77 374.525 156.695 366.522 152.205 360.153C139.947 342.749 141.346 313.903 148.488 294.692C152.176 284.766 159.741 270.496 171.956 271.312C169.216 279.737 164.507 286.879 162.015 295.523C160.936 299.269 152.293 336.029 163.997 328.494C165.805 327.328 165.455 313.903 166.053 310.667C168.224 298.7 175.119 273.251 186.94 268.018C190.599 266.4 197.595 265.438 194.228 270.525C191.24 275.029 187.057 278.032 183.865 283.993C176.387 297.972 173.035 319.005 176.649 334.149L181.474 334.849L181.46 334.82Z" fill="#FFFAF3"/>
<path d="M446.817 296.705C452.589 313.103 453.493 333.48 448.931 350.417C442.911 372.748 422.869 386.857 408.715 403.94L411.12 407.89L419.808 403.124L438.771 460.976L338.881 507.896C329.64 479.837 304.613 438.704 308.753 408.823C312.105 384.598 360.235 357.691 370.482 322.811C372.159 317.126 375.045 290.364 379.315 290.379C390.772 302.492 392.521 325.143 386.312 340.229C382.682 349.033 373.849 353.464 371.299 361.859L374.564 364.993C384.286 356.015 394.533 344.66 396.02 330.871C397.157 320.376 392.303 299.154 396.923 292.055C401.865 284.461 405.684 293.061 407.914 298.308C417.709 321.426 409.226 346.642 398.06 367.413L401.646 371.334C405.042 372.136 412.228 355.125 413.525 351.54C416.135 344.339 419.239 333.378 419.662 325.871C420.114 317.621 409.517 283.47 425.099 287.376C438.684 290.787 432.577 332.664 430.201 342.794C428.976 348.012 421.426 366.072 421.426 367.486C421.455 370.926 425.143 372.631 427.897 370.678C432.372 367.486 439.719 333.057 440.491 326.076C440.724 323.918 439.15 290.962 446.846 296.72L446.817 296.705Z" fill="#FFFAF3"/>
<path d="M331.316 261.298C333.386 263.761 347.539 270.247 351.518 272.055C355.833 274.022 360.658 273.702 364.127 275.334C366.444 276.427 379.781 287.972 370.088 285.275C364.695 283.774 359.739 280.509 353.457 279.649C343.196 278.235 313.431 278.643 318.445 295.58C321.842 307.051 355.716 301.629 365.803 304.661C366.517 320.884 356.81 337.646 346.679 349.89C332.22 367.367 313.854 387.569 289.104 383.706C273.507 381.272 274.746 373.095 266.496 363.431C255.827 350.911 232.942 336.058 230.916 319.587C230.333 314.835 230.479 295.274 234.91 293.758C243.612 290.799 262.852 298.568 273.639 293.569C264.893 300.303 239.618 315.724 265.039 318.843C267.91 319.193 288.375 320.301 289.497 319.82C290.62 319.339 291.655 317.459 292.704 316.57C294.322 309.267 268.639 315.097 264.12 310.244C276.641 298.452 302.426 291.222 296.727 269.679C295.75 265.976 289.658 252.639 284.775 257.027C289.614 272.259 297.66 280.611 279.221 290.391C279.221 270.568 258.902 271.792 244.224 271.311C242.314 271.253 238.306 272.492 238.7 269.737C251.731 261.866 267.269 260.948 279.863 252.902C292.456 244.856 285.883 243.311 289.366 238.661C290.561 237.072 294.074 235.819 295.911 233.997C302.558 227.394 309.073 220.689 315.763 214.115C317.833 222.074 318.956 230.207 322.148 237.903C323.693 241.62 330.252 250.759 330.427 251.634C330.981 254.359 327.905 257.216 331.331 261.298H331.316ZM301.814 322.487C286.684 325.213 272.837 351.275 287.5 355.24C294.978 357.266 298.083 346.246 303.359 344.672C307.834 343.346 313.621 345.08 318.591 344.002C334.698 340.518 323.751 318.537 301.814 322.473V322.487Z" fill="#FFFAF3"/>
<path d="M583.482 490.506C581.514 492.722 562.726 476.412 557.274 476.076C547.538 475.464 537.917 489.37 527.889 490.506C526.883 478.263 539.885 463.993 531.825 452.42C530.134 449.985 515.951 442.304 518.356 439.695C528.676 436.605 546.197 438.66 551.298 427.349C552.639 424.375 554.665 407.89 557.274 407.934C564.125 415.499 569.256 424.565 572.273 434.214C577.142 435.045 603.029 435.672 604.151 440.496L580.64 464.634L583.497 490.506H583.482Z" fill="#A89FD8"/>
<path d="M302.15 403.283C300.663 411.387 299.468 418.894 302.252 426.954C293.506 429.767 285.067 429.388 276.933 425.22C278.274 413.675 280.446 401.869 278.42 390.441L302.135 403.283H302.15Z" fill="#FFFAF3"/>
<path d="M341.971 285.596L340.368 295.1C337.555 295.027 324.495 296.193 324.524 292.724C328.722 287.71 335.529 285.48 341.971 285.596Z" fill="#FFFAF3"/>
<path d="M368.981 291.966C369.083 298.759 360.949 296.47 356.271 296.718L356.3 287.186L368.995 291.966H368.981Z" fill="#FFFAF3"/>
<path d="M270.461 287.171H257.75L257.765 279.228C262.852 278.688 270.14 281.108 270.461 287.171Z" fill="#FFFAF3"/>
<path d="M240.099 286.996L232.33 287.171L232.505 281.778L233.89 279.985L241.848 277.639L240.099 286.996Z" fill="#FFFAF3"/>
<path d="M256.177 82.2615C252.314 63.7938 268.552 47.8331 286.757 50.8504C290.081 51.4042 294.585 54.6547 296.684 54.6547C299.424 54.6547 307.805 48.5474 312.95 47.6874C325.224 45.6176 339.012 47.2938 350.236 52.5411C354.434 54.5089 364.127 62.6423 365.351 62.9776C368.106 63.7209 377.114 61.2285 382.464 61.622C403.891 63.2108 425.186 80.1042 430.565 100.904C431.425 104.242 430.346 108.046 431.279 111.311C431.921 113.585 436.935 118.191 438.596 121.471C455.038 153.669 422.49 184.512 389.548 178.448C384.432 177.501 375.132 171.423 372.989 171.321C366.678 171.029 350.98 178.055 344.202 179.017C333.007 180.62 322.848 178.609 314.189 171.175C308.709 166.481 304.001 154.893 298.229 153.786L239.4 156.978C215.67 155.462 184.346 126.398 197.041 101.793C199.228 97.5517 207.638 91.7068 208.105 89.2143C208.571 86.7218 206.399 78.5446 206.895 73.5014C208.294 59.1149 223.016 44.1309 237.869 44.1309C243.729 44.1309 262.094 50.1653 256.949 58.4299C254.078 63.0504 250.215 53.1825 244.122 52.1621C227.71 49.4364 214.649 60.7037 213.367 76.883C212.23 91.2111 221.18 82.8445 229.925 82.2469C238.598 81.6493 247.46 82.6405 256.133 82.2469L256.177 82.2615ZM357.845 64.7995C342.117 56.1269 323.037 47.9643 305.837 58.0509C301.1 60.8349 306.843 62.7734 308.898 66.8401C310.793 70.5861 317.556 85.1476 317.848 88.1939C318.344 93.2955 312.499 98.8198 313.359 104.475C334.086 100.146 364.113 117.127 367.276 138.743C368.514 147.197 364.069 156.162 372.946 161.598C378.31 157.882 381.414 149.777 380.146 143.393C379.038 137.825 367.975 139.895 370.453 129.327C375.511 123.278 381.268 133.89 384.869 129.152C389.781 122.681 387.405 113.279 382.478 107.697C374.491 116.384 362.378 112.521 355.454 104.49L352.102 109.14C340.412 107.813 324.757 99.4612 328.386 85.3954C332.847 68.0354 353.997 81.008 357.845 64.7995ZM287.676 72.4519L291.13 60.8494C280.14 51.3751 258.99 66.3154 262.663 79.6815C264.062 84.7977 272.341 77.0141 275.709 75.5857C279.527 73.9532 283.74 73.5888 287.676 72.4519ZM300.634 66.3737C296.742 65.7323 295.649 70.076 294.308 72.6997L303.826 74.303L300.634 66.3737ZM423 104.475C420.828 81.1829 393.95 67.19 372.158 69.5513L391.253 109.242C395.247 109.621 396.588 105.073 400.334 103.251C408.409 99.33 415.26 101.487 423 104.475ZM365.774 72.7289L359.477 76.6935L370.555 83.8357L365.774 72.7289ZM287.85 80.7456L272.05 86.2262C279.834 89.535 284.775 91.0071 282.968 101.108C273.624 106.632 268.931 97.4933 261.001 96.6188C252.445 112.128 256.468 126.587 269.66 137.825C279.484 129.546 271.933 115.393 283.099 106.807C291.903 100.03 296.101 104.723 305.386 106.064L306.362 99.6506C295.882 97.3039 289.089 91.9108 287.865 80.7456H287.85ZM295.897 80.6727C293.346 85.7305 307.178 96.5168 308.607 89.3746C309.627 84.2293 300.459 79.9147 295.897 80.6727ZM351.49 101.298C350.775 97.2747 348.749 94.0243 347.7 89.8556C346.65 85.6869 350.455 80.0169 343.473 81.2995C326.842 84.3605 339.231 102.099 351.49 101.283V101.298ZM374.928 104.125C381.691 97.2019 360.775 85.7452 354.696 83.8357C350.863 92.3772 368.5 110.714 374.928 104.125ZM256.162 90.2054L243.452 88.6166C253.874 104.534 235.916 109.417 222.812 104.49C221.136 117.448 226.835 127.928 236.28 136.295C242.563 141.863 257.226 151.424 264.091 143.408C252.678 132.913 247.533 119.649 250.2 104.082C251.162 98.4409 254.879 95.2924 256.177 90.2054H256.162ZM238.671 98.1202C238.234 90.4532 228.672 92.7124 225.975 97.3476C229.983 99.2133 234.546 99.5778 238.671 98.1202ZM240.274 148.946C228.074 139.516 215.801 128.03 214.956 111.384C214.766 107.58 217.04 103.994 216.224 100.875C214.139 92.9166 207.216 98.7761 204.607 102.974C192.363 122.622 220.378 149.952 240.289 148.946H240.274ZM405.071 109.606C389.621 113.133 400.83 137.971 416.63 125.902C430.011 115.67 418.263 106.589 405.071 109.606ZM295.882 110.86C275.519 108.44 290.241 131.47 296.684 139.414C301.843 134.152 302.951 127.491 302.237 120.378C298.987 121.238 297.019 122.141 295.022 118.76L295.882 110.86ZM361.022 145.784C358.297 120.99 331.841 106.02 308.665 112.492C310.706 123.366 311.201 133.598 303.84 142.591C314.364 143.568 304.861 150.375 318.752 148.772C325.69 147.97 332.089 144.909 337.234 140.259C340.747 137.082 347.758 123.351 351.898 130.333C354.769 135.172 356.008 142.46 361.022 145.784ZM430.929 121.966L419.05 133.088C410.508 138.612 400.655 136.994 393.614 129.925C384.84 137.446 388.688 140.609 387.697 149.311C387.055 154.908 384.14 161.628 380.146 165.651C408.992 184.73 449.106 154.937 430.944 121.966H430.929ZM284.76 145.784C286.568 143.947 277.793 134.589 276.831 140.259C276.277 143.51 283.842 146.731 284.76 145.784ZM314.962 155.331C320.559 162.735 348.574 170.898 354.623 165.578C364.972 156.482 349.624 149.675 348.312 139.428C338.619 148.655 329.626 157.196 314.962 155.331Z" fill="#1E3D34"/>
<path d="M301.814 322.488C323.751 318.538 334.698 340.534 318.591 344.017C313.621 345.096 307.834 343.361 303.359 344.688C298.083 346.247 294.978 357.281 287.501 355.255C272.837 351.276 286.684 325.229 301.814 322.503V322.488ZM318.125 333.275C309.394 327.678 301.362 326.73 293.666 334.995C289.614 339.338 286.349 351.305 291.946 345.985C301.304 337.079 301.333 334.455 317.338 336.438L318.125 333.289V333.275Z" fill="#1E3D34"/>
<path d="M357.845 64.7998C354.011 81.0083 332.861 68.0503 328.386 85.3956C324.771 99.4614 340.412 107.813 352.102 109.14L355.454 104.49C362.378 112.507 374.49 116.384 382.478 107.697C387.405 113.279 389.781 122.681 384.869 129.153C381.268 133.89 375.511 123.278 370.453 129.327C367.975 139.91 379.038 137.825 380.146 143.393C381.414 149.778 378.309 157.867 372.945 161.599C364.069 156.162 368.514 147.183 367.275 138.744C364.112 117.142 334.086 100.146 313.358 104.476C312.498 98.82 318.343 93.2958 317.848 88.1942C317.556 85.1478 310.793 70.5864 308.898 66.8404C306.843 62.7737 301.1 60.8351 305.837 58.0511C323.037 47.9646 342.102 56.1125 357.845 64.7998Z" fill="#A89FD8"/>
<path d="M430.93 121.967C449.091 154.938 408.978 184.731 380.132 165.651C384.126 161.628 387.056 154.908 387.682 149.311C388.673 140.609 384.825 137.446 393.6 129.925C400.655 136.995 410.494 138.613 419.035 133.088L430.915 121.967H430.93Z" fill="#A89FD8"/>
<path d="M361.022 145.784C356.008 142.446 354.784 135.172 351.898 130.333C347.758 123.351 340.747 137.096 337.234 140.259C332.089 144.909 325.675 147.97 318.752 148.772C304.846 150.375 314.364 143.553 303.84 142.591C311.216 133.584 310.706 123.366 308.665 112.492C331.841 106.035 358.311 121.004 361.022 145.784Z" fill="#A89FD8"/>
<path d="M423 104.475C415.26 101.502 408.394 99.3301 400.334 103.251C396.588 105.073 395.247 109.621 391.253 109.242L372.158 69.5514C393.935 67.1901 420.828 81.1829 423 104.475Z" fill="#A89FD8"/>
<path d="M256.162 90.206C254.879 95.293 251.162 98.4414 250.186 104.082C247.518 119.649 252.663 132.914 264.076 143.408C257.211 151.425 242.548 141.863 236.265 136.295C226.835 127.929 221.121 117.463 222.797 104.49C235.916 109.417 253.873 104.534 243.437 88.6172L256.147 90.206H256.162Z" fill="#A89FD8"/>
<path d="M287.85 80.7461C289.074 91.9113 295.867 97.3043 306.347 99.6511L305.371 106.065C296.086 104.709 291.902 100.03 283.084 106.808C271.918 115.393 279.469 129.546 269.645 137.825C256.453 126.587 252.43 112.128 260.986 96.6192C268.901 97.4938 273.609 106.633 282.953 101.109C284.76 91.0075 279.833 89.5354 272.035 86.2267L287.835 80.7461H287.85Z" fill="#A89FD8"/>
<path d="M240.274 148.946C220.363 149.937 192.362 122.607 204.591 102.974C207.201 98.7757 214.124 92.9162 216.209 100.875C217.025 103.994 214.751 107.58 214.94 111.384C215.786 128.03 228.073 139.515 240.259 148.946H240.274Z" fill="#A89FD8"/>
<path d="M314.961 155.332C329.625 157.212 338.618 148.656 348.312 139.43C349.623 149.677 364.972 156.483 354.623 165.579C348.574 170.899 320.559 162.737 314.961 155.332Z" fill="#A89FD8"/>
<path d="M287.675 72.4522C283.74 73.5891 279.527 73.9535 275.708 75.586C272.326 77.029 264.062 84.8126 262.663 79.6818C258.989 66.3011 280.154 51.3754 291.13 60.8497L287.675 72.4522Z" fill="#A89FD8"/>
<path d="M405.071 109.607C418.262 106.59 430.011 115.671 416.63 125.903C400.829 137.972 389.62 113.135 405.071 109.607Z" fill="#A89FD8"/>
<path d="M295.882 110.861L295.022 118.761C297.019 122.142 298.986 121.239 302.237 120.379C302.951 127.492 301.843 134.153 296.683 139.415C290.241 131.486 275.519 108.441 295.882 110.861Z" fill="#A89FD8"/>
<path d="M374.928 104.126C368.485 110.714 350.862 92.3774 354.696 83.8359C360.774 85.7308 381.691 97.2021 374.928 104.126Z" fill="#A89FD8"/>
<path d="M351.49 101.298C339.231 102.114 326.842 84.3755 343.473 81.3146C350.44 80.0319 346.665 85.8186 347.7 89.8707C348.735 93.9228 350.775 97.2753 351.49 101.313V101.298Z" fill="#A89FD8"/>
<path d="M295.896 80.6737C300.459 79.9011 309.627 84.2303 308.607 89.3756C307.193 96.5324 293.345 85.7315 295.896 80.6737Z" fill="#A89FD8"/>
<path d="M238.67 98.1217C234.545 99.5647 229.983 99.2148 225.975 97.3491C228.657 92.714 238.219 90.4547 238.67 98.1217Z" fill="#A89FD8"/>
<path d="M365.774 72.7305L370.555 83.8373L359.478 76.6951L365.774 72.7305Z" fill="#A89FD8"/>
<path d="M300.634 66.375L303.826 74.3043L294.308 72.701C295.649 70.0773 296.742 65.7191 300.634 66.375Z" fill="#A89FD8"/>
<path d="M284.76 145.783C283.842 146.716 276.277 143.495 276.831 140.259C277.793 134.589 286.568 143.947 284.76 145.783Z" fill="#A89FD8"/>
<path d="M318.125 333.275L317.337 336.423C301.333 334.455 301.304 337.079 291.946 345.97C286.349 351.291 289.614 339.324 293.666 334.98C301.362 326.716 309.393 327.663 318.125 333.26V333.275Z" fill="#FFFAF3"/>
</svg>
