<?xml version="1.0" encoding="UTF-8"?>
<svg id="Layer_1" data-name="Layer 1" xmlns="http://www.w3.org/2000/svg" viewBox="0 0 1500 1500">
  <defs>
    <style>
      .cls-1 {
        fill: #263c34;
      }
    </style>
  </defs>
  <path class="cls-1" d="M757.7,1149.52v-.02c-.34-2.78-1.61-5.15-3.73-6.96-3.8-3.24-32.74,5.9-39.77,8.12-8.19,2.59-53.09,19.36-55.29,23.76l-1.69,85.24c-18.7,14.87-44.45,38.56-30.57,64.38,31.1,14.17,53.56-22.65,49.58-50.91-.87-6.17-4.67-9.38-5.54-15.52-1.8-12.86,1.33-29.93.41-43.34l73.48-29.23-3.15,48.2c-15.42,16.68-32.72,33.87-31.3,58.58.53,9.48,1.74,13.46,12,14.55,23.49,2.51,38.6-28.29,38.5-48.91-.05-10.54-4.51-15.01-5.57-23.62-3.27-27.03,3.51-57.15,2.63-84.32ZM744.21,1174.06l-73.38,29.37c0-6.99-6.27-16.51-.09-22.48,2.92-2.83,73.65-30.51,76.47-27.56l-3.01,20.67Z"/>
  <path class="cls-1" d="M1383.12,727.05l.02.02c-7.01-4.18-61.45-16.17-61.36-20.26,11.3-14.21,45.07-22.36,39.41-43.42-8.84-6.31-39.66,26.57-47.38,31.55v-59.27c0-4.96-13.18-4.96-13.18,0v56.64c-6.14,1.48-4.34-1.19-6.04-3.34-5.54-7.06-17.2-33.39-26.86-30.92-3.54.89-3.92,4.5-2.91,8.08,1.8,6.26,27.15,37.95,25.27,39.31-8.22-.27-53.22-.63-55.33,6.65-3.93,13.59,14.19,6.58,19.64,6.43,10.99-.29,22.07.44,33.05.15-4.63,8.61-48.56,43.71-39.53,52.65,10.53,6.87,30.26-31.86,36.88-26.3-3.57,6.53-13.51,38.22-7.88,42.11,13.13,9.11,23.65-44.67,26.36-52.68,14.43,9.69,9.54,44.67,31.56,42.14l-18.41-52.65c6.57-4.86,50.79,15.21,62.27,15.69,9.4.39,12.96-7.45,4.41-12.57Z"/>
  <path class="cls-1" d="M880.27,502.62h.02c17.35-42.69-3.97-75.13-13.25-116.01,6.12-6.77,38.93-25.87,40.11-32.73.05-.34-1.57-6.43-1.85-6.65-4.92-4.11-34.86,25.62-43.44,26.38l-4.12-19.27c4.87-8.44,48.38-31.14,49.89-33.77,2.67-4.69-.51-10.9-7.68-9.11-7.74,1.91-53.02,33.48-54.86,40.3l26.02,91.55c-12.38,3.55-20.94,11.97-27.49,22.7-32.77,53.47,14.94,89.98,36.66,36.62Z"/>
  <path class="cls-1" d="M707.07,344.03h-.03c28.91,4.5,49.87-40.08,48.09-63.99-.56-7.45-4.33-14.38-5.01-21.39-2.03-21.3-1.47-43.22-5.51-64.28,10.82,10.27,32.01,23.52,28.5,40.23-1.64,7.83-13.54,12.72-8.77,20.38,6.98,11.29,20.23-11.43,21.35-18.4,2.27-13.92-6.79-25.62-14.84-35.54-4.1-5.08-29.05-32.06-34.16-27.75-5.56,29.78,1.21,60.61,2.8,90.63-28.59,1.06-75.53,73.39-32.43,80.11Z"/>
  <path class="cls-1" d="M553.39,518.52l.03-.02c-8.63-.24-4.53-16.63-16.99-13.22-3.78,22.92,14.74,32.83,34.23,36.91-7.88,11.99-32.3,11.72-28.96,28.94,3.09,3.14,47.15-21.01,48.76-23.67,1.81-2.97,1.9-6.99,1.01-10.32l-26.09-8.17c4.5-11.27,11.88-5.39,21.08-5.22-2.58-11.36,4.02-10.56,10.5-17.14-2.15-3.77-7.2-4.76-9.64-7.47-1.97-2.17-1.5-11.12-7.4-9.64-2.22.56-11.34,29.47-26.52,29.03Z"/>
  <path class="cls-1" d="M504.58,532.74c-18,15.23-41.41-1.84-44.59,1.52v23.69c10.65,2.39,9.47-2.59,15.75-7.91-.6,8.53.51,14.77,10.57,13.2l3.97-13.15c18.19,24.13,13.08-1.02,15.68-5.25,3.21-5.25,19.11-9.28,14.62-23.76-10.22-2.27-10.82,7.3-15.99,11.65Z"/>
  <path class="cls-1" d="M453.39,515.79c6.57,1.86,30.38,0,39.51,0,5.64,0,17.63-5.15,16.04-13.27-1.91-9.69-36.01-8.82-44.78-7.57-15.54,2.2-24.76,16.87-10.77,20.84Z"/>
  <path class="cls-1" d="M570.21,458.64s0,0,0,0c0,0,0,0,0,.01v-.02Z"/>
  <path class="cls-1" d="M570.21,458.65c-7.83-18.33-16.41-4.07-23.35,5.7-7.33,10.35-15.27,22.53-13.1,35.63,22.08,3.63,26.84-26.6,36.44-41.33Z"/>
  <path class="cls-1" d="M504.8,571.15c-2.91,21.76,24.45,40.85,42.02,24.88l-2.5-7.83c-7.59.7-12.86,3.02-20.48-.56-9.11-4.3-6.57-19.07-19.05-16.49Z"/>
  <path class="cls-1" d="M402.48,540.35c4.03,8.49,12,48.88,16.6,49.05l6.46-2.66c-1.4-36.14-19.56-79.97-55.22-93.44l-5.16,5.37c14.43,12.16,28.98,24.13,37.32,41.68Z"/>
  <path class="cls-1" d="M425.71,602.72v-7.88c-13.18-.99-13.18,8.87,0,7.88Z"/>
  <path class="cls-1" d="M623.42,445.9c4.7,5.71,13.59,26.37,19.66,25.09,9.98-2.13-3.57-23.59-6.55-27.66-5.18-7.04-26.47-27.34-35.44-25l-4.09,6.53c9.76,6.46,18.82,11.8,26.41,21.03Z"/>
  <path class="cls-1" d="M1366.5,814.78v.02c-14.09-6.94-69.64,27.12-87.02,34.21-17.4,7.08-45.85,23.55-57.7,2.34-1.15-6.79,17.76-12.3,10-20.21-66.68-76.73-149.31-178.77-259.12-186.34-38.07-2.63-74.05,2.3-109.47,15.93-4.75-36.21-37.17-66.62-75.23-56.01l-2.62-1.81c.22-21.71-10.51-55.58-27.75-69.79-15.59-12.86-26.88,13.68-31.46,9.02,9.4-46.22,6.7-73.32-23.8-109.24-11.92-14.04-49.26-52.1-68.44-36.94-5.06,3.99-4.6,14.19-9.2,11.82-2.65-1.38-10-20.72-13.44-26.11-33.22-52.36-92.49-77.21-153.67-74.26,0,0-.67,0-1.86.1-4.89.31-18.98,1.74-37.66,7.88-5.25,1.57-10.22,3.43-14.93,5.59-46.01,20.98-65.99,68.39-74.58,122.76-1.76,11.24-.99,32.54-3.52,41.27-1.64,5.61-16.53,17.43-19.34,28.09-2.07,7.83.12,26.08-1.61,28.72-.77,1.21-6.68,1.35-9.42,3.72-5.27,4.54-5.3,16.58-8.62,19.05-2.34,1.74-7.51,1.02-10.4,2.78-10.81,6.62-7.85,14.62-12.21,22.05-22.55,38.34-18.94,46.1-28.67,87.25-13.85,58.67-49.82,41.41-84.53,73.56-9.86,9.14-36.79,47.26-38.11,59.57-1.37,13.03,8.92,13.03,19.75,14.21,28.84,3.22,58.15,1.4,87.04,2.56,20.84.85,42.86,5,64.47,2.73-1.76,21.9,2.33,42.62,13.61,61.48,3.49,5.8,11.98,10.01,12.81,16.39,1.38,10.52-4.12,34.74-2.8,50.02,8.16,92.85,133.29,105.59,196.27,59.2,9.25,14.36,17.49,29.49,29.12,42.16,78.08,85.14,201.76,35.95,270.22-35.54l57.91-67.23-23.01,156.77c4.67,9.96,11.92,3.65,20.4,3.94,3.98,15.28-11.61,56.16-2.87,67.42,10.45,13.49,144.08,33.24,167.62,35.29,15.63-3.5,109.64,17.77,79.11-18.49-14.14-16.8-79.59-42.47-83.14-64.62-.72-4.54,10.86-49.27,12.94-52.27,2.39-3.48,15.08-1.23,16.21-5.97-1.52-37.47,3.66-74.67,9.03-111.64,2.63-3.6,3.51-2.22,6.77-1.4,11.1,2.81,31.65,21.93,41.25,22.07,6.53.1,9.27-10.54,14.81-9.69,16.26,8.46,54.83,46.41,71.16,46.22,3.83-.05,8.46-1.98,12.14-3.31,55.82-54.78,115.61-115.43,159.41-180.49,4.6-6.82,15.69-19.17,4.15-24.83ZM746.31,542.31l-.03.05c15.87,8.46,24.45,31.94,27.03,48.83,1.01,6.67-2.22,28.75,4.31,30.03,24.82-12.3,53.43-4.76,66.68,20.21,3.42,6.5,10.87,23.09,5.76,28.5-3.81,4.06-24.12,14.65-31.68,21.06-28.77,24.29-55.53,64.09-68.51,98.83-6.39.82-4.19-.02-5.54-3.65-3.88-10.32-.94-20.52-3.49-30.77-19.11-4.13-28.86-2.85-39.78-20.84-12.5-20.6-10.31-38.03-10.31-60.85-4.62-6.58-34.47,6.79-47.44-13.13-9.1-13.92,2.1-21.76,11.64-32.9,26.55-30.97,61.79-57.24,91.37-85.36ZM535.76,941.82c-1.03-6.02-3.11-11.7-5.73-17.16-2.6-5.46-5.78-10.73-8.99-15.96-1.93-3.14-3.86-6.26-5.73-9.43l.03.02c7.39-3.82,13.64-8.03,18.87-12.5,2.62-2.25,4.96-4.57,7.06-6.94,3.15-3.58,5.69-7.28,7.73-11.07,15.47-29.13-1.25-63.92-38.57-86.01-.29-2.18-.26-4.81-.03-7.78.56-7.45,2.34-16.95,3.33-26.23.29-2.78.53-5.56.65-8.24.09-1.79.1-3.55.05-5.25-.05-1.69-.17-3.36-.38-4.93-.22-1.57-.51-3.07-.91-4.5-1.76-6.36-5.57-10.9-12.87-11.94-4.65-.68-8.79.63-12.17,1.45-.6.14-1.2.29-1.76.39-.29.05-.55.1-.82.12-.53.07-1.04.1-1.54.07-.74-.02-1.39-.19-1.98-.51-.39-.22-.79-.51-1.11-.89-.34-.39-.67-.85-.92-1.43-.15-.29-.27-.6-.39-.94-.24-.68-.43-1.47-.6-2.42-.17-.92-.31-1.98-.41-3.17-.19-2.39-.27-5.34-.15-8.97,9.25,1.72,18.94,2.61,28.67,2.54,4.89-.02,9.8-.31,14.65-.85s9.69-1.33,14.46-2.39c18.99-4.28,36.67-13.05,49.82-27.51l-4.55-32.1c15.92-5.87,28.53-18.35,38.01-31.94l22.33,17.21c-10.53,18.06-23.27,21.18-9.11,43.25,9.95,15.47,28.59,20.52,46.01,18.57-3.4,35.32,10.05,76.56,49.62,82.14l10.65,38.7-202.55,147.87c.07-1.31.09-2.59.07-3.87-.05-2.54-.29-5-.74-7.42ZM441.56,623.83l97.47,60.56c-7.66,1.3-22.21,3.17-35.8,3.24-2.39,0-4.75-.02-7.06-.14-1.52-.07-3.01-.19-4.46-.31-2.19-.22-4.26-.51-6.19-.87-4.5-.89-8.22-2.27-10.6-4.3-.74-.65-1.59-2.47-2.51-4.93-.46-1.23-.91-2.63-1.42-4.13-1.93-6-4.09-13.56-6.24-18.66-.53-1.28-1.06-2.39-1.59-3.29-.39-.65-.8-1.26-1.21-1.89-2.12-3.02-4.79-5.63-7.47-8.17-2.15-2.03-4.34-3.99-6.31-6.09v-.03c-2.94-3.17-5.44-6.62-6.6-10.97ZM439.75,499.62l-.02.07c2.19-1.14,4.33-2.35,6.38-3.65,2.05-1.31,4.05-2.68,6-4.16,1.93-1.48,3.8-3.02,5.57-4.64,1.8-1.62,3.5-3.31,5.18-5.08,6.62-7.04,12.14-15.13,16.53-23.91,1.11-2.2,2.12-4.42,3.09-6.7.97-2.27,1.86-4.57,2.68-6.91.41-1.16.8-2.34,1.18-3.53,1.15-3.53,2.1-7.13,2.91-10.78.26-1.21.53-2.42.75-3.65.46-2.44.87-4.88,1.2-7.35.17-1.23.32-2.47.44-3.7,6.53,4.96,13.1,9.98,20.04,14.39,5.2,3.29,10.62,6.21,16.36,8.49,1.91.75,3.88,1.43,5.88,2.03.87.27,1.86.51,2.97.72,1.11.22,2.34.46,3.64.65,1.74.29,3.62.53,5.59.8,2.44.31,4.96.58,7.44.85,1.49.17,2.96.31,4.36.46,6.58.68,11.98,1.26,12.84,1.81,2.99,2.06,4.62,13.1,8.55,16.46,10.93,9.28,21.75,4.33,34.6,24.71,25.65,40.66,18.07,84.59-7.69,114.92-1.57,1.84-3.2,3.63-4.89,5.37-.84.87-1.71,1.72-2.58,2.56-1.76,1.67-3.57,3.31-5.44,4.86-4.68,3.92-9.75,7.45-15.11,10.56-2.15,1.23-4.34,2.42-6.6,3.53-3.35,1.64-6.84,3.14-10.4,4.45-3.57,1.31-7.21,2.44-10.98,3.41-2.48.63-5.03,1.18-7.59,1.64-6.39,1.16-13.03,1.76-19.82,1.76-8.16,0-16.52-.87-25-2.73-1.52-.34-3.74-.99-6.38-1.91-1.61-.56-3.35-1.18-5.2-1.91-1.25-.48-2.53-.99-3.83-1.55-12.43-5.17-27.56-13.01-31.7-19.51-.65-1.04-1.01-2.03-1.06-2.97-.12-2.2.05-4.71.32-7.45.84-8.17,2.82-18.18,2.19-27.1-.31-4.69-.96-9.35-1.9-13.97-1.56-7.69-3.9-15.25-6.82-22.6-4.7-11.75-10.86-22.92-17.73-33.14,4.94-1.48,9.61-3.36,14-5.61ZM383.59,420.92c24.32-93.86,146.55-95.47,192.35-18.43-12.4-4.96-22.6-13.78-35.1-18.91-54.62-22.36-120.11-9.33-157.25,37.34ZM661.07,410.97l-.02-.03c16.72,8.75,48.42,46.88,53.8,64.76,7.98,26.4.19,55.53-3.21,82.27l-64.52,57.94-18.45-24.95c6.53-15.54,12.24-31.6,10.51-48.81,15.16-4.74,10.26,28.57,23.75,19.78,5.71-3.72-7.16-24.39-2.56-31.52,6.12-12.26,14.65-23.67,13.1-38.32l5.3,10.52,7.95-1.21,2.44-5.1c-.12-13.15-9.4-20.91-14.14-30.8-2.97-6.21-3.98-12.93-7.3-19.05-6.72-12.33-28.09-27.41-28.62-37.28-.56-10.4,18.17-.22,21.97,1.79ZM662.86,474.96v.02c1.37,17.53-4.77,47.62-23.68,53.96-1.66-30.02-16.58-64.5-47.02-74.19l-8.26-41.63c35.92-8.12,76.12,25.65,78.95,61.84ZM339.35,461.57c.22-3.34.51-6.74.89-10.15.36-3.43.8-6.87,1.33-10.35.51-3.46,1.11-6.94,1.8-10.42,3.69-19.15,9.85-38.29,19.22-54.92,1.69-3.02,3.5-5.97,5.4-8.8,1.91-2.85,3.95-5.58,6.07-8.22,2.14-2.64,4.41-5.15,6.77-7.54,7.11-7.16,15.3-13.18,24.65-17.62.62-.29,1.44-.65,2.43-1.06.65-.26,1.4-.58,2.21-.89,1.59-.63,3.45-1.33,5.47-2.05,4.05-1.45,8.72-3.04,13.18-4.4.56-.17,1.11-.34,1.68-.51,3.86-1.14,7.51-2.08,10.45-2.59.41-.07.82-.15,1.2-.19.39-.05.75-.1,1.09-.15,0,0,20.69-2.32,31.83-.99.07,0,.12,0,.19.02.63,0,1.27-.02,1.91-.02,4.72.05,9.45.31,14.17.77,14.14,1.43,28.16,4.79,41.37,9.98,4.41,1.74,8.74,3.68,12.94,5.8,8.41,4.28,16.4,9.36,23.71,15.23,4.89,3.92,43.22,43.05,38.25,47.36-5.08-.99-17.27,1.76-20.67-.41-1.11-.7-1.69-6.07-3.4-8.34-7.57-10.06-15.73-18.66-24.28-25.94-2.86-2.42-5.73-4.69-8.65-6.82-2.92-2.13-5.9-4.11-8.91-5.92-7.49-4.57-15.15-8.24-22.91-11.05-3.09-1.11-6.21-2.1-9.35-2.95-1.57-.41-3.13-.82-4.7-1.16-4.68-1.06-9.4-1.81-14.09-2.3-4.68-.46-9.39-.63-14.02-.53-26.33.65-51.5,10.49-71.48,27.95-4.72,4.11-9.11,8.63-13.2,13.56-2.03,2.47-4,5.03-5.85,7.69-10.26,14.62-17.73,32.2-21.34,52.31-.65,3.65-1.18,7.4-1.56,11.22-.79,7.64-1.04,15.59-.7,23.86l-23.7,5.27c.05-4.76.24-9.69.58-14.72ZM316.29,518.3c.36-1.33.8-2.66,1.3-3.96.51-1.31,1.11-2.59,1.76-3.87v.05c2.67-5.08,6.41-9.82,10.91-13.93,2.26-2.05,4.67-3.96,7.21-5.66,5.09-3.41,10.7-6.04,16.43-7.61,5.73-1.57,11.57-2.05,17.15-1.16,51.68,8.32,85.35,95.1,59.89,139.03-17.95-4.45-26.65-12.67-32.48-23.01-.72-1.31-1.4-2.61-2.05-3.99-.32-.68-.65-1.38-.94-2.05-.94-2.08-1.81-4.23-2.67-6.43-.84-2.2-1.69-4.45-2.56-6.77-2-5.37-4.17-10.98-6.98-16.71-.74-1.45-1.44-2.8-2.14-4.06-1.04-1.86-2.05-3.5-3.06-4.96-.68-.97-1.37-1.84-2.03-2.66-.68-.8-1.35-1.52-2.03-2.18-.68-.65-1.38-1.23-2.09-1.76-1.06-.8-2.14-1.45-3.25-2.01-.75-.36-1.54-.7-2.33-.97-.8-.29-1.62-.53-2.46-.75-2.56-.65-5.37-1.04-8.58-1.43-.53-.07-1.09-.12-1.66-.19-2.77-.31-5.85-.65-9.3-1.14-1.37-.19-2.8-.41-4.31-.68-6.45-3.96-20.41,6.99-23.73,2.66-.22-.29-.39-.8-.53-1.5-1.03-4.88-.44-18.71.53-22.31ZM286.16,622.81l.1-.1c-.53-1.6-1.04-3.19-1.56-4.76-.5-1.57-.96-3.12-1.42-4.62-.46-1.5-.91-2.97-1.28-4.38-.6-2.13-1.16-4.11-1.62-5.95-.77-3.05-1.35-5.61-1.62-7.5-1.4-9.43-2.29-17.96,9.92-16.49.05,1.21.34,3.02.87,5.32.27,1.14.58,2.42.94,3.75.56,2.03,1.21,4.25,1.97,6.62.5,1.57,1.04,3.21,1.61,4.88.87,2.49,1.8,5.08,2.79,7.64.65,1.72,1.35,3.43,2.05,5.13,1.06,2.54,2.15,5.03,3.27,7.4,2.26,4.71,4.56,8.94,6.82,12.01,1.5,2.05,2.97,3.6,4.34,4.47.7.43,1.39.7,2.02.77.31.02.62,0,.94-.05,1.16-.24,1.91-.85,2.36-1.74.22-.44.39-.97.46-1.52.09-.58.1-1.21.05-1.89-.14-2.06-.82-4.54-1.78-7.23-.32-.89-.68-1.79-1.04-2.71-.36-.92-.79-1.84-1.2-2.78-.41-.92-.82-1.86-1.25-2.76-.63-1.38-1.28-2.71-1.91-3.99-.63-1.28-1.23-2.49-1.78-3.63-.74-1.5-1.39-2.83-1.86-3.92-.24-.53-.44-1.02-.58-1.43-1.33-3.77-3.3-8.85-5.03-14.36-3.83-12.11-6.63-26.37.41-33.84,1.9-2.03,3.5-3.05,4.86-3.34.26-.05.53-.07.77-.07.51,0,.97.12,1.39.31.21.1.41.24.6.39.99.75,1.74,2.06,2.38,3.67.24.65.46,1.33.65,2.06.38,1.45.7,3.02.96,4.62.75,4.76.97,9.6,1.38,11.1.39,1.43,1.21,3.84,2.27,6.86.89,2.51,1.98,5.44,3.16,8.56.24.63.48,1.26.73,1.89.48,1.28.99,2.56,1.49,3.89.77,1.96,1.56,3.94,2.34,5.9.8,1.96,1.57,3.87,2.36,5.73,3.09,7.4,5.92,13.56,7.32,15.4.31.41.68.75,1.04,1.02,1.13.8,2.51.94,3.97.92.48,0,.96-.05,1.47-.1.48-.05.99-.1,1.47-.15s.97-.07,1.45-.1c.48,0,.94,0,1.38.05.84-.82.67-2.9-.21-5.85-.34-1.19-.79-2.51-1.35-3.94-1.09-2.88-2.51-6.21-4.09-9.84-4.74-10.88-10.86-24.27-13.27-35.08-.6-2.71-.97-5.25-1.04-7.54,0-.77,0-1.5.05-2.22.26-3.55,1.47-6.38,3.97-8.1,1.76-1.21,3.59-1.81,5.28-1.84,2.74-.07,5.18,1.31,6.69,3.92.55.97.99,2.13,1.25,3.43.27,1.3.53,2.66.77,4.04.99,5.51,1.85,11.51,2.94,17.55.82,4.54,1.76,9.14,2.96,13.59,3.25,11.87,8.45,22.75,18.41,29.27,1.88-1.43,2.94-2.42,3.45-3.63.5-1.21.43-2.66.07-5-2.34-15.25-22.53-36.55-15.35-57.2,1.59-1.62,3.27-1.84,4.96-1.02.68.31,1.35.8,2.03,1.43,1.71,1.57,3.4,3.99,5.08,6.91.65,1.16,1.32,2.42,1.95,3.7.65,1.31,1.28,2.66,1.88,4.04.62,1.38,1.21,2.78,1.8,4.21.29.7.58,1.43.85,2.13,3.64,9.19,6.39,18.06,7.32,19.92,3.21,6.65,6.38,11.56,9.59,15.38.67.77,1.28,1.5,1.97,2.2.87.92,1.74,1.76,2.63,2.56,1.33,1.18,2.68,2.25,4.09,3.21.92.65,1.86,1.26,2.82,1.86.5.29.97.58,1.45.87.97.56,1.97,1.11,2.97,1.67,6.6,3.53,14.1,6.77,23.25,13.08,8.26,5.68,14.52,12.47,19.35,20.06.96,1.52,1.86,3.07,2.72,4.64,1.73,3.17,3.2,6.45,4.53,9.81,1.95,5.08,3.52,10.35,4.79,15.79.84,3.63,1.54,7.3,2.17,11.05.63,3.72,1.13,7.52,1.59,11.31.22,1.91.44,3.82.67,5.73l-95.79,7.78c-3.35-.85-7.63-15.71-10.89-20.57-4.62-6.87-10.91-11.92-17.8-16.22-2.75-1.72-5.61-3.34-8.48-4.88-2.89-1.55-5.78-3.05-8.63-4.57-2.15-1.14-4.24-2.3-6.31-3.48-2.09-1.18-4.09-2.39-6.02-3.7-2.56-1.72-4.99-3.55-7.18-5.58-2.21-2.03-4.19-4.23-5.88-6.7-3.56-5.17-9.01-19.07-13.63-32.76-.27-.8-.53-1.62-.8-2.42ZM507.48,994.69c-1.8,1.98-3.69,3.87-5.73,5.71v-.07c-3.16,2.85-6.55,5.51-10.16,7.98-3.52,2.42-7.25,4.64-11.11,6.67-2.56,1.35-5.2,2.61-7.88,3.8-1.33.58-2.68,1.16-4.03,1.72-6.45,2.61-13.06,4.71-19.66,6.36-.68.17-1.35.34-2,.48-2.48.58-4.94,1.09-7.39,1.55-7.1,1.28-14.33,1.96-21.54,1.98h-.14c-1.81,0-3.62,0-5.44-.1-3.62-.14-7.21-.43-10.79-.87-3.57-.46-7.1-1.04-10.58-1.81-6.96-1.5-13.76-3.63-20.19-6.33-30.55-12.91-53.39-39.28-53.43-77.84,0-2.22.24-4.64.67-7.18.12-.85.27-1.72.43-2.56.31-1.74.7-3.5,1.09-5.29,1.95-8.92,4.38-18.16,3.4-24.32-.1-.6-.43-1.43-.97-2.39-.26-.48-.58-1.02-.94-1.55-3.18-5-9.69-12.72-14.43-19.53-2.1-3.02-3.86-5.87-4.86-8.22-8.77-20.89-6.48-43.2,2.22-63.77,1.88-4.45,6.67-11.05,10.58-16.58,1.32-1.84,2.51-3.55,3.49-5.05.31-.48.63-.97.89-1.4.8-1.31,1.32-2.35,1.4-2.97.21-1.45.09-3.31-.29-5.51-.94-5.83-3.45-13.78-5.21-21.23-.44-1.86-.85-3.67-1.16-5.44-.48-2.63-.75-5.08-.75-7.23,0-.58.05-1.28.15-2.08.17-1.6.48-3.6.94-5.9.12-.58.24-1.16.36-1.76.27-1.21.56-2.47.87-3.77.31-1.3.68-2.66,1.06-4.04.39-1.38.8-2.78,1.21-4.18.43-1.4.89-2.83,1.35-4.21.72-2.1,1.47-4.18,2.29-6.16.53-1.33,1.09-2.61,1.68-3.84,1.13-2.47,2.34-4.72,3.61-6.63.62-.94,1.25-1.79,1.9-2.54.32-.36.65-.73.97-1.04,1.62-1.6,3.32-2.44,4.98-2.3,1.97.17,4.43,1.48,7.01,3.48,2.58,2.01,5.3,4.72,7.74,7.71,1.2,1.5,2.36,3.05,3.39,4.62.5.77.99,1.57,1.44,2.34.91,1.57,1.66,3.12,2.24,4.57.84,2.2,1.25,4.25,1.06,5.97l-29.03,3.94c-10.19,13.59-5.28,31.14,3.93,45.91,2.21,3.5,4.62,6.87,7.16,9.98,1.01,1.23,2.02,2.44,3.06,3.6,1.56,1.74,3.13,3.39,4.67,4.88.51.51,1.04.99,1.56,1.47-.56,1.11-1.13,2.25-1.62,3.39-1.04,2.3-2.03,4.67-2.92,7.11-2.72,7.3-4.77,15.11-5.98,23.09-1.2,7.98-1.59,16.12-1.01,24.05.29,3.96.82,7.88,1.64,11.7,1.86,8.92,5.18,17.31,10.14,24.61.7,1.04,1.45,2.05,2.22,3.07,1.54,1.98,3.23,3.89,5.09,5.68,3.68,3.58,7.93,6.7,12.82,9.28,3.64-3.34,3.66-6.77,1.95-10.32-.31-.65-.68-1.3-1.11-1.96-.22-.34-.43-.65-.65-.99-4.19-5.97-11.73-12.4-14.65-19.53-1.45-3.55-2.58-7.13-3.44-10.68-1.28-5.34-1.93-10.66-2.05-15.96-.05-1.77-.02-3.53.02-5.29.67-17.62,6.57-35.03,13.11-51.9-.92-.85-1.85-1.69-2.75-2.54-1.85-1.69-3.64-3.41-5.4-5.17-1.74-1.74-3.44-3.53-5.04-5.34-1.62-1.81-3.15-3.7-4.6-5.61-1.42-1.93-2.75-3.92-3.97-5.95-3.59-6.17-6.07-12.93-6.72-20.69-.1-1.28-.17-2.61-.17-3.96l168.68-13.2-4.77,61.38c.72.65,1.45,1.3,2.22,1.96,1.5,1.31,3.04,2.61,4.65,3.94,3.95,3.29,8.12,6.62,12.17,10.08,1.62,1.38,3.25,2.78,4.82,4.18,2.36,2.13,4.63,4.28,6.79,6.5,10.04,10.37,16.99,22.02,14.5,36.24-.89,5.08-2.99,10.47-6.6,16.25-1.23,1.96-2.46,3.65-3.71,5.13-3.76,4.4-7.63,6.74-11.61,8.49-.68.29-1.33.56-2.02.82-2.02.77-4.05,1.48-6.16,2.25-2.79,1.04-5.64,2.2-8.57,3.96-3.59,2.15-4.41,5.56-3.57,9.67.22,1.04.53,2.1.94,3.22.21.56.44,1.11.68,1.69.48,1.13,1.04,2.32,1.66,3.53,1.86,3.6,4.29,7.42,6.77,11.22.82,1.26,1.68,2.54,2.5,3.8,1.23,1.89,2.45,3.75,3.57,5.56.75,1.21,1.47,2.39,2.15,3.55.34.58.65,1.14.97,1.72.6,1.11,1.15,2.2,1.61,3.26.7,1.57,1.21,3.02,1.49,4.38.99,4.86,1.44,9.52,1.44,14-.02,12.81-3.98,24.03-10.53,33.65-.63.94-1.3,1.86-1.98,2.75-1.28,1.69-2.63,3.36-4.09,4.96ZM1041.56,1176.62l-.05.02c3.81,2.88,7.83,5.46,11.93,7.93,2.05,1.23,4.12,2.44,6.19,3.63,4.15,2.37,8.33,4.71,12.45,7.13,2.07,1.21,4.09,2.44,6.12,3.72,4.02,2.56,7.93,5.29,11.63,8.36-24.96,1.23-50.35.36-75.62-1.98-25.29-2.32-50.45-6.12-75.06-10.73-3.61-.68-13.61-2.73-25.24-5.41-2.1-.48-4.29-.99-6.48-1.52-3.28-.77-6.63-1.6-9.93-2.44-3.32-.85-6.58-1.69-9.69-2.56-7.28-2.01-13.81-4.04-18.33-5.87-3.86-1.57-6.29-3.02-6.46-4.18l8.1-53.59h137.05c-.63,1.55-1.11,3.07-1.45,4.57-.53,2.25-.77,4.47-.77,6.62,0,.73.02,1.43.09,2.15.17,2.13.58,4.21,1.21,6.24,4.74,15.59,21.53,28.33,34.31,37.93ZM1034.29,1071.47l-.09-.03-178.92,31.89,19.9-167.36-2.72-3.24-2.7-3.24c-1.45,1.45-2.87,2.93-4.31,4.42-4.27,4.45-8.51,8.97-12.67,13.56-8.34,9.19-16.48,18.59-24.65,27.97-4.09,4.69-8.17,9.38-12.31,14.04-1.37,1.55-2.75,3.09-4.14,4.64-8.29,9.26-16.74,18.32-25.59,26.98-10.29,10.08-21.13,19.61-32.77,28.14-8.33,6.09-17.1,11.7-26.38,16.68-.75.39-1.52.84-2.36,1.35-.85.48-1.73,1.02-2.62,1.55-1.81,1.06-3.74,2.15-5.68,3.05-.97.43-1.97.85-2.94,1.16-.48.17-.96.29-1.44.41-.97.24-1.91.39-2.86.39-.46,0-.92,0-1.38-.05-.89-.1-1.76-.34-2.62-.75,6.86-5,13.28-10.32,19.37-15.88,10.16-9.31,19.34-19.36,27.83-29.98,1.68-2.13,3.35-4.28,4.99-6.43,3.27-4.33,6.43-8.75,9.52-13.22,6.14-8.97,11.92-18.23,17.46-27.66,15.18-25.94,28.5-53.23,42.49-79.82,2.53-4.84,5.09-9.64,7.71-14.41,1.3-2.39,2.6-4.76,3.93-7.13,2.63-4.74,5.32-9.43,8.07-14.07,1.38-2.32,2.77-4.62,4.17-6.91,37.8-61.62,121.01-136.2,176.56-45.81,48.33,78.64,6.75,174.95,7.13,259.76ZM1103,973.09l-41.61-23.11c2.27-51.56,3.03-114.18-32.13-156.29-66.13-79.32-146.33-11.51-186.63,53.31-18.86,30.31-35.36,64.96-53.58,98.73-2.8,5.2-5.66,10.37-8.57,15.52-1.45,2.56-2.91,5.13-4.39,7.66-2.96,5.1-5.98,10.13-9.08,15.11-1.54,2.49-3.11,4.96-4.68,7.42-3.16,4.91-6.43,9.74-9.8,14.48-5.03,7.11-10.29,14-15.8,20.6-14.75,17.62-31.41,33.26-50.91,45.71-10.98,7.01-21.88,11.87-32.62,14.84-8.58,2.39-17.03,3.55-25.32,3.65-4.14.05-8.26-.17-12.31-.65-2.03-.24-4.03-.53-6.05-.89-3.98-.73-7.95-1.69-11.81-2.9-11.66-3.63-22.76-9.31-33.1-16.63-3.45-2.44-6.82-5.08-10.1-7.86-8.19-6.99-15.83-15.01-22.77-23.84-6.96-8.82-13.22-18.45-18.74-28.6l8.75-12.52,21.29-30.41,211.28-158.92c40.72-103.61,115.35-161.63,230.64-148.65,94.56,10.64,171.38,106.61,230.95,172.41l-2.12,10.11-110.78,131.72ZM1171.96,1000.44c-.62-.15-1.25-.41-1.91-.68-.34-.14-.68-.29-1.04-.46-1.33-.58-2.74-1.4-4.21-2.39-3.68-2.47-7.73-5.97-11.95-9.62-1.68-1.47-3.4-2.95-5.11-4.4-.87-.72-1.74-1.45-2.62-2.15-1.74-1.4-3.49-2.76-5.21-3.99-3.47-2.47-6.89-4.42-10.16-5.49l.89-7.61,117.51-90.63,60.42-22.58-131.82,148.91c-1.83,1.33-3.25,1.5-4.79,1.09ZM1334.94,853.46v-.02c-8.16,10.78-16.29,21.61-24.55,32.37-12.38,16.15-24.96,32.1-38.16,47.48-6.6,7.69-13.35,15.21-20.29,22.53-1.69,1.79-3.57,3.77-5.61,5.87-2.02,2.1-4.17,4.33-6.43,6.65-1.13,1.16-2.27,2.34-3.45,3.53-7.03,7.13-14.75,14.75-21.97,21.44-6.05,5.56-11.75,10.49-16.46,13.97-.91.65-1.69,1.3-2.44,1.89-2.24,1.72-4.22,2.8-8.22,1.93-.12-.1-.17-.27-.17-.51,0-.46.29-1.14.74-1.98.21-.41.48-.9.79-1.38,2.48-3.96,7.39-10.03,10.86-14.17,1.74-2.08,3.13-3.68,3.66-4.28,39.67-45.16,82.36-98.32,122.45-141.06,7.37-7.86,16.04-18.95,27.7-18.37-6.17,7.95-12.31,16-18.41,24.1Z"/>
</svg>