<svg width="712" height="754" viewBox="0 0 712 754" fill="none" xmlns="http://www.w3.org/2000/svg">
<path d="M448.884 72.7582C451.142 73.1918 450.963 73.0722 452.279 71.7115C458.245 65.4612 462.073 57.1622 470.058 50.7324C508.114 20.0637 553.736 56.2201 548.338 100.451C579.111 83.7487 604.322 112.01 598.849 142.828C611.619 141.079 652.726 148.869 656.868 162.312C661.967 178.925 630.042 174.648 620.89 175.426C562.558 180.405 504.271 184.637 445.639 185.205C452.712 193.055 462.342 198.453 470.118 205.541C518.746 249.877 543.373 314.638 564.397 375.378L558.461 381.493C565.923 398.869 563.381 415.377 556.801 432.393C555.381 436.057 550.685 440.872 550.371 443.713C550.057 446.554 557.25 464.557 557.923 471.391C559.119 483.368 558.356 494.987 554.02 506.202C551.239 513.424 545.975 518.702 543.448 525.76C565.31 533.954 582.461 551.913 591.014 573.565C594.827 583.24 597.638 588.069 590.715 597.475C602.707 600.959 614.61 605.25 626.05 610.245C631.732 612.727 656 623.643 658.333 626.858C665.002 636.024 658.722 651.799 655.507 661.444C650.259 677.204 636.591 714.692 624.135 724.591C613.863 732.77 579.171 737.166 565.519 737.689C508.458 739.917 568.39 704.778 571.156 689.481C571.635 686.864 568.569 666.109 567.523 664.674C566.596 663.403 557.444 660.487 555.65 657.795L546.498 677.13C542.94 679.403 528.734 671.522 525.445 668.427C522.155 665.332 517.773 655.478 516.966 654.895C515.516 653.848 498.544 650.917 492.368 647.717C487.404 645.145 484.009 639.478 478.237 639.867C483.86 651.814 482.724 664.464 467.561 666.005C464.6 666.304 461.505 664.793 459.441 665.047C456.765 665.376 452.219 670.371 446.492 670.55C442.365 670.685 429.774 669.653 425.393 669.055C413.729 667.44 406.313 657.078 401.274 647.478C400.376 645.758 400.227 642.005 399.823 641.661C397.147 639.328 385.423 646.954 382.447 628.876C380.384 616.361 387.531 597.385 387.95 583.359C388.518 564.892 386.694 534.134 385.304 515.173C385.124 512.751 386.575 510.463 382.881 511.136L346.261 541.252C368.661 575.509 362.306 615.104 339.861 647.582C339.173 652.412 344.945 654.207 345.917 658.992C349.207 675.261 333.55 667.126 331.502 669.19L334.852 727.133C333.641 742.699 324.728 743.072 311.121 744.134C283.607 746.302 250.845 748.097 223.181 749.114C210.322 749.592 176.408 753.315 192.109 732.725C201.17 720.837 229.925 705.002 242.62 693.593C249.753 687.178 255.361 683.201 253.282 672.449C250.172 672.255 246.344 673.317 243.488 671.642C239.256 669.145 223.63 640.689 221.806 634.663C214.553 610.738 223.884 583.105 248.378 574.657C240.393 562.246 231.226 549.52 229.252 534.343C225.574 506.172 249.394 470.299 276.175 461.163C277.117 455.75 274.411 450.636 274.575 445.373C274.83 437.059 280.257 428.924 281.065 420.76C282.336 407.915 279.375 379.011 277.521 365.464C277.103 362.443 275.891 359.512 276.011 356.387L260.504 354.772C256.003 348.342 266.306 293.091 269.312 282.295C262.957 277.106 256.183 273.159 250.8 266.684C245.716 260.553 240.976 247.006 237.746 243.881C235.518 241.727 231.226 241.398 227.981 238.976C211.503 226.685 206.838 202.371 212.505 183.56C196.041 187.493 133.612 192.113 125.687 175.022C116.206 154.551 142.18 134.619 157.627 126.23C174.314 117.169 192.228 112.787 210.89 110.201C192.004 56.3248 262.06 23.6973 302.149 53.1847C321.708 -32.7952 442.051 -5.96945 448.884 72.7433V72.7582ZM413.385 171.777C419.397 177.878 442.918 178.985 451.382 178.73C511 177.026 571.096 172.286 630.64 167.276C633.96 166.992 649.391 168.577 649.331 164.809C642.154 156.361 628.128 152.787 617.407 151.127C610.334 150.035 598.835 152.847 593.048 147.793C588.472 143.785 592.524 137.938 592.449 132.226C592.21 115.3 581.085 102.619 563.739 103.621C556.502 104.04 547.171 110.948 542.446 107.105C537.975 94.6793 542.042 84.5711 536.046 71.1283C524.129 44.3774 493.46 39.8017 471.673 58.8668C462.671 66.7471 459.187 80.0104 448.271 83.9131C443.232 82.9562 436.937 54.0221 433.198 46.8446C404.324 -8.55633 314.575 -6.9115 307.039 62.1715C306.68 65.521 309.61 77.4983 304.601 77.5881C299.592 77.6778 301.551 63.9509 299.009 60.3921C296.885 57.4164 285.013 51.6744 281.065 50.6427C261.446 45.5287 233.245 54.1566 221.582 71.2031C211.473 85.9767 216.736 100.705 219.039 116.735C199.092 118.126 178.457 122.941 160.887 132.75C151.481 137.998 123.369 158.992 132.52 171.448C143.062 185.788 205.492 179.628 222.314 173.751C215.899 161.609 230.105 157.213 232.886 152.577C235.667 147.942 233.305 134.439 241.14 123.359C268.534 84.601 342.582 100.347 369.827 133.019C372.115 135.755 377.976 146.522 378.679 146.94C380.533 148.047 391.21 142.828 401.647 151.725C409.049 158.035 410.484 168.846 413.385 171.777ZM277.715 217.788C277.401 219.313 269.626 226.475 267.428 227.881C260.594 232.247 251.458 234.565 243.473 235.731C256.392 285.121 311.375 296.814 347.816 262.617C358.941 252.18 370.051 227.971 371.517 213.003C371.771 210.386 364.997 203.642 367.375 201.489C371.622 197.631 374.896 205.227 376.287 206.349C378.859 208.412 385.408 213.661 388.13 214.244C412.01 219.298 413.4 160.189 390.238 153.28C380.563 150.394 371.651 162.536 370.605 171.284C370.171 174.872 372.264 187.553 368.182 188.42C364.593 188.868 364.489 183.904 362.5 182.738C358.896 180.614 351.704 182.633 346.246 177.803C342.866 174.828 343.435 171.523 340.324 168.951L321.768 173.796C323.263 177.07 330.216 176.398 332.803 179.074C334.837 181.183 333.027 184.412 333.85 186.835C336.706 190.199 348.399 186.536 347.038 195.149C344.631 210.266 298.426 222.647 304.512 203.044C306.919 195.298 317.013 193.728 321.768 188.45C316.474 188.794 296.945 182.678 295.988 177.609L298.411 172.061L313.618 172.121L307.069 162.372C304.527 160.607 296.153 171.672 292.997 173.527C285.745 177.773 271.017 180.211 267.876 170.626L265.559 170.536C259.652 178.461 252.25 185.833 241.888 186.835C245.895 191.306 238.344 212.36 240.288 214.513C245.536 213.885 249.484 209.982 254.598 208.457C263.017 205.945 280.557 204.255 277.775 217.773C277.79 217.683 279.151 217.833 279.39 216.651C282.291 202.386 282.456 195.597 268.803 188.45C268.4 195.642 248.392 212.135 245.402 200.323C243.966 194.655 260.161 178.76 265.32 180.405C267.697 181.168 268.086 185.085 269.551 185.968C270.568 186.581 273.648 185.16 276.101 185.863C291.906 190.394 288.602 212.419 284.295 224.277C285.611 225.608 302.209 215.993 303.839 221.855C305.663 228.509 283.607 233.025 280.258 232.501C273.589 231.455 276.609 222.946 277.775 217.758L277.715 217.788ZM267.936 349.793H320.093C317.297 340.567 314.545 331.132 311.106 322.115C310.358 320.156 296.183 296.829 306.231 299.282C322.366 324.074 329.767 353.382 333.865 382.48L382.044 385.635V358.75C382.044 358.406 384.481 356.911 383.674 356.327C380.533 356.253 366.552 357.21 365.67 353.591C369.124 313.622 377.513 270.826 397.49 235.686C399.778 231.664 412.309 209.205 417.886 214.543C418.798 217.907 416.75 218.984 415.509 221.122C410.814 229.242 403.95 237.496 399.673 246.034C384.466 276.329 376.885 314.549 373.879 348.178L489.392 349.569C494.671 324.149 489.512 297.921 486.342 272.471L492.039 271.499C493.564 271.738 497.497 298.474 497.751 301.749C498.529 311.902 499.456 341.763 497.781 350.615C496.72 356.208 486.686 358.555 481.482 357.957L483.097 379.146L554.827 372.611C534.925 310.84 507.217 245.63 456.167 203.179C448.989 197.212 425.558 181.422 417.019 180.36C413.745 179.956 414.926 180.405 414.627 182.738C412.458 199.829 414.567 206.468 400.78 219.447C399.225 220.913 396.114 221.002 394.32 222.767C390.163 226.864 382.044 246.183 376.197 253.54C359.614 274.4 321.379 291.611 294.852 289.502C288.557 288.994 282.052 285.375 276.011 286.975C270.957 290.429 267.099 340.971 267.921 349.838L267.936 349.793ZM235.323 234.086C233.559 225.264 233.17 216.128 233.648 207.141C234.127 198.154 242.202 182.364 225.05 183.919C209.649 185.325 219.398 231.574 235.308 234.086H235.323ZM338.037 194.984L326.627 195.777L332.324 199.919L338.037 194.984ZM254.912 217.758L262.224 222.348C278.06 213.84 263.33 209.025 254.912 217.758ZM246.747 221.062C242.635 220.644 241.245 223.649 241.873 227.552H246.762V221.062H246.747ZM321.723 356.298C308.938 360.365 295.839 354.488 282.62 356.312L287.525 413.343C299.966 403.743 310.463 392.304 325.909 387.34L321.723 356.298ZM474.963 357.927L390.178 356.298C391.24 363.236 388.623 369.8 388.489 376.589C387.382 430.3 390.433 486.194 393.438 539.652C395.053 568.346 394.41 642.244 420.623 659.141C437.969 670.326 427.86 657.571 425.243 651.276C418.709 635.605 414.507 617.691 413.027 600.765C416.585 600.391 417.378 600.391 419.232 603.501C422.193 608.495 424.346 627.396 426.858 634.992C429.595 643.306 438.148 666.109 449.453 662.476C455.897 660.397 447.195 650.169 445.34 645.848C442.634 639.493 428.039 600.316 430.955 597.49L437.281 597.684C440.197 609.706 451.053 651.979 461.939 656.928C467.441 659.44 475.411 657.736 474.978 650.588C474.753 647.029 461.804 627.8 459.037 620.727C457.707 617.318 450.424 593.961 451.277 592.6C452.847 590.088 455.898 590.297 457.812 592.63C463.434 599.508 464.346 632.988 477.37 633.108C491.067 633.242 478.327 616.465 476.533 611.396C464.316 576.78 474.275 536.736 475.008 500.609L474.948 357.942L474.963 357.927ZM551.373 380.955L483.007 388.282C484.398 442.188 481.722 495.645 479.823 549.416C479.224 566.507 475.919 581.939 480.316 599.464C482.738 609.138 492.204 619.994 491.247 629.145C490.962 631.882 487.867 634.917 488.69 636.652C492.697 645.01 513.437 644.756 519.583 648.196C525.205 651.336 530.439 667.739 540.981 669.01L587.246 586.948C582.431 566.657 570.259 549.76 553.018 538.171C549.25 535.629 533.729 529.154 533.489 528.093C532.502 523.487 542.506 513.364 545.317 507.368C556.173 484.161 550.954 464.288 541.609 441.814C555.874 424.513 560.315 401.904 551.343 380.97L551.373 380.955ZM382.059 392.155C362.948 391.123 345.214 387.848 326.657 394.622C311.838 400.035 288.586 419.848 284.175 435.264C280.646 447.616 284.145 455.272 285.177 467.129C275.637 471.585 270.344 470.255 261.432 477.701C245.372 491.114 234.411 516.429 237.731 537.289C240.213 552.945 251.697 561.677 256.602 575.449C251.757 584.241 242.65 582.791 235.652 592.092C218.112 615.433 229.866 644.936 248.437 663.463C256.991 667.051 275.697 662.805 285.013 662.61C299.876 662.311 318.254 664.3 332.429 662.76C345.663 661.324 328.003 654.565 331.577 647.298C350.492 617.96 360.033 589.819 346.5 555.651C343.569 548.264 336.915 542.134 338.111 533.999C340.235 533.91 342.463 533.999 344.437 533.042C350.807 529.917 381.745 505.648 383.36 500.205L382.074 392.155H382.059ZM549.938 729.495H575.209C576.51 729.495 587.141 727.596 589.1 727.088C593.945 725.817 601.616 722.183 604.487 718.026C616.031 687.537 633.376 659.007 642.692 627.889C641.556 623.942 610.648 611.949 604.607 610.469L563.007 653.713C574.835 656.689 580.053 680.838 578.379 690.572C577.153 697.735 546.842 726.699 549.923 729.48L549.938 729.495ZM396.713 634.962L390.223 612.159C390.492 619.441 389.116 626.977 391.688 634.005L396.713 634.947V634.962ZM611.904 722.976C613.055 724.396 624.255 713.391 625.646 711.462C632.24 702.281 654.102 649.153 654.341 638.955C654.416 635.979 654.565 633.616 651.799 631.717L611.904 722.961V722.976ZM196.221 740.889C201.32 745.031 251.981 738.273 262.254 737.659C282.022 736.478 302.059 737.869 321.812 735.282C322.874 734.804 324.235 734.43 325.027 733.607C328.751 729.839 325.745 704.808 326.403 697.929L262.179 672.718C258.8 673.302 260.116 682.184 259.069 685.578C255.435 697.436 210.396 724.142 199.63 735.342C198.778 736.224 195.742 740.486 196.221 740.874V740.889Z" fill="#1E3D34"/>
<path d="M134.285 736L170.142 734.385C170.247 736.912 170.785 738.318 168.482 740.038C163.907 743.462 126.703 743.327 117.387 744.359C102.195 746.034 87.3166 750.475 72.4083 753.271C66.5467 754.363 64.9169 748.531 71.3916 745.645C77.0589 743.118 112.468 739.828 113.186 736.569C113.081 717.533 118.016 698.708 119.616 679.777C121.844 653.445 127.436 605.311 97.9335 592.302C83.6981 586.036 76.6699 593.064 67.4887 603.217L87.4811 607.629C104.513 614.372 120.348 634.559 114.262 653.25C110.016 666.304 103.705 663.329 93.5821 668.368C102.644 682.17 86.1055 688.749 73.5598 686.73C62.7486 684.981 54.4496 673.871 49.9936 672.674C46.973 671.867 41.4703 674.214 37.3283 674.229C28.9545 674.244 21.1489 671.029 16.0947 664.33C8.69288 654.521 14.7639 650.948 12.9097 646.417C11.0555 641.886 2.09869 639.165 0.737951 630.806C-3.76295 603.247 25.9638 595.681 47.6758 600.511C59.1299 570.067 85.7765 557.7 115.264 574.971C163.772 603.382 138.172 690.812 134.314 736H134.285ZM119.616 737.63C123.174 738.004 123.967 738.019 125.821 734.894C128.318 730.662 129.888 714.827 130.786 708.891C136.587 670.312 151.002 585.588 96.8717 575.42C75.5036 571.397 58.0832 585.02 54.614 605.416L59.2794 607.27C77.283 561.753 124.64 586.949 127.825 627.576C130.666 663.897 123.728 701.698 119.63 737.63H119.616ZM82.1129 659.426C125.073 665.617 108.864 620.548 80.1989 613.281C70.7784 610.888 67.6384 610.918 62.6141 619.546L60.1319 620.309C51.4889 602.216 10.1434 602.006 7.42197 623.195C5.52292 637.968 23.8405 640.331 24.977 644.144L19.1003 653.669C21.7171 666.932 33.3358 666.708 44.6254 665.931L46.1657 660.263L52.7599 661.041L34.8161 650.499C15.9153 630.806 35.8927 622.013 56.1094 627.591C82.5316 634.873 97.2007 663.792 57.6645 661.071C53.3431 674.424 78.5541 684.906 86.9877 678.147C92.6998 673.571 79.3914 665.871 82.1129 659.441V659.426ZM73.9635 652.891C76.0719 639.942 37.8218 626.185 34.9358 635.965C31.1228 648.854 65.2757 656.151 73.9635 652.891Z" fill="#1E3D34"/>
<path d="M625.735 307.417C624.494 307.447 621.265 310.781 618.423 308.269C614.909 306.056 615.463 304.486 616.973 301.062L650.991 299.253L633.81 291.193L633.003 288.711L635.62 284.673L659.141 292.733L649.376 265.055L655.627 265.324C658.901 272.203 661.698 279.335 664.838 286.273C665.496 287.739 665.316 290.789 667.32 288.681C671.776 283.507 670.939 258.147 676.292 256.891C680.703 256.965 680.374 261.317 680.494 264.218C680.718 269.765 674.184 294.288 675.47 296.008C685.817 290.67 694.131 278.094 706.423 278.094C713.197 284.808 681.496 301.241 678.73 305.772C683.903 307.462 712.494 315.551 711.312 321.249C709.712 329.009 681.017 315.088 678.73 317.211C678.969 322.908 688.284 352.605 685.219 354.683C683.29 355.999 680.314 354.205 678.879 352.082C676.457 348.523 670.071 318.751 666.498 318.871C661.085 323.551 647.582 351.588 640.449 349.794C638.251 349.241 638.042 347.013 638.655 344.8C641.212 335.663 659.201 318.378 662.43 307.417C650.229 307.596 637.967 307.178 625.75 307.417H625.735Z" fill="#1E3D34"/>
<path d="M144.049 398.674C142.329 384.498 146.95 368.573 160.871 362.517C195.428 347.475 215.271 393.635 181.552 409.276L157.118 414.135C167.944 427.189 187.383 436.49 204.041 439.092C207.076 439.57 211.757 437.985 212.565 438.494C217.559 441.664 213.985 447.795 207.002 447.436C193.798 446.763 164.744 433.634 155.413 423.989C151.286 419.713 148.864 412.311 145.619 409.335C142.15 406.15 133.043 403.324 127.9 399.347C115.369 389.642 104.752 369.859 104.797 353.86C104.797 348.073 112.094 320.664 118.763 322.085C125.432 323.505 114.247 339.864 113.47 344.469C109.612 367.302 122.053 391.437 144.049 398.659V398.674ZM152.587 403.175C153.754 404.356 156.311 404.79 158 405.029C198.164 410.801 202.785 362.099 167.78 367.811C155.488 369.815 144.827 395.399 152.587 403.175Z" fill="#1E3D34"/>
<path d="M104.737 721.152C100.386 727.866 33.8443 726.73 23.3621 723.859C8.42392 719.761 -9.08638 703.941 5.44809 689.511C25.9788 669.13 71.0178 689.795 91.1298 703.373C97.4699 707.664 107.399 712.389 104.737 721.152ZM82.098 705.077C62.8981 697.137 44.9394 685.504 23.0031 689.138C13.3583 690.738 3.35472 697.272 10.3827 707.5C21.463 723.634 67.8029 719.642 85.3728 717.279C69.343 710.49 50.4273 709.19 33.2461 706.633L33.2162 700.173C48.0049 699.126 62.4196 704.285 76.8644 706.244C78.6289 706.483 82.4868 708.038 82.113 705.062L82.098 705.077Z" fill="#1E3D34"/>
<path d="M200.826 653.295C222.942 652.144 231.765 666.573 216.602 683.874C205.911 696.076 170.038 713.765 154.232 716.083C150.225 716.666 141.971 716.681 142.674 711.058C142.883 709.429 145.006 707.53 145.275 705.451C148.789 678.939 172.789 654.76 200.811 653.295H200.826ZM153.844 708.292C170.083 702.132 188.819 696.943 202.606 686.177C228.191 666.184 213.806 654.491 186.95 664.001C177.245 667.441 165.058 678.177 158.763 686.341C157.567 687.896 153.963 691.769 156.281 693.638C160.722 688.793 165.881 684.667 171.264 680.913C176.483 677.265 196.849 662.97 201.739 664.435L204.385 668.368C187.802 681.437 164.744 689.466 153.858 708.292H153.844Z" fill="#1E3D34"/>
<path d="M616.778 402.756C617.66 397.702 622.685 390.674 624.494 399.9C626.393 409.65 623.343 418.472 623.313 427.997C624.629 429.567 640.329 414.27 643.305 412.954C645.413 412.027 646.924 410.637 648.569 413.328C653.473 421.283 629.847 428.625 629.817 436.131C630.729 437.388 654.774 441.694 659.649 444.61C662.326 446.21 662.879 446.629 662.415 449.993C661.847 454.135 630.027 442.711 626.558 442.666C624.883 444.789 634.109 461.806 635.141 465.888C635.769 468.325 636.905 468.101 633.855 470.359C625.257 472.333 624.12 451.638 621.623 449.186C618.886 446.509 618.886 450.023 618.228 451.473C615.058 458.501 614.401 477.731 605.339 474.441L608.584 454.075L590.685 468.729C584.719 461.118 613.728 442.576 610.229 439.421C601.691 439.765 590.117 444.236 582.565 438.599C582.655 433.231 607.029 433.874 611.873 432.872C609.466 428.954 597.922 414.524 598.834 410.921C601.645 399.721 613.219 426.861 616.763 426.367C617.63 419.145 615.567 409.59 616.763 402.741L616.778 402.756Z" fill="#1E3D34"/>
<path d="M413.385 171.777C410.499 168.847 409.049 158.036 401.647 151.725C391.21 142.828 380.533 148.047 378.679 146.94C377.976 146.522 372.1 135.755 369.827 133.019C342.567 100.347 268.519 84.6012 241.14 123.359C233.304 134.44 235.547 148.166 232.886 152.578C230.089 157.213 215.899 161.609 222.314 173.751C205.492 179.628 143.062 185.788 132.52 171.448C123.369 158.992 151.481 137.998 160.886 132.75C178.456 122.941 199.092 118.126 219.039 116.735C216.736 100.721 211.473 85.9768 221.581 71.2032C233.245 54.1568 261.446 45.5289 281.065 50.6428C285.012 51.6746 296.885 57.4166 299.009 60.3922C301.551 63.951 299.382 77.6929 304.601 77.5882C309.82 77.4835 306.665 65.5211 307.039 62.1716C314.56 -6.91137 404.324 -8.5562 433.198 46.8448C436.936 54.0222 443.232 82.9563 448.271 83.9133C459.187 80.0106 462.671 66.7472 471.673 58.867C493.46 39.8019 524.128 44.3775 536.046 71.1285C542.042 84.5862 537.975 94.6795 542.446 107.105C547.156 110.948 556.487 104.025 563.739 103.621C581.085 102.62 592.225 115.3 592.449 132.227C592.524 137.939 588.472 143.785 593.048 147.793C598.835 152.862 610.334 150.036 617.406 151.127C628.128 152.787 642.154 156.361 649.331 164.809C649.391 168.577 633.959 166.992 630.64 167.276C571.096 172.301 511 177.041 451.381 178.731C442.918 178.97 419.396 177.863 413.385 171.777Z" fill="#8FBFB0"/>
<path d="M382.058 392.154L383.344 500.204C381.729 505.662 350.791 529.931 344.421 533.041C342.447 534.013 340.219 533.908 338.096 533.998C336.9 542.118 343.554 548.263 346.485 555.65C360.017 589.833 350.477 617.959 331.561 647.297C328.002 654.564 345.647 661.323 332.414 662.759C318.223 664.299 299.861 662.31 284.997 662.609C275.682 662.803 256.975 667.05 248.422 663.461C229.85 644.935 218.097 615.417 235.637 592.091C242.635 582.79 251.727 584.24 256.586 575.448C251.682 561.676 240.198 552.944 237.715 537.288C234.396 516.428 245.357 491.113 261.416 477.7C270.343 470.253 275.636 471.584 285.162 467.128C284.145 455.27 280.631 447.614 284.16 435.263C288.571 419.847 311.823 400.034 326.642 394.621C345.214 387.847 362.933 391.107 382.043 392.154H382.058Z" fill="#B8E04A"/>
<path d="M267.936 349.794C267.099 340.941 270.971 290.4 276.026 286.931C282.067 285.346 288.571 288.965 294.866 289.458C321.393 291.567 359.629 274.356 376.212 253.496C382.058 246.139 390.163 226.82 394.335 222.723C396.129 220.958 399.24 220.869 400.795 219.403C414.596 206.439 412.488 199.785 414.641 182.694C414.94 180.376 413.759 179.912 417.034 180.316C425.572 181.363 449.004 197.168 456.181 203.134C507.231 245.586 534.939 310.796 554.842 372.567L483.112 379.102L481.497 357.913C486.7 358.511 496.749 356.164 497.796 350.571C499.471 341.719 498.544 311.858 497.766 301.705C497.512 298.445 493.564 271.694 492.054 271.455L486.357 272.427C489.527 297.877 494.686 324.104 489.407 349.524L373.894 348.134C376.899 314.49 384.481 276.285 399.688 245.99C403.965 237.466 410.843 229.197 415.524 221.078C416.75 218.955 418.798 217.863 417.901 214.499C412.323 209.16 399.793 231.62 397.505 235.642C377.513 270.782 369.139 313.577 365.685 353.547C366.552 357.151 380.548 356.208 383.688 356.283C384.496 356.866 382.058 358.362 382.058 358.706V385.591L333.879 382.436C329.782 353.323 322.38 324.03 306.246 299.237C296.212 296.785 310.373 320.112 311.121 322.071C314.575 331.087 317.311 340.523 320.107 349.749H267.951L267.936 349.794Z" fill="#A89FD8"/>
<path d="M474.962 357.928L475.022 500.595C474.29 536.721 464.33 576.781 476.547 611.382C478.342 616.451 491.082 633.228 477.385 633.094C463.688 632.959 463.449 599.479 457.826 592.616C455.912 590.283 452.862 590.059 451.291 592.586C450.439 593.962 457.721 617.303 459.052 620.713C461.818 627.785 474.768 647.015 474.992 650.574C475.426 657.721 467.456 659.426 461.953 656.914C451.067 651.964 440.211 609.692 437.295 597.67L430.97 597.476C428.054 600.287 442.649 639.479 445.355 645.834C447.194 650.155 455.912 660.383 449.467 662.461C438.163 666.095 429.609 643.292 426.873 634.978C424.376 627.382 422.208 608.481 419.247 603.487C417.393 600.361 416.6 600.376 413.041 600.75C414.521 617.677 418.724 635.591 425.258 651.262C427.89 657.572 437.998 670.312 420.637 659.127C394.425 642.23 395.053 568.332 393.453 539.637C390.447 486.18 387.412 430.286 388.503 376.574C388.638 369.786 391.254 363.221 390.193 356.283L474.977 357.913L474.962 357.928Z" fill="#FFFAF3"/>
<path d="M551.373 380.954C560.345 401.889 555.904 424.513 541.638 441.798C550.999 464.273 556.218 484.145 545.347 507.352C542.536 513.348 532.532 523.472 533.519 528.077C533.743 529.154 549.28 535.629 553.048 538.156C570.289 549.759 582.461 566.641 587.276 586.932L541.011 668.995C530.454 667.724 525.235 651.32 519.612 648.18C513.452 644.741 492.727 644.98 488.719 636.636C487.882 634.902 490.992 631.881 491.276 629.13C492.233 619.964 482.783 609.108 480.345 599.448C475.949 581.923 479.239 566.492 479.852 549.4C481.751 495.629 484.428 442.187 483.037 388.266L551.403 380.939L551.373 380.954Z" fill="#B8E04A"/>
<path d="M277.715 217.787C280.497 204.27 262.971 205.959 254.538 208.472C249.424 209.997 245.477 213.9 240.228 214.528C238.284 212.374 245.835 191.32 241.828 186.85C252.205 185.848 259.592 178.476 265.499 170.551L267.816 170.64C270.957 180.225 285.701 177.788 292.938 173.541C296.093 171.687 304.452 160.622 307.009 162.386L313.558 172.136L298.351 172.076L295.928 177.623C296.885 182.693 316.399 188.808 321.708 188.464C316.953 193.743 306.859 195.298 304.452 203.059C298.366 222.662 344.571 210.281 346.978 195.163C348.354 186.565 336.661 190.229 333.79 186.85C332.967 184.427 334.777 181.197 332.743 179.089C330.156 176.412 323.203 177.085 321.708 173.81L340.264 168.966C343.375 171.538 342.806 174.857 346.186 177.818C351.659 182.633 358.836 180.629 362.44 182.752C364.444 183.934 364.534 188.883 368.122 188.435C372.205 187.552 370.126 174.887 370.545 171.298C371.591 162.551 380.504 150.409 390.178 153.295C413.356 160.203 411.965 219.298 388.07 214.258C385.348 213.69 378.814 208.427 376.227 206.363C374.836 205.242 371.562 197.646 367.315 201.503C364.937 203.657 371.711 210.401 371.457 213.017C369.991 227.985 358.881 252.194 347.756 262.631C311.315 296.814 256.332 285.121 243.413 235.746C251.398 234.58 260.534 232.262 267.368 227.896C269.566 226.49 277.342 219.327 277.656 217.802C276.489 222.976 273.484 231.499 280.138 232.546C283.487 233.069 305.543 228.554 303.719 221.899C302.089 216.038 285.491 225.638 284.175 224.322C288.482 212.464 291.771 190.438 275.981 185.907C273.514 185.205 270.448 186.625 269.432 186.012C267.966 185.13 267.577 181.212 265.2 180.45C260.041 178.79 243.846 194.7 245.282 200.367C248.273 212.165 268.295 195.687 268.684 188.494C282.336 195.642 282.186 202.445 279.27 216.696C279.031 217.877 277.671 217.713 277.656 217.817L277.715 217.787ZM386.948 185.19C390.567 187.477 393.139 190.887 396.698 185.982L388.713 176.009C388.294 173.422 395.442 169.414 389.356 165.646C379.382 169.085 379.606 180.629 380.444 189.257C380.922 194.206 382.791 203.313 388.443 197.242L386.948 185.19ZM345.363 204.778C340.07 212.24 333.206 213.062 325.565 215.918C323.562 216.666 319.39 216.771 320.108 220.21C321.663 227.641 346.844 218.101 348.773 209.728L345.363 204.793V204.778ZM267.159 233.01C265.843 232.845 252.534 236.209 253.282 239.753C254.508 245.585 271.256 240.471 271.166 236.523C271.166 236.194 268.19 233.129 267.144 233.01H267.159ZM306.635 234.46C298.037 236.045 280.332 253.211 289.977 255.26C292.998 255.903 300.459 243.297 306.994 241.353C312.766 239.634 327.435 243.566 328.257 239.768C329.857 232.322 310.627 233.727 306.635 234.46Z" fill="#FFFAF3"/>
<path d="M549.937 729.496C546.857 726.714 577.167 697.735 578.393 690.588C580.053 680.853 574.849 656.704 563.021 653.729L604.621 610.484C610.662 611.965 641.57 623.957 642.707 627.905C633.391 659.022 616.045 687.552 604.502 718.042C601.616 722.199 593.945 725.832 589.115 727.103C587.156 727.611 576.524 729.511 575.223 729.511H549.952L549.937 729.496Z" fill="#2C5F52"/>
<path d="M196.22 740.888C195.742 740.5 198.777 736.238 199.63 735.356C210.396 724.156 255.435 697.45 259.068 685.592C260.115 682.183 258.799 673.316 262.179 672.732L326.403 697.943C325.745 704.822 328.75 729.853 325.027 733.621C324.219 734.429 322.859 734.818 321.812 735.296C302.059 737.883 282.007 736.492 262.254 737.674C251.981 738.287 201.319 745.045 196.22 740.903V740.888Z" fill="#2C5F52"/>
<path d="M321.722 356.298L325.909 387.341C310.462 392.29 299.98 403.744 287.524 413.344L282.62 356.313C295.823 354.489 308.937 360.365 321.722 356.298Z" fill="#FFFAF3"/>
<path d="M611.903 722.976L651.799 631.732C654.55 633.617 654.4 635.994 654.341 638.97C654.101 649.168 632.24 702.296 625.646 711.477C624.27 713.406 613.07 724.396 611.903 722.991V722.976Z" fill="#FFFAF3"/>
<path d="M235.324 234.086C219.398 231.574 209.664 185.324 225.066 183.919C242.217 182.364 234.142 198.259 233.664 207.141C233.185 216.023 233.574 225.264 235.339 234.086H235.324Z" fill="#FFFAF3"/>
<path d="M396.713 634.962L391.688 634.02C389.116 626.992 390.477 619.456 390.223 612.174L396.713 634.977V634.962Z" fill="#FFFAF3"/>
<path d="M254.912 217.757C263.33 209.025 278.059 213.84 262.224 222.348L254.912 217.757Z" fill="#FFFAF3"/>
<path d="M338.037 194.984L332.324 199.919L326.627 195.777L338.037 194.984Z" fill="#FFFAF3"/>
<path d="M246.747 221.063V227.553H241.873C241.245 223.65 242.65 220.629 246.747 221.063Z" fill="#FFFAF3"/>
<path d="M82.1131 659.425C79.3916 665.855 92.6999 673.556 86.9878 678.131C78.5542 684.89 53.3432 674.408 57.6647 661.055C97.2009 663.777 82.5317 634.842 56.1095 627.575C35.9078 622.013 15.9304 630.79 34.8162 650.483L52.76 661.025L46.1658 660.248L44.6256 665.915C33.336 666.692 21.7172 666.917 19.1004 653.653L24.9771 644.128C23.8407 640.315 5.52307 637.967 7.42212 623.179C10.1436 601.99 51.4891 602.2 60.132 620.293L62.6143 619.53C67.6385 610.903 70.7785 610.873 80.199 613.265C108.864 620.532 125.074 665.616 82.1131 659.41V659.425Z" fill="#B8E04A"/>
<path d="M119.616 737.629C123.713 701.696 130.666 663.895 127.81 627.574C124.625 586.932 77.2531 561.751 59.2645 607.268L54.5991 605.414C58.0832 585.003 75.4887 571.396 96.8568 575.418C150.987 585.601 136.587 670.31 130.771 708.889C129.873 714.825 128.303 730.661 125.806 734.892C123.952 738.017 123.159 738.002 119.601 737.629H119.616Z" fill="#8FBFB0"/>
<path d="M73.9638 652.89C65.276 656.15 31.1081 648.853 34.9361 635.964C37.837 626.184 76.0722 639.956 73.9638 652.89Z" fill="#FFFAF3"/>
<path d="M82.0977 705.077C82.4716 708.053 78.6136 706.498 76.8492 706.258C62.4044 704.3 47.9897 699.141 33.201 700.187L33.2309 706.647C50.4121 709.204 69.3278 710.505 85.3576 717.294C67.7877 719.656 21.4478 723.649 10.3675 707.514C3.33951 697.287 13.3433 690.752 22.9881 689.152C44.9393 685.503 62.8979 697.152 82.0828 705.092L82.0977 705.077Z" fill="#8FBFB0"/>
<path d="M153.843 708.292C164.744 689.466 187.787 681.436 204.37 668.367L201.724 664.434C196.849 662.969 176.483 677.264 171.249 680.913C165.881 684.666 160.722 688.793 156.266 693.637C153.948 691.768 157.552 687.896 158.748 686.341C165.058 678.176 177.23 667.44 186.935 664.001C213.791 654.491 228.176 666.184 202.591 686.176C188.804 696.942 170.068 702.146 153.829 708.292H153.843Z" fill="#8FBFB0"/>
<path d="M306.635 234.46C310.627 233.727 329.842 232.322 328.257 239.768C327.435 243.582 312.766 239.634 306.994 241.354C300.459 243.312 292.998 255.903 289.977 255.26C280.333 253.211 298.037 236.045 306.635 234.46Z" fill="#1E3D34"/>
<path d="M386.948 185.19L388.443 197.242C382.776 203.313 380.922 194.207 380.444 189.257C379.606 180.629 379.382 169.086 389.356 165.646C395.457 169.415 388.309 173.422 388.712 176.009L396.697 185.983C393.124 190.887 390.552 187.478 386.948 185.19Z" fill="#1E3D34"/>
<path d="M345.363 204.779L348.773 209.713C346.829 218.087 321.663 227.627 320.107 220.195C319.39 216.756 323.561 216.651 325.565 215.904C333.221 213.048 340.07 212.225 345.363 204.764V204.779Z" fill="#1E3D34"/>
<path d="M267.159 233.01C268.19 233.129 271.166 236.195 271.181 236.524C271.271 240.471 254.508 245.585 253.297 239.754C252.549 236.21 265.858 232.845 267.174 233.01H267.159Z" fill="#1E3D34"/>
</svg>
