<?xml version="1.0" encoding="UTF-8"?>
<svg id="Layer_1" data-name="Layer 1" xmlns="http://www.w3.org/2000/svg" viewBox="0 0 1500 1500">
  <defs>
    <style>
      .cls-1 {
        fill: #263c34;
      }
    </style>
  </defs>
  <path class="cls-1" d="M242.59,760.49l-8.73,42.06c.51,3.73,10.55,2.58,14.1-3.3,4.56-7.54,13.24-48.48,15.05-50.41,7.58-1.34,4.49,1.06,6.06,4.14l21.59,42.39,7.12-4.6-20.25-53.54c7.21-5.18,54.12,15.8,66.26,16.86,4.76.4,6.41.35,9.34-3.86,1.15-6.7-1.7-7.87-6.61-10.77-8.84-5.16-63.11-15.49-63.11-21.18,5.38-6.83,54.76-34.11,43.56-45.08-24.01-3.11-32.88,24.08-52.35,31.96v-62.48c0-5.07-14.54-7.52-14.54,2.91v59.62c-9.1-4.27-24.74-42.5-33.41-40.7-17.19,3.52,20.58,44.84,21.77,52.31-8.66-.4-55.94.24-58.15,7.34-4.67,14.87,15.4,7.25,21.68,7.1,11.15-.33,22.45.44,33.56.15l-42.94,50.92c13.71,19.06,24.44-20.78,40.01-21.84Z"/>
  <path class="cls-1" d="M1266.64,478.28s.01-.03.02-.04l-.05-.02.04.05Z"/>
  <path class="cls-1" d="M1134.21,606.36c21.55,2.62-3.7-21.97-7.73-30.14-10-20.23-10.99-39.22-2.36-60.13,5.29-5.07,12.6,17.89,15,21.33,33.8,48.19,117.03,29,91.33-24.39-15.11-31.42-58.39-36.55-88.89-28.97,14.15-45.87,63.9-68.02,105.72-40.19,10.32,6.88,26.24,21.3,19.39,34.36l7.32,2.16c18.66-11.06-6.34-37.53-17.54-45.79-41.4-30.45-100.94-14.37-122.31,31.88-4.38,9.47-4.49,18.99-7.93,26.97-8.84,20.42-24.72,25.34-22.26,55.68.99,12.41,18,55.72,30.27,57.22ZM1169.33,492.77c24.02-.59,67.65,25.89,47,51.6-6.65,8.28-25.3,7.76-34.82,5.97-29.2-5.46-65.75-56.3-12.18-57.56Z"/>
  <path class="cls-1" d="M282.3,512.74c11.68,8.06,23.05,8.42,32.77,13.77,5.82,3.2,10.49,11.5,16.28,15.69,24.44,17.72,54.01,22.25,82.59,11.48l-4.1-14.26c-22.21,13.51-49.53,3.85-71.28-5.91-2.27-9.03,9.83-5.24,16.92-7.78,20.19-7.25,42.92-25.93,44.29-49,1.61-26.82-29.37-44.03-53.13-35.48-22.94,8.24-42.35,45.46-34.26,69.01-71.61-10.02-56.19-129.38,17.47-113.43l-.37-11.26h-.02c-72.43-20.2-102.86,88.69-47.17,127.18ZM338.46,462.15c28.42-27.01,67.78,6.99,35.14,38.07-12.21,11.64-30.05,14.83-46.38,15.67-7.25-16.24-1.7-41.43,11.24-53.74Z"/>
  <path class="cls-1" d="M742.18,705.85v.02c-27.7,5-53.04,52.69-26.2,59.98,13.7,3.7,19.37-16.5,29.04-19.35,8.18-2.44,18.79.75,27.89-1.23,29.5-6.39,9.45-46.65-30.72-39.42ZM772.05,725.63l-1.43,5.77c-29.31-3.63-29.37,1.17-46.49,17.47-10.25,9.76-4.28-12.16,3.15-20.12,14.08-15.12,28.78-13.38,44.77-3.15v.04Z"/>
  <path class="cls-1" d="M1248.3,897.33c-7.49-4.43-25.74-49.07-36.05-52.13h-7.58c-13.13,3.75-11.96,43.32-20.14,51.3-2.45,2.4-31.14,8.92-36.16,9.21-14.74.88-13.29-9.5-21.44-18.66-15.16-17.08-29.68-22.04-52.4-23.22l-23.14-45.19c22.04-5.49,173.04-17.16,179.07-26.04,2.51-3.7,1.78-8.07-.09-11.83-6.79-13.77-106.95-28.98-130.51-49.88-24.31-21.57-4.56-70.42-32.41-104.33-38.49-46.87-115.73-26.24-145.34-67.01-8.62-11.88-12.8-28.62-22.01-40.52l.05.05c76.13-1.74,150.12-28.53,172.4-108.36,69.17-247.82-356.83-361.06-524.18-256.46-96.64,60.38-135.71,195.34-48.68,282.33,16.33,16.33,35.47,27.83,54.18,46.16,17.08,16.77,33.2,35.43,52.42,49.34-8.61,22.92-27.57,32.59-43.69,49.38-3,3.11-6.87,10.8-8.51,11.77-1.39.79-14.12-2.31-21.29-.86-7.2,1.45-14.37,9.52-18.55,10.2-10.99,1.74-18.29-6.81-34.51,3.72-39.49,25.62-51.49,115.77-33.45,157.04-50.99,8.9-89.24,58.37-85.71,110.68-51.76,14.01-95.41,59.95-65.69,114.78-63.83,27.98-98.1,97.7-34.82,148.34-99.7,54.51-41.98,191.15,63.97,167.18,5.71,32.77,43.39,60.06,72.84,71.24,36.03,13.66,65.36,11.43,100.24-4.38,131-2.6,262.45-6.06,392.7-5.64,42.57.11,85.18-.48,127.71,0,6.37-1.46-.46-39.04,1.9-46.67,61.5,13.9,105.22-19.76,96.02-84.33,104.27,36.34,129.69-53.37,64.21-121.14,18.13-21.4,29.84-42.17,25.23-71.61-1.34-8.4-11.92-26.55-10.58-32.08,16.13-22.52,38.18,11.68,57.73,16.95,35.41,9.54,9.91-40.81,15.18-57.73,2.65-8.44,38.23-24.39,42.57-42.04,7.4-29.99-49.84-22.74-61.47-29.62ZM896.84,738.3c-6.65,16.15-22.81,24.24-27.48,39.6l5.97,5.75c17.78-16.44,36.56-37.24,39.29-62.47,2.09-19.23-6.77-58.08,1.65-71.08,9.06-13.9,16.04,1.85,20.12,11.44,17.94,42.33,2.44,88.53-18.03,126.54l6.57,7.18c6.21,1.46,19.37-29.7,21.75-36.25,4.78-13.18,10.45-33.25,11.22-46.98.82-15.11-18.57-77.65,9.96-70.49,24.86,6.24,13.71,82.92,9.34,101.47-2.27,9.56-16.06,42.62-16.06,45.21.05,6.3,6.83,9.43,11.85,5.84,8.18-5.84,21.64-68.88,23.05-81.66.42-3.92-2.45-64.28,11.65-53.76l-.06-.02c10.56,29.99,12.21,67.31,3.86,98.34-10.99,40.87-47.7,66.7-73.62,97.99l4.39,7.23,15.91-8.72,34.71,105.92-182.89,85.91c-16.92-51.38-62.75-126.68-55.17-181.39,6.15-44.36,94.24-93.62,113.02-157.5,3.04-10.4,8.37-59.38,16.19-59.38,20.96,22.19,24.21,63.66,12.8,91.27ZM699.38,830.27l43.43,23.51h.02c-2.71,14.85-4.93,28.58.2,43.34-16.02,5.13-31.47,4.43-46.36-3.17,2.45-21.11,6.43-42.73,2.71-63.68ZM718.89,817.94c-28.56-4.47-26.31-19.43-41.4-37.13-19.5-22.92-61.43-50.11-65.15-80.27-1.06-8.7-.81-44.55,7.32-47.29,15.93-5.42,51.16,8.83,70.89-.35-16,12.32-62.25,40.59-15.75,46.27,5.29.64,42.73,2.67,44.79,1.79,2.07-.88,3.95-4.32,5.88-5.95,2.97-13.37-44.03-2.69-52.33-11.59,22.92-21.59,70.12-34.79,59.69-74.26-1.78-6.77-12.96-31.2-21.88-23.16,8.86,27.89,23.6,43.17-10.16,61.08-.04-36.29-37.24-34.06-64.08-34.93-3.5-.11-10.8,2.16-10.11-2.87,23.86-14.39,52.49-16.17,75.36-30.83,22.87-14.65,10.99-17.56,17.39-26.07,2.2-2.91,8.62-5.2,11.99-8.53,12.16-12.08,24.11-24.39,36.34-36.4,3.79,14.57,5.84,29.46,11.68,43.54,2.8,6.79,14.85,23.55,15.16,25.16,1.03,4.98-4.58,10.22,1.67,17.69h-.04c3.79,4.5,29.7,16.39,36.99,19.7,7.91,3.59,16.72,3,23.09,6.01,4.25,2,28.69,23.16,10.91,18.2-9.89-2.75-18.97-8.73-30.45-10.31-18.79-2.58-73.27-1.85-64.1,29.17,6.24,21.04,68.24,11.08,86.71,16.63,1.3,29.72-16.46,60.4-35.03,82.81-26.46,32.01-60.13,68.99-105.41,61.92ZM614.97,641.18l.31-9.85,2.54-3.28,14.57-4.3-3.2,17.12-14.23.31ZM661.55,641.22v-14.57c9.3-.99,22.65,3.44,23.23,14.54l-23.23.04ZM865.17,649.97h-.02c.18,12.43-14.72,8.24-23.27,8.7l.04-17.45,23.25,8.75ZM815.71,638.31l-2.93,17.39c-5.16-.13-29.08,2-29.02-4.36,7.69-9.17,20.16-13.22,31.95-13.04ZM547.88,453.75c-32.94-28.54-52.11-28.34-71.06-77.3-54.67-141.37,80.87-243.72,209.3-250.25,96.82-4.94,268,39.55,333.18,115.11,74.85,86.81,64.63,224.31-58.08,255.89-14.92,3.85-51.67,11.96-65.6,10.31-12.67-1.5-27.3-19.37-41-25.96-16.19-7.8-39.68-13.88-57.58-11.75-6.13.75-12.89,5.62-17.78,5.4-4.27-.18-18.97-11.08-26.9-13.53-24.74-7.64-47.04-7.16-71.77-.64-9.52,2.51-23.22,11.5-31.8,11.31-16.42-.37-49.8-18.77-64.3-17.3-24,2.43,6.48,35.04,7.17,46.48-18.39-10.03-29.83-35.65-43.77-47.76ZM591.72,469.59l43.58,11.65-23.2,31.96-20.38-43.61ZM461.43,654.9c6.76-18.16,20.62-44.29,42.97-42.81-5.02,15.43-13.66,28.51-18.2,44.33-1.94,6.87-17.78,74.17,3.63,60.37,3.31-2.12,2.69-26.71,3.77-32.63,3.97-21.88,16.59-68.48,38.25-78.09,6.68-2.97,19.5-4.71,13.33,4.6-5.46,8.24-13.13,13.73-18.97,24.64-13.7,25.6-19.83,64.12-13.22,91.84l8.84,1.28-.04-.05c5.62-15.34,1.48-31.79,3.26-47.66,2.97-26.51,22.91-74.34,54.97-71.55-4.17,10.51-11.59,18.02-15.97,29.11-7.21,18.35-11.5,57.22-10.31,77.16.33,5.07,2.66,29.86,11.77,23.2,7.45-5.46.4-21.94.57-29.11.42-20.1,3.52-65.84,18.2-80.12,28.45-27.68,13.38,52.22,13.53,60.04,1.04,62,80.96,79.83,89.55,145.45,8.07,61.59-32.72,151.69-43.34,213.49-58.35-15.54-116.94-32.7-171.65-58.26,18.31-56.92,23-116.81,29.35-175.99-1.34-13.04-25.27-27.67-33.49-39.37-22.47-31.86-19.88-84.65-6.81-119.85ZM463.11,1369.17c-36.16,8.71-108.9-17.76-122.31-54.07-3.72-10.09.7-20.49-8.09-27.02-23.97,6.76-40.06,10.75-63.97.2-43.65-19.23-62.18-74.1-31.91-113.35,7.29-9.45,40.78-33.16,40.78-37.88-.02-6.43-22.47-23.44-27.56-30.71-21.55-30.76-6.7-65.66,20.25-87.01,7.89-6.24,36.73-18.55,37.86-20.36,4.94-7.87-9.76-30.36-10.44-42.33-2.12-38.49,40.92-65.55,74.5-70.99-3.5-53.08,25.91-100.02,78.53-112.71l38.71,41.91c-5.93,57.11-13.22,114.25-28.73,169.55l-.02-.09c-28.65-6.24-47.11-35.3-71.32-5.86-22.92,27.89-26.38,69.08-13.02,101.84-13.22,1.41-41.65,15.67-45.37,28.91-2.75,9.83,5.18,11.63,12.93,4.12,9.78-9.47,18.49-20.07,34.33-21.29,11.63-.9,9.32,16.92,24.26,14.45-.48-17.43-16.7-31.25-19.66-48.69-3.22-19.01,3.92-80.31,29.51-79.26,11.41.46,74.41,34.33,89.15,42.09,67.32,35.43,133.35,76.59,197.47,116.91-10.88,74.12-40.7,164.16-134.23,151.44-9.21-1.23-38.58-14.24-41.29-13.66-10.62,2.25.75,14.72,1.02,18.64,1.98,29.66-32.92,68.39-61.39,75.23ZM1005.02,1352.53l-497.69,7.05c14.5-18.46,28.25-39.69,29.13-63.97,78.49,23.09,134.43-10.86,159.16-86.6,3.17-9.69,18.15-68.51,17.5-74.43-1.39-12.83-56.85-38.03-68.94-46.84l49.38-181.85c17.45,8.4,33.25,9.94,52.09,6.01l.02.02,52.05,138.53c.13,9.8-30.16,17.94-37.44,34.15-18.66,41.43-.29,94.44,49.25,97.99-6.19,80.2,73.81,127.27,141.18,84.17,11.59,19.59,22.72,30.63,41.51,42.92,3.92,2.58,12.14,3.22,14.17,6.19,2.75,4.07,2.64,33.87-1.39,36.67ZM1189.61,1074.68c-3.61,13.79-27.83,29.19-27.83,36.27,15.64,22.59,38.69,46.73,40.83,75.65,2.75,36.91-28.01,45.43-59.3,41.8-7.36-.9-42.48-15.78-42.48-1.15,0,13.13,2.05,34.95,0,46.54v-.05c-8.04,45.24-83.86,38.36-113.26,17.27-11.52-8.24-25.63-36.38-32.02-37.96-11.54-2.86-30.52,14.02-45.52,16.08-39.2,5.33-76.17-18.36-84.83-57.2-2.12-9.47-1.03-37.63-5.02-41.47-15.25-4.89-27.99-2.38-40.79-14.52-17.34-16.5-18.68-61.3.4-75.14,14.81-10.77,42.15-24.7,59.14-33.95,56.98-31.11,117.51-55.11,176.12-82.91,24.21,14.92,39.09,46.07,39.44,74.19.2,13.82-8.53,35.58-5.49,45.94,1.98,6.72,11.08,9.26,15.18,14.01,12.4,14.35,11.7,34.53,14.74,52.18h8.92c3.86-19.13,1.23-43.1-11.65-58.35-3.28-3.88-12.85-8.99-13.29-10.69-1.89-7.69,4.39-40.35,3.13-54.76-2.03-23.34-22.45-61.37-42.19-74.3-8.33-5.44-15.65,2.33-18.77.07-4.67-3.33-36.51-100.81-35.21-108.74.39-2.38,27.76-34.7,30.49-36.8,8.29-6.44,33.08,12.43,39.37,19.21,12.19,13.16,19.15,33.45,23.64,50.52,19.68-.44,39.59,2.71,53.28,18,15.53,17.34,3.81,23.44,8.88,34.66,4.14,9.19,28.11,19.87,30.08,28.29-5.05,33.82-39.26,84.66,24.86,62.11,11.76,13.53,13.51,38.5,9.15,55.22ZM1252.69,966.1l5.22,47.39h-.02c-3.59,4.05-38.01-25.82-47.99-26.42-17.83-1.14-35.45,24.33-53.81,26.42-1.83-22.43,21.97-48.56,7.21-69.74-3.09-4.43-29.06-18.49-24.66-23.31,18.9-5.66,50.97-1.92,60.31-22.59,2.45-5.47,6.17-35.67,10.95-35.56,12.54,13.86,21.93,30.45,27.46,48.12,8.92,1.52,56.3,2.67,58.37,11.52l-43.05,44.18Z"/>
  <path class="cls-1" d="M735.63,396.97c10.56,2.01,19.19,23.23,29.22,31.82,15.86,13.62,34.46,17.3,54.95,14.37,12.41-1.78,41.16-14.63,52.71-14.1,3.92.18,20.95,11.31,30.32,13.05,60.31,11.1,119.91-45.37,89.81-104.33-3.06-6.01-12.23-14.43-13.4-18.6-1.7-5.97.26-12.94-1.32-19.06-9.83-38.08-48.83-69.01-88.07-71.92-9.8-.71-26.27,3.85-31.33,2.49-2.23-.62-19.99-15.51-27.67-19.12-20.56-9.61-45.81-12.67-68.28-8.88-9.41,1.58-24.77,12.74-29.79,12.74-3.84,0-12.08-5.95-18.16-6.96-33.34-5.53-63.08,23.69-55.99,57.51l-.09-.02c-15.87.71-32.1-1.1-47.97,0-16.02,1.08-32.41,16.41-30.32-9.83,2.34-29.62,26.26-50.24,56.3-45.26,11.17,1.87,18.24,19.94,23.49,11.48,9.41-15.12-24.21-26.18-34.93-26.18-27.19,0-54.16,27.43-56.72,53.77-.9,9.23,3.08,24.21,2.22,28.76-.84,4.58-16.24,15.27-20.25,23.03-23.23,45.06,34.11,98.27,77.56,101.05l107.72-5.84ZM710.97,382.31c-1.68,1.74-15.53-4.16-14.52-10.11,1.76-10.38,17.83,6.76,14.52,10.11ZM732.79,370.64c-11.79-14.54-38.74-56.7-1.46-52.27l-1.57,14.46c3.66,6.19,7.27,4.54,13.22,2.97,1.3,13.02-.73,25.21-10.18,34.84ZM838.88,418.56c-11.08,9.74-62.36-5.2-72.62-18.77,26.86,3.42,43.32-12.21,61.06-29.11,2.4,18.77,30.5,31.22,11.55,47.88ZM833.9,354.02c-7.58-12.78-20.41,12.36-26.86,18.18-9.41,8.51-21.13,14.12-33.84,15.58-25.43,2.93-8.04-9.52-27.3-11.32,13.48-16.46,12.58-35.19,8.84-55.11,42.42-11.85,90.87,15.56,95.85,60.95-9.17-6.08-11.44-19.43-16.7-28.29ZM731.36,263.09c8.35-1.39,25.14,6.52,23.27,15.93-2.62,13.09-27.94-6.67-23.27-15.93ZM978.6,338.71h.02c33.27,60.37-40.19,114.91-92.99,79.98,7.31-7.36,12.65-19.66,13.82-29.92,1.81-15.93-5.24-21.72,10.82-35.5,12.89,12.94,30.94,15.91,46.58,5.8l21.75-20.36ZM931.25,316.08c24.15-5.53,45.66,11.1,21.17,29.83-28.93,22.1-49.45-23.38-21.17-29.83ZM964.08,306.69c-14.17-5.47-26.71-9.43-41.51-2.25-6.85,3.33-9.3,11.66-16.62,10.97l-34.95-72.67c39.9-4.32,89.11,21.29,93.09,63.96ZM876.06,306.05c-11.77,12.05-44.07-21.51-37.04-37.15,11.11,3.5,49.42,24.46,37.04,37.15ZM859.29,248.55l8.77,20.34-20.29-13.09,11.52-7.25ZM749.56,221.68c31.49-18.47,66.43-3.52,95.21,12.36-7.03,29.68-45.76,5.93-53.92,37.72-6.65,25.74,22.01,41.03,43.41,43.47l6.13-8.51c12.69,14.7,34.86,21.77,49.49,5.88,9.03,10.22,13.37,27.43,4.38,39.27-6.59,8.68-17.14-10.75-26.4.33-4.52,19.33,15.73,15.56,17.76,25.74,2.31,11.7-3.37,26.53-13.18,33.34-16.26-9.96-8.13-26.37-10.38-41.86-5.8-39.57-60.77-70.66-98.72-62.73-1.57-10.36,9.12-20.47,8.22-29.83-.53-5.57-12.93-32.23-16.39-39.09-3.77-7.45-14.28-11-5.6-16.09ZM826.21,279.92c1.92,7.6,5.63,13.55,6.93,20.91-22.45,1.49-45.12-30.98-14.68-36.58,12.78-2.34,5.82,8.04,7.74,15.67ZM740.02,236.91l5.86,14.52-17.43-2.93c2.45-4.8,4.45-12.76,11.57-11.59ZM722.63,226.8l-6.32,21.24c-7.21,2.09-14.92,2.75-21.92,5.75-6.17,2.6-21.33,16.86-23.89,7.49-6.72-24.46,32.01-51.82,52.13-34.48ZM667.46,292.3c14.52,1.59,23.11,18.33,40.23,8.22,3.3-18.49-5.75-21.2-19.99-27.24l28.93-10.03h.04c2.23,20.43,14.67,30.3,33.85,34.61l-1.78,11.74c-17.01-2.45-24.7-11.04-40.81,1.37-20.45,15.71-6.63,41.64-24.61,56.8-24.15-20.58-31.51-47.06-15.86-75.45ZM626.58,295.04c-7.54,2.67-15.91,2-23.25-1.41,4.94-8.5,22.45-12.63,23.25,1.41ZM597.54,306.71c24,9.03,56.87.07,37.79-29.06l23.27,2.91h.04c-2.38,9.3-9.19,15.07-10.95,25.4-4.89,28.51,4.54,52.79,25.43,72.01-12.56,14.67-39.42-2.84-50.92-13.04-17.28-15.31-27.72-34.5-24.66-58.22ZM564.22,303.92c4.78-7.67,17.45-18.4,21.26-3.83,1.5,5.69-2.65,12.27-2.31,19.22,1.54,30.49,24,51.52,46.34,68.79h.04c-36.45,1.83-87.76-48.21-65.33-84.19Z"/>
</svg>