<svg width="747" height="676" viewBox="0 0 747 676" fill="none" xmlns="http://www.w3.org/2000/svg">
<path d="M377.647 571.258C377.449 569.631 376.714 568.246 375.469 567.185C373.249 565.291 356.324 570.635 352.209 571.936C347.416 573.449 321.158 583.262 319.872 585.835L318.882 635.692C307.938 644.388 292.879 658.245 300.995 673.346C319.193 681.631 332.329 660.097 329.996 643.568C329.487 639.962 327.267 638.081 326.758 634.49C325.712 626.968 327.536 616.985 326.998 609.138L369.983 592.043L368.145 620.237C359.124 629.994 349 640.047 349.834 654.498C350.145 660.04 350.852 662.373 356.847 663.01C370.591 664.48 379.428 646.466 379.372 634.405C379.344 628.24 376.728 625.624 376.106 620.591C374.197 604.783 378.156 587.165 377.647 571.272V571.258ZM369.757 585.623L326.843 602.803C326.843 598.717 323.166 593.146 326.786 589.653C328.497 587.999 369.87 571.809 371.524 573.534L369.757 585.623Z" fill="#1E3D34"/>
<path d="M743.47 324.181C739.37 321.735 707.527 314.721 707.583 312.332C714.187 304.018 733.94 299.253 730.631 286.937C725.456 283.247 707.428 302.476 702.917 305.389V270.719C702.917 267.82 695.211 267.82 695.211 270.719V303.848C691.62 304.711 692.666 303.155 691.676 301.897C688.438 297.768 681.623 282.37 675.967 283.812C673.903 284.335 673.676 286.442 674.27 288.535C675.317 292.197 690.149 310.734 689.046 311.526C684.239 311.37 657.925 311.158 656.694 315.414C654.39 323.361 664.995 319.26 668.176 319.175C674.61 319.006 681.086 319.43 687.505 319.26C684.804 324.294 659.112 344.825 664.387 350.056C670.552 354.072 682.089 331.42 685.964 334.672C683.871 338.49 678.06 357.027 681.354 359.304C689.032 364.634 695.183 333.174 696.766 328.493C705.208 334.163 702.352 354.623 715.233 353.139L704.459 322.343C708.305 319.501 734.166 331.237 740.883 331.519C746.383 331.746 748.461 327.164 743.456 324.167L743.47 324.181Z" fill="#1E3D34"/>
<path d="M449.349 192.895C459.502 167.924 447.031 148.949 441.601 125.039C445.178 121.08 464.366 109.909 465.059 105.894C465.087 105.696 464.14 102.133 463.984 102.005C461.1 99.6016 443.595 116.993 438.575 117.432L436.157 106.162C439.013 101.228 464.465 87.9505 465.342 86.4093C466.897 83.6662 465.045 80.0323 460.845 81.0787C456.32 82.1957 429.837 100.662 428.762 104.649L443.976 158.196C436.737 160.275 431.731 165.195 427.9 171.473C408.726 202.75 436.638 224.101 449.335 192.895H449.349Z" fill="#1E3D34"/>
<path d="M348.024 100.139C364.935 102.769 377.194 76.6955 376.148 62.7114C375.823 58.3564 373.617 54.2983 373.221 50.1978C372.033 37.7408 372.358 24.9162 369.997 12.6005C376.332 18.6099 388.718 26.3584 386.668 36.1289C385.706 40.7101 378.75 43.5663 381.535 48.0486C385.621 54.6518 393.37 41.3606 394.035 37.2883C395.364 29.1439 390.061 22.3003 385.353 16.5031C382.949 13.5338 368.357 -2.24606 365.373 0.270789C362.121 17.6908 366.08 35.7188 367.013 53.2803C350.286 53.9024 322.827 96.2082 348.038 100.139H348.024Z" fill="#1E3D34"/>
<path d="M645.68 385.096C610.839 346.608 565.903 290.474 510.603 284.252C443.156 276.659 399.507 310.594 375.695 371.197L252.114 464.151L239.671 481.938L234.552 489.263C237.762 495.215 241.438 500.829 245.511 505.99C249.583 511.151 254.037 515.845 258.83 519.931C260.753 521.572 262.719 523.099 264.741 524.527C270.792 528.811 277.283 532.148 284.098 534.255C286.374 534.962 288.679 535.527 291.012 535.952C292.186 536.164 293.359 536.348 294.547 536.475C296.923 536.758 299.312 536.885 301.744 536.857C306.594 536.8 311.543 536.107 316.563 534.722C322.841 532.982 329.218 530.126 335.637 526.04C347.048 518.758 356.805 509.61 365.416 499.302C368.654 495.442 371.722 491.412 374.663 487.255C376.628 484.483 378.537 481.655 380.39 478.785C381.323 477.357 382.228 475.901 383.133 474.444C384.943 471.531 386.71 468.576 388.435 465.607C389.298 464.122 390.16 462.624 391.009 461.125C392.705 458.127 394.374 455.087 396.014 452.047C406.675 432.294 416.347 412.032 427.362 394.301C450.933 356.392 497.82 316.731 536.521 363.123C557.066 387.754 556.642 424.376 555.313 454.536L579.647 468.053L644.464 390.978L645.708 385.068L645.68 385.096Z" fill="#A89FD8"/>
<path d="M431.943 400.464C431.123 401.807 430.303 403.151 429.511 404.508C427.899 407.223 426.33 409.966 424.788 412.737C424.011 414.123 423.247 415.509 422.484 416.908C420.957 419.694 419.458 422.508 417.973 425.336C409.8 440.889 402.023 456.853 393.129 472.025C389.891 477.539 386.526 482.955 382.921 488.2C381.125 490.816 379.273 493.404 377.35 495.935C376.388 497.207 375.412 498.452 374.423 499.696C369.474 505.903 364.101 511.785 358.148 517.229C354.585 520.495 350.809 523.606 346.822 526.519C347.303 526.759 347.812 526.886 348.349 526.957C348.618 526.985 348.886 527 349.155 526.986C349.692 526.986 350.258 526.887 350.823 526.759C351.106 526.689 351.389 526.604 351.672 526.519C352.237 526.335 352.817 526.095 353.383 525.84C354.528 525.317 355.645 524.681 356.706 524.059C357.229 523.748 357.752 523.436 358.233 523.154C358.727 522.871 359.18 522.602 359.618 522.362C365.062 519.449 370.181 516.169 375.045 512.605C381.86 507.614 388.195 502.043 394.218 496.147C399.379 491.085 404.342 485.783 409.192 480.367C409.998 479.462 410.804 478.557 411.61 477.652C414.028 474.938 416.418 472.194 418.807 469.437C423.587 463.951 428.352 458.451 433.23 453.078C435.662 450.391 438.136 447.747 440.639 445.145C441.473 444.283 442.322 443.42 443.156 442.558L444.74 444.452L446.323 446.347L434.686 544.236L539.335 525.586C539.108 475.984 563.429 419.637 535.163 373.655C502.67 320.787 454.015 364.408 431.887 400.45L431.943 400.464Z" fill="#A89FD8"/>
<path d="M234.835 476.155C238.667 470.513 240.986 463.952 241 456.472C241 453.856 240.731 451.127 240.152 448.285C239.996 447.493 239.685 446.645 239.289 445.726C239.021 445.118 238.695 444.482 238.342 443.817C238.158 443.492 237.974 443.153 237.776 442.813C237.38 442.135 236.97 441.442 236.518 440.735C235.853 439.674 235.146 438.585 234.425 437.483C233.944 436.747 233.449 436.012 232.969 435.263C231.512 433.043 230.098 430.809 229.01 428.702C228.642 427.995 228.317 427.316 228.034 426.638C227.893 426.298 227.765 425.973 227.638 425.648C227.398 424.997 227.214 424.375 227.087 423.767C226.592 421.363 227.072 419.37 229.179 418.111C230.89 417.093 232.559 416.4 234.185 415.792C235.401 415.34 236.603 414.93 237.79 414.477C238.186 414.322 238.582 414.166 238.964 413.997C241.297 412.979 243.559 411.607 245.751 409.034C246.486 408.171 247.208 407.181 247.929 406.036C250.035 402.657 251.266 399.504 251.789 396.534C253.245 388.234 249.173 381.419 243.305 375.339C242.046 374.038 240.717 372.766 239.332 371.535C238.413 370.715 237.465 369.895 236.518 369.089C234.142 367.081 231.71 365.116 229.391 363.193C228.458 362.429 227.553 361.652 226.677 360.888C226.238 360.506 225.8 360.125 225.376 359.743L228.161 323.842L129.508 331.563C129.508 332.354 129.536 333.118 129.607 333.882C129.989 338.42 131.417 342.379 133.538 345.985C134.245 347.187 135.023 348.346 135.857 349.463C136.691 350.595 137.596 351.683 138.543 352.744C139.491 353.804 140.481 354.851 141.499 355.869C142.517 356.887 143.577 357.891 144.652 358.895C145.189 359.389 145.726 359.884 146.264 360.379C142.432 370.263 138.982 380.429 138.6 390.737C138.558 391.769 138.558 392.801 138.586 393.834C138.657 396.93 139.038 400.055 139.788 403.166C140.283 405.244 140.947 407.323 141.796 409.415C143.492 413.587 147.918 417.348 150.364 420.84C150.506 421.038 150.633 421.222 150.746 421.42C150.986 421.802 151.213 422.184 151.396 422.565C152.4 424.658 152.386 426.652 150.251 428.603C147.395 427.09 144.906 425.252 142.757 423.173C141.683 422.127 140.693 421.024 139.774 419.85C139.321 419.271 138.883 418.677 138.473 418.055C135.574 413.785 133.637 408.878 132.548 403.661C132.082 401.427 131.771 399.136 131.587 396.817C131.247 392.179 131.474 387.414 132.181 382.748C132.888 378.082 134.075 373.515 135.673 369.245C136.196 367.817 136.776 366.431 137.384 365.088C137.695 364.409 138.006 363.759 138.331 363.108C138.034 362.825 137.737 362.543 137.426 362.246C136.521 361.355 135.602 360.407 134.697 359.389C134.089 358.711 133.496 358.004 132.902 357.283C131.417 355.459 130.003 353.493 128.716 351.443C123.343 342.804 120.459 332.552 126.412 324.592L143.393 322.287C143.506 321.297 143.266 320.095 142.771 318.795C142.446 317.932 142.008 317.027 141.47 316.122C141.202 315.67 140.919 315.203 140.622 314.751C140.014 313.832 139.349 312.927 138.642 312.05C137.214 310.311 135.631 308.727 134.118 307.539C132.605 306.366 131.163 305.602 130.017 305.503C129.042 305.418 128.066 305.927 127.104 306.847C126.921 307.03 126.723 307.228 126.539 307.455C126.157 307.893 125.789 308.388 125.422 308.939C124.687 310.042 123.98 311.357 123.315 312.813C122.976 313.535 122.65 314.298 122.339 315.062C121.873 316.221 121.42 317.437 120.996 318.667C120.713 319.487 120.445 320.307 120.204 321.128C119.95 321.948 119.709 322.768 119.497 323.574C119.285 324.38 119.073 325.172 118.875 325.935C118.677 326.699 118.507 327.434 118.366 328.141C118.295 328.494 118.225 328.834 118.154 329.173C117.885 330.516 117.701 331.69 117.602 332.623C117.546 333.09 117.532 333.5 117.518 333.839C117.518 335.098 117.673 336.526 117.956 338.067C118.14 339.085 118.366 340.16 118.635 341.248C119.667 345.589 121.137 350.255 121.689 353.663C121.901 354.935 121.972 356.038 121.859 356.887C121.802 357.254 121.505 357.862 121.038 358.626C120.883 358.88 120.713 359.149 120.515 359.446C119.95 360.309 119.243 361.327 118.479 362.401C116.188 365.639 113.389 369.499 112.286 372.101C107.181 384.134 105.852 397.171 110.985 409.401C111.565 410.773 112.597 412.427 113.827 414.209C116.613 418.196 120.402 422.707 122.269 425.634C122.481 425.959 122.664 426.27 122.82 426.539C123.131 427.104 123.329 427.571 123.386 427.938C123.951 431.544 122.537 436.931 121.392 442.163C121.166 443.209 120.939 444.241 120.756 445.259C120.657 445.768 120.572 446.263 120.501 446.758C120.275 448.243 120.119 449.657 120.119 450.958C120.134 473.51 133.51 488.937 151.368 496.487C155.129 498.071 159.089 499.315 163.175 500.192C165.211 500.63 167.275 500.984 169.368 501.252C171.461 501.521 173.568 501.691 175.674 501.761C176.735 501.804 177.795 501.818 178.856 501.818C178.884 501.818 178.912 501.818 178.941 501.818C183.154 501.79 187.382 501.408 191.539 500.658C192.967 500.404 194.41 500.093 195.852 499.754C196.248 499.669 196.63 499.57 197.026 499.471C200.886 498.509 204.76 497.279 208.521 495.752C209.313 495.427 210.105 495.102 210.882 494.748C212.438 494.055 213.979 493.32 215.492 492.528C217.74 491.34 219.918 490.04 221.996 488.626C224.103 487.183 226.097 485.628 227.935 483.96C229.109 482.899 230.226 481.782 231.286 480.623C232.134 479.689 232.912 478.714 233.676 477.724C234.072 477.201 234.468 476.649 234.835 476.112V476.155Z" fill="#B8E04A"/>
<path d="M247.844 449.797C248.084 451.211 248.225 452.654 248.268 454.138C248.282 454.888 248.268 455.637 248.225 456.401L366.702 369.908L360.467 347.271C337.334 344.005 329.458 319.882 331.452 299.224C321.257 300.37 310.356 297.415 304.544 288.365C296.258 275.456 303.71 273.632 309.875 263.069L296.81 253.002C291.267 260.934 283.886 268.244 274.582 271.68L277.24 290.458C269.548 298.913 259.212 304.032 248.098 306.549C245.313 307.171 242.499 307.637 239.643 307.949C236.8 308.26 233.93 308.415 231.074 308.443C225.361 308.486 219.691 307.949 214.304 306.959C214.248 309.08 214.276 310.819 214.389 312.205C214.446 312.897 214.53 313.52 214.629 314.057C214.728 314.594 214.856 315.061 214.983 315.471C215.054 315.669 215.124 315.853 215.209 316.022C215.365 316.362 215.548 316.63 215.746 316.857C215.944 317.083 216.156 317.252 216.397 317.38C216.75 317.564 217.132 317.662 217.556 317.677C217.839 317.677 218.136 317.677 218.461 317.634C218.617 317.62 218.787 317.592 218.942 317.564C219.267 317.507 219.621 317.422 219.974 317.337C221.954 316.857 224.372 316.093 227.086 316.489C231.357 317.097 233.591 319.755 234.623 323.474C234.849 324.294 235.019 325.185 235.146 326.104C235.273 327.023 235.33 327.984 235.372 328.988C235.401 329.978 235.387 331.01 235.344 332.057C235.273 333.626 235.146 335.252 234.962 336.878C234.368 342.308 233.336 347.865 233.011 352.22C232.884 353.959 232.856 355.514 233.025 356.773C254.857 369.696 264.642 390.043 255.592 407.082C254.405 409.301 252.906 411.465 251.068 413.557C249.837 414.943 248.466 416.301 246.939 417.616C243.885 420.246 240.208 422.706 235.896 424.926C236.984 426.778 238.116 428.602 239.247 430.44C241.127 433.509 242.965 436.577 244.507 439.772C246.048 442.968 247.25 446.277 247.858 449.811L247.844 449.797Z" fill="#B8E04A"/>
<path d="M193.844 213.836C195.555 218.134 196.926 222.56 197.831 227.056C198.383 229.757 198.75 232.486 198.948 235.229C199.316 240.447 198.157 246.314 197.662 251.08C197.492 252.677 197.407 254.148 197.478 255.435C197.506 255.986 197.732 256.566 198.1 257.174C200.504 260.991 209.355 265.573 216.637 268.584C217.401 268.895 218.15 269.207 218.871 269.489C219.96 269.914 220.978 270.281 221.911 270.606C223.467 271.144 224.753 271.525 225.644 271.723C230.621 272.812 235.514 273.321 240.265 273.321C244.238 273.321 248.112 272.968 251.859 272.289C253.358 272.02 254.843 271.695 256.299 271.327C258.491 270.776 260.626 270.111 262.719 269.334C264.811 268.57 266.833 267.694 268.799 266.732C270.114 266.082 271.4 265.403 272.659 264.668C275.798 262.844 278.753 260.779 281.496 258.489C282.599 257.57 283.66 256.622 284.678 255.647C285.187 255.152 285.696 254.657 286.191 254.148C287.18 253.13 288.128 252.083 289.047 251.009C304.12 233.264 308.546 207.572 293.543 183.789C286.021 171.869 279.686 174.768 273.309 169.338C271.005 167.373 270.071 160.911 268.304 159.709C267.809 159.37 264.642 159.045 260.796 158.649C259.976 158.564 259.113 158.479 258.251 158.38C256.808 158.225 255.324 158.055 253.895 157.885C252.75 157.744 251.647 157.588 250.629 157.419C249.866 157.291 249.144 157.164 248.494 157.037C247.844 156.91 247.25 156.754 246.755 156.613C245.581 156.259 244.45 155.863 243.319 155.425C239.954 154.096 236.786 152.385 233.746 150.462C229.688 147.889 225.842 144.947 222.024 142.049C221.954 142.77 221.869 143.491 221.77 144.212C221.572 145.654 221.346 147.083 221.063 148.511C220.922 149.218 220.78 149.939 220.625 150.646C220.144 152.767 219.578 154.873 218.928 156.952C218.702 157.645 218.475 158.324 218.235 159.016C217.754 160.374 217.231 161.731 216.665 163.06C216.1 164.389 215.506 165.69 214.856 166.977C212.282 172.11 209.058 176.846 205.184 180.961C204.222 181.993 203.204 182.983 202.158 183.93C201.112 184.878 200.023 185.783 198.892 186.645C197.761 187.508 196.601 188.314 195.385 189.077C194.183 189.841 192.925 190.548 191.652 191.212C189.079 192.527 186.35 193.63 183.465 194.493C187.481 200.46 191.087 207.006 193.83 213.878L193.844 213.836ZM273.663 185.203C277.113 184.355 276.844 189.572 277.99 190.845C279.418 192.428 282.359 193.008 283.631 195.214C279.842 199.06 275.968 198.593 277.495 205.239C272.107 205.14 267.809 201.704 265.165 208.293L280.422 213.072C280.931 215.023 280.874 217.371 279.828 219.11C278.88 220.665 253.118 234.777 251.308 232.953C249.357 222.885 263.638 223.041 268.247 216.027C256.837 213.652 246.02 207.855 248.225 194.436C255.507 192.442 253.104 202.015 258.166 202.171C267.045 202.425 272.376 185.514 273.677 185.189L273.663 185.203ZM254.334 170.512C258.392 164.799 263.411 156.457 267.993 167.189C262.365 175.8 259.594 193.475 246.67 191.368C245.397 183.704 250.035 176.578 254.334 170.526V170.512ZM252.849 242.949L254.305 247.53C244.026 256.863 228.034 245.706 229.731 232.981C237.027 231.468 235.542 240.107 240.873 242.624C245.327 244.717 248.409 243.359 252.849 242.949ZM238.964 203.698C241.594 212.167 232.29 214.543 230.409 217.597C228.896 220.057 231.88 234.762 221.247 220.665L218.928 228.357C213.046 229.276 212.395 225.628 212.749 220.637C209.072 223.748 209.765 226.66 203.53 225.261V211.404C205.396 209.438 219.083 219.421 229.618 210.513C232.629 207.968 232.997 202.368 238.964 203.698ZM205.962 188.413C211.094 187.692 231.031 187.168 232.148 192.838C233.082 197.589 226.083 200.601 222.774 200.601C217.429 200.601 203.487 201.69 199.655 200.601C191.483 198.282 196.87 189.699 205.962 188.413Z" fill="#FFFAF3"/>
<path d="M317.538 266.053C311.939 272.571 305.406 277.139 310.723 285.297C318.33 296.948 335.779 289.115 338.479 292.975C338.479 306.323 337.193 316.503 344.503 328.564C350.88 339.07 356.578 338.335 367.777 340.753C369.262 346.748 367.551 352.715 369.813 358.752C370.605 360.873 369.304 361.368 373.051 360.888C380.644 340.555 396.297 317.281 413.123 303.085C417.563 299.338 429.44 293.145 431.66 290.769C434.644 287.602 430.289 277.888 428.281 274.099C420.532 259.478 403.805 255.081 389.283 262.278C385.466 261.528 387.36 248.619 386.767 244.716C385.268 234.833 380.234 221.117 370.958 216.154C353.665 232.599 333.05 247.968 317.524 266.081L317.538 266.053Z" fill="#B8E04A"/>
<path d="M113.799 287.63C115.086 288.818 116.5 289.892 117.998 290.896C119.13 291.646 120.303 292.353 121.519 293.06C122.735 293.766 123.951 294.431 125.21 295.096C126.878 295.986 128.575 296.863 130.258 297.768C131.94 298.673 133.609 299.62 135.221 300.624C139.25 303.141 142.927 306.096 145.627 310.112C147.536 312.954 150.039 321.636 152.004 322.145L208.026 317.592C207.913 316.475 207.786 315.358 207.644 314.241C207.376 312.021 207.079 309.801 206.711 307.623C206.344 305.446 205.933 303.282 205.439 301.162C204.703 297.98 203.784 294.898 202.639 291.928C201.875 289.949 200.999 288.04 199.995 286.188C199.5 285.269 198.963 284.35 198.397 283.473C195.569 279.033 191.907 275.046 187.085 271.737C181.726 268.047 177.329 266.152 173.483 264.087C172.889 263.776 172.309 263.451 171.744 263.112C171.461 262.942 171.178 262.772 170.895 262.603C170.33 262.263 169.792 261.896 169.241 261.514C168.435 260.948 167.643 260.326 166.851 259.633C166.328 259.167 165.819 258.672 165.31 258.135C164.928 257.739 164.546 257.3 164.165 256.848C162.27 254.6 160.432 251.744 158.551 247.855C158.028 246.766 156.402 241.577 154.267 236.204C154.097 235.794 153.942 235.37 153.772 234.96C153.433 234.14 153.079 233.305 152.726 232.499C152.372 231.694 151.99 230.902 151.623 230.138C151.241 229.375 150.859 228.653 150.477 227.975C149.502 226.264 148.512 224.85 147.508 223.931C147.112 223.563 146.716 223.28 146.32 223.097C145.33 222.63 144.355 222.757 143.422 223.69C139.222 235.78 151.029 248.223 152.4 257.145C152.612 258.516 152.655 259.365 152.358 260.072C152.061 260.779 151.439 261.358 150.336 262.193C144.51 258.361 141.47 251.998 139.576 245.07C138.869 242.468 138.317 239.781 137.836 237.123C137.2 233.574 136.691 230.067 136.126 226.858C135.984 226.052 135.829 225.26 135.673 224.496C135.518 223.733 135.263 223.054 134.938 222.489C134.061 220.962 132.633 220.17 131.035 220.198C130.045 220.226 128.971 220.566 127.939 221.273C126.468 222.277 125.761 223.917 125.62 226.009C125.591 226.419 125.577 226.858 125.591 227.31C125.62 228.653 125.846 230.152 126.199 231.722C127.613 238.056 131.191 245.876 133.962 252.238C134.881 254.359 135.715 256.311 136.352 257.993C136.663 258.842 136.931 259.605 137.144 260.298C137.653 262.023 137.766 263.239 137.257 263.72C136.988 263.691 136.719 263.692 136.451 263.692C136.182 263.692 135.885 263.72 135.602 263.748C135.32 263.776 135.023 263.805 134.74 263.833C134.457 263.861 134.16 263.875 133.877 263.889C133.029 263.918 132.223 263.819 131.558 263.352C131.332 263.197 131.134 262.999 130.95 262.758C130.116 261.684 128.476 258.078 126.666 253.751C126.214 252.677 125.747 251.546 125.294 250.4C124.842 249.255 124.375 248.095 123.923 246.95C123.626 246.187 123.329 245.423 123.046 244.674C122.905 244.306 122.763 243.938 122.622 243.571C121.929 241.747 121.293 240.036 120.77 238.565C120.148 236.798 119.667 235.384 119.441 234.55C119.2 233.673 119.073 230.845 118.635 228.06C118.493 227.126 118.309 226.207 118.069 225.359C117.956 224.935 117.829 224.525 117.687 224.157C117.334 223.21 116.881 222.46 116.302 222.008C116.188 221.923 116.061 221.838 115.948 221.782C115.694 221.654 115.425 221.598 115.142 221.598C115.001 221.598 114.845 221.612 114.69 221.64C113.898 221.81 112.965 222.404 111.848 223.592C107.733 227.947 109.373 236.289 111.607 243.387C112.625 246.611 113.771 249.566 114.548 251.786C114.633 252.026 114.746 252.295 114.888 252.62C115.17 253.256 115.538 254.034 115.976 254.911C116.302 255.575 116.655 256.282 117.023 257.032C117.39 257.781 117.772 258.573 118.14 259.365C118.394 259.902 118.635 260.439 118.875 260.977C119.115 261.514 119.342 262.065 119.568 262.603C119.78 263.14 119.992 263.677 120.176 264.186C120.741 265.756 121.137 267.212 121.222 268.414C121.25 268.81 121.236 269.192 121.194 269.517C121.152 269.856 121.067 270.153 120.925 270.408C120.657 270.931 120.218 271.285 119.54 271.426C119.356 271.468 119.172 271.468 118.988 271.454C118.606 271.412 118.21 271.256 117.815 271.002C117.009 270.493 116.146 269.588 115.269 268.386C113.954 266.59 112.583 264.116 111.282 261.358C110.632 259.973 109.981 258.516 109.373 257.032C108.963 256.042 108.567 255.038 108.171 254.034C107.592 252.521 107.04 251.022 106.545 249.566C106.206 248.59 105.895 247.643 105.598 246.71C105.159 245.324 104.778 244.023 104.452 242.836C104.24 242.044 104.057 241.308 103.901 240.644C103.59 239.301 103.406 238.226 103.392 237.533C96.2656 236.671 96.7746 241.662 97.5947 247.176C97.7503 248.265 98.0896 249.778 98.5421 251.56C98.8107 252.634 99.1359 253.794 99.4894 255.038C99.7298 255.858 99.9843 256.721 100.239 257.597C100.508 258.474 100.79 259.379 101.073 260.298C101.37 261.217 101.667 262.15 101.978 263.083C102.134 263.55 102.289 264.017 102.445 264.497C105.145 272.515 108.341 280.645 110.42 283.657C111.409 285.099 112.569 286.386 113.855 287.573L113.799 287.63Z" fill="#FFFAF3"/>
<path d="M522.876 561.303C522.848 560.893 522.819 560.469 522.819 560.045C522.819 558.786 522.961 557.485 523.272 556.17C523.484 555.294 523.767 554.403 524.12 553.498H443.962L439.225 584.846C439.324 585.538 440.738 586.373 443 587.292C445.645 588.366 449.462 589.554 453.718 590.728C455.542 591.237 457.451 591.732 459.388 592.226C461.326 592.721 463.277 593.188 465.2 593.655C466.487 593.966 467.745 594.263 468.989 594.545C475.791 596.115 481.645 597.317 483.751 597.713C498.146 600.413 512.865 602.619 527.655 603.991C542.445 605.348 557.278 605.871 571.884 605.15C569.721 603.354 567.43 601.757 565.083 600.258C563.909 599.508 562.708 598.787 561.506 598.08C559.102 596.666 556.656 595.295 554.224 593.909C553.008 593.216 551.806 592.509 550.604 591.788C548.214 590.346 545.867 588.833 543.619 587.15C536.125 581.537 526.312 574.085 523.555 564.965C523.187 563.778 522.947 562.562 522.848 561.317L522.876 561.303Z" fill="#2C5F52"/>
<path d="M329.288 171.176C332.046 176.959 337.475 181.498 337.56 189.19L336.132 192.174L331.48 192.881L328.384 186.73C329.288 195.298 324.297 201.972 320.72 209.141C318.033 213.312 325.556 225.402 322.219 227.579C314.329 232.726 317.199 213.242 308.333 216.013C309.351 226.08 306.014 235.469 302.183 244.561L312.971 259.153L350.71 225.26C352.704 209.636 357.257 192.584 352.591 177.143C349.423 166.694 330.9 144.382 321.116 139.263C318.896 138.104 307.937 132.137 308.263 138.217C308.574 144 321.073 152.823 325.004 160.02C326.941 163.583 327.535 167.528 329.274 171.162L329.288 171.176Z" fill="#FFFAF3"/>
<path d="M699.835 396.322L664.5 409.529L595.766 462.538L595.243 466.992C597.152 467.6 599.16 468.76 601.182 470.202C602.2 470.923 603.218 471.715 604.236 472.535C604.745 472.945 605.254 473.369 605.763 473.793C606.767 474.642 607.771 475.518 608.761 476.367C611.235 478.502 613.611 480.566 615.746 481.994C616.608 482.574 617.428 483.041 618.206 483.394C618.418 483.493 618.63 483.578 618.814 483.663C619.21 483.832 619.578 483.974 619.931 484.059C620.822 484.285 621.656 484.2 622.731 483.422L699.835 396.322Z" fill="#2C5F52"/>
<path d="M119.144 215.136C119.229 215.546 119.328 215.843 119.455 216.013C121.378 218.544 129.551 212.138 133.34 214.457C134.217 214.599 135.051 214.726 135.857 214.853C137.865 215.136 139.661 215.334 141.301 215.518C141.626 215.56 141.951 215.588 142.262 215.631C144.143 215.857 145.783 216.083 147.282 216.465C147.777 216.592 148.258 216.734 148.724 216.903C149.191 217.073 149.643 217.257 150.082 217.469C150.746 217.794 151.382 218.176 151.99 218.643C152.4 218.954 152.81 219.293 153.206 219.675C153.602 220.057 153.998 220.481 154.394 220.947C154.79 221.414 155.186 221.937 155.582 222.503C156.176 223.351 156.77 224.313 157.378 225.401C157.788 226.137 158.198 226.914 158.622 227.777C160.276 231.114 161.535 234.394 162.708 237.547C163.217 238.891 163.698 240.22 164.207 241.506C164.716 242.793 165.225 244.052 165.763 245.268C165.946 245.678 166.13 246.074 166.314 246.469C166.696 247.261 167.092 248.039 167.516 248.802C170.924 254.854 176.014 259.662 186.52 262.263C201.409 236.572 181.712 185.81 151.481 180.946C148.229 180.423 144.807 180.706 141.456 181.625C138.105 182.544 134.825 184.085 131.841 186.079C130.357 187.083 128.928 188.186 127.628 189.388C124.998 191.791 122.806 194.577 121.251 197.532C120.869 198.267 120.515 199.031 120.218 199.794C119.921 200.558 119.653 201.336 119.455 202.113C118.889 204.22 118.55 212.308 119.144 215.164V215.136ZM183.465 251.447C175.759 252.026 175.759 246.257 183.465 246.837V251.447ZM151.085 187.451C171.942 195.326 182.561 220.976 183.381 242.1L179.605 243.656C176.905 243.571 172.239 219.929 169.891 214.966C165.013 204.701 156.501 197.702 148.06 190.59L151.085 187.451Z" fill="#8FBFB0"/>
<path d="M146.886 160.459C147.112 158.225 147.423 156.047 147.805 153.898C149.912 142.148 154.281 131.868 160.276 123.3C161.365 121.744 162.51 120.246 163.698 118.803C166.088 115.919 168.661 113.275 171.418 110.871C183.112 100.662 197.845 94.9075 213.229 94.5257C215.944 94.455 218.687 94.554 221.43 94.8368C224.174 95.1054 226.931 95.5579 229.674 96.18C230.593 96.3921 231.498 96.6184 232.417 96.8587C234.241 97.3536 236.065 97.9333 237.889 98.5838C242.428 100.224 246.924 102.373 251.294 105.046C253.047 106.12 254.772 107.28 256.497 108.51C258.208 109.754 259.905 111.083 261.559 112.497C266.55 116.753 271.316 121.787 275.755 127.669C276.759 128.998 277.099 132.137 277.749 132.547C279.743 133.82 286.869 132.194 289.839 132.788C292.751 130.271 270.312 107.379 267.469 105.088C263.185 101.652 258.519 98.6827 253.598 96.18C251.138 94.9357 248.607 93.7904 246.034 92.7865C238.299 89.7465 230.098 87.7952 221.826 86.9469C219.069 86.6641 216.298 86.5085 213.541 86.4944C213.173 86.4944 212.805 86.4944 212.423 86.5085C212.381 86.5085 212.353 86.5085 212.31 86.4944C205.792 85.7167 193.688 87.0741 193.688 87.0741C193.49 87.1024 193.264 87.1165 193.052 87.1589C192.826 87.1872 192.599 87.2296 192.345 87.2721C190.648 87.569 188.499 88.1204 186.237 88.785C185.911 88.884 185.586 88.983 185.261 89.0819C182.645 89.8738 179.916 90.807 177.555 91.6553C176.381 92.0795 175.292 92.4896 174.345 92.8572C173.878 93.041 173.44 93.2107 173.058 93.3804C172.479 93.6208 171.998 93.8329 171.644 94.0025C166.172 96.6042 161.379 100.125 157.222 104.31C155.836 105.71 154.521 107.181 153.263 108.722C152.018 110.263 150.831 111.861 149.714 113.529C148.597 115.198 147.536 116.909 146.546 118.676C141.074 128.404 137.469 139.603 135.305 150.801C134.909 152.838 134.57 154.874 134.259 156.896C133.962 158.918 133.707 160.94 133.481 162.947C133.269 164.955 133.099 166.935 132.958 168.886C132.76 171.827 132.647 174.697 132.619 177.497L146.476 174.415C146.278 169.579 146.419 164.927 146.886 160.459Z" fill="#8FBFB0"/>
<path d="M275.996 140.565L280.832 164.913C298.634 170.583 307.344 190.747 308.334 208.308C319.405 204.589 322.982 187 322.176 176.748C320.522 155.567 297.008 135.828 275.996 140.579V140.565ZM286.049 143.605C291.295 142.233 303.752 154.111 306.778 158.225C308.532 160.601 316.45 173.143 310.61 174.401C307.061 175.165 301.844 163.061 299.115 159.724C294.675 154.323 289.372 151.184 283.66 147.423L286.049 143.605Z" fill="#8FBFB0"/>
<path d="M709.832 394.752C686.388 419.751 661.431 450.844 638.214 477.257C637.903 477.611 637.097 478.544 636.079 479.76C634.043 482.192 631.172 485.741 629.73 488.046C629.546 488.329 629.391 488.611 629.263 488.852C628.995 489.347 628.853 489.743 628.839 490.011C628.839 490.138 628.868 490.237 628.938 490.308C631.271 490.803 632.417 490.181 633.746 489.177C634.184 488.838 634.651 488.47 635.174 488.074C637.931 486.038 641.282 483.153 644.803 479.901C649.045 475.985 653.556 471.531 657.656 467.36C658.335 466.667 659.013 465.974 659.678 465.295C660.993 463.938 662.266 462.637 663.439 461.407C664.627 460.177 665.716 459.017 666.72 457.971C670.778 453.687 674.723 449.275 678.583 444.793C686.303 435.8 693.67 426.468 700.91 417.022C705.731 410.73 710.496 404.396 715.262 398.089C718.839 393.367 722.416 388.658 726.036 383.992C719.221 383.667 714.144 390.143 709.832 394.738V394.752Z" fill="#FFFAF3"/>
<path d="M204.661 278.553C204.916 278.907 205.142 279.274 205.368 279.656C205.679 280.179 205.99 280.844 206.301 281.579C207.56 284.563 208.818 289.002 209.949 292.495C210.232 293.372 210.515 294.192 210.784 294.913C211.321 296.355 211.816 297.416 212.254 297.797C213.64 298.999 215.817 299.805 218.447 300.314C219.578 300.54 220.794 300.71 222.067 300.823C222.915 300.908 223.792 300.965 224.683 301.007C226.026 301.078 227.412 301.092 228.812 301.092C236.758 301.049 245.256 299.961 249.753 299.197L192.741 263.777C193.434 266.322 194.876 268.344 196.601 270.197C197.761 271.427 199.033 272.586 200.292 273.76C201.861 275.245 203.417 276.758 204.661 278.539V278.553Z" fill="#FFFAF3"/>
<path d="M258.166 202.184C253.118 202.043 255.522 192.456 248.225 194.45C246.02 207.854 256.851 213.651 268.247 216.041C263.638 223.054 249.357 222.899 251.308 232.966C253.118 234.804 278.895 220.679 279.828 219.123C280.888 217.384 280.945 215.037 280.422 213.086L265.165 208.307C267.795 201.718 272.108 205.153 277.495 205.252C275.982 198.607 279.842 199.073 283.631 195.227C282.373 193.022 279.418 192.442 277.99 190.858C276.844 189.586 277.113 184.354 273.663 185.217C272.362 185.542 267.031 202.453 258.152 202.198L258.166 202.184Z" fill="#1E3D34"/>
<path d="M229.603 210.513C219.069 219.42 205.382 209.438 203.516 211.403V225.26C209.751 226.66 209.058 223.747 212.735 220.636C212.381 225.628 213.032 229.276 218.914 228.357L221.233 220.665C231.866 234.776 228.882 220.071 230.395 217.596C232.276 214.528 241.58 212.167 238.95 203.697C232.969 202.368 232.615 207.967 229.603 210.513Z" fill="#1E3D34"/>
<path d="M199.655 200.6C203.501 201.689 217.429 200.6 222.774 200.6C226.068 200.6 233.082 197.589 232.149 192.838C231.031 187.168 211.094 187.677 205.962 188.412C196.87 189.699 191.483 198.282 199.655 200.6Z" fill="#1E3D34"/>
<path d="M267.993 167.189C263.412 156.457 258.392 164.8 254.334 170.512C250.035 176.564 245.398 183.69 246.67 191.354C259.594 193.475 262.365 175.786 267.993 167.175V167.189Z" fill="#1E3D34"/>
<path d="M229.731 232.981C228.034 245.707 244.026 256.877 254.306 247.531L252.849 242.95C248.409 243.36 245.327 244.717 240.873 242.624C235.542 240.108 237.027 231.468 229.731 232.981Z" fill="#1E3D34"/>
<path d="M169.877 214.967C172.239 219.93 176.905 243.557 179.591 243.656L183.366 242.101C182.546 220.962 171.927 195.327 151.071 187.451L148.045 190.59C156.487 197.702 164.999 204.702 169.877 214.967Z" fill="#1E3D34"/>
<path d="M183.465 251.447V246.838C175.759 246.258 175.759 252.027 183.465 251.447Z" fill="#1E3D34"/>
<path d="M299.114 159.723C301.858 163.06 307.061 175.149 310.61 174.4C316.45 173.156 308.517 160.6 306.778 158.224C303.752 154.109 291.295 142.232 286.049 143.604L283.66 147.421C289.372 151.197 294.675 154.322 299.114 159.723Z" fill="#1E3D34"/>
<path d="M733.742 375.494C725.499 371.436 693.005 391.359 682.839 395.502C672.658 399.645 656.016 409.274 649.087 396.873C648.423 392.9 659.48 389.676 654.941 385.052C615.944 340.173 567.614 280.49 503.377 276.064C481.107 274.523 460.067 277.407 439.353 285.382C436.567 264.201 417.606 246.413 395.35 252.621L393.823 251.56C393.95 238.863 387.672 219.053 377.59 210.739C368.47 203.217 361.867 218.742 359.194 216.013C364.695 188.978 363.111 173.128 345.267 152.116C338.296 143.901 316.464 121.645 305.237 130.511C302.282 132.844 302.55 138.811 299.864 137.425C298.308 136.619 294.01 125.307 292.002 122.154C272.574 91.5279 237.903 76.9923 202.116 78.7174C202.116 78.7174 201.734 78.7174 201.027 78.7739C198.171 78.9577 189.927 79.792 178.997 83.3834C175.929 84.3025 173.016 85.3913 170.273 86.6497C143.365 98.9229 131.671 126.651 126.652 158.451C125.62 165.026 126.072 177.483 124.587 182.587C123.626 185.867 114.916 192.782 113.276 199.017C112.074 203.599 113.346 214.274 112.342 215.815C111.89 216.522 108.426 216.607 106.828 217.993C103.745 220.651 103.731 227.693 101.794 229.135C100.423 230.153 97.3967 229.729 95.714 230.761C89.3936 234.635 91.1186 239.315 88.5735 243.656C75.3811 266.082 77.4879 270.62 71.8037 294.686C63.7016 329.003 42.6617 318.907 22.357 337.713C16.588 343.058 0.836282 365.356 0.0727349 372.553C-0.733231 380.174 5.29028 380.174 11.6249 380.867C28.4936 382.748 45.631 381.687 62.528 382.366C74.7165 382.861 87.5978 385.293 100.239 383.964C99.2066 396.774 101.596 408.892 108.199 419.921C110.236 423.314 115.213 425.775 115.694 429.507C116.499 435.658 113.276 449.826 114.053 458.762C118.818 513.073 192.006 520.524 228.854 493.39C234.255 501.789 239.077 510.641 245.878 518.05C291.55 567.85 363.889 539.075 403.932 497.265L437.797 457.942L424.336 549.638C427.065 555.463 431.307 551.773 436.27 551.943C438.603 560.879 429.483 584.789 434.587 591.378C440.696 599.268 518.86 610.82 532.632 612.022C541.767 609.972 596.756 622.414 578.898 601.205C570.626 591.378 532.35 576.362 530.271 563.41C529.847 560.751 536.62 534.593 537.836 532.84C539.236 530.804 546.659 532.119 547.324 529.347C546.433 507.431 549.459 485.67 552.598 464.051C554.139 461.944 554.648 462.75 556.557 463.23C563.047 464.871 575.066 476.055 580.693 476.14C584.511 476.197 586.109 469.975 589.347 470.47C598.863 475.419 621.416 497.618 630.974 497.505C633.209 497.477 635.923 496.346 638.073 495.568C670.721 463.527 705.689 428.051 731.31 390.001C733.997 386.014 740.487 378.789 733.742 375.48V375.494ZM370.973 216.14C380.248 221.089 385.268 234.819 386.781 244.702C387.375 248.605 385.48 261.515 389.298 262.264C403.819 255.067 420.547 259.478 428.295 274.085C430.303 277.888 434.658 287.588 431.675 290.755C429.44 293.131 417.563 299.324 413.137 303.071C396.311 317.281 380.658 340.555 373.065 360.874C369.332 361.354 370.619 360.86 369.827 358.739C367.565 352.701 369.276 346.734 367.791 340.739C356.607 338.321 350.908 339.07 344.517 328.551C337.207 316.504 338.494 306.309 338.494 292.961C335.793 289.115 318.33 296.934 310.737 285.283C305.421 277.139 311.967 272.558 317.553 266.039C333.078 247.926 353.694 232.557 370.987 216.112L370.973 216.14ZM235.896 424.912C240.222 422.678 243.885 420.218 246.939 417.602C248.466 416.287 249.837 414.93 251.068 413.544C252.906 411.451 254.405 409.288 255.592 407.068C264.642 390.03 254.857 369.683 233.025 356.759C232.855 355.486 232.884 353.945 233.011 352.206C233.336 347.851 234.383 342.294 234.962 336.865C235.132 335.239 235.273 333.612 235.344 332.043C235.387 330.997 235.401 329.964 235.372 328.975C235.344 327.985 235.273 327.009 235.146 326.09C235.019 325.171 234.849 324.294 234.623 323.46C233.591 319.742 231.357 317.083 227.086 316.475C224.372 316.079 221.954 316.843 219.974 317.324C219.621 317.408 219.267 317.493 218.942 317.55C218.772 317.578 218.617 317.606 218.461 317.621C218.15 317.663 217.853 317.677 217.556 317.663C217.132 317.649 216.75 317.55 216.397 317.366C216.171 317.239 215.944 317.069 215.746 316.843C215.548 316.617 215.365 316.348 215.209 316.009C215.124 315.839 215.054 315.655 214.983 315.457C214.841 315.061 214.728 314.595 214.629 314.043C214.53 313.506 214.446 312.884 214.389 312.191C214.276 310.791 214.233 309.066 214.304 306.945C219.706 307.949 225.376 308.472 231.074 308.43C233.93 308.416 236.8 308.246 239.643 307.935C242.485 307.624 245.313 307.157 248.098 306.535C259.212 304.032 269.548 298.9 277.24 290.444L274.582 271.667C283.886 268.231 291.267 260.935 296.81 252.988L309.875 263.056C303.71 273.618 296.258 275.442 304.544 288.352C310.355 297.401 321.257 300.356 331.452 299.211C329.458 319.869 337.334 343.991 360.467 347.257L366.702 369.895L248.225 456.387C248.268 455.623 248.282 454.874 248.268 454.125C248.24 452.64 248.098 451.198 247.844 449.784C247.236 446.263 246.02 442.94 244.492 439.745C242.965 436.549 241.113 433.467 239.233 430.412C238.101 428.574 236.97 426.75 235.881 424.898L235.896 424.912ZM196.601 270.21C194.876 268.358 193.42 266.336 192.741 263.791L249.753 299.211C245.27 299.974 236.758 301.063 228.812 301.105C227.412 301.105 226.026 301.091 224.683 301.021C223.792 300.978 222.915 300.908 222.067 300.837C220.794 300.71 219.578 300.54 218.447 300.328C215.817 299.805 213.64 298.999 212.254 297.811C211.816 297.429 211.321 296.369 210.783 294.926C210.515 294.205 210.246 293.385 209.949 292.509C208.818 289.002 207.56 284.576 206.301 281.593C205.99 280.843 205.679 280.193 205.368 279.67C205.142 279.288 204.901 278.935 204.661 278.567C203.417 276.799 201.861 275.272 200.292 273.788C199.033 272.6 197.746 271.455 196.601 270.225V270.21ZM191.666 191.184C192.953 190.519 194.197 189.812 195.399 189.049C196.601 188.285 197.775 187.479 198.906 186.617C200.037 185.754 201.126 184.849 202.172 183.902C203.219 182.955 204.223 181.965 205.198 180.933C209.072 176.818 212.296 172.081 214.87 166.949C215.52 165.662 216.114 164.361 216.68 163.032C217.245 161.703 217.768 160.36 218.249 158.988C218.489 158.309 218.716 157.617 218.942 156.924C219.607 154.859 220.172 152.752 220.639 150.617C220.794 149.91 220.95 149.203 221.077 148.482C221.346 147.054 221.586 145.626 221.784 144.184C221.883 143.463 221.968 142.742 222.039 142.02C225.856 144.919 229.702 147.86 233.76 150.434C236.801 152.357 239.968 154.067 243.333 155.397C244.45 155.835 245.595 156.231 246.769 156.584C247.278 156.74 247.858 156.881 248.508 157.008C249.159 157.136 249.88 157.277 250.643 157.39C251.661 157.56 252.764 157.701 253.91 157.857C255.338 158.041 256.808 158.196 258.265 158.352C259.127 158.451 259.99 158.536 260.81 158.62C264.656 159.016 267.823 159.356 268.318 159.681C270.071 160.883 271.019 167.345 273.323 169.31C279.715 174.74 286.035 171.841 293.557 183.761C308.56 207.544 304.134 233.235 289.061 250.98C288.142 252.055 287.195 253.101 286.205 254.119C285.71 254.629 285.201 255.123 284.692 255.618C283.66 256.594 282.599 257.555 281.51 258.46C278.767 260.751 275.812 262.815 272.673 264.639C271.415 265.36 270.128 266.053 268.813 266.704C266.847 267.665 264.811 268.542 262.733 269.305C260.64 270.069 258.505 270.734 256.313 271.299C254.857 271.667 253.372 271.992 251.873 272.261C248.126 272.939 244.252 273.293 240.279 273.293C235.514 273.293 230.621 272.784 225.658 271.695C224.768 271.497 223.467 271.115 221.926 270.578C220.992 270.253 219.974 269.885 218.885 269.461C218.164 269.178 217.415 268.881 216.651 268.556C209.383 265.53 200.532 260.949 198.114 257.145C197.732 256.537 197.52 255.958 197.492 255.406C197.421 254.119 197.52 252.649 197.676 251.051C198.171 246.272 199.33 240.418 198.963 235.201C198.779 232.458 198.397 229.729 197.845 227.028C196.941 222.532 195.569 218.106 193.858 213.807C191.115 206.936 187.509 200.403 183.494 194.422C186.378 193.559 189.107 192.457 191.681 191.142L191.666 191.184ZM158.834 145.131C173.044 90.2129 244.549 89.2655 271.344 134.329C264.09 131.43 258.123 126.269 250.813 123.271C218.857 110.192 180.553 117.813 158.834 145.117V145.131ZM321.116 139.277C330.901 144.396 349.438 166.694 352.591 177.157C357.257 192.598 352.704 209.636 350.71 225.275L312.971 259.167L302.183 244.575C306 235.483 309.337 226.095 308.334 216.027C317.199 213.256 314.329 232.74 322.219 227.594C325.556 225.416 318.033 213.327 320.72 209.155C324.297 201.987 329.289 195.313 328.384 186.744L331.48 192.895L336.132 192.188L337.56 189.204C337.49 181.512 332.06 176.974 329.289 171.191C327.549 167.557 326.956 163.626 325.018 160.049C321.088 152.837 308.588 144.014 308.277 138.245C307.952 132.165 318.91 138.118 321.13 139.292L321.116 139.277ZM322.176 176.733C322.982 186.985 319.391 204.588 308.334 208.293C307.358 190.732 298.634 170.568 280.832 164.898L275.996 140.55C297.008 135.799 320.522 155.552 322.176 176.719V176.733ZM132.958 168.886C133.085 166.935 133.255 164.941 133.481 162.947C133.693 160.939 133.948 158.931 134.259 156.895C134.556 154.873 134.909 152.837 135.305 150.801C137.469 139.603 141.074 128.404 146.546 118.676C147.536 116.909 148.597 115.183 149.714 113.529C150.831 111.861 152.019 110.263 153.263 108.722C154.507 107.18 155.836 105.71 157.222 104.31C161.379 100.125 166.172 96.604 171.645 94.0023C171.998 93.8326 172.479 93.6205 173.059 93.3802C173.44 93.2246 173.879 93.0408 174.345 92.857C175.278 92.4894 176.367 92.0793 177.555 91.6551C179.916 90.8067 182.645 89.8735 185.261 89.0817C185.586 88.9827 185.912 88.8838 186.237 88.7848C188.499 88.1202 190.634 87.5688 192.345 87.2718C192.585 87.2294 192.826 87.187 193.052 87.1587C193.278 87.1304 193.49 87.1022 193.688 87.0739C193.688 87.0739 205.792 85.7165 212.31 86.4942C212.353 86.4942 212.381 86.4942 212.424 86.5083C212.791 86.5083 213.159 86.4942 213.541 86.4942C216.298 86.5224 219.069 86.678 221.827 86.9466C230.098 87.7809 238.299 89.7463 246.034 92.7863C248.607 93.8043 251.138 94.9355 253.598 96.1798C258.519 98.6825 263.185 101.652 267.47 105.088C270.326 107.378 292.751 130.27 289.839 132.787C286.869 132.208 279.743 133.819 277.749 132.547C277.099 132.137 276.759 128.998 275.756 127.669C271.33 121.787 266.565 116.753 261.559 112.497C259.891 111.083 258.208 109.754 256.497 108.51C254.786 107.265 253.047 106.106 251.294 105.045C246.91 102.373 242.428 100.224 237.889 98.5835C236.079 97.9331 234.255 97.3534 232.417 96.8585C231.498 96.6181 230.593 96.3778 229.674 96.1798C226.931 95.5577 224.174 95.1193 221.431 94.8365C218.687 94.5679 215.944 94.4689 213.23 94.5255C197.831 94.9072 183.112 100.662 171.418 110.871C168.661 113.275 166.088 115.919 163.698 118.803C162.51 120.245 161.365 121.744 160.276 123.3C154.281 131.854 149.912 142.134 147.805 153.898C147.423 156.033 147.112 158.225 146.886 160.459C146.433 164.927 146.278 169.579 146.476 174.414L132.619 177.497C132.647 174.711 132.76 171.827 132.958 168.886ZM121.265 197.519C122.82 194.549 125.012 191.778 127.642 189.374C128.957 188.172 130.371 187.055 131.855 186.065C134.839 184.072 138.119 182.531 141.47 181.611C144.821 180.692 148.243 180.41 151.495 180.933C181.726 185.797 201.423 236.558 186.534 262.25C176.028 259.648 170.938 254.841 167.53 248.789C167.106 248.025 166.71 247.262 166.328 246.456C166.144 246.06 165.946 245.65 165.777 245.254C165.225 244.038 164.716 242.779 164.221 241.493C163.726 240.206 163.231 238.891 162.722 237.534C161.549 234.395 160.276 231.114 158.636 227.763C158.212 226.915 157.802 226.123 157.392 225.388C156.784 224.299 156.19 223.338 155.596 222.489C155.2 221.924 154.804 221.415 154.408 220.934C154.012 220.467 153.616 220.043 153.22 219.661C152.824 219.279 152.414 218.94 152.004 218.629C151.382 218.162 150.746 217.781 150.096 217.455C149.657 217.243 149.205 217.045 148.738 216.89C148.272 216.72 147.791 216.579 147.296 216.452C145.797 216.07 144.157 215.844 142.276 215.617C141.965 215.575 141.64 215.547 141.315 215.504C139.689 215.32 137.893 215.122 135.871 214.84C135.065 214.726 134.231 214.599 133.354 214.444C129.579 212.125 121.406 218.53 119.469 215.999C119.342 215.829 119.243 215.532 119.158 215.122C118.564 212.266 118.903 204.178 119.469 202.071C119.681 201.294 119.935 200.516 120.232 199.753C120.529 198.989 120.883 198.24 121.265 197.49V197.519ZM101.907 263.141C101.596 262.207 101.299 261.274 101.002 260.355C100.705 259.436 100.437 258.531 100.168 257.654C99.8994 256.778 99.6449 255.915 99.4187 255.095C99.0652 253.851 98.74 252.691 98.4713 251.617C98.0188 249.835 97.6794 248.336 97.5239 247.233C96.7038 241.719 96.1807 236.728 103.321 237.59C103.35 238.297 103.519 239.358 103.83 240.701C103.986 241.366 104.17 242.115 104.382 242.893C104.707 244.08 105.089 245.381 105.527 246.767C105.824 247.686 106.135 248.647 106.474 249.623C106.983 251.079 107.521 252.592 108.1 254.091C108.482 255.095 108.892 256.099 109.302 257.089C109.924 258.573 110.561 260.03 111.211 261.416C112.526 264.173 113.884 266.647 115.199 268.443C116.075 269.645 116.938 270.55 117.744 271.059C118.154 271.313 118.55 271.469 118.917 271.511C119.101 271.525 119.285 271.511 119.469 271.483C120.148 271.342 120.586 270.988 120.854 270.465C120.982 270.21 121.081 269.899 121.123 269.574C121.166 269.235 121.18 268.867 121.151 268.471C121.067 267.269 120.671 265.813 120.105 264.243C119.921 263.72 119.709 263.197 119.497 262.66C119.285 262.123 119.045 261.585 118.804 261.034C118.564 260.496 118.324 259.945 118.069 259.422C117.701 258.616 117.32 257.838 116.952 257.089C116.584 256.339 116.231 255.632 115.906 254.968C115.481 254.091 115.1 253.314 114.817 252.677C114.675 252.366 114.562 252.083 114.478 251.843C113.7 249.637 112.554 246.668 111.536 243.444C109.302 236.36 107.662 228.018 111.777 223.649C112.894 222.461 113.827 221.867 114.619 221.697C114.774 221.669 114.93 221.655 115.071 221.655C115.368 221.655 115.637 221.726 115.877 221.839C116.005 221.895 116.118 221.98 116.231 222.065C116.811 222.503 117.249 223.267 117.617 224.214C117.758 224.596 117.885 224.992 117.998 225.416C118.225 226.264 118.408 227.183 118.564 228.117C119.002 230.902 119.129 233.73 119.37 234.607C119.596 235.441 120.077 236.855 120.699 238.622C121.222 240.093 121.858 241.804 122.551 243.628C122.693 243.995 122.834 244.363 122.975 244.731C123.258 245.48 123.555 246.23 123.852 247.007C124.305 248.153 124.757 249.312 125.224 250.457C125.69 251.603 126.143 252.72 126.595 253.808C128.405 258.135 130.059 261.741 130.88 262.815C131.063 263.056 131.276 263.254 131.488 263.409C132.152 263.876 132.958 263.961 133.807 263.947C134.089 263.947 134.372 263.918 134.669 263.89C134.952 263.862 135.249 263.833 135.532 263.805C135.814 263.777 136.097 263.763 136.38 263.749C136.663 263.749 136.931 263.749 137.186 263.777C137.681 263.296 137.582 262.08 137.073 260.355C136.875 259.662 136.606 258.885 136.281 258.05C135.645 256.368 134.81 254.416 133.891 252.295C131.12 245.933 127.543 238.099 126.129 231.779C125.775 230.195 125.563 228.711 125.521 227.367C125.521 226.915 125.521 226.491 125.549 226.066C125.704 223.988 126.411 222.334 127.868 221.33C128.9 220.623 129.975 220.269 130.964 220.255C132.562 220.213 133.99 221.019 134.867 222.546C135.192 223.111 135.447 223.79 135.602 224.553C135.758 225.317 135.913 226.109 136.055 226.915C136.634 230.139 137.129 233.645 137.766 237.18C138.246 239.838 138.798 242.525 139.505 245.127C141.4 252.069 144.44 258.432 150.265 262.25C151.368 261.416 151.99 260.836 152.287 260.129C152.584 259.422 152.542 258.573 152.33 257.202C150.958 248.28 139.151 235.823 143.351 223.748C144.284 222.8 145.26 222.673 146.25 223.154C146.645 223.338 147.041 223.62 147.437 223.988C148.441 224.907 149.431 226.321 150.407 228.032C150.788 228.711 151.184 229.446 151.552 230.195C151.934 230.959 152.301 231.751 152.655 232.557C153.008 233.363 153.362 234.183 153.701 235.017C153.871 235.427 154.041 235.851 154.196 236.261C156.331 241.634 157.943 246.823 158.48 247.912C160.361 251.801 162.213 254.671 164.094 256.905C164.476 257.357 164.843 257.782 165.239 258.192C165.748 258.729 166.257 259.224 166.78 259.691C167.558 260.383 168.35 261.005 169.17 261.571C169.707 261.953 170.259 262.306 170.824 262.66C171.107 262.829 171.39 262.999 171.673 263.169C172.238 263.494 172.818 263.819 173.412 264.144C177.272 266.209 181.655 268.104 187.014 271.794C191.836 275.117 195.498 279.09 198.326 283.53C198.892 284.421 199.415 285.326 199.924 286.245C200.928 288.097 201.79 290.02 202.568 291.985C203.713 294.955 204.633 298.037 205.368 301.219C205.863 303.34 206.273 305.489 206.64 307.68C207.008 309.858 207.305 312.078 207.574 314.298C207.701 315.415 207.828 316.532 207.955 317.649L151.934 322.202C149.968 321.707 147.466 313.011 145.557 310.169C142.856 306.153 139.18 303.198 135.15 300.681C133.538 299.677 131.869 298.73 130.187 297.825C128.504 296.92 126.807 296.044 125.139 295.153C123.88 294.488 122.664 293.809 121.448 293.117C120.232 292.424 119.059 291.717 117.928 290.953C116.429 289.949 115.015 288.875 113.728 287.687C112.441 286.499 111.282 285.213 110.292 283.77C108.214 280.744 105.018 272.614 102.317 264.611C102.162 264.144 102.006 263.664 101.851 263.197L101.907 263.141ZM227.949 484.002C226.097 485.67 224.117 487.225 222.01 488.668C219.946 490.082 217.768 491.382 215.506 492.57C214.007 493.362 212.466 494.097 210.897 494.79C210.119 495.129 209.327 495.469 208.535 495.794C204.774 497.321 200.9 498.551 197.039 499.513C196.644 499.612 196.248 499.711 195.866 499.796C194.424 500.135 192.981 500.432 191.553 500.701C187.396 501.45 183.168 501.846 178.955 501.86C178.926 501.86 178.898 501.86 178.87 501.86C177.809 501.86 176.749 501.86 175.688 501.803C173.568 501.719 171.475 501.549 169.382 501.294C167.289 501.026 165.225 500.686 163.189 500.234C159.117 499.357 155.143 498.113 151.382 496.529C133.51 488.979 120.148 473.552 120.133 451C120.133 449.699 120.275 448.285 120.515 446.8C120.586 446.305 120.685 445.796 120.77 445.301C120.953 444.283 121.18 443.251 121.406 442.205C122.551 436.987 123.965 431.586 123.4 427.98C123.343 427.627 123.145 427.146 122.834 426.581C122.679 426.298 122.495 425.987 122.283 425.676C120.416 422.749 116.613 418.238 113.841 414.251C112.611 412.483 111.579 410.815 110.999 409.443C105.866 397.227 107.21 384.176 112.3 372.143C113.403 369.541 116.203 365.681 118.493 362.443C119.257 361.369 119.964 360.365 120.529 359.488C120.713 359.205 120.897 358.922 121.052 358.668C121.519 357.904 121.816 357.296 121.873 356.929C121.986 356.08 121.915 354.992 121.703 353.705C121.151 350.297 119.681 345.645 118.649 341.29C118.394 340.202 118.154 339.141 117.97 338.109C117.687 336.568 117.532 335.14 117.532 333.881C117.532 333.542 117.56 333.132 117.617 332.665C117.715 331.732 117.899 330.558 118.168 329.215C118.239 328.876 118.309 328.536 118.38 328.183C118.536 327.476 118.705 326.741 118.889 325.977C119.073 325.214 119.285 324.422 119.511 323.616C119.738 322.81 119.978 321.99 120.218 321.17C120.473 320.35 120.741 319.515 121.01 318.709C121.434 317.479 121.873 316.263 122.353 315.104C122.664 314.326 122.99 313.577 123.329 312.855C123.994 311.413 124.701 310.098 125.436 308.981C125.803 308.43 126.171 307.935 126.553 307.497C126.737 307.285 126.935 307.072 127.118 306.889C128.066 305.955 129.056 305.46 130.031 305.545C131.177 305.644 132.619 306.408 134.132 307.581C135.645 308.755 137.228 310.339 138.656 312.092C139.363 312.969 140.042 313.874 140.636 314.793C140.933 315.245 141.216 315.712 141.484 316.164C142.008 317.083 142.446 317.988 142.785 318.837C143.28 320.123 143.521 321.325 143.407 322.329L126.426 324.634C120.473 332.58 123.343 342.846 128.73 351.485C130.017 353.535 131.431 355.501 132.916 357.325C133.51 358.046 134.104 358.753 134.712 359.431C135.616 360.449 136.536 361.411 137.44 362.288C137.737 362.585 138.049 362.867 138.345 363.15C138.02 363.801 137.695 364.465 137.398 365.13C136.79 366.473 136.21 367.859 135.687 369.287C134.104 373.557 132.902 378.124 132.195 382.79C131.488 387.456 131.261 392.221 131.601 396.859C131.77 399.178 132.081 401.469 132.562 403.703C133.651 408.92 135.588 413.827 138.487 418.097C138.897 418.705 139.335 419.299 139.788 419.893C140.693 421.052 141.682 422.169 142.771 423.215C144.92 425.308 147.409 427.132 150.265 428.645C152.4 426.694 152.414 424.686 151.411 422.607C151.227 422.226 151.015 421.844 150.76 421.462C150.633 421.264 150.506 421.08 150.378 420.882C147.932 417.39 143.521 413.629 141.81 409.457C140.961 407.379 140.297 405.286 139.802 403.208C139.052 400.083 138.671 396.972 138.6 393.876C138.572 392.843 138.586 391.811 138.614 390.779C138.996 380.471 142.446 370.291 146.278 360.421C145.741 359.926 145.203 359.431 144.666 358.937C143.591 357.947 142.545 356.943 141.513 355.911C140.495 354.893 139.505 353.846 138.557 352.786C137.61 351.725 136.719 350.622 135.871 349.505C135.037 348.374 134.259 347.215 133.552 346.027C131.445 342.421 130.003 338.462 129.621 333.924C129.565 333.174 129.522 332.396 129.522 331.605L228.175 323.884L225.39 359.785C225.814 360.167 226.238 360.548 226.691 360.93C227.567 361.694 228.472 362.457 229.405 363.235C231.724 365.158 234.156 367.109 236.532 369.131C237.479 369.937 238.427 370.757 239.346 371.577C240.731 372.822 242.061 374.08 243.319 375.381C249.187 381.447 253.259 388.262 251.803 396.576C251.28 399.546 250.049 402.699 247.943 406.078C247.221 407.223 246.5 408.213 245.765 409.076C243.573 411.649 241.311 413.021 238.978 414.039C238.582 414.208 238.2 414.364 237.804 414.519C236.617 414.972 235.429 415.382 234.199 415.834C232.573 416.442 230.904 417.121 229.193 418.153C227.087 419.412 226.606 421.405 227.101 423.809C227.228 424.417 227.412 425.039 227.652 425.69C227.765 426.015 227.907 426.34 228.048 426.68C228.331 427.344 228.656 428.037 229.024 428.744C230.112 430.851 231.526 433.085 232.983 435.305C233.464 436.04 233.958 436.789 234.439 437.525C235.16 438.628 235.867 439.716 236.532 440.777C236.97 441.484 237.394 442.177 237.79 442.855C237.988 443.195 238.172 443.52 238.356 443.859C238.709 444.51 239.035 445.146 239.303 445.768C239.713 446.687 240.01 447.535 240.166 448.327C240.745 451.169 241.014 453.898 241.014 456.514C241 464.008 238.681 470.569 234.849 476.197C234.482 476.748 234.086 477.285 233.69 477.808C232.94 478.798 232.149 479.774 231.3 480.707C230.254 481.867 229.137 482.969 227.949 484.044V484.002ZM543.647 587.136C545.881 588.819 548.229 590.332 550.632 591.774C551.834 592.495 553.036 593.202 554.252 593.895C556.684 595.28 559.116 596.652 561.534 598.066C562.736 598.773 563.924 599.494 565.111 600.244C567.459 601.742 569.749 603.34 571.913 605.136C557.306 605.857 542.46 605.348 527.684 603.976C512.893 602.619 498.174 600.399 483.78 597.698C481.673 597.302 475.819 596.101 469.018 594.531C467.788 594.248 466.515 593.951 465.228 593.64C463.305 593.188 461.354 592.707 459.417 592.212C457.48 591.717 455.571 591.222 453.747 590.713C449.491 589.54 445.673 588.352 443.029 587.277C440.766 586.358 439.352 585.51 439.253 584.831L443.99 553.484H524.149C523.781 554.389 523.498 555.279 523.3 556.156C522.989 557.471 522.848 558.772 522.848 560.03C522.848 560.455 522.862 560.865 522.904 561.289C523.003 562.533 523.244 563.749 523.611 564.937C526.383 574.057 536.196 581.509 543.676 587.122L543.647 587.136ZM539.377 525.6L434.729 544.251L446.366 446.362L444.782 444.467L443.199 442.572C442.35 443.421 441.516 444.283 440.682 445.16C438.179 447.762 435.704 450.406 433.272 453.092C428.394 458.465 423.629 463.966 418.85 469.452C416.46 472.195 414.071 474.938 411.653 477.667C410.847 478.572 410.041 479.477 409.235 480.382C404.385 485.797 399.436 491.1 394.261 496.162C388.237 502.058 381.903 507.629 375.087 512.62C370.223 516.183 365.09 519.464 359.661 522.377C359.222 522.603 358.77 522.871 358.275 523.168C357.78 523.451 357.271 523.762 356.748 524.073C355.688 524.695 354.556 525.332 353.425 525.855C352.86 526.109 352.28 526.35 351.714 526.534C351.431 526.633 351.149 526.703 350.866 526.774C350.3 526.915 349.749 527 349.197 527C348.929 527 348.66 527 348.391 526.972C347.868 526.915 347.359 526.774 346.864 526.534C350.866 523.607 354.627 520.496 358.19 517.244C364.129 511.8 369.502 505.918 374.465 499.711C375.455 498.466 376.431 497.208 377.392 495.95C379.301 493.419 381.153 490.831 382.963 488.215C386.555 482.969 389.934 477.554 393.172 472.039C402.052 456.868 409.843 440.904 418.016 425.35C419.5 422.522 420.999 419.709 422.526 416.923C423.29 415.523 424.053 414.138 424.831 412.752C426.372 409.981 427.942 407.238 429.554 404.523C430.36 403.165 431.165 401.822 431.986 400.479C454.1 364.437 502.769 320.816 535.262 373.684C563.528 419.68 539.207 476.013 539.434 525.615L539.377 525.6ZM579.619 468.08L555.284 454.563C556.614 424.403 557.052 387.781 536.493 363.15C497.806 316.758 450.905 356.42 427.334 394.328C416.305 412.059 406.647 432.321 395.986 452.074C394.346 455.114 392.677 458.14 390.98 461.152C390.132 462.651 389.284 464.15 388.407 465.634C386.682 468.618 384.914 471.559 383.105 474.471C382.2 475.928 381.281 477.37 380.361 478.812C378.509 481.683 376.6 484.511 374.635 487.282C371.694 491.439 368.611 495.469 365.387 499.329C356.762 509.637 347.02 518.785 335.609 526.067C329.19 530.167 322.813 533.01 316.535 534.749C311.515 536.149 306.566 536.827 301.716 536.884C299.298 536.912 296.894 536.785 294.519 536.502C293.331 536.361 292.158 536.191 290.984 535.979C288.651 535.555 286.332 534.989 284.07 534.282C277.254 532.161 270.764 528.838 264.712 524.554C262.69 523.126 260.725 521.585 258.802 519.959C254.009 515.872 249.54 511.178 245.482 506.017C241.41 500.856 237.748 495.228 234.524 489.29L239.643 481.965L252.086 464.178L375.667 371.224C399.493 310.621 443.142 276.686 510.574 284.279C565.875 290.501 610.811 346.635 645.652 385.123L644.407 391.034L579.591 468.109L579.619 468.08ZM619.945 484.072C619.592 483.987 619.224 483.832 618.828 483.676C618.63 483.592 618.432 483.507 618.22 483.408C617.443 483.068 616.623 482.588 615.76 482.008C613.611 480.566 611.235 478.515 608.775 476.38C607.785 475.518 606.781 474.655 605.777 473.807C605.268 473.383 604.759 472.959 604.25 472.549C603.232 471.728 602.214 470.937 601.196 470.215C599.174 468.773 597.166 467.628 595.257 467.006L595.781 462.552L664.514 409.542L699.849 396.336L622.745 483.436C621.685 484.214 620.85 484.313 619.945 484.072ZM715.276 398.089C710.511 404.396 705.745 410.73 700.924 417.022C693.684 426.467 686.317 435.8 678.597 444.792C674.737 449.289 670.792 453.686 666.734 457.971C665.744 459.017 664.641 460.176 663.453 461.406C662.266 462.637 661.007 463.937 659.692 465.295C659.028 465.974 658.363 466.666 657.67 467.359C653.556 471.53 649.045 475.984 644.817 479.901C641.282 483.153 637.945 486.038 635.188 488.074C634.665 488.456 634.198 488.837 633.76 489.177C632.445 490.181 631.286 490.817 628.952 490.308C628.882 490.251 628.854 490.152 628.854 490.011C628.854 489.742 629.023 489.346 629.278 488.852C629.405 488.611 629.561 488.328 629.744 488.046C631.187 485.727 634.057 482.178 636.093 479.76C637.111 478.544 637.917 477.61 638.228 477.257C661.432 450.844 686.402 419.751 709.846 394.752C714.159 390.157 719.235 383.667 726.05 384.006C722.445 388.658 718.853 393.367 715.276 398.103V398.089Z" fill="#1E3D34"/>
</svg>
