<?xml version="1.0" encoding="UTF-8"?>
<svg id="Layer_1" data-name="Layer 1" xmlns="http://www.w3.org/2000/svg" viewBox="0 0 1500 1500">
  <defs>
    <style>
      .cls-1 {
        fill: #263c34;
      }
    </style>
  </defs>
  <path class="cls-1" d="M1340.29,883.06c-15.95-5.44-33.48-8.49-49.72-13.19-1.2-5.18,1.74-5.44,4.65-7.93,7.51-6.41,40.45-24.07,37.31-35.36-4.39-6.18-7.42-4.39-13.16-2.05-15.41,6.29-24.42,25.04-39.96,31.38.31-10.47,8.86-67.3-4.23-67.04-1.43,2.05-6.57,5.39-7,6.93v.03c-3.54,12.44,2.61,40.1,0,54.52-16.11-4.28-16.98-34.18-36.36-33.53-5.77,5.98,20.12,41.1,25.17,47.49-9.76,2.05-56.65,1.1-58.72,9.85-.42,4.64,3.1,6.31,7.06,7,12.3,2.16,34.46-6.7,48.87-2.82l-42.04,48.88c8.58,20.73,27.4-15.98,39.23-20.96-1.49,7.16-16.02,42.36-4.14,44.72,10.42,2.08,21.5-46.72,23.75-55.91,9.85,5.88,15.15,44.82,26.51,44.85l6.9-4.59-19.42-51.44c13.99-1.05,61.31,21.5,69.99,15.45,11.83-8.29-8.27-14.09-14.68-16.27Z"/>
  <path class="cls-1" d="M364.64,479.81l4.28,6.93,26.55-22.3-5.53,33.56,10.78-.41,14.41-44.31c13.75,8.26,6.93,37,27.93,36.33l-13.94-47.52c8.95.46,58.88,22.19,61.5,9.75,1.16-5.41-5.64-6.36-8.93-7.77-14.37-6.18-34.35-9.44-49.77-13.16-1.2-5.18,1.74-5.44,4.65-7.93,2.4-2.05,46.36-29.45,27.46-34.02-11.14-2.69-29.02,25.3-40.52,27.97l-.02-.03v-51.73l-4.23-4.18-6.97,4.18v48.93c-6.51,1.56-4.61-1.26-6.41-3.54-3.83-4.87-17.58-33.87-24.35-27.2-6.13,9.42,22.3,39.67,19.56,41.92l-47.34,5.82-.22,8.16,47.58-2.75-36.45,43.28Z"/>
  <polygon class="cls-1" points="747.92 201.63 741.84 147.59 739.74 144.1 731.15 142.89 736.65 199.8 747.92 201.63"/>
  <path class="cls-1" d="M680.8,212.79c3.19-3.28-14.93-48.49-17.24-49.83v.03c-2.7-1.56-7.4-.13-10.71-.49-2.21,2.03,14.93,44.46,18.22,47.47,3.52,3.21,4.95,3.44,9.73,2.82Z"/>
  <path class="cls-1" d="M828.4,210.73c2.27-4.03,10.83-31.82,11.34-36.38.6-5.39-.4-8.78-6.46-9.08-3.59.87-17.09,38.49-17.71,44.03-1.27,11.55,7.11,11.62,12.83,1.44Z"/>
  <path class="cls-1" d="M618.14,243.37c-1.27-4.54-29.36-37.02-33.77-36.15-13.14,2.57,11.67,28.43,15.26,32.23,4.83,5.08,23.61,22.25,18.51,3.93Z"/>
  <path class="cls-1" d="M875.16,243.47c1.45-1.18,21.58-28.61,22.46-30.69,3.47-7.95-4.3-11.57-12.23-3.8-3.77,3.67-26.31,33.97-22.75,37.33,1.83,1.74,9.4-.33,12.52-2.85Z"/>
  <path class="cls-1" d="M644.43,235.13c3.7-3.41-8.93-24.53-16.75-22.35-4.01,8.39,8.18,30.25,16.75,22.35Z"/>
  <path class="cls-1" d="M736.78,562.34c.33,33.79,56.42,38.97,74.63,18.73l.04.03c1.18-1.33,3.1-4.8,2.87-6.21-2.16-12.52-13.81-.18-19.65,1.98-13.39,4.93-21.45,6.98-34.7,0-8.85-4.67-12.23-15.75-23.19-14.52Z"/>
  <path class="cls-1" d="M640.57,523.3c-4.16,1.1-6.1,9.29-4.5,11.03.54.59,12.25.69,13.77,7-11.98,10.37-10.51,29.04,5.79,15.4-1.42,6.31-.31,30.22,9.74,19.52,12.05-12.85-7.13-57.63-24.81-52.96Z"/>
  <path class="cls-1" d="M719.99,542.77l18.25-8.54,11.11,8.47c5.13-3.16,3.12-9.62,5.72-13.78,1.47-2.34,15.37-8.47,9.65-14.11v.03c-1.8-1.79-24.15,6.39-32.28,5.82-10.23-.72-20.58-12.47-23.63,1.1,8.75,7.57,13.9,7.16,11.18,21.01Z"/>
  <path class="cls-1" d="M801.03,505.39c-3.19-7.34-17.08,1.02-7.75,18.6,4.72,8.9,14.21,8.85,18.94,15.93-7.46.77-27.98,4.36-25.13,15.37,1.05,4.13,4.79,3.82,8.42,2.95,7-1.67,37.04-11.65,38.83-17.37,1.36-4.31-2.85-8.93-2.54-9.31,0,0,0,0,.01,0-14.66-3.64-32.08-7.85-30.79-26.16Z"/>
  <path class="cls-1" d="M831.84,531.56s0,0-.01-.01c0,0,0,0-.01,0h.02Z"/>
  <path class="cls-1" d="M1105.97,1001.32c-.4-7.72,9.15-9.75,14.1-15.24,36.18-40.16,42.99-90.11,6.99-133.14-4.34-5.21-11.78-3.57-9.91-10.98,38.87-13.68,50.88-45.6,47.22-84.98-.64-6.82-2.9-26.66-10.6-27.12l-.25-5.34,118.57-42.28c8.85-3.77,21.83-15.63,20.58-25.91-.6-4.82-6.24-8.24-7.24-12.29-1.38-5.7,3.21-10.65.38-16.65-2.59-5.52-10.87-7.47-11.61-10.8-.98-4.34,4.83-10.47.31-20.06-4.52-9.6-15.73-7.75-17.15-9.44-1.98-2.36,1.47-15.01-5.08-19.37-20.96-14.01-62.91,13.52-84.78,19.76.85-8.31-3.38-21.45-12.67-22.4-8.78-.9-75.74,27.3-86.19,34.05-35.17,22.71-39.67,66.97-38.22,105.81-11.4-4.93-20.98,7.23-27.89,15.45-12.19,14.42-18.93,31.99-26.64,48.85-15.93-22.68-38.56-41.44-65.56-49.11-6.28-1.79-15.21.13-19.8-2.57-3.7-2.18-9.15-19.52-13.88-25.25-15.42-18.6-45.8-24.73-68.59-26.55-4.14-.33-8.13,2.26-6.95-4.13l38.07-25.91c52.7.9,112.25,6.03,164.8,2.26,3.14-.23,13.86-1.51,14.99-3.18l.05.05c8.95-13.29-33.41-24.58-42.62-30.97-23.37-16.24-16.93-37.36-23.35-60.55-12.34-44.64-64.29-48.52-85.38-85.21-10.32-17.94-12.88-38.69-30.41-53.5-17.18-14.52-45.75-23.6-68.1-20.96-20.21,2.39-13.16,1.44-31.14-.1-39.1-3.31-74.54,9.37-99.06,40.49-18.51,23.48-20,58.6-48.96,71.3-14.75,6.47-30.61,6.93-45.36,16.16-29.54,18.5-37.31,52.09-55.65,78.59-5.19,7.47-31.28,33.25-31.68,35.59-.96,5.21,7.4,10.08,12.21,9.54l202.89-5.72-2.89,27.81c-30.67-2.75-57.49,14.98-73.13,40.15-3.38,5.42-7.91,20.84-10.67,22.89-9.53,7-52.61,6.75-62.95,26.58h-4.14c-3.38-14.24-12.74-29.56-22.34-40.62-6.99-8.06-16.78-20.24-28.02-15.32,2-22.22-.36-36.38-15.71-52.83-12.28-13.19-90.49-64.63-106.04-64.35-6.84.13-11.38,8.03-15.5,6.98-5.59-1.41-24.24-18.37-33.28-22.71-13.74-6.62-34.6-14.19-47.58-2.64-4.08,3.62-4.43,10.62-6.26,11.93-3.14,2.21-11.45.05-17.71,6.03-7.86,7.49-3.88,16.91-5.64,19.78-2.47,3.95-12.43,5.67-14.63,13.08-3.88,13.01,5.44,22.99,4.61,26.99-1.27,6.34-13.16,8.08-6.75,27.15,5.93,17.62,88.55,47.77,106.48,61.29,7.11,11.68-9.87,41.39-7.02,55.96-55.78-22.5-112.49,38.72-83.87,92.24-29.76,1.44-62.11,14.98-50.34,50.34-32.63,2.8-40.37,27.07-1.4,30.74,35.26,3.31,89.35,3,125.82,3,10.14-.03,36.11-7.34,42.01-.23,2.59,3.16,4.79,16.42,8.18,22.58,2.25,4.1,18.15,22.58,15.53,24.99-71.77,14.7-110.38,88.49-76.03,155.74,34.46,67.51,135.04,111.12,204.7,129.55-7.6,11.06-58.67,60.14-28.85,69.33s82.75-38.54,111.69-46.08l136.04,26.99c5.44,15.32,13.37,12.14,28.76,11.34,138.34-7.05,376.93-40.28,465.51-158.15,69.73-92.78-3.97-164.29-95.03-188.71ZM1273.77,629.44l-.02.03c1.71,12.73-17.6,17.94-27.38,21.53-4.35,1.59-30.59,9.26-32.48,8.8l-7.2-9.42c9.64-2.64,61.7-26.14,67.09-20.94ZM1264.79,605.63c.93,12.29-49.77,30.38-60.3,31.71-9.13,1.15-13.16-3.1-17.42-10.67h.04c11.85-4.16,23.9-8.52,35.42-13.55,6.97-3.03,40.83-26.27,42.26-7.49ZM1074.24,610.35c10.94-7.52,60.83-29.27,72.91-30.66,20.45-2.33-2.69,18.73-10.72,22.91-5.75,3-31.99,7.98-24.88,18.42,5.68,8.34,40.19-15.06,47.54-18.17,13.46-5.67,66.34-27.43,76.94-26.79,24.9,1.54-7.15,19.76-15.44,23.96-5.08,2.57-40.88,17.37-43.8,17.6-4.21.33-18.36-10.52-20.47-.74-1.16,5.46,22.86,19.81,28.09,24.99,5.7,5.64,26.66,36.72,29.51,37.64,10.07,3.23,7.24-7.16,8.24-8.29,2-2.23,54.85-18.88,57.21-16.63l-.05.03c1.23,7.8-4.17,12.78-10.42,16.14l-139.92,50.44-90.17-13.49c7.46-33.59,3.47-75.46,35.44-97.37ZM845.85,484.04c9.04-6.77,16.55,36.69,13.94,41.92-10.78-11.47-21.54-25.94-13.94-41.92ZM676.33,670.9c3.41-.74,5.92-6.67,6.64-9.96,2-8.98,3.25-38.43,3.67-49.7.36-9.83-7.06-17.73,1.8-27.99-8.2-13.45-10.72-1.28-16.75,2.21-35.8,20.78-54.42-59.06-35.06-70.05,18.29-10.39,24.42,20.43,37.18,16.24,2.61-.87.02-5.95,3.16-8.72,9.49-8.34,36.26-12.21,42.01-30.76,7.71-1.21,43.4,26.71,43.22,1.62-.13-14.63-23.57-17.37-22.63-19.55l25.11-34.97c6.88,16.7,25.02,27.25,39.16,37.74-6.5,6.21-12.94,11.52-8.11,20.76,21.61-.28,21.56-12.5,36.11,10.03-34.87,11.82-15.43,8.7-.01,23.75.35-.23,3.84.59,5.6-1.35,2.54-2.8,1.54-7.7,5.53-7,34.68,64.19-18.91,145.12-93.03,119.59-8.4-2.9-42.92-27.86-46.74-14.68-2.72,9.44,24.9,24.71,32.1,29.33,18.15,11.62,37.33,21.4,57.38,29.28-33.7,44.49-110.85,34.64-128.64-18.14l12.3,2.34ZM233.68,582.28c.51-.82,7.89-3.05,9.69-3.1,9.35-.23,12.59,8.62,19.34,13.83,15.41,11.85,31.23,23.17,47.65,33.58l-7.11,15.63c-3.43,2.08-48.56-27.38-54.51-32.41-6.44-5.44-20.99-18.17-15.06-27.53ZM225.9,604.48c19.58,19.16,43.31,37.38,68.91,47.36l-7.27,13.7c-3.52.8-51.57-27.09-57.12-31.87-9.51-8.19-22.76-22.91-4.52-29.2ZM217.35,659.43c-5.35-6.72-5.48-17.29,5.55-15.55,11.79,1.87,42.44,31.33,58.99,32.92,4.17,3.69-2.4,11.34,11.18,8.72,1.67-11.7,46.09-70.79,40.88-75.61-9.33-4.21-12.07,5.59-12.86,5.72-7.88,1.15-59.45-37.67-61.5-44.7-3.1-10.62,8.95-9.11,16.37-7.96,34.64,5.34,64.13,52.39,82.36,57.58,5.26,1.49,13.28-.36,12.01-6.47-.58-2.62-30.61-21.5-25.15-26.58l-.04.05c7.93-.46,14.72,4.44,21.43,7.9,20.01,10.31,82.31,48.26,88.57,68.02,2.92,9.24,3.41,19.29-2.25,27.58l-120.47,27.63-115.08-59.27ZM332.74,937.13l-172.17-.1,26.71-11.11c2.63-5.67-18.6-20.35,1.4-34.87,15.06-10.93,28.6-4.47,43.21-7.13,17.29-3.18-3.36-22.01-5.68-30.66-11.65-43.62,35.26-81.75,76.36-63.78v.03c6.06,28.3,26.02,53.88,53.77,63.71v4.1c-19.56,20.12-25.35,52.91-23.59,79.82ZM345.06,932.92c-1.8-32.69,10.91-54.57,27.6-80.8-19.31-19.14-44.69-22.01-54.13-52.09-4.5-14.34-3.88-52.83,5.7-64.3,8.67-10.39,129.69-32.61,150.37-33.1,10.43,3.1,32.3,38.69,34.41,49.7,3.45,18.04-11.79,37.51-7.24,57.42,14.66,6.49,12.76-23.76,17.38-35.74,6.46-16.73,24.5-31.97,41.9-36.41,9.67-2.49,25.79-.72,32.92-6.23,4.34-3.36,11.41-26.02,18.24-34.89,5.72-7.49,30.54-30.94,40.28-24.76l.07-.03c19.92,58.99,100.96,74.51,144.51,30.53,7.75-7.82,11-18.19,19.72-24.66,34.19,3.08,55.71,22.94,65.89,54.83,32.21-4.23,69.92,17.5,83.11,46.95,3.97,8.88,8.24,38.61,15.79,40.18,11.09,2.28,3.61-18.19,3.9-23.73,1.51-28.4,13.92-55.47,33.84-75.48,42.64-.03,86.34,8.85,128.06,18.7,9.67,28.63,9.74,59.91-14.88,80.46-8.09,6.75-34.28,16.75-35.08,23.89-1.18,10.6,7.58,8.24,12.77,12.52,66.2,54.81-.14,173.57-80.75,134.81-14.21,12.29-13.45,24.53-35.17,28.97-38.49,7.82-74.54-15.91-75.41-56.4-.24-9.57,6.21-21.45,1.13-31.89-6.82-7.31-17.35-4.16-25.89-7.67-14.92-6.13-20.05-26.22-20.43-41.15-.4-14.93,11.34-39.31-4.01-43.41-8.91,2-7.88,53.29-6.37,62.22,1.72,10.16,9.36,16.55,10.65,25.71,1.47,10.62,1.69,57.37-.13,67.25-.6,3.18-.98,5.67-4.59,6.59l-249.94-2.41c17.17-35.38,20.61-68.17,13.14-106.81-1.92-9.93-4.92-34.71-18.78-25.97,13.61,52.32,19.22,121.15-35.48,151.84-23.99,13.44-56.83,13.86-78.93-3.9-7.44-5.98-14.48-19.81-21.36-20.81-10.34-1.49-21.12,9.52-31.05,13.65-50.12,20.86-99.02-23.12-101.76-73.58ZM918.56,1004.12l-33.72-7.18,2.98-62.68,19.27,5.85c.25,23.01-2.36,44.05,11.47,64.02ZM462.63,1342.49c-2.29-2.44,15.37-24.73,18.13-27.99,21.56-25.3,51.57-55.42,76.92-76.9,21.19-17.96,45.46-39.22,72.74-46.07l-167.79,150.96ZM589.2,1298.46c-42.57-5.39-58.32,24.09-95.79,35.61,38.47-38.9,79.77-82.82,123.37-115.74,26.73-20.17,33.12-25.35,62.53-1.57l26.67,106.12c-6.13,4.57-101.09-22.45-116.79-24.43ZM1217.17,1125.04c-10.94,91.65-151.05,150.77-228.06,171.93-85.81,23.6-177.34,33.82-266.02,39.61l-42.15-170.14c92.53-31.17,192.07-44.13,285.2-71.43,9.87-2.9,49.5-14.63,55.2-18.81,1.34-1,1.27-3.52,2.14-4.92l-3.03-5.52-220.74,55.86c4.65-13.7,24.79-24.97,30.03-37.13,2.87-6.67,3.83-11.93-4.83-13.24-1.92.46-21.07,26.51-25.17,30.79-21.38,22.32-40.76,38.33-74.31,32.25-56.4-10.24-123.52-46.49-181.53-58.99-4.72-1.03-9.25-1.82-14.12-1.26l2.81,9.75,172.26,57.06,3.96,5.85-41.64,11.5,8.06,38.84c-28.58-7.13-37.16-24.84-68.16-10.8-40.67,18.4-79.1,64.84-112.21,94.24-14.68-11.24-34.62-13.62-51.73-20.55-75.29-30.51-206.1-104.32-144.99-203.59,14.08-22.89,50.14-49.9,78.15-45.11,4.9.85,12.1,7.11,18.6,8.9,31.79,8.88,50.41,6.13,77.59-13.24,24.61,21.4,40.23,36.38,75.61,33.69,30.03-2.28,42.66-22.71,59.19-27.48,6.13-1.77,39.74-3.08,49.61-3.51,30.43-1.36,60.37,2.9,89.5,3.05,76.67.38,131.99-9.19,204.2,16.78,27.91,10.06,65.47,6.23,80.35-22.01h.05c4.7-2.8,24.32,5.08,31.79,5.18,8.2.13,15.37-3.44,24.91-2.93,49.41,2.62,136.19,59.01,129.47,115.36Z"/>
  <path class="cls-1" d="M1006.46,464.31c6.62-1.03,15.32-8.6,19.38-7.8,2.16.44,12.01,10.8,17.09,13.65,42.68,23.94,116.48-2.23,74.63-55.17l.07-6.01c28.45-18.17,21.86-61-5.19-78.27-30.45-19.45-56.18-3.23-72.24,24.66-15.99-15.45-36.98-20.14-54.64-4.23-23.19,20.91-1.76,34.33-3.03,41.64-.53,3.16-11.29,10.54-14.26,16.57-13.36,27.22,6.26,59.89,38.18,54.96ZM1040.85,383.92c35.77-8,21.01,48.65-7.46,28.63-11.32-7.95-5.52-25.73,7.46-28.63ZM983.27,410.3c6.55-8.06,20.63-6.9,21.96-11.67,2.65-9.39-11.23-11.55-14.66-18.73-13.68-28.58,36.16-36.36,45.31-9.08-63.76,40.64,30.2,84.16,36.65,36.46,3.38-24.91-.8-29.89-22.43-39.49,11.38-48.9,79.21-38.18,72.51,11.14-2.76,20.4-29.09,27.12-27.73,33.54,1.11,5.1,30.23,17.52,20.83,37.95-11.65,25.35-57.59,16.75-75.94,1.9-3.47-2.82-5.21-11.06-11.34-12.65-12.58-3.21-18.4,22.14-39.76,9.16-13.46-8.18-14.97-26.71-5.41-38.51Z"/>
  <path class="cls-1" d="M619.52,317.39c66.18,45.9,175.78,40.51,245.95,5.93,18.93-9.31,38.41-16.01,22.3-39.23-32.48-46.85-110.53-73.48-165.64-67.74-34.44,3.59-68.72,20.27-95.81,41.23-32.95,25.48-45.8,32.76-6.8,59.81ZM802.41,257.61c-2.7-7.54-8.6-12.14-9.71-19.63,18.18-4.39,86.94,46.49,89.4,57.47,1.45,6.59-35.11,22.4-41.9,24.94-15.44,5.8-31.36,9.49-47.51,12.62,2.65-9.85,10.58-17.19,12.74-27.79,2.99-14.75,2.03-33.43-3.03-47.62ZM708.78,232.39c-28.02,29.3-25.97,73.25,0,103.4-36.84-3.1-73.64-17.6-100.62-43.31,27.07-28.81,60.88-52.96,100.62-60.09Z"/>
</svg>