<svg width="783" height="750" viewBox="0 0 783 750" fill="none" xmlns="http://www.w3.org/2000/svg">
<path d="M244.029 151.877C245.698 152.909 249.105 152.485 251.905 154.012C258.862 157.801 269.65 173.284 270.994 181.16C274.769 203.331 259.131 211.122 272.648 236.531C283.819 257.528 293.236 263.848 289.46 291.35C287.834 303.185 276.31 315.458 286.123 326.232C291.765 325.101 295.342 322.372 301.027 325.214C305.565 327.477 305.961 331.634 308.45 333.26C310.5 334.589 313.328 334.08 316.199 336.3C330.253 347.244 303.642 368.552 297.577 378.04C319.889 382.551 329.858 421.109 309.836 433.453C308.125 434.514 293.815 442.149 292.684 442.503C277.71 447.197 269.17 440.028 258.466 431.304C254.436 435.207 234.245 453.701 234.612 457.858C237.214 468.237 251.679 490.252 251.41 499.811C251.014 514.134 224.516 515.421 213.615 516C125.072 520.709 17.5387 473.497 1.99906 377.63C-6.79586 323.39 12.5756 241.31 77.1377 233.915L28.4828 190.888C19.5182 180.241 44.4324 182.814 51.5589 181.386C72.9099 177.116 72.4151 163.683 86.3569 152.994C107.482 136.804 121.607 154.266 138.914 150.053C147.186 148.045 156.589 135.828 164.507 130.95C190.185 115.128 213.544 123.951 235.093 141.512C237.963 143.845 243.266 151.368 244.029 151.834V151.877ZM162.98 172.803C146.946 158.593 122.654 194.112 131.434 212.804C135.549 221.543 141.742 220.892 148.727 223.253C162.726 227.962 142.661 228.98 142.025 229.503C141.587 229.871 140.116 236.856 137.896 240.009C133.626 246.089 117.507 256.609 117.351 265.503C117.139 276.843 139.155 301.573 148.006 308.713C155.91 315.076 162.514 320.181 164.719 305.984C160.449 293.923 150.467 279.911 146.79 268.203C145.051 262.647 145.885 256.51 151.852 261.727C158.158 267.242 162.853 280.816 172.68 288.678C188.163 301.078 191.712 292.736 201.766 279.147C193.876 268.656 182.903 253.328 190.468 240.136C197.213 238.143 205.611 262.039 216.909 263.057C221.731 262.251 220.798 255.492 223.527 251.646C229.281 243.572 239.844 251.321 248.215 249.355L234.994 229.432C237.355 214.331 244.185 201.549 237.412 186.194L223.569 192.373C221.194 194.96 231.53 198.622 232.576 202.624C236.21 216.495 210.221 197.618 208.553 197.279C205.145 196.572 190.524 199.032 184.19 198.58C179.297 198.226 174.391 196.869 169.513 196.303C166.402 194.211 170.63 179.604 162.966 172.803H162.98ZM115.669 252.466C100.822 255.449 94.5862 247.149 84.1086 239.104C72.2878 242.116 64.6948 241.918 53.5668 248.139C-5.89088 281.367 -2.56805 390.95 37.1081 439.646C83.3875 496.445 175.437 518.602 245.16 503.614L198.895 391.133L166.628 408.935C161.934 410.151 157.423 409.275 152.587 410.307C131.632 414.761 115.428 447.975 104.017 449.643C92.6066 451.312 93.5964 446.688 88.605 440.565C84.8156 435.914 80.0222 431.177 76.3035 426.709C66.6743 415.114 60.7922 414.266 65.6421 397.355C68.8801 386.043 77.6609 376.202 84.7308 367.039C76.1621 356.774 68.7811 347.004 73.221 332.51C80.0364 310.269 99.5068 344.911 106.563 348.658C113.208 352.179 127.928 351.726 136.412 354.257C155.005 359.772 171.45 377.418 172.737 397.327C185.816 393.947 201.652 372.2 207.393 394.244L240.155 350.157C237.751 323.97 226.439 302.52 205.866 286.415C204.749 286.415 194.597 299.042 190.835 300.64C186.169 302.605 179.891 300.838 177.657 302.124C175.253 303.496 166.953 322.485 159.36 323.065C140.484 318.328 107.496 279.939 111.101 261.02C111.879 256.962 115.966 256.496 115.697 252.508L115.669 252.466ZM231.289 301.771L247.465 341.8L266.709 322.57L231.289 301.771ZM300.645 402.7C302.101 409.557 299.584 420.685 300.645 428.123C321.034 426.85 313.894 388.15 297.958 385.209C294.522 384.573 290.634 387.188 286.873 384.855C281.91 377.701 314.855 353.14 312.862 342.776C309.553 332.171 289.503 357.707 286.802 361.115C282.857 366.092 280.849 372.285 275.999 376.527C274.585 378.436 271.63 376.075 271.347 374.929C270.555 371.776 283.917 353.918 286.816 350.355C289.503 347.046 306.852 333.84 298.114 331.181C286.152 327.562 265.098 366.545 259.823 366.545L255.991 364.183C257.108 356.11 279.322 337.021 280.397 333.09C281.881 327.632 276.141 327.434 272.478 328.24C266.469 329.569 249.94 349.223 245.203 354.964C232.845 369.98 222.509 386.807 211.282 402.643L230.54 448.158C236.563 448.045 251.424 417.504 264.277 425.21C267.19 426.963 267.869 430.13 269.976 431.827C276.989 437.455 284.681 439.251 292.995 435.023L292.953 423.485C276.254 429.636 261.435 411.678 275.928 397.977C283.847 390.497 298.51 392.519 300.659 402.671L300.645 402.7ZM118.751 400.395C121.367 402.912 106.252 417.391 104.215 420.515C101.034 425.394 95.576 435.277 97.4 440.976C98.4039 443.422 99.7613 444.016 102.306 443.323C105.827 442.361 125.411 418.083 132.113 412.979C143.001 404.693 152.39 402.233 165.879 400.48C167.533 385.506 153.917 369.627 140.894 363.589C127.97 357.594 111.709 360.281 101.274 353.89C93.455 349.096 88.8596 339.015 82.525 332.609C72.4716 342.422 85.5367 364.862 98.7009 358.782C100.327 366.106 94.0771 366.53 90.1887 371.069C80.8989 381.928 70.4072 396.308 70.9728 411.169C75.4268 412.032 73.4331 409.882 74.4511 407.79C77.4205 401.625 80.3192 395.389 84.2076 389.748C86.3286 386.679 99.8745 369.132 103.325 372.667C103.706 380.571 95.0245 386.043 90.3725 392.83C85.1267 400.48 76.8691 412.866 80.2343 421.972C85.4802 416.924 87.5587 409.713 91.9138 403.619C94.2327 400.381 109.193 381.518 112.572 384.997C112.614 386.679 112.826 388.433 112.275 390.073C111.243 393.099 97.3717 406.97 93.8368 413.248C91.0371 418.211 84.3207 429.593 90.9947 432.76C93.6247 424.192 98.7291 415.369 104.852 408.836C108.669 404.764 112.586 399.25 118.751 400.409V400.395ZM294.254 415.581C297.124 397.949 280.015 394.626 277.427 411.89C278.431 418.465 289.46 418.324 294.254 415.581Z" fill="#1E3D34"/>
<path d="M436.542 356.986C437.942 357.862 441.519 356.717 444.87 358.668C459.067 366.926 441.208 394.215 442.453 395.771C450.724 390.256 462.05 390.921 462.573 402.727C462.814 408.044 450.738 450.123 447.854 455.892C445.45 460.672 440.841 464.489 437.829 468.986L449.466 472.747C451.813 481.429 448.773 491.312 444.814 499.089C442.198 504.222 430.858 515.689 431.819 519.507L435.524 523.664L443.485 516.24C446.709 512.253 457.158 510.542 459.519 507.615C461.711 504.886 462.644 495.823 465.811 490.789C473.419 478.742 488.52 472.393 502.561 472.818L502.688 460.629L511.794 460.474C508.217 455.058 501.557 452.485 504.328 444.552C505.346 441.654 510.946 441.428 510.224 438.204C499.902 429.027 494.36 416.499 513.01 414.605C520.688 413.827 529.737 418.903 535.605 412.625C546.281 401.243 531.491 398.316 528.38 390.737C522.173 375.622 537.755 369.146 550.339 369.542C541.996 328.607 599.616 344.218 609.104 369.344C611.649 370.814 614.83 367.025 617.46 366.53C638.359 362.543 648.511 395.615 647.677 411.692C667.529 422.891 677.045 446.617 668.236 468.166C665.182 475.646 659.371 480.227 656.684 486.646C678.205 493.829 686.901 513.073 689.262 534.226C734.354 535.23 766.917 585.185 747.631 626.869C820.79 649.86 766.592 779.096 699.344 743.733C692.755 740.269 685.953 733.807 680.58 728.618C646.588 767.007 594.356 740.325 567.745 707.338L459.335 697.058C455.178 694.301 455.97 668.623 454.754 662.331C428.779 682.027 379.658 672.992 365.377 642.96C353.202 645.547 345.567 646.947 334.312 640.217C315.068 628.721 311.123 604.981 325.262 587.589C292.345 566.535 308.634 532.034 331.215 510.316C320.13 490.676 323.565 469.679 339.911 454.266C342.018 452.273 345.765 452.103 346.882 450.067C353.782 437.398 357.077 404.17 361.502 388.008C363.623 380.274 368.304 360.747 374.709 356.533C381.114 352.32 384.663 356.533 388.919 355.459C393.176 354.384 395.551 345.815 404.869 344.953C411.274 344.359 413.197 347.682 417.072 347.922C420.38 348.134 422.332 345.9 427.026 347.074C435.199 349.124 435.354 356.208 436.528 356.943L436.542 356.986ZM382.359 400.394C384.678 398.853 389.358 399.291 390.857 397.354C392.624 395.064 398.195 372.525 401.292 366.176C403.328 362.005 407.358 358.64 408.842 355.204C411.741 348.516 402.522 352.306 399.227 354.865C388.948 362.84 382.811 387.626 382.373 400.409L382.359 400.394ZM411.571 400.352C413.212 393.183 415.955 384.374 419.051 377.771C422.148 371.168 435.411 357.269 425.923 354.426C414.187 350.906 404.756 375.07 401.956 383.809C400.358 388.786 399.849 394.046 397.729 398.839L411.557 400.352H411.571ZM383.872 361.878C381.793 361.85 379.615 361.482 377.692 362.613C370.015 367.138 360.216 440.848 353.047 452.768L430.193 467.374C434.379 462.227 440.063 456.868 442.764 450.774C445.351 444.948 454.047 413.332 454.698 407.153C455.079 403.519 455.192 397.439 450.13 399.574C441.477 404 438.847 427.811 433.94 434.245C431.777 437.087 428.695 435.051 427.874 432.817C426.644 429.437 432.159 405.301 433.644 400.055C435.227 394.442 449.339 364.536 438.621 363.716C431.438 363.165 420.437 394.838 417.948 401.215C421.158 404.594 426.871 403.109 425.471 409.642C414.668 409.826 404.77 404.622 393.868 404.919C387.534 405.089 371.966 411.423 370.792 411.197C362.86 409.642 374.03 401.681 374.327 400.889C375.119 398.782 374.582 395.318 375.303 392.618C378.046 382.324 381.114 372.158 383.843 361.878H383.872ZM534.163 421.957H508.726C507.637 429.904 524.223 437.073 518.129 444.468C516.121 446.885 510.55 445.599 511.822 448.907C513.25 453.8 537.175 462.835 529.412 468.349C522.427 471.701 515.965 467.416 508.726 468.18C507.142 483.578 510.281 492.26 526.627 494.211C547.822 496.742 569.583 489.007 590.425 486.689L589.421 492.981L551.894 512.903C551.23 516.848 552.29 515.279 554.044 516.099C564.959 521.147 575.013 519.097 585.773 515.166C589.746 513.709 612.936 501.295 614.293 499.004C615.764 496.501 615.113 492.67 615 489.828C602.84 490.266 596.406 481.344 598.131 469.721L604.197 469.82C606.474 495.087 629.621 475.914 633.919 461.605C637.624 449.289 633.947 432.831 618.62 441.696C611.408 445.867 613.416 449.431 602.119 448.031C586.777 446.122 579.113 431.615 584.246 417.362H574.999C574.348 417.857 583.765 428.052 578.18 432.11C572.128 436.493 546.592 416.711 548.798 408.115C542.279 408.977 541.077 420.501 534.163 421.986V421.957ZM443.937 477.498C410.836 470.753 377.381 462.057 343.814 459.639C335.655 469.763 329.137 480.608 332.53 494.098C333.69 498.721 341.226 509.27 340.59 511.815C325.715 524.781 311.25 541.352 314.629 562.859C316.595 575.358 333.35 581.834 333.972 585.228C332.841 591.251 327.171 596.044 325.234 602.945C321.643 615.713 326.803 626.657 337.719 633.769C348.777 640.994 357.883 636.894 369.053 633.147C373.804 639.736 372.758 644.77 379.234 650.807C396.654 667.068 440.289 673.473 454.754 650.737C455.518 629.937 450.866 606.607 453.185 585.977C453.482 583.305 453.538 580.675 457.087 580.661C459.859 582.895 460.594 585.722 460.99 589.102C464.072 615.698 460.212 648.997 462.517 676.951C462.87 681.292 464.298 685.775 464.723 690.158L562.697 699.292C557.211 692.604 555.528 685.93 562.527 679.779L562.004 676.145C542.209 659.545 504.342 662.84 490.796 639.425C480.729 622.019 494.614 618.47 494.628 615.331C494.628 614.582 489.75 610.354 490.174 603.044C491.433 581.679 518.001 567.765 536.468 577.564C540.229 569.943 534.898 541.904 541.091 538.256C547.228 534.636 552.446 539.981 556.023 540.292C558.413 540.504 560.901 536.163 567.759 537.789C574.348 539.345 573.203 539.91 581.602 540.914C596.675 542.696 603.349 565.262 602.783 578.271C602.359 588.056 596.972 595.945 595.261 605.08L608.015 611.584C612.073 606.89 617.842 592.566 623.625 591.435C637.822 588.664 651.254 607.964 652.103 620.718C661.93 616.985 669.989 616.504 680.17 619.601C685.062 621.086 713.879 635.692 707.573 642.281C699.895 642.154 695.399 634.999 688.569 631.252C680.495 626.826 671.531 623.998 662.184 625.441C658.07 626.077 654.945 629.852 650.038 628.24C646.348 627.024 638.726 593.81 624.318 598.293L566.006 686.58C564.083 693.58 582.45 712.866 588.078 717.857C608.128 735.617 636.577 747.819 662.382 735.051C670.004 731.276 675.716 720.035 677.809 719.512C682.178 718.423 696.586 733.821 702.921 737.115C762.789 768.194 809.761 647.88 741.834 633.585L739.416 631.139C743.672 614.596 748.578 603.977 744.393 586.246C740.151 568.288 719.012 545.297 700.263 542.54C694.776 541.734 686.095 544.435 683.564 542.328C679.887 539.274 681.98 533.477 681.188 529.235C678.615 515.491 675.419 506.06 663.641 497.463C648.54 486.448 641.653 494.96 625.28 494.281C618.082 510.189 581.771 527.722 565.044 526.817C552.615 526.152 534.616 517.287 539.564 502.072C522.3 502.214 504.865 498.863 501.09 479.59C486.908 479.93 474.239 486.434 468.979 500.093C467.466 503.995 467.14 512.211 464.836 514.445C462.941 516.283 453.156 518.192 448.731 521.458C435.75 531.016 441.689 534.028 442.509 545.948C443.329 557.867 439.2 580.067 423.972 580.675C424.438 574.001 430.434 570.452 432.894 564.188C436.372 555.336 436.076 545.707 433.29 536.686C430.858 528.811 424.538 524.215 422.6 517.089C431.409 504.42 443.824 494.409 443.937 477.498ZM559.572 597.628C548.925 598.66 556.066 586.359 556.49 579.883C557.211 568.628 559.063 547.814 545.744 543.7C543.326 551.066 546.154 557.839 545.701 566.026C545.475 569.914 543.198 583.46 541.176 586.133C537.189 591.378 535.308 585.143 531.434 583.432C513.887 575.712 494.812 591.124 497.965 609.958C507.1 609.336 510.267 597.727 519.486 595.281C546.79 588.041 567.858 622.754 542.209 638.025C532.212 643.978 523.912 643.921 514.396 637.445C509.786 634.32 492.847 609.675 494.869 630.63C497.075 653.409 553.916 655.19 566.614 671.564L568.834 671.607L602.571 618.654L585.929 604.359C594.116 594.15 596.548 582.089 595.077 569.123C594.271 562.095 589.237 550.515 581.941 548.352C577.035 546.895 582.323 559.168 582.577 561.586C583.921 574.411 579.552 588.197 576.37 600.513L570.431 600.725C572.92 582.06 583.044 557.585 565.03 543.742C558.116 549.242 564.479 560.299 564.365 569.165C564.323 572.657 560.873 596.78 559.615 597.656L559.572 597.628ZM520.674 602.648C514.693 604.189 510.705 613.252 505.714 616.9C514.056 626.487 520.999 639.623 536.1 633.458C555.726 625.427 544.103 596.596 520.688 602.648H520.674Z" fill="#1E3D34"/>
<path d="M513.363 161.519C561.82 170.667 598.895 228.88 571.661 274.523C560.152 293.824 541.36 300.271 519.698 297.316L517.874 306.266L453.92 298.787C451.968 293.88 454.415 287.546 452.958 282.795C451.954 279.528 447.571 278.737 445.549 276.333C428.002 255.463 431.211 222.701 439.37 198.522C399.892 199.003 359.268 180.325 335.047 149.104C325.828 149.939 274.006 165.535 269.735 162.424C267.303 160.657 267.756 155.184 269.735 152.965L316.792 107.562C315.463 56.4333 359.806 10.9885 408.22 1.71291C493.469 -14.6184 580.796 89.4069 513.349 161.505L513.363 161.519ZM280.609 153.813L336.673 140.168C356.525 166.581 394.533 189.713 427.832 192.329C449.395 194.026 444.644 186.956 457.851 176.154C465.232 170.13 476.331 164.729 485.564 162.254C500.722 158.196 502.49 163.258 513.999 149.076C560.434 91.8814 499.549 13.9578 436.867 7.62327C387.364 2.61784 334.75 41.3605 325.729 90.2977C324.456 97.212 325.828 105.173 322.915 112.143L280.609 153.813ZM499.535 297.047L510.846 298.504C514.509 297.189 511.794 291.278 516.827 288.988C519.712 287.673 529.935 291.278 535.492 290.84C568.579 288.21 579.17 245.706 569.583 218.572C541.911 140.295 430.278 157.39 439.525 243.798C441.208 259.45 448.306 271.851 462.22 279.387C458.473 282.993 459.208 287.645 459.434 292.48C476.388 298.334 478.551 279.231 477.83 266.378C455.984 269.362 450.851 229.347 472.924 239.711C481.506 243.741 479.626 260.864 490.231 258.588C484.603 244.943 484.405 208.321 506.364 212.379C518.383 214.599 518.835 239.047 512.133 247.361C511.709 250.415 502.023 257.598 502.589 259.351C503.748 263.027 505.558 260.652 507.198 259.379C513.787 254.218 523.247 244.363 531.929 253.158C543.552 264.936 517.393 277.068 507.297 270.974L499.549 297.061L499.535 297.047ZM496.41 252.451C508.556 251.207 513.957 220.524 503.112 218.671C494.812 217.257 490.853 246.64 496.41 252.451ZM476.359 258.616L467.89 244.787C460.749 248.732 473.15 261.656 476.359 258.616ZM513.349 264.767C516.559 266.223 527.065 262.32 527.192 259.393C527.432 253.709 513.448 260.468 513.349 264.767ZM479.442 295.591L492.578 294.092L500.482 268.598L496.325 263.918L485.777 266.492L479.428 295.577L479.442 295.591Z" fill="#1E3D34"/>
<path d="M54.797 78.3221L52.4922 74.4904C53.8213 68.0427 79.8808 71.6058 86.3851 69.0607L70.1103 61.4677C66.5046 46.6494 94.6145 65.6954 95.6184 64.4512C96.0285 60.591 80.404 35.8467 88.6899 35.2104C93.9641 34.8145 99.0544 55.7836 102.561 59.8134C108.005 51.8811 106.605 40.032 109.461 31.2937C110.14 29.2293 108.245 28.9324 111.823 28.9607C114.778 28.989 117.068 29.3567 117.125 32.6936C117.252 41.9551 111.059 55.9815 111.059 65.9783C112.247 67.2933 132.962 49.7742 136.2 48.6431C138.052 47.9926 141.007 48.0068 141.954 50.0005C143.439 57.9046 123.658 67.5195 118.256 72.4259C116.757 73.7975 114.962 73.8258 115.669 76.7668C122.498 78.916 138.561 82.3661 143.906 85.901C145.178 86.7494 146.451 89.2663 145.8 90.6661C142.647 97.4248 121.268 87.6684 115.697 86.0141L121.834 122.989C119.755 123.032 117.577 123.385 115.654 122.254C113.152 120.783 106.181 94.1868 104.88 89.1107C102.292 88.531 101.769 89.9591 100.299 91.4579C94.9256 96.9299 86.7811 113.996 82.6382 116.952C80.3334 118.606 78.2972 118.634 75.6107 118.38C71.6232 114.378 100.864 80.3583 97.1738 76.7951C94.261 75.4094 90.1039 78.3221 88.7041 78.3221H54.797Z" fill="#1E3D34"/>
<path d="M622.028 301.77C619.666 301.812 613.94 306.295 612.752 298.688C615.156 293.173 639.83 294.106 645.91 294.05C643.958 289.681 627.174 269.673 630.497 266.336C641.738 264.837 642.389 281.154 650.505 286.358L652.301 253.469C653.177 251.009 655.03 250.415 657.434 250.896C661.393 251.687 659.922 282.78 658.239 287.885C660.898 288.578 661.322 286.796 662.863 285.594C666.356 282.894 686.59 261.274 687.622 273.279C688.23 280.391 668.802 289.101 664.418 294.827C664.418 297.981 695.583 303.863 700.305 306.676C706.06 310.112 702.638 314.581 696.162 314.029C689.955 313.506 665.352 301.869 661.308 304.852C662.071 309.674 674.458 333.287 672.082 335.649C671.234 336.497 666.78 335.564 665.14 334.136C662.849 332.128 656.034 309.123 653.616 311.017C650.42 316.659 647.366 344.288 638.995 341.828C633.113 340.088 641.343 321.325 642.799 317.196C638.727 313.294 624.276 342.945 619.822 328.918L644.34 301.77C636.917 301.869 629.437 301.629 621.985 301.77H622.028Z" fill="#1E3D34"/>
<path d="M210.872 578.002C264.391 570.141 287.905 635.31 241.046 665.187C184.685 701.144 128.027 622.669 192.278 585.609C197.764 582.442 204.551 578.936 210.872 578.002ZM213.996 584.082C206.785 584.648 193.847 592.17 188.092 596.85C141.926 634.434 199.489 692.972 242.785 654.611C275.363 625.738 254.521 580.901 213.996 584.082Z" fill="#1E3D34"/>
<path d="M497.173 309.477C502.405 309.972 516.813 311.499 514.89 318.71C498.403 317.466 483.076 315.274 466.363 315.642C460.933 315.769 456.111 320.138 451.728 313.323C452.704 312.602 455.079 309.477 455.546 309.477C468.639 309.477 484.504 308.289 497.159 309.477H497.173Z" fill="#1E3D34"/>
<path d="M300.461 578.977C299.726 580.277 276.325 593.908 274.882 594.276C270.033 595.506 267.586 590.613 272.323 587.036C274.26 585.566 294.523 573.999 295.965 573.632C300.179 572.585 302.017 576.262 300.475 578.962L300.461 578.977Z" fill="#1E3D34"/>
<path d="M346.882 284.816C348.974 286.979 337.055 311.045 334.693 313.081C333.138 314.424 328.953 314.608 328.401 314.085C326.648 312.388 339.246 288.52 341.523 286.385C343.46 284.576 344.238 284.491 346.882 284.816Z" fill="#1E3D34"/>
<path d="M194.314 568.358L189.676 539.089C193.239 538.565 194.767 539.371 196.209 542.567C197.764 546.045 201.639 565.784 198.98 567.665L194.314 568.358Z" fill="#1E3D34"/>
<path d="M365.377 309.477C369.52 313.478 349.767 324.38 346.882 325.667C342.598 327.575 340.378 323.192 344.775 318.908C347.038 316.702 363.115 307.285 365.377 309.477Z" fill="#1E3D34"/>
<path d="M151.131 693.169C150.707 690.313 151.159 688.616 152.587 686.17C153.888 683.936 169.753 669.909 171.153 677.022C169.64 681.065 154.878 696.916 151.131 693.169Z" fill="#1E3D34"/>
<path d="M315.308 284.816C320.384 283.727 324.485 308.486 319.889 309.461C313.498 310.805 311.406 285.665 315.308 284.816Z" fill="#1E3D34"/>
<path d="M259.031 580.674C256.303 577.931 268.562 558.361 272.097 559.111C279.661 560.737 262.991 584.661 259.031 580.674Z" fill="#1E3D34"/>
<path d="M217.404 691.643L222.113 692.321C224.488 694.046 226.143 723.598 217.404 713.983V691.643Z" fill="#1E3D34"/>
<path d="M149.576 643.85C120.575 651.429 122.498 633.443 148.897 639.17L149.576 643.85Z" fill="#1E3D34"/>
<path d="M283.338 671.931C290.648 685.208 264.914 671.776 266.738 664.692C268.223 658.937 282.857 671.069 283.338 671.931Z" fill="#1E3D34"/>
<path d="M175.777 577.591C172.355 581.14 159.658 564.385 161.92 562.193C168.438 558.8 178.577 574.693 175.777 577.591Z" fill="#1E3D34"/>
<path d="M339.19 338.731L341.693 332.707C357.543 334.376 353.443 345.984 339.19 338.731Z" fill="#1E3D34"/>
<path d="M279.096 648.529L288.287 652.347L282.122 655.599L278.177 653.139L279.096 648.529Z" fill="#1E3D34"/>
<path d="M115.668 252.465C115.937 256.452 111.851 256.919 111.073 260.977C107.467 279.896 140.455 318.285 159.332 323.022C166.939 322.456 175.239 303.452 177.629 302.081C179.863 300.808 186.141 302.576 190.807 300.596C194.582 298.998 204.721 286.372 205.838 286.372C226.425 302.491 237.723 323.927 240.127 350.113L207.365 394.201C201.624 372.171 185.787 393.904 172.708 397.283C171.421 377.374 154.991 359.742 136.383 354.214C127.899 351.697 113.166 352.135 106.534 348.614C99.4784 344.867 80.0081 310.225 73.1927 332.467C68.7528 346.96 76.1337 356.731 84.7024 366.996C77.6325 376.144 68.8517 386 65.6137 397.311C60.7779 414.222 66.646 415.071 76.2752 426.665C79.9939 431.133 84.7731 435.87 88.5767 440.522C93.5539 446.645 92.352 451.296 103.989 449.6C115.626 447.903 131.604 414.717 152.559 410.263C157.395 409.231 161.92 410.108 166.6 408.892L198.867 391.09L245.132 503.571C175.409 518.559 83.345 496.402 37.0797 439.603C-2.59644 390.906 -5.91925 281.31 53.5384 248.096C64.6664 241.874 72.2594 242.072 84.0802 239.061C94.5719 247.106 100.793 255.392 115.64 252.423L115.668 252.465Z" fill="#A89FD8"/>
<path d="M162.98 172.802C170.658 179.603 166.416 194.209 169.527 196.302C174.405 196.867 179.311 198.239 184.204 198.578C190.538 199.031 205.159 196.57 208.567 197.277C210.235 197.631 236.224 216.493 232.59 202.622C231.544 198.621 221.208 194.958 223.583 192.371L237.426 186.192C244.213 201.547 237.384 214.33 235.008 229.431L248.229 249.354C239.844 251.333 229.281 243.585 223.541 251.644C220.798 255.49 221.745 262.249 216.923 263.055C205.626 262.037 197.227 238.141 190.482 240.134C182.917 253.341 193.89 268.668 201.78 279.146C191.726 292.734 188.177 301.09 172.694 288.676C162.867 280.8 158.187 267.24 151.866 261.726C145.899 256.508 145.065 262.645 146.804 268.202C150.481 279.909 160.477 293.922 164.733 305.983C162.528 320.179 155.924 315.089 148.02 308.712C139.169 301.571 117.153 276.841 117.365 265.501C117.535 256.607 133.64 246.101 137.91 240.007C140.13 236.854 141.601 229.855 142.039 229.502C142.675 228.978 162.74 227.96 148.741 223.252C141.756 220.905 135.549 221.555 131.448 212.803C122.668 194.096 146.96 158.577 162.994 172.802H162.98ZM152.672 193.912C151.032 199.059 146.437 203.315 144.669 208.278C143.835 210.625 142.887 210.144 145.758 212.393C153.464 214.033 160.831 193.672 160.096 187.38C158.682 175.432 144.598 175.969 152.672 186.178C146.366 186.545 144.231 191.31 142.11 196.485L148.034 200.049L152.672 193.912ZM195.431 200.303C170.531 204.616 215.113 244.376 226.637 233.149C239.391 220.721 207.86 198.154 195.431 200.303Z" fill="#FFFAF3"/>
<path d="M300.645 402.699C298.482 392.547 283.819 390.525 275.915 398.005C261.407 411.706 276.226 429.663 292.939 423.513L292.981 435.051C284.667 439.264 276.989 437.483 269.962 431.855C267.855 430.158 267.176 426.991 264.263 425.238C251.424 417.546 236.549 448.087 230.526 448.186L211.268 402.671C222.495 386.82 232.831 369.994 245.189 354.992C249.912 349.251 266.441 329.597 272.464 328.268C276.127 327.462 281.867 327.66 280.383 333.118C279.308 337.049 257.109 356.123 255.977 364.211L259.809 366.573C265.084 366.573 286.152 327.59 298.1 331.209C306.852 333.853 289.489 347.06 286.802 350.383C283.918 353.96 270.541 371.804 271.333 374.957C271.63 376.117 274.571 378.478 275.985 376.555C280.835 372.313 282.843 366.12 286.788 361.143C289.489 357.735 309.539 332.199 312.848 342.804C314.841 353.168 281.882 377.729 286.859 384.883C290.62 387.216 294.522 384.6 297.944 385.237C313.88 388.178 321.02 426.878 300.631 428.151C299.57 420.713 302.087 409.585 300.631 402.727L300.645 402.699Z" fill="#FFFAF3"/>
<path d="M118.751 400.393C112.586 399.234 108.655 404.748 104.852 408.82C98.7293 415.339 93.639 424.176 90.9949 432.745C84.3209 429.577 91.0373 418.195 93.837 413.232C97.3861 406.968 111.243 393.097 112.275 390.057C112.827 388.417 112.615 386.664 112.572 384.981C109.179 381.503 94.2188 400.365 91.914 403.603C87.559 409.697 85.4804 416.894 80.2345 421.956C76.8693 412.85 85.1269 400.478 90.3727 392.814C95.0247 386.027 103.707 380.555 103.325 372.651C99.8747 369.116 86.3288 386.678 84.2078 389.732C80.3052 395.374 77.4207 401.609 74.4513 407.774C73.4333 409.867 75.427 412.016 70.973 411.154C70.4216 396.293 80.8991 381.913 90.1889 371.054C94.0773 366.515 100.327 366.091 98.7011 358.766C85.5369 364.846 72.4718 342.407 82.5252 332.594C88.8739 338.999 93.4552 349.095 101.275 353.874C111.71 360.265 127.984 357.578 140.894 363.574C153.903 369.611 167.533 385.49 165.879 400.464C152.376 402.217 143.001 404.663 132.113 412.963C125.411 418.054 105.827 442.346 102.307 443.307C99.7474 444 98.4041 443.42 97.4002 440.96C95.5762 435.276 101.034 425.378 104.216 420.5C106.252 417.375 121.367 402.896 118.751 400.379V400.393Z" fill="#FFFAF3"/>
<path d="M231.29 301.77L266.71 322.569L247.465 341.799L231.29 301.77Z" fill="#FFFAF3"/>
<path d="M294.254 415.58C289.46 418.323 278.445 418.465 277.427 411.89C280.015 394.625 297.124 397.948 294.254 415.58Z" fill="#FFFAF3"/>
<path d="M443.937 477.497C443.824 494.408 431.409 504.419 422.6 517.088C424.523 524.214 430.858 528.796 433.29 536.686C436.076 545.707 436.358 555.336 432.894 564.187C430.434 570.451 424.424 574 423.972 580.674C439.2 580.08 443.372 558.432 442.509 545.947C441.647 533.462 435.75 531.016 448.731 521.457C453.156 518.191 462.941 516.282 464.836 514.444C467.155 512.21 467.48 504.009 468.979 500.092C474.239 486.433 486.908 479.929 501.09 479.59C504.865 498.876 522.3 502.213 539.564 502.072C534.601 517.286 552.615 526.137 565.044 526.816C581.786 527.721 618.083 510.188 625.28 494.281C641.653 494.959 648.54 486.447 663.641 497.462C675.419 506.045 678.615 515.49 681.188 529.234C681.98 533.462 679.887 539.259 683.564 542.327C686.095 544.434 694.776 541.733 700.263 542.539C719.012 545.297 740.151 568.288 744.393 586.245C748.578 603.976 743.686 614.595 739.416 631.138L741.834 633.584C809.761 647.88 762.789 768.18 702.921 737.115C696.586 733.82 682.178 718.422 677.809 719.511C675.702 720.034 669.99 731.275 662.382 735.05C636.577 747.819 608.142 735.63 588.078 717.857C582.45 712.865 564.069 693.579 566.006 686.58L624.318 598.292C638.712 593.81 646.348 627.024 650.038 628.24C654.945 629.852 658.07 626.076 662.184 625.44C671.531 624.012 680.495 626.826 688.569 631.251C695.399 634.998 699.895 642.153 707.573 642.28C713.893 635.705 685.077 621.085 680.17 619.6C669.989 616.504 661.93 616.985 652.103 620.717C651.254 607.978 637.807 588.663 623.625 591.434C617.842 592.565 612.073 606.903 608.015 611.583L595.261 605.079C596.972 595.945 602.359 588.055 602.783 578.27C603.349 565.262 596.661 542.695 581.602 540.913C573.189 539.924 574.334 539.344 567.759 537.788C560.901 536.162 558.413 540.503 556.023 540.291C552.446 539.98 547.228 534.635 541.091 538.255C534.898 541.903 540.243 569.942 536.468 577.563C518.015 567.75 491.433 581.664 490.174 603.043C489.736 610.367 494.628 614.581 494.628 615.33C494.614 618.469 480.729 622.018 490.796 639.424C504.328 662.825 542.209 659.545 562.004 676.145L562.527 679.779C555.528 685.929 557.211 692.603 562.697 699.291L464.723 690.157C464.313 685.774 462.885 681.292 462.517 676.951C460.212 648.997 464.072 615.698 460.99 589.101C460.594 585.722 459.859 582.894 457.087 580.66C453.538 580.66 453.482 583.304 453.185 585.976C450.866 606.606 455.518 629.936 454.754 650.736C440.303 673.472 396.654 667.053 379.234 650.807C372.758 644.769 373.804 639.735 369.053 633.146C357.883 636.893 348.777 640.979 337.719 633.768C326.818 626.656 321.657 615.698 325.234 602.944C327.171 596.058 332.841 591.265 333.972 585.227C333.35 581.833 316.595 575.372 314.629 562.858C311.25 541.352 325.715 524.78 340.59 511.814C341.24 509.269 333.704 498.721 332.53 494.097C329.137 480.608 335.655 469.763 343.814 459.639C377.381 462.042 410.836 470.752 443.937 477.497Z" fill="#B8E04A"/>
<path d="M534.163 421.957C541.077 420.486 542.279 408.948 548.798 408.086C546.592 416.683 572.142 436.464 578.18 432.081C583.779 428.023 574.348 417.828 574.999 417.347H584.246C579.099 431.6 586.777 446.107 602.119 448.016C613.416 449.416 611.408 445.853 618.62 441.682C633.947 432.816 637.624 449.275 633.919 461.59C629.621 475.9 606.474 495.087 604.197 469.805L598.131 469.706C596.406 481.329 602.84 490.251 615 489.813C615.113 492.655 615.764 496.487 614.293 498.99C612.936 501.294 589.746 513.709 585.773 515.151C575.013 519.082 564.96 521.132 554.044 516.084C552.276 515.264 551.23 516.834 551.894 512.889L589.421 492.966L590.425 486.674C569.583 488.993 547.836 496.727 526.627 494.196C510.281 492.245 507.142 483.563 508.726 468.165C515.965 467.388 522.427 471.672 529.412 468.335C537.175 462.835 513.25 453.785 511.822 448.893C510.55 445.584 516.121 446.871 518.129 444.453C524.237 437.058 507.637 429.889 508.726 421.943H534.163V421.957ZM542.095 420.812C520.235 423.046 557.508 460.106 568.947 452.103C577.94 445.81 552.969 419.695 542.095 420.812ZM627.415 465.125C624.488 460.558 633.339 446.136 628.164 445.075C622.24 443.859 607.478 466.03 610.475 472.817L615.764 472.902L620.5 462.029L622.254 465.111H627.429L627.415 465.125Z" fill="#FFFAF3"/>
<path d="M559.572 597.629C560.845 596.752 564.281 572.63 564.323 569.137C564.437 560.272 558.074 549.215 564.988 543.714C583.016 557.557 572.878 582.033 570.389 600.697L576.328 600.485C579.509 588.169 583.893 574.383 582.535 561.558C582.281 559.141 577.007 546.867 581.899 548.324C589.195 550.487 594.229 562.068 595.035 569.095C596.505 582.047 594.088 594.122 585.887 604.331L602.529 618.626L568.791 671.579L566.572 671.536C553.874 655.163 497.032 653.381 494.826 630.602C492.804 609.647 509.744 634.293 514.353 637.418C523.869 643.879 532.155 643.936 542.166 637.997C567.83 622.741 546.748 588.028 519.444 595.253C510.225 597.699 507.057 609.308 497.923 609.93C494.77 591.096 513.844 575.698 531.392 583.404C535.28 585.115 537.147 591.351 541.134 586.105C543.17 583.432 545.447 569.887 545.659 565.998C546.125 557.811 543.298 551.053 545.701 543.672C559.021 547.787 557.169 568.6 556.447 579.855C556.037 586.331 548.897 598.633 559.53 597.6L559.572 597.629Z" fill="#FFFAF3"/>
<path d="M383.872 361.878C381.143 372.158 378.074 382.31 375.331 392.618C374.61 395.318 375.147 398.782 374.356 400.889C374.059 401.681 362.888 409.628 370.821 411.197C371.994 411.423 387.562 405.103 393.897 404.919C404.798 404.622 414.696 409.826 425.499 409.642C426.885 403.109 421.186 404.594 417.977 401.215C420.465 394.838 431.466 363.179 438.649 363.716C449.367 364.536 435.255 394.442 433.672 400.055C432.187 405.301 426.673 429.437 427.903 432.817C428.709 435.065 431.791 437.087 433.969 434.245C438.889 427.811 441.505 404 450.159 399.574C455.207 397.453 455.108 403.519 454.726 407.153C454.075 413.318 445.379 444.934 442.792 450.774C440.091 456.868 434.407 462.227 430.222 467.374L353.075 452.768C360.23 440.848 370.043 367.138 377.721 362.613C379.644 361.482 381.821 361.85 383.9 361.878H383.872Z" fill="#FFFAF3"/>
<path d="M520.674 602.647C544.103 596.595 555.726 625.426 536.086 633.457C520.999 639.636 514.042 626.486 505.7 616.899C510.705 613.251 514.679 604.188 520.66 602.647H520.674Z" fill="#B8E04A"/>
<path d="M411.571 400.351L397.743 398.838C399.864 394.045 400.373 388.785 401.97 383.808C404.77 375.069 414.201 350.919 425.937 354.425C435.411 357.267 422.148 371.181 419.065 377.77C415.983 384.359 413.212 393.168 411.585 400.351H411.571Z" fill="#FFFAF3"/>
<path d="M382.358 400.394C382.811 387.626 388.947 362.825 399.213 354.85C402.508 352.291 411.727 348.501 408.828 355.189C407.343 358.611 403.299 361.991 401.277 366.162C398.181 372.51 392.624 395.049 390.842 397.34C389.343 399.277 384.663 398.838 382.344 400.38L382.358 400.394Z" fill="#FFFAF3"/>
<path d="M280.609 153.813L322.915 112.144C325.842 105.173 324.456 97.2264 325.729 90.298C334.764 41.3607 387.378 2.61809 436.867 7.62352C499.549 13.9581 560.435 91.8958 514 149.076C502.49 163.258 500.722 158.197 485.565 162.255C476.331 164.729 465.232 170.13 457.851 176.154C444.644 186.942 449.381 194.012 427.832 192.33C394.519 189.714 356.525 166.595 336.673 140.168L280.609 153.813ZM372.588 84.9956C351.223 85.3491 351.93 119.807 373.521 115.014C390.065 111.338 387.194 84.7553 372.588 84.9956ZM415.884 89.3789C397.347 91.8109 398.421 121.589 415.474 121.547C436.669 121.49 433.205 87.1024 415.884 89.3789ZM474.324 120.981C477.887 117.093 479.64 106.587 476.473 102.09C467.169 94.2853 450.258 97.4102 450.102 111.423C449.947 124.742 466.787 129.224 474.324 120.981Z" fill="#B8E04A"/>
<path d="M499.535 297.048L507.283 270.961C517.379 277.055 543.538 264.923 531.915 253.145C523.233 244.35 513.773 254.219 507.184 259.366C505.558 260.639 503.748 263.014 502.575 259.338C502.023 257.585 511.709 250.402 512.119 247.347C518.821 239.033 518.369 214.586 506.35 212.366C484.405 208.308 484.603 244.93 490.217 258.574C479.626 260.851 481.492 243.714 472.91 239.698C450.837 229.334 455.984 269.335 477.816 266.365C478.537 279.218 476.374 298.321 459.42 292.467C459.194 287.645 458.459 282.993 462.206 279.374C448.292 271.837 441.18 259.451 439.511 243.784C430.264 157.377 541.883 140.282 569.569 218.559C579.17 245.693 568.565 288.197 535.478 290.827C529.921 291.265 519.698 287.66 516.813 288.975C511.78 291.265 514.48 297.176 510.832 298.49L499.521 297.034L499.535 297.048Z" fill="#A89FD8"/>
<path d="M479.442 295.59L485.805 266.505L496.339 263.932L500.496 268.598L492.578 294.091L479.442 295.59Z" fill="#A89FD8"/>
<path d="M496.41 252.45C490.853 246.653 494.798 217.256 503.112 218.67C513.957 220.523 508.556 251.192 496.41 252.45Z" fill="#A89FD8"/>
<path d="M476.36 258.616C473.15 261.656 460.75 248.732 467.89 244.787L476.36 258.616Z" fill="#A89FD8"/>
<path d="M513.349 264.766C513.448 260.468 527.432 253.709 527.192 259.393C527.065 262.32 516.559 266.237 513.349 264.766Z" fill="#A89FD8"/>
<path d="M213.996 584.082C254.521 580.901 275.363 625.738 242.785 654.611C199.503 692.972 141.94 634.434 188.092 596.85C193.833 592.17 206.771 584.648 213.996 584.082Z" fill="#B8E04A"/>
<path d="M195.431 200.303C207.86 198.154 239.391 220.721 226.637 233.15C215.113 244.377 170.531 204.616 195.431 200.303ZM208.1 220.056L210.575 212.35C205.696 208.66 200.436 207.005 194.286 207.783C194.328 211.474 205.894 221.64 208.1 220.056Z" fill="#1E3D34"/>
<path d="M152.672 193.914L148.034 200.05L142.11 196.487C144.245 191.312 146.38 186.547 152.672 186.179C144.613 175.956 158.682 175.419 160.096 187.381C160.845 193.673 153.464 214.034 145.758 212.394C142.887 210.146 143.835 210.641 144.669 208.28C146.437 203.317 151.032 199.061 152.672 193.914Z" fill="#1E3D34"/>
<path d="M542.095 420.811C552.968 419.708 577.939 445.81 568.946 452.102C557.507 460.105 520.235 423.031 542.095 420.811ZM561.127 445.075C562.782 443.081 556.009 435.601 554.213 434.315L552.643 438.938L561.141 445.075H561.127Z" fill="#1E3D34"/>
<path d="M627.415 465.125H622.24L620.486 462.043L615.749 472.916L610.461 472.831C607.464 466.044 622.225 443.873 628.15 445.089C633.325 446.15 624.488 460.572 627.401 465.139L627.415 465.125Z" fill="#1E3D34"/>
<path d="M415.884 89.3777C433.205 87.1012 436.669 121.503 415.474 121.545C398.421 121.588 397.347 91.8097 415.884 89.3777ZM411.854 113.5C423.505 116.455 425.98 103.531 418.302 96.9707C408.149 96.3486 406.905 106.317 411.854 113.5Z" fill="#1E3D34"/>
<path d="M372.588 84.9958C387.18 84.7554 390.065 111.324 373.521 115.014C351.93 119.822 351.223 85.3493 372.588 84.9958ZM369.562 92.4332C361.63 94.639 361.22 109.174 372.22 107.647C381.284 106.389 378.611 89.9305 369.562 92.4332Z" fill="#1E3D34"/>
<path d="M474.324 120.981C466.787 129.21 449.947 124.728 450.102 111.423C450.258 97.4102 467.169 94.2853 476.473 102.09C479.64 106.587 477.887 117.093 474.324 120.981ZM462.036 104.791C455.574 106.728 456.734 118.096 463.224 118.323C472.669 118.662 473.913 101.228 462.036 104.791Z" fill="#1E3D34"/>
<path d="M208.1 220.057C205.894 221.641 194.342 211.474 194.286 207.784C200.436 207.006 205.696 208.661 210.575 212.351L208.1 220.057Z" fill="#FFFAF3"/>
<path d="M561.127 445.075L552.629 438.938L554.199 434.314C555.995 435.601 562.782 443.081 561.113 445.075H561.127Z" fill="#FFFAF3"/>
<path d="M411.854 113.5C406.905 106.317 408.164 96.349 418.302 96.9711C425.98 103.546 423.505 116.456 411.854 113.5Z" fill="#FFFAF3"/>
<path d="M369.562 92.4326C378.611 89.9299 381.27 106.374 372.22 107.647C361.22 109.174 361.63 94.6384 369.562 92.4326Z" fill="#FFFAF3"/>
<path d="M462.036 104.791C473.914 101.228 472.669 118.662 463.224 118.323C456.734 118.096 455.574 106.728 462.036 104.791Z" fill="#FFFAF3"/>
</svg>
