<?xml version="1.0" encoding="UTF-8"?>
<svg id="Layer_1" data-name="Layer 1" xmlns="http://www.w3.org/2000/svg" viewBox="0 0 1500 1500">
  <defs>
    <style>
      .cls-1 {
        fill: #263c34;
      }

      .cls-2 {
        fill: #a59ed3;
      }

      .cls-3 {
        fill: #395e53;
      }

      .cls-4 {
        fill: #fdf9f3;
      }

      .cls-5 {
        fill: #bfde63;
      }
    </style>
  </defs>
  <path class="cls-1" d="M1018.96,634.78c-1.12,1.67-11.85,2.95-14.99,3.18-52.55,3.77-112.11-1.36-164.8-2.26l-38.07,25.91c-1.18,6.39,2.81,3.8,6.95,4.13,22.79,1.82,53.17,7.95,68.59,26.55,4.74,5.72,10.18,23.07,13.88,25.25,4.59,2.69,13.52.77,19.8,2.57,27,7.67,49.63,26.43,65.56,49.11,7.71-16.86,14.44-34.43,26.64-48.85,6.91-8.21,16.49-20.37,27.89-15.45-1.45-38.85,3.05-83.1,38.22-105.81,10.45-6.75,77.41-34.95,86.19-34.05,9.29.95,13.52,14.08,12.67,22.4,21.87-6.23,63.82-33.77,84.78-19.76,6.55,4.36,3.1,17.01,5.08,19.37,1.42,1.69,12.63-.15,17.15,9.44,4.52,9.6-1.29,15.73-.31,20.06.74,3.34,9.02,5.29,11.61,10.8,2.83,6-1.76,10.95-.38,16.65,1,4.05,6.64,7.47,7.24,12.29,1.25,10.29-11.72,22.14-20.58,25.91l-118.57,42.28.25,5.34c7.69.46,9.96,20.29,10.6,27.12,3.67,39.38-8.35,71.3-47.22,84.98-1.87,7.41,5.57,5.77,9.91,10.98,36,43.03,29.2,92.98-6.99,133.14-4.95,5.49-14.5,7.52-14.1,15.24,91.06,24.43,164.76,95.93,95.03,188.71-88.59,117.87-327.17,151.1-465.51,158.15-15.39.8-23.32,3.98-28.76-11.34l-136.04-26.99c-28.94,7.54-81.87,55.27-111.69,46.08-29.81-9.19,21.25-58.27,28.85-69.33-69.66-18.42-170.24-62.04-204.7-129.55-34.35-67.25,4.26-141.04,76.03-155.74,2.61-2.41-13.28-20.89-15.53-24.99-3.39-6.16-5.59-19.42-8.18-22.58-5.9-7.11-31.86.21-42.01.23-36.47,0-90.57.31-125.82-3-38.98-3.67-31.23-27.94,1.4-30.74-11.78-35.36,20.58-48.9,50.34-50.34-28.62-53.52,28.09-114.74,83.87-92.24-2.85-14.57,14.14-44.29,7.02-55.96-17.93-13.52-100.55-43.67-106.48-61.3-6.41-19.06,5.48-20.81,6.75-27.15.83-4-8.49-13.98-4.61-26.99,2.2-7.41,12.16-9.13,14.63-13.09,1.76-2.87-2.21-12.29,5.64-19.78,6.26-5.98,14.57-3.82,17.71-6.03,1.83-1.31,2.18-8.31,6.26-11.93,12.97-11.55,33.84-3.98,47.58,2.64,9.04,4.34,27.69,21.3,33.28,22.71,4.12,1.05,8.66-6.85,15.5-6.98,15.55-.28,93.76,51.16,106.04,64.35,15.35,16.45,17.71,30.61,15.71,52.83,11.23-4.93,21.03,7.26,28.02,15.32,9.6,11.06,18.96,26.38,22.34,40.62h4.14c10.34-19.83,53.42-19.58,62.95-26.58,2.76-2.05,7.29-17.47,10.67-22.89,15.64-25.17,42.46-42.9,73.13-40.15l2.88-27.81-202.89,5.72c-4.81.54-13.17-4.34-12.21-9.54.4-2.33,26.49-28.12,31.68-35.59,18.35-26.5,26.11-60.09,55.65-78.59,14.75-9.24,30.61-9.7,45.36-16.16,28.96-12.7,30.45-47.83,48.96-71.3,24.52-31.12,59.95-43.8,99.06-40.49,17.98,1.54,10.92,2.49,31.14.1,22.36-2.64,50.92,6.44,68.1,20.96,17.53,14.81,20.09,35.56,30.41,53.5,21.09,36.69,73.04,40.56,85.38,85.21,6.42,23.19-.02,44.31,23.35,60.55,9.22,6.39,51.57,17.68,42.62,30.97l-.05-.05ZM831.84,531.56c-15.42-15.06-34.88-11.93,0-23.76-14.55-22.53-14.5-10.31-36.11-10.03-4.83-9.24,1.61-14.55,8.11-20.76-14.14-10.49-32.28-21.04-39.16-37.74l-25.11,34.97c-.94,2.18,22.5,4.93,22.63,19.55.18,25.09-35.51-2.82-43.22-1.62-5.75,18.55-32.52,22.42-42.01,30.76-3.14,2.77-.54,7.85-3.16,8.72-12.76,4.18-18.89-26.63-37.18-16.24-19.36,10.98-.74,90.83,35.06,70.05,6.02-3.49,8.55-15.65,16.75-2.21-8.85,10.26-1.43,18.17-1.8,27.99-.42,11.26-1.67,40.72-3.67,49.7-.73,3.28-3.23,9.21-6.64,9.96l-12.3-2.34c17.78,52.78,94.94,62.63,128.64,18.14-20.05-7.88-39.23-17.65-57.38-29.28-7.2-4.62-34.82-19.88-32.1-29.33,3.83-13.19,38.34,11.78,46.74,14.68,74.13,25.53,127.71-55.4,93.03-119.59-3.99-.69-2.99,4.21-5.53,7-1.8,1.98-5.39,1.08-5.63,1.36-.31.38,3.9,5,2.54,9.31-1.8,5.72-31.83,15.7-38.83,17.37-3.63.87-7.37,1.18-8.42-2.95-2.85-11.01,17.67-14.6,25.13-15.37-4.74-7.08-14.23-7.03-18.94-15.93-9.33-17.58,4.55-25.94,7.75-18.6-1.29,18.32,16.15,22.53,30.81,26.17ZM859.79,525.96c2.61-5.24-4.9-48.7-13.94-41.92-7.6,15.98,3.16,30.45,13.94,41.92ZM345.19,587.52c-5.46,5.08,24.57,23.96,25.15,26.58,1.27,6.11-6.75,7.96-12.01,6.47-18.24-5.18-47.72-52.24-82.36-57.58-7.42-1.15-19.47-2.67-16.37,7.96,2.05,7.03,53.62,45.85,61.5,44.7.8-.13,3.54-9.93,12.87-5.72,5.21,4.82-39.21,63.91-40.88,75.61-13.57,2.62-7-5.03-11.18-8.72-16.55-1.59-47.2-31.05-58.99-32.92-11.03-1.75-10.91,8.83-5.55,15.55l115.08,59.27,120.47-27.63c5.66-8.29,5.17-18.34,2.25-27.58-6.26-19.76-68.56-57.7-88.57-68.02-6.71-3.46-13.5-8.36-21.43-7.9l.04-.05ZM1279.36,654.61c-2.36-2.26-55.22,14.39-57.21,16.63-1,1.13,1.83,11.52-8.24,8.29-2.85-.92-23.81-32-29.51-37.64-5.23-5.18-29.25-19.53-28.09-24.99,2.1-9.78,16.26,1.08,20.47.74,2.92-.23,38.72-15.04,43.8-17.6,8.29-4.21,40.34-22.42,15.44-23.96-10.6-.64-63.47,21.11-76.94,26.79-7.35,3.1-41.86,26.51-47.54,18.17-7.11-10.44,19.13-15.42,24.88-18.42,8.04-4.18,31.17-25.25,10.72-22.91-12.09,1.39-61.97,23.14-72.91,30.66-31.97,21.91-27.98,63.78-35.44,97.37l90.17,13.5,139.92-50.44c6.24-3.36,11.65-8.34,10.42-16.14l.05-.03ZM233.68,582.28c-5.93,9.37,8.62,22.09,15.06,27.53,5.95,5.03,51.08,34.48,54.51,32.41l7.11-15.63c-16.42-10.42-32.24-21.73-47.65-33.58-6.75-5.21-10-14.06-19.34-13.83-1.8.05-9.18,2.28-9.69,3.1ZM1187.07,626.67c4.26,7.57,8.29,11.83,17.42,10.67,10.52-1.33,61.22-19.42,60.3-31.71-1.43-18.78-35.29,4.47-42.26,7.49-11.52,5.03-23.57,9.39-35.42,13.55h-.04ZM294.82,651.84c-25.6-9.98-49.34-28.2-68.92-47.36-18.24,6.29-4.99,21.01,4.52,29.2,5.55,4.77,53.6,32.66,57.12,31.87l7.28-13.73v.03ZM1273.77,629.44c-5.39-5.21-57.45,18.29-67.09,20.94l7.2,9.42c1.89.46,28.13-7.21,32.48-8.8,9.78-3.59,29.09-8.8,27.38-21.53l.02-.03ZM652.49,671.72c-9.74-6.18-34.57,17.27-40.28,24.76-6.82,8.88-13.9,31.53-18.24,34.89-7.13,5.52-23.24,3.75-32.92,6.23-17.4,4.44-35.44,19.68-41.9,36.41-4.63,11.98-2.72,42.23-17.38,35.74-4.55-19.91,10.69-39.38,7.24-57.42-2.11-11.01-23.97-46.59-34.4-49.7-20.69.49-141.7,22.71-150.37,33.1-9.58,11.47-10.2,49.96-5.7,64.3,9.44,30.07,34.82,32.95,54.13,52.09-16.69,26.22-29.4,48.11-27.6,80.8,2.74,50.47,51.64,94.45,101.76,73.59,9.93-4.13,20.7-15.14,31.05-13.65,6.88,1,13.92,14.83,21.36,20.81,22.1,17.76,54.95,17.34,78.93,3.9,54.69-30.69,49.08-99.52,35.48-151.84,13.86-8.75,16.86,16.04,18.78,25.96,7.48,38.64,4.03,71.43-13.14,106.81l249.94,2.41c3.61-.92,3.99-3.41,4.59-6.59,1.81-9.88,1.6-56.63.13-67.25-1.29-9.16-8.93-15.55-10.65-25.71-1.51-8.93-2.54-60.22,6.37-62.22,15.35,4.11,3.61,28.48,4.01,43.41.38,14.93,5.52,35.02,20.43,41.15,8.55,3.52,19.07.36,25.89,7.67,5.08,10.44-1.36,22.32-1.13,31.89.87,40.49,36.93,64.22,75.41,56.4,21.72-4.44,20.96-16.68,35.17-28.97,80.6,38.77,146.95-80,80.75-134.81-5.19-4.28-13.95-1.92-12.77-12.52.8-7.13,26.98-17.14,35.08-23.89,24.62-20.55,24.55-51.83,14.88-80.46-41.72-9.85-85.41-18.73-128.06-18.7-19.92,20.01-32.34,47.08-33.84,75.48-.29,5.54,7.19,26.02-3.9,23.73-7.55-1.56-11.81-31.3-15.79-40.18-13.19-29.45-50.9-51.19-83.11-46.95-10.18-31.89-31.7-51.75-65.89-54.83-8.73,6.47-11.98,16.83-19.72,24.66-43.55,43.98-124.59,28.45-144.51-30.53l-.07.03ZM302.56,789.47c-41.1-17.96-88.01,20.17-76.36,63.78,2.32,8.65,22.97,27.48,5.68,30.66-14.61,2.67-28.14-3.8-43.21,7.13-20,14.52,1.23,29.2-1.4,34.87l-26.71,11.11,172.17.1c-1.76-26.91,4.03-59.7,23.59-79.82v-4.1c-27.75-9.83-47.71-35.41-53.77-63.71v-.03ZM907.1,940.1l-19.27-5.85-2.98,62.68,33.72,7.18c-13.83-19.96-11.21-41-11.47-64.02ZM1030.94,1007.43c-14.88,28.25-52.44,32.07-80.35,22.01-72.2-25.96-127.53-16.39-204.2-16.78-29.12-.15-59.06-4.41-89.5-3.05-9.87.44-43.48,1.74-49.61,3.51-16.53,4.77-29.16,25.2-59.19,27.48-35.38,2.69-51.01-12.29-75.61-33.69-27.18,19.37-45.8,22.12-77.59,13.24-6.5-1.8-13.7-8.06-18.6-8.9-28.02-4.8-64.07,22.22-78.15,45.11-61.12,99.27,69.7,173.09,144.99,203.59,17.11,6.93,37.05,9.31,51.73,20.55,33.12-29.4,71.55-75.84,112.21-94.24,30.99-14.03,39.58,3.67,68.16,10.8l-8.06-38.84,41.64-11.5-3.96-5.85-172.26-57.06-2.81-9.75c4.86-.56,9.4.23,14.12,1.26,58.01,12.5,125.13,48.75,181.53,58.99,33.55,6.08,52.93-9.93,74.31-32.25,4.1-4.28,23.24-30.33,25.17-30.79,8.66,1.31,7.69,6.57,4.83,13.24-5.24,12.16-25.39,23.43-30.03,37.13l220.74-55.86,3.03,5.52c-.87,1.41-.8,3.92-2.14,4.92-5.7,4.18-45.33,15.91-55.2,18.81-93.12,27.3-192.67,40.26-285.2,71.43l42.15,170.14c88.68-5.8,180.21-16.01,266.02-39.61,77.01-21.17,217.12-80.28,228.06-171.93,6.71-56.34-80.06-112.74-129.47-115.36-9.54-.51-16.71,3.05-24.91,2.93-7.48-.1-27.09-7.98-31.79-5.18h-.05ZM630.44,1191.52c-27.29,6.85-51.57,28.12-72.77,46.08-25.35,21.48-55.36,51.6-76.92,76.9-2.76,3.26-20.41,25.55-18.13,27.99l167.8-150.97h.02ZM705.98,1322.89l-26.67-106.12c-29.41-23.78-35.8-18.6-62.53,1.57-43.6,32.92-84.9,76.84-123.37,115.74,37.47-11.52,53.22-41,95.79-35.61,15.7,1.98,110.65,28.99,116.79,24.43Z"/>
  <path class="cls-1" d="M722.13,216.35c55.11-5.75,133.15,20.89,165.64,67.74,16.11,23.22-3.38,29.92-22.3,39.23-70.17,34.59-179.77,39.98-245.95-5.93-39-27.04-26.15-34.33,6.8-59.81,27.09-20.96,61.37-37.64,95.81-41.23ZM708.78,232.39c-39.74,7.13-73.55,31.28-100.62,60.09,26.98,25.71,63.78,40.21,100.62,43.31-25.97-30.15-28.02-74.1,0-103.4ZM792.7,333.02c16.15-3.13,32.06-6.82,47.51-12.62,6.79-2.54,43.35-18.35,41.9-24.94-2.47-10.98-71.22-61.86-89.4-57.47,1.11,7.49,7,12.09,9.71,19.63,5.06,14.19,6.02,32.87,3.03,47.62-2.16,10.6-10.09,17.93-12.74,27.79Z"/>
  <path class="cls-1" d="M1117.64,408.96l-.07,6.03c41.84,52.93-31.95,79.1-74.63,55.17-5.08-2.85-14.93-13.21-17.09-13.65-4.06-.79-12.76,6.77-19.38,7.8-31.92,4.93-51.53-27.74-38.18-54.96,2.98-6.03,13.74-13.42,14.26-16.57,1.27-7.31-20.16-20.73,3.03-41.64,17.66-15.91,38.65-11.21,54.64,4.23,16.06-27.89,41.79-44.11,72.24-24.66,27.06,17.27,33.64,60.12,5.17,78.28l.02-.03ZM1039.78,452.3c18.35,14.86,64.29,23.45,75.94-1.9,9.4-20.42-19.72-32.84-20.83-37.95-1.36-6.41,24.97-13.14,27.73-33.54,6.7-49.31-61.13-60.04-72.51-11.14,21.63,9.6,25.8,14.57,22.43,39.49-6.46,47.7-100.42,4.18-36.65-36.46-9.15-27.27-58.99-19.5-45.31,9.08,3.43,7.18,17.31,9.34,14.66,18.73-1.32,4.77-15.41,3.62-21.96,11.68-9.56,11.8-8.06,30.33,5.41,38.51,21.36,12.98,27.18-12.37,39.76-9.16,6.13,1.59,7.88,9.83,11.34,12.65ZM1040.85,383.92c-12.97,2.9-18.78,20.68-7.46,28.63,28.47,20.01,43.22-36.64,7.46-28.63Z"/>
  <path class="cls-1" d="M1268.18,795.8c.44-1.54,5.57-4.87,7-6.93,13.08-.26,4.54,56.58,4.23,67.04,15.53-6.34,24.55-25.09,39.96-31.38,5.73-2.34,8.76-4.13,13.16,2.05,3.14,11.29-29.8,28.94-37.31,35.36-2.9,2.49-5.84,2.75-4.65,7.93,16.24,4.7,33.77,7.75,49.72,13.19,6.41,2.18,26.51,7.98,14.68,16.27-8.67,6.06-56-16.5-69.99-15.45l19.42,51.44-6.9,4.59c-11.36-.03-16.66-38.97-26.51-44.85-2.25,9.19-13.34,57.99-23.75,55.91-11.89-2.36,2.65-37.56,4.14-44.72-11.83,4.98-30.65,41.69-39.23,20.96l42.04-48.88c-14.41-3.88-36.56,4.98-48.87,2.82-3.96-.69-7.48-2.36-7.06-7,2.07-8.75,48.96-7.8,58.72-9.85-5.04-6.39-30.94-41.51-25.17-47.49,19.38-.64,20.25,29.25,36.36,33.53,2.61-14.42-3.54-42.08,0-54.52v-.03Z"/>
  <path class="cls-1" d="M423.49,416.92c11.5-2.67,29.38-30.66,40.52-27.97,18.91,4.57-25.06,31.97-27.45,34.02-2.9,2.49-5.84,2.75-4.65,7.93,15.42,3.72,35.4,6.98,49.77,13.16,3.28,1.41,10.09,2.36,8.93,7.77-2.61,12.44-52.55-9.29-61.5-9.75l13.94,47.52c-20.99.67-14.17-28.07-27.93-36.33l-14.41,44.31-10.78.41,5.53-33.56-26.55,22.3-4.28-6.93,36.45-43.28-47.58,2.75.22-8.16,47.34-5.82c2.74-2.26-25.69-32.51-19.56-41.92,6.77-6.67,20.52,22.32,24.35,27.2,1.8,2.28-.11,5.11,6.41,3.54v-48.93l6.97-4.18,4.23,4.18v51.73l.02.03Z"/>
  <path class="cls-1" d="M747.92,201.63l-11.27-1.82-5.5-56.91,8.58,1.21,2.1,3.49,6.08,54.03Z"/>
  <path class="cls-1" d="M663.56,162.96c2.3,1.33,20.43,46.54,17.24,49.83-4.77.62-6.21.38-9.73-2.82-3.28-3-20.43-45.44-18.22-47.47,3.3.36,8-1.08,10.71.49v-.03Z"/>
  <path class="cls-1" d="M833.28,165.27c6.06.31,7.06,3.69,6.46,9.08-.51,4.57-9.07,32.35-11.34,36.38-5.72,10.19-14.1,10.11-12.83-1.44.62-5.54,14.12-43.16,17.71-44.03Z"/>
  <path class="cls-1" d="M584.37,207.22c4.41-.87,32.5,31.61,33.77,36.15,5.1,18.32-13.68,1.15-18.51-3.93-3.59-3.8-28.4-29.66-15.26-32.23Z"/>
  <path class="cls-1" d="M862.64,246.32c-3.56-3.36,18.98-33.66,22.76-37.33,7.93-7.78,15.7-4.16,12.23,3.8-.89,2.08-21.01,29.51-22.46,30.69-3.12,2.51-10.69,4.59-12.52,2.85Z"/>
  <path class="cls-1" d="M644.43,235.13c-8.56,7.9-20.76-13.96-16.75-22.35,7.82-2.18,20.45,18.94,16.75,22.35Z"/>
  <path class="cls-2" d="M652.49,671.72c19.94,58.99,100.96,74.51,144.51,30.53,7.75-7.82,11.03-18.19,19.72-24.66,34.17,3.1,55.71,22.94,65.89,54.83,32.21-4.23,69.92,17.5,83.11,46.95,3.97,8.88,8.24,38.61,15.79,40.18,11.07,2.28,3.61-18.19,3.88-23.73,1.52-28.4,13.94-55.47,33.84-75.49,42.64,0,86.34,8.85,128.07,18.7,9.67,28.63,9.74,59.91-14.9,80.46-8.06,6.72-34.28,16.73-35.06,23.89-1.18,10.6,7.58,8.23,12.77,12.52,66.2,54.8-.16,173.57-80.75,134.8-14.24,12.26-13.45,24.53-35.19,28.97-38.45,7.85-74.51-15.91-75.4-56.4-.22-9.57,6.21-21.45,1.13-31.89-6.82-7.31-17.35-4.16-25.89-7.67-14.93-6.13-20.05-26.53-20.45-41.15-.38-14.63,11.34-39.31-3.99-43.41-8.91,2-7.88,53.29-6.37,62.22,1.74,10.16,9.36,16.55,10.65,25.71,1.45,10.62,1.69,57.37-.13,67.25-.6,3.18-.96,5.67-4.59,6.59l-249.94-2.41c17.17-35.38,20.61-68.17,13.14-106.81-1.92-9.93-4.9-34.71-18.78-25.96,13.59,52.32,19.25,121.15-35.48,151.84-24.01,13.45-56.83,13.86-78.93-3.9-7.44-5.98-14.5-19.81-21.38-20.81-10.31-1.49-21.1,9.52-31.05,13.65-50.1,20.86-99-23.12-101.74-73.59-1.78-32.69,10.92-54.57,27.6-80.8-19.33-19.14-44.73-22.04-54.13-52.08-4.5-14.34-3.88-52.83,5.68-64.3,8.67-10.39,129.69-32.61,150.39-33.1,10.43,3.1,32.3,38.69,34.4,49.7,3.43,18.04-11.81,37.51-7.24,57.42,14.66,6.49,12.76-23.79,17.37-35.74,6.44-16.75,24.52-31.99,41.9-36.41,9.71-2.46,25.79-.72,32.93-6.23,4.34-3.36,11.41-26.02,18.24-34.89,5.75-7.47,30.54-30.92,40.28-24.76l.07-.03Z"/>
  <path class="cls-5" d="M1030.94,1007.43c4.7-2.8,24.33,5.08,31.79,5.18,8.24.1,15.37-3.44,24.91-2.93,49.39,2.62,136.19,59.01,129.47,115.36-10.96,91.65-151.05,150.74-228.04,171.93-85.83,23.61-177.32,33.79-266.02,39.62l-42.17-170.14c92.53-31.15,192.07-44.11,285.2-71.43,9.87-2.9,49.52-14.63,55.22-18.81,1.36-1,1.27-3.51,2.12-4.93l-3.03-5.52-220.73,55.86c4.65-13.7,24.79-24.94,30.01-37.13,2.87-6.67,3.79-11.93-4.83-13.24-1.92.46-21.07,26.5-25.17,30.79-21.38,22.3-40.74,38.33-74.31,32.25-56.4-10.21-123.52-46.47-181.53-58.99-4.72-1.03-9.25-1.82-14.1-1.26l2.79,9.75,172.26,57.06,3.96,5.85-41.64,11.5,8.06,38.84c-28.58-7.13-37.14-24.84-68.14-10.8-40.68,18.4-79.08,64.84-112.23,94.24-14.68-11.24-34.62-13.62-51.73-20.55-75.27-30.51-206.1-104.3-144.99-203.59,14.08-22.89,50.14-49.9,78.15-45.11,4.92.85,12.1,7.08,18.6,8.9,31.79,8.85,50.41,6.11,77.59-13.24,24.57,21.4,40.23,36.38,75.61,33.69,30.07-2.28,42.7-22.71,59.19-27.48,6.13-1.77,39.78-3.05,49.61-3.51,30.43-1.38,60.39,2.9,89.5,3.05,76.65.38,131.99-9.21,204.2,16.78,27.91,10.06,65.47,6.23,80.35-22.01h.05Z"/>
  <path class="cls-4" d="M831.84,531.55c.22-.28,3.81.62,5.61-1.36,2.54-2.82,1.54-7.7,5.55-7,34.66,64.19-18.91,145.15-93.03,119.59-8.42-2.9-42.93-27.86-46.76-14.68-2.7,9.44,24.88,24.71,32.1,29.33,18.16,11.65,37.34,21.4,57.38,29.28-33.71,44.49-110.87,34.64-128.62-18.14l12.28,2.34c3.41-.74,5.93-6.67,6.64-9.95,2.01-8.98,3.27-38.44,3.67-49.7.36-9.83-7.04-17.73,1.8-27.99-8.2-13.44-10.74-1.28-16.75,2.21-35.78,20.76-54.44-59.06-35.04-70.04,18.25-10.37,24.42,20.42,37.16,16.24,2.63-.85,0-5.95,3.16-8.72,9.51-8.34,36.26-12.21,42.01-30.76,7.73-1.2,43.42,26.74,43.24,1.62-.11-14.6-23.59-17.37-22.63-19.55l25.11-34.97c6.88,16.7,24.99,27.25,39.14,37.74-6.48,6.21-12.92,11.49-8.09,20.76,21.63-.28,21.58-12.52,36.09,10.03-34.84,11.83-15.42,8.7,0,23.76-14.63-3.64-32.1-7.85-30.81-26.17-3.18-7.34-17.06,1.03-7.75,18.6,4.72,8.9,14.21,8.85,18.96,15.93-7.44.77-28,4.36-25.15,15.37,1.09,4.13,4.81,3.82,8.42,2.95,7-1.69,37.05-11.65,38.85-17.37,1.36-4.31-2.85-8.93-2.54-9.31ZM764.72,514.8c-1.8-1.77-24.17,6.39-32.28,5.82-10.23-.72-20.58-12.44-23.63,1.1,8.76,7.57,13.94,7.16,11.18,21.01l18.25-8.54,11.11,8.47c5.13-3.16,3.12-9.62,5.72-13.78,1.43-2.34,15.35-8.44,9.65-14.11v.03ZM655.63,556.72c-1.41,6.31-.29,30.23,9.74,19.53,12.05-12.85-7.13-57.63-24.81-52.96-4.14,1.1-6.06,9.29-4.5,11.03.54.59,12.25.72,13.77,7-11.98,10.36-10.51,29.02,5.79,15.39ZM811.41,581.07c1.18-1.31,3.1-4.8,2.89-6.21-2.14-12.52-13.79-.15-19.67,1.98-13.39,4.9-21.41,6.95-34.68,0-8.87-4.67-12.27-15.75-23.19-14.52.33,33.82,56.43,38.97,74.63,18.73l.02.03Z"/>
  <path class="cls-4" d="M1279.36,654.61c1.23,7.8-4.17,12.78-10.42,16.14l-139.94,50.44-90.15-13.5c7.46-33.59,3.43-75.49,35.42-97.37,10.96-7.49,60.84-29.27,72.93-30.66,20.45-2.33-2.72,18.73-10.72,22.91-5.75,3-31.99,7.98-24.9,18.42,5.7,8.34,40.21-15.06,47.54-18.17,13.48-5.7,66.36-27.45,76.96-26.79,24.86,1.54-7.17,19.76-15.44,23.96-5.08,2.59-40.88,17.37-43.8,17.6-4.21.33-18.36-10.52-20.47-.74-1.18,5.46,22.86,19.81,28.09,24.99,5.7,5.64,26.64,36.72,29.51,37.64,10.05,3.26,7.24-7.16,8.24-8.29,2-2.23,54.86-18.88,57.21-16.63l-.05.03Z"/>
  <path class="cls-3" d="M302.56,789.47c6.06,28.3,26.02,53.88,53.78,63.71v4.1c-19.54,20.11-25.37,52.91-23.61,79.82l-172.17-.1,26.71-11.11c2.63-5.67-18.62-20.35,1.4-34.87,15.06-10.93,28.58-4.46,43.21-7.13,17.29-3.16-3.36-22.01-5.68-30.66-11.65-43.59,35.29-81.72,76.36-63.78v.03Z"/>
  <path class="cls-4" d="M345.19,587.52c7.93-.46,14.73,4.44,21.43,7.9,20,10.31,82.31,48.26,88.57,68.02,2.92,9.24,3.38,19.29-2.27,27.58l-120.45,27.63-115.08-59.27c-5.37-6.72-5.5-17.32,5.53-15.55,11.81,1.87,42.44,31.33,58.99,32.92,4.19,3.7-2.38,11.34,11.2,8.72,1.65-11.67,46.07-70.76,40.86-75.61-9.31-4.18-12.09,5.62-12.85,5.72-7.88,1.15-59.46-37.67-61.51-44.7-3.1-10.62,8.96-9.08,16.37-7.95,34.62,5.34,64.11,52.39,82.36,57.58,5.26,1.49,13.3-.36,12.01-6.47-.56-2.64-30.61-21.5-25.15-26.58l-.02.05Z"/>
  <path class="cls-3" d="M705.98,1322.89c-6.13,4.59-101.09-22.42-116.79-24.43-42.57-5.39-58.32,24.07-95.79,35.61,38.47-38.87,79.75-82.82,123.37-115.74,26.71-20.17,33.12-25.35,62.53-1.57l26.67,106.12Z"/>
  <path class="cls-4" d="M630.44,1191.52l-167.8,150.97c-2.29-2.41,15.35-24.71,18.15-27.99,21.54-25.32,51.57-55.42,76.92-76.9,21.19-17.96,45.44-39.2,72.77-46.08h-.04Z"/>
  <path class="cls-4" d="M233.68,582.28c.53-.85,7.93-3.08,9.69-3.1,9.36-.21,12.59,8.62,19.34,13.83,15.37,11.85,31.23,23.17,47.65,33.59l-7.11,15.63c-3.43,2.05-48.56-27.38-54.51-32.41-6.44-5.44-20.99-18.16-15.06-27.53Z"/>
  <path class="cls-4" d="M907.1,940.1c.25,23.01-2.36,44.08,11.47,64.02l-33.72-7.19,2.98-62.68,19.27,5.85Z"/>
  <path class="cls-4" d="M294.82,651.84l-7.28,13.73c-3.52.82-51.57-27.09-57.12-31.87-9.51-8.19-22.76-22.94-4.52-29.2,19.58,19.14,43.31,37.38,68.92,47.36v-.03Z"/>
  <path class="cls-4" d="M1187.07,626.67c11.87-4.16,23.92-8.49,35.44-13.55,6.95-3.05,40.83-26.3,42.26-7.49.94,12.29-49.77,30.38-60.3,31.71-9.13,1.16-13.14-3.1-17.42-10.67h.02Z"/>
  <path class="cls-4" d="M1273.77,629.44c1.69,12.73-17.6,17.96-27.38,21.53-4.37,1.59-30.61,9.26-32.48,8.8l-7.2-9.42c9.62-2.62,61.68-26.14,67.1-20.93l-.04.03Z"/>
  <path class="cls-4" d="M859.79,525.96c-10.78-11.47-21.5-25.94-13.94-41.93,9.04-6.75,16.55,36.72,13.94,41.93Z"/>
  <path class="cls-4" d="M708.78,232.39c-28.02,29.3-25.97,73.25,0,103.4-36.84-3.1-73.65-17.6-100.62-43.31,27.06-28.81,60.88-52.96,100.62-60.09Z"/>
  <path class="cls-4" d="M792.7,333.02c2.67-9.88,10.58-17.19,12.74-27.79,2.99-14.75,2.01-33.43-3.03-47.62-2.7-7.54-8.62-12.14-9.71-19.63,18.18-4.39,86.94,46.52,89.4,57.47,1.49,6.59-35.11,22.4-41.9,24.94-15.46,5.8-31.36,9.49-47.51,12.62Z"/>
  <path class="cls-2" d="M1039.78,452.3c-3.47-2.8-5.21-11.03-11.34-12.65-12.58-3.21-18.4,22.14-39.76,9.16-13.46-8.18-14.97-26.71-5.41-38.51,6.55-8.06,20.63-6.9,21.96-11.68,2.63-9.39-11.25-11.55-14.66-18.73-13.68-28.58,36.16-36.38,45.31-9.08-63.76,40.64,30.21,84.16,36.65,36.46,3.36-24.89-.8-29.86-22.43-39.49,11.38-48.9,79.21-38.2,72.51,11.14-2.76,20.4-29.09,27.12-27.73,33.53,1.07,5.11,30.21,17.53,20.83,37.95-11.65,25.35-57.58,16.75-75.94,1.9Z"/>
  <path class="cls-4" d="M1040.85,383.92c35.77-8.01,21.01,48.65-7.46,28.63-11.32-7.96-5.52-25.71,7.46-28.63Z"/>
  <path class="cls-1" d="M811.41,581.07c-18.22,20.24-74.31,15.06-74.63-18.73,10.96-1.23,14.34,9.85,23.19,14.52,13.25,6.98,21.3,4.93,34.7,0,5.84-2.16,17.49-14.5,19.65-1.98.24,1.41-1.69,4.88-2.87,6.21l-.04-.03Z"/>
  <path class="cls-1" d="M655.63,556.73c-16.29,13.65-17.76-5.03-5.79-15.39-1.52-6.31-13.23-6.41-13.77-7-1.6-1.75.34-9.93,4.5-11.03,17.67-4.67,36.85,40.1,24.81,52.96-10.05,10.7-11.16-13.21-9.74-19.52Z"/>
  <path class="cls-1" d="M764.72,514.8c5.72,5.65-8.18,11.78-9.65,14.11-2.59,4.16-.58,10.62-5.72,13.78l-11.11-8.47-18.25,8.54c2.72-13.85-2.43-13.44-11.18-21.01,3.05-13.57,13.39-1.82,23.63-1.1,8.13.56,30.49-7.62,32.28-5.82v-.03Z"/>
</svg>