<svg width="671" height="670" viewBox="0 0 671 670" fill="none" xmlns="http://www.w3.org/2000/svg">
<path d="M483.629 271.071C483.007 271.99 477.096 272.697 475.371 272.824C446.413 274.903 413.595 272.075 384.551 271.58L363.568 285.861C362.918 289.382 365.124 287.954 367.4 288.138C379.956 289.141 396.698 292.521 405.196 302.772C407.811 305.925 410.809 315.484 412.845 316.685C415.376 318.17 420.297 317.11 423.761 318.099C438.636 322.327 451.107 332.663 459.888 345.163C464.144 335.873 467.849 326.187 474.565 318.241C478.383 313.716 483.657 307.014 489.935 309.729C489.143 288.321 491.618 263.931 511.004 251.417C516.758 247.698 553.663 232.159 558.499 232.654C563.617 233.177 565.951 240.416 565.484 244.998C577.531 241.562 600.649 226.39 612.201 234.11C615.807 236.514 613.913 243.485 615.001 244.785C615.779 245.719 621.958 244.701 624.447 249.989C626.935 255.277 623.74 258.656 624.277 261.046C624.687 262.884 629.254 263.959 630.682 266.999C632.238 270.307 629.707 273.036 630.47 276.175C631.022 278.409 634.132 280.29 634.457 282.948C635.15 288.618 627.996 295.151 623.118 297.229L557.778 320.531L557.919 323.473C562.161 323.727 563.405 334.657 563.759 338.418C565.781 360.122 559.163 377.712 537.742 385.249C536.709 389.335 540.81 388.43 543.2 391.3C563.038 415.012 559.291 442.542 539.354 464.671C536.625 467.697 531.365 468.814 531.577 473.07C581.759 486.531 622.382 525.938 583.95 577.067C535.126 642.024 403.654 660.335 327.413 664.223C318.929 664.662 314.56 666.415 311.562 657.974L236.593 643.099C220.644 647.256 191.473 673.556 175.043 668.494C158.612 663.432 186.75 636.383 190.936 630.288C152.546 620.136 97.1186 596.099 78.1289 558.897C59.1957 521.837 80.4762 481.172 120.025 473.07C121.467 471.741 112.715 461.56 111.471 459.298C109.604 455.904 108.388 448.594 106.96 446.855C103.708 442.938 89.3983 446.968 83.8131 446.982C63.7063 446.982 33.8999 447.152 14.4718 445.328C-7.00646 443.306 -2.73637 429.93 15.2353 428.389C8.74511 408.904 26.5753 401.438 42.9774 400.647C27.2116 371.151 58.4606 337.414 89.2004 349.815C87.6309 341.783 96.9914 325.41 93.0747 318.976C83.191 311.525 37.661 294.91 34.3947 285.197C30.8598 274.691 37.4065 273.729 38.1135 270.237C38.5659 268.031 33.4331 262.531 35.5682 255.362C36.7842 251.276 42.2706 250.328 43.628 248.151C44.6036 246.567 42.4119 241.378 46.7387 237.249C50.1888 233.954 54.7701 235.142 56.4951 233.926C57.5132 233.205 57.6969 229.345 59.9452 227.351C67.0999 220.988 78.5957 225.16 86.1746 228.808C91.1518 231.197 101.431 240.544 104.514 241.321C106.776 241.901 109.279 237.546 113.054 237.475C121.623 237.32 164.721 265.67 171.494 272.937C179.949 282.001 181.25 289.806 180.147 302.051C186.341 299.336 191.742 306.052 195.588 310.492C200.876 316.587 206.037 325.028 207.904 332.875H210.18C215.879 321.945 239.619 322.087 244.865 318.227C246.392 317.096 248.895 308.598 250.747 305.614C259.372 291.743 274.148 281.973 291.045 283.486L292.643 268.158L180.826 271.311C178.182 271.608 173.572 268.922 174.096 266.051C174.322 264.765 188.702 250.554 191.558 246.44C201.668 231.834 205.952 213.325 222.227 203.13C230.358 198.04 239.096 197.785 247.226 194.222C263.19 187.223 264.01 167.866 274.205 154.928C287.723 137.777 307.249 130.792 328.798 132.616C338.71 133.464 334.822 133.987 345.964 132.672C358.28 131.216 374.017 136.221 383.491 144.224C393.148 152.383 394.563 163.822 400.247 173.706C411.87 193.925 440.503 196.06 447.304 220.663C450.839 233.445 447.29 245.082 460.171 254.033C465.247 257.554 488.592 263.775 483.657 271.099L483.629 271.071ZM380.508 214.187C372.01 205.887 361.292 207.612 380.508 201.094C372.49 188.679 372.519 195.41 360.613 195.565C357.955 190.475 361.504 187.548 365.081 184.126C357.29 178.343 347.293 172.532 343.504 163.327L329.661 182.599C329.138 183.801 342.061 185.314 342.132 193.374C342.231 207.202 322.563 191.818 318.307 192.483C315.14 202.706 300.392 204.841 295.16 209.436C293.435 210.963 294.863 213.763 293.421 214.244C286.393 216.549 283.014 199.567 272.932 205.293C262.257 211.345 272.522 255.348 292.247 243.895C295.57 241.972 296.956 235.269 301.48 242.679C296.602 248.335 300.689 252.69 300.491 258.105C300.264 264.312 299.572 280.545 298.469 285.493C298.073 287.303 296.687 290.57 294.806 290.98L288.033 289.693C297.832 318.778 340.351 324.208 358.916 299.69C347.873 295.349 337.296 289.962 327.3 283.556C323.326 281.011 308.112 272.598 309.611 267.395C311.718 260.127 330.736 273.885 335.374 275.483C376.223 289.552 405.747 244.955 386.644 209.578C384.439 209.196 384.99 211.897 383.59 213.438C382.6 214.527 380.621 214.032 380.494 214.187C380.324 214.399 382.643 216.945 381.893 219.32C380.904 222.473 364.346 227.973 360.486 228.893C358.492 229.373 356.428 229.543 355.848 227.266C354.278 221.201 365.59 219.221 369.705 218.797C367.089 214.894 361.857 214.923 359.256 210.016C354.123 200.33 361.772 195.721 363.526 199.765C362.819 209.861 372.434 212.179 380.508 214.187ZM395.906 211.105C397.348 208.22 393.205 184.268 388.228 188.001C384.043 196.81 389.967 204.784 395.906 211.105ZM112.319 245.026C109.307 247.825 125.865 258.232 126.176 259.674C126.883 263.04 122.457 264.058 119.558 263.238C109.505 260.381 93.2583 234.449 74.1697 231.508C70.0833 230.872 63.4378 230.038 65.1487 235.892C66.2798 239.766 94.7007 261.159 99.0416 260.523C99.4799 260.452 100.993 255.051 106.126 257.37C108.996 260.028 84.5202 292.592 83.6011 299.039C76.1212 300.481 79.7408 296.268 77.436 294.232C68.3159 293.355 51.433 277.123 44.9287 276.091C38.8486 275.129 38.9195 280.955 41.8747 284.659L105.291 317.322L171.678 302.093C174.803 297.526 174.534 291.984 172.922 286.893C169.472 276.006 135.14 255.093 124.111 249.409C120.407 247.5 116.674 244.8 112.305 245.054L112.319 245.026ZM627.133 282.001C625.832 280.757 596.704 289.933 595.601 291.163C595.05 291.786 596.605 297.512 591.063 295.731C589.493 295.222 577.941 278.098 574.802 274.988C571.917 272.132 558.683 264.227 559.319 261.216C560.478 255.829 568.284 261.81 570.602 261.626C572.214 261.499 591.939 253.34 594.739 251.926C599.306 249.607 616.967 239.568 603.251 238.72C597.412 238.366 568.27 250.356 560.846 253.481C556.802 255.192 537.784 268.088 534.645 263.492C530.728 257.737 545.193 254.994 548.361 253.34C552.786 251.035 565.54 239.427 554.271 240.713C547.611 241.477 520.124 253.467 514.086 257.61C496.468 269.685 498.673 292.761 494.559 311.27L544.246 318.707L621.364 290.909C624.8 289.057 627.784 286.314 627.105 282.015L627.133 282.001ZM50.8675 242.141C47.6013 247.302 55.6185 254.316 59.1676 257.313C62.448 260.085 87.3198 276.317 89.2146 275.172L93.1313 266.561C84.0818 260.82 75.3575 254.584 66.8737 248.052C63.1549 245.181 61.3593 240.303 56.2124 240.43C55.2226 240.459 51.1503 241.689 50.8675 242.141ZM576.273 266.603C578.62 270.774 580.84 273.121 585.873 272.485C591.671 271.75 619.611 261.781 619.102 255.008C618.31 244.658 599.646 257.469 595.814 259.137C589.465 261.909 582.819 264.312 576.287 266.603H576.273ZM84.5625 280.474C70.451 274.974 57.3718 264.934 46.5832 254.372C36.5298 257.836 43.8259 265.952 49.0718 270.463C52.126 273.093 78.6096 288.463 80.5467 288.024L84.5625 280.46V280.474ZM624.051 268.13C621.081 265.26 592.392 278.212 587.076 279.668L591.048 284.857C592.095 285.112 606.546 280.884 608.95 280.007C614.337 278.028 624.984 275.157 624.037 268.144L624.051 268.13ZM281.671 291.432C276.297 288.024 262.624 300.948 259.471 305.077C255.71 309.969 251.808 322.454 249.418 324.307C245.487 327.347 236.607 326.371 231.277 327.743C221.69 330.189 211.75 338.588 208.186 347.807C205.641 354.41 206.687 371.081 198.614 367.503C196.097 356.531 204.496 345.799 202.601 335.859C201.442 329.793 189.395 310.181 183.64 308.47C172.243 308.739 105.546 320.984 100.767 326.71C95.4925 333.031 95.1532 354.24 97.6276 362.144C102.831 378.716 116.815 380.3 127.463 390.848C118.258 405.299 111.258 417.36 112.248 435.374C113.761 463.186 140.711 487.422 168.326 475.926C173.798 473.65 179.737 467.584 185.436 468.404C189.225 468.955 193.113 476.576 197.214 479.871C209.388 489.656 227.487 489.429 240.708 482.02C270.854 465.109 267.757 427.173 260.263 398.342C267.899 393.52 269.553 407.179 270.614 412.651C274.728 433.945 272.833 452.016 263.374 471.514L401.109 472.844C403.103 472.335 403.315 470.963 403.64 469.21C404.644 463.766 404.517 438.004 403.711 432.15C403.004 427.102 398.79 423.581 397.843 417.982C397.009 413.061 396.443 384.796 401.35 383.693C409.805 385.956 403.343 399.388 403.556 407.617C403.768 415.847 406.596 426.918 414.825 430.297C419.533 432.235 425.331 430.495 429.092 434.525C431.891 440.28 428.342 446.827 428.47 452.101C428.95 474.413 448.817 487.492 470.027 483.18C482.003 480.733 481.579 473.989 489.412 467.216C533.825 488.581 570.39 423.129 533.91 392.926C531.054 390.565 526.218 391.866 526.868 386.026C527.307 382.095 541.743 376.581 546.197 372.862C559.771 361.536 559.729 344.3 554.398 328.52C531.407 323.091 507.327 318.198 483.827 318.213C472.854 329.241 466.011 344.159 465.176 359.811C465.021 362.865 469.135 374.149 463.027 372.89C458.87 372.028 456.523 355.64 454.331 350.748C447.063 334.516 426.278 322.539 408.533 324.872C402.919 307.297 391.056 296.353 372.222 294.656C367.414 298.219 365.618 303.932 361.348 308.244C337.353 332.479 292.685 323.925 281.713 291.418L281.671 291.432ZM88.8327 356.319C66.1809 346.421 40.3334 367.433 46.7528 391.47C48.0254 396.235 59.4079 406.614 49.8777 408.367C41.8321 409.837 34.3664 406.274 26.0664 412.298C15.0515 420.301 26.745 428.389 25.3028 431.513L10.5834 437.636L105.461 437.692C104.485 422.86 107.681 404.789 118.455 393.704V391.442C103.17 386.026 92.1697 371.929 88.8327 356.333V356.319ZM421.98 439.333L411.361 436.109L409.72 470.652L428.3 474.611C420.679 463.61 422.121 452.016 421.98 439.333ZM490.232 476.435C482.031 492.003 461.331 494.11 445.947 488.567C406.157 474.258 375.672 479.532 333.422 479.32C317.374 479.235 300.873 476.888 284.103 477.637C278.659 477.877 260.136 478.598 256.757 479.574C247.65 482.204 240.694 493.459 224.136 494.718C204.637 496.202 196.026 487.945 182.466 476.152C167.492 486.828 157.227 488.341 139.708 483.448C136.13 482.458 132.157 479.008 129.456 478.542C114.016 475.898 94.1493 490.787 86.3866 503.399C52.7057 558.106 124.804 598.785 166.29 615.597C175.722 619.415 186.708 620.73 194.796 626.923C213.05 610.719 234.232 585.126 256.643 574.988C273.724 567.254 278.447 577.01 294.199 580.941L289.759 559.534L312.708 553.199L310.53 549.975L215.596 518.529L214.055 513.156C216.727 512.845 219.23 513.283 221.831 513.848C253.801 520.734 290.791 540.714 321.87 546.356C340.365 549.707 351.04 540.883 362.819 528.582C365.081 526.221 375.63 511.869 376.69 511.614C381.455 512.336 380.932 515.234 379.348 518.91C376.464 525.613 365.364 531.82 362.805 539.371L484.449 508.589L486.117 511.629C485.637 512.406 485.679 513.792 484.944 514.343C481.805 516.648 459.959 523.11 454.515 524.708C403.202 539.752 348.34 546.893 297.352 564.072L320.583 657.832C369.45 654.637 419.887 649.009 467.184 636.001C509.618 624.336 586.835 591.758 592.858 541.251C596.563 510.2 548.742 479.122 521.509 477.679C516.249 477.397 512.304 479.362 507.78 479.291C503.665 479.235 492.848 474.894 490.26 476.435H490.232ZM269.525 577.887C254.48 581.662 241.104 593.384 229.424 603.282C215.454 615.117 198.911 631.716 187.033 645.658C185.506 647.454 175.778 659.741 177.036 661.084L269.511 577.887H269.525ZM311.152 650.282L296.447 591.8C280.243 578.693 276.722 581.549 261.988 592.663C237.965 610.804 215.2 635.011 194.004 656.447C214.648 650.098 223.33 633.852 246.788 636.821C255.441 637.91 307.773 652.799 311.152 650.282Z" fill="#1E3D34"/>
<path d="M320.046 40.4811C350.418 37.3139 393.432 51.9908 411.333 77.8098C420.212 90.6061 409.466 94.2966 399.045 99.4293C360.373 118.489 299.968 121.459 263.501 96.163C242.009 81.2598 249.093 77.2442 267.248 63.2035C282.18 51.6514 301.071 42.4607 320.046 40.4811ZM312.694 49.3184C290.791 53.2492 272.155 66.5546 257.238 82.4334C272.113 96.6013 292.389 104.59 312.694 106.301C298.384 89.687 297.253 65.4659 312.694 49.3184ZM358.945 104.774C367.839 103.049 376.605 101.013 385.117 97.8173C388.864 96.4175 409.014 87.7075 408.208 84.0736C406.85 78.0219 368.956 49.983 358.945 52.4008C359.553 56.5296 362.805 59.0606 364.29 63.2177C367.075 71.0369 367.612 81.3305 365.958 89.4608C364.77 95.3005 360.401 99.3444 358.945 104.774Z" fill="#1E3D34"/>
<path d="M538.01 146.628L537.968 149.95C561.03 179.12 520.364 193.543 496.836 180.351C494.036 178.781 488.606 173.069 487.418 172.828C485.184 172.39 480.391 176.561 476.743 177.127C459.153 179.842 448.336 161.842 455.703 146.84C457.343 143.517 463.268 139.445 463.565 137.706C464.258 133.676 452.451 126.281 465.233 114.757C474.961 105.99 486.528 108.578 495.337 117.09C504.188 101.72 518.37 92.7839 535.154 103.502C550.057 113.018 553.691 136.631 537.996 146.642L538.01 146.628ZM495.097 170.509C505.206 178.696 530.531 183.433 536.95 169.463C542.125 158.208 526.077 151.364 525.469 148.551C524.719 145.016 539.227 141.311 540.754 130.07C544.444 102.894 507.059 96.9834 500.795 123.933C512.715 129.222 515.005 131.965 513.153 145.694C509.59 171.98 457.81 147.999 492.947 125.602C487.913 110.572 460.44 114.856 467.976 130.607C469.871 134.566 477.521 135.754 476.064 140.929C475.329 143.559 467.566 142.923 463.961 147.363C458.687 153.867 459.521 164.076 466.944 168.586C478.708 175.741 481.918 161.771 488.846 163.539C492.226 164.415 493.188 168.954 495.097 170.509ZM495.69 132.827C488.536 134.425 485.34 144.224 491.576 148.607C507.271 159.636 515.401 128.416 495.69 132.827Z" fill="#1E3D34"/>
<path d="M620.968 359.81C621.209 358.962 624.037 357.124 624.828 355.993C632.04 355.851 627.331 387.171 627.161 392.94C635.716 389.447 640.693 379.111 649.177 375.647C652.344 374.36 654.013 373.37 656.431 376.778C658.156 382.999 640.014 392.727 635.871 396.262C634.274 397.634 632.648 397.775 633.312 400.631C642.263 403.219 651.92 404.902 660.715 407.899C664.236 409.101 675.321 412.297 668.803 416.864C664.024 420.201 637.936 407.772 630.23 408.352L640.933 436.702L637.13 439.233C630.866 439.219 627.953 417.755 622.523 414.517C621.279 419.579 615.171 446.472 609.43 445.327C602.883 444.026 610.887 424.626 611.707 420.681C605.188 423.425 594.824 443.658 590.087 432.234L613.262 405.298C605.315 403.162 593.113 408.041 586.326 406.853C584.148 406.471 582.211 405.552 582.437 402.993C583.583 398.171 609.416 398.694 614.803 397.563C612.018 394.042 597.751 374.685 600.932 371.391C611.608 371.037 612.089 387.51 620.968 389.871C622.411 381.925 619.017 366.682 620.968 359.824V359.81Z" fill="#1E3D34"/>
<path d="M155.473 151.012C161.808 149.541 171.663 134.115 177.8 135.6C188.221 138.117 163.986 153.218 162.671 154.349C161.073 155.72 159.447 155.862 160.111 158.718C168.609 160.768 179.624 162.564 187.543 165.972C189.352 166.749 193.099 167.272 192.463 170.256C191.021 177.114 163.505 165.137 158.57 164.883L166.248 191.069C154.682 191.437 158.443 175.601 150.864 171.048L142.917 195.467L136.979 195.693L140.033 177.198L125.398 189.486L123.037 185.668L143.129 161.815L116.915 163.328L117.027 158.831L143.115 155.621C144.628 154.377 128.961 137.707 132.341 132.517C136.074 128.841 143.653 144.819 145.76 147.505C146.749 148.764 145.703 150.319 149.294 149.457V122.492L153.126 120.188L155.46 122.492V150.998L155.473 151.012Z" fill="#1E3D34"/>
<path d="M334.257 32.3656L328.049 31.3617L325.023 0L329.746 0.664564L330.905 2.58755L334.257 32.3656Z" fill="#1E3D34"/>
<path d="M287.765 11.0579C289.038 11.7932 299.034 36.7072 297.267 38.5171C294.637 38.8564 293.845 38.7292 291.908 36.9617C290.098 35.3074 280.653 11.9204 281.869 10.8034C283.693 11.0013 286.28 10.2095 287.765 11.072V11.0579Z" fill="#1E3D34"/>
<path d="M381.3 12.3301C384.637 12.4998 385.188 14.3662 384.863 17.3355C384.58 19.8524 379.857 35.1656 378.613 37.3855C375.46 42.9989 370.836 42.9565 371.543 36.5937C371.883 33.5395 379.32 12.8108 381.3 12.3301Z" fill="#1E3D34"/>
<path d="M244.13 35.449C246.562 34.9682 262.045 52.869 262.738 55.3717C265.552 65.4674 255.201 56.008 252.543 53.2083C250.563 51.1157 236.89 36.8629 244.13 35.449Z" fill="#1E3D34"/>
<path d="M397.475 56.9968C395.524 55.1445 407.939 38.4456 410.017 36.4236C414.386 32.1393 418.671 34.133 416.762 38.5163C416.267 39.6616 405.181 54.7769 404.375 55.4273C402.664 56.813 398.493 57.9583 397.475 56.9968Z" fill="#1E3D34"/>
<path d="M277.231 50.8322C272.508 55.1872 265.792 43.1402 267.997 38.5165C272.31 37.3147 279.267 48.9516 277.231 50.8322Z" fill="#1E3D34"/>
<path d="M281.671 291.432C292.657 323.939 337.311 332.494 361.306 308.258C365.576 303.946 367.386 298.233 372.179 294.67C391.013 296.381 402.877 307.311 408.49 324.887C426.236 322.554 447.021 334.53 454.289 350.762C456.481 355.654 458.828 372.042 462.985 372.905C469.093 374.163 464.978 362.88 465.134 359.826C465.968 344.173 472.812 329.256 483.785 318.227C507.285 318.227 531.365 323.105 554.356 328.535C559.687 344.314 559.729 361.551 546.155 372.877C541.715 376.581 527.264 382.096 526.826 386.041C526.176 391.88 531.011 390.579 533.868 392.941C570.348 423.143 533.783 488.595 489.37 467.23C481.522 473.989 481.961 480.748 469.984 483.194C448.789 487.521 428.922 474.427 428.427 452.115C428.314 446.841 431.849 440.294 429.05 434.539C425.289 430.51 419.491 432.249 414.783 430.312C406.553 426.932 403.725 415.691 403.513 407.632C403.301 399.572 409.763 385.97 401.307 383.707C396.401 384.81 396.966 413.076 397.801 417.996C398.762 423.595 402.962 427.116 403.669 432.164C404.475 438.018 404.602 463.78 403.598 469.224C403.273 470.977 403.075 472.349 401.067 472.858L263.332 471.529C272.791 452.03 274.686 433.96 270.571 412.665C269.511 407.193 267.87 393.535 260.221 398.356C267.715 427.187 270.826 465.123 240.665 482.034C227.445 489.444 209.346 489.67 197.172 479.885C193.071 476.591 189.183 468.969 185.393 468.418C179.709 467.598 173.756 473.664 168.284 475.94C140.669 487.436 113.719 463.2 112.206 435.388C111.23 417.374 118.23 405.313 127.42 390.862C116.773 380.314 102.775 378.716 97.5854 362.159C95.1109 354.255 95.4502 333.045 100.724 326.725C105.504 320.998 172.187 308.753 183.598 308.485C189.352 310.196 201.399 329.807 202.559 335.873C204.454 345.813 196.055 356.545 198.572 367.518C206.646 371.095 205.599 354.41 208.144 347.821C211.693 338.588 221.648 330.189 231.234 327.757C236.579 326.4 245.445 327.361 249.376 324.321C251.765 322.469 255.668 309.983 259.429 305.091C262.596 300.977 276.256 288.053 281.629 291.446L281.671 291.432Z" fill="#A89FD8"/>
<path d="M490.232 476.434C492.82 474.893 503.637 479.234 507.752 479.291C512.29 479.347 516.221 477.396 521.481 477.679C548.7 479.121 596.535 510.2 592.83 541.25C586.793 591.757 509.59 624.321 467.156 636C419.859 649.009 369.436 654.622 320.555 657.832L297.324 564.072C348.312 546.906 403.174 539.766 454.487 524.707C459.931 523.109 481.777 516.647 484.916 514.343C485.665 513.791 485.623 512.406 486.089 511.628L484.421 508.588L362.777 539.37C365.336 531.819 376.436 525.626 379.32 518.91C380.904 515.234 381.413 512.335 376.662 511.614C375.601 511.868 365.053 526.22 362.791 528.581C351.012 540.869 340.337 549.706 321.842 546.355C290.763 540.727 253.773 520.748 221.803 513.848C219.202 513.282 216.699 512.844 214.026 513.155L215.567 518.528L310.502 549.975L312.68 553.198L289.731 559.533L294.171 580.94C278.419 577.01 273.696 567.253 256.615 574.988C234.204 585.126 213.037 610.718 194.768 626.922C186.68 620.729 175.694 619.414 166.262 615.597C124.776 598.785 52.6777 558.119 86.3586 503.399C94.1213 490.786 113.988 475.897 129.428 478.541C132.143 479.008 136.102 482.444 139.68 483.448C157.199 488.326 167.464 486.813 182.438 476.152C195.984 487.944 204.609 496.202 224.108 494.717C240.68 493.458 247.637 482.203 256.728 479.573C260.108 478.598 278.645 477.891 284.075 477.636C300.845 476.873 317.346 479.234 333.394 479.319C375.63 479.531 406.129 474.243 445.918 488.566C461.302 494.109 482.003 492.002 490.204 476.434H490.232Z" fill="#B8E04A"/>
<path d="M380.507 214.186C380.635 214.031 382.614 214.526 383.604 213.437C385.004 211.882 384.452 209.195 386.658 209.577C405.761 244.954 376.237 289.565 335.388 275.482C330.75 273.884 311.731 260.126 309.625 267.394C308.126 272.597 323.326 281.01 327.314 283.555C337.324 289.975 347.887 295.348 358.93 299.689C340.351 324.207 297.832 318.777 288.047 289.692L294.82 290.979C296.701 290.569 298.087 287.302 298.483 285.493C299.586 280.544 300.278 264.311 300.505 258.104C300.703 252.689 296.616 248.334 301.494 242.678C296.97 235.269 295.57 241.971 292.261 243.894C272.536 255.333 262.257 211.344 272.946 205.293C283.014 199.58 286.407 216.548 293.435 214.243C294.877 213.776 293.435 210.963 295.174 209.436C300.406 204.84 315.154 202.705 318.321 192.482C322.577 191.818 342.245 207.216 342.146 193.373C342.09 185.327 329.152 183.8 329.675 182.598L343.518 163.326C347.307 172.531 357.29 178.342 365.095 184.126C361.518 187.547 357.969 190.46 360.627 195.565C372.547 195.409 372.518 188.664 380.522 201.093C361.32 207.611 372.024 205.886 380.522 214.186C372.462 212.179 362.833 209.86 363.54 199.764C361.786 195.72 354.137 200.33 359.27 210.015C361.871 214.922 367.103 214.893 369.719 218.796C365.618 219.22 354.292 221.2 355.862 227.266C356.456 229.542 358.506 229.372 360.499 228.892C364.36 227.958 380.917 222.472 381.907 219.319C382.657 216.944 380.338 214.399 380.507 214.186ZM343.518 204.953C342.528 203.978 330.198 208.474 325.73 208.163C320.088 207.767 314.39 201.305 312.707 208.771C317.543 212.942 320.385 212.716 318.872 220.351L328.926 215.643L335.048 220.309C337.876 218.57 336.773 215.007 338.201 212.716C338.993 211.429 346.657 208.064 343.518 204.939V204.953ZM283.396 228.057C282.618 231.536 283.24 244.714 288.769 238.818C295.414 231.734 284.838 207.06 275.096 209.633C272.819 210.241 271.759 214.752 272.621 215.714C272.918 216.039 279.366 216.109 280.214 219.574C273.611 225.286 274.417 235.566 283.396 228.057ZM369.252 241.476C369.903 240.755 370.963 238.832 370.836 238.054C369.662 231.154 363.243 237.969 360.005 239.143C352.624 241.844 348.198 242.975 340.888 239.143C335.995 236.569 334.129 230.461 328.105 231.14C328.289 249.776 359.213 252.618 369.238 241.462L369.252 241.476Z" fill="#FFFAF3"/>
<path d="M627.133 282.001C627.812 286.3 624.828 289.043 621.392 290.895L544.274 318.693L494.587 311.256C498.702 292.747 496.482 269.657 514.114 257.596C520.152 253.467 547.639 241.463 554.299 240.699C565.568 239.413 552.8 251.021 548.389 253.326C545.221 254.98 530.757 257.723 534.673 263.478C537.812 268.074 556.83 255.178 560.874 253.467C568.298 250.328 597.44 238.338 603.279 238.706C616.981 239.554 599.334 249.593 594.767 251.912C591.968 253.34 572.242 261.485 570.631 261.612C568.312 261.796 560.507 255.814 559.347 261.202C558.697 264.213 571.946 272.117 574.83 274.974C577.969 278.084 589.507 295.208 591.091 295.717C596.634 297.512 595.078 291.772 595.63 291.149C596.732 289.919 625.86 280.743 627.161 281.987L627.133 282.001Z" fill="#FFFAF3"/>
<path d="M88.8328 356.319C92.1698 371.915 103.171 386.012 118.47 391.428V393.69C107.695 404.775 104.486 422.846 105.461 437.678L10.5835 437.622L25.3029 431.499C26.7451 428.374 15.0374 420.287 26.0665 412.283C34.3665 406.26 41.8181 409.823 49.8778 408.353C59.4079 406.613 48.0255 396.221 46.7529 391.456C40.3335 367.433 66.1951 346.421 88.8328 356.305V356.319Z" fill="#2C5F52"/>
<path d="M112.319 245.026C116.688 244.771 120.435 247.472 124.126 249.381C135.155 255.065 169.486 275.977 172.936 286.865C174.548 291.955 174.803 297.498 171.692 302.065L105.306 317.293L41.8891 284.631C38.9339 280.926 38.863 275.087 44.9431 276.062C51.4474 277.094 68.3303 293.327 77.4504 294.203C79.7552 296.24 76.1356 300.453 83.6155 299.011C84.5346 292.577 109.01 260.014 106.14 257.341C101.007 255.037 99.4802 260.438 99.056 260.495C94.7151 261.131 66.2942 239.738 65.163 235.863C63.4521 230.009 70.0977 230.858 74.184 231.48C93.2586 234.421 109.505 260.353 119.573 263.209C122.471 264.029 126.897 263.011 126.19 259.646C125.879 258.19 109.322 247.797 112.333 244.997L112.319 245.026Z" fill="#FFFAF3"/>
<path d="M311.152 650.282C307.772 652.813 255.441 637.924 246.788 636.821C223.33 633.852 214.648 650.084 194.004 656.447C215.199 635.025 237.95 610.804 261.988 592.663C276.707 581.549 280.243 578.693 296.447 591.8L311.152 650.282Z" fill="#2C5F52"/>
<path d="M269.525 577.887L177.051 661.084C175.792 659.755 185.506 647.468 187.048 645.658C198.925 631.702 215.468 615.116 229.438 603.281C241.118 593.384 254.48 581.676 269.539 577.887H269.525Z" fill="#FFFAF3"/>
<path d="M50.8676 242.141C51.1646 241.674 55.2368 240.444 56.2125 240.43C61.3735 240.317 63.155 245.181 66.8737 248.051C75.3435 254.583 84.0819 260.819 93.1314 266.56L89.2146 275.171C87.3199 276.302 62.4481 260.084 59.1676 257.312C55.6186 254.315 47.6013 247.302 50.8676 242.141Z" fill="#FFFAF3"/>
<path d="M421.98 439.333C422.121 452.016 420.679 463.625 428.3 474.612L409.72 470.652L411.361 436.109L421.98 439.333Z" fill="#FFFAF3"/>
<path d="M84.5625 280.474L80.5467 288.039C78.6095 288.492 52.1259 273.108 49.0717 270.478C43.8259 265.967 36.5298 257.837 46.5831 254.387C57.3717 264.935 70.451 274.988 84.5625 280.488V280.474Z" fill="#FFFAF3"/>
<path d="M576.272 266.603C582.805 264.313 589.451 261.923 595.8 259.137C599.631 257.455 618.296 244.644 619.088 255.009C619.611 261.782 591.657 271.75 585.859 272.485C580.825 273.122 578.62 270.774 576.258 266.603H576.272Z" fill="#FFFAF3"/>
<path d="M624.051 268.131C624.984 275.144 614.351 278.028 608.964 279.994C606.546 280.87 592.095 285.098 591.063 284.844L587.089 279.654C592.392 278.212 621.082 265.246 624.065 268.117L624.051 268.131Z" fill="#FFFAF3"/>
<path d="M395.906 211.105C389.967 204.784 384.057 196.809 388.228 188C393.205 184.282 397.348 208.234 395.906 211.105Z" fill="#FFFAF3"/>
<path d="M312.693 49.3184C297.253 65.4658 298.384 89.687 312.693 106.301C292.389 104.59 272.098 96.6013 257.237 82.4334C272.155 66.5546 290.791 53.2492 312.693 49.3184Z" fill="#FFFAF3"/>
<path d="M358.944 104.774C360.415 99.3307 364.77 95.3009 365.958 89.4612C367.612 81.3309 367.075 71.0373 364.289 63.2181C362.805 59.061 359.538 56.53 358.944 52.4013C368.955 49.9834 406.85 78.0364 408.207 84.074C409.027 87.7079 388.864 96.4179 385.117 97.8178C376.605 101.013 367.838 103.049 358.944 104.774Z" fill="#FFFAF3"/>
<path d="M495.096 170.51C493.187 168.969 492.225 164.43 488.846 163.539C481.918 161.772 478.708 175.742 466.944 168.587C459.52 164.077 458.686 153.868 463.96 147.364C467.566 142.924 475.329 143.56 476.064 140.93C477.506 135.755 469.856 134.567 467.976 130.608C460.439 114.857 487.913 110.558 492.947 125.603C457.809 148 509.603 171.981 513.152 145.695C515.005 131.98 512.714 129.237 500.794 123.934C507.058 96.9842 544.444 102.88 540.753 130.071C539.226 141.312 524.719 145.017 525.468 148.551C526.062 151.365 542.125 158.209 536.949 169.464C530.53 183.434 505.22 178.697 495.096 170.51Z" fill="#A89FD8"/>
<path d="M495.69 132.827C515.401 128.415 507.27 159.636 491.575 148.607C485.34 144.223 488.535 134.439 495.69 132.827Z" fill="#FFFAF3"/>
<path d="M369.252 241.476C359.213 252.632 328.303 249.776 328.12 231.154C334.157 230.475 336.024 236.583 340.902 239.157C348.198 243.003 352.638 241.872 360.019 239.157C363.243 237.969 369.662 231.168 370.85 238.068C370.977 238.846 369.917 240.755 369.266 241.49L369.252 241.476Z" fill="#1E3D34"/>
<path d="M283.396 228.059C274.417 235.581 273.611 225.287 280.214 219.575C279.366 216.096 272.918 216.04 272.621 215.715C271.745 214.753 272.805 210.243 275.096 209.635C284.838 207.061 295.414 231.735 288.769 238.819C283.226 244.715 282.618 231.537 283.396 228.059Z" fill="#1E3D34"/>
<path d="M343.518 204.954C346.671 208.065 339.007 211.444 338.202 212.731C336.773 215.022 337.876 218.585 335.048 220.324L328.926 215.658L318.872 220.366C320.371 212.731 317.529 212.957 312.708 208.786C314.39 201.306 320.088 207.782 325.73 208.178C330.212 208.489 342.528 203.979 343.518 204.968V204.954Z" fill="#1E3D34"/>
</svg>
