<?xml version="1.0" encoding="UTF-8"?>
<svg id="Layer_1" data-name="Layer 1" xmlns="http://www.w3.org/2000/svg" viewBox="0 0 1500 1500">
  <defs>
    <style>
      .cls-1 {
        fill: #263c34;
      }
    </style>
  </defs>
  <path class="cls-1" d="M1250.13,654.64c-60.15,4.57-111.52,71.38-67.45,125.46,53.28,65.36,169.69-2.98,138.59-81.55-10.42-26.31-43.71-46-71.14-43.91ZM1297.77,766.76c-62.44,72.16-160.82-9.26-102.99-73.23,8.92-9.85,32.14-24.61,45.28-26.61,58.13-8.87,99.62,51.4,57.71,99.83Z"/>
  <path class="cls-1" d="M676.78,777.88c8.64-.27,17.35.11,25.99,0-6.46,11.64-30.52,25.61-32.27,38.39-.77,5.78,3.84,4.43,7.48,2.48,4.09-2.21,18.28-21.92,22.31-18.56-2.27,5.05-12.23,30.31-3.68,32.18,9.71,2.14,14.92-35.07,18.58-42.09,8.87,5.48,11.39,43.07,24.74,30.86l-12.37-38.3c3.86-3.75,37.09,10.96,44,11.89,3.46.48,9.64.82,10.51-3.27,1.93-9.05-44.48-17.24-52.03-21.06-3.18-4.07,37.32-23.31,32.2-34.66-17.22-2.27-26.99,16.26-39.66,24.77v-49.58h.05c-2.89-1.02-9.92,1.09-9.92,3.71v43.37c-6.62-.39-20.06-34.75-27.27-27.24-5.48,5.71,20.08,34.75,17.33,37.16-13.87,1.05-30.59-3.68-42.12,6.25,1.64,10.42,9.98,3.89,16.12,3.71Z"/>
  <path class="cls-1" d="M1379.54,648.96c-4.58-.82-7.19.34-11.32,2.3-4.15,1.96-34.27,18.74-35.24,20.51-.95,1.77-.9,8.98-.51,9.39,3.35,3.48,37.68-17.12,41.96-21.22,3.75-3.59,6.27-4.71,5.11-10.99Z"/>
  <path class="cls-1" d="M1209.75,594.45c-6.37,1.39.32,32.34,1.83,37.77,3.18,11.42,11.69,12.94,11.63,1-.05-5.55-5.53-40.48-13.46-38.77Z"/>
  <path class="cls-1" d="M1146.52,837.3c4.55,4.66,34.41-25.22,29.72-29.72-5.78-5.53-33.88,19.9-29.72,29.72Z"/>
  <polygon class="cls-1" points="1339.57 632.49 1336.11 626.67 1330.23 626.95 1313.61 653.78 1318.79 661.31 1339.57 632.49"/>
  <path class="cls-1" d="M1258.08,872.03v-37.16c-14.76-5.96-11.03,33.54-7.58,36.07l7.58,1.09Z"/>
  <path class="cls-1" d="M1118.21,750.84c-2.98.41-10.19,1.02-8.87,5.91,2.86,5.84,30.86,5.14,33.59,1.41l1.09-7.57-.02.02c-8.46.48-17.37-.91-25.79.23Z"/>
  <path class="cls-1" d="M1331.19,787.82c-16.13,11.51,31.23,34.75,22.37,17.24l-22.37-17.24Z"/>
  <path class="cls-1" d="M1186.16,653.92c2.71-2.59-11.8-21.13-12.92-21.74-19.15-10.51-3.36,27.38,12.92,21.74Z"/>
  <path class="cls-1" d="M1344.83,775.33c6.11,1.57,13.46,5.75,14.85-3.66-6.93-7.46-15.84-9.32-14.85,3.66Z"/>
  <path class="cls-1" d="M1314.77,1152.4l.05-.04c-24.99-9-58.96-3.25-81.29,11.05-15.1,9.66-26.31,25.86-42,34.84-41.78,23.92-85.94-12.46-130.58-13.99-57.69-1.96-113.3,51.15-147.39,93.01-5.3,6.5-22.17,23.72-3.91,23.61,11.3-.09,27.79-4.66,39.68-5.19,105.77-4.59,209.63-2.64,314.97-9.78,13.4-.91,40.85,2.68,51.56-2.98,9.7-5.12,1.88-35.41,1.61-45.26-.77-28.52.37-56.85-2.7-85.28ZM920.93,1288.38c38.59-45.94,83.6-97.63,149.93-91.65,31.29,2.84,65.59,24.88,96.42,22.04,40.16-3.71,55.87-43.41,89-54.81,15.99-5.5,32.23-4.59,48.88-4.46h.02l1.03,114.3-385.28,14.58Z"/>
  <path class="cls-1" d="M1083.44,1122.21c14.87,26.18,65.72,62.2,96.24,61.86,20.08-.23,19.49-8.37,25.67-23.9,10.98-27.56,20.25-63.99,18.08-93.65-.77-10.55-5.61-36.66-15.62-41.5-22.02-10.69-25.13,37.02-28.32,49.85-.64,2.55.34,6.07-3.23,5.34v.02c-1.57-12.51-16.78-60.74-33.02-56.67-19.94,5-1.14,74.32.75,88.9-7.76-1.11-11.28-8.64-18.1-12.85-25.58-15.74-62.27-12.23-42.46,22.61ZM1136.61,1123.5c4.66,4.93,16.69,28.58,23.58,18.72,5.34-7.66-22.61-87.44-12.48-104.16,6.46,8.35,11.19,20.31,14.35,30.27,6.78,21.38,7.35,52.53,14.19,70.09,4.73,12.1,10.85,3.82,12.23-5.1,3.91-25.06-.25-49.76,6.32-77.93.84-3.55,4.62-26.86,10.92-15.81,7.7,13.51,6.93,45.76,4.94,61.4-1.37,10.69-14.74,65.34-22,69.7-13.14,7.91-48.78-10.53-60.33-19.03-6.89-5.05-46.19-41.64-38.87-49.12l-.02-.02c19.58-3.14,34.38,7.44,47.16,20.99Z"/>
  <path class="cls-1" d="M184.29,685.3c1.66,12.58-10.23,33.59-2.37,44.41l5.89,3c12.42-.18,27.43-23.24,35.34-24.36,14.24-2.02,32.16,21.1,48.23,13.74,12.05-7.25-6.37-36.09-6.96-46.78,1.36-7,23.26-18.81,28.38-24.77l-.04-.02c29.18-33.91-44.26-15.92-51.21-20.17-9.05-10.6-14.51-42.34-30.97-41.16-4.18.32-2.96.55-4.41,3.32-5.14,9.78-5.91,34.7-11.71,40.27-17.12,16.53-89.92,3.25-10.16,52.51ZM203.37,641.66c7.76-7.55,6.41-34.79,12.28-37.3l22.67,41.89,45.46-7.19.02.02c4.87,4.3-27.09,21.88-29.2,28.99-4.48,15.01,7.28,28.52,9.37,42.84-13.6.18-27.56-16.15-40.66-14.85-9.57.96-22.38,17.35-31.2,22.31l3.96-34.75c-6.59-14.44-24.2-16.63-33.7-28.47,10.42-5.39,32.72-5.46,41-13.51Z"/>
  <path class="cls-1" d="M488.34,490.34c-4,.86-2.93,5.34-3.05,7.96-.5,11.23,1.57,21.17,12.89,26.72,10.51-6.03-1.48-36.45-9.85-34.68Z"/>
  <path class="cls-1" d="M1049.9,978.73c88.12-1.43,175.72,3.25,263.52,6.94,15.17-9.48-.06-13.94-5.79-20.42-50.68-57.33-106.6-141.41-195.76-116.69-24.2,6.71-44,25.74-66.88,33.5l-1.2-200.69,161.09-173.52c1.42,7,.98,24.45,12.46,17.42l3.67-39.73c4.18-3.73,26.28,28.38,37.15,22.29.88-15.44-18.54-19.47-24.78-32.18,7.64-.43,31.75,2.59,34.5-6.46,4.84-15.92-36.14-4.87-44.41-5.98,1.16-5.57,39.34-32.91,23.51-37.14-5.26-1.27-5.69,1.57-8.28,4.07-7.14,6.89-14.15,13.94-21.47,20.67l-4-19.51-9.62-.32-1.22,14.87-17.06-17.17-6.16,8.1,14.51,23.95-32.25.04-.09,8.62,27.36,5-48.6,30.79-5.94-3.53v-47.1c0-6.78,11.42-35.98,16.15-41.05,2.87-3.09,6.6.66,9.46-.16l3.93-3.75-4.75-28.13c2.27-2.41,28.7,20.76,32.2,8.64,3.09-10.76-25.7-14.96-29.72-23.49,49.6-9.1,34.79-29.86-7.44-14.92l.09-28.08c-11.19-10.28-13.51,8.37-12.53,18.17-6.16-4.16-6.96-14.3-17.31-12.37l4.94,19.78-22.15-2.3.39,11.64c2.5,3.57,21.56,3.5,19.26,9.23-3.75,9.35-26.93,12.69-22.29,26.04,2.53,2.68,17.42-6.96,14.83,1.2-4.16,13.12-21.35,31.25-24.2,45.21-4.12,20.08,6.3,43.28,3.93,55.81-1.25,6.73-11.6,19.99-15.92,26.38-14.08,20.85-31.79,40.52-48.05,59.74-5.44-45.8-4.21-87.64,15.15-129.83,10.55-23.04,46.8-79.37,46.8-101.93v-54.53c0-1.14-6.94-6.57,1.21-6.19l23.45,23.79,7.3-5.57c1.25-6.94-29.02-32.63-34.43-39.32l44.73-17.72-1.2-8.44c-4.71-6.87-36.36,6.44-43.51,10.08-2.91-3.57,24.83-42.19,19.79-52.03-9.39-9.62-32.52,34.54-32.25,42.12-9.6-4.84-7.91-31.09-16.26-34.52-14.94-6.14-.18,26.31-1.09,32.04-8.1-4.53-17.65-16.71-25.42-20.42-3.53-1.68-8.16-2.68-9.26,1.86-2.27,9.44,26.99,25.54,32.22,33.38l-42.14-2.43,2.43,11.19,34.75,6.16c-9.28,11.23-26.63,13.58-32.22,28.45,10.28,10.26,24.99-3.16,34.68-8.64,4.09,10.28-8.96,22.15-9.44,28.93-.23,3.18,3.96,5.98,4.52,9.67,2.82,17.92-39.96,82.73-48.39,102.68-5.62,1.32-24.15-30.36-25.42-36.48-3.14-15.26,4.89-34.13,1.93-50.26,8.12,2.57,23.06,15.83,30.72,10.01,11.28-8.57-31.97-23.24-35.7-28.61,9.05-4.19,36.32-6.73,25.63-21.24l-30.59,5.12c-1.37-9.39,12.87-29.08,7.62-35.98-9.69-12.69-16.33,17.24-19.44,22.9-1.57,2.84.14,4.19-5.5,3.16-.57-5.59-5.71-33.93-13.62-32.2-11.44,2.48,6.53,34.09,3.66,37.16l-27.34-3.78-1.25,6.34,18.67,9.8-32.2,9.98,4.07,9.64,28.13-4.73c3.77,3.43-21.15,28.59-8.64,32.18,9.21,2.66,11.39-14.71,18.53-17.33-1.73,20.31-14.67,42.57-12.17,62.95,2.64,21.65,30.95,32.68,35.41,53.87l11.46,133.49c-25.27-21.49-57.15-35.75-78.8-61.22-1.89-22.08.68-44.44-.41-66.52-.68-13.76-2.32-35.82-5.8-48.73-4.69-17.42-17.76-27.56-26.52-42.89l14.87-1.23.09-8.32-32.32-14.01c-1.43-5.69,1.11-4.07,3.12-5.64,6.94-5.43,22.26-6.96,19.31-17.53-2.62-9.37-28.06,5.18-29.86,3.37l9.89-42.12-11.17,2.43-11.14,39.68c-5.91,1.34-4-1.04-5.5-3.23-4.57-6.62-17.56-31.52-25.45-31.54l-6.1,4.05,14.74,30.72c-1.2,1.27-27.77-19.94-29.72-3.75l37.14,22.33c-3.71,7.3-33.11,19.63-28.61,28.49,6.59,13.03,25.22-8.66,26.15-7.44l-3.78,27.34c11.58,11.21,16.17-15.53,17.42-14.94l24.77,42.16c3.59,17.13,11.58,75.41,5,89.19-2.34,4.89-17.26,9.78-22.42,9.6-1.75-.07-31.91-9.89-33.41-10.8-4.64-2.77-.64-3.89,1.64-5.87,5.91-5.12,30.72-19.35,28.15-28.81-3.48-12.8-27.77,11.21-32.2,13.58-2.93-3.84,13.67-27.33-1.23-29.72l-11.21,29.72c-9.07-4.48-9.51-29.25-22.17-15.85l4.84,15.85c-7.48,1.23-20.19-19.22-26.04-9.92-5.34,8.5,14.69,19.01,20.4,24.08,1.64,1.48,4.78-.14,3.16,5.66-13.3-1-24.77.32-37.16,5-.68,3.27.32,8.91,3.71,9.87l.14.11h35.95c-3.55,8.6-38.36,30.47-22.26,38.55,12.73,1.37,18.58-14.53,27.22-21.22v35.93c0,4.66,12.39,4.66,12.39,0v-35.93c11.67,4.57,17.99,42.07,32.11,28.25l-6.05-18.35c69.41,12.05,106.29,81.28,153.62,126.46l-1.2,210.61-61.08-39.28c-61.7-26.88-90.35,20.9-131.38,56.47-19.63-10.48-33.34-33.66-56.88-36.77-28.95-3.82-49.37,14.94-75.39,22.08-3.18-21.92-13.76-41.12-32-53.67,5.39-56.08-2.07-114.89-16.35-169.4-3.84-14.67-18.06-47.03-18.78-58.26-.91-13.94,5.71-34.93,2.91-50.53,43.07-4.93,34.97-46.26,22.1-75.91.11-8.73,24.77-13.37,19.47-29.27-2.52-7.53-27.04-10.17-34.38-11.58,1.3-9.91,10.6-15.96,12.21-26.15,4.57-29.02-15.06-33.43-39.5-30.84,6.21-22.13-8.53-43.73-31.2-46.87-49.83-6.89-86.44,32.79-82.85,81.55-50.4-13.71-80.51,57.88-24.77,74.41-23.76,34.73.09,63.22,38.5,62.04,10.21-.32,20.63-5.5,30.93-3.82-11.71,33-39.3,54.6-56.56,84.73-29.61,51.71-38.64,111.66-42.73,170.42-1,14.1,2,31.45.21,44.82-1.11,8.21-7.94,17.4-9.39,27.79-1.32,9.28-.43,18.58-.66,27.86-46.07-23.49-78.68-43.78-133.49-30.61-54.81,13.17-79.07,64.7-124.42,91.67l1.55,8.39,221.68-7.48,2.11,25.47c-27.93,26.86-50.35,69.27-39.21,109.09.59,2.12,4.59,1.68,4.93,3.34,3,14.69-49.12,57.35-34.95,76.66,5.25,7.16,24.24,14.99,29.91,23.33-22.47,2.78-45.44,2.23-67.86,5.3-10.78,1.46-48.85,4.98-40.07,22.01,5.73,11.1,86.17,20.69,101.74,22.26,119.69,12.1,309.08,21.17,426.04,2.16,7.87-1.27,26.9-4.46,31.5-10.62,12.62-16.96-23.36-19.78-32.43-22.51-2.37-.71-5.66-.46-4.94-3.66,25.81-14.08,53.31-26.61,78.5-41.73,7.44-4.46,31.31-16.22,20.72-26.52-10.6-10.3-57.79-1.66-73.07-1.07-14.1.55-26.31,2.39-28.63-14.92,16.53-7.53,37.77-12.55,46.17-29.47l33.04-.18c-5.78,27.81,47.19,4.64,55.24-2.55,9.12-8.12,11.85-32.09,18.42-34.34l180.36-7.55-1.05-91.99ZM536.6,476.74c2.34-1.39,13.3-7.44,14.92-6.23.46.32,3.89,9.76.11,11.23l-19.92,1.14c-1.39-6.64,1.75-4.25,4.89-6.14ZM506.87,532.46c-11.17-.59-19.97,5.41-26.97-6.5-18.94-32.2,13.14-65.15,27.31-21.08l9.57.32-7.3-25.83,12.28-3.91c-3.66,28.52,33.91,19.24,49.6,11.19,16.81-8.62,19.94-27.31-2.5-28.54l3.87-4.87,33.32,9.87-.02-.05c4,5.43-17.24,12.76-18.85,19.67-2.27,9.71,8.3,20.94,5.43,25.04l-26.22,4.87,1.09,7.57,3,1.93,26.99.27c6.32,20.86-8.12,31.68-27.49,32.43-14.76.59-32.57-9.37-42.5-9.51-3.03-.02-7.64,3.62-8.07,6-1,5.59,39.12,31.66,43.21,40.66,2.96,6.53.68,15.24,1.3,22.26-13.62,4.25-73.2-12.21-76.52-24.08-2.91-10.37,22.35-43.3,19.49-57.72ZM402.83,771.69c7.03-63.77,30.09-124.55,73.43-172.15,12.92,5.37,23.22,12.3,36.8,17.24,10.35,3.75,22.13,6.91,32.88,9.26,8.48,1.84,15.63-2.46,21.54,5.73,6.59,9.14,16.72,53.81,19.53,67.22,9.98,47.42,13.46,94.76,11.6,143.27l.05.05-49.6,1.3c-20.24-34.52-35.25-69.79-26.13-110.46,4-17.85,14.44-36.2,21.22-53.17,1.64-5.25-5.41-4.59-8.32-3.32-8.71,3.8-25.4,58.97-26.38,70.29-3.18,36.39,10.05,67.61,26.72,98.7-1.07,11.83-43.62,40.18-55.33,45.98l-2.36-2.21c-22.15-40.71-54.87-88.85-50.58-137.29,3.66-41.16,29.75-74.73,43.94-112.27l-5.8-5.73c-2.93,2.18-4.87,5.07-6.75,8.14-23.42,37.91-45.76,91.88-41.59,136.79,2.5,26.86,17.51,48.46,24.77,73.14l-44.62,4.96c3.91-28.34,1.87-57.01,5-85.46ZM547.99,867.18c-1.57,8.48-44.85,57.9-53.28,51.74l-6.6-17.19,55.94-44.6c-.43,3.84,4.57,6.59,3.93,10.05ZM341.64,966.31c-64.97-2.96-129.35,6.07-194.21,4.82,48.17-55.03,100.31-101.02,178.45-70.57,14.71,5.75,27.09,16.31,42.18,21.06-11.85,13.99-20.28,27.34-26.42,44.69ZM296.08,1160.71c2.8-4.39,20.72-31.22,22.35-32.29,4.55-2.93,8.39,3.27,11.26,6.28,20.22,21.24,36.16,45.3,53.24,68.22,4.27,5.78,11.26,7.8,14.89,13.58-10.44-.66-21.38,1.96-31.54-1.91-20.26-7.69-49.14-38.36-71.52-47.6-2.41-2.93-.04-4.12,1.32-6.28ZM350.69,1230.18c-9.94-4.71-54.08-36.57-61.97-44.62-1.93-1.98-7.96-7.75-1.16-8.71,10.14-1.41,72.07,52.05,84.23,52.05,13.17,0,26.49.46,39.66,0h.02c3.3-.11,10.46-7.16,11.14,4.94-24.61-2.73-48.87,7.3-71.93-3.66ZM433.78,1218.99c-22.63-6.85-56.99-19.88-43.34-49.6,17.15,8.32,37.16-11.49,41.05-27.06,1.98-7.96.14-25.45,3.73-30.79,9.21-13.71,29.54-12.96,39.89-39.59,5.23-13.46,2.91-36.8,5.73-41.37,2.43-3.96,26.49-13.26,26.11-24.72h4.87v.02c6.73,15.76,27.31,23.49,41.14,32.18-6.64,37.27,3.91,68.11,38.02,85.94-4.34,20.6-1.61,46.17,13.51,61.9,13.03,13.58,17.62,11.92,33.88,4.41l14.8,26.18-219.39,2.5ZM806.86,1166.98l.02-.02c-4,5.37-12.3,9.48-18.17,12.8-13.01,7.32-101.11,56.51-107.09,55.72-2.41-.32-4.18-3.75-6.09-5.32l114.12-61.83,17.22-1.34ZM718.85,1169.44h43.35l-92.67,49.35-18.85-32c17.42-3.32,34.68-7.55,52.08-11.14,4.27-.86,14.76-6.21,16.1-6.21ZM746.16,1119.91l-120.21,63.43c-11.21,3.64-21.83-16.76-23.74-26.13-2.89-14.15,1.07-25.67-.36-39.14-6.87-8.6-17.99-10.87-25.63-19.15-17.78-19.24-10.78-43-12.69-66.63-32.94-18.71-64.09-40.1-59.11-83.39h-9.84c-5.89,29.41,20.42,42.32-6.28,64.38-4.34,3.59-18.67,10.53-19.9,12.44-3.18,4.98,7,29.2-8.57,50.83-8.48,11.78-30.79,21.83-34.45,27.52-6.03,9.37.79,53.65-23.99,55.58-9.94.77-68.86-46.78-82.85-53.35-10.67-33.82,6.89-63.63,27.31-89.26,2.18-2.75,6.62-2.98,8.21-6.73,5.48-12.99-1.43-36.25,3.57-53.26,5-17.01,31.13-32.75,32.52-37.07,2.25-7.03-7.82-36.34,3.93-47.94,4.05-3.98,51.62-11.23,55.81-8.66l36.16,60.6-3.96,8.85,3.8,6.19c37.02-14.46,62.47-50.08,81.03-83.76l35.16-2.32c29.2,14.33,27.29,50.67,31.04,77.62,4.59,5.78,15.94,2.57,23.22,4.05,26.24,5.34,47.28,27.09,43.73,54.97-1.34,10.51-15.83,31.06-14.35,36.91,1.34,5.34,30.27,16.76,38.12,24.04,16.53,15.33,26.79,47.37,22.33,69.41ZM749.87,1070.29l-2.5-7.41h9.92l-7.41,7.41ZM767.24,1090.07l32.11-18.76,22.4,1.48.02-.02c-7,18.12-37.59,15.05-54.54,17.31ZM968,1035.58l-.02.02c-20.15-.89-40.68,1.14-60.83.09-9.55-.5-25.52-1.48-34.41-2.8-21.1-3.14-39.37-21.04-61.77-17.24-9.55,12.55-1.93,15.78,6.6,22.81,2.11,1.75,7.96,4.91.61,4.39-6.62-2.8-12.94-2.21-19.81-5.03-13.37-5.5-26.97-26.74-39.89-26.7-15.46.07-24.63,11.03-13.62,24.42-20.99,6.21-28.72-6.87-47.1-12.42,8.12-14.62,15.47-29.65,14.9-47.03,42.37-4.55,85.14-1.66,127.76-2.39,38.27-.66,80.73-7.21,119.03-2.71,3.62.43,6.37.3,8.55,3.84v60.72ZM968.03,961.24l-.05-.02c-13.65-.27-27.36.27-41.03.09-11.85-.16-22.7-.07-34.5,0-60.58.34-120.69,1.37-181.23,4.05-13.89-29.97-39.07-40.66-70.52-45.07.02-2.46,2.43-9.05,3.93-10.96,3.87-4.87,39.8-19.62,47.64-21.74,34.52-9.33,43.98,12.8,69.59,29.34,4.28,7.44-16.37,16.58-19.47,23.26l3.75,6.16,4.5-.36c43.78-28.11,81.89-103.65,141.18-83.35,13.42,4.59,65.16,36.57,71.34,47.64,3.05,5.46,6.82,48.98,4.84,50.96ZM1142.79,854.45c67.77-.02,115.09,75.93,157.42,119.16l-245.66-6.05-4.14-1.98-5.14-67.32c26.45-18.51,64.06-43.82,97.52-43.82Z"/>
  <path class="cls-1" d="M504.42,948.85s0,.03,0,.04h.05l-.05-.04Z"/>
</svg>