<?xml version="1.0" encoding="UTF-8"?>
<svg id="Layer_1" data-name="Layer 1" xmlns="http://www.w3.org/2000/svg" viewBox="0 0 1500 1500">
  <defs>
    <style>
      .cls-1 {
        fill: #263c34;
      }
    </style>
  </defs>
  <path class="cls-1" d="M257.82,267.57c2.28,0,9.04-4.73,13.78-2.47,6,5.79-41.56,61.13-35.07,67.63,4.37.41,7.68.37,11.43-2.33,6.74-4.8,19.99-32.56,28.73-41.46,2.39-2.44,3.24-4.77,7.45-3.82,2.12,8.26,13.46,51.51,17.52,53.91,3.13,1.85,6.67,1.27,10.05,1.2l-9.98-60.15c9.06,2.7,43.84,18.56,48.97,7.58,1.06-2.28-1.01-6.38-3.08-7.76-8.69-5.74-34.82-11.35-45.93-14.85-1.15-4.78,1.77-4.83,4.21-7.06,8.79-7.99,40.96-23.63,38.55-36.48-1.54-3.24-6.35-3.27-9.36-2.21-5.27,1.84-38.96,30.34-40.89,28.2,0-16.27,10.07-39.07,9.87-54.15-.09-5.42-3.82-6.02-8.62-6.07-5.82-.05-2.74.44-3.84,3.79-4.65,14.22-2.37,33.49-11.22,46.39-5.7-6.56-13.98-40.66-22.56-40.01-13.48,1.04,11.94,41.28,11.27,47.56-1.63,2.03-47.35-28.95-41.49-4.85l26.47,12.35c-10.58,4.15-52.97-1.66-55.13,8.83l3.75,6.23h55.15Z"/>
  <path class="cls-1" d="M1125.32,631.03h-.07c12.12-.23,24.29.16,36.36,0l-39.88,44.16c7.24,22.8,30.75-25.42,37.37-19.06-2.37,6.72-15.76,37.23-6.19,40.06,13.62,4,18.58-40.94,23.78-50.11,3.93-3.09,15.02,34.34,18.74,37.61,2.67,2.31,9.91,3.84,11.29,2.46,3.87-3.84-16.28-42.26-17.52-50.1,6.58-4.85,46.59,14.09,56.69,14.93,10.54.89,16.1-6.38,6.75-11.96-7.69-4.59-58.38-14.15-58.38-19.27,7.13-9.32,38.73-23.49,37.74-35.05-1.68-19.54-34.59,15.63-40.27,20.02-2.51,1.97-3.2,4.86-7.52,3.73,2.74-8.3,5.13-58.87-1.31-60.15-3.91-.8-6.92.18-8.35,4.18l-2.92,53.5c-13.2-8.47-14.26-35-32.54-32.56-5.41,5.42,21.9,37.96,25.07,45.07-9.89.1-50.02-1.43-53.93,7.55,1.93,12.36,11.25,5.08,15.09,5.01Z"/>
  <path class="cls-1" d="M456.54,1080.34c-10.28,1.53-21.32,7.22-30.24,12.38-104.51,60.28-12.35,187.92,79.33,129.44,76.22-48.6,37.97-154.61-49.08-141.82ZM508.45,1204.96c-70.42,62.4-164.06-32.82-88.96-93.95,9.36-7.61,30.41-19.84,42.14-20.77,65.92-5.17,99.82,67.76,46.83,114.72Z"/>
  <path class="cls-1" d="M922.21,643.57c-20.58-1.94-46.39,0-67.69,0-.76,0-4.62,5.08-6.21,6.25,7.13,11.09,14.97,3.99,23.8,3.77,27.19-.6,52.12,2.98,78.93,4.99,3.13-11.73-20.31-14.22-28.82-15.01h-.02Z"/>
  <path class="cls-1" d="M594.95,1073.24c-2.35.6-35.3,19.42-38.46,21.81-7.71,5.81-3.72,13.78,4.16,11.78,2.35-.6,40.41-22.77,41.61-24.89l.02-.03c2.51-4.39-.48-10.36-7.34-8.67Z"/>
  <path class="cls-1" d="M677.77,603.46c-4.3-.54-5.57-.39-8.72,2.55-3.7,3.46-24.2,42.29-21.34,45.04.9.86,7.71.55,10.23-1.63,3.84-3.32,23.23-42.45,19.83-45.97Z"/>
  <path class="cls-1" d="M422.06,1017.05l7.54,47.61,7.59-1.14c4.33-3.06-1.98-35.15-4.51-40.81-2.35-5.21-4.83-6.51-10.63-5.66Z"/>
  <path class="cls-1" d="M707.85,643.57c-3.68-3.56-29.83,11.74-33.51,15.34-7.15,6.96-3.54,14.1,3.43,11,4.69-2.1,36.82-19.83,30.08-26.33Z"/>
  <path class="cls-1" d="M361.73,1256.29c-2.32,3.99-3.06,6.73-2.37,11.39,6.09,6.1,30.11-19.68,32.57-26.27-2.28-11.56-28.08,11.26-30.2,14.88Z"/>
  <path class="cls-1" d="M626.41,603.46c-6.35,1.37-2.94,42.26,7.45,40.08,7.48-1.58.81-41.85-7.45-40.08Z"/>
  <path class="cls-1" d="M534.87,1084.69c6.44,6.49,33.56-32.42,21.25-35.07-5.75-1.22-25.69,30.61-21.25,35.07Z"/>
  <path class="cls-1" d="M474.82,1266.3l-7.66-1.11v36.34c14.21,15.65,11.52-32.42,7.66-35.23Z"/>
  <path class="cls-1" d="M356.83,1187.46l-1.1-7.61c-42.94-9.32-46.07,19.94,1.1,7.61Z"/>
  <path class="cls-1" d="M547.41,1221.35c-2.97,11.53,38.89,33.38,27,11.78-.78-1.4-24.59-21.13-27-11.78Z"/>
  <path class="cls-1" d="M376.91,1054.63c-3.68,3.58,16.97,30.82,22.54,25.05,4.55-4.72-11.94-30.56-22.54-25.05Z"/>
  <path class="cls-1" d="M669.33,681.36l-4.07,9.79c23.18,11.79,29.85-7.08,4.07-9.79Z"/>
  <polygon class="cls-1" points="566.01 1202.57 572.43 1206.57 582.46 1201.28 567.51 1195.07 566.01 1202.57"/>
  <path class="cls-1" d="M482.18,519.42c20.75-20.22-30.54-56.93-50.76-53.43-40.5,7.03,32.01,71.7,50.76,53.43ZM456.05,485.58l-4.03,12.54c-3.59,2.57-22.4-13.97-22.47-19.97,10-1.25,18.56,1.43,26.5,7.43Z"/>
  <path class="cls-1" d="M373.95,444.97c-2.3-19.45-25.18-18.58-12.08-1.95-10.23.6-13.71,8.34-17.18,16.77l9.64,5.79,7.54-9.99c-2.67,8.38-10.14,15.31-13.02,23.37-1.36,3.84-2.9,3.04,1.77,6.69,12.53,2.67,24.54-30.45,23.32-40.68Z"/>
  <path class="cls-1" d="M1038.97,875.56c14.63-10.23-25.99-52.69-43.68-50.9-35.56,3.61,25.07,63.92,43.68,50.9ZM1015.01,846.62c2.92,2.1,13.91,14.24,11.25,17.49l-13.81-9.96,2.55-7.53Z"/>
  <path class="cls-1" d="M1115.1,909.42l7.71-17.7,2.85,5.01h8.38c-4.68-7.47,9.64-30.86,1.24-32.58-9.64-1.98-33.65,34.08-28.77,45.12l8.6.15Z"/>
  <path class="cls-1" d="M1134.08,896.74h-.04s.01.02.02.03l.02-.03Z"/>
  <path class="cls-1" d="M789.34,337.89c34.48-.08,28.84-56.04.67-52.33-30.15,3.95-28.4,52.39-.67,52.33ZM793.94,297.91c12.49,10.67,8.46,31.7-10.49,26.89-8.05-11.68-6.03-27.9,10.49-26.89Z"/>
  <path class="cls-1" d="M721.1,327.25c26.91-6,22.22-49.2-1.52-48.81-34.75.57-33.6,56.64,1.52,48.81ZM714.66,290.52c14.72-4.07,19.07,22.71,4.32,24.76-17.89,2.47-17.23-21.16-4.32-24.76Z"/>
  <path class="cls-1" d="M885.06,336.96c5.8-6.33,8.65-23.41,3.5-30.73-15.13-12.69-42.64-7.61-42.89,15.18-.25,21.65,27.14,28.94,39.4,15.55ZM865.08,310.63c19.32-5.79,17.3,22.56,1.93,22.01-10.56-.36-12.44-18.85-1.93-22.01Z"/>
  <path class="cls-1" d="M461,979.5c17.73-.94,60.83-3.04,61.48-26.33.44-15.55-23.09-51.35-27.32-68.24-.6-6.77,32.25-36.84,38.8-43.2,17.41,14.2,31.3,25.86,55.66,18.22,1.84-.57,25.12-13,27.9-14.72,32.57-20.07,16.35-82.79-19.94-90.13,9.87-15.44,53.15-50.1,30.29-67.89-4.67-3.61-9.27-2.78-12.6-4.94-4.05-2.65-4.69-9.4-12.07-13.09-9.25-4.62-15.07-.18-24.24,1.66-15.96-17.52,2.78-37.49,5.43-56.74,6.14-44.73-9.18-55.01-27.35-89.17-21.99-41.33,3.45-54-2.69-90.06-2.19-12.82-19.73-38-31.05-44.16-4.55-2.49-10.1-1.79-12.81-3.46v-.08c-1.24-.75-9.87-12.98-14.54-16.79-35.05-28.56-73.05-42.91-114.81-17.18-12.88,7.94-28.17,27.8-41.63,31.07-28.15,6.86-51.13-21.55-85.49,4.78-22.68,17.39-21.87,39.25-56.6,46.2-11.59,2.31-52.12-1.87-37.54,15.45l79.14,69.98c-105.02,12.04-136.53,145.55-122.22,233.77,25.28,155.94,200.19,232.73,344.21,225.07ZM592.16,816.15c-7.8,4.46-25.74,4.7-27.37-6,4.21-28.07,32.04-22.67,27.37,6ZM556.74,674.09c5.96-1.32,15.29-.99,12.88,7.89-1.75,6.39-37.88,37.44-39.7,50.57l6.23,3.84c8.58,0,42.83-63.4,62.28-57.52,14.21,4.33-14.01,25.81-18.38,31.18-4.72,5.81-26.45,34.86-25.16,39.98.46,1.85,5.27,5.71,7.57,2.6,7.89-6.9,11.16-16.98,17.57-25.08,4.39-5.53,37.01-47.07,42.39-29.82,3.24,16.85-50.35,56.8-42.27,68.45,6.12,3.79,12.44-.47,18.03.57,25.92,4.78,37.54,67.73,4.37,69.8-1.73-12.09,2.37-30.19,0-41.35l.02-.05c-3.5-16.51-27.35-19.8-40.23-7.63-23.57,22.28.53,51.5,27.69,41.48l.07,18.77c-13.52,6.88-26.04,3.95-37.44-5.19-3.43-2.77-4.53-7.92-9.27-10.77-20.91-12.54-45.08,37.15-54.88,37.33l-31.32-74.04c18.26-25.75,35.07-53.12,55.18-77.56,7.71-9.34,34.59-41.3,44.37-43.46ZM547.36,664.87l-31.3,31.28-26.31-65.11,57.61,33.83ZM337.84,530.58c3.61-5.12,6-16.49,6.72-17.1,1.03-.85,33.67-2.51,10.9-10.17-11.36-3.84-21.44-2.78-28.13-17-14.28-30.4,25.23-88.18,51.31-65.06h-.02c12.47,11.06,5.59,34.83,10.65,38.22,7.93.93,15.91,3.14,23.87,3.71,10.3.73,34.09-3.27,39.63-2.11,2.71.55,44.99,31.25,39.08,8.69-1.7-6.51-18.51-12.46-14.65-16.67l22.52-10.05c11.02,24.98-.09,45.77-3.93,70.33l21.51,32.42c-13.62,3.19-30.8-9.42-40.16,3.73-4.44,6.25-2.92,17.24-10.76,18.56-18.38-1.66-32.04-40.53-43.01-37.28-12.31,21.45,5.54,46.39,18.38,63.45-16.35,22.11-22.13,35.67-47.31,15.5-15.98-12.79-23.62-34.87-33.88-43.84-9.71-8.49-11.06,1.5-8.23,10.52,5.98,19.05,22.22,41.84,29.16,61.45-3.59,23.1-14.33,14.8-27.19,4.44-14.4-11.61-50.21-51.84-49.86-70.28.25-14.46,26.47-31.57,33.42-41.46ZM173.89,855.31c-64.54-79.21-69.94-257.46,26.77-311.51,18.1-10.12,30.45-9.79,49.68-14.7,17.04,13.09,27.19,26.59,51.33,21.75l.05.07c.44,6.49-6.21,7.24-7.48,13.84-5.86,30.77,47.79,93.22,78.5,100.93,12.35-.94,25.85-31.83,29.76-34.08,3.63-2.08,13.85.8,21.44-2.41,6.12-2.6,22.63-23.13,24.45-23.13,33.46,26.19,51.86,61.08,55.77,103.68l-53.29,71.7c-9.34-35.85-35.1-.47-56.37,5.03-2.09-32.39-28.84-61.09-59.09-70.06-13.8-4.12-37.74-3.38-48.55-9.11-11.48-6.1-43.15-62.44-54.23-26.27-7.22,23.57,4.78,39.46,18.72,56.17-11.5,14.9-25.78,30.91-31.05,49.3-7.89,27.52,1.68,28.89,17.34,47.76,6.05,7.27,13.85,14.96,20.01,22.54,8.12,9.95,6.51,17.47,25.07,14.75,18.56-2.72,44.92-56.74,79-63.97,7.87-1.69,15.2-.26,22.84-2.23l52.49-28.97,75.25,182.96c-113.41,24.38-263.14-11.65-338.41-104.04ZM306.69,791.45v.03c-10.03-1.89-16.4,7.08-22.61,13.71-9.96,10.62-18.26,24.97-22.54,38.91-10.86-5.16.07-23.67,4.62-31.73,5.75-10.22,28.31-32.78,29.99-37.7.9-2.67.55-5.51.48-8.25-5.5-5.66-29.83,25.02-33.6,30.29-7.08,9.91-10.47,21.63-19,29.85-5.47-14.8,7.96-34.96,16.49-47.4,7.57-11.04,21.69-19.94,21.07-32.79-5.61-5.76-27.65,22.79-31.1,27.78-6.33,9.17-11.04,19.31-15.87,29.34-1.66,3.4,1.59,6.9-5.66,5.5-.92-24.17,16.15-47.56,31.26-65.23,6.32-7.38,16.49-8.07,13.85-19.99-21.41,9.89-42.66-26.61-26.31-42.57,10.3,10.41,17.78,26.82,30.5,34.61,16.97,10.39,43.42,6.02,64.45,15.78,21.18,9.82,43.33,35.65,40.64,60-21.94,2.85-37.21,6.85-54.92,20.33-10.9,8.3-42.76,47.79-48.48,49.35-4.14,1.14-6.35.16-7.98-3.81-2.97-9.27,5.91-25.36,11.09-33.28,3.31-5.09,27.9-28.64,23.64-32.74Z"/>
  <path class="cls-1" d="M1329.62,1159.84c31.38-67.8-21.6-149.06-94.94-150.69-3.84-34.42-17.99-65.71-52.99-77.39,4.37-10.44,13.82-17.89,18.79-30.06,14.34-35.05-1.15-73.65-33.44-91.87,1.36-26.14-15.16-79.95-49.15-73.46-4.28.8-9.45,6.96-13.59,4.57-15.43-40.86-109.16-66.25-95.59.33-20.47-.63-45.81,9.89-35.72,34.48,5.06,12.33,29.12,17.08,11.75,35.61-9.54,10.2-24.26,1.95-36.75,3.2-30.34,3.09-21.32,23.47-4.53,38.39,1.17,5.25-7.93,5.61-9.59,10.33-4.51,12.9,6.33,17.1,12.14,25.9l-14.81.26-.21,19.83c-22.84-.7-47.4,9.63-59.78,29.23-5.15,8.18-6.67,22.94-10.23,27.38-3.84,4.75-20.84,7.53-26.08,14.02l-12.95,12.07-6.03-6.75c-1.56-6.21,16.88-24.87,21.14-33.21,6.44-12.65,11.38-28.73,7.57-42.84l-18.93-6.12c4.9-7.32,12.4-13.53,16.31-21.31,4.69-9.39,24.33-77.83,23.94-86.47-.85-19.21-19.27-20.28-32.73-11.32-2.03-2.52,27.02-46.91,3.93-60.35-5.45-3.17-11.27-1.32-13.55-2.73l-.02-.08c-1.91-1.19-2.16-12.72-15.46-16.05-7.64-1.9-10.81,1.72-16.19,1.38-6.3-.39-9.43-5.79-19.85-4.83-15.16,1.42-19.02,15.34-25.94,17.1-6.92,1.74-12.7-5.11-23.11,1.74-10.42,6.86-18.03,38.61-21.48,51.2-7.2,26.29-12.56,80.34-23.78,100.95-1.82,3.3-7.91,3.58-11.34,6.83-26.59,25.07-32.18,59.22-14.14,91.17-36.73,35.31-63.23,91.45-9.68,125.69-23,28.29-16.58,66.9,14.72,85.61,18.31,10.95,30.73,8.67,50.53,4.46,23.23,48.85,103.13,63.55,145.38,31.51,1.98,10.23.69,52,7.45,56.49l176.34,16.72c43.29,53.66,128.24,97.06,183.54,34.61,8.73,8.44,19.8,18.95,30.51,24.58,109.39,57.53,197.55-152.69,78.55-190.08ZM941.02,901.71c11.77-1.24,22.29,5.73,33.65.28,12.63-8.96-26.29-23.67-28.61-31.62-2.07-5.38,6.99-3.29,10.26-7.22,9.91-12.04-17.07-23.7-15.29-36.61h41.38v.05c11.25-2.42,13.2-21.16,23.8-22.58-3.59,13.99,37.95,46.16,47.79,39.04,9.08-6.6-6.23-23.18-5.17-23.99h15.04c-8.35,23.18,4.12,46.78,29.07,49.89,18.38,2.28,15.11-3.51,26.84-10.3,24.93-14.43,30.91,12.35,24.89,32.37-6.99,23.28-44.64,54.47-48.35,13.37l-9.87-.16c-2.81,18.9,7.66,33.43,27.44,32.71.18,4.62,1.24,10.85-1.15,14.92-2.21,3.72-39.93,23.93-46.39,26.3-17.5,6.39-33.86,9.73-51.61,1.51-2.85-1.33-4.58,1.22-3.5-5.21l61.04-32.4,1.63-10.23c-33.9,3.77-69.3,16.35-103.77,12.23-26.59-3.17-31.69-17.29-29.12-42.34ZM806.34,716.69c15.43,4.62-6.14,27.23-11.18,37.96-5.04,10.74-9.5,25.07-12.17,36.73h-.02l-22.49-2.46c3.45-7.79,4.28-16.35,6.88-24.45,4.55-14.22,19.89-53.51,38.98-47.79ZM762.91,717.39c5.36-4.15,20.36-10.31,15.64.55-2.41,5.6-8.97,11.08-12.28,17.86-5.04,10.33-14.1,46.98-16.97,50.7-2.43,3.15-10.02,2.44-13.8,4.93.73-20.8,10.7-61.07,27.41-74.04ZM727.88,730c3.13-1.84,6.67-1.24,10.05-1.19h-.05c-4.44,16.72-9.43,33.25-13.89,50-1.17,4.39-.3,10.02-1.59,13.45-.48,1.28-18.65,14.23-5.75,16.77,1.91.36,27.23-9.94,37.54-10.21,17.73-.49,33.83,7.99,51.4,7.68,2.28-10.62-7.02-8.21-12.24-13.71,4.05-10.36,21.94-61.89,33.63-60.98,17.43,1.33-5.52,49.97-8.1,59.11-2.42,8.52-11.39,47.79-9.39,53.29,1.34,3.63,6.35,6.95,9.87,2.31,7.98-10.46,12.26-49.19,26.33-56.39,8.23-3.46,8.05,6.43,7.43,12.33-1.06,10.05-15.2,61.48-19.41,70.95-4.39,9.92-13.64,18.64-20.45,27l-125.48-23.75c11.66-19.39,27.6-139.28,40.09-146.65ZM950.24,1177.04c15.48,10.52,28.98,10.62,45.24.94,41.72-24.85,7.45-81.31-36.96-69.54-15,3.99-20.15,22.87-35.01,23.88-5.13-30.64,25.9-55.71,54.44-43.15,6.3,2.78,9.36,12.93,15.85,4.39,3.29-4.34,6.99-26.38,7.36-32.69.74-13.32-3.86-24.33.07-36.32,21.66,6.69,18.65,40.55,17.48,58.85-.69,10.54-12.31,30.55,5.01,28.87l.07.05c2.05-1.43,7.66-40.66,7.73-46.36.19-14.41-10.16-32.4,1.08-41.35,29.3,22.51,12.83,62.33,8.79,92.68l9.66-.34c5.18-20.02,12.28-42.45,10.1-63.31-.41-3.94-9.01-23.89-1.03-21.54,11.87,3.51,20.06,22.37,21.37,33.78,2.39,21.1-1.56,40.71-14.88,57.32l27.07,23.24-54.88,86.14-3.61-.08c-20.65-26.63-113.11-29.52-116.7-66.58-3.29-34.08,24.26,6,31.76,11.09ZM936.12,1143.62c8.12-5.94,14.61-20.67,24.33-23.18h.02c38.09-9.84,56.99,37.05,25.07,50.12-24.56,10.02-35.86-11.34-49.43-26.94ZM1256.89,1339.17c-10.3-5.37-33.74-30.42-40.84-28.64-3.4.85-12.7,19.15-25.09,25.28-41.97,20.77-88.25.93-120.86-27.96-9.15-8.12-39.03-39.49-35.9-50.88l94.85-143.61c23.44-7.29,35.83,46.73,41.84,48.72,7.98,2.62,13.06-3.51,19.76-4.55,15.2-2.34,29.79,2.26,42.92,9.45,11.11,6.1,18.43,17.73,30.9,17.94,10.26-10.72-36.61-34.47-44.57-36.89-16.56-5.04-29.67-4.25-45.65,1.82-1.38-20.76-23.23-52.15-46.32-47.64-9.41,1.85-18.79,25.15-25.39,32.78l-20.75-10.57c2.78-14.85,11.55-27.68,12.24-43.61.92-21.16-9.94-57.86-34.45-60.77-13.66-1.63-11.8-2.55-22.52-5.07-11.16-2.65-15.2,4.41-19.09,4.07-5.82-.5-14.31-9.19-24.29-3.3-10.07,5.92-1.4,51.53-7.52,63.93-30.04-15.92-73.25,6.7-75.3,41.45-.69,11.89,7.24,18.77,7.24,19.99-.02,5.11-22.61,10.88-6.23,39.18,22.03,38.09,83.63,32.74,115.83,59.74l.85,5.9c-11.38,10-8.65,20.85.28,31.73l-159.36-14.85c-.69-7.14-3.01-14.43-3.59-21.49-3.75-45.46,2.53-99.63-2.48-142.9-.64-5.5-1.84-10.1-6.35-13.73-5.77.02-5.86,4.29-6.35,8.65-3.77,33.56,3.79,71.5,2.55,105.34-23.53,36.97-94.5,26.56-122.84.11-10.53-9.82-8.83-18.01-16.56-28.73-18.17,6.08-32.98,12.75-50.97,1.01-17.76-11.56-26.15-29.38-20.31-50.15,3.15-11.22,12.37-19.01,14.21-28.81-1.01-5.53-28.27-16.05-31.46-36.39-5.5-34.99,18.03-61.94,42.23-83.04,1.03-4.13-11.22-21.29-13.11-28.81-5.52-21.94,5.08-39.59,18.35-56.05,54.6,3.94,109.02,18.07,162.86,29.05-.18,27.51-20.38,43.79-34.71,64.4,3.15,11.6,13.43,19.06,17.39,31.88,4.53,14.67,5.01,30.34-.64,44.73-4,10.18-13.75,15.96-14.51,26.81,24.77-.98,31.49-37.09,30.15-56.48-1.33-19.39-10.99-24.29,10.12-39.83,7.2-5.32,23.11-8.43,26.2-11.42,3.75-3.63,4.28-16.98,6.74-23.34,8.56-22.22,29.16-32.79,52.23-33.35,6.14,31.34,34.5,36.79,62.58,36.57-8.05,24.76,21.23,39.17,41.45,40.26,27.21,1.46,86.27-27.05,97.98-52.93,26.63,1.11,37.83-12.74,62.4,5.17,19.16,13.99,24.35,29.33,28.54,51.68,1.28,6.91-2.11,16.33,3.86,21.31,4.12,3.42,18.25-.98,27.16.34,30.5,4.49,64.88,41.88,71.78,71.1,6.82,28.84-1.17,46.11-8.08,73.02l3.92,3.99c110.49,23.24,34.09,218.94-63.29,168.4Z"/>
  <path class="cls-1" d="M552.28,404.37c6.95,5.06,91.24-20.3,106.24-21.67,39.4,50.78,105.48,81.17,169.69,80.39-13.27,39.33-18.49,92.62,10.05,126.56,3.29,3.92,10.42,5.21,12.05,10.51,2.37,7.74-1.61,18.04,1.56,26.03l104.03,12.17,2.97-14.56c35.24,4.8,65.8-5.69,84.52-37.09,44.3-74.24-16.01-168.92-94.83-183.8l-.02-.03c109.71-117.26-32.34-286.47-171-259.91-78.75,15.1-150.88,89.01-148.72,172.17l-76.54,73.85c-3.22,3.61-3.96,12.52,0,15.39ZM893.39,620.98l-.02-.02,10.33-47.32,17.16-4.18,6.76,7.61-12.86,41.46-21.37,2.44ZM931.89,495.86c17.64,3.01,8.86,52.93-10.9,54.95-9.04-9.45-2.6-57.24,10.9-54.95ZM1040.01,495.7c15.59,44.15-1.63,113.28-55.45,117.55-9.04.72-25.67-5.16-30.36-3.01-8.19,3.73-3.77,13.34-9.73,15.47l-18.37-2.36,12.6-42.42c16.42,9.92,58.97-9.81,40.07-28.97-14.12-14.31-29.51,1.72-40.23,10.12-2.67,2.07-5.61,5.94-7.5-.05-.92-2.85,14.83-14.54,15.52-19.5,10.9-13.52,10.17-53.29-9.38-56.9-35.72-6.6-35.4,52.96-26.24,75.16-17.25,3.69-14.19-24.15-28.15-30.71-35.9-16.85-27.55,48.23,7.98,43.38,1.17,20.9-2.35,51.97-29.92,42.45-.37-7.87-1.56-15.44,4.53-21.29-22.63-12.26-34.18-32.43-36.92-57.89-15.04-140.55,166.54-168.35,211.55-41.04ZM948.54,570.85c.16-6.99,22.91-17.99,22.52-8.75-.21,4.77-17.3,11.11-22.52,8.75ZM888.37,560.85c-5.22,4.94-25.39-16.09-13.78-22.5l13.78,22.5ZM638.78,322.58c4.74-11.34,2.51-24.29,4.58-35.52,14.67-79.61,100.25-142.62,180.78-134.49,101.96,10.31,200.99,137.06,125.46,230.1-18.72,23.06-21.6,14.83-46.25,21.42-15.02,4.03-33.07,12.82-45.08,22.61-21.48,17.58-13.75,29.08-48.83,26.32-54.16-4.26-115.99-41.88-148.28-84.84l-91.19,22.19,68.81-67.78Z"/>
</svg>