<?xml version="1.0" encoding="utf-8"?>
<!-- Generator: Adobe Illustrator 16.0.0, SVG Export Plug-In . SVG Version: 6.00 Build 0)  -->
<!DOCTYPE svg PUBLIC "-//W3C//DTD SVG 1.1//EN" "http://www.w3.org/Graphics/SVG/1.1/DTD/svg11.dtd">
<svg version="1.1" id="Layer_1" xmlns="http://www.w3.org/2000/svg" xmlns:xlink="http://www.w3.org/1999/xlink" x="0px" y="0px"
	 width="900px" height="455px" viewBox="0 0 900 455" enable-background="new 0 0 900 455" xml:space="preserve">
<g>
	<path fill="#023F88" d="M655.104,124.174l16.389-62.241l17.056,62.241 M549.229,124.174l16.392-62.241l17.276,62.241H549.229z
		 M670.387,267.48l124.035,82.395l-54.487-130.016l114.515-95.685H714.021L670.387,2.573l-40.312,121.602h-21.706L564.514,2.573
		l-40.535,121.602h-19.932L460.188,2.573L420.32,122.181l22.149,11.074l18.829-71.322l23.699,85.497h94.135l-83.947,61.576
		l39.648,81.951l-74.646-50.721v27.244l124.259,82.395L529.96,219.859l86.823-72.429h66.672l-83.946,61.576l39.647,81.951
		l-74.643-50.721v27.244l124.255,82.395l-54.706-130.016l86.824-72.429h68.221l-83.727,61.576l39.428,81.951l-74.422-50.721V267.48z
		"/>
	<path fill="#C4122F" d="M423.644,109.998c-20.378-8.417-49.173-16.834-83.504-16.834c-31.673,0-68.22,7.309-105.873,28.574
		c-42.306,23.478-75.751,31.674-101.666,31.674c-16.168,0-29.459-3.103-40.533-7.752c-13.954-5.538-26.137-14.397-35.882-25.472
		c-3.102-3.543-5.759-7.087-8.195-10.853c-0.886-1.331-1.55-2.437-1.771-3.103c-0.222-0.441-0.443-0.663-0.443-0.663v-0.222
		l-0.665,0.443l-8.416,25.693c4.209,5.094,8.859,9.745,13.732,14.175c9.746,8.637,21.041,15.505,33.224,20.599
		c13.512,5.537,29.902,9.081,48.95,9.081c30.566,0,67.777-9.303,112.519-34.333c34.332-19.269,66.67-25.472,95.021-25.693
		c30.566,0,56.702,7.531,75.309,15.062c7.309,3.103,14.396,6.646,21.263,10.412c1.329,0.663,2.437,1.328,3.322,1.993l5.98-22.149
		C438.705,116.644,431.396,113.1,423.644,109.998"/>
	<polyline fill="#C0223D" points="45.775,105.347 45.775,105.347 45.11,105.79 	"/>
	<polyline fill="#FFFFFF" points="45.11,105.79 45.11,105.568 42.675,106.897 45.11,105.79 	"/>
	<path fill="#C4122F" d="M405.259,184.863c-20.377-8.418-49.171-16.833-83.503-16.833c-31.673,0-68.22,7.309-105.874,28.35
		c-42.305,23.701-75.751,31.673-101.665,31.673c-16.169,0-29.459-3.1-40.533-7.53c-13.954-5.757-26.137-14.397-35.882-25.693
		c-3.102-3.323-5.759-6.866-8.195-10.632c-0.886-1.328-1.551-2.437-1.772-3.1c-0.222-0.443-0.443-0.665-0.443-0.665l-0.222-0.222
		l-0.442,0.222l0.664-0.222l-0.664,0.222l-8.416,25.693c4.208,5.315,8.858,9.968,13.732,14.397
		c9.967,8.64,21.041,15.505,33.224,20.378c13.512,5.758,29.901,9.303,48.95,9.303c30.566,0,67.777-9.303,112.519-34.553
		c34.331-19.049,66.67-25.471,95.021-25.471c30.566,0,56.703,7.531,75.308,15.062c7.31,3.1,14.397,6.422,21.264,10.409
		c1.328,0.665,2.437,1.329,3.322,1.772l5.98-22.149C420.32,191.507,413.011,187.963,405.259,184.863"/>
	<polyline fill="#FFFFFF" points="26.727,180.433 26.727,180.433 24.291,181.761 26.727,180.433 	"/>
	<path fill="#C4122F" d="M387.762,258.621c-20.378-8.418-49.394-16.834-83.726-16.834c-31.673,0-67.998,7.309-105.651,28.572
		c-42.306,23.479-75.751,31.451-101.666,31.451c-16.391,0-29.681-2.879-40.755-7.531c-13.732-5.537-26.136-14.396-35.882-25.471
		c-2.879-3.545-5.759-7.088-8.195-10.854c-0.886-1.328-1.329-2.438-1.771-3.1c-0.222-0.443-0.443-0.666-0.443-0.666v-0.221
		l-0.664,0.221v0.223l0.664-0.443l-0.664,0.443l-8.195,25.693c3.986,5.094,8.639,9.746,13.732,14.174
		c9.746,8.639,20.821,15.506,33.002,20.377c13.732,5.76,29.902,9.303,48.95,9.303c30.566,0,67.777-9.303,112.74-34.33
		c34.11-19.27,66.447-25.693,94.799-25.693c30.565,0,56.924,7.531,75.309,15.063c7.309,3.1,14.396,6.422,21.484,10.408
		c1.107,0.666,2.215,1.33,3.101,1.773l5.981-21.928C402.602,265.264,395.291,261.721,387.762,258.621"/>
	<polyline fill="#FFFFFF" points="9.008,254.412 9.008,254.189 6.793,255.518 9.008,254.412 	"/>
	<polyline fill="#C4122F" points="34.258,452.428 18.975,452.428 18.975,406.578 6.35,406.578 6.35,393.732 46.883,393.732 
		46.883,406.578 34.258,406.578 34.258,452.428 	"/>
	<path fill="#C4122F" d="M162.945,419.203h1.551c5.094,0,10.632-0.887,10.632-7.311c0-6.422-5.538-7.309-10.632-7.309h-1.551
		 M196.612,451.541h-19.049l-14.396-22.594h-0.222v22.594h-15.061v-58.697h22.813c11.518,0,20.378,5.537,20.378,18.164
		c0,7.975-4.651,15.061-12.847,16.611L196.612,451.541z"/>
	<rect x="283.66" y="392.844" fill-rule="evenodd" clip-rule="evenodd" fill="#C4122F" width="15.282" height="58.918"/>
	<path fill="#C4122F" d="M436.046,411.893c-3.1-4.207-8.195-6.645-13.289-6.422c-9.524,0-15.726,7.086-15.726,16.168
		c0,9.303,6.423,15.947,15.947,15.947c5.094,0,9.746-2.213,13.067-6.201v18.383c-5.094,1.551-8.638,2.66-13.511,2.66
		c-8.195,0-15.947-3.104-21.928-8.641c-6.423-5.756-9.524-13.51-9.524-22.148c0-7.973,3.102-15.727,8.639-21.484
		c5.98-5.98,13.954-9.525,22.371-9.525c4.872,0,9.524,1.109,13.953,2.881"/>
	<path fill="#C4122F" d="M559.86,411.893h-0.221l-6.2,18.607h12.625 M549.229,442.236l-3.987,10.191h-16.389l22.594-58.695h16.832
		l22.149,58.695h-16.389l-3.768-10.191H549.229z"/>
	<path fill="#C4122F" d="M695.636,419.203h1.551c4.874,0,10.632-0.887,10.632-7.311c0-6.422-5.758-7.309-10.632-7.309h-1.551
		 M729.304,451.541h-19.05l-14.395-22.594h-0.224v22.594h-15.281v-58.697h22.813c11.738,0,20.38,5.537,20.38,18.164
		c0,7.975-4.431,15.061-12.85,16.611L729.304,451.541z"/>
	<polyline fill="#C4122F" points="836.95,405.912 836.95,415.658 854.226,415.658 854.226,428.506 836.95,428.506 836.95,438.693 
		855.112,438.693 855.112,451.541 821.665,451.541 821.665,392.844 855.112,392.844 855.112,405.912 836.95,405.912 	"/>
	<g>
		<defs>
			<rect id="SVGID_1_" x="868.4" y="392.18" width="30.787" height="30.789"/>
		</defs>
		<clipPath id="SVGID_2_">
			<use xlink:href="#SVGID_1_"  overflow="visible"/>
		</clipPath>
		<path clip-path="url(#SVGID_2_)" fill="#C4122F" d="M880.142,406.355h3.102c1.55,0,2.656-0.221,3.099-0.664
			c0.887-0.664,1.108-1.994,0.443-2.879c-0.223-0.443-0.666-0.887-1.106-0.887c-0.666-0.221-1.553-0.443-2.436-0.443h-3.102
			 M877.482,415.438v-15.949h5.537c1.55-0.219,2.88,0,4.209,0.443c0.885,0.223,1.552,0.666,1.995,1.551
			c0.439,0.666,0.663,1.33,0.663,2.215c0,1.109-0.443,2.215-1.106,3.102c-0.887,0.887-2.218,1.33-3.544,1.553
			c0.663,0.221,1.105,0.439,1.549,0.883c0.889,0.887,1.552,1.994,2.215,3.102l1.993,3.102h-3.1L886.342,413
			c-1.105-1.992-1.992-3.322-2.655-3.766c-0.667-0.443-1.33-0.662-1.995-0.662h-1.55v6.865H877.482z M884.126,394.617
			c-2.215,0-4.207,0.664-6.2,1.771c-1.995,0.887-3.545,2.658-4.651,4.652c-2.214,3.766-2.214,8.416,0,12.404
			c1.106,1.992,2.656,3.543,4.651,4.648c3.766,2.215,8.637,2.215,12.404,0c1.994-1.105,3.544-2.656,4.65-4.648
			c2.214-3.768,2.214-8.639,0-12.404c-1.106-1.994-2.656-3.543-4.65-4.652c-1.993-1.107-3.988-1.551-6.204-1.551V394.617z
			 M884.126,392.18c2.659,0,5.098,0.664,7.311,1.994c2.438,1.33,4.431,3.102,5.758,5.537c2.437,4.652,2.437,10.189,0,14.84
			c-1.327,2.438-3.32,4.432-5.538,5.537c-4.65,2.658-10.408,2.658-15.059,0c-2.217-1.105-4.211-3.1-5.537-5.537
			c-2.66-4.65-2.66-10.188,0-14.84c1.326-2.436,3.32-4.207,5.757-5.537C879.032,392.844,881.469,392.18,884.126,392.18z"/>
	</g>
</g>
</svg>
