<?xml version="1.0" encoding="UTF-8"?>
<svg id="Layer_1" data-name="Layer 1" xmlns="http://www.w3.org/2000/svg" viewBox="0 0 2000 2000">
  <defs>
    <style>
      .cls-1 {
        fill: #a89fd8;
      }
    </style>
  </defs>
  <path class="cls-1" d="M220.82,1947.78c1.72-2.37,2.57-6.06,3.32-9.55.37-1.75.7-3.47,1.09-5.01.38-1.54.78-2.94,1.35-3.98,1.13-2.08,2.98-3.43,4.67-3.75,1.65-.35,3.15.34,3.52,2.49.19.97-.94,5.87-2.19,10.63-1.19,4.78-2.63,9.23-2.03,9.22.68-.6,1.47-1.36,2.34-2.23.86-.89,1.76-1.92,2.72-3.02,1.91-2.2,4.05-4.65,6.04-7.14,4.11-4.89,7.9-9.64,10.78-11.04,3.79-1.96,7.3-.3,6.19,3.6-.27.92-.69,1.96-1.31,3.04-.61,1.07-1.37,2.22-2.24,3.42s-1.85,2.43-2.91,3.69c-1.07,1.24-2.26,2.48-3.47,3.73-1.21,1.24-2.46,2.47-3.7,3.68-1.28,1.18-2.57,2.32-3.8,3.42-1.25,1.09-2.43,2.14-3.54,3.1-1.13.95-2.18,1.82-3.1,2.59.31,1.44.71.71,1.78.53.78-.13,1.82-.39,2.98-.78,1.16-.39,2.46-.87,3.86-1.39,1.4-.53,2.87-1.09,4.36-1.64,1.5-.55,2.93-1.13,4.34-1.61,2.81-.97,5.39-1.61,7.15-1.45,1.74.15,2.71,1.15,2.29,3.53-.23,1.15-1.51,2.29-3.37,3.38-.93.54-2.01,1.07-3.17,1.59-.58.26-1.18.5-1.79.75-.62.24-1.27.46-1.92.69-2.6.9-5.29,1.7-7.6,2.41-2.32.69-4.33,1.26-5.46,1.8,2.2.34,4.45.69,6.68.99,2.21.28,4.45.54,6.71.78,2.25.24,4.54.46,6.82.65,2.25.18,4.53.32,6.83.45,2.38,1.19,2.55,3.28,1.14,5.24-.71.98-1.8,1.93-3.21,2.7-1.43.75-3.17,1.33-5.09,1.59-2.64.35-5.19.3-7.78-.01-2.6-.33-5.17-.86-7.74-1.4-5.09-1.06-10.32-2.31-15.77-1.94.49,3.19,1.98,6.09,3.55,8.92,1.56,2.84,3.19,5.61,3.8,8.62.49,2.34-.2,5.72-5.15,7.6-2.54.95-4.52.75-6.16-.16-1.62-.91-2.84-2.48-3.87-4.24-2.05-3.52-3.39-7.8-5.42-9.2-.91,2.41-1.86,4.84-2.85,7.27-.98,2.45-2.08,4.8-3.17,7.22-4.74,2.3-7.49,2.82-8.93,2.26-1.44-.54-1.54-2.05-1.11-3.82.21-.89.56-1.84.93-2.78.37-.95.77-1.88,1.12-2.7.7-1.65,1.19-2.85.8-2.93-1.21.65-2.38,1.49-3.58,2.37-1.2.87-2.41,1.83-3.63,2.77-1.22.94-2.47,1.86-3.75,2.67-.64.4-1.29.78-1.94,1.11-.66.31-1.34.59-2.02.81-4.51,1.46-7.93.11-7.76-2.5.04-.71,1.34-2.08,3.28-3.8.97-.86,2.09-1.81,3.3-2.81,1.21-.98,2.47-2.11,3.76-3.2,1.28-1.1,2.57-2.21,3.82-3.29,1.24-1.07,2.43-2.12,3.47-3.14,2.1-2,3.75-3.69,4.49-4.69-.49-.33-2.61.02-5.59.72-1.48.36-3.21.75-5.07,1.16-1.85.42-3.83.87-5.84,1.33-1,.24-2.02.43-3.04.62-1.02.19-2.03.38-3.02.56-1.99.36-3.9.7-5.65.96-3.53.43-6.37.65-7.75.5-3.02-.34-3.71-1.96-2.76-3.67.97-1.71,3.57-3.54,7.32-4.39,1.22-.25,2.47-.54,3.77-.8,1.3-.25,2.63-.48,3.99-.69,1.37-.21,2.76-.4,4.17-.61,1.4-.23,2.81-.46,4.22-.68,2.83-.45,5.7-.88,8.42-1.5,2.72-.6,5.39-1.21,7.8-2.01.2-.23-.65-.84-2.06-1.68-1.42-.86-3.38-1.96-5.37-3.11-3.99-2.31-8.02-4.81-8.6-5.84-.48-.81-.8-1.66-.46-2.67,1.97-2.41,4.05-3.3,6.25-3.25,2.21.07,4.48.98,6.75,2.27,2.27,1.3,4.53,2.96,6.61,4.45,1.04.74,2.03,1.44,2.95,2.03.92.57,1.75,1.03,2.49,1.3.83.31.4.99,2.28-.22-1.58-7.36-3.3-14.66-5.18-21.89-.69-2.57,2.99-5.88,6.25-6.17,1.2-.11,2.22.7,3.1,2.03.89,1.34,1.65,3.22,2.3,5.21,1.29,3.96,2.09,8.44,2.95,9.96v-.02Z"/>
  <path class="cls-1" d="M236.14,1690.62c1.03-1.54,1.71-4.6,2.58-7.43.91-2.78,2.19-5.15,4.68-5.04,4.14.18,4.26,4.11,3.33,8.59-1.02,4.39-3.14,9.23-3.3,11.51,1.1.49,1.22-.2,1.85-.68,1.64-1.22,7.02-6.38,8.49-6.58,2.29-.3,4.21,1.73,3.84,3.95-.34,2-3.09,4.66-6.28,6.93-3.21,2.27-6.74,4.25-8.47,5.27,2.39.51,7.95.21,13.31,0,5.36-.19,10.52-.27,12.03.98,2.14,1.75,1.92,4.77-.55,6.11-2.71,1.45-10.52.16-14.07.31-.65.03-1.82-.26-1.89.6,3.1,1.55,13.96,4.62,15.36,7.36,1.6,3.1-1.23,6.03-4.41,5.23-6.85-3-13.72-5.95-20.6-8.82-.21.12.05,1.17.54,2.72.25.78.56,1.69.91,2.67.31.96.66,2,1.01,3.04,1.4,4.21,2.88,8.79,2.86,10.05-.07,2.73-2.5,4.2-5.1,2.88-1.51-.78-2.25-2.84-2.93-5.05-.7-2.3-1.33-4.68-2.55-5.85.36,1.85-.47,5.57-2.03,7.55-1.54,2.11-3.67,2.94-5.87-.05-.95-1.3-1.07-4.57-.95-8.46.07-1.88.22-3.78.41-5.41.09-.81.19-1.56.29-2.21.1-.65.16-1.23.25-1.65-.57.15-1.16.47-1.74.89-.6.42-1.22.94-1.83,1.54-1.23,1.19-2.48,2.65-3.7,4.05-1.23,1.39-2.44,2.76-3.63,3.69-1.2.83-2.36,1.29-3.47,1.11-2.52-1.01-3.48-2.1-3.47-3.2,0-1.21.98-2.55,2.35-3.88,1.37-1.33,3.15-2.7,4.74-4.02,1.61-1.29,2.91-2.62,3.48-3.72-3.51.05-7.01.08-10.5.08-3.51-.02-7.04-.1-10.54-.19-1.97-.56-3.06-1.82-3.16-3.03-.13-1.26.7-2.51,2.64-3,5.83-1.46,16.32-.87,22.77-1.42.57-1.3.05-.87-.57-1.3-1.59-1.11-5.78-3.04-9.15-5.27-3.37-2.24-5.93-4.76-4.2-7.23.42-.6.92-1,1.5-1.26.56-.26,1.2-.37,1.89-.34,1.38.04,2.97.57,4.58,1.31,3.23,1.47,6.51,3.71,8.59,4.38.37-.21-1.05-2.67-2.7-5.38-1.62-2.67-3.35-5.45-3.42-6.22-.25-2.93,4.24-3.86,6.07-1.48,1.53,2.34,3.06,4.69,4.58,7.08,1.51,2.38,3.09,4.85,4.51,7.2.15-.73.32-1.44.44-2.18l.39-2.24.79-4.48.03-.02Z"/>
  <path class="cls-1" d="M321.54,1677.13c-.83,3.26-3.75,6.06-6.61,4.04-2.29-1.61-1.93-6.56-.93-11.78.9-5.23,2.41-10.74,2.59-13.35-2.15.98-6.03,5.41-9.83,9.48-1.88,2.04-3.81,3.98-5.48,5.38-1.67,1.39-3.07,2.26-3.99,2.14-3.03-.38-3.31-3.65-2.28-6.32.47-1.27,3.73-5.12,6.8-8.8,3.09-3.67,5.9-7.2,5.57-7.57-2.61.45-5.89,1.98-9.16,3.4-3.28,1.41-6.53,2.72-9,2.83-3.3.13-5.15-3.05-3.46-6.24.76-1.45,5.14-3.19,9.77-4.75,4.64-1.56,9.55-2.93,11.37-3.51,1.2-1.42-13.29-5.34-13.17-10.95.13-5.88,4.25-5.15,8.55-3.08,4.3,2.06,8.77,5.47,9.64,4.83-.53-2.25-2-5.87-3-9.43-1-3.56-1.47-7.04.07-9.02,5.76-7.4,8.86,10.78,11.82,13.61,1.45-4.1.45-16.53,6.29-16.24,6.63.33,1.64,12.35,2.19,16.87,3.79-2.32,11.72-12.59,16.03-9.18,2.84,2.26.77,5.94-2.36,9.46-3.14,3.52-7.31,6.86-8.59,8.48-.52.66-1.24.78-1.06,2.02,4.32.7,17.49-1.81,20.29,1.62,1.18,1.42.79,4.48-.19,5.97-1.76,2.69-17.49,2.17-21.01,2.87,2.97,2.75,5.98,5.51,8.93,8.31,1.28,2.13,5.04,5.98,5.16,8.52.16,3.37-2.15,5.41-4.92,4.64-2.27-.63-5.43-4.04-8.64-7.56s-6.48-7.17-8.95-8.42c-1.33,6.66-.74,15.39-2.44,21.77h0Z"/>
  <path class="cls-1" d="M223.01,1830.05c1.8-.11,4.17,2.86,5.7,3.84,3.88,2.47,8.15,4.28,11.69,7.3,1.25-1.14.54-.87.21-1.61-.66-1.39-2.7-4.21-4.49-6.93-1.77-2.73-3.31-5.41-2.86-6.64.97-2.59,2.34-3.28,3.88-2.87,1.53.41,3.28,1.96,4.96,3.97,3.35,3.96,6.37,9.79,7.53,11.28,2.49-6.44,4.55-13.01,6.42-19.51l2.46-2.88c2.34-.54,4.8,1.24,4.77,3.75-1.53,7.1-3.47,14.16-5.72,21.26.56.77.97.38,1.63.36,1.61-.02,4.4-.65,7.29-1.43,1.45-.39,2.92-.81,4.26-1.21,1.32-.42,2.51-.8,3.41-1.09,1.76-.56,3.93-1.86,5.88-2.5,1.95-.65,3.75-.61,4.86,1.65.38.77.39,1.53.1,2.3-.3.75-.89,1.48-1.68,2.19-.79.71-1.8,1.4-2.93,2.05-.57.33-1.16.65-1.78.96-.63.3-1.28.6-1.94.88-2.66,1.13-5.45,2.12-7.84,2.91-2.4.79-4.34,1.43-5.21,1.98,1.3,1.66,6.86,3.81,10.79,6.32,1.96,1.27,3.49,2.64,3.83,4.15.34,1.51-.5,3.18-3.39,4.89-3.91,2.34-13.05-5.6-16.68-6.69-.57.18.17,4.34,0,8.74-.09,2.18-.45,4.38-1.23,6.13-.78,1.75-2.01,3.02-3.93,3.25-2.73.33-3.52-2.91-3.95-6.57-.48-3.7-.62-7.83-1.6-9.46-1.1.68-2.37,2.23-3.73,4.08-1.41,1.82-2.95,3.92-4.48,5.74-3.18,3.55-6.38,5.89-8.52,2.32-1.12-1.84.53-3.15.23-4.84-1.4,1.49-3.44,1.97-5.03,1.48-1.58-.46-2.67-1.82-2.24-3.84.19-.91.93-2.02,2.01-3.17,1.07-1.17,2.51-2.37,3.93-3.66,1.43-1.27,2.97-2.49,4.31-3.63,1.31-1.16,2.46-2.18,3.19-2.96-.57-.93-1.22-.47-2.01-.51-1.67-.09-4.76.52-7.71.6-2.93.11-5.6-.17-6.44-1.66-1.03-4.09.61-5.18,3.07-5.59,2.45-.42,5.82-.03,8.1-.86-1.36-1.36-4.41-3.04-7.09-4.94-2.68-1.89-4.94-3.95-4.89-5.97.03-1.44,1.4-3.27,2.86-3.37h0Z"/>
  <path class="cls-1" d="M431.13,1729.18c2.26,1.01,3.29,3.81,2.99,6.32-.36,2.56-2.06,4.85-5.08,4.74-4.17-.14-8.85-1.12-12.98-1.74-.04,3.09.74,6.02,1.55,9.02.84,2.97,1.57,6.08,1.55,9.42-.04,6.42-3.15,14.68-7.58,9.45-1.53-1.8-1.02-10.42-2.52-12.73-1.46,5.24-3.23,13.17-8.08,11.42-2.83-1.03-2.07-6.8-.92-12.39,1.23-5.62,2.55-10.94,1.44-11.15-1,.72-2.27,2.05-3.67,3.53-.69.74-1.45,1.53-2.23,2.31-.78.78-1.58,1.55-2.38,2.25-3.18,2.8-6.34,4.51-8.32,1.84-1.5-2-.9-4.29.4-6.4.66-1.06,1.46-2.06,2.24-2.94.79-.89,1.59-1.67,2.22-2.26-3.02-.01-9.69,3.34-10.37-2.25-.51-4.1,2.57-6.15,6.27-7.58,3.7-1.42,8.04-2.21,9.9-3.6-4.18-6.2-8.35-12.28-12.63-18.19-2.17-4.24,1.35-9.22,4.83-6.91,2.75,3.16,5.49,6.38,8.22,9.62,2.68,3.27,5.32,6.61,7.96,9.99.61-1.44,1.16-3.87,1.71-6.75.54-2.87.96-6.12,1.49-9.31.52-3.19,1.1-6.29,1.78-8.76.64-2.44,1.42-4.28,2.42-4.99,3.91-2.79,5.4.07,5.85,4.33.25,2.11.12,4.64-.06,6.94-.19,2.31-.45,4.39-.63,5.72,2.59-2.26,5.98-10.46,9.5-9.23,3.26,1.15,2.27,5.06.54,8.8-1.73,3.76-4.17,7.34-3.83,8.02,1.64-.06,4.35-1.89,6.81-2.87,2.46-.98,4.65-1.12,5.23,2.29.17,1.05.16,1.96-.02,2.76-.19.81-.53,1.51-.97,2.12-.89,1.23-2.23,2.1-3.71,2.85-2.96,1.48-6.48,2.44-8.17,4.65,2.73,1,6.71.53,9.26,1.68v-.02Z"/>
  <path class="cls-1" d="M310.29,1765.14c-.41-1.91-2.73-6.38-3.98-10.3-1.3-3.93-1.41-7.36,2.94-7.55,2.34-.1,4,2.48,5.32,5.59,1.32,3.1,2.32,6.72,3.25,8.55.22-.5.41-1.13.58-1.85.15-.71.27-1.51.39-2.37.23-1.71.44-3.61.72-5.44.55-3.66,1.49-6.99,3.52-7.8,2.19-.86,3.56-.14,4.35,1.54.79,1.67.89,4.28.69,7.16-.21,2.87-.75,6.01-1.36,8.71-.66,2.71-1.43,5.02-1.91,6.17,2.03.1,7.4-.65,11.99-.4,4.59.25,8.39,1.58,7.16,6.21-.64,2.5-2.83,3.71-5.21,4.28-2.39.57-5,.51-6.61.49-.88,1.81-.26,1.19.28,1.82,1.66,1.96,5.6,3.36,3.98,7.68-1.25,3.39-3.56,3.46-5.83,2.46-2.27-1-4.55-3.04-5.87-3.94-.62.36.08,4.56-.1,8.72-.23,4.13-1.4,8.17-5.46,7.87-3.77-.29-2.78-6.69-3.77-9.64-.5,2.37-1.46,4.53-2.57,6.2-1.14,1.67-2.45,2.87-3.6,3.38-2.32,1-3.99-.77-2.89-6.97l-.82-.36c-2.23,1.21-4.48,2.26-5.79-.28-1.1-2.15.13-4.47,2.04-6.64.47-.54.98-1.09,1.5-1.61.51-.52,1.02-1.04,1.5-1.54.98-1,1.88-1.92,2.46-2.72-1.93-.3-4.21.15-6.29.09-2.08-.05-3.95-.61-5.08-2.82-.03-1.71.35-2.9,1.08-3.77.72-.88,1.79-1.46,3.18-1.94,1.42-.49,3.25-.07,4.25-1.12-1.04-1.03-3.61-2.02-5.87-3.23-2.26-1.21-4.22-2.65-4.1-4.57.3-4.5,3.33-4.75,6.76-3.78,3.44.97,7.28,3.25,9.17,3.77v-.03Z"/>
  <path class="cls-1" d="M333.27,1888.56c-1.23-4.08-2.49-8.09-3.9-12.07,1.85-4.24,3.52-6.25,4.96-6.84,1.46-.59,2.8.28,3.97,1.88,2.39,3.2,3.93,9.36,4.84,12.42.92-1.24,2.31-3.62,3.77-6.47.74-1.42,1.53-2.95,2.34-4.52.82-1.55,1.66-3.13,2.47-4.66,1.63-3.05,3.36-5.83,4.95-7.68,1.59-1.84,3.14-2.73,4.55-1.94,2.65,1.48.97,6.63-1.9,12.08-.71,1.36-1.46,2.75-2.25,4.1-.81,1.34-1.6,2.66-2.35,3.9-1.5,2.47-2.75,4.63-3.39,6.08-.02.38,1.3.27,3.33-.06,2.01-.34,4.72-.93,7.55-1.5,2.82-.57,5.76-1.12,8.16-1.36,2.38-.24,4.26-.14,5,.64.81.86.78,3.05.03,4.76-1.5,3.55-4.82,4.81-8.28,5.49-3.52.68-7.19.79-9.46,2.2,1.77,1.67,4.31,2.4,6.62,3.42,2.3,1.01,4.37,2.31,5.14,5.21-.7,1.11-1.37,2.22-2.09,3.31l-2.18,3.3c-3.64,2.57-16.81-6.58-19.92-8.17.54,7.67.89,15.52.82,23.49-3.43,4.58-5.84,5.82-7.32,5.19-1.49-.64-2.14-3.16-2.44-6.18-.63-6.08-.08-14.08-.83-13.7-.92,1.06-2.05,2.86-3.32,4.92-.64,1.03-1.3,2.14-2.02,3.23-.72,1.1-1.48,2.2-2.24,3.26-1.53,2.11-3.08,4.02-4.62,5.23-1.55,1.21-2.99,1.73-4.23,1.1-1.29-.65-1.65-1.75-1.44-3.11.2-1.36,1.03-2.97,2.01-4.69,1.99-3.44,5.04-7.22,6.44-9.91-1.01.73-1.99,1.45-3.02,2.17l-3.08,2.13c-2.07,1.41-4.09,2.82-6.18,4.18-3.46-.84-4.21-2.43-3.41-4.3.75-1.89,3.02-4.12,5.74-6.31,1.37-1.09,2.77-2.21,4.18-3.25,1.4-1.05,2.77-2.04,3.99-2.92,1.23-.87,2.25-1.65,2.98-2.24.73-.59,1.17-1,1.19-1.19-1.39-.95-4.75-1.11-7.42-1.89-2.69-.78-4.66-2.15-3.43-5.35,1.63-4.28,4.49-5.1,7.45-4.89,2.97.22,6.11,1.51,8.26,1.55v-.02Z"/>
  <path class="cls-1" d="M211.32,1610.76c-.61-1.92-2.7-4.82-4.27-7.8-1.57-2.99-2.6-5.96-1.07-7.82,2.38-2.89,4.69-.87,6.64,2.29,1.95,3.16,3.55,7.52,4.47,9.14,1.61.29.97.07,1.26-.89,1.15-3.98.75-13.96,5.52-14.11,3.07-.1,3.61,3.04,3.31,6.67-.3,3.62-1.41,7.77-1.66,9.56.31.39,4.29-1.8,8.45-3.44,4.17-1.61,8.54-2.54,9.68.63,2.59,7.2-11.78,8.43-12.04,11.49,3.48,2.08,11.85,2.44,11.62,8.1-.36,8.92-13.47.7-17.71.26-.23.21.01,1.41.41,3.15.39,1.72.98,4.05,1.37,6.34.79,4.6,1.01,9.55-1.75,11.15-4.08,2.34-6.27-1.89-7.57-7.25-.32-1.33-.59-2.75-.81-4.13-.11-.7-.21-1.38-.31-2.06-.1-.69-.18-1.38-.27-2.03-.33-2.62-.55-4.82-.76-5.92l-7.18,5.95c-1.19,1-2.4,1.94-3.61,2.89l-3.62,2.82c-1.85,1.05-4.66.58-5.47-1.5-.46-1.18.05-2.56,1.03-4.03.98-1.51,2.44-3.08,3.94-4.56,2.98-2.93,6.07-5.45,5.52-6.11-3.08.3-12.75,3.43-14.27-.42-.39-.98-.44-1.8-.23-2.54.21-.74.68-1.37,1.35-1.9,1.33-1.07,3.45-1.74,5.79-2.21,4.68-.94,10.25-1.04,12.24-1.7h-.02Z"/>
  <path class="cls-1" d="M383.47,1554.24c-2.36-3.9-10.18-8.22-12.23-11.58-2.01-3.31.09-7.09,3.9-5.37.84.37,4.08,3.41,7.18,6.23,3.12,2.85,6.13,5.51,6.43,5.17-.24-1.25-.8-3.06-1.45-5.07-.65-2.01-1.4-4.27-2.07-6.52-.67-2.24-1.27-4.48-1.59-6.44-.31-1.91-.34-3.53.08-4.61,1.14-2.91,4.79-3.63,6.84-1.13,1.97,2.4,3.16,6.76,4.06,11.54.89,4.73,1.4,9.61,2,12.87,1.37.41.98-.09,1.42-.73.66-.93,1.32-2.62,2.12-4.45.78-1.84,1.64-3.9,2.62-5.68,1.95-3.57,4.34-6.01,7.46-3.49,3.03,2.44-4.55,12.39-5.2,15.66,5.98-4.02,12.03-7.79,18.06-11.53,4.81-1.05,6.96,3.14,3.33,6.88-1.24,1.26-2.78,2.41-4.46,3.51-1.69,1.09-3.54,2.11-5.38,3.15-3.69,2.09-7.39,4.26-9.83,7.27,6,1.74,13.02.82,18.85,2.2,2.26.53,4.92,1.94,4.29,4.92-1.3,6.13-14.77,2.47-19.02,3.81l5.37,3.66,5.39,3.73c1.28,12.64-11.09.46-11.94,1.27.29,1.73,1.28,3.58,2.22,5.44.94,1.86,1.81,3.72,1.83,5.53.05,2.95-2.2,4.68-4.67,4.04-1.33-.34-3.75-4.33-6.15-8.48-2.41-4.15-4.8-8.59-6.08-10.06-.99.39-1.97,5.52-2.95,10.96-.98,5.54-1.96,11.43-2.94,13.17-2.15,3.84-6.92.72-6.64-4.72.1-1.77.39-3.63.8-5.55.41-1.93.94-3.89,1.49-5.82,1.1-3.88,2.28-7.77,2.83-11.25-.47-.8-13.73,6.93-16,7.13-.93.08-1.84.06-2.65-.48-2.96-4.19,0-7.04,4.29-9.12,4.29-2.09,9.92-3.48,12.28-4.88.66-.39,1.06.11.88-1.45l-21.69-5.08c-2.64-.58-3.53-4.48-2.09-6.73,2.11-3.31,15.52,1.91,19.01,2.11h.01Z"/>
  <path class="cls-1" d="M335.8,1281.29c1.16-.78,2.58-2.12,4.12-3.66,1.54-1.53,3.19-3.26,4.91-4.75,3.4-3.01,6.74-5.26,8.82-3.79,3.37,2.4-.1,7.07-4.81,11.97-1.16,1.24-2.39,2.49-3.64,3.72-1.24,1.22-2.5,2.42-3.61,3.59-2.26,2.31-4.21,4.36-5.19,5.79.67,1.04,1.31.21,2.28-.15,1.27-.47,4.15-1.76,6.88-2.83,2.73-1.08,5.41-1.9,6.12-1.68,2.3.71,2.43,3.96.44,6.41-.89,1.12-2.45,2.15-4.37,3.12-.97.48-2.03.94-3.13,1.4-1.09.46-2.23.91-3.38,1.33-2.31.85-4.68,1.63-6.77,2.3-2.07.69-3.86,1.29-5.05,1.69,2,1.4,7.65,2.72,12.89,4.33,5.27,1.61,10.16,3.49,10.84,5.49.92,2.8-.87,6.15-4.01,6.87-3.43.78-10.3-3.15-13.88-3.93-.65-.14-1.64-.84-2.2.27,2.17,2.87,11.19,9.64,11.28,13.23.16,4.09-3.93,6.82-6.79,5.22-5.5-5.12-10.94-10.35-16.31-15.68-.28.12-.62,1.61-.97,3.83-.37,2.2-.62,5.14-.91,8.13-.3,2.99-.46,6.06-.67,8.57-.2,2.51-.41,4.48-.63,5.32-1.08,3.72-4.17,5.8-6.45,3.89-1.31-1.11-1.28-4.16-1.09-7.4.18-3.24.65-6.65-.1-8.44-.24,1.37-.99,3.29-2.01,5.28-.97,1.99-2.2,4.05-3.47,5.65-1.28,1.61-2.56,2.77-3.67,2.97-1.12.2-2.08-.57-2.64-2.86-.24-.98,0-2.84.54-5.16.53-2.32,1.35-5.12,2.39-7.93,1.96-5.64,4.68-11.39,5.99-13.88-1.37.28-3.16,1.53-5.13,3.25-.99.86-2.02,1.83-3.07,2.85-1.01,1.04-2.06,2.12-3.09,3.17-4.18,4.27-7.96,8.35-10.25,7.91-4.47-3.11-1.87-7.53,2.71-11.87,1.13-1.08,2.36-2.16,3.62-3.21,1.29-1.03,2.6-2.08,3.84-3.07,2.48-1.98,4.69-3.81,6.03-5.42-7.47-.88-14.86-1.57-22.4-2.11-3.53-2.1-1.08-9.36,3.97-10.67,3.74-.99,8.18-.81,12.64-.29,4.46.51,8.82,1.35,12.31,1.62,1.53-1.89.69-1.3.37-2.12-.8-2.03-3.55-5.94-5.09-10.29-.77-2.17-1.24-4.45-1.01-6.64.22-2.19,1.23-4.26,3.26-6,3.93-3.34,6.33-1.22,8.16,2.06,1.82,3.28,3.12,7.72,4.63,9.33.27-.08.57-1.16.9-2.76.33-1.61.68-3.75,1.13-5.95.87-4.39,1.82-9.12,2.57-10.24,2.71-4.35,7.77-3.69,7.15.43l-1.2,5.84c-.37,1.95-.69,3.9-1.02,5.84l-.92,5.77-.74,5.76c2.82-3.86,5.88-7.61,8.9-11.38h0Z"/>
  <path class="cls-1" d="M417.83,1314.38c-2.6,1.88-6.64,2.2-7.63-1.12-.39-1.33.29-2.91,1.58-4.59.66-.83,1.43-1.73,2.37-2.56.93-.83,1.96-1.68,3.02-2.49,1.07-.81,2.17-1.64,3.27-2.39,1.12-.73,2.22-1.44,3.25-2.1,1.02-.66,1.98-1.28,2.79-1.83.81-.57,1.54-1.02,2.05-1.44-.55-.23-1.33-.38-2.29-.48-.96-.1-2.07-.1-3.31-.08-2.47.05-5.43.24-8.32.48-5.72.55-11.4,1.12-12.63-.21-1.02-1.11-1.02-2.46-.34-3.66.67-1.21,1.96-2.34,3.37-3.11.67-.36,2.34-.81,4.51-1.2,2.18-.37,4.81-.72,7.33-1.04.63-.08,1.25-.16,1.86-.23.62-.06,1.22-.12,1.8-.18,1.16-.12,2.22-.23,3.13-.34,1.82-.22,2.99-.43,3.03-.69-2.09-1.62-5.53-2.97-8.97-4.29-1.71-.66-3.43-1.32-4.94-2.01-1.5-.68-2.8-1.4-3.73-2.23-1.22-1.1-1.49-2.64-.94-4.09.57-1.41,1.96-2.71,3.97-3.34,1.81-.57,6.32,1.28,10.73,3.7,4.41,2.39,8.67,5.23,10.31,6.25.95-.02-.03-3.48-.56-7.41-.53-3.93-.6-8.41,2.03-10.22,5.54-3.7,7.18.17,7.83,4.96.63,4.8.39,10.45,1.46,10.76.79-.88,1.74-2.17,2.82-3.6,1.08-1.43,2.25-3.05,3.55-4.47,2.58-2.85,5.45-5.29,8.05-5.01,4.83.46,3.52,3.82,1.05,7.49-2.42,3.79-6.03,7.89-6.29,9.97,2.06-.63,5.6-2.72,8.93-4.12,3.39-1.3,6.59-1.81,7.94.78,1.53,2.94-.8,4.84-3.93,6.35-1.54.8-3.29,1.51-4.87,2.2-.79.34-1.54.68-2.18,1.03-.64.37-1.18.72-1.58,1.1,1,.46,2.49.83,4.22,1.33,1.72.48,3.63,1.01,5.37,1.64,1.75.65,3.35,1.4,4.49,2.34,1.15.95,1.83,2.06,1.75,3.38-.09,1.77-1.09,2.66-2.61,3-1.51.35-3.59.1-5.73-.25-4.3-.75-9.26-2.36-11.2-2.42-.8-.04-1.32-.55-2.12.3,1.06,1.91,4.02,5.14,6.6,8.44,2.58,3.29,4.77,6.63,4.49,8.64-.24,1.67-2.44,2.91-3.94,2.99-2.72.06-12.42-12.35-15.21-14.6-.02,1.95.03,3.94.1,5.9.06,1.97.15,3.91.26,5.84-.53,2.21-.19,7.33-1.56,8.92-.92,1.07-2.08,1.5-3.18,1.41-1.11-.11-2.21-.78-2.99-1.98-.64-.98-1.04-2.56-1.29-4.49-.23-1.91-.27-4.12-.27-6.42,0-2.29.04-4.65.01-6.76-.02-2.08-.13-3.94-.52-5.26-2.84,1.67-5.55,4.24-8.31,6.67-1.34,1.25-2.65,2.53-3.98,3.7-.66.59-1.32,1.15-1.98,1.67-.65.53-1.28,1.05-1.93,1.51v-.02Z"/>
  <path class="cls-1" d="M301.44,1473.25c1.53-1.3,5.06.24,6.88.27,4.6.04,9.27-.65,13.82.25.55-1.73.06-1.1-.59-1.61-2.47-1.9-12.5-6.28-12.69-9.37-.34-6.5,3.86-5.94,8.56-3.57,4.7,2.37,9.92,6.44,11.63,7.25-.63-7.15-1.19-14.38-1.49-21.66.48-1.28.97-2.55,1.48-3.81,2.09-1.37,4.96-.36,5.7,2.11.7,7.48,1.53,14.86,2.59,22.18.84.45,1.04-.07,1.62-.36,1.41-.71,3.69-2.4,6.01-4.16,2.3-1.77,4.66-3.58,6.11-4.69,2.87-2.12,5.98-7.16,9.63-3.9,2.49,2.21-.52,5.84-4.35,9.5-1.94,1.82-4.05,3.64-5.84,5.21-1.78,1.58-3.23,2.9-3.74,3.72,1.92.84,7.82.39,12.45.97,4.62.58,7.96,2.11,4.76,6.82-2.17,3.22-14.04.95-17.72,1.73-.38.41,2.39,3.43,4.65,6.86,1.12,1.72,2.1,3.52,2.45,5.19.37,1.67.12,3.18-1.25,4.3-1.97,1.62-4.56-.29-7.09-2.85-2.54-2.55-4.96-5.75-6.68-6.58-1.09,2.25-.68,7.72-.93,12.27-.25,4.55-1.17,8.22-5.12,6.95-2.04-.66-1.62-2.72-2.91-3.84-.27,4.09-5.1,6.76-7.13,2.96-.92-1.71-.42-5.55.39-9.51.85-3.95,1.99-8.02,2.37-10.22-.99-.47-1.28.31-1.97.74-2.87,1.81-9.16,9.72-12.27,8.27-3.23-2.93-2.53-5.19-.7-7.22,1.83-2.04,4.89-3.86,6.38-6-3.76-.89-13.99,1.36-15.95-2.8-.71-1.48-.39-4.33.86-5.39h.03Z"/>
  <path class="cls-1" d="M487.99,1409.14c.88.83,1.47,1.65,1.79,2.35.32.69.37,1.27.19,1.68-.39.79-1.88.76-4.39-.86-3.46-2.24-7.33-5.05-10.75-7.44-.26,1.36.22,3.11.72,4.79.51,1.71,1.12,3.5,1.05,4.96-.07,1.42-.73,2.81-1.94,3.25-1.19.45-2.86.11-4.83-2.05-.69-.75-.85-2.08-1.02-3.48-.08-.7-.17-1.42-.31-2.08-.13-.64-.31-1.21-.61-1.66-1.46,1.9-3.22,5.13-7.53,2.4-2.54-1.64-1.61-4.37-.31-6.82.68-1.18,1.43-2.3,1.9-3.2.5-.86.69-1.51.22-1.84-.93-.11-2.18-.06-3.55.07-1.36.14-2.88.33-4.39.4-1.51.07-3.01.02-4.31-.3-1.31-.33-2.44-.98-3.21-2.15-1.18-1.79-.38-2.85.96-3.51.68-.33,1.49-.54,2.3-.69.82-.13,1.62-.18,2.25-.21-1.31-.72-3.55-1.36-5.44-2.24-1.89-.89-3.43-2.02-3.28-3.8.11-1.32.93-1.93,2.12-2.08,1.21-.14,2.82.21,4.51.72,3.39,1.05,7.12,2.85,8.93,3.13-1.19-2.64-2.34-5.37-3.44-8.16-1.07-2.74-2.08-5.53-3.05-8.41-.29-1.77.68-2.78,1.91-2.95,1.24-.16,2.78.57,3.81,2.24,1.29,3.34,2.6,6.55,4.05,9.75,1.47,3.23,2.95,6.31,4.56,9.39,1.45-.68,3.39-3.26,5.52-5.41.51-.57,1.08-1.04,1.62-1.5.55-.44,1.08-.84,1.61-1.15,1.06-.62,2.14-.82,3.04-.44,3.52,1.52,3.88,3.74,3.23,5.66-.58,1.99-2.19,3.73-2.9,4.64.59.18,1.29.23,2.03.26.74.02,1.55.09,2.34.19,1.59.21,3.14.69,4.33,2.09,1.1,1.3,1.33,2.14,1.06,2.68-.27.54-1.1.74-2.01.94-1.83.32-4.32.17-4.12.69.65.48,1.57.95,2.57,1.44,1.02.51,2.12,1.06,3.13,1.64,2.03,1.16,3.71,2.53,3.75,4.04.09,1.9-1.93,1.2-4.44,0-2.51-1.2-5.4-2.78-7.02-2.82,2.13,1.92,5.39,3.98,7.35,5.87h.01Z"/>
  <path class="cls-1" d="M375.43,1385.54c-.26-1.8-2-6.28-2.59-10.26-.56-3.95.11-7.31,4.32-6.44,2.27.48,3.35,3.31,4.09,6.41.37,1.56.62,3.17.92,4.64.3,1.47.6,2.77.97,3.66.53-.79.98-2.06,1.46-3.5.5-1.43,1.01-3.05,1.59-4.6.56-1.55,1.27-2.96,2.05-4.02.79-1.06,1.7-1.76,2.76-1.79,4.51-.12,4.52,4.19,3.21,8.83-.6,2.37-1.6,4.8-2.5,6.93-.9,2.14-1.8,3.88-2.36,4.74,1.96.46,7.2.95,11.54,2.21,4.35,1.26,7.86,3.23,6.56,6.32-1.33,3.39-8.24,1.93-11.37,1.38-.84,1.3-.25.91.27,1.49,1.61,1.81,5.45,3.5,4.08,6.58-2.05,4.88-8.77-.77-11.39-2.55-.3.12-.22,1.07-.05,2.4.18,1.34.43,3.04.53,4.72.09,1.68-.02,3.31-.66,4.48-.62,1.18-1.75,1.92-3.74,1.78-1.86-.12-2.75-1.51-3.32-3.21-.57-1.7-.78-3.66-1.4-4.95-.57,4-2.8,7.31-4.93,8.24-2.11.94-4.05-.46-3.69-6.03l-.85-.3c-2.06,1.12-4.13,2.21-5.71-.07-1.35-1.96-.28-4.17,1.45-6.18.86-1.01,1.87-1.99,2.79-2.88.93-.89,1.81-1.69,2.35-2.39-3.8-.76-9.02,1.38-11.31-2.92-.05-3.33,1.49-4.62,4.29-5.37,1.43-.39,3.23.15,4.26-.75-1.98-2.13-10.01-4.6-9.41-8.45,1.63-9.03,12.12.42,15.75,1.88h.01Z"/>
  <path class="cls-1" d="M425.69,1478.33c-2.98-2.2-5.94-4.43-8.91-6.7-.35-5.93,2.45-6.11,5.84-4.39,3.4,1.72,7.44,5.24,9.57,6.88.57-1.68.52-6.28,1.21-10.17.7-3.89,2.06-7.13,5.17-6.21,2.91.83,3.11,3.9,2.6,7.17-.22,1.68-.63,3.41-.95,4.95-.31,1.55-.53,2.93-.44,3.82.3.43,4.42-.81,8.95-1.83,4.55-1.01,9.47-1.8,11.39-1.02,1.07.43,1.88,1.59,1.96,2.51.08.96-.48,1.63-1.4,2.14-.91.53-2.2.89-3.58,1.19-2.76.61-5.93.98-7.27,1.97,4.61,1.44,10.16.6,14.17,3.45l-.51,3.74c-1.85,1.62-17.57-1.35-21.02-1.76,2.15,2.06,4.29,4.07,6.46,6.09,2.17,2.03,4.36,4.02,6.54,5.98-.57,5.76-4.58,4.29-8.52,1.36-3.96-2.94-7.79-7.33-8.21-6.98-.19.75-.16,1.92-.08,3.28.09,1.36.21,2.9.19,4.33-.03,2.87-.6,5.39-3.3,5.39s-3.82-1.86-4.21-4.18c-.39-2.33-.1-5.06-.39-6.86-1.71,2.51-3.45,5.03-5.12,7.63-3.24.48-4.77-.14-5.26-1.39-.5-1.25.06-3.13,1.03-5.03.48-.96,1.05-1.94,1.65-2.87.6-.92,1.22-1.79,1.76-2.56,1.08-1.53,1.88-2.64,1.72-2.84-1.66-.27-4.59.34-7.26.49-2.66.14-5.06-.18-5.64-2.41-1.47-5.97,8.08-4.49,11.85-5.16h.01Z"/>
  <path class="cls-1" d="M409.12,1179.58c2.09-1.96,4.72-5.89,7.7-9.4,2.96-3.45,6.25-6.34,9.41-6.29,4.88.16,3.44,3.46.47,7.28-1.49,1.9-3.36,3.91-5.05,5.69-1.7,1.82-3.21,3.43-4.01,4.42.5,1.57.44.87,1.81.41,1.39-.45,3.18-1.3,5.12-2.11,1.94-.82,4.05-1.73,6.06-2.43,1-.36,1.99-.67,2.92-.9.93-.21,1.79-.34,2.58-.37,1.57-.06,2.78.3,3.4,1.33.8,1.32.32,2.56-.92,3.73-.62.59-1.43,1.14-2.36,1.68-.94.57-2,1.11-3.13,1.64-2.26,1.05-4.76,1.99-7,2.82-2.24.88-4.23,1.63-5.42,2.18-.32.55,4.57,2.3,8.64,4.77,4.08,2.5,7.35,5.71,4.34,8.67-3.44,3.48-7.43,2.4-11.13.74-3.69-1.6-7.06-3.82-8.95-2.8-.47,4.44,3.99,11.39-2.65,15.62-5.23,3.3-7.52.92-8.78-2.95-1.26-3.87-1.33-9.05-2.34-10.93-.81-.07-5.31,4.85-10.4,9.62-2.53,2.47-5.22,4.91-7.77,6.69-2.53,1.8-4.9,3-6.84,2.83-2.87-.25-3.46-1.82-2.59-4.15.87-2.32,3.17-5.47,6.09-8.53,1.45-1.54,3.04-3.13,4.66-4.66,1.61-1.54,3.26-2.92,4.79-4.25,3.08-2.62,5.73-4.78,7-5.85l-3.03-.13-3.04-.04-6.14-.04c-2.06.02-4.13-.01-6.2.07l-6.26.25c-2.7-.25-4.05-2.78-1.75-5.58,1.31-1.57,3.59-2.75,6.27-3.44,2.68-.72,5.76-1.11,8.68-1.35.73-.05,1.45-.11,2.15-.14.7-.02,1.38-.05,2.05-.07,1.32-.04,2.54-.08,3.59-.12,2.1-.11,3.54-.3,3.8-.81-1.12-1.1-4.22-2.88-6.54-4.94-2.31-2.06-3.82-4.43-1.61-6.81,1.12-1.21,2.26-2.02,3.4-2.51,1.13-.46,2.27-.6,3.38-.51,2.23.2,4.38,1.37,6.36,2.9,3.96,3.08,7.24,7.6,9.2,8.74l.03.02Z"/>
  <path class="cls-1" d="M541.2,1306.7c1.24-1.74,2.11-4.8,2.97-7.81.87-2.98,1.73-5.93,2.87-7.43,2.26-3.02,6.39-2.21,6.09,1.93-.06.92-1.73,4.92-3.14,8.8-1.43,3.86-2.69,7.51-2.29,7.69,2-1.23,5.33-4.33,8.91-7.01,3.52-2.72,7.25-5.01,9.5-4.92,3.07.16,4.93,3.38,3.26,6.12-.81,1.3-2.1,2.61-3.7,3.86-1.6,1.25-3.51,2.44-5.42,3.62-1.92,1.17-3.94,2.23-5.72,3.26-1.79,1.01-3.43,1.92-4.69,2.69.11,1.42.4.9,1.09,1.12,2.02.65,6.47.52,10.22,1.28,3.71.72,6.64,2.27,5.42,5.98-.59,1.8-3.59,1.7-6.86,1.17-3.23-.49-6.7-1.38-8.13-1.21,2.66,2.21,5.28,4.45,7.87,6.68,2.58,2.23,5.2,4.53,7.73,6.79,2.43,4.24-.42,7.52-4.67,5.27-2.89-1.51-5.75-4.43-8.65-7.25-2.88-2.81-5.94-5.62-9.16-6.94.76,6.16,3.9,12.45,4.89,18.33.39,2.28.3,5.2-2.09,5.48-4.82.66-7.11-12.99-9.65-16.52-.25,2.06-.49,4.11-.7,6.15-.22,2.04-.38,4.11-.54,6.15-4.05,2.53-5.18.05-5.47-3.17-.27-3.22.47-7.17.02-7.43-2.28,1.62-3.53,6.1-5.88,7.28-1.87,1.01-3.91-.44-4.55-2.89-.34-1.32,1.17-4.86,3.16-8.45,1.9-3.63,4.31-7.27,4.9-8.95-.65-.77-4.9-.01-9.22,1.03-2.21.47-4.36,1.08-6.24,1.48-.93.21-1.8.36-2.51.46-.7.11-1.28.14-1.69.08-1.77-.25-2.69-1.73-2.66-3.36.02-.82.27-1.68.77-2.46.25-.39.56-.75.93-1.07.39-.31.83-.59,1.33-.8,1.31-.56,2.78-.97,4.33-1.3,1.57-.31,3.25-.51,4.92-.71.83-.09,1.67-.18,2.5-.28.85-.08,1.68-.15,2.5-.25,1.64-.17,3.19-.42,4.64-.75.21-.36-2.4-2.96-5.26-5.68-2.85-2.73-5.98-5.59-6.52-6.6-.43-.82-.78-1.67-.67-2.61,1.1-2.1,2.53-2.73,4.08-2.43,1.55.29,3.24,1.54,4.92,3.17,3.34,3.25,6.51,8,8.48,9.72.55.48.3,1.01,1.49.34-1.26-7.29-2.45-14.6-3.58-21.92-.23-1.32.42-2.53,1.43-3.34,1.01-.81,2.42-1.18,3.66-.89,1.82.43,2.73,4.24,3.35,8.34.61,4.1.93,8.5,1.45,10.17h.04Z"/>
  <path class="cls-1" d="M740.07,1134.33c.98.19,2.34.14,3.83.02,1.48-.13,3.12-.34,4.68-.42,3.12-.16,5.95.19,6.73,2.56,1.3,3.93-2.57,5.47-7.36,6.21-4.79.74-10.54.57-12.91,1.29-.07,1.21.67,1.06,1.4,1.46,1.89,1.06,9.11,4.12,9.84,5.41,1.14,2.02-.18,4.56-2.53,5.06-2.13.44-5.79-1.18-9.34-3.2-3.57-2.06-7.02-4.52-8.78-5.71.44,2.41,3,7.4,5.32,12.27,2.32,4.87,4.38,9.6,3.73,11.49-.91,2.66-3.95,3.64-6.25,1.88-2.52-1.92-4.39-9.65-6.01-12.82-.3-.58-.49-1.78-1.4-1.47-.31,3.49,1.1,14.69-1.02,17.11-2.4,2.74-6.47,1.36-7.06-1.86l.06-22.46c-.44-.28-3.93,2.72-7.72,5.87-3.77,3.16-7.78,6.53-9.1,7.07-2.91,1.19-5.79-.21-5.68-3.16.07-1.7,2-3.37,4.09-5.01,2.09-1.64,4.3-3.29,4.97-4.91-.92.59-2.42,1.1-4.1,1.42-1.68.31-3.54.43-5.13.27-3.19-.33-5.34-1.8-3.07-5.19.96-1.45,4.93-3.25,9.08-4.85,4.16-1.59,8.59-2.92,10.58-3.36-3.41-3.66-18.21-3.33-19.79-7.61-.3-5.43,3.34-5.56,7.75-4.36,4.41,1.21,9.69,3.81,12.61,3.86l-9.8-19.01c-.3-2.03.67-3.6,2.09-4.27,1.42-.68,3.26-.48,4.74,1.07,4.42,4.62,8.43,14.42,11.82,20.03,1.68-.05.96-.32,1.18-1.08,1.06-3.8,1.19-18.51,8.09-17.38,6.61,1.03,2.02,12.58,2.26,16.93.77.54,8.28-9.5,9.85-10.2,3.02-1.36,5.64,2.41,3.86,5.06-3.73,4.65-7.51,9.31-11.36,13.96l9.82-1.94h.02Z"/>
  <path class="cls-1" d="M783.48,1209.42c-3.34.31-6.97-1.47-6.06-4.85.37-1.35,1.74-2.35,3.69-3.13.97-.39,2.08-.72,3.28-1.01,1.19-.3,2.47-.56,3.78-.78,5.23-.91,10.95-1.31,13.45-2.08-.83-.84-2.6-1.78-4.82-2.79-2.22-1.03-4.87-2.13-7.43-3.24-2.57-1.11-5.04-2.23-6.93-3.29-1.88-1.07-3.19-2.12-3.4-3.02-.34-1.49.25-2.58,1.27-3.29,1.03-.72,2.49-1.07,3.93-1.06,1.35.01,6.11,1.8,10.62,3.46,4.49,1.61,8.76,3.09,9,2.65-2.64-4.58-10.15-10.39-12-14.95-1.24-3.04,1.13-5.93,4.69-5.4,1.61.24,4.72,3.78,7.76,7.63,3.04,3.85,5.97,7.96,7.14,9.48,1.74.62.46-14.33,5.69-16.07,5.45-1.93,6.22,2.18,5.79,6.93-.41,4.75-2.05,10.15-1.16,10.73,1.91-1.28,4.77-3.95,7.72-6.11,1.47-1.09,2.99-2.01,4.4-2.62s2.77-.85,3.96-.48c4.44,1.36,2.77,4.38-.25,7.55-1.5,1.61-3.37,3.19-4.95,4.62-1.58,1.44-2.88,2.72-3.28,3.66,2.17-.05,6.1-1.33,9.68-2.02,3.57-.68,6.85-.65,7.78,2.12,1.05,3.15-1.71,4.66-5.24,5.65-3.52,1-7.83,1.35-9.86,2.42,1.76,1.36,5.76,3.01,9.13,4.95,3.37,1.94,6.12,4.13,5.26,6.79-1.13,3.51-5.44,2.84-9.88,1.16-2.23-.84-4.48-1.94-6.44-2.91-1.96-.96-3.6-1.84-4.59-2.16-.81-.26-1.18-.9-2.27-.32.82,4.3,7.75,15.82,5.44,19.62-.98,1.59-4.01,2.29-5.75,1.89-3.14-.69-8.01-15.68-9.87-18.77-1.58,3.72-3.19,7.46-4.83,11.19-.78.97-1.76,2.67-2.83,4.27-1.07,1.57-2.25,3.01-3.42,3.49-3.11,1.27-5.8-.22-6.02-3.08-.19-2.35,1.95-6.45,4.17-10.65,2.23-4.18,4.55-8.56,4.88-11.31-1.68.27-3.43.7-5.23,1.18-1.8.47-3.63,1.01-5.47,1.54-3.66,1.05-7.3,2.11-10.57,2.4h0Z"/>
  <path class="cls-1" d="M588.99,1202.97c1.7,1.01,1.45,4.85,2.04,6.57,1.48,4.35,3.68,8.53,4.37,13.11,1.8-.05,1.05-.31,1.29-1.09.94-2.97,1.58-13.9,4.33-15.12,5.76-2.55,6.71,1.57,6.18,6.79-.53,5.23-2.5,11.54-2.67,13.42,6.44-3.08,12.91-6.12,19.39-9.12l4-.06c2.03,1.41,2.21,4.45.23,6.08-6.57,3.46-13.13,6.93-19.64,10.46-.13.95.43.95.91,1.39,2.31,2.13,9.59,6.25,12.73,8.15,3.07,1.88,9.1,2.87,7.37,7.48-1.17,3.14-5.88,1.74-10.79-.51-4.91-2.27-10.03-5.37-11.95-5.79-.14,2.09,2.36,7.49,3.42,12.02,1.07,4.54.73,8.19-4.96,6.84-3.87-.92-5.73-12.9-7.71-16.09-.52-.22-2.46,3.45-4.99,6.69-2.55,3.25-5.64,6.12-8.67,4.27-2.19-1.33-1.22-4.4.39-7.62,1.6-3.22,3.84-6.59,4.05-8.48-2.48-.25-7.54,1.88-11.93,3.14-4.4,1.22-8.16,1.55-8.23-2.59-.03-2.15,2.05-2.41,2.69-4-3.95,1.07-8.04-2.64-5.1-5.79,2.65-2.87,15.14-3.04,19.5-3.78.12-1.09-.71-1.1-1.35-1.61-1.33-1.04-4.35-2.43-7-3.98-2.65-1.53-4.94-3.21-4.76-4.93,1.72-4.01,4.04-4.09,6.54-3,2.51,1.09,5.19,3.33,7.69,4.06-.42-3.83-5.85-12.78-2.64-15.98,1.14-1.13,3.86-1.79,5.25-.97h0Z"/>
  <path class="cls-1" d="M775.13,1329.97c-.05,2.46-2,4.37-4.17,4.95-2.18.59-4.56-.21-5.53-3.05-1.34-3.92-2.2-8.63-3.16-12.69-4.98,2.11-8.34,7.12-13.45,9.55-4.92,2.35-12.36,2.61-10.03-3.45.8-2.08,7.65-4.86,8.91-7.11-4.6.61-11.4,1.98-11.86-3.16-.28-2.98,4.53-4.48,9.35-5.52,4.81-1.01,9.69-1.67,9.45-2.79-3.83-2.64-16.88-5.99-14.08-11.66,1.05-2.14,3.12-2.46,5.29-2.06,2.17.4,4.47,1.48,5.91,2.23-1.07-2.81-6.33-7.77-1.91-10.44,6.48-3.92,11.4,8.47,15.13,11.01,3.8-6.06,7.53-12.04,11.24-18.14,3.03-3.46,8.66-1.84,7.8,2.2-3.73,7.29-7.57,14.63-11.44,21.87,5.7.35,24.62-5.93,28.56-3.16,3.84,2.75,1.76,5.1-1.92,6.93-1.83.91-4.07,1.7-6.13,2.3-2.06.59-3.98,1.03-5.19,1.32,1.42.84,4.21,1.37,6.64,2.16,2.44.77,4.56,1.78,4.61,3.64.14,6.99-14.8,1.45-15.69,2.56,1.2,3.02,10.09,7.76,4.62,11.1-1.68,1.03-3.14,1.16-4.47.74-1.32-.42-2.49-1.38-3.61-2.51-2.24-2.27-4.25-5.24-6.68-6.06.13,2.89,1.89,6.45,1.83,9.23l-.02.02Z"/>
  <path class="cls-1" d="M699.17,1232.82c1.44-1.21,4.26-5.3,7.2-8.11,2.93-2.83,5.98-4.4,7.98-.54,2.15,4.14-6.46,10.43-8.72,13.75,4.15-.19,14.21-5.77,17.3-2.61,3.28,3.33-.39,6.18-5.48,8.19-2.55,1.01-5.45,1.83-8,2.4-2.55.56-4.75.89-5.91.96,1.57,3.74,11.67,17.94,3.46,19.71-4.43.95-7.41-5.53-8.79-8.42-1.82.04-1.06.3-1.31,1.06-.8,2.35-.14,6.49-4.17,7.1-6.31.97-4.38-7.81-4.17-10.97-1.15-.76-11.87,10.76-15.46,3.54-1.67-3.39,3.74-5.82,5.57-8.19-8.4,3.17-17.51-1.68-6.58-6.4l-.14-.88c-2.1-1.27-4.11-2.56-2.76-5.04,2.31-4.25,10.2-.4,13.96,0-1.38-3.63-5.95-7.02-3.32-11.2,2.89-1.78,4.8-1.1,6.97.86,1.11,1,1.62,2.81,2.98,3.17.77-2.81-1.48-10.92,2.05-12.47,8.29-3.71,6.54,10.24,7.34,14.08h0Z"/>
  <path class="cls-1" d="M627.75,1321.28l3.78-10.83c12.61-5.28,5.43,9.96,3.45,15.25,2.15-.15,7.29-2.03,12.15-3.05,2.4-.51,4.74-.81,6.53-.59,1.78.23,3.01.98,3.23,2.58.43,3.01-3.21,4.53-7.37,5.51-2.07.49-4.32.86-6.27,1.21-1.93.36-3.61.69-4.6,1.15-.37.45,2.79,3.76,6.01,7.48,3.25,3.72,6.58,7.86,6.5,9.96-.04,1.16-1.11,2.4-2.24,2.87-2.35.97-4.41-.86-6.36-3.15-1.94-2.29-3.77-5.04-5.49-5.88.24,4.83,3.59,9.62,1.89,14.46l-4.67,1.03c-2.72-1.06-5.48-16.85-6.37-20.2-2.89,5.55-5.76,11.08-8.45,16.64-3.27.75-4.79.08-5.33-1.39-.54-1.48-.07-3.74.78-6.11,1.74-4.74,5.06-9.94,4.53-10.21-.87.1-2.13.56-3.55,1.12-1.43.56-3,1.22-4.5,1.72-3.01.98-5.81,1.29-6.71-1.24-1.95-5.29,6.24-6.4,9.85-8.18l-9.69-2.16c-3.23-5.77.51-6.66,5.12-6.21,4.66.46,10.19,2.28,10.53,1.85-.66-3.31-6.94-10.1-2.71-12.76,5.72-3.56,7.74,5.88,9.96,9.14h0Z"/>
  <path class="cls-1" d="M806.53,1083.56c1.36-1.19,3.05-4.13,4.87-6.54.91-1.21,1.88-2.27,2.83-2.95.95-.69,1.93-.97,2.94-.56,3.11,1.27,2.41,4.07.62,6.95-.45.71-.95,1.44-1.5,2.13-.55.69-1.12,1.35-1.66,1.97-1.1,1.24-2.09,2.31-2.61,3.02.33,1.6.28.93,1.18.87,3.72-.16,11.45-3.88,13.35.5,1.22,2.82-1.1,4.36-4.13,5.32-1.5.48-3.22.78-4.75,1-1.53.24-2.88.4-3.69.59-.22.42,3.04,3.4,5.88,6.76,2.83,3.37,5.21,7.13,2.94,9.24-2.59,2.41-5.45.38-7.97-2.17-2.5-2.54-4.71-5.63-6.06-5.26-.59,3.95,2.04,11.87-3.07,13.58-2,.68-3.34.23-4.23-.89-.89-1.1-1.32-2.87-1.53-4.85-.41-3.93,0-8.73-.52-10.8-.5-.27-3.92,2.44-7.84,4.77-3.89,2.35-8.42,4.12-10.81,2.06-3.54-3.05-.35-6.54,4.12-9.5,4.42-3.03,10.12-5.56,11.89-6.69-5.12-3.2-10.22-6.47-15.2-9.72-1.58-1.39-2.08-4.19-.5-5.65,1.8-1.66,5.68,0,9.26,1.88,3.57,1.88,6.76,3.9,7.14,3.17-1.32-2.78-7.27-10.84-4.52-13.54,5.51-5.44,11.11,12.02,13.58,15.3h0Z"/>
  <path class="cls-1" d="M926.19,1218.49c1.46-2.09,2.32-5.42,3.1-8.67.78-3.24,1.47-6.4,2.61-8.23,2.26-3.61,7.07-3.96,7.37.28.07.93-1.29,5.45-2.62,9.78-1.32,4.36-2.62,8.36-2.11,8.46,2.41-1.75,6.3-5.96,10.23-9.75.98-.95,1.97-1.88,2.94-2.75.97-.88,1.9-1.73,2.81-2.47,1.81-1.48,3.46-2.55,4.81-2.88,3.64-.91,6.55,1.57,5.09,4.92-.69,1.59-2.06,3.36-3.81,5.21-1.76,1.83-3.89,3.8-6.16,5.58-2.27,1.8-4.65,3.55-6.85,5.17-1.1.8-2.16,1.57-3.14,2.27-.98.69-1.88,1.32-2.67,1.9.23,1.42.58.8,1.48.83.66.02,1.53-.04,2.52-.19,1-.15,2.12-.36,3.32-.59,2.4-.46,5.09-.98,7.54-1.25,4.91-.5,8.94-.18,7.87,4.1-.52,2.09-4.6,3.06-9,3.7-2.19.32-4.47.54-6.42.77-1.96.21-3.61.37-4.55.68l5.5,2.2,5.56,2.08c3.72,1.38,7.48,2.73,11.28,4.06,3.86,3.37.1,7.95-6.2,7.31-2.14-.24-4.25-.8-6.35-1.62-2.09-.83-4.17-1.83-6.26-2.83-4.18-2-8.38-3.99-12.82-4.45.94,6.22,5.25,11.94,6.47,17.84.47,2.28.13,5.4-3.55,6.46-7.57,2.17-9.5-11.84-12.9-14.92-1.07,4.51-2.2,8.91-3.36,13.38-6.66,3.67-7.96,1.21-7.75-2.21s1.86-7.77,1.24-7.96c-1.73,1.09-3.29,2.88-4.91,4.63-1.61,1.74-3.28,3.36-5.18,4.19-3.11,1.36-5.85.07-6.15-2.48-.16-1.38,3.01-5.33,6.43-9.39,3.42-4.12,7.06-8.41,8.05-10.25-.42-.36-2.07-.15-4.39.34-2.31.48-5.28,1.33-8.33,2.06-6.11,1.51-12.54,3.2-14.72,2.96-2.38-.21-3.23-1.73-2.78-3.45.23-.85.77-1.76,1.62-2.57.84-.81,1.98-1.54,3.39-2.06,3.65-1.35,8.06-2.11,12.52-2.81,4.46-.8,8.98-1.53,12.82-2.66.3-.4-2.98-2.69-6.44-5.14-3.47-2.46-7.09-5.08-7.66-6.06-.46-.81-.82-1.64-.62-2.63,2.94-4.58,6.98-3.15,10.98-.27,3.99,2.84,7.93,7.17,10.46,8.58.71.39.37,1,1.9.05-1.55-7.28-3.16-14.55-4.8-21.8-.33-1.32.38-2.61,1.5-3.63,1.13-1.01,2.7-1.68,4.15-1.64,2.12.07,3.54,3.72,4.56,7.76,1.03,4.04,1.68,8.47,2.4,10.06h0Z"/>
  <path class="cls-1" d="M1010.19,976.52c1.47-.97,2.95-3.6,4.69-5.69,1.68-2.15,3.6-3.81,5.91-2.87,1.92.78,2.61,2.05,2.55,3.59-.08,1.54-.89,3.37-2.06,5.15-2.27,3.64-5.8,7.2-6.69,9.16.86.82,1.22.27,1.96.06,1.9-.52,8.62-3.23,10.02-2.96,2.22.51,3.43,3.04,2.35,4.91-.97,1.69-4.4,3.11-8.13,4.03-1.86.47-3.77.85-5.45,1.14-1.7.28-3.18.47-4.15.61,2.06,1.32,7.35,3.05,12.42,4.77,5.06,1.73,9.89,3.46,10.9,5.14,1.45,2.38.17,5.04-2.58,5.38-3.02.37-9.89-3.64-13.24-4.77-.62-.21-1.62-.89-1.96-.13,2.37,2.54,11.44,9.24,11.83,12.28.43,3.44-3.28,5.05-5.95,3.17-5.32-5.24-10.69-10.4-16.11-15.5-.24.03-.37,1.06-.44,2.64-.08,1.58-.09,3.72-.18,5.9-.07,2.18-.14,4.48-.3,6.34-.16,1.85-.35,3.31-.59,3.88-1.04,2.55-3.92,3.1-5.85.9-2.2-2.52.34-9.08-1.12-12.09-.14.94-.77,2.1-1.6,3.25-.86,1.13-1.89,2.27-3.04,2.98-2.27,1.47-4.61,1.5-5.5-2.13-.2-.78.02-2,.46-3.43.42-1.47,1.07-3.15,1.8-4.8.74-1.65,1.49-3.36,2.22-4.77.73-1.41,1.36-2.61,1.8-3.31-2.32-.28-5.7,1.57-8.91,3.23-3.29,1.57-6.39,2.97-8.36,1.81-3.91-3.71-1.97-5.59,1.54-6.92,1.72-.71,3.81-1.3,5.72-1.9,1.92-.6,3.57-1.29,4.47-2.05-6.55-2.51-13.01-5.11-19.44-7.89-1.65-1.24-2.22-2.76-1.93-3.9.28-1.16,1.46-1.92,3.42-1.62,1.47.22,3.17.67,4.99,1.23,1.81.56,3.74,1.24,5.68,1.95,3.87,1.42,7.8,2.96,10.87,3.87.95-.97.34-.75-.1-1.36-1.11-1.55-4.39-4.78-6.81-7.95-1.22-1.59-2.21-3.17-2.61-4.53-.4-1.36-.24-2.56.95-3.34,2.26-1.51,4.96.16,7.51,2.59,2.55,2.43,4.91,5.63,6.64,6.96.4-.05-.16-2.8-.83-5.69-.69-2.92-1.47-5.94-1.29-6.63.62-2.68,5.08-1.96,6.1.78.76,2.62,1.45,5.22,2.13,7.86.34,1.32.69,2.66,1.01,3.98l.93,3.98c.73-1.21,1.49-2.39,2.19-3.63l2.14-3.69h.01Z"/>
  <path class="cls-1" d="M1094.88,992.62c-1.81,2.85-5.55,4.53-7.58,1.7-1.61-2.25.31-6.81,2.85-11.46,1.24-2.34,2.7-4.67,3.89-6.77,1.19-2.08,2.22-3.9,2.7-5.11-1.16.14-3.01.97-5.17,2.1-1.07.57-2.23,1.21-3.41,1.86-1.2.65-2.43,1.33-3.66,1.99-4.86,2.65-9.62,4.86-11.3,4.05-2.76-1.35-1.98-4.44-.24-6.64.82-1.03,5.15-3.56,9.14-6.1,4.04-2.5,7.75-5,7.54-5.45-2.61-.34-6.21.1-9.73.44-3.54.33-7.02.55-9.39-.1-1.58-.44-2.59-1.56-2.88-2.85-.28-1.29.13-2.76,1.39-3.99,1.14-1.1,5.82-1.39,10.7-1.48,4.86-.08,9.94.05,11.85.02.77-.49-2.02-2.73-4.82-5.46-2.8-2.75-5.59-5.97-4.77-8.57,1.68-5.45,5.43-3.66,9.03-.52,1.79,1.56,3.54,3.48,4.95,4.95,1.41,1.47,2.49,2.5,3,2.32.13-2.28-.35-6.16-.33-9.79-.04-3.66.43-7.07,2.41-8.57,3.69-2.78,5.19.34,5.96,4.65.37,2.14.58,4.59.83,6.72.24,2.12.48,3.93,1.01,4.81.63-.89,1.27-2.32,1.92-3.94.66-1.62,1.35-3.43,2.15-5.07,1.59-3.29,3.51-5.93,6.31-5.04,3.16,1,2.78,4.13,1.48,7.57-1.3,3.43-3.49,7.15-3.86,9.42,2.15-.62,5.85-2.88,9.39-4.48,3.55-1.59,6.98-2.51,8.6-.26,2.12,2.97-.87,6.11-4.9,8.73-2,1.31-4.24,2.5-6.18,3.51-1.96,1-3.63,1.83-4.48,2.44-.69.49-1.42.42-1.6,1.66,1.97.95,6.29,1.75,10.34,2.81,4.05,1.06,7.82,2.4,8.65,4.5.71,1.76-.6,4.67-1.97,5.85-2.49,2.16-17.38-2.92-20.96-3.28,2.01,3.53,4.01,7.1,5.98,10.72.56,2.46,2.94,7.34,2.26,9.87-.95,3.34-3.83,4.6-6.22,3-1.96-1.32-3.82-5.59-5.79-9.97-1.97-4.4-3.95-8.88-5.96-10.82-3.24,6-5.44,14.51-9.1,20.06h-.02Z"/>
  <path class="cls-1" d="M948.19,1104.1c1.83.37,3.2,3.92,4.4,5.29,3.04,3.47,6.65,6.44,9.14,10.34,1.55-.76.79-.69.68-1.5-.39-3.09-4.52-13.19-2.81-15.28,1.83-2.21,3.39-2.49,4.73-1.65,1.36.85,2.52,2.88,3.49,5.32,1.97,4.88,2.97,11.31,3.64,13.09,2.21-2.67,4.28-5.5,6.35-8.27l3.1-4.15.77-1.03.74-1.07,1.47-2.13,3.31-1.95c2.41.25,4.14,2.75,3.27,5.12-3.78,6.26-7.95,12.29-12.21,18.4.29.91.81.66,1.44.86,1.51.45,4.36.71,7.33.89,2.97.18,6.06.24,7.95.31,1.87.09,4.27-.48,6.3-.45,2.03.04,3.71.68,4.04,3.16.22,1.7-.94,2.88-2.84,3.73-1.94.79-4.65,1.21-7.46,1.43-2.82.22-5.77.26-8.23.28-2.5-.02-4.54-.03-5.52.22.75,1.96,5.39,5.73,8.35,9.33,2.97,3.6,4.16,7.11-2.09,8.62-4.24,1.01-10.71-9.23-13.86-11.35-.59.01-1.03,4.17-2.34,8.26-.65,2.05-1.5,4.07-2.66,5.52-1.16,1.44-2.65,2.24-4.48,1.96-2.65-.43-2.66-3.72-2.18-7.34.51-3.58,1.39-7.64.91-9.47-2.41.77-6.5,4.54-10.35,7.23-3.82,2.74-7.49,4.09-8.75.17-.67-2.04,1.26-2.9,1.38-4.59-3.49,2.19-8.41-.22-6.58-4.04.4-.84,1.42-1.73,2.79-2.59,1.35-.9,3.01-1.82,4.77-2.69,3.49-1.74,7.31-3.29,9.12-4.48-.3-1.06-1.06-.77-1.81-1.01-1.56-.48-4.82-.79-7.74-1.41-2.93-.6-5.52-1.51-5.94-3.18.14-4.24,2.09-5,4.69-4.75,1.3.13,2.73.47,4.15.77,1.42.3,2.84.54,4.07.44-.93-1.69-3.43-4.13-5.49-6.67-2.06-2.53-3.7-5.15-3-7.13.49-1.41,2.48-2.85,3.97-2.56h-.01Z"/>
  <path class="cls-1" d="M1180.26,1079.36c1.75,1.77,1.69,4.89.38,7.31-1.3,2.41-3.72,4.09-6.52,2.96-3.87-1.55-7.92-4.1-11.57-6.11-2.38,6.01-1.5,12.59-4.06,19.06-1.18,3.1-3.37,6.37-5.49,8.04-2.12,1.67-4.18,1.71-5.26-1.57-.37-1.13.4-3.73,1.21-6.39.81-2.65,1.54-5.4,1.27-6.78-.83,1.14-1.73,2.44-2.69,3.69-.98,1.25-2.02,2.44-3.06,3.39-2.1,1.89-4.25,2.79-6.2,1.1-1.13-.99-.97-2.81-.1-4.99.86-2.18,2.42-4.74,3.97-7.25,1.56-2.5,3.25-4.92,4.33-6.81,1.1-1.88,1.69-3.22,1.2-3.51-1.22.36-2.91,1.21-4.8,2.17-1.89.96-4.02,2.01-6.02,2.8-4.01,1.59-7.58,2.14-8.48-1.12-1.35-4.88,5.63-8.03,8.88-9.5-2.84-1.04-10.38-.12-8.92-5.76.53-2.06,1.71-3.32,3.26-4.09,1.54-.77,3.43-1.04,5.42-1.1,3.98-.13,8.32.58,10.65-.15-.8-3.75-1.66-7.46-2.53-11.13-.86-3.67-1.85-7.33-2.81-10.93-.22-2.45.92-4.6,2.43-5.73,1.51-1.13,3.41-1.23,4.64.48,1.48,4.02,2.94,8.1,4.28,12.21,1.36,4.12,2.72,8.28,3.94,12.49.56-.61,1.19-1.47,1.88-2.5.67-1.04,1.39-2.26,2.16-3.6.77-1.33,1.57-2.78,2.4-4.27.8-1.49,1.62-3.02,2.44-4.54.82-1.51,1.65-2.99,2.46-4.38.78-1.39,1.56-2.69,2.31-3.82,1.5-2.27,2.93-3.88,4.13-4.29,4.67-1.61,5.17,1.76,3.99,6.22-.57,2.23-1.51,4.72-2.51,6.98-1.01,2.26-2.03,4.27-2.67,5.55,1.64-.72,4.01-2.86,6.32-4.54,2.28-1.68,4.52-2.9,5.97-1.72,1.35,1.1,1.45,2.55.84,4.15-.6,1.59-1.97,3.31-3.47,4.92-2.98,3.24-6.7,6.05-6.64,6.84,1.57.48,4.86-.48,7.58-.68,2.68-.21,4.86.36,4.08,4.01-.97,4.47-3.96,5.72-7.29,6.22-3.37.51-7.05.28-9.48,1.93,2.21,1.89,6.14,2.76,8.12,4.74h.02Z"/>
  <path class="cls-1" d="M1053.57,1071.46c.3-1.92-.21-6.88.02-11.01.13-2.06.49-3.89,1.33-5.03.82-1.15,2.13-1.62,4.19-.93,2.21.74,2.85,3.78,2.94,7.15.07,3.36-.39,7.08-.12,9.14,1.49-1.57,3.28-5.16,5.13-8.38,1.84-3.24,3.88-6.04,6.08-6.08,4.74-.06,4.09,4.74,1.58,10-1.21,2.64-2.93,5.35-4.52,7.65-1.57,2.31-3.11,4.13-3.98,5.01,1.85.84,7.14,2.12,11.31,4.02,4.15,1.9,7.25,4.56,4.44,8.34-1.5,2.03-3.92,2.38-6.33,2.05-2.43-.34-4.84-1.35-6.34-1.96-1.47,1.34-.67,1-.4,1.77.84,2.4,4.05,5.14,1.04,8.56-4.83,5.27-8.6-3.04-10.41-5.63-.72.1-1.53,4.26-3.14,8.06-.4.95-.85,1.87-1.36,2.7-.52.81-1.12,1.51-1.77,2.05-1.3,1.07-2.85,1.46-4.69.6-1.73-.81-1.78-2.61-1.39-4.58.39-1.97,1.24-4.09,1.25-5.68-.61,1.04-1.37,1.94-2.15,2.74-.78.8-1.61,1.5-2.43,2.08-1.64,1.15-3.26,1.82-4.51,1.88-2.49.13-3.48-2.13-.3-7.52l-.65-.62c-2.51.32-4.95.53-5.32-2.31-.31-2.43,1.73-4.09,4.28-5.42,2.47-1.4,5.48-2.49,7.12-3.56-3.4-1.92-9.11-1.64-9.65-6.6,1.16-3.23,3.08-3.89,6.05-3.78,1.53.06,3.07,1.1,4.37.48-1.22-2.67-8.16-7.4-6.52-10.86.98-2.03,2.16-2.85,3.47-2.89,1.32-.04,2.76.71,4.19,1.79,2.85,2.15,5.61,5.65,7.19,6.82h.01Z"/>
  <path class="cls-1" d="M1035.22,1193.48c-.07-4.14-.18-8.25-.34-12.33.72-.8,1.4-1.47,2.03-2.04.62-.57,1.19-1.06,1.72-1.43,1.06-.74,1.96-1.08,2.72-1.09,1.52-.03,2.5,1.22,3.12,3.09.62,1.87.87,4.36.97,6.77.05,1.21.05,2.4.05,3.48-.01,1.07-.02,2.02-.03,2.79,1.21-.75,3.05-2.52,5.22-4.6,2.17-2.09,4.64-4.5,7.08-6.66,1.23-1.06,2.41-2.14,3.56-3.05,1.15-.92,2.25-1.69,3.26-2.25,2.04-1.12,3.75-1.38,4.81-.15,1.99,2.29-1.19,6.34-5.36,10.38-4.24,3.89-9.45,7.72-11.34,9.97-.24.68,4.88,1.41,10.37,2.36,5.47.97,11.34,2.12,12.25,4.04.5,1.07-.2,2.99-1.33,4.28-2.35,2.68-5.73,2.64-9.08,2.04-1.68-.3-3.36-.74-4.92-1.04-1.56-.31-3.02-.52-4.24-.29,2.31,4.28,8.53,6.19,8.42,11.9l-5.52,4.44c-3.89,1.06-13.55-11.74-15.97-14.26-.66,3.64-1.42,7.13-2.18,10.72-.77,3.57-1.58,7.16-2.43,10.76-1.01.75-1.9,1.33-2.7,1.77-.81.42-1.51.69-2.13.85-1.23.31-2.1.13-2.7-.41-1.19-1.07-1.27-3.56-.94-6.38.35-2.79,1.09-6.06,1.64-8.52.56-2.48.94-4.23.56-4.18-2.11,1.31-5.61,5.09-9.19,7.84-3.56,2.79-7.1,4.8-9.04,2.88-2.02-2-.51-4.48,1.97-6.94,1.24-1.23,2.72-2.45,4.13-3.61.71-.58,1.39-1.15,2.03-1.68.62-.55,1.19-1.09,1.66-1.58-2.11.7-4.25,1.27-6.38,1.89l-6.37,1.79c-5.79-3.73-1.51-6.69,4.27-8.89.72-.28,1.47-.54,2.23-.8.75-.28,1.5-.54,2.25-.79,1.5-.51,2.96-.97,4.24-1.37,2.58-.81,4.47-1.41,4.57-1.71-1.03-1.34-4.04-2.62-6.28-4.24-2.25-1.61-3.74-3.52-1.82-6.01,1.29-1.67,2.62-2.46,3.99-2.66,1.35-.21,2.7.1,4.04.7,2.65,1.19,5.18,3.43,7.13,4.21h-.01Z"/>
  <path class="cls-1" d="M1007.75,900.02c-.31-3.53-5.59-12.1-1.89-14.41,2.88-1.79,4.72.44,5.96,3.59,1.25,3.16,1.87,7.16,2.41,8.82,1.48.68.92.31,1.4-.43.49-.76.97-1.86,1.48-3.05.5-1.22,1.03-2.54,1.66-3.74,1.25-2.37,2.8-4.28,5.13-3.77,6.02,1.36-.51,11.31-1.82,14.27.21.43,4.53-.44,8.91-.74,4.37-.3,8.81,0,9.2,3.06.43,3.48-2.87,4.6-6.43,5.08-3.55.49-7.31.42-7.78,1.7,2.88,2.76,10.81,5.32,9.23,10.28-1.26,3.9-4.56,3.04-7.99,1.07-3.43-1.97-7.07-5.06-9.03-5.86-.27.11-.34,1.21-.37,2.81-.04,1.59-.04,3.73-.25,5.82-.21,2.11-.54,4.28-1.25,5.93-.71,1.65-1.74,2.86-3.25,3.12-4.47.74-5.46-3.57-5.35-8.47.03-2.5.39-5.11.68-7.42.3-2.31.63-4.21.68-5.2-2.77.99-5.53,1.94-8.27,2.88-2.75.93-5.52,1.78-8.25,2.63-2.01.32-4.57-.94-4.85-2.9-.16-1.12.65-2.12,1.94-3.04,1.28-.94,3.04-1.8,4.81-2.56,3.54-1.51,7.05-2.82,6.67-3.51-3.03-.6-12.97-.78-13.58-4.39-.32-1.83.54-2.81,2.05-3.3,1.5-.49,3.68-.46,6.03-.2,4.69.52,10.08,1.95,12.13,1.95v-.02Z"/>
  <path class="cls-1" d="M1187.38,884.6c-.79-2.31-2.91-4.92-5.01-7.43-2.12-2.5-4.21-4.92-4.92-6.84-1.41-3.83,1.25-7.54,4.76-5.2.77.52,3.49,4.22,6.06,7.75,2.58,3.53,5.05,6.88,5.42,6.56-.01-2.82-.84-8.07-1.44-13.15-.57-5.09-.91-10,.28-12.29,1.57-3.08,5.3-3.54,6.98-.52,1.61,2.87,2.09,8.01,2.17,13.35.08,5.33-.29,10.87-.33,14.5,1.27.67.98.05,1.54-.58,3.32-3.73,9.24-20.06,14.55-13.6,1.3,1.56-.39,4.95-2.55,8.36-2.17,3.42-4.85,6.86-5.49,8.56l10.05-5.28,10.02-5.32c4.98-.63,6.34,4.54,2.03,8.45-5.89,5.33-16.23,6.9-22.28,12.78,5.54,2.94,12.66,3.13,18.11,5.66,2.11.98,4.42,3.03,3.13,6.31-2.7,6.76-15.12.14-19.6.85,2.97,3.39,5.92,6.81,8.83,10.26-.9,7.14-3.67,6.72-6.3,4.59-2.64-2.13-5.2-5.9-5.71-5.55-.24,3.88,2.08,8.95,1.26,12.86-.72,3.22-3.37,4.6-5.61,3.36-1.21-.67-2.53-5.47-3.87-10.48-1.3-5.03-2.62-10.29-3.54-12.13-1.06.23-3.2,5.53-5.51,11.2-2.31,5.67-4.78,11.69-6.21,13.32-3.11,3.57-6.92-.84-5.23-6.49,2.17-7.33,7.78-15.68,10.43-22.91-.14-.47-3.91.71-7.92,1.94-4.01,1.23-8.25,2.52-9.39,2.38-.93-.11-1.81-.33-2.49-1.06-1.97-4.97,1.57-7.29,6.23-8.68,4.66-1.39,10.49-1.83,13.12-2.9.74-.3,1.02.31,1.16-1.39l-20.32-9.24c-2.47-1.06-2.59-5.27-.77-7.41,2.7-3.13,14.96,4.56,18.36,5.39h-.01Z"/>
  <path class="cls-1" d="M1111.67,619.7c1.4-1.85,2.67-5.76,4.28-9.11,1.61-3.35,3.49-6.11,5.94-5.61,4.07.82,3.21,5.61,1.24,10.89-.97,2.64-2.26,5.42-3.34,7.88s-2,4.62-2.3,6.02c1.01.67,1.27-.18,2-.72.95-.71,3.02-2.52,5.04-4.15,2.02-1.64,4.01-3.08,4.76-3.12,2.34-.1,3.87,2.5,3.09,5.09-.69,2.34-3.97,5.19-7.53,7.78-3.55,2.59-7.44,4.95-9.33,6.18,2.35.68,8.02.42,13.46.41,5.43-.01,10.61.22,11.98,1.74,1.92,2.13,1.35,5.51-1.28,6.95-2.88,1.57-10.67-.1-14.26.08-.66.03-1.82-.32-1.97.73,2.98,1.89,13.67,5.53,14.91,8.65,1.39,3.53-1.64,6.87-4.81,6.07-6.76-3.26-13.51-6.55-20.23-9.87-.46.33.65,5.2,1.87,10.35,1.25,5.14,2.6,10.54,2.56,12.04-.11,3.38-2.56,5.67-5.23,4.37-3.08-1.5-2.91-10.45-5.27-13.2.53,4.72-4.02,18.36-8.38,11.04-.92-1.57-.98-6.32-.62-11.28.18-2.48.44-5,.74-7.19.3-2.19.62-4.04.87-5.17-2.42.95-5.22,5.33-7.92,9.43-2.73,4.12-5.35,7.95-7.62,7.89-5.08-1.94-3.72-5.78-.65-9.93,3.02-4.14,7.74-8.54,9.14-11.57-7.2.63-14.41,1.31-21.64,2.03-3.95-1.12-3.87-7.04.28-8.86,6.27-2.76,16.92-2.53,23.55-3.5.76-1.8.19-1.17-.39-1.75-2.87-2.87-15.87-10.06-11.3-17.16,2.18-3.38,5.22-2.35,8.16-.24,2.95,2.11,5.89,5.26,7.87,6.18.42-.26-.62-3.63-1.65-7.26-1.05-3.61-2.17-7.46-2.04-8.5.48-4,5.2-4.84,6.47-1.51.99,3.23,1.98,6.44,3.03,9.62,1.04,3.19,2.06,6.36,3.14,9.5,1.09-3.74,2.26-7.49,3.4-11.24h0Z"/>
  <path class="cls-1" d="M1199.12,618.18c-1.51,2.92-4.92,5.07-7.31,2.52-.97-1.02-1.09-2.73-.69-4.79.39-2.07,1.25-4.51,2.35-6.95,2.14-4.91,5.08-9.84,5.94-12.33-2.3.36-7.27,3.63-12,6.78-2.37,1.57-4.72,3.09-6.66,4.15-1.95,1.06-3.53,1.65-4.4,1.34-2.87-1.03-2.38-4.51-.69-7.05.8-1.2,5-4.4,9.02-7.31,3.97-2.93,7.78-5.57,7.56-6.04-2.62-.3-6.26.29-9.84.84-3.57.55-7.08,1.08-9.5.56-3.22-.68-4.13-4.59-1.44-7.47,1.21-1.31,5.97-1.91,10.92-2.13,4.97-.22,10.08-.08,12.01-.09.8-.51-1.93-2.86-4.58-5.8-1.32-1.47-2.62-3.1-3.48-4.71-.42-.81-.73-1.61-.86-2.39-.12-.78-.07-1.52.21-2.22,2.34-5.87,5.91-3.68,9.19-.18,3.28,3.51,6.29,8.29,7.34,7.96.3-2.32.19-6.31.56-10.1.16-1.9.51-3.71,1.08-5.22.56-1.51,1.34-2.72,2.44-3.37,4.1-2.42,5.09.99,5.3,5.41.18,4.4-.25,9.89.66,11.73,2.67-3.37,6.5-15.21,11.76-12.67,2.99,1.44,2.24,4.4.59,7.54-.81,1.58-1.9,3.18-2.76,4.7-.87,1.52-1.61,2.9-1.86,3.99,2.17-.4,5.93-2.24,9.6-3.29,3.66-1.06,7.1-1.41,8.49.9.92,1.52.58,2.88-.51,4.11-1.07,1.24-2.85,2.35-4.89,3.36-4.05,2.01-9.1,3.58-10.79,4.65-.69.43-1.41.31-1.62,1.49,1.93,1.02,6.2,2.04,10.17,3.33,3.98,1.29,7.67,2.82,8.5,4.77.69,1.63-.51,4.12-1.84,5.09-2.38,1.74-17.25-3.53-20.8-3.93,2.09,3.42,4.19,6.8,6.31,10.14.71,2.29,3.43,6.75,2.96,9.01-.59,3.04-3.26,4.28-5.79,2.91-2.05-1.12-4.38-5-6.61-9.09-2.23-4.09-4.47-8.43-6.48-10.3-3.03,5.96-4.68,14.36-7.57,20.13h0Z"/>
  <path class="cls-1" d="M1114.99,793.7c1.56-1.15,5.04.48,6.85.59,4.59.26,9.27-.21,13.79.83.6-1.67.09-1.07-.54-1.58-2.43-1.96-12.36-6.49-12.52-9.41-.67-12.32,16.73,2.36,20.12,4.03l-1.69-21.24,1.35-3.76c2.03-1.4,4.94-.51,5.77,1.9l2.87,22.03c.83.46,1.04-.06,1.62-.35,2.82-1.38,9.25-6.78,12.15-9.06,2.83-2.23,5.88-7.57,9.59-4.34,5.06,4.4-11.84,15.93-14,19.25,3.79,1.79,23.75-1.57,16.99,8.39-2.31,3.4-14.12.67-17.81,1.35-.8.8,10.66,12.83,4.85,17.17-4.18,3.1-9.76-8.63-13.11-10.46-2.38,4.42.12,22.18-7.51,18.87-1.97-.85-1.35-2.86-2.54-4.09-.65,4.05-5.71,6.19-7.36,2.26-1.47-3.52,3.24-14.89,4.21-19.17-.97-.52-1.29.23-2,.62-2.96,1.63-9.74,8.82-12.75,7.13-6-6.15,3.22-8.35,6.42-12.35-3.71-1.04-14.01.45-15.79-3.6-.63-1.44-.24-4.07,1.03-5.01h0Z"/>
  <path class="cls-1" d="M1300.55,681.61c2.18,1.09,3.12,3.17,2.76,4.83-.34,1.68-1.97,2.97-4.92,2.46-4.07-.71-8.66-2.07-12.7-3.1-.04,2.2.75,4.4,1.57,6.65.83,2.24,1.68,4.48,1.83,6.84.27,4.47-2.27,10.08-6.94,6.01-1.62-1.42-1.53-7.57-3.11-9.41-.6,1.83-1.25,4.13-2.34,5.79-1.09,1.67-2.64,2.67-5.08,1.86-2.85-.95-2.38-5.23-1.45-9.26.91-4.07,2.32-7.86,1.2-8.16-1.97.84-5.01,3.36-8.04,5.19-3.03,1.83-6.09,2.91-8.13.68-1.53-1.68-1.01-3.44.21-4.95,1.23-1.51,3.15-2.79,4.4-3.57-2.96-.39-9.6,1.6-10.2-2.93-.86-6.67,12.3-5.07,16.14-6.63-1.89-2.69-3.79-5.39-5.68-8.11-1.86-2.7-3.72-5.43-5.58-8.18-1.69-3.81,2.3-7.1,5.43-4.56,4.69,6.08,9.47,12.1,14.29,18.02,1.33-1.93,2.66-6.85,4.25-11.36.77-2.27,1.65-4.42,2.56-6.08.91-1.67,1.89-2.85,2.96-3.13,8.24-2.15,4.37,9.75,3.32,13.5,1.36-.54,3.01-2.13,4.77-3.31,1.76-1.18,3.58-2.01,5.22-1.16,3.07,1.57,1.76,3.98-.18,6.27-1.96,2.26-4.62,4.32-4.32,4.88,3.19.5,11.13-2.93,11.77,1.97.86,6.05-9.61,3.61-13.05,6.22,2.64,1.16,6.53,1.51,8.99,2.74h.02Z"/>
  <path class="cls-1" d="M1182.11,702.4c-.57-1.77-3.23-5.9-4.68-9.69-1.44-3.79-1.62-7.2,2.71-7.44,4.65-.24,6.93,9.99,9.17,13.29,1.37-3.79.34-14.96,4.48-16.39,4.37-1.5,5.44,2.88,5.28,8.14-.17,5.26-1.56,11.46-2.31,13.56,4.05-.01,20.96-3.25,19.5,4.5-.77,4.18-7.87,4.34-11.07,4.49-.63,1.62-.1,1.04.51,1.56,1.88,1.59,5.96,2.54,5.07,6.31-1.39,5.9-8.86,1.02-11.72-.33-1.15.76,5.78,14.5-2.21,15.18-3.76.33-4.12-5.45-5.68-7.97-.03,8.73-7.75,15.41-8.31,3.71l-.88-.19c-1.92,1.47-3.86,2.86-5.7.74-3.14-3.64,3.27-9.55,5.02-12.81-3.88-.08-8.69,2.9-11.63-1.06-.6-3.32.75-4.84,3.38-6.11,1.35-.65,3.2-.44,4.06-1.54-2.33-1.77-10.68-2.74-10.78-6.61-.23-9.11,11.97-2.07,15.82-1.35h0Z"/>
  <path class="cls-1" d="M1239.39,800.1l-8.74-7.68c-.43-14.17,11.27-1.79,15.5,2.06.31-1.07.49-3.06.69-5.39.2-2.33.41-5.01.77-7.51.74-4.98,2.11-9.25,5.27-8.56,2.98.64,3.15,4.57,2.61,8.89-.54,4.34-1.79,9.11-1.65,11.39.57,1.03,16.91-7.65,20.79-6.05,1.07.44,1.85,1.92,1.89,3.18.18,5.21-9.87,5.65-12.7,8.47,4.6,1.51,10.3-.14,14.19,3.34l-.78,5.15c-2,2.4-17.74-.62-21.21-.95,4.07,5.04,8.13,10.09,12.18,15.19-2.38,15.16-15.5-7.78-16.42-6.85-.49,1.9-.25,6-.56,9.61-.33,3.63-1.19,6.78-3.89,6.73-5.65-.1-3.29-9.32-3.56-13.73l-5.87,9.35c-6.62,1.07-5.92-3.22-3.66-7.86,2.26-4.65,6.08-9.65,5.79-10.14-3.32-.57-12.01,3.24-12.89-2.03-1.16-7.07,8.38-5.61,12.24-6.62h0Z"/>
  <path class="cls-1" d="M1116.91,514.59c.37-2.45-.11-6.67-.09-10.71.04-4.01.66-7.79,3.04-9.32,3.69-2.36,4.77.86,4.95,5.17.1,2.16-.05,4.6-.19,6.78-.11,2.2-.25,4.13-.23,5.27,1.35.93.86.44,1.61-.58.75-1.02,1.56-2.52,2.52-4.11.94-1.59,1.94-3.32,3-4.87,2.11-3.1,4.39-5.47,6.61-4.59,2.87,1.13,1.78,4.78-.29,8.64-1.03,1.94-2.34,3.91-3.49,5.68-1.14,1.78-2.16,3.32-2.72,4.32.1.58,4.86-.52,9.48-.71,4.63-.18,9.11.53,8.67,4.35-.45,4.39-4.16,5.61-7.98,6.19-3.82.58-7.77.5-8.59,2.18,2.34,3.59,10.05,6.8,7.36,13.15-2.1,5-5.39,4.14-8.61,1.78-3.23-2.36-6.38-6.27-8.28-7.24-.31.18-.64,1.67-1.03,3.85-.37,2.2-.8,5.08-1.4,8.01-.59,2.93-1.39,5.89-2.37,8.3-.98,2.4-2.25,4.23-3.9,4.86-4.89,1.88-5.36-3.91-4.37-10.97,1.09-7.02,3.54-15.31,4.22-18.05-1.61.83-3.23,1.65-4.82,2.5l-4.75,2.58c-3.17,1.74-6.36,3.5-9.55,5.3-2.27.87-4.79-.49-4.6-3.45.22-3.38,4.55-6.85,8.76-9.64,4.28-2.76,8.41-4.86,8.21-5.86-3.05-.68-13.79.22-13.32-5.17.5-5.49,4.93-6.43,9.82-5.92,4.88.49,10.15,2.34,12.34,2.28h0Z"/>
  <path class="cls-1" d="M1298.37,534.26c-.16-2.18-1.51-5.13-2.77-7.99-1.27-2.86-2.53-5.67-2.63-7.57-.21-3.79,3.37-5.97,5.88-2.63.56.74,1.96,4.9,3.37,8.79,1.41,3.9,2.82,7.53,3.23,7.4.74-2.29,1.34-6.91,2.25-11.35.97-4.39,2.21-8.62,3.98-10.04,2.42-1.9,5.95-.69,6.47,2.46.51,3-.53,7.4-2,11.72-.75,2.15-1.5,4.35-2.24,6.33-.73,1.99-1.41,3.79-1.88,5.23,1.01,1.01.9.41,1.57.11,1.99-.87,5.38-4.01,8.69-5.97,3.36-1.94,6.57-2.73,8.1.89.75,1.76-1.72,3.67-4.5,5.52-2.81,1.83-6.09,3.53-7.1,4.63,3.5-.12,6.99-.22,10.46-.28,3.48-.07,6.88-.12,10.37-.1,2.33.78,3.48,2.28,3.43,3.73-.04,1.45-1.19,2.87-3.58,3.48-3.26.84-7.35.58-11.48.42-4.09-.14-8.24-.18-11.66,1.06,4.53,4.24,11.06,6.92,15.59,10.79,1.77,1.51,3.49,3.83,1.79,5.81-3.51,4.07-13.96-5.08-18.24-6.03,2.19,3.61,4.36,7.17,6.63,10.71-1.75,5.09-4.27,3.92-6.46,1.5-2.2-2.42-4.07-6.14-4.59-6.02-.78,2.96.75,7.53-.46,10.27-.97,2.26-3.6,2.59-5.59,1.03-.53-.42-1-1.65-1.42-3.32-.21-.84-.4-1.78-.59-2.79-.18-1-.31-2.07-.46-3.15-.56-4.33-.97-8.94-1.53-10.71-1.03-.14-3.88,3.48-6.89,7.39-2.94,3.94-5.94,8.19-7.48,9.15-3.29,2.15-6.58-2.34-4.25-6.6,1.5-2.75,3.8-5.52,6.36-8.14,1.27-1.32,2.54-2.63,3.73-3.93.6-.65,1.18-1.3,1.71-1.94.54-.64,1.09-1.27,1.57-1.9-.04-.42-3.83-.66-7.81-.82-3.99-.16-8.25-.28-9.31-.71-.85-.35-1.66-.78-2.17-1.61-.46-2.41.26-3.88,1.67-4.71,1.44-.82,3.58-.99,5.93-.86,4.69.26,10.24,1.76,12.9,1.74.74,0,.89.59,1.38-.77-5.68-4.8-11.28-9.62-16.87-14.48-2.06-1.72-1.07-5.44,1.22-6.66,1.67-.89,4.84,1.39,7.98,4.11,3.13,2.72,6.24,5.88,7.72,6.82h0Z"/>
  <path class="cls-1" d="M1361.8,272.09c1.09-.36,2.43-1.16,3.91-2.08,1.48-.91,3.1-1.96,4.68-2.86,3.16-1.79,6.22-2.96,7.95-1.16,2.87,2.99-.45,6.4-5.02,9.55-2.29,1.56-4.86,3.12-7.14,4.51-2.27,1.39-4.24,2.62-5.29,3.59.45,1.13,1.13.59,2.05.57,2.37-.08,10.86-1.13,12.1-.33,1.97,1.25,1.77,4.26-.33,5.94-1.89,1.52-6.18,1.96-10.59,2.03-4.38.11-8.89-.18-11.18-.25,1.54,1.9,6.35,4.93,10.81,8.03,4.46,3.09,8.57,6.24,8.83,8.27.37,2.85-2.03,5.31-5.02,4.97-3.28-.37-8.72-6.2-11.77-8.09-.56-.35-1.31-1.3-2.03-.51,1.36,3.27,8.05,12.36,7.28,15.64-.88,3.71-5.32,4.73-7.48,2.26-3.67-6.53-7.32-13.08-10.95-19.66-.56.01-2.51,4.66-4.46,9.67-1.97,4.99-3.99,10.24-4.9,11.51-2.05,2.79-5.42,3.33-6.87.76-1.69-2.98,3.66-10.47,3.32-14.07-1.15,2.11-4.67,5.42-7.81,7.13-3.15,1.7-5.95,1.81-5.6-2.52.15-1.84,2.9-5.92,6.09-9.89,3.21-3.94,6.82-7.84,8.55-9.44-2.55-.57-7.39,1.52-12.06,3.44-2.35.94-4.62,1.89-6.55,2.42-1.93.53-3.51.65-4.44,0-1.55-2.24-1.47-3.99-.37-5.41,1.09-1.42,3.19-2.51,5.69-3.38,4.99-1.75,11.4-2.83,14.36-4.53-6.33-3.59-12.67-7.06-19.06-10.53-2.62-3.17.91-8.14,5.44-7.27,6.77,1.27,15.42,7.51,21.42,10.47,1.66-1.07.82-.87.68-1.68-.7-3.99-7.19-17.32.56-20.54,3.73-1.51,5.61,1.08,6.82,4.48,1.22,3.4,1.83,7.66,2.93,9.56.24.02.63-.82,1.12-2.1.48-1.27,1.06-2.99,1.65-4.76,1.18-3.54,2.44-7.31,3.11-8.09,2.59-3.01,6.96-.92,6.12,2.48-1.97,6.39-3.88,12.75-5.71,19.11,3.03-2.43,6.1-4.81,9.15-7.22h0Z"/>
  <path class="cls-1" d="M1434.45,320.63c-2.88,1.6-6.92,1.43-7.46-2.02-.42-2.74,3.42-5.97,7.97-8.78,2.27-1.42,4.69-2.76,6.79-3.95,2.12-1.17,3.95-2.18,5-2.97-2.14-.99-8.06-1.03-13.72-1.06-5.66-.06-11.11-.23-12.19-1.72-1.81-2.48.56-5.02,3.34-6.16,1.32-.53,6.54-.82,11.45-.99,4.92-.17,9.49-.32,9.57-.81-4.04-3.39-13.37-6.03-16.81-9.57-2.29-2.37-.91-6.03,2.82-6.93,1.69-.4,5.95,1.73,10.19,4.27,4.24,2.54,8.43,5.45,10.05,6.5.94,0-.09-3.43-.75-7.33-.66-3.89-.96-8.25,1.43-9.99,4.98-3.65,6.86.09,7.8,4.79.94,4.7.94,10.35,1.99,10.63,1.47-1.8,3.49-5.23,5.77-8.21,2.29-2.97,4.91-5.41,7.45-5.36,4.74.12,3.83,3.51,1.71,7.36-1.06,1.93-2.43,3.95-3.55,5.8-1.11,1.84-1.98,3.45-2.08,4.47,1.03-.34,2.38-1.11,3.89-2,1.5-.89,3.19-1.85,4.82-2.64,3.29-1.57,6.44-2.37,8.04.08,1.81,2.78-.41,4.91-3.49,6.73-1.54.91-3.31,1.74-4.87,2.55-1.56.82-2.93,1.62-3.74,2.41,2.07.81,6.25,1.24,9.97,2.26,3.71,1,6.86,2.49,6.81,5.21-.04,1.79-1.07,2.78-2.68,3.27-1.61.49-3.74.52-6.03.3-4.57-.42-9.68-1.73-11.72-1.76-.82,0-1.36-.5-2.19.39,2.18,3.79,12.15,12.66,11.35,16.91-.33,1.76-2.77,3.26-4.45,3.38-3.02.22-12.59-12.29-15.36-14.57-.15,4.02-.27,8.03-.39,12.02-.69,2.32-.99,7.52-2.66,9.22-2.23,2.23-5.17,1.78-6.49-.77-1.08-2.09-.78-6.6-.35-11.29.44-4.67,1.03-9.49.36-12.18-5.86,3.28-11.9,9.42-17.59,12.52h0Z"/>
  <path class="cls-1" d="M1266.7,424.16c1.97-.35,4.26,2.74,5.84,3.66,3.97,2.34,8.36,4.07,11.86,7.11,1.35-1.22.6-.92.29-1.68-1.2-2.88-7.78-11.65-6.44-14.4,2.87-5.74,6.24-3.19,9.18,1.17,2.93,4.36,5.47,10.46,6.56,12l4.51-9.78c1.51-3.27,3.13-6.48,4.69-9.74l3.09-2.62c2.47-.19,4.51,2.05,4,4.58l-4.35,10.29c-1.42,3.43-2.76,6.9-4.13,10.33.51.81.94.45,1.59.48,1.57.08,4.41-.26,7.3-.68,1.44-.22,2.89-.45,4.21-.65,1.33-.2,2.53-.37,3.44-.5,3.55-.48,8.77-3.46,10.37,1.18,1.11,3.16-3.37,4.95-8.53,6.31-5.14,1.37-11.07,2.24-12.8,3.15,1.24,1.68,6.63,4.21,10.37,6.99,3.75,2.79,5.85,5.75.72,8.35-3.49,1.76-12.7-6.13-16.26-7.28-.54.17.33,4.17.6,8.29.24,4.11-.23,8.27-3.74,8.83-2.52.42-3.81-2.53-4.7-6-.9-3.46-1.41-7.46-2.48-9.03-2.04,1.43-4.5,6.32-6.95,10.16-2.49,3.82-5.16,6.5-7.93,3.43-1.43-1.59-.01-3.15-.57-4.76-2.31,3.37-7.81,3.29-7.67-1.02.08-1.92,2.44-4.99,5.12-8.02.67-.75,1.36-1.51,2.03-2.24.7-.72,1.38-1.42,2.02-2.07,1.28-1.32,2.4-2.48,3.11-3.33-.62-.91-1.26-.37-2.08-.33-1.69.08-4.89,1.01-7.93,1.59-3,.6-5.84.84-6.82-.58-.67-2.07-.57-3.52,0-4.56.6-1.02,1.68-1.62,2.99-2.04,2.62-.83,6.14-.88,8.51-1.99-2.82-2.64-12.79-5.81-12.43-10.39.07-.82.51-1.8,1.13-2.62.64-.81,1.47-1.45,2.27-1.59v-.02Z"/>
  <path class="cls-1" d="M1481.5,430.77c1.16,2.15.71,4.4-.56,5.59-1.27,1.18-3.32,1.34-5.45-.78-2.93-2.91-5.92-6.65-8.65-9.81-2.56,3.61-2.49,8.98-4.83,12.95-1.13,1.9-2.99,3.59-4.75,4.06-1.77.47-3.44-.24-4.24-3.23-.54-2.05,2.94-6.96,2.69-9.36-3.01,2.27-7.22,6-10.29,1.91-3.63-4.82,10.99-12.57,9.53-14.26-2.09-.45-6.03-.13-9.51-.37-3.49-.26-6.6-1.14-7.02-4.11-.62-4.49,5.62-4.49,8.57-4.29-2.22-2.01-8.79-4.21-6.7-8.23,3.12-5.95,12.97,2.85,17.05,3.77l.04-9.93.05-5,.11-4.98c.84-4.12,6.07-4.65,7.18-.75.33,7.78.69,15.44,1.24,23.15,1.12-.42,2.64-1.51,4.43-2.8,1.79-1.3,3.79-2.85,5.79-4.32,1.99-1.48,4-2.82,5.78-3.72,1.77-.91,3.31-1.36,4.37-1.02,4.13,1.33,3.55,4.05,1.57,6.73-1,1.34-2.35,2.67-3.64,3.82-1.27,1.17-2.5,2.16-3.29,2.78,1.46.3,3.77-.1,5.95-.14,2.19-.03,4.22.27,5.09,1.91,1.61,3.04-.98,4.41-3.95,5.25-2.99.83-6.43,1.08-6.51,1.7,2.35,2.25,11.02,3.76,8.6,8.29-1.48,2.77-4.01,2.17-6.71.92-2.7-1.25-5.61-3.18-7.78-3.09,1.51,2.46,4.51,4.97,5.82,7.39h0Z"/>
  <path class="cls-1" d="M1372.6,380.18c.53-1.77.63-6.67,1.57-10.62.93-3.95,2.75-6.84,6.44-4.57,1.98,1.22,1.98,4.26,1.5,7.48-.51,3.2-1.42,6.65-1.44,8.63,3.21-2.35,8.71-12.04,12.88-10.89,4.43,1.26,2.85,5.48-.24,9.69-3.13,4.18-7.68,8.48-9.46,9.77,1.67,1.15,6.44,3.43,10.09,6.15,3.65,2.71,6.19,5.83,3.49,8.55-1.46,1.47-3.67,1.22-5.87.41-2.18-.81-4.34-2.19-5.69-3.03-1.39.96-.65.8-.42,1.55.69,2.36,3.54,5.43.78,7.97-4.31,3.98-7.89-4.14-9.52-6.84-.69-.03-1.45,3.76-2.86,7.03-1.42,3.28-3.55,6.04-7.05,4.12-3.32-1.81-.56-6.71-.49-9.64-1.18,1.79-2.69,3.19-4.19,4.15-1.49.98-2.98,1.5-4.16,1.49-2.35-.02-3.45-2.18-.58-7.19l-.63-.64c-2.39.16-4.74.28-5.15-2.5-.36-2.38,1.64-3.91,4.1-5.06,2.47-1.15,5.4-1.91,7.01-2.78-3.17-2.23-8.8-2.39-9.09-7.32,1.31-3.12,3.3-3.6,6.18-3.18,1.47.22,2.91,1.42,4.22.98-.95-2.76-7.33-8.22-5.26-11.51,1.21-1.94,2.53-2.58,3.84-2.41,1.32.16,2.63,1.11,3.88,2.39,2.49,2.56,4.72,6.41,6.11,7.79h0Z"/>
  <path class="cls-1" d="M1372.44,489.76c-1.45-3.47-2.91-6.97-4.29-10.46,5.73-11.33,10.29,4.52,12.32,9.63.71-.66,1.69-2.08,2.83-3.77,1.14-1.7,2.44-3.66,3.85-5.37,2.81-3.44,5.83-6.02,8.16-3.77,4.39,4.23-6.26,12.39-7.83,16.04.02.55,4.39,1.3,9.03,2.37,4.62,1.05,9.62,2.5,10.9,4.12.72.91.77,2.42.29,3.37-1.91,3.96-10.49-1.05-14.04-.41,3.3,3.53,8.75,5.32,10.69,9.91-.89,1.1-1.73,2.23-2.58,3.36-2.55.71-14.8-9.63-17.62-11.65.77,2.93,1.56,5.85,2.37,8.75.83,2.91,1.68,5.82,2.53,8.7-3.6,4.94-6.29,1.62-8.18-2.96-1.89-4.57-2.93-10.47-3.48-10.36-1.12,1.19-2.37,4.4-3.92,6.94-1.53,2.57-3.3,4.52-5.65,3.18-2.44-1.39-2.37-3.55-1.51-5.8.21-.56.47-1.14.76-1.7.3-.56.62-1.11.93-1.65.62-1.08,1.22-2.1,1.57-2.97-2.82,1.4-5.67,2.8-8.44,4.28-3.06-1.17-4.07-2.49-3.86-3.85.21-1.35,1.64-2.74,3.5-3.97,3.7-2.48,8.84-4.45,8.8-4.96-1.32-1.06-4.21-1.93-6.61-3.1-2.4-1.16-4.33-2.63-3.67-4.93,1.87-6.11,9.47-.15,13.15,1.04h0Z"/>
  <path class="cls-1" d="M1419.86,190.33c2.85-3.53,6.18-14.73,11.47-14.71,4.09.02,3.55,3.23,1.78,6.88-1.78,3.65-4.81,7.76-5.81,9.62.69,1.49.52.82,1.59.41,4.36-1.69,13.28-8.51,16.18-4.72,3.74,4.88-10.17,9.83-13.87,11.88-.19.52,4.26,2.22,8.18,4.54,3.92,2.32,7.32,5.27,5.17,8.21-4.89,6.69-14.71-3.95-17.69-2.14.21,4.19,5.03,11.01-.28,14.74-4.18,2.94-6.46.44-7.95-3.27-1.5-3.7-2.2-8.61-3.3-10.44-.34-.03-1.32,1.01-2.7,2.55-1.38,1.56-3.13,3.64-5.06,5.67-1.92,2.03-4.01,3.99-6.02,5.35-2,1.38-3.95,2.14-5.62,1.72-4.92-1.24-2.4-6.18,1.89-11.25,4.3-5.04,10.31-10.27,12.16-12.15l-5.12-.65-5.12-.59-10.3-1.13c-2.26-.58-3.64-3.08-2.08-5.33,1.79-2.56,6.95-2.9,11.71-2.76,4.77.15,9.14.73,9.44-.18-2.18-2.21-11.35-7.45-8.47-11.5,2.94-4.13,7.01-2.42,10.76.67,3.76,3.07,7.23,7.44,9.06,8.59h-.01Z"/>
  <path class="cls-1" d="M1566.29,298.61c1.89-4.16,1.21-13,2.91-16.54,1.68-3.51,6.02-3.86,6.69.27.14.91-.63,5.3-1.3,9.46-.67,4.17-1.24,8.1-.79,8.18,3.67-3.52,11.73-15.73,16.39-16.83,3.16-.7,5.86,1.9,4.81,5.04-1.96,5.99-12.64,14.29-17.39,18.72.4,1.37.62.77,1.39.8,4.57.14,19.12-5.41,18.25,2.62-.39,3.88-13.06,3.18-16.11,4.32,6.63,2.87,13.2,5.77,19.72,8.7,3.55,3.42,1.18,7.56-4.01,6.64-3.54-.63-7.24-2.64-11.02-4.6-3.74-1.93-7.56-3.8-11.36-4.18,1.9,5.94,6.49,11.32,8.58,16.92.81,2.17,1.15,5.14-1.58,6.2-5.62,2.17-10.13-11-13.55-13.83,0,4.3.02,8.57.08,12.86-4.5,3.89-6.14,1.66-6.78-1.59-.64-3.25-.27-7.52-.81-7.65-2.37,2.34-3.51,7.28-6.19,9.21-2.2,1.58-4.79.63-5.69-1.75-.48-1.28,1.15-5.35,3.04-9.58,1.88-4.23,4.03-8.62,4.48-10.48-1.7-1.22-18.27,7.83-22.08,8.07-4.17.29-4.54-5.31-.11-7.98,2.85-1.73,6.49-3.01,10.17-4.22,1.84-.6,3.69-1.18,5.46-1.8.89-.3,1.76-.62,2.59-.95.85-.31,1.67-.64,2.44-.99.19-.4-3.11-2.37-6.63-4.41-3.5-2.02-7.25-4.15-7.96-5.04-.59-.72-1.07-1.49-1.09-2.47.85-2.38,2.25-3.35,3.95-3.42,1.73-.05,3.73.81,5.77,2.03,4.09,2.44,8.33,6.38,10.78,7.6.68.34.5.94,1.66-.05l-7.81-20.85c-.98-2.5,1.74-5.4,4.4-5.46,3.89-.08,6.96,14,8.72,17.03h-.01Z"/>
  <path class="cls-1" d="M1721.44,78.02c4.31-.11,14.2-5.44,16.58-1.05,1.98,3.64-1.88,5.95-6.83,7.65-4.94,1.69-11,2.85-13.39,4.07.13,1.21.9.89,1.73,1.14,2.19.62,10.28,2.08,11.25,3.21,1.53,1.76.6,4.55-1.76,5.55-4.25,1.79-16.38-3.25-20.52-4.78,1.85,4.52,14.51,17.35,13.91,21.35-.42,2.81-3.32,4.43-6.01,3.21-2.95-1.33-6.42-8.51-8.73-11.24-.42-.5-.86-1.63-1.74-1.11.38,3.51,4.1,14.17,2.47,17.03-1.86,3.24-6.27,2.85-7.57-.16l-4.66-22c-1.04-.31-12.09,15.09-14.49,16.82-2.69,1.93-5.93,1.32-6.52-1.58-.67-3.36,6.38-8.56,7.05-12.05-3.27,3.21-16.6,7.67-13.5-.17.67-1.67,4.33-4.54,8.32-7.17,3.99-2.62,8.33-5.06,10.32-5.99-2.17-1.37-7.11-1.02-11.85-.78-4.73.21-9.26.42-10.56-1.46-1.54-5.21,2.26-6.41,7.19-6.37,4.94.02,11.02,1.2,14.14.51l-14.4-16.1c-1.51-3.82,2.9-7.21,6.72-4.97,5.73,3.38,11.94,11.99,16.63,16.67,1.77-.47.97-.55,1.04-1.36.37-3.98-2.22-18.51,5.5-19.09,7.4-.55,4.37,11.95,5.46,16.19.86.35,7.27-11.29,8.86-12.37,3.05-2.05,6.5,1.15,5,4.15l-9.76,16.39,10.11-4.13h0Z"/>
  <path class="cls-1" d="M1778.02,144.22c-3.22.83-7.08-.35-6.72-3.83.57-5.57,18.15-8.33,22.96-10.44-3.69-2.91-22.94-5.51-24.32-8.97-1.13-2.84,1.72-4.7,4.64-5.12,2.78-.4,20.24,4.22,20.61,3.28-3.17-4.23-11.53-8.97-14.01-13.23-1.66-2.84.45-6.06,4.19-6.04,3.39,0,14.43,12.35,17.11,15.1,1.81.42-1.03-14.31,4.21-16.7,10.95-4.99,4.42,16.14,6.35,17.12,3.6-2.92,10.58-11.73,15.5-10.62,9.17,2.05-6.02,12.61-7.27,16.52,4.31-.48,15.13-6.67,17.34-1.25,2.51,6.15-10.44,6.72-14.25,9.17,3.72,2.39,16.31,5.24,15.09,10.58-1.61,7.04-16.67-1.31-20.69-2.2-.81-.18-1.24-.78-2.25-.09,1.29,4.18,9.24,14.95,7.46,18.94-.74,1.67-3.55,2.62-5.26,2.4-3.08-.41-9.64-14.72-11.85-17.56l-3.22,11.65c-1.26,2.11-2.82,7.18-4.91,8.43-2.79,1.66-5.6.53-6.25-2.26-1.07-4.57,5.77-17.33,5.73-22.88-6.47,1.9-13.87,6.38-20.19,8h0Z"/>
  <path class="cls-1" d="M1587.01,185.32c1.9.5,2.75,4.24,3.8,5.73,2.64,3.76,5.92,7.14,7.88,11.34,1.7-.57.92-.6.93-1.41.05-3.12-2.45-13.79-.18-15.73,9.56-8.07,8.35,14.7,9.11,18.39l15.97-14.26,3.81-1.22c2.35.78,3.39,3.62,1.96,5.76l-15.82,15.65c.14.94.69.79,1.27,1.08,2.83,1.4,10.99,3.26,14.54,4.19,3.48.91,9.52.12,9.19,5.03-.22,3.35-5.11,3.37-10.48,2.61-5.36-.76-11.18-2.31-13.15-2.16.46,2.04,4.39,6.51,6.71,10.56,2.32,4.05,3.03,7.62-2.84,8-3.99.25-9.16-10.72-11.95-13.22-.57-.07-1.41,4-2.95,7.84-1.55,3.84-3.8,7.45-7.26,6.51-5-1.34.51-12.93-.12-16.69-2.46.45-6.78,3.85-10.66,6.31-3.9,2.42-7.47,3.73-8.64-.25-.6-2.06,1.34-2.86,1.53-4.57-3.53,2.09-8.44-.42-6.46-4.21.89-1.7,4.3-3.47,7.99-5.06.92-.4,1.85-.79,2.77-1.15.93-.35,1.83-.7,2.69-1.02,1.71-.64,3.2-1.22,4.19-1.7-.19-1.08-.98-.87-1.73-1.17-1.57-.65-4.85-1.16-7.81-1.93-2.95-.75-5.59-1.74-5.88-3.45.27-2.15.94-3.42,1.88-4.09.95-.66,2.17-.74,3.51-.56,2.69.38,5.88,1.82,8.47,1.82-1.47-3.56-9.15-10.66-7-14.6.76-1.4,3.15-2.77,4.7-2.37h0Z"/>
  <path class="cls-1" d="M1792.7,263.57c.95,4.81-5.08,8.53-8.04,3.3-2.04-3.61-3.83-8.04-5.56-11.84-3.95,2.89-5.8,8.22-9.71,11.51-3.76,3.14-10.22,4.71-9.62-1.56.21-2.16,5.59-6.08,6.19-8.49-3.93,1.43-9.61,3.97-11.26-.9-1.92-5.68,15.74-9.35,14.86-11.42-4.02-1.99-16.5-2.78-15.29-8.82.92-4.55,7.23-2.83,10.17-1.87-1.58-2.55-7.48-6.46-4.01-9.82,5.1-4.96,12.21,6.25,16.09,8.16,2.17-6.48,4.32-12.99,6.56-19.47,2.11-3.83,7.6-3.07,7.55,1.02-2.04,7.69-4.1,15.35-6.07,23.05,5.14-.62,20.92-9.24,24.91-6.95,7.8,4.47-5.71,10.24-9.79,11.98,2.86,1.25,10.25.62,11.03,4.25,1.47,6.73-12.71,3.31-13.31,4.51,1.68,2.78,10.39,6.25,6.28,10.21-5.04,4.85-9.9-4.68-14.52-5.56.72,2.8,3.01,6,3.54,8.71v-.02Z"/>
  <path class="cls-1" d="M1700.94,183.8c1.08-1.51,2.79-6.16,4.96-9.6,2.15-3.45,4.79-5.64,7.6-2.33,3.02,3.56-3.83,11.55-5.14,15.35,3.88-1.21,12.27-8.79,15.94-6.4,3.89,2.54,1.02,6.09-3.35,9.17-4.39,3.05-10.23,5.73-12.39,6.41,2.44,3.23,15.32,14.71,8.12,18.3-3.88,1.93-8.3-3.66-10.33-6.12-1.7.46-.91.54-.97,1.34-.15,2.46,1.51,6.31-2.09,7.84-5.64,2.41-6.14-6.5-6.75-9.6-1.33-.49-8.25,13.34-13.56,7.31-2.5-2.83,1.93-6.55,3.04-9.31-7.04,5.19-17.01,2.93-7.93-4.47l-.37-.82c-2.32-.68-4.6-1.4-3.99-4.14,1.05-4.69,9.62-3.07,13.29-3.63-2.25-3.16-7.51-5.22-6.08-9.97,2.31-2.48,4.34-2.27,6.93-.92,1.32.7,2.27,2.31,3.67,2.33.03-2.92-4.18-10.19-1.14-12.59,7.14-5.64,8.83,8.34,10.56,11.86Z"/>
  <path class="cls-1" d="M1657.86,287.69l.56-11.48c10.51-8.69,8.04,7.99,7.68,13.62,1-.38,2.59-1.39,4.47-2.6,1.87-1.21,4.03-2.63,6.19-3.77,4.3-2.31,8.42-3.7,9.76-.76,2.52,5.55-11.77,9.68-14.96,12.61-.23.54,3.73,2.8,7.86,5.44,4.12,2.63,8.47,5.72,9,7.73.3,1.12-.36,2.6-1.3,3.35-3.8,3.18-10.03-4.63-13.83-5.26,1.61,4.57,6.21,8.19,5.95,13.31l-4.22,2.33c-2.93-.22-10.1-14.56-11.92-17.52l-1.89,9.23-1.77,9.27c-6.02,3.44-6.99-.76-6.59-5.85.4-5.09,2.21-11.09,1.62-11.2-3.32,1.44-11.05,10.33-14.27,6-3.37-4.52,4.57-8.03,7.6-10.84l-10.23.83c-4.79-4.6-1.32-6.56,3.41-7.51,4.72-.94,10.63-.87,10.84-1.38-1.58-3-9.6-7.63-6.24-11.46,4.58-5.05,9.23,3.41,12.29,5.9h0Z"/>
  <path class="cls-1" d="M1790.1,14.91c3.13-2.81,7.72-12.86,12.51-11.7,7.43,1.8-3.63,11.88-6.01,15.04.4,1.58.34.91,1.39.73,4.24-.7,13.37-5.37,15.53-1.11,2.78,5.49-10.78,7.35-14.48,8.53-.5.92,15.29,10.37,10.38,15.16-5.62,5.48-13-6.93-16.01-5.81-.48,4.08,2.85,11.74-2.71,14.14-8.75,3.79-6.63-11.77-8.04-15.79-1.24-.42-14.61,13.21-20.4,9.93-4.27-2.43-1.01-6.51,3.77-10.29,4.78-3.77,11.11-7.29,13.08-8.69l-18.14-7.27c-1.92-1.13-2.74-3.86-.97-5.61,4.03-3.99,18.65,3.94,19.47,2.33-1.64-2.63-9.05-9.82-5.85-13.02,6.5-6.51,13.49,10.43,16.47,13.44h0Z"/>
</svg>