<?xml version="1.0" encoding="UTF-8"?>
<svg id="Layer_1" data-name="Layer 1" xmlns="http://www.w3.org/2000/svg" viewBox="0 0 1000 1000">
  <path d="M115.18,514.31c-12.62.3-45.47,34.25-74.36,8.67-35.74-22.53-30.11-38.51-14.75-73.36l345.98-18.42-174.74-82.04-8.21-25.27,26.61-41.1,239.22,82.04-99.31-281.74,63.57,2.74c33.3,70.02,61.75,142.62,93.68,213.24,6.69,14.92,4.86,45.97,25.24,24.5,45.32-52.66,36.8-310.81,91.25-323.59,44.86.76,41.52,45.05,42.73,74.58,2.28,56.47-64.18,306.09-51.1,323.59,105.24-54.34,189.8-182.35,314.8-182.35,68.89,68.34-253.51,235.62-281.65,281.74,52.62,17.2,343.39,99.54,331.37,157.53-16.27,78.99-308.11-62.71-331.37-41.1,2.43,57.99,97.17,360.27,66,381.43-19.62,13.39-49.88-4.87-64.48-26.49-24.64-36.22-89.57-339.27-125.92-338.05-55.05,47.64-192.38,333.03-264.92,314.76-22.35-5.63-24.48-28.31-18.25-50.84,26-93,208.95-268.95,241.8-380.52-124.1,1.83-248.8-2.44-373.05,0h-.15Z"/>
</svg>