<?xml version="1.0" encoding="UTF-8"?>
<svg id="Layer_1" data-name="Layer 1" xmlns="http://www.w3.org/2000/svg" viewBox="0 0 1000 1000">
  <path d="M544.97,879.94c79.8-196.18-18.23-345.26-60.9-533.11,28.12-31.1,178.94-118.86,184.38-150.41.22-1.56-7.22-29.55-8.45-30.55-22.67-18.89-160.27,117.75-199.72,121.2l-19-88.54c22.45-38.77,222.51-143.08,229.4-155.19,12.22-21.55-2.33-50.1-35.34-41.88-35.57,8.78-243.73,153.86-252.18,185.19l119.59,420.69c-56.91,16.33-96.25,54.99-126.37,104.31-150.71,245.73,68.68,413.47,168.49,168.3h.11Z"/>
</svg>