<?xml version="1.0" encoding="UTF-8"?>
<svg id="Layer_1" data-name="Layer 1" xmlns="http://www.w3.org/2000/svg" viewBox="0 0 1000 1000">
  <defs>
    <style>
      .cls-1 {
        fill: #2c5f52;
      }
    </style>
  </defs>
  <path class="cls-1" d="M475.76,14.04l2.12,63.86C60.28-12.59-27.17,664.25,378.77,720.99c-45.84-133.46,64.15-344.55,194.27-391.3,134.66-48.42,310.32,49.18,301.24,201.25-7.87,130.74-136.63,236.66-251.16,277.82-40.09,14.38-108.78-7.11-95.92,44.03,123.31,55.38,278.24,110.16,404.13,33.59l23.3,80.8c-162.04,61.13-329.69,35.41-468.28-65.07-32.83-23.76-59.31-70.81-92.29-88.97-55.07-30.26-119.53-32.38-185.8-78.08C-107.51,516.87,64.97-100.5,475.61,14.04h.15ZM462.9,752.92c92.6-4.69,193.67-22.85,262.96-88.82,185.04-176.13-38.13-368.91-199.27-215.78-73.38,69.76-104.85,212.6-63.7,304.6Z"/>
</svg>