<?xml version="1.0" encoding="UTF-8"?>
<svg id="Layer_1" data-name="Layer 1" xmlns="http://www.w3.org/2000/svg" viewBox="0 0 1000 1000">
  <defs>
    <style>
      .cls-1 {
        fill: #2c5f52;
      }

      .cls-2 {
        fill: #fffaf3;
      }
    </style>
  </defs>
  <path class="cls-1" d="M444.38,404.79c173.56-18.07,419.34,65.65,521.63,212.93,50.74,72.99-10.67,94.04-70.22,123.32-220.98,108.72-566.15,125.66-774.53-18.63-122.81-85.01-82.33-107.92,21.41-188,85.32-65.9,193.27-118.32,301.7-129.61ZM402.36,455.2c-125.16,22.42-231.65,98.32-316.89,188.89,85,80.81,200.87,126.38,316.89,136.14-81.77-94.77-88.23-232.93,0-325.03ZM666.65,771.52c50.82-9.84,100.92-21.45,149.56-39.68,21.41-7.98,136.55-57.67,131.94-78.4-7.76-34.52-224.3-194.46-281.5-180.66,3.47,23.55,22.06,37.99,30.54,61.7,15.92,44.6,18.99,103.32,9.53,149.69-6.79,33.31-31.75,56.38-40.08,87.35Z"/>
  <path class="cls-1" d="M525.25,358.59l-35.09-5.74-17.1-179.44,26.69,3.8,6.55,11,18.94,170.38Z"/>
  <path class="cls-1" d="M260.32,236.28c7.36,4.2,65.19,146.47,54.97,156.81-15.21,1.94-19.79,1.21-31-8.88-10.47-9.45-65.11-143-58.08-149.38,10.55,1.13,25.52-3.39,34.11,1.53v-.08Z"/>
  <path class="cls-1" d="M793.87,244.11c19.18.97,22.35,11.64,20.48,28.61-1.63,14.39-28.77,101.92-35.92,114.61-18.12,32.09-44.7,31.85-40.64-4.53,1.95-17.46,44.7-135.95,56.08-138.7Z"/>
  <path class="cls-1" d="M11.83,375.47c13.72-2.74,101.08,99.43,104.99,113.72,15.88,57.62-42.52,3.63-57.52-12.35-11.17-11.94-88.31-93.3-47.47-101.37Z"/>
  <path class="cls-1" d="M886.71,497.97c-11.19-10.57,60.01-105.86,71.93-117.39,25.06-24.45,49.63-13.07,38.68,11.94-2.84,6.54-66.42,92.79-71.04,96.5-9.81,7.91-33.74,14.44-39.57,8.96Z"/>
  <path class="cls-1" d="M199.94,464.28c-26.95,25.29-65.28-44.67-52.69-71.52,24.61-6.98,64.31,60.6,52.69,71.52Z"/>
  <path class="cls-2" d="M402.36,454.55c-88.12,92.07-81.67,230.18,0,324.92-115.88-9.76-231.69-55.31-316.5-136.09,85.14-90.54,191.5-166.41,316.5-188.82Z"/>
  <path class="cls-2" d="M666.67,771.04c8.39-31.06,33.23-54.05,40.01-87.37,9.44-46.39,6.37-105.12-9.52-149.73-8.47-23.72-27.1-38.16-30.49-61.72,57.1-13.79,273.26,146.27,281.01,180.71,4.68,20.73-110.34,70.43-131.71,78.42-48.56,18.23-98.56,29.85-149.29,39.69Z"/>
</svg>