<?xml version="1.0" encoding="UTF-8"?>
<svg id="Layer_1" data-name="Layer 1" xmlns="http://www.w3.org/2000/svg" viewBox="0 0 1000 1000">
  <defs>
    <style>
      .cls-1 {
        fill: #1e3d34;
      }

      .cls-2 {
        fill: #fffaf3;
      }
    </style>
  </defs>
  <path class="cls-1" d="M892.78,548.42l-.45,35.05c243.22,307.67-185.66,459.79-433.81,320.64-29.53-16.55-86.79-76.8-99.32-79.34-23.56-4.62-74.11,39.37-112.59,45.34-185.51,28.63-299.6-161.22-221.9-319.45,17.3-35.05,79.78-78,82.91-96.34,7.31-42.5-117.21-120.5,17.6-242.05,102.6-92.46,224.58-65.17,317.49,24.61,93.35-162.11,242.93-256.36,419.94-143.32,157.18,100.37,195.5,349.43,29.97,455.01l.15-.15ZM440.18,800.31c106.63,86.35,373.71,136.31,441.41-11.04,54.58-118.71-114.68-190.89-121.09-220.57-7.9-37.29,145.1-76.36,161.21-194.92,38.92-286.64-355.37-348.98-421.43-64.73,125.71,55.78,149.87,84.71,130.34,229.52-37.58,277.24-583.68,24.31-213.1-211.92-53.09-158.53-342.84-113.34-263.36,52.79,19.98,41.76,100.66,54.29,85.3,108.87-7.76,27.74-89.63,21.03-127.65,67.86-55.62,68.6-46.83,176.28,31.46,223.85,124.07,75.46,157.92-71.88,231-53.24,35.64,9.25,45.78,57.12,65.92,73.52ZM446.45,402.86c-75.46,16.85-109.16,120.2-43.39,166.43,165.53,116.33,251.28-212.96,43.39-166.43Z"/>
  <path class="cls-1" d="M439.86,801.04c-20.14-16.26-30.29-64.16-65.94-73.57-73.1-18.65-106.97,128.78-231.1,53.27-78.33-47.6-87.13-155.34-31.48-223.98,38.04-46.86,119.95-40.14,127.71-67.89,15.22-54.62-65.5-67.15-85.34-108.93-79.52-166.23,210.36-211.6,263.47-52.83-370.74,236.37,175.75,489.45,213.2,212.04,19.54-144.74-4.62-173.69-130.39-229.65,66.09-284.42,460.55-222.19,421.61,64.76-16.11,118.63-169.18,157.73-161.28,195.03,6.27,29.7,175.74,101.92,121.14,220.7-67.73,147.43-334.78,97.44-441.6,11.04Z"/>
  <path class="cls-2" d="M446.36,402.45c207.72-46.81,122.04,284.44-43.36,167.43-65.71-46.51-32.04-150.32,43.36-167.43Z"/>
</svg>