<?xml version="1.0" encoding="UTF-8"?>
<svg id="Layer_1" data-name="Layer 1" xmlns="http://www.w3.org/2000/svg" viewBox="0 0 1000 1000">
  <path d="M892.78,548.42l-.45,35.05c243.22,307.67-185.66,459.79-433.81,320.64-29.53-16.55-86.79-76.8-99.32-79.34-23.56-4.62-74.11,39.37-112.59,45.34-185.51,28.63-299.6-161.22-221.9-319.45,17.3-35.05,79.78-78,82.91-96.34,7.31-42.5-117.21-120.5,17.6-242.05,102.6-92.46,224.58-65.17,317.49,24.61,93.35-162.11,242.93-256.36,419.94-143.32,157.18,100.37,195.5,349.43,29.97,455.01l.15-.15ZM440.18,800.31c106.63,86.35,373.71,136.31,441.41-11.04,54.58-118.71-114.68-190.89-121.09-220.57-7.9-37.29,145.1-76.36,161.21-194.92,38.92-286.64-355.37-348.98-421.43-64.73,125.71,55.78,149.87,84.71,130.34,229.52-37.58,277.24-583.68,24.31-213.1-211.92-53.09-158.53-342.84-113.34-263.36,52.79,19.98,41.76,100.66,54.29,85.3,108.87-7.76,27.74-89.63,21.03-127.65,67.86-55.62,68.6-46.83,176.28,31.46,223.85,124.07,75.46,157.92-71.88,231-53.24,35.64,9.25,45.78,57.12,65.92,73.52ZM446.45,402.86c-75.46,16.85-109.16,120.2-43.39,166.43,165.53,116.33,251.28-212.96,43.39-166.43Z"/>
</svg>