<?xml version="1.0" encoding="UTF-8"?>
<svg id="Layer_1" data-name="Layer 1" xmlns="http://www.w3.org/2000/svg" viewBox="0 0 1000 1000">
  <path d="M778.85,507c152.03,28.72,268.35,211.44,182.91,354.72-36.11,60.58-95.07,80.82-163.03,71.55l-5.72,28.09-200.65-23.48c-6.12-15.4,1.55-35.28-3.02-50.2-3.15-10.25-16.9-12.74-23.25-20.28-55.05-65.51-44.98-168.35-19.39-244.25-123.86,1.51-251.32-57.12-327.31-155.12-28.93,2.62-191.52,51.57-204.91,41.81-7.63-5.55-6.21-22.72,0-29.69l147.64-142.52C157.95,177.14,297.07,34.49,448.97,5.38c267.47-51.26,541.45,275.27,329.84,501.58l.04.04ZM48.59,482.81l175.9-42.83c62.29,82.91,181.53,155.52,286.01,163.73,67.65,5.33,52.75-16.87,94.18-50.78,23.16-18.91,57.98-35.86,86.95-43.63,47.56-12.74,53.1,3.15,89.21-41.36,145.69-179.53-45.34-424.13-242-444.02-155.32-15.71-320.39,105.9-348.69,259.51-3.99,21.7.31,46.69-8.83,68.57L48.59,482.81ZM735.47,932.42l35.49,4.57c11.49-4.13,2.97-22.68,18.77-29.87,9.05-4.13,41.12,7.19,58.56,5.81,103.81-8.26,137.04-141.67,106.96-226.85-86.82-245.71-437.06-192.05-408.05,79.18,5.28,49.13,27.55,88.06,71.2,111.71-11.76,11.32-9.45,25.92-8.74,41.1,53.19,18.37,59.98-41.59,57.72-81.93-68.54,9.36-84.64-116.24-15.39-83.71,26.93,12.65,21.03,66.4,54.3,59.25-17.66-42.83-18.28-157.78,50.62-145.05,37.71,6.97,39.13,83.71,18.1,109.81-1.33,9.59-31.72,32.13-29.94,37.64,3.64,11.54,9.32,4.08,14.46.09,20.67-16.2,50.35-47.14,77.59-19.53,36.47,36.97-45.6,75.05-77.28,55.92l-24.31,81.89-.04-.04ZM725.66,792.44c38.11-3.91,55.05-100.22,21.03-106.03-26.04-4.44-38.46,87.79-21.03,106.03ZM662.75,811.79l-26.57-43.41c-22.4,12.38,16.5,52.95,26.57,43.41ZM778.81,831.09c10.07,4.57,43.03-7.68,43.43-16.87.75-17.84-43.12,3.37-43.43,16.87ZM672.43,927.85l41.21-4.7,24.8-80.02-13.04-14.69-33.09,8.08-19.92,91.3.04.04Z"/>
  <path d="M727.73,970.76c16.34,1.57,61.35,6.4,55.34,29.24-51.5-3.94-99.37-10.88-151.58-9.72-16.96.4-32.02,14.24-45.71-7.34,3.05-2.28,10.47-12.18,11.92-12.18,40.9,0,90.45-3.76,129.98,0h.04Z"/>
  <path d="M472.6,280.09c54.86-7.19,65.84,101.53-1.3,101.67-54.01.13-57.42-93.98,1.3-101.67ZM459.84,356.33c36.9,9.34,44.74-31.51,20.42-52.24-32.16-1.97-36.1,29.54-20.42,52.24Z"/>
  <path d="M337.01,265.85c46.19-.76,55.32,82.77,2.95,94.38-68.34,15.11-70.58-93.27-2.95-94.38ZM327.43,289.23c-25.11,6.94-26.4,52.63,8.41,47.83,28.69-3.96,20.23-55.7-8.41-47.83Z"/>
  <path d="M655.75,379.65c-23.69,25.71-76.63,11.71-76.14-29.86.49-43.78,53.65-53.54,82.9-29.15,9.96,14.05,4.45,46.87-6.76,59.01ZM617.12,329.08c-20.31,6.05-16.67,41.57,3.73,42.27,29.69,1.06,33.6-53.4-3.73-42.27Z"/>
</svg>