<?xml version="1.0" encoding="UTF-8"?>
<svg id="Layer_1" data-name="Layer 1" xmlns="http://www.w3.org/2000/svg" viewBox="0 0 1000 1000">
  <defs>
    <style>
      .cls-1 {
        fill: #1e3d34;
      }

      .cls-2 {
        fill: #fff;
      }
    </style>
  </defs>
  <path class="cls-1" d="M955.4,431.62c-33.68,39.22-177.83,116.9-186.81,163.01,3.89,70.35,125.14,260.15,45.8,307.9-105.83,48.5-223.78-103.73-317.49-90.41-52.09,7.33-150.88,159.11-232.61,160.31l-38.77-19.76c-51.79-71.25,26.5-209.56,15.57-292.33-524.95-324.22-45.81-236.8,66.91-345.62,38.17-36.67,43.26-200.73,77.09-265.09,9.58-18.26,1.5-19.76,29.04-21.85,108.37-7.78,144.3,201.18,203.87,270.93,45.8,27.99,529.14-90.41,337.09,132.77l.3.15ZM895.97,356.03l-299.22,47.3L447.51,127.61c-38.62,16.47-29.79,195.79-80.83,245.48-54.49,52.99-201.33,53.44-269.88,88.91,62.57,77.99,178.42,92.36,221.83,187.41l-26.05,228.72c58.08-32.63,142.35-140.55,205.37-146.84,86.22-8.53,178.13,98.94,267.64,97.74-13.77-94.3-91.16-183.21-61.67-282.01,13.92-46.85,224.23-162.56,192.2-190.85l-.15-.15Z"/>
  <path class="cls-2" d="M895.97,356.04c32.03,28.29-178.28,144-192.2,190.85-29.34,98.79,47.9,187.7,61.67,282.01-89.51,1.2-181.42-106.28-267.64-97.74-63.02,6.29-147.29,114.21-205.37,146.84l26.05-228.72c-43.41-95.05-159.27-109.42-221.84-187.41,68.56-35.33,215.4-35.77,269.88-88.91,51.04-49.69,42.21-228.87,80.83-245.48l149.24,275.72,299.22-47.3.15.15Z"/>
</svg>