<?xml version="1.0" encoding="UTF-8"?>
<svg id="Layer_1" data-name="Layer 1" xmlns="http://www.w3.org/2000/svg" viewBox="0 0 1000 1000">
  <defs>
    <style>
      .cls-1 {
        fill: #1e3d34;
      }
    </style>
  </defs>
  <path class="cls-1" d="M599.03,837.88l159.95-7.2c.47,11.27,2.87,17.54-7.41,25.21-20.41,15.27-186.37,14.68-227.93,19.28-67.77,7.47-134.14,27.28-200.65,39.76-26.15,4.87-33.42-21.14-4.54-34.02,25.28-11.27,183.24-25.95,186.44-40.49-.47-84.91,21.55-168.89,28.68-253.34,9.94-117.47,34.88-332.19-96.72-390.22-63.5-27.95-94.85,3.4-135.81,48.69l89.18,19.68c75.98,30.08,146.62,120.13,119.47,203.51-18.94,58.23-47.09,44.96-92.25,67.44,40.42,61.57-33.35,90.92-89.32,81.92-48.23-7.81-85.25-57.37-105.13-62.7-13.47-3.6-38.02,6.87-56.5,6.94-37.35.07-72.17-14.27-94.72-44.16-33.02-43.76-5.94-59.7-14.21-79.91-8.27-20.21-48.23-32.35-54.3-69.64-20.08-122.94,112.53-156.69,209.39-135.14,51.1-135.81,169.96-190.97,301.5-113.93,216.39,126.74,102.19,516.76,84.98,718.33h-.13ZM533.59,845.15c15.87,1.67,19.41,1.74,27.68-12.21,11.14-18.87,18.14-89.52,22.15-116,25.88-172.1,90.18-550.04-151.29-595.4-95.32-17.94-173.03,42.82-188.51,133.81l20.81,8.27c80.31-203.05,291.57-90.65,305.78,90.58,12.67,162.02-18.28,330.65-36.56,490.94h-.06ZM366.3,496.29c191.64,27.62,119.33-173.43-8.54-205.85-42.02-10.67-56.03-10.54-78.44,27.95l-11.07,3.4c-38.56-80.71-222.99-81.65-235.13,12.87-8.47,65.9,73.24,76.44,78.31,93.45l-26.22,42.49c11.67,59.17,63.5,58.17,113.86,54.7l6.87-25.28,29.42,3.47-80.05-47.03c-84.31-87.85,4.8-127.07,94.99-102.19,117.87,32.49,183.3,161.49,6.94,149.35-19.28,59.56,93.19,106.32,130.81,76.18,25.48-20.41-33.89-54.77-21.75-83.45v-.07ZM329.94,467.14c9.41-57.77-161.22-119.13-174.1-75.51-17.01,57.5,135.34,90.05,174.1,75.51Z"/>
  <path class="cls-1" d="M467.22,771.65c-19.41,29.95-316.25,24.88-363.01,12.07-66.64-18.28-144.75-88.85-79.91-153.22,91.59-90.92,292.5,1.27,382.22,61.83,28.28,19.15,72.58,40.22,60.7,79.31ZM366.23,699.94c-85.65-35.42-165.76-87.31-263.62-71.11-43.02,7.14-87.65,36.29-56.3,81.91,49.43,71.98,256.15,54.16,334.52,43.63-71.51-30.29-155.89-36.09-232.53-47.5l-.13-28.81c65.97-4.67,130.27,18.34,194.71,27.08,7.87,1.07,25.08,8.01,23.41-5.27l-.07.07Z"/>
  <path class="cls-1" d="M895.86,468.94c98.66-5.14,138.01,59.23,70.38,136.41-47.7,54.43-207.72,133.34-278.23,143.68-17.88,2.6-54.7,2.67-51.56-22.41.93-7.27,10.41-15.74,11.61-25.01,15.68-118.27,122.74-226.13,247.74-232.66h.07ZM686.28,714.28c72.44-27.48,156.02-50.63,217.52-98.66,114.13-89.18,49.96-141.34-69.84-98.92-43.29,15.34-97.65,63.24-125.73,99.66-5.34,6.94-21.41,24.21-11.08,32.55,19.81-21.61,42.82-40.02,66.84-56.76,23.28-16.28,114.14-80.05,135.95-73.51l11.81,17.54c-73.98,58.3-176.83,94.12-225.4,178.1h-.07Z"/>
</svg>