<?xml version="1.0" encoding="UTF-8"?>
<svg id="Layer_1" data-name="Layer 1" xmlns="http://www.w3.org/2000/svg" viewBox="0 0 1000 1000">
  <defs>
    <style>
      .cls-1 {
        fill: #b8e04a;
      }

      .cls-2 {
        fill: #1e3d34;
      }

      .cls-3 {
        fill: #a89fd8;
      }
    </style>
  </defs>
  <path class="cls-2" d="M985.83,476.89c7.32,67.79,4.61,135.36,6.45,203.37.65,23.48,19.31,95.72-3.85,107.92-25.54,13.5-91,4.94-122.94,7.1-251.2,17.03-498.88,12.36-751.11,23.32-28.36,1.25-67.68,12.15-94.63,12.36-43.55.27-3.31-40.78,9.33-56.29,81.29-99.84,213.89-226.47,351.48-221.81,106.46,3.63,211.77,90.4,311.4,33.35,37.42-21.42,64.16-60.03,100.17-83.08,53.26-34.11,134.22-47.83,193.82-26.36l-.11.11ZM962.94,493.81c-39.7-.33-78.42-2.49-116.54,10.63-79.02,27.17-116.49,121.86-212.26,130.7-73.54,6.78-155.32-45.77-229.94-52.55-158.19-14.26-265.52,109.01-357.55,218.55l918.79-34.76-2.44-272.57h-.05Z"/>
  <path class="cls-2" d="M655.56,304.71c8.51,1.74,6.18-6.67,7.7-12.74,7.59-30.59,15.02-144.36,67.52-118.88,23.86,11.55,35.41,73.81,37.26,98.97,5.15,70.72-16.92,157.6-43.11,223.32-14.75,37.04-13.34,56.45-61.23,57-72.78.81-194.04-85.09-229.51-147.51-47.24-83.08,40.24-91.43,101.25-53.91,16.27,10.03,24.68,27.98,43.17,30.64-4.5-34.76-49.35-200.06-1.79-211.99,38.72-9.71,75,105.32,78.74,135.14v-.05ZM448.56,357.96c-17.46,17.84,76.25,105.1,92.68,117.14,27.55,20.28,112.53,64.26,143.88,45.39,17.3-10.41,49.19-140.73,52.44-166.22,4.77-37.31,6.62-114.21-11.77-146.42-15.02-26.36-24.02,29.23-26.03,37.69-15.67,67.19-5.75,126.09-15.08,185.85-3.31,21.26-17.9,41-29.18,12.15-16.32-41.87-17.68-116.16-33.84-167.14-7.54-23.75-18.82-52.28-34.22-72.18-24.13,39.86,42.52,230.1,29.77,248.38-16.43,23.54-45.12-32.86-56.24-44.63-30.48-32.32-65.78-57.54-112.48-50.06l.05.05Z"/>
  <path class="cls-1" d="M962.94,493.81l2.44,272.57-918.8,34.76c92.03-109.55,199.36-232.81,357.55-218.55,74.62,6.73,156.46,59.33,229.94,52.55,95.83-8.84,133.25-103.53,212.26-130.7,38.13-13.12,76.85-10.95,116.54-10.63h.05Z"/>
  <path class="cls-3" d="M448.56,357.95c46.69-7.43,82,17.73,112.48,50.06,11.12,11.77,39.81,68.22,56.24,44.63,12.74-18.28-53.91-208.52-29.77-248.38,15.4,19.9,26.68,48.37,34.22,72.18,16.16,50.98,17.52,125.27,33.84,167.14,11.23,28.85,25.81,9.11,29.18-12.15,9.33-59.76-.6-118.71,15.08-185.85,2.01-8.51,11.01-64.05,26.03-37.69,18.38,32.16,16.54,109.06,11.77,146.42-3.25,25.54-35.14,155.81-52.44,166.22-31.4,18.87-116.33-25.11-143.88-45.39-16.43-12.09-110.15-99.35-92.68-117.14l-.05-.06Z"/>
</svg>