<?xml version="1.0" encoding="UTF-8"?>
<svg id="Layer_1" data-name="Layer 1" xmlns="http://www.w3.org/2000/svg" viewBox="0 0 1000 1000">
  <defs>
    <style>
      .cls-1 {
        fill: #2c5f52;
      }
    </style>
  </defs>
  <path class="cls-1" d="M436.79,42.72c2.69-9.49,34.33-30.06,43.19-42.72,80.68-1.58,28,348.86,26.1,413.41,95.71-39.08,151.4-154.73,246.33-193.5,35.44-14.4,54.1-25.47,81.16,12.66,19.3,69.61-183.67,178.46-230.03,218.02-17.88,15.35-36.07,16.93-28.63,48.89,100.14,28.95,208.19,47.78,306.6,81.32,39.39,13.45,163.42,49.21,90.49,100.31-53.47,37.34-345.36-101.73-431.58-95.24l119.76,317.22-42.56,28.32c-70.08-.16-102.68-240.33-163.43-276.56-13.92,56.64-82.27,357.56-146.5,344.75-73.25-14.56,16.3-231.63,25.47-275.77-72.93,30.69-188.9,257.1-241.9,129.26l259.3-301.4c-88.91-23.89-225.44,30.69-301.38,17.4-24.36-4.27-46.04-14.56-43.51-43.19,12.81-53.95,301.85-48.1,362.13-60.75-31.17-39.4-190.8-255.99-155.2-292.85,119.44-3.96,124.83,180.36,224.18,206.79,16.14-88.92-21.83-259.47,0-336.2v-.16Z"/>
</svg>