<?xml version="1.0" encoding="UTF-8"?>
<svg id="Layer_1" data-name="Layer 1" xmlns="http://www.w3.org/2000/svg" viewBox="0 0 1000 1000">
  <defs>
    <style>
      .cls-1 {
        fill: #1e3d34;
      }

      .cls-2 {
        fill: #8fbfb0;
      }
    </style>
  </defs>
  <path class="cls-1" d="M489.89,223.92c238.59-32.68,400.72,221.86,239.15,420.63-190.21,233.99-571.89,97.17-499.24-205.2,23.16-96.37,163.95-202.34,260.09-215.43ZM506.23,259.38c-48.46,2.22-124.77,46.96-161.26,78.92-232.25,203.37,56.4,515.81,301.97,327.82,196.47-150.39,99.23-417.69-140.71-406.83v.08Z"/>
  <path class="cls-1" d="M971.91,196l13.25,21.58c1.03,8.25-4.68,11.74-9.12,16.97-5.15,6.03-127.7,78.53-135.72,80.59-11.66,3.01-26.25-1.43-28.4-11.5-6.43-30.38,137.3-87.65,159.99-107.71v.08Z"/>
  <path class="cls-1" d="M388.35,169.83L362.33,5.64c35.53-35.93,58.78,110.97,59.81,126.67,1.9,28.08-2.06,41.17-33.87,37.52h.08Z"/>
  <path class="cls-1" d="M784.24,237.16c-6.11,3.41-31.41,3.17-32.76,1.82-14.28-13.8,57.9-124.21,73.29-120.96,36.8,7.93-34.58,115.81-40.53,119.14Z"/>
  <path class="cls-1" d="M146.19,870.05c-16.42-15.79,102.16-142.22,112.32-90.58-8.8,22.84-90.74,111.28-112.32,90.58Z"/>
  <path class="cls-1" d="M75.13,561.34c29.35-2.94,51.24-9.68,70.83,19.11,0,37.76-174.74,25.78-120.96-8.72,16.02-3.49,34.19-8.72,50.21-10.31l-.08-.08Z"/>
  <path class="cls-1" d="M531.05,861.49c33.71-7.06,27.13,134.29,8.41,138.25-33.71,7.06-27.13-134.29-8.41-138.25Z"/>
  <path class="cls-1" d="M887.76,750.84c45.13,81.94-122.07-17.05-93.12-45.05,18.48-11.5,88.2,36.09,93.12,45.05Z"/>
  <path class="cls-1" d="M219.8,135.32c25.62-8.09,96.14,77.18,60.2,86.38-18.16,4.68-62.03-46.8-69.17-60.36-7.93-15.15-1.35-16.58,8.96-26.02Z"/>
  <path class="cls-1" d="M863.88,653.83c-3.49-45.29,27.6-38.79,51.79-12.77-4.84,32.84-30.46,18.24-51.79,12.77Z"/>
  <path class="cls-2" d="M506.22,259.37c239.94-10.87,337.19,256.44,140.71,406.83-245.57,187.99-534.22-124.45-301.97-327.82,36.49-31.97,112.79-76.78,161.26-78.92v-.08Z"/>
</svg>