<?xml version="1.0" encoding="UTF-8"?>
<svg id="Layer_1" data-name="Layer 1" xmlns="http://www.w3.org/2000/svg" viewBox="0 0 1000 1000">
  <defs>
    <style>
      .cls-1 {
        fill: #fff;
      }
    </style>
  </defs>
  <path class="cls-1" d="M320.26,998.16c168.67,26.21,290.95-233.68,280.51-373.07-3.25-43.41-25.25-83.86-29.19-124.73-11.85-124.17-8.6-252-32.16-374.76,63.18,59.9,186.73,137.13,166.28,234.52-9.59,45.66-78.98,74.13-51.2,118.81,40.76,65.82,118.04-66.66,124.67-107.25,13.26-81.18-39.63-149.4-86.59-207.18-23.98-29.6-169.52-186.89-199.28-161.8-32.44,173.64,7.05,353.34,16.36,528.38-166.84,6.2-440.73,427.89-189.26,467.08h-.14Z"/>
</svg>