<?xml version="1.0" encoding="UTF-8"?>
<svg id="Layer_1" data-name="Layer 1" xmlns="http://www.w3.org/2000/svg" viewBox="0 0 1000 1000">
  <defs>
    <style>
      .cls-1 {
        fill: #1e3d34;
      }

      .cls-2 {
        fill: #8fbfb0;
      }

      .cls-3 {
        fill: #a89fd8;
      }
    </style>
  </defs>
  <path class="cls-1" d="M572.9,6.05c435.1-73.12,505.31,535.61,277.45,811.8-311.89,378.15-958.02,112.72-804.64-296.82,63.74-170.18,249.57-187.5,352.17-319.58,49.05-63.16,85.14-180.22,175.02-195.32v-.08ZM633.71,40.83c-150.14,10.67-147.3,123.55-230.54,217.45-92.48,104.18-257.87,129.16-316.79,268.75-76.69,181.57,66.42,359.89,234.49,416.17,324.84,108.77,626.94-183.94,625.2-504.39-.95-172.08-108.6-412.54-312.28-397.99h-.08Z"/>
  <path class="cls-2" d="M633.5,41.17c203.79-14.55,311.57,225.97,312.44,398.1,1.74,320.62-300.51,613.4-625.51,504.53-168.15-56.3-311.33-234.67-234.61-416.29,58.95-139.71,224.49-164.7,316.94-268.83,83.36-93.85,80.44-206.76,230.65-217.51h.08ZM702.09,161.27c-142.39,20.56-136.7,247.95,31.29,230.24,159.3-16.76,121.61-252.3-31.29-230.24ZM684.94,454.06c-150.93,20.64-134.81,251.67,22.68,247.4,189.72-5.14,124.45-267.48-22.68-247.4ZM227.97,549.18c-111.89,22.85-95.38,194.66,32.48,194.58,154.8,0,116.24-224.95-32.48-194.58ZM495.37,695.45c-119.4,17-129.35,183.04,1.58,209.76,167.12,34.16,175.89-235.07-1.58-209.76Z"/>
  <path class="cls-1" d="M684.46,453.05c147.24-20.14,212.55,243.02,22.69,248.09-157.6,4.28-173.81-227.4-22.69-248.09ZM675.28,496.42c-110.47,25.37-51.79,213.52,73.78,151.68,86.35-42.5,10.36-171.02-73.78-151.68Z"/>
  <path class="cls-1" d="M701.93,160.63c153.21-22.14,190.97,213.52,31.35,230.28-168.33,17.71-173.95-209.72-31.35-230.28ZM718.4,195.42c-87.17,2.61-117.58,136.57-18.21,152.39,140.7,22.46,107.52-155.08,18.21-152.39Z"/>
  <path class="cls-1" d="M495.13,695.36c176.75-25.16,168.01,242.52,1.58,208.56-130.4-26.57-120.48-191.66-1.58-208.56ZM511.34,730.35c-39.9,2.12-72.71,36.79-72.87,76.96,27.7,81.29,164,81.13,144.48-23.43-4.96-26.41-45.25-54.87-71.53-53.45l-.08-.08Z"/>
  <path class="cls-1" d="M227.59,549.36c148.31-30.25,186.85,193.81,32.39,193.89-127.51,0-144.06-171.12-32.39-193.89ZM206.62,682.34c50.36,50.5,157.14-4.57,95.67-74.21-61.47-69.65-146.97,22.77-95.67,74.21Z"/>
  <path class="cls-3" d="M675.78,497.45c84.68-19.24,161.02,108.59,74.19,150.86-126.27,61.51-185.27-125.63-74.19-150.86Z"/>
  <path class="cls-3" d="M718.46,195.23c89.46-2.69,122.61,175.22-18.24,152.64-99.45-15.92-69.08-150.11,18.24-152.64Z"/>
  <path class="cls-3" d="M511.77,729.81c26.42-1.35,67,27.31,71.9,53.99,19.62,105.68-117.39,105.84-145.23,23.66.24-40.58,33.22-75.59,73.25-77.73l.08.08Z"/>
  <path class="cls-3" d="M206.42,681.72c-51.89-51.86,36.19-142.98,96.77-74.7,60.58,68.28-45.83,125.61-96.77,74.7Z"/>
</svg>