<?xml version="1.0" encoding="UTF-8"?>
<svg id="Layer_1" data-name="Layer 1" xmlns="http://www.w3.org/2000/svg" viewBox="0 0 1000 1000">
  <defs>
    <style>
      .cls-1 {
        fill: #1e3d34;
      }
    </style>
  </defs>
  <path class="cls-1" d="M572.9,6.05c435.1-73.12,505.31,535.61,277.45,811.8-311.89,378.15-958.02,112.72-804.64-296.82,63.74-170.18,249.57-187.5,352.17-319.58,49.05-63.16,85.14-180.22,175.02-195.32v-.08ZM633.71,40.83c-150.14,10.67-147.3,123.55-230.54,217.45-92.48,104.18-257.87,129.16-316.79,268.75-76.69,181.57,66.42,359.89,234.49,416.17,324.84,108.77,626.94-183.94,625.2-504.39-.95-172.08-108.6-412.54-312.28-397.99h-.08Z"/>
  <path class="cls-1" d="M684.46,453.05c147.24-20.14,212.55,243.02,22.69,248.09-157.6,4.28-173.81-227.4-22.69-248.09ZM675.28,496.42c-110.47,25.37-51.79,213.52,73.78,151.68,86.35-42.5,10.36-171.02-73.78-151.68Z"/>
  <path class="cls-1" d="M701.93,160.63c153.21-22.14,190.97,213.52,31.35,230.28-168.33,17.71-173.95-209.72-31.35-230.28ZM718.4,195.42c-87.17,2.61-117.58,136.57-18.21,152.39,140.7,22.46,107.52-155.08,18.21-152.39Z"/>
  <path class="cls-1" d="M495.13,695.36c176.75-25.16,168.01,242.52,1.58,208.56-130.4-26.57-120.48-191.66-1.58-208.56ZM511.34,730.35c-39.9,2.12-72.71,36.79-72.87,76.96,27.7,81.29,164,81.13,144.48-23.43-4.96-26.41-45.25-54.87-71.53-53.45l-.08-.08Z"/>
  <path class="cls-1" d="M227.59,549.36c148.31-30.25,186.85,193.81,32.39,193.89-127.51,0-144.06-171.12-32.39-193.89ZM206.62,682.34c50.36,50.5,157.14-4.57,95.67-74.21-61.47-69.65-146.97,22.77-95.67,74.21Z"/>
</svg>